<svg xmlns="http://www.w3.org/2000/svg" width="154" height="27" fill="none"><path fill="#fff" d="M117.254 14.27c2.643 1.862 4.292 4.466 5.686 7.265.329.66.707 1.314.763 2.072.019.262 0 .544-.08.792-.61 1.89-3.024 2.435-4.342.945-.589-.666-1.068-1.44-1.54-2.201-.923-1.487-1.811-2.997-2.702-4.504-.914-1.547-2.125-2.83-3.493-3.981-.692-.582-.821-1.345-.646-2.172.181-.841.764-1.314 1.589-1.445.529-.083 1.077-.032 1.612-.093.588-.066 1.19-.125 1.749-.304 1.518-.488 2.161-1.57 2.024-3.264-.108-1.338-1.122-2.449-2.491-2.687a10.24 10.24 0 0 0-1.641-.173c-1.889-.02-3.779-.008-5.72-.008v.41c0 6.067 0 12.133-.004 18.201 0 .29-.028.585-.093.867-.31 1.339-1.29 2.054-2.717 2.003-1.246-.044-2.163-.87-2.377-2.164a6.706 6.706 0 0 1-.086-1.105c-.006-6.326-.004-12.65 0-18.978 0-.357.021-.72.077-1.073.201-1.269.95-1.992 2.227-2.164.311-.042.628-.066.942-.067 2.969-.004 5.939-.028 8.909.017 1.074.017 2.171.09 3.209.336 3.585.85 5.453 3.91 5.139 7.417-.266 2.961-2 4.693-4.68 5.648-.222.08-.448.148-.673.218-.209.065-.42.126-.638.19l-.003.002ZM129.284 13.185c.014-2.347.323-4.4 1.151-6.353 1.358-3.198 3.699-5.318 7.05-6.258 2.85-.8 5.724-.763 8.549.107 3.374 1.038 5.739 3.234 6.93 6.559 1.39 3.88 1.396 7.817-.067 11.672-1.488 3.923-4.45 6.166-8.562 6.864-2.729.465-5.422.279-8.029-.734-.995-.387-1.611-1.206-1.621-2.185a2.302 2.302 0 0 1 1.445-2.16c.799-.322 1.548-.146 2.26.252 2.654 1.486 6.923 1.025 8.873-2.425a9.006 9.006 0 0 0 1.088-3.094c.342-2.225.317-4.437-.444-6.585-.829-2.341-2.397-3.911-4.885-4.406-3.579-.712-6.556 1.028-7.725 4.479-.699 2.067-.741 4.181-.456 6.325.078.578.113 1.197-.009 1.759-.238 1.097-1.272 1.87-2.375 1.915-1.152.046-2.237-.603-2.573-1.69-.263-.849-.384-1.746-.518-2.628-.082-.542-.068-1.098-.083-1.41l.001-.004ZM82.229 4.523v.422c0 2.404.008 4.809 0 7.213-.014 3.548-.033 7.096-.07 10.644a5.098 5.098 0 0 1-.192 1.36c-.35 1.212-1.332 1.876-2.62 1.832-1.164-.039-2.094-.807-2.364-1.993a5.569 5.569 0 0 1-.136-1.202c-.008-6.37-.006-12.741 0-19.112 0-.357.027-.72.098-1.07.25-1.26.977-1.933 2.256-2.102.356-.047.716-.07 1.075-.07 2.272-.006 4.546-.009 6.818.001 1.34.006 2.678.077 3.978.436 2.734.753 4.59 2.926 4.931 5.75.163 1.35.134 2.693-.235 4.01-.668 2.388-2.286 3.85-4.592 4.618-1.359.453-2.764.607-4.188.58-.997-.018-1.788-.804-1.86-1.795-.088-1.222.508-2.059 1.624-2.271.474-.09.958-.14 1.42-.266 1.745-.475 2.6-1.638 2.536-3.444a5.135 5.135 0 0 0-.2-1.258c-.381-1.3-1.362-1.892-2.625-2.106-.476-.08-.958-.162-1.438-.17-1.391-.022-2.784-.008-4.22-.008l.004.001ZM11.54 5.942c-1.045 2.902-2.055 5.733-3.082 8.556a1495.421 1495.421 0 0 1-3.441 9.373 6.89 6.89 0 0 1-.6 1.201c-.552.903-1.868 1.199-2.938.687-1.21-.58-1.76-1.734-1.338-3.064.392-1.239.89-2.444 1.367-3.654C3.637 13.634 5.774 8.23 7.912 2.827c.111-.281.26-.547.393-.819C9.548-.532 12.812-.352 14.112.96c.542.546.92 1.192 1.203 1.892 2.523 6.228 5.04 12.458 7.546 18.693.209.516.36 1.066.456 1.615.245 1.373-.909 2.75-2.314 2.838-1.127.07-1.968-.379-2.423-1.4a95.29 95.29 0 0 1-1.702-4.136 225.745 225.745 0 0 1-1.729-4.633c-1.16-3.18-2.308-6.367-3.464-9.55-.033-.091-.077-.178-.146-.336v-.001ZM34.648 4.558v.47c0 6.034 0 12.068-.005 18.102 0 .279-.026.563-.088.834-.304 1.327-1.289 2.07-2.67 2.032-1.239-.034-2.2-.88-2.427-2.167a6.567 6.567 0 0 1-.087-1.14c-.006-6.326-.005-12.651 0-18.978 0-.346.023-.696.077-1.04.201-1.268.95-1.991 2.23-2.159a7.802 7.802 0 0 1 1.009-.067C36.568.44 40.45.44 44.33.445c.325 0 .654.02.973.074 1.04.183 1.682.941 1.686 1.964.006 1.043-.636 1.815-1.687 1.996-.33.058-.67.075-1.006.075-3.06.006-6.12.003-9.18.003h-.465l-.004.001ZM58.342 4.558v.44l-.001 18.164c0 .764-.184 1.477-.723 2.044-.749.788-1.684.958-2.697.677-1.027-.286-1.573-1.037-1.767-2.05a6.155 6.155 0 0 1-.09-1.138c-.006-6.335-.006-12.67 0-19.005 0-.346.025-.697.08-1.038.197-1.231.94-1.956 2.182-2.133.343-.05.694-.072 1.041-.072 3.891-.006 7.783-.004 11.674 0 .325 0 .654.02.972.077 1.037.19 1.673.957 1.669 1.978-.005 1.043-.65 1.807-1.703 1.983-.33.055-.67.071-1.005.073-3.07.006-6.141.003-9.211.003h-.418l-.003-.003Z"/><path fill="#fff" d="M43.313 10.666h-3.897a2.028 2.028 0 1 0 0 4.056h3.897a2.028 2.028 0 1 0 0-4.056ZM67.218 10.666H63.32a2.028 2.028 0 1 0 0 4.056h3.897a2.028 2.028 0 1 0 0-4.056Z"/></svg>
