<?xml version="1.0" encoding="UTF-8"?> <svg xmlns="http://www.w3.org/2000/svg" width="126" height="35" viewBox="0 0 126 35" fill="none"><path d="M4.87668 30.3549C1.62605 27.2584 0 22.9582 0 17.4529C0 11.9476 1.6327 7.70249 4.90031 4.62121C8.16719 1.54064 13.2108 0 20.0318 0C26.8528 0 31.8882 1.54137 35.1396 4.62121C38.3902 7.70249 40.0163 11.9802 40.0163 17.4529C40.0163 22.9256 38.391 27.2584 35.1396 30.3549C31.8882 33.4514 26.852 35 20.0318 35C13.2115 35 8.12731 33.4514 4.87594 30.3549H4.87668ZM26.4865 24.138C27.8253 22.3712 28.4943 20.1429 28.4943 17.4522C28.4943 14.7615 27.8253 12.581 26.4865 10.8135C25.1477 9.04675 23.0121 8.16266 20.0798 8.16266C17.1474 8.16266 14.8604 9.04675 13.5061 10.8135C12.1511 12.581 11.4739 14.7941 11.4739 17.4522C11.4739 20.1103 12.1504 22.3314 13.5061 24.1148C14.8604 25.8975 17.0514 26.7888 20.0798 26.7888C23.1081 26.7888 25.1477 25.9054 26.4865 24.138Z" fill="white"></path><path d="M84.1921 19.7516V28.5722H77.6901V34.5304H66.2634C66.3904 33.2166 66.4857 31.231 66.5507 28.5722H43.8413V19.095C51.2671 13.4962 57.8976 7.28799 63.7298 0.468872H77.6901V19.7523H84.1921V19.7516ZM66.7892 9.75839C64.5901 11.9795 62.693 13.8332 61.1002 15.318C59.5059 16.8043 57.7056 18.2819 55.6978 19.7516H66.6459L66.7892 9.75839Z" fill="white"></path><path d="M92.1514 19.7515V0.46814H106.112C111.945 7.28726 118.574 13.4955 126 19.0943V28.5715H103.291C103.355 31.2303 103.451 33.2166 103.578 34.5297H92.1514V28.5715H85.6494V19.7508H92.1514V19.7515ZM103.196 19.7515H114.144C112.136 18.2819 110.336 16.8036 108.741 15.318C107.148 13.8325 105.251 11.9795 103.052 9.75838L103.196 19.7515Z" fill="white"></path><path d="M51.0877 26.7293V26.9279C51.0877 26.9721 51.0508 27.0076 51.0064 27.0076H50.2555C50.2104 27.0076 50.1742 26.9713 50.1742 26.9279V26.7308C50.1742 26.6866 50.1484 26.651 50.1166 26.651C50.0849 26.651 50.059 26.6148 50.059 26.5713V26.3619C50.059 26.3177 50.028 26.2822 49.9896 26.2822C49.9512 26.2822 49.9202 26.246 49.9202 26.2025V25.9945C49.9202 25.9503 49.8833 25.9148 49.839 25.9148H47.7219C47.6768 25.9148 47.6406 25.951 47.6406 25.9945V26.2025C47.6406 26.2467 47.6096 26.2822 47.5712 26.2822C47.5328 26.2822 47.5018 26.3184 47.5018 26.3619V26.5713C47.5018 26.6155 47.476 26.651 47.4442 26.651C47.4124 26.651 47.3866 26.6873 47.3866 26.7308V26.9279C47.3866 26.9721 47.3497 27.0076 47.3054 27.0076H46.5544C46.5093 27.0076 46.4731 26.9713 46.4731 26.9279V26.7293C46.4731 26.6851 46.5101 26.6496 46.5544 26.6496H46.5654C46.6105 26.6496 46.6467 26.6134 46.6467 26.5699V26.3619C46.6467 26.3177 46.6718 26.2822 46.7021 26.2822C46.7323 26.2822 46.7574 26.246 46.7574 26.2025V25.9945C46.7574 25.9503 46.7929 25.9148 46.8372 25.9148C46.8815 25.9148 46.9169 25.8786 46.9169 25.8351V25.6271C46.9169 25.5829 46.9435 25.5474 46.9768 25.5474C47.01 25.5474 47.0366 25.5111 47.0366 25.4677V25.2597C47.0366 25.2155 47.0728 25.18 47.1163 25.18C47.1599 25.18 47.1961 25.1437 47.1961 25.1003V24.8923C47.1961 24.8481 47.233 24.8126 47.2773 24.8126H47.2825C47.3275 24.8126 47.3637 24.7763 47.3637 24.7328V24.5249C47.3637 24.4807 47.3925 24.4452 47.428 24.4452C47.4634 24.4452 47.4922 24.4089 47.4922 24.3654V24.1604C47.4922 24.1162 47.5203 24.0806 47.555 24.0806C47.5897 24.0806 47.6177 24.0444 47.6177 24.0009V23.798C47.6177 23.7538 47.6547 23.7183 47.699 23.7183H47.7226C47.7676 23.7183 47.8038 23.6821 47.8038 23.6386V23.4335C47.8038 23.3893 47.8363 23.3538 47.8754 23.3538C47.9146 23.3538 47.9471 23.3176 47.9471 23.2741V23.0726C47.9471 23.0284 47.984 22.9929 48.0283 22.9929H48.0313C48.0763 22.9929 48.1125 22.9567 48.1125 22.9132V22.7081C48.1125 22.6639 48.1494 22.6284 48.1937 22.6284H49.3664C49.4114 22.6284 49.4476 22.6646 49.4476 22.7081V22.9132C49.4476 22.9574 49.4845 22.9929 49.5288 22.9929H49.5318C49.5768 22.9929 49.613 23.0292 49.613 23.0726V23.2741C49.613 23.3183 49.6455 23.3538 49.6846 23.3538C49.7238 23.3538 49.7563 23.39 49.7563 23.4335V23.6386C49.7563 23.6828 49.7932 23.7183 49.8375 23.7183H49.8611C49.9062 23.7183 49.9424 23.7546 49.9424 23.798V24.0009C49.9424 24.0451 49.9704 24.0806 50.0051 24.0806C50.0398 24.0806 50.0679 24.1169 50.0679 24.1604V24.3654C50.0679 24.4096 50.0967 24.4452 50.1321 24.4452C50.1676 24.4452 50.1964 24.4814 50.1964 24.5249V24.7328C50.1964 24.7771 50.2333 24.8126 50.2776 24.8126H50.2828C50.3278 24.8126 50.364 24.8488 50.364 24.8923V25.1003C50.364 25.1445 50.3994 25.18 50.4438 25.18C50.4881 25.18 50.5235 25.2162 50.5235 25.2597V25.4677C50.5235 25.5119 50.5501 25.5474 50.5833 25.5474C50.6166 25.5474 50.6431 25.5836 50.6431 25.6271V25.8351C50.6431 25.8793 50.6786 25.9148 50.7229 25.9148C50.7672 25.9148 50.8026 25.951 50.8026 25.9945V26.2025C50.8026 26.2467 50.8277 26.2822 50.858 26.2822C50.8883 26.2822 50.9134 26.3184 50.9134 26.3619V26.5699C50.9134 26.6141 50.9503 26.6496 50.9946 26.6496H51.0057C51.0508 26.6496 51.0869 26.6858 51.0869 26.7293H51.0877ZM49.531 25.2822V25.0742C49.531 25.03 49.5059 24.9945 49.4757 24.9945C49.4454 24.9945 49.4203 24.9582 49.4203 24.9147V24.6973C49.4203 24.6531 49.3944 24.6176 49.3627 24.6176C49.3309 24.6176 49.3051 24.5814 49.3051 24.5379V24.3394C49.3051 24.2952 49.2763 24.2596 49.2408 24.2596C49.2054 24.2596 49.1766 24.2234 49.1766 24.1799V23.9748C49.1766 23.9306 49.1463 23.8951 49.1101 23.8951C49.0739 23.8951 49.0437 23.8589 49.0437 23.8154V23.6125C49.0437 23.5683 49.0067 23.5328 48.9624 23.5328H48.5954C48.5504 23.5328 48.5142 23.569 48.5142 23.6125V23.8154C48.5142 23.8596 48.4839 23.8951 48.4477 23.8951C48.4116 23.8951 48.3813 23.9314 48.3813 23.9748V24.1799C48.3813 24.2241 48.3525 24.2596 48.317 24.2596C48.2816 24.2596 48.2528 24.2959 48.2528 24.3394V24.5379C48.2528 24.5821 48.2269 24.6176 48.1952 24.6176C48.1634 24.6176 48.1376 24.6539 48.1376 24.6973V24.9147C48.1376 24.9589 48.1125 24.9945 48.0822 24.9945C48.0519 24.9945 48.0268 25.0307 48.0268 25.0742V25.2822C48.0268 25.3264 48.0638 25.3619 48.1081 25.3619H49.4491C49.4941 25.3619 49.5303 25.3256 49.5303 25.2822H49.531Z" fill="black"></path><path d="M55.5071 26.9278C55.5071 26.9721 55.4702 27.0076 55.4259 27.0076H54.9555C54.9104 27.0076 54.8743 26.9713 54.8743 26.9278V26.3612C54.8743 26.317 54.8432 26.2814 54.8056 26.2814C54.7679 26.2814 54.7369 26.3177 54.7369 26.3612V26.5706C54.7369 26.6148 54.7 26.6503 54.6557 26.6503H54.6512C54.6062 26.6503 54.57 26.6865 54.57 26.73V26.7452C54.57 26.7894 54.5331 26.8249 54.4888 26.8249H54.443C54.398 26.8249 54.3618 26.8612 54.3618 26.9047V26.9264C54.3618 26.9706 54.3249 27.0061 54.2805 27.0061H52.0682C52.0231 27.0061 51.9869 26.9699 51.9869 26.9264V26.9047C51.9869 26.8605 51.95 26.8249 51.9057 26.8249H51.8422C51.7972 26.8249 51.761 26.7887 51.761 26.7452V26.73C51.761 26.6858 51.7241 26.6503 51.6798 26.6503H51.6702C51.6251 26.6503 51.5889 26.6141 51.5889 26.5706V26.3612C51.5889 26.317 51.552 26.2814 51.5077 26.2814H51.501C51.456 26.2814 51.4198 26.2452 51.4198 26.2017V25.9988C51.4198 25.9546 51.3895 25.9191 51.3519 25.9191C51.3142 25.9191 51.2839 25.8829 51.2839 25.8394V25.6365C51.2839 25.5923 51.247 25.5568 51.2027 25.5568H51.1843C51.1392 25.5568 51.103 25.5205 51.103 25.4771V24.1553C51.103 24.1111 51.1399 24.0756 51.1843 24.0756H51.2027C51.2478 24.0756 51.2839 24.0393 51.2839 23.9958V23.7929C51.2839 23.7487 51.3142 23.7132 51.3519 23.7132C51.3895 23.7132 51.4198 23.677 51.4198 23.6335V23.4306C51.4198 23.3864 51.4567 23.3509 51.501 23.3509H51.5077C51.5527 23.3509 51.5889 23.3147 51.5889 23.2712V23.0683C51.5889 23.0241 51.6258 22.9886 51.6702 22.9886H51.6798C51.7248 22.9886 51.761 22.9523 51.761 22.9088V22.8871C51.761 22.8429 51.7979 22.8074 51.8422 22.8074H51.9057C51.9508 22.8074 51.9869 22.7712 51.9869 22.7277V22.7059C51.9869 22.6617 52.0239 22.6262 52.0682 22.6262H54.6771C54.7221 22.6262 54.7583 22.6625 54.7583 22.7059V22.7277C54.7583 22.7719 54.7952 22.8074 54.8396 22.8074H54.875C54.92 22.8074 54.9562 22.8436 54.9562 22.8871V22.9088C54.9562 22.953 54.9924 22.9886 55.0375 22.9886C55.0825 22.9886 55.1187 23.0248 55.1187 23.0683V23.2712C55.1187 23.3154 55.1482 23.3509 55.1837 23.3509C55.2191 23.3509 55.2487 23.3871 55.2487 23.4306V23.6335C55.2487 23.6777 55.2797 23.7132 55.3173 23.7132C55.355 23.7132 55.386 23.7495 55.386 23.7929V23.8147C55.386 23.8589 55.4133 23.8944 55.4473 23.8944C55.4813 23.8944 55.5086 23.9306 55.5086 23.9741V24.1792C55.5086 24.2234 55.4717 24.2589 55.4274 24.2589H54.6985C54.6535 24.2589 54.6173 24.2227 54.6173 24.1792V23.9741C54.6173 23.9299 54.5818 23.8944 54.5383 23.8944C54.4947 23.8944 54.4593 23.8582 54.4593 23.8147V23.6118C54.4593 23.5676 54.4223 23.5321 54.378 23.5321H54.3684C54.3234 23.5321 54.2872 23.4958 54.2872 23.4523V23.4306C54.2872 23.3864 54.2503 23.3509 54.206 23.3509H52.5866C52.5415 23.3509 52.5053 23.3871 52.5053 23.4306V23.4523C52.5053 23.4965 52.4684 23.5321 52.4241 23.5321H52.3975C52.3525 23.5321 52.3163 23.5683 52.3163 23.6118V23.8147C52.3163 23.8589 52.2831 23.8944 52.2424 23.8944C52.2018 23.8944 52.1693 23.9306 52.1693 23.9741V23.9958C52.1693 24.04 52.1324 24.0756 52.0881 24.0756H52.077C52.032 24.0756 51.9958 24.1118 51.9958 24.1553V25.4771C51.9958 25.5213 52.0327 25.5568 52.077 25.5568H52.0881C52.1332 25.5568 52.1693 25.593 52.1693 25.6365V25.6582C52.1693 25.7024 52.2026 25.7379 52.2424 25.7379C52.2823 25.7379 52.3163 25.7742 52.3163 25.8177V26.0206C52.3163 26.0648 52.3532 26.1003 52.3975 26.1003H52.4241C52.4691 26.1003 52.5053 26.1365 52.5053 26.18V26.2017C52.5053 26.2459 52.5423 26.2814 52.5866 26.2814H54.0856C54.1306 26.2814 54.1668 26.2452 54.1668 26.2017V26.18C54.1668 26.1358 54.2038 26.1003 54.2481 26.1003H54.2577C54.3027 26.1003 54.3389 26.064 54.3389 26.0206V25.8177C54.3389 25.7735 54.3743 25.7379 54.4179 25.7379C54.4615 25.7379 54.4969 25.7017 54.4969 25.6582V25.443C54.4969 25.3988 54.46 25.3633 54.4157 25.3633H53.5251C53.4801 25.3633 53.4439 25.3271 53.4439 25.2836V24.7567C53.4439 24.7125 53.4808 24.677 53.5251 24.677H55.4281C55.4731 24.677 55.5093 24.7133 55.5093 24.7567V26.93L55.5071 26.9278Z" fill="black"></path><path d="M56.9914 23.4278V24.3155C56.9914 24.3597 57.0283 24.3952 57.0726 24.3952H58.9328C58.9778 24.3952 59.014 24.4314 59.014 24.4749V24.9814C59.014 25.0257 58.9771 25.0612 58.9328 25.0612H57.0726C57.0276 25.0612 56.9914 25.0974 56.9914 25.1409V26.1974C56.9914 26.2416 57.0283 26.2772 57.0726 26.2772H59.5937C59.6387 26.2772 59.6749 26.3134 59.6749 26.3569V26.9228C59.6749 26.967 59.638 27.0025 59.5937 27.0025H57.1886C57.1435 27.0025 57.1073 27.0025 57.1073 27.004C57.1073 27.0047 57.0808 27.0054 57.049 27.0054H56.1813C56.1363 27.0054 56.1001 26.9692 56.1001 26.9257V22.8814C56.1001 22.8372 56.137 22.8017 56.1813 22.8017H56.2566C56.3017 22.8017 56.3379 22.7654 56.3379 22.7219V22.7002C56.3379 22.656 56.3563 22.6205 56.3785 22.6205H59.5937C59.6387 22.6205 59.6749 22.6567 59.6749 22.7002V23.2662C59.6749 23.3104 59.638 23.3459 59.5937 23.3459H57.0726C57.0276 23.3459 56.9914 23.3821 56.9914 23.4256V23.4278Z" fill="black"></path><path d="M62.4931 27.0091C62.448 27.0091 62.4119 26.9729 62.4119 26.9294V26.662C62.4119 26.6178 62.3749 26.5823 62.3306 26.5823H62.2915C62.2465 26.5823 62.2103 26.5461 62.2103 26.5026V26.2866C62.2103 26.2424 62.1733 26.2069 62.129 26.2069H62.1039C62.0589 26.2069 62.0227 26.1707 62.0227 26.1272V25.9112C62.0227 25.867 61.9858 25.8315 61.9415 25.8315H61.9385C61.8935 25.8315 61.8573 25.7953 61.8573 25.7518V25.5359C61.8573 25.4917 61.8285 25.4562 61.7938 25.4562C61.7591 25.4562 61.7303 25.4199 61.7303 25.3764V25.1605C61.7303 25.1163 61.7015 25.0808 61.6668 25.0808C61.6321 25.0808 61.6025 25.0445 61.6025 25.0011V24.7851C61.6025 24.7409 61.5656 24.7054 61.5213 24.7054H61.5198C61.4748 24.7054 61.4386 24.6692 61.4386 24.6257V24.4097C61.4386 24.3655 61.4017 24.33 61.3574 24.33H61.3367C61.2916 24.33 61.2555 24.2938 61.2555 24.2503V24.1597C61.2555 24.1155 61.2185 24.08 61.1742 24.08H61.1092C61.0642 24.08 61.028 24.1162 61.028 24.1597V26.9337C61.028 26.978 60.9911 27.0135 60.9468 27.0135H60.2179C60.1729 27.0135 60.1367 26.9772 60.1367 26.9337V22.8894C60.1367 22.8452 60.1736 22.8097 60.2179 22.8097H60.294C60.3391 22.8097 60.3752 22.7734 60.3752 22.73V22.7082C60.3752 22.664 60.4122 22.6285 60.4565 22.6285H61.6313C61.6764 22.6285 61.7126 22.6647 61.7126 22.7082V22.7988C61.7126 22.843 61.7495 22.8785 61.7938 22.8785H61.8189C61.8639 22.8785 61.9001 22.9147 61.9001 22.9582V23.1742C61.9001 23.2184 61.937 23.2539 61.9813 23.2539H61.9961C62.0412 23.2539 62.0773 23.2901 62.0773 23.3336V23.5496C62.0773 23.5938 62.1061 23.6293 62.1416 23.6293C62.177 23.6293 62.2051 23.6655 62.2051 23.709V23.9249C62.2051 23.9691 62.2339 24.0046 62.2686 24.0046C62.3033 24.0046 62.3321 24.0409 62.3321 24.0844V24.3003C62.3321 24.3445 62.3609 24.38 62.3964 24.38C62.4318 24.38 62.4599 24.4163 62.4599 24.4597V24.6757C62.4599 24.7199 62.4887 24.7554 62.5234 24.7554C62.5581 24.7554 62.5869 24.7916 62.5869 24.8351V25.0511C62.5869 25.0953 62.6157 25.1308 62.6511 25.1308C62.6866 25.1308 62.7146 25.167 62.7146 25.2105V25.3844C62.7146 25.4286 62.7515 25.4641 62.7959 25.4641H62.8187C62.8638 25.4641 62.9 25.5004 62.9 25.5438V25.6489C62.9 25.6931 62.9369 25.7286 62.9812 25.7286H62.9827C63.0277 25.7286 63.0639 25.6924 63.0639 25.6489V24.1568C63.0639 24.1126 63.0639 24.0771 63.0639 24.0771C63.0639 24.0771 63.0639 24.0409 63.0639 23.9974V22.7046C63.0639 22.6604 63.1008 22.6249 63.1451 22.6249H63.6332C63.6783 22.6249 63.7145 22.6611 63.7145 22.7046V22.7263C63.7145 22.7705 63.7514 22.806 63.7957 22.806H63.8718C63.9168 22.806 63.953 22.8423 63.953 22.8858V26.9301C63.953 26.9743 63.9161 27.0098 63.8718 27.0098H62.4946L62.4931 27.0091Z" fill="black"></path><path d="M67.9801 24.1778V23.9728C67.9801 23.9286 67.9446 23.893 67.9011 23.893C67.8575 23.893 67.822 23.8568 67.822 23.8133V23.6104C67.822 23.5662 67.7851 23.5307 67.7408 23.5307H67.7312C67.6862 23.5307 67.65 23.4945 67.65 23.451V23.4293C67.65 23.3851 67.6131 23.3495 67.5688 23.3495H66.0594C66.0143 23.3495 65.9782 23.3858 65.9782 23.4293V23.451C65.9782 23.4952 65.9412 23.5307 65.8969 23.5307H65.8703C65.8253 23.5307 65.7891 23.5669 65.7891 23.6104V23.8133C65.7891 23.8575 65.7522 23.893 65.7079 23.893H65.6614C65.6163 23.893 65.5801 23.9293 65.5801 23.9728V23.9945C65.5801 24.0387 65.5432 24.0742 65.4989 24.0742H65.4406C65.3955 24.0742 65.3593 24.1104 65.3593 24.1539V25.4757C65.3593 25.5199 65.3963 25.5554 65.4406 25.5554H65.4989C65.5439 25.5554 65.5801 25.5917 65.5801 25.6352V25.6569C65.5801 25.7011 65.6171 25.7366 65.6614 25.7366H65.7079C65.7529 25.7366 65.7891 25.7728 65.7891 25.8163V26.0192C65.7891 26.0634 65.826 26.0989 65.8703 26.0989H65.8969C65.942 26.0989 65.9782 26.1352 65.9782 26.1787V26.2004C65.9782 26.2446 66.0151 26.2801 66.0594 26.2801H67.5688C67.6138 26.2801 67.65 26.2439 67.65 26.2004V26.1787C67.65 26.1344 67.6869 26.0989 67.7312 26.0989H67.7408C67.7859 26.0989 67.822 26.0627 67.822 26.0192V25.8163C67.822 25.7721 67.8575 25.7366 67.9011 25.7366C67.9446 25.7366 67.9801 25.7004 67.9801 25.6569V25.4518C67.9801 25.4076 68.017 25.3721 68.0613 25.3721H68.7901C68.8352 25.3721 68.8714 25.4083 68.8714 25.4518V25.6569C68.8714 25.7011 68.8485 25.7366 68.8212 25.7366C68.7938 25.7366 68.7709 25.7728 68.7709 25.8163V25.8381C68.7709 25.8823 68.7451 25.9178 68.7141 25.9178C68.6831 25.9178 68.6572 25.954 68.6572 25.9975V26.2004C68.6572 26.2446 68.6284 26.2801 68.593 26.2801C68.5575 26.2801 68.5287 26.3163 68.5287 26.3598V26.5627C68.5287 26.6069 68.4918 26.6424 68.4475 26.6424H68.4431C68.398 26.6424 68.3619 26.6787 68.3619 26.7222V26.7439C68.3619 26.7881 68.3249 26.8236 68.2806 26.8236H68.2023C68.1573 26.8236 68.1211 26.8598 68.1211 26.9033V26.9251C68.1211 26.9693 68.0842 27.0048 68.0399 27.0048H65.431C65.3859 27.0048 65.3497 26.9685 65.3497 26.9251V26.9033C65.3497 26.8591 65.3128 26.8236 65.2685 26.8236H65.205C65.16 26.8236 65.1238 26.7874 65.1238 26.7439V26.7222C65.1238 26.6779 65.0868 26.6424 65.0425 26.6424H65.0329C64.9879 26.6424 64.9517 26.6062 64.9517 26.5627V26.3598C64.9517 26.3156 64.9148 26.2801 64.8705 26.2801H64.8638C64.8188 26.2801 64.7826 26.2439 64.7826 26.2004V25.9975C64.7826 25.9533 64.7523 25.9178 64.7147 25.9178C64.677 25.9178 64.6467 25.8815 64.6467 25.8381V25.6352C64.6467 25.5909 64.6098 25.5554 64.5655 25.5554H64.547C64.502 25.5554 64.4658 25.5192 64.4658 25.4757V24.1539C64.4658 24.1097 64.5027 24.0742 64.547 24.0742H64.5655C64.6106 24.0742 64.6467 24.038 64.6467 23.9945V23.7916C64.6467 23.7474 64.677 23.7119 64.7147 23.7119C64.7523 23.7119 64.7826 23.6756 64.7826 23.6322V23.4293C64.7826 23.3851 64.8195 23.3495 64.8638 23.3495H64.8705C64.9155 23.3495 64.9517 23.3133 64.9517 23.2698V23.0669C64.9517 23.0227 64.9886 22.9872 65.0329 22.9872H65.0425C65.0876 22.9872 65.1238 22.951 65.1238 22.9075V22.8858C65.1238 22.8416 65.1607 22.806 65.205 22.806H65.2685C65.3136 22.806 65.3497 22.7698 65.3497 22.7263V22.7046C65.3497 22.6604 65.3867 22.6249 65.431 22.6249H68.0399C68.0849 22.6249 68.1211 22.6611 68.1211 22.7046V22.7263C68.1211 22.7705 68.158 22.806 68.2023 22.806H68.2806C68.3257 22.806 68.3619 22.8423 68.3619 22.8858V22.9075C68.3619 22.9517 68.3988 22.9872 68.4431 22.9872H68.4475C68.4926 22.9872 68.5287 23.0234 68.5287 23.0669V23.2698C68.5287 23.314 68.5575 23.3495 68.593 23.3495C68.6284 23.3495 68.6572 23.3858 68.6572 23.4293V23.6322C68.6572 23.6764 68.6831 23.7119 68.7141 23.7119C68.7451 23.7119 68.7709 23.7481 68.7709 23.7916V23.8133C68.7709 23.8575 68.7938 23.893 68.8212 23.893C68.8485 23.893 68.8714 23.9293 68.8714 23.9728V24.1778C68.8714 24.222 68.8345 24.2576 68.7901 24.2576H68.0613C68.0163 24.2576 67.9801 24.2213 67.9801 24.1778Z" fill="black"></path><path d="M71.4947 26.9279C71.4947 26.9721 71.4578 27.0076 71.4127 27.0076H70.6839C70.6388 27.0076 70.6026 26.9714 70.6026 26.9279V24.8879C70.6026 24.8437 70.5657 24.8082 70.5214 24.8082H70.5044C70.4594 24.8082 70.4232 24.772 70.4232 24.7285V24.7068C70.4232 24.6626 70.3907 24.6271 70.3508 24.6271C70.311 24.6271 70.2785 24.5908 70.2785 24.5473V24.5241C70.2785 24.4799 70.2482 24.4444 70.212 24.4444C70.1758 24.4444 70.1455 24.4082 70.1455 24.3647V24.3401C70.1455 24.2959 70.1094 24.2604 70.0651 24.2604C70.0207 24.2604 69.9846 24.2241 69.9846 24.1807V24.1567C69.9846 24.1125 69.955 24.077 69.9188 24.077C69.8827 24.077 69.8531 24.0408 69.8531 23.9973V23.9756C69.8531 23.9314 69.8221 23.8959 69.7844 23.8959C69.7468 23.8959 69.7158 23.8596 69.7158 23.8162V23.7944C69.7158 23.7502 69.6825 23.7147 69.6412 23.7147C69.5998 23.7147 69.5666 23.6785 69.5666 23.635V23.6132C69.5666 23.569 69.5349 23.5335 69.4965 23.5335C69.4581 23.5335 69.4263 23.4973 69.4263 23.4538V23.4335C69.4263 23.3893 69.396 23.3538 69.3598 23.3538C69.3237 23.3538 69.2934 23.3176 69.2934 23.2741V23.2502C69.2934 23.206 69.2631 23.1705 69.2254 23.1705C69.1878 23.1705 69.1575 23.1342 69.1575 23.0908V23.0705C69.1575 23.0263 69.1206 22.9908 69.0763 22.9908H69.0556C69.0106 22.9908 68.9744 22.9545 68.9744 22.911V22.8893C68.9744 22.8451 68.9404 22.8096 68.8991 22.8096C68.8577 22.8096 68.8237 22.7734 68.8237 22.7299V22.7089C68.8237 22.6647 68.8607 22.6292 68.905 22.6292H69.9063C69.9513 22.6292 69.9875 22.6654 69.9875 22.7089V22.7299C69.9875 22.7741 70.0193 22.8096 70.0584 22.8096C70.0975 22.8096 70.1293 22.8458 70.1293 22.8893V22.911C70.1293 22.9552 70.1596 22.9908 70.1958 22.9908C70.2319 22.9908 70.2622 23.027 70.2622 23.0705V23.0922C70.2622 23.1364 70.291 23.1719 70.3265 23.1719C70.3619 23.1719 70.3907 23.2082 70.3907 23.2516V23.2748C70.3907 23.319 70.4195 23.3545 70.455 23.3545C70.4904 23.3545 70.5192 23.3908 70.5192 23.4343V23.4545C70.5192 23.4987 70.548 23.5343 70.5834 23.5343C70.6189 23.5343 70.6477 23.5705 70.6477 23.614V23.6357C70.6477 23.6799 70.6794 23.7154 70.7186 23.7154C70.7577 23.7154 70.7895 23.7517 70.7895 23.7951V23.8169C70.7895 23.8611 70.8183 23.8966 70.8537 23.8966C70.8892 23.8966 70.918 23.9328 70.918 23.9763V23.998C70.918 24.0422 70.9549 24.0778 70.9992 24.0778H71.0937C71.1388 24.0778 71.1749 24.0415 71.1749 23.998V23.9763C71.1749 23.9321 71.2037 23.8966 71.2392 23.8966C71.2746 23.8966 71.3034 23.8604 71.3034 23.8169V23.7951C71.3034 23.7509 71.3352 23.7154 71.3743 23.7154C71.4134 23.7154 71.4452 23.6792 71.4452 23.6357V23.614C71.4452 23.5698 71.474 23.5343 71.5095 23.5343C71.5449 23.5343 71.5737 23.498 71.5737 23.4545V23.4343C71.5737 23.3901 71.6025 23.3545 71.6379 23.3545C71.6734 23.3545 71.7022 23.3183 71.7022 23.2748V23.2516C71.7022 23.2074 71.731 23.1719 71.7664 23.1719C71.8019 23.1719 71.8307 23.1357 71.8307 23.0922V23.0705C71.8307 23.0263 71.861 22.9908 71.8971 22.9908C71.9333 22.9908 71.9636 22.9545 71.9636 22.911V22.8893C71.9636 22.8451 71.9953 22.8096 72.0345 22.8096C72.0736 22.8096 72.1054 22.7734 72.1054 22.7299V22.7089C72.1054 22.6647 72.1423 22.6292 72.1866 22.6292H73.1902C73.2352 22.6292 73.2714 22.6654 73.2714 22.7089V22.7299C73.2714 22.7741 73.2374 22.8096 73.1961 22.8096C73.1547 22.8096 73.1207 22.8458 73.1207 22.8893V22.911C73.1207 22.9552 73.0838 22.9908 73.0395 22.9908H73.0188C72.9738 22.9908 72.9376 23.027 72.9376 23.0705V23.0908C72.9376 23.135 72.9073 23.1705 72.8697 23.1705C72.832 23.1705 72.8017 23.2067 72.8017 23.2502V23.2741C72.8017 23.3183 72.7715 23.3538 72.7353 23.3538C72.6991 23.3538 72.6688 23.39 72.6688 23.4335V23.4538C72.6688 23.498 72.6371 23.5335 72.5987 23.5335C72.5603 23.5335 72.5285 23.5698 72.5285 23.6132V23.635C72.5285 23.6792 72.4953 23.7147 72.4539 23.7147C72.4126 23.7147 72.3793 23.7509 72.3793 23.7944V23.8162C72.3793 23.8604 72.3483 23.8959 72.3107 23.8959C72.273 23.8959 72.242 23.9321 72.242 23.9756V23.9973C72.242 24.0415 72.2125 24.077 72.1763 24.077C72.1401 24.077 72.1105 24.1133 72.1105 24.1567V24.1807C72.1105 24.2249 72.0744 24.2604 72.03 24.2604C71.9857 24.2604 71.9496 24.2966 71.9496 24.3401V24.3647C71.9496 24.4089 71.9193 24.4444 71.8831 24.4444C71.8469 24.4444 71.8166 24.4807 71.8166 24.5241V24.5473C71.8166 24.5915 71.7841 24.6271 71.7443 24.6271C71.7044 24.6271 71.6719 24.6633 71.6719 24.7068V24.7285C71.6719 24.7727 71.635 24.8082 71.5907 24.8082H71.5737C71.5287 24.8082 71.4925 24.8445 71.4917 24.8879L71.4895 26.9279H71.4947Z" fill="black"></path></svg> 