<svg xmlns="http://www.w3.org/2000/svg" width="67" height="48" fill="none"><path fill="#fff" d="M64.921 18.703c-.91-1.776-2.38-3.213-4.419-4.31-2.031-1.096-4.63-1.649-7.793-1.649H23.776a2.673 2.673 0 0 0-2.668 2.67v17.418c0 3.417-1.25 5.117-3.74 5.117-2.497 0-3.755-1.709-3.755-5.117V15.464a2.717 2.717 0 0 0-2.72-2.72H2.635A2.637 2.637 0 0 0 0 15.38V32.4c0 1.283.136 2.677.408 4.19.272 1.513.96 3.145 2.056 4.896 1.097 1.76 2.864 3.256 5.303 4.48 2.43 1.233 5.634 1.845 9.602 1.845-.51-.009 5.022.06 9.372-2.958a3.38 3.38 0 0 1 3.306-3.961 2.763 2.763 0 0 1-.382-1.395c0-1.334.951-2.448 2.218-2.703.186-.808.297-1.581.373-2.27-.017 0-.042 0-.068.009-.136.008-1.104.161-2.022.765a5.051 5.051 0 0 0-1.53 1.598.743.743 0 0 1-1.24.06 8.83 8.83 0 0 1-.391-.587c-.221-.357-.892-1.573-1.283-3.375-.28-1.309-.485-2.261-.094-3.273.536-1.394 1.878-2.1 2.669-2.405a.749.749 0 0 0 .476-.706 18.23 18.23 0 0 1 .17-2.652c.025-.187.059-.374.084-.561.009-.077.026-.145.043-.221l.05-.255s.026-.11.052-.23c1.274-5.78 5.438-9.734 5.438-9.734a.34.34 0 0 1 .247-.101c.085 0 .178.034.246.101 0 0 1.037.987 2.243 2.704 1.199 1.709 2.558 4.148 3.196 7.03.025.12.05.23.05.23l.052.255c.017.076.025.144.042.22a18.366 18.366 0 0 1 .256 3.213c0 .316.185.596.475.707.79.306 2.132 1.011 2.667 2.405.392 1.012.188 1.973-.093 3.273-.382 1.802-1.062 3.01-1.283 3.375a8.831 8.831 0 0 1-.39.587.743.743 0 0 1-1.24-.06 5.053 5.053 0 0 0-1.53-1.598 5.18 5.18 0 0 0-2.023-.765h-.043c.068.765.17 1.538.315 2.303a2.749 2.749 0 0 1 1.657 4.072 3.388 3.388 0 0 1 3.068 3.367c0 .263-.035.527-.094.773a11.108 11.108 0 0 0 3.424 1.65c.077.008.162.016.238.033a2.226 2.226 0 0 0 2.498-2.21v-6.783c0-.834.68-1.505 1.514-1.505h2.625c3.153 0 5.744-.553 7.776-1.658 2.03-1.105 3.508-2.541 4.418-4.318.917-1.777 1.368-3.707 1.368-5.798 0-2.057-.46-3.978-1.368-5.755Zm-12.39 7.957c-.543.485-1.359.731-2.438.731a1.51 1.51 0 0 1-1.513-1.505v-2.78c0-.416.17-.79.441-1.062a1.52 1.52 0 0 1 1.072-.442c2.166 0 3.255.96 3.255 2.873 0 .97-.273 1.692-.816 2.185ZM39.055 40.907c.051.11.11.221.162.332.085-.102.161-.213.22-.323a3.994 3.994 0 0 0-.314-.017c-.017 0-.042 0-.068.008Zm-8.718.009c-.085-.009-.178-.009-.272-.009h-.025c.05.085.102.17.161.247.043-.085.085-.162.136-.238ZM.654 9.027a.562.562 0 0 1-.492-.272.6.6 0 0 1-.034-.586L3.34.5c.11-.263.297-.4.56-.4.272 0 .46.137.561.4l3.22 7.693a.602.602 0 0 1-.042.578.546.546 0 0 1-.492.255.644.644 0 0 1-.323-.093.538.538 0 0 1-.221-.272l-2.83-7.039h.323l-2.88 7.039a.534.534 0 0 1-.239.272.587.587 0 0 1-.323.093Zm.612-1.963.46-.986h4.477l.46.986H1.265ZM9.637 9.027a.583.583 0 0 1-.595-.595V.696a.57.57 0 0 1 .17-.425.577.577 0 0 1 .425-.162h2.056c.57 0 1.08.12 1.522.357.441.238.79.57 1.036.986.247.417.374.91.374 1.463 0 .518-.127.977-.374 1.385a2.553 2.553 0 0 1-1.036.952c-.442.23-.952.34-1.521.34h-1.462v2.84c0 .17-.06.306-.161.425a.617.617 0 0 1-.434.17Zm.595-4.54h1.462c.348 0 .654-.068.926-.204a1.61 1.61 0 0 0 .629-.56c.153-.239.229-.51.229-.817 0-.331-.076-.629-.23-.892a1.649 1.649 0 0 0-.628-.604 1.912 1.912 0 0 0-.926-.221h-1.462v3.298Zm4.147 4.54a.55.55 0 0 1-.51-.289l-2.056-3.316 1.155-.331 1.87 3.018c.136.22.153.425.06.62-.103.204-.281.298-.52.298ZM16.85 9.027a.583.583 0 0 1-.595-.595V.696a.57.57 0 0 1 .17-.425.577.577 0 0 1 .425-.162h2.728c.519 0 .969.102 1.368.306.391.204.697.485.927.842.22.357.34.774.34 1.233 0 .374-.103.714-.306 1.011a2.182 2.182 0 0 1-.825.714c.502.12.91.366 1.207.723.306.357.459.824.459 1.402 0 .528-.128.987-.374 1.395a2.556 2.556 0 0 1-1.037.952c-.442.23-.952.348-1.52.348H16.85v-.008Zm.595-5.254h2.133c.434 0 .79-.11 1.071-.323.28-.212.416-.535.416-.969 0-.433-.136-.756-.416-.969-.28-.213-.637-.315-1.07-.315h-2.134v2.576Zm0 4.157h2.38c.348 0 .654-.06.926-.187.263-.119.476-.297.629-.535.153-.238.23-.528.23-.876 0-.332-.077-.595-.23-.808a1.443 1.443 0 0 0-.63-.484 2.403 2.403 0 0 0-.925-.162h-2.38V7.93ZM25.11 9.027a.583.583 0 0 1-.595-.595V.696a.57.57 0 0 1 .17-.425.577.577 0 0 1 .425-.162c.178 0 .314.06.425.162.11.11.161.255.161.425v7.736c0 .17-.06.306-.161.425a.556.556 0 0 1-.425.17ZM27.566 1.198a.525.525 0 0 1-.391-.153.538.538 0 0 1-.153-.39.525.525 0 0 1 .544-.545h6.11c.16 0 .288.051.39.153a.539.539 0 0 1 .153.391c0 .162-.051.29-.153.391a.538.538 0 0 1-.39.153h-6.11Zm3.059 7.83a.583.583 0 0 1-.595-.595V.101h1.19v8.33a.583.583 0 0 1-.595.595ZM36.13 9.027a.583.583 0 0 1-.595-.595V.696a.57.57 0 0 1 .17-.425.577.577 0 0 1 .426-.162h2.056c.57 0 1.08.12 1.521.357.442.238.79.57 1.037.986.246.417.373.91.373 1.463 0 .518-.127.977-.373 1.385a2.558 2.558 0 0 1-1.037.952c-.442.23-.952.34-1.52.34h-1.463v2.84c0 .17-.059.306-.16.425a.589.589 0 0 1-.434.17Zm.595-4.54h1.462c.348 0 .663-.068.926-.204a1.61 1.61 0 0 0 .63-.56c.152-.239.229-.51.229-.817 0-.331-.077-.629-.23-.892a1.65 1.65 0 0 0-.629-.604 1.913 1.913 0 0 0-.926-.221h-1.462v3.298Zm4.148 4.54a.552.552 0 0 1-.51-.289l-2.057-3.316 1.156-.331 1.869 3.018c.137.22.153.425.06.62-.102.204-.273.298-.518.298ZM42.402 9.027a.56.56 0 0 1-.492-.272.6.6 0 0 1-.035-.586L45.088.5c.11-.263.297-.4.56-.4.272 0 .46.137.562.4l3.22 7.693a.602.602 0 0 1-.042.578.547.547 0 0 1-.494.255.644.644 0 0 1-.323-.093.535.535 0 0 1-.22-.272l-2.83-7.039h.323l-2.88 7.039a.54.54 0 0 1-.24.272.587.587 0 0 1-.322.093Zm.603-1.963.46-.986h4.478l.458.986h-5.396ZM54.553 9.147c-.62 0-1.189-.12-1.734-.349a4.238 4.238 0 0 1-1.401-.969 4.487 4.487 0 0 1-.935-1.453 4.826 4.826 0 0 1-.34-1.803c0-.637.11-1.232.34-1.785.22-.552.535-1.037.935-1.453.4-.417.866-.74 1.401-.978A4.225 4.225 0 0 1 54.553 0c.587 0 1.088.077 1.512.23.425.153.85.408 1.275.756.06.043.112.094.145.145a.441.441 0 0 1 .067.144c.01.051.018.11.018.179a.495.495 0 0 1-.153.365.557.557 0 0 1-.373.162.607.607 0 0 1-.417-.145 3.19 3.19 0 0 0-.876-.56c-.296-.128-.696-.196-1.19-.196-.45 0-.874.093-1.265.272-.4.187-.748.433-1.045.756a3.606 3.606 0 0 0-.706 1.114c-.17.425-.255.875-.255 1.351 0 .485.086.944.255 1.37.17.424.4.79.706 1.113.297.323.645.57 1.045.748.4.178.816.272 1.266.272.391 0 .756-.068 1.105-.204.348-.136.68-.315 1.002-.553a.556.556 0 0 1 .408-.127.515.515 0 0 1 .34.161c.093.094.135.23.135.391a.648.648 0 0 1-.042.221.537.537 0 0 1-.144.204 4.248 4.248 0 0 1-1.317.748c-.475.145-.977.23-1.496.23Zm2.983-1.42-1.138-.23V5.45h-1.572a.657.657 0 0 1-.425-.145.481.481 0 0 1-.17-.373.47.47 0 0 1 .17-.375.6.6 0 0 1 .425-.144h2.132c.18 0 .315.06.425.161.11.111.16.255.16.426v2.728h-.008ZM60.026 9.027a.584.584 0 0 1-.595-.595V.696a.57.57 0 0 1 .17-.425.577.577 0 0 1 .425-.162h5.166c.18 0 .315.051.425.153.11.102.162.238.162.408a.502.502 0 0 1-.162.391c-.11.102-.246.145-.425.145h-4.57v2.78h3.28c.178 0 .314.05.424.153.11.102.162.238.162.39a.502.502 0 0 1-.162.392.591.591 0 0 1-.425.153h-3.28V7.93h4.571c.18 0 .315.051.425.145.11.102.162.23.162.39 0 .17-.051.307-.162.409a.591.591 0 0 1-.425.153h-5.166Z"/><path fill="#fff" d="M34.848 22.689a1.912 1.912 0 1 0 0-3.825 1.912 1.912 0 0 0 0 3.825ZM30.337 40.913c-.043.077-.085.154-.136.23a2.439 2.439 0 0 1-.162-.246h.026c.093 0 .178.008.272.016ZM39.445 40.914c-.068.11-.145.221-.221.323-.06-.11-.11-.22-.162-.331h.077c.093-.009.204 0 .306.008Z"/><path fill="#fff" d="M39.445 40.914c-.068.11-.145.221-.221.323-.06-.11-.11-.22-.162-.331h.077c.093-.009.204 0 .306.008ZM30.337 40.913c-.043.077-.085.154-.136.23a2.439 2.439 0 0 1-.162-.246h.026c.093 0 .178.008.272.016Z"/></svg>
