<svg width="84" height="61" viewBox="0 0 84 61" fill="none" xmlns="http://www.w3.org/2000/svg">
<path d="M82.0627 23.7297C80.9128 21.4839 79.0545 19.668 76.4774 18.2818C73.9091 16.8957 70.6236 16.1973 66.6263 16.1973H30.0536C28.1954 16.1973 26.6809 17.7123 26.6809 19.5712V41.5885C26.6809 45.908 25.1019 48.0572 21.9547 48.0572C18.797 48.0572 17.2072 45.8974 17.2072 41.5885V19.6357C17.2072 17.7338 15.6712 16.1973 13.77 16.1973H3.32981C1.49295 16.1973 0 17.6909 0 19.5283V41.0406C0 42.663 0.17187 44.4253 0.515609 46.338C0.859347 48.2506 1.72929 50.3138 3.11484 52.5272C4.50057 54.7516 6.73469 56.6429 9.81739 58.1901C12.8893 59.7482 16.9387 60.5219 21.9547 60.5219C21.3104 60.5111 28.3028 60.5971 33.8022 56.7824C33.7593 56.5461 33.7378 56.299 33.7378 56.0517C33.7378 53.6985 35.6282 51.7966 37.9806 51.7751C37.6798 51.2593 37.4972 50.6577 37.4972 50.0129C37.4972 48.3259 38.7003 46.9182 40.3006 46.5959C40.5369 45.5751 40.6765 44.5972 40.7733 43.7269C40.7517 43.7269 40.7194 43.7269 40.6873 43.7377C40.5154 43.7483 39.2909 43.9417 38.1309 44.7048C37.2071 45.3172 36.5949 46.0693 36.1975 46.7248C35.8539 47.3051 35.0267 47.3482 34.6293 46.8001C34.4682 46.5743 34.2963 46.3272 34.1352 46.0587C33.8559 45.6072 33.0076 44.0706 32.5133 41.7927C32.159 40.138 31.9011 38.9344 32.3951 37.6557C33.0718 35.8935 34.769 35.0017 35.7679 34.6148C36.1332 34.4751 36.3695 34.1206 36.3695 33.723C36.3586 32.6699 36.423 31.5524 36.5841 30.3704C36.6165 30.1339 36.6594 29.8975 36.6917 29.6612C36.7023 29.5644 36.7238 29.4785 36.7452 29.3817C36.7668 29.2743 36.7881 29.1669 36.8099 29.0596C36.8099 29.0596 36.842 28.9198 36.8742 28.7693C38.4855 21.4625 43.7486 16.4658 43.7486 16.4658C43.8344 16.3799 43.9418 16.3368 44.06 16.3368C44.1674 16.3368 44.2856 16.3799 44.3714 16.4658C44.3714 16.4658 45.6819 17.7123 47.2072 19.883C48.7217 22.0428 50.4404 25.1267 51.2464 28.7693C51.2782 28.9198 51.3099 29.0596 51.3099 29.0596C51.3311 29.1669 51.3541 29.2743 51.3753 29.3817C51.3965 29.4785 51.4071 29.5644 51.4283 29.6612C51.4707 29.8975 51.5043 30.1339 51.536 30.3704C51.6968 31.5524 51.7621 32.6806 51.7515 33.723C51.7515 34.1206 51.9865 34.4751 52.3521 34.6148C53.3519 35.0017 55.0476 35.8935 55.7241 37.6557C56.2187 38.9344 55.9608 40.1487 55.6058 41.7927C55.1236 44.0706 54.2633 45.5964 53.9842 46.0587C53.8235 46.3272 53.6522 46.5743 53.4914 46.8001C53.094 47.3482 52.2762 47.3051 51.9229 46.7248C51.5254 46.0693 50.9129 45.3172 49.989 44.7048C48.8291 43.9417 47.6046 43.7591 47.4327 43.7377C47.4112 43.7377 47.3898 43.7377 47.379 43.7377C47.4649 44.7048 47.5938 45.6825 47.7765 46.6496C49.2694 47.0472 50.3651 48.4011 50.3651 50.0129C50.3651 50.6683 50.1825 51.2701 49.8709 51.7966C52.0412 52.0008 53.7493 53.8274 53.7493 56.0517C53.7493 56.385 53.7052 56.718 53.631 57.0295C55.1024 58.0934 56.6268 58.7274 57.9586 59.1142C58.0558 59.1248 58.1635 59.1356 58.2589 59.1572C59.9458 59.3614 61.4172 58.0505 61.4172 56.3634V47.7887C61.4172 46.7356 62.2774 45.8867 63.3302 45.8867H66.6492C70.6342 45.8867 73.9091 45.1882 76.4774 43.7912C79.044 42.3945 80.9128 40.5785 82.0627 38.3327C83.2215 36.0869 83.792 33.6477 83.792 31.0043C83.792 28.404 83.2109 25.9756 82.0627 23.7297ZM66.4019 33.7873C65.7148 34.3999 64.6832 34.7115 63.3196 34.7115C62.2668 34.7115 61.4066 33.8627 61.4066 32.8096V29.2957C61.4066 28.7693 61.6221 28.2965 61.9648 27.9527C62.3092 27.6088 62.7932 27.3939 63.3196 27.3939C66.0575 27.3939 67.4335 28.6082 67.4335 31.0259C67.4335 32.2507 67.0891 33.1641 66.4019 33.7873ZM49.3662 51.7966C49.4305 51.9364 49.5058 52.0759 49.5702 52.2156C49.6776 52.0867 49.7743 51.9469 49.8495 51.8072C49.7206 51.7966 49.5808 51.7859 49.4521 51.7859C49.4305 51.7859 49.3984 51.7859 49.3662 51.7966ZM38.3457 51.8072C38.2384 51.7966 38.1202 51.7966 38.002 51.7966C37.9912 51.7966 37.9806 51.7966 37.9698 51.7966C38.0341 51.904 38.0988 52.0116 38.1739 52.1082C38.2276 52.0008 38.2813 51.904 38.3457 51.8072Z" fill="white"/>
<path d="M0.82489 11.5033C0.556399 11.5033 0.352383 11.3852 0.201887 11.1594C0.0623423 10.9231 0.0407931 10.6867 0.158964 10.4181L4.21918 0.72573C4.35872 0.392625 4.59506 0.220703 4.92802 0.220703C5.27176 0.220703 5.5081 0.392625 5.63705 0.72573L9.70786 10.4502C9.81526 10.7189 9.7937 10.966 9.65416 11.181C9.51444 11.3959 9.31042 11.5033 9.03116 11.5033C8.89144 11.5033 8.75189 11.4604 8.62294 11.3852C8.49417 11.2991 8.39738 11.1917 8.34368 11.0412L4.76693 2.14412H5.17514L1.53391 11.0412C1.46944 11.1917 1.37283 11.3099 1.2331 11.3852C1.09356 11.4712 0.964611 11.5033 0.82489 11.5033ZM1.59838 9.0212L2.17829 7.77467H7.83886L8.41894 9.0212H1.59838Z" fill="white"/>
<path d="M12.1813 11.5023C11.9665 11.5023 11.7946 11.4271 11.6441 11.2874C11.5046 11.1478 11.4293 10.965 11.4293 10.7502V0.971892C11.4293 0.746237 11.5046 0.574314 11.6441 0.434629C11.7838 0.294943 11.9665 0.230469 12.1813 0.230469H14.7805C15.5003 0.230469 16.1447 0.380895 16.7032 0.681763C17.2618 0.982631 17.7023 1.40171 18.0137 1.92823C18.3251 2.45475 18.4862 3.07799 18.4862 3.77652C18.4862 4.43185 18.3251 5.01211 18.0137 5.52789C17.7023 6.04368 17.2618 6.44129 16.7032 6.73133C16.1447 7.02155 15.5003 7.16127 14.7805 7.16127H12.9332V10.7502C12.9332 10.965 12.858 11.137 12.729 11.2874C12.5787 11.4271 12.3961 11.5023 12.1813 11.5023ZM12.9332 5.76441H14.7805C15.221 5.76441 15.6077 5.67839 15.9513 5.50652C16.2844 5.33447 16.5529 5.09813 16.7461 4.79732C16.9396 4.49633 17.0362 4.15259 17.0362 3.76575C17.0362 3.34662 16.9396 2.97054 16.7461 2.63743C16.5529 2.31507 16.2844 2.05718 15.9513 1.87451C15.6185 1.69184 15.221 1.59513 14.7805 1.59513H12.9332V5.76441ZM18.1748 11.5023C18.0351 11.5023 17.9169 11.4702 17.8097 11.4163C17.7023 11.3626 17.6055 11.266 17.5304 11.137L14.931 6.9463L16.3918 6.52731L18.7547 10.3418C18.9267 10.6213 18.9481 10.8792 18.8299 11.1263C18.7012 11.3842 18.4754 11.5023 18.1748 11.5023Z" fill="white"/>
<path d="M21.2997 11.5023C21.085 11.5023 20.9131 11.4271 20.7628 11.2874C20.6232 11.1478 20.548 10.965 20.548 10.7502V0.971892C20.548 0.746237 20.6232 0.574314 20.7628 0.434629C20.9025 0.294943 21.085 0.230469 21.2997 0.230469H24.7477C25.4029 0.230469 25.9722 0.359398 26.477 0.61729C26.9711 0.875182 27.3577 1.22978 27.6478 1.6811C27.927 2.13239 28.0775 2.65891 28.0775 3.23917C28.0775 3.71187 27.9486 4.14181 27.6907 4.51787C27.433 4.89394 27.0893 5.19475 26.6487 5.4205C27.2827 5.57099 27.7983 5.88258 28.174 6.33389C28.5608 6.78521 28.7541 7.37606 28.7541 8.10682C28.7541 8.7731 28.593 9.35335 28.2816 9.86914C27.97 10.3847 27.5296 10.7824 26.9711 11.0726C26.4125 11.3626 25.768 11.5131 25.0484 11.5131H21.2997V11.5023ZM22.0517 4.86179H24.7477C25.2955 4.86179 25.7466 4.72207 26.1011 4.4534C26.4555 4.18473 26.6273 3.77652 26.6273 3.22841C26.6273 2.68041 26.4555 2.27208 26.1011 2.00344C25.7466 1.73481 25.2955 1.60588 24.7477 1.60588H22.0517V4.86179ZM22.0517 10.1163H25.0591C25.4995 10.1163 25.8862 10.041 26.2299 9.87973C26.5629 9.72941 26.8315 9.50367 27.0248 9.20286C27.218 8.90204 27.3148 8.53658 27.3148 8.09604C27.3148 7.67705 27.218 7.34391 27.0248 7.07525C26.8315 6.80658 26.5629 6.60238 26.2299 6.46284C25.8969 6.32312 25.4995 6.25865 25.0591 6.25865H22.0517V10.1163Z" fill="white"/>
<path d="M31.7394 11.5023C31.5246 11.5023 31.3527 11.4271 31.2022 11.2874C31.0627 11.1478 30.9874 10.965 30.9874 10.7502V0.971892C30.9874 0.746237 31.0627 0.574314 31.2022 0.434629C31.3419 0.294943 31.5246 0.230469 31.7394 0.230469C31.965 0.230469 32.1366 0.305682 32.2764 0.434629C32.4159 0.574314 32.4805 0.756994 32.4805 0.971892V10.7502C32.4805 10.965 32.4053 11.137 32.2764 11.2874C32.1476 11.4271 31.965 11.5023 31.7394 11.5023Z" fill="white"/>
<path d="M34.8456 1.60686C34.6414 1.60686 34.4803 1.54238 34.3513 1.41344C34.2224 1.28449 34.1581 1.11257 34.1581 0.919149C34.1581 0.71499 34.2224 0.553807 34.3513 0.424861C34.4803 0.295915 34.6521 0.231442 34.8456 0.231442H42.5684C42.7724 0.231442 42.9335 0.295915 43.0624 0.424861C43.1914 0.553807 43.2557 0.72573 43.2557 0.919149C43.2557 1.12331 43.1914 1.28449 43.0624 1.41344C42.9335 1.54238 42.7616 1.60686 42.5684 1.60686H34.8456ZM38.7122 11.5033C38.4976 11.5033 38.3255 11.4281 38.1752 11.2884C38.0355 11.1488 37.9604 10.966 37.9604 10.7512V0.220703H39.4641V10.7512C39.4641 10.966 39.3889 11.138 39.2493 11.2884C39.1096 11.4281 38.9271 11.5033 38.7122 11.5033Z" fill="white"/>
<path d="M45.6708 11.5023C45.4558 11.5023 45.2841 11.4271 45.1336 11.2874C44.9941 11.1478 44.9188 10.965 44.9188 10.7502V0.971892C44.9188 0.746237 44.9941 0.574314 45.1336 0.434629C45.2733 0.294943 45.4558 0.230469 45.6708 0.230469H48.27C48.9896 0.230469 49.6342 0.380895 50.1927 0.681763C50.7513 0.982631 51.1916 1.40171 51.5037 1.92823C51.8146 2.45475 51.9754 3.07799 51.9754 3.77652C51.9754 4.43185 51.8146 5.01211 51.5037 5.52789C51.1916 6.04368 50.7513 6.44129 50.1927 6.73133C49.6342 7.02155 48.9896 7.16127 48.27 7.16127H46.4226V10.7502C46.4226 10.965 46.3473 11.137 46.2185 11.2874C46.0788 11.4271 45.8962 11.5023 45.6708 11.5023ZM46.4226 5.76441H48.27C48.7104 5.76441 49.1078 5.67839 49.4408 5.50652C49.7739 5.33447 50.0424 5.09813 50.2356 4.79732C50.4289 4.49633 50.5257 4.15259 50.5257 3.76575C50.5257 3.34662 50.4289 2.97054 50.2356 2.63743C50.0424 2.31507 49.7739 2.05718 49.4408 1.87451C49.1078 1.69184 48.7104 1.59513 48.27 1.59513H46.4226V5.76441ZM51.6645 11.5023C51.5249 11.5023 51.4066 11.4702 51.2988 11.4163C51.1916 11.3626 51.095 11.266 51.0197 11.137L48.4203 6.9463L49.8813 6.52731L52.2439 10.3418C52.417 10.6213 52.4382 10.8792 52.3198 11.1263C52.1909 11.3842 51.9754 11.5023 51.6645 11.5023Z" fill="white"/>
<path d="M53.5952 11.5033C53.3267 11.5033 53.1236 11.3852 52.9734 11.1594C52.8339 10.9231 52.8109 10.6867 52.9293 10.4181L56.9902 0.72573C57.1297 0.392625 57.3664 0.220703 57.6985 0.220703C58.043 0.220703 58.2797 0.392625 58.4086 0.72573L62.4784 10.4502C62.5861 10.7189 62.5649 10.966 62.4254 11.181C62.2858 11.3959 62.0809 11.5033 61.8018 11.5033C61.6623 11.5033 61.5228 11.4604 61.3938 11.3852C61.2649 11.2991 61.1677 11.1917 61.1147 11.0412L57.5378 2.14412H57.9458L54.3053 11.0412C54.2399 11.1917 54.1428 11.3099 54.0032 11.3852C53.8637 11.4712 53.7348 11.5033 53.5952 11.5033ZM54.3583 9.0212L54.9394 7.77467H60.5989L61.1783 9.0212H54.3583Z" fill="white"/>
<path d="M68.9581 11.6529C68.1739 11.6529 67.4549 11.5024 66.766 11.2123C66.0895 10.9221 65.4995 10.5137 64.9944 9.98735C64.4892 9.46079 64.0917 8.8482 63.8126 8.14978C63.5336 7.45135 63.3834 6.68845 63.3834 5.87185C63.3834 5.06584 63.523 4.31372 63.8126 3.61529C64.0917 2.91686 64.4892 2.30436 64.9944 1.77784C65.4995 1.25132 66.0895 0.843 66.766 0.542131C67.4443 0.241263 68.1739 0.0908203 68.9581 0.0908203C69.7 0.0908203 70.3324 0.187531 70.8694 0.38095C71.4063 0.574369 71.9433 0.896716 72.4803 1.33727C72.5562 1.391 72.6216 1.45548 72.664 1.51997C72.7064 1.58442 72.7382 1.6489 72.7488 1.70263C72.7612 1.7671 72.7718 1.84231 72.7718 1.92827C72.7718 2.11095 72.7064 2.26139 72.5774 2.39032C72.4485 2.51926 72.2878 2.58374 72.1058 2.5945C71.9221 2.60523 71.7402 2.54076 71.5794 2.41182C71.2244 2.10021 70.8588 1.86381 70.4719 1.70263C70.0975 1.54145 69.5923 1.45548 68.9687 1.45548C68.3999 1.45548 67.863 1.57368 67.3684 1.79932C66.8632 2.03573 66.4234 2.34734 66.0471 2.75566C65.6709 3.164 65.3706 3.62606 65.1551 4.16322C64.9414 4.70056 64.8336 5.27004 64.8336 5.87185C64.8336 6.48425 64.9414 7.06451 65.1551 7.60184C65.3706 8.13918 65.6603 8.60109 66.0471 9.00947C66.4234 9.41786 66.8632 9.72945 67.3684 9.95502C67.8736 10.1808 68.3999 10.2989 68.9687 10.2989C69.4633 10.2989 69.9243 10.2129 70.3659 10.041C70.8058 9.86917 71.2244 9.64343 71.6324 9.34262C71.8038 9.21367 71.9769 9.15997 72.1482 9.18134C72.3196 9.19212 72.4591 9.26737 72.5774 9.38554C72.6958 9.50371 72.7488 9.67575 72.7488 9.87977C72.7488 9.97657 72.7276 10.0732 72.6958 10.1592C72.664 10.256 72.5987 10.3311 72.5139 10.4171C71.9981 10.8361 71.4505 11.1585 70.8482 11.3627C70.2476 11.5453 69.6135 11.6529 68.9581 11.6529ZM72.7276 9.8584L71.2898 9.56818V6.97866H69.3026C69.0871 6.97866 68.9157 6.91419 68.7656 6.79584C68.6243 6.6669 68.5501 6.51658 68.5501 6.32316C68.5501 6.12974 68.6243 5.96847 68.7656 5.8503C68.9051 5.72135 69.0871 5.66765 69.3026 5.66765H71.9981C72.2242 5.66765 72.3955 5.7429 72.5351 5.87185C72.6746 6.01157 72.7382 6.19421 72.7382 6.40918V9.8584H72.7276Z" fill="white"/>
<path d="M75.8754 11.5023C75.6617 11.5023 75.4886 11.4271 75.3384 11.2874C75.1989 11.1478 75.1229 10.965 75.1229 10.7502V0.971892C75.1229 0.746237 75.1989 0.574314 75.3384 0.434629C75.478 0.294943 75.6617 0.230469 75.8754 0.230469H82.4057C82.6318 0.230469 82.8032 0.294942 82.9427 0.423871C83.0823 0.552817 83.1476 0.724757 83.1476 0.939655C83.1476 1.14381 83.0823 1.305 82.9427 1.43394C82.8032 1.56289 82.6318 1.6166 82.4057 1.6166H76.6279V5.13028H80.7736C80.9997 5.13028 81.171 5.19475 81.3106 5.3237C81.4501 5.45264 81.5155 5.62469 81.5155 5.81811C81.5155 6.02213 81.4501 6.1834 81.3106 6.31234C81.171 6.44129 80.9997 6.50576 80.7736 6.50576H76.6279V10.1163H82.4057C82.6318 10.1163 82.8032 10.1807 82.9427 10.2989C83.0823 10.4278 83.1476 10.5889 83.1476 10.7931C83.1476 11.0081 83.0823 11.18 82.9427 11.3089C82.8032 11.4379 82.6318 11.5023 82.4057 11.5023H75.8754Z" fill="white"/>
<path d="M44.0482 28.771C45.3829 28.771 46.465 27.6886 46.465 26.3534C46.465 25.018 45.3829 23.9355 44.0482 23.9355C42.7136 23.9355 41.6315 25.018 41.6315 26.3534C41.6315 27.6886 42.7136 28.771 44.0482 28.771Z" fill="white"/>
<path d="M38.3455 51.8085C38.2918 51.9052 38.2381 52.0019 38.1737 52.0985C38.0987 52.0019 38.0341 51.8946 37.9698 51.7871C37.9806 51.7871 37.9912 51.7871 38.002 51.7871C38.1201 51.7871 38.2274 51.7979 38.3455 51.8085Z" fill="white"/>
<path d="M49.859 51.809C49.7732 51.9486 49.6765 52.0882 49.58 52.2171C49.5049 52.0775 49.4403 51.938 49.3761 51.7984C49.4082 51.7984 49.4404 51.7984 49.4727 51.7984C49.5907 51.7876 49.7302 51.7984 49.859 51.809Z" fill="white"/>
<path d="M49.859 51.809C49.7732 51.9486 49.6765 52.0882 49.58 52.2171C49.5049 52.0775 49.4403 51.938 49.3761 51.7984C49.4082 51.7984 49.4404 51.7984 49.4727 51.7984C49.5907 51.7876 49.7302 51.7984 49.859 51.809Z" fill="white"/>
<path d="M38.3455 51.8085C38.2918 51.9052 38.2381 52.0019 38.1737 52.0985C38.0987 52.0019 38.0341 51.8946 37.9698 51.7871C37.9806 51.7871 37.9912 51.7871 38.002 51.7871C38.1201 51.7871 38.2274 51.7979 38.3455 51.8085Z" fill="white"/>
</svg>
