<svg xmlns="http://www.w3.org/2000/svg" width="219" height="65" fill="none"><path fill="#0045FF" d="M0 14.833C0 8.853 4.906 4 10.95 4h45.99c6.044 0 10.95 4.853 10.95 10.833V49.5c0 5.98-4.906 10.833-10.95 10.833H10.95C4.906 60.333 0 55.48 0 49.5V14.833Z"/><path fill="#fff" d="M6.504 47.667v-6.154l11.892-9.728a25.205 25.205 0 0 0 2.015-1.82c.57-.585 1.007-1.17 1.314-1.777.306-.606.46-1.278.46-2.015 0-.801-.176-1.495-.526-2.08a3.338 3.338 0 0 0-1.424-1.321c-.613-.325-1.313-.477-2.124-.477-.81 0-1.51.152-2.124.477a3.362 3.362 0 0 0-1.402 1.408c-.328.607-.503 1.365-.503 2.253H5.869c0-2.21.504-4.116 1.511-5.72 1.008-1.603 2.431-2.838 4.27-3.683 1.84-.867 3.986-1.3 6.461-1.3s4.752.412 6.636 1.213c1.883.802 3.329 1.929 4.336 3.38 1.03 1.452 1.533 3.164 1.533 5.135 0 1.214-.263 2.427-.766 3.619-.504 1.191-1.424 2.513-2.738 3.965-1.314 1.451-3.197 3.163-5.606 5.178l-2.979 2.47v.195h12.44v6.825H6.503v-.043Zm28.251 0V16.142h13.82c2.43 0 4.467.325 6.11.975 1.664.65 2.912 1.56 3.744 2.73.854 1.17 1.27 2.578 1.27 4.16 0 1.148-.262 2.21-.788 3.163-.504.953-1.227 1.755-2.146 2.405-.92.628-1.993 1.083-3.242 1.322v.303c1.358.043 2.607.39 3.723 1.04a7.118 7.118 0 0 1 2.672 2.6c.657 1.105.986 2.383.986 3.878 0 1.734-.46 3.25-1.358 4.594-.898 1.343-2.19 2.405-3.854 3.163-1.665.78-3.658 1.148-5.98 1.148h-15l.043.044Zm8.65-6.825h4.052c1.446 0 2.54-.26 3.263-.802.723-.542 1.095-1.343 1.095-2.405 0-.737-.175-1.365-.503-1.885-.35-.52-.833-.91-1.468-1.17-.613-.26-1.38-.39-2.255-.39h-4.161v6.652h-.022Zm0-11.939h3.548c.767 0 1.424-.108 2.015-.346a3.115 3.115 0 0 0 1.358-1.019c.329-.455.504-.996.504-1.646 0-.975-.35-1.712-1.051-2.232-.701-.52-1.6-.78-2.672-.78h-3.68v6.023h-.021ZM88.76 47.667H76.498V16.142h12.132c3.285 0 6.11.628 8.497 1.885 2.387 1.256 4.249 3.055 5.541 5.416 1.314 2.34 1.949 5.157 1.949 8.45 0 3.294-.657 6.11-1.949 8.472-1.292 2.34-3.132 4.16-5.497 5.417-2.365 1.256-5.19 1.885-8.41 1.885Zm-3.591-7.259h3.307c1.577 0 2.913-.26 4.03-.758 1.116-.498 1.97-1.365 2.54-2.6.591-1.235.876-2.947.876-5.135 0-2.188-.307-3.9-.898-5.135-.591-1.235-1.467-2.102-2.606-2.6-1.139-.498-2.54-.758-4.205-.758H85.17v16.986Zm23.586 7.259V24.028h8.585v23.639h-8.585Zm4.293-26.109c-1.161 0-2.147-.39-2.979-1.148-.832-.758-1.248-1.668-1.248-2.73s.416-1.972 1.248-2.73c.832-.758 1.818-1.148 2.979-1.148 1.16 0 2.168.39 2.978 1.148.832.758 1.248 1.668 1.248 2.73s-.416 1.972-1.248 2.73c-.81.758-1.818 1.148-2.978 1.148Zm20.191 35.469c-2.387 0-4.445-.347-6.153-1.019-1.709-.671-3.023-1.581-3.964-2.773a7.09 7.09 0 0 1-1.577-4.03h8.278c.088.498.285.91.613 1.213.329.304.767.52 1.27.672.526.152 1.117.217 1.774.217 1.117 0 2.037-.26 2.76-.802.744-.542 1.095-1.495 1.095-2.903v-4.009h-.241a5.154 5.154 0 0 1-1.424 2.037c-.635.563-1.423.975-2.321 1.278a9.875 9.875 0 0 1-2.978.434c-1.709 0-3.264-.39-4.687-1.17-1.424-.78-2.562-2.015-3.416-3.705-.855-1.69-1.271-3.9-1.271-6.63s.438-5.179 1.336-6.955c.898-1.777 2.059-3.099 3.482-3.922 1.424-.823 2.935-1.257 4.512-1.257 1.182 0 2.212.195 3.11.607.897.39 1.642.932 2.233 1.625a7.253 7.253 0 0 1 1.358 2.21h.197v-4.117h8.585v23.574c0 1.993-.526 3.705-1.577 5.091-1.029 1.409-2.496 2.47-4.38 3.207-1.883.737-4.095 1.105-6.614 1.105v.022Zm.307-15.709c.788 0 1.467-.216 2.015-.65.569-.433 1.007-1.061 1.314-1.885.306-.823.46-1.798.46-2.946 0-1.149-.154-2.167-.46-3.012-.307-.845-.745-1.473-1.314-1.928-.57-.455-1.227-.672-2.015-.672s-1.467.217-2.015.672c-.547.433-.985 1.083-1.27 1.928-.285.823-.438 1.842-.438 3.012s.153 2.166.438 2.99c.307.801.723 1.43 1.27 1.863.57.412 1.227.628 2.015.628Zm16.622 6.349V24.028h8.585v23.639h-8.585Zm4.293-26.109c-1.161 0-2.147-.39-2.979-1.148-.832-.758-1.248-1.668-1.248-2.73s.416-1.972 1.248-2.73c.832-.758 1.818-1.148 2.979-1.148 1.16 0 2.168.39 2.978 1.148.832.758 1.248 1.668 1.248 2.73s-.416 1.972-1.248 2.73c-.81.758-1.818 1.148-2.978 1.148Zm22.907 2.47v6.154h-15.746v-6.154h15.746Zm-12.68-5.655h8.585v21.689c0 .325.065.606.175.823.109.217.285.39.525.498.241.109.548.152.92.152.263 0 .57-.022.898-.087.351-.065.613-.108.789-.151l1.248 5.98c-.394.108-.942.26-1.643.411-.7.174-1.555.282-2.518.325-1.971.109-3.614-.086-4.971-.606-1.336-.52-2.344-1.322-3.023-2.427-.679-1.105-1.007-2.47-.985-4.117v-22.49Zm22.842 29.662c-1.533 0-2.869-.238-4.052-.737-1.161-.498-2.08-1.256-2.737-2.275-.657-1.018-.986-2.318-.986-3.878 0-1.3.219-2.405.679-3.315a5.894 5.894 0 0 1 1.861-2.253c.789-.585 1.731-1.04 2.782-1.344 1.073-.303 2.212-.498 3.46-.606 1.336-.109 2.409-.217 3.219-.369.811-.151 1.402-.368 1.774-.628.372-.282.548-.65.548-1.083v-.065c0-.607-.241-1.084-.723-1.409-.482-.325-1.095-.498-1.84-.498-.81 0-1.489.173-2.014.542-.504.346-.811.888-.92 1.625h-7.906a8.14 8.14 0 0 1 1.38-3.965c.832-1.214 2.036-2.189 3.613-2.925 1.577-.737 3.57-1.105 5.935-1.105 1.708 0 3.241.195 4.599.606 1.358.39 2.518.932 3.46 1.647.964.693 1.686 1.517 2.168 2.47.504.932.767 1.95.767 3.055V47.71h-8.016v-3.315h-.197c-.482.888-1.051 1.603-1.752 2.145a6.725 6.725 0 0 1-2.321 1.192c-.854.238-1.818.368-2.847.368l.066-.065Zm2.803-5.352c.657 0 1.27-.13 1.839-.39a3.507 3.507 0 0 0 1.424-1.148c.372-.498.547-1.105.547-1.842v-1.971c-.219.086-.481.173-.722.26-.241.086-.526.151-.811.238-.284.065-.591.13-.898.195-.306.065-.635.108-.985.173-.657.109-1.205.282-1.643.499a2.375 2.375 0 0 0-.941.845c-.197.325-.285.693-.285 1.105 0 .65.241 1.148.701 1.516.46.347 1.073.52 1.796.52h-.022Zm25.01-26.541v31.525h-8.585V16.142h8.585Z"/></svg>
