<svg width="1453" height="292" viewBox="0 0 1453 292" fill="none" xmlns="http://www.w3.org/2000/svg">
<path d="M100.445 287H0.488075L2.5705 276.588C11.363 276.588 18.1887 275.894 23.0477 274.505C27.9067 272.886 31.6088 269.762 34.154 265.135C36.6992 260.276 38.8973 253.103 40.7483 243.616L70.2494 100.97C72.3318 91.7146 72.7946 84.8889 71.6377 80.4926C70.7121 75.865 67.9356 72.8571 63.308 71.4688C58.9117 70.0805 52.4331 69.3864 43.872 69.3864L45.9544 58.9742H133.763C153.431 58.9742 168.702 60.941 179.577 64.8744C190.452 68.8079 198.087 74.2454 202.483 81.1868C206.88 87.8968 209.078 95.4167 209.078 103.746C209.078 116.241 206.301 126.653 200.748 134.983C195.195 143.081 187.791 149.676 178.536 154.766C169.512 159.625 159.447 163.327 148.34 165.872V167.608C161.992 169.459 173.677 174.202 183.395 181.837C193.113 189.473 197.972 200.579 197.972 215.156C197.972 230.659 193.575 243.732 184.783 254.375C176.222 265.019 164.537 273.117 149.729 278.67C135.152 284.223 118.724 287 100.445 287ZM87.2559 274.505C95.1228 274.505 103.337 273.927 111.898 272.77C120.69 271.382 128.904 268.721 136.54 264.787C144.176 260.623 150.307 254.722 154.935 247.087C159.794 239.22 162.223 228.923 162.223 216.197C162.223 205.554 159.562 197.34 154.241 191.555C149.15 185.54 142.324 181.375 133.763 179.061C125.202 176.516 116.063 175.243 106.345 175.243H85.8676L66.0845 273.464C70.018 273.696 73.373 273.927 76.1496 274.158C79.1575 274.39 82.8596 274.505 87.2559 274.505ZM88.6442 161.36H108.774C132.838 161.36 149.844 156.501 159.794 146.783C169.743 136.834 174.718 123.298 174.718 106.176C174.718 99.9286 173.214 94.2598 170.206 89.1694C167.198 83.8477 161.992 79.6828 154.588 76.6749C147.183 73.6669 137.003 72.1629 124.045 72.1629C120.575 72.1629 117.682 72.2786 115.369 72.51C113.286 72.51 110.394 72.7414 106.692 73.2041L88.6442 161.36ZM319.368 291.165C298.081 291.165 280.959 287.231 268.001 279.364C255.275 271.266 246.02 260.391 240.236 246.74C234.451 232.857 231.559 217.47 231.559 200.579C231.559 179.986 234.682 160.897 240.93 143.313C247.408 125.496 256.317 109.994 267.654 96.805C279.223 83.6163 292.759 73.3198 308.262 65.9157C323.995 58.5115 341.233 54.8094 359.975 54.8094C381.031 54.8094 398.037 59.0899 410.995 67.651C423.952 75.9807 433.439 86.9713 439.454 100.623C445.47 114.274 448.478 128.967 448.478 144.701C448.478 166.913 445.239 187.043 438.76 205.091C432.282 222.908 423.142 238.294 411.342 251.252C399.773 263.978 386.121 273.811 370.387 280.753C354.653 287.694 337.647 291.165 319.368 291.165ZM323.533 276.241C342.275 276.241 358.356 270.572 371.776 259.234C385.196 247.665 395.376 231.931 402.318 212.033C409.491 191.902 413.077 168.996 413.077 143.313C413.077 118.786 407.987 100.391 397.806 88.1282C387.857 75.865 373.974 69.7334 356.157 69.7334C342.506 69.7334 330.127 73.2041 319.021 80.1456C308.146 86.8556 298.775 96.3422 290.908 108.605C283.272 120.869 277.372 134.983 273.207 150.948C269.274 166.913 267.307 184.151 267.307 202.662C267.307 216.313 268.927 228.808 272.166 240.145C275.637 251.252 281.421 260.044 289.52 266.523C297.849 273.001 309.187 276.241 323.533 276.241ZM546.71 287H451.613L453.695 276.588C462.95 276.588 469.892 275.894 474.52 274.505C479.379 272.886 482.965 269.531 485.279 264.44C487.824 259.35 490.138 251.714 492.22 241.534L520.68 104.788C522.762 95.5324 523.572 88.3596 523.109 83.2692C522.878 78.1788 520.68 74.5924 516.515 72.51C512.35 70.4276 505.177 69.3864 494.997 69.3864L497.079 58.9742H592.524L590.788 69.3864C580.145 69.3864 572.394 70.4276 567.535 72.51C562.907 74.5924 559.552 78.2945 557.47 83.6163C555.618 88.7067 553.652 95.7638 551.569 104.788L539.769 163.096H651.873L664.02 104.788C666.103 95.7638 667.144 88.7067 667.144 83.6163C667.375 78.2945 665.524 74.5924 661.591 72.51C657.889 70.4276 650.832 69.3864 640.42 69.3864L642.502 58.9742H735.517L733.435 69.3864C723.254 69.3864 715.734 70.4276 710.875 72.51C706.247 74.5924 703.008 78.1788 701.157 83.2692C699.306 88.3596 697.339 95.5324 695.257 104.788L667.144 241.534C665.062 251.483 664.136 259.003 664.367 264.093C664.599 268.952 666.797 272.307 670.962 274.158C675.358 275.778 682.415 276.588 692.133 276.588L690.051 287H598.424L600.159 276.588C609.183 276.588 615.778 275.778 619.942 274.158C624.339 272.539 627.462 269.184 629.313 264.093C631.396 259.003 633.478 251.483 635.561 241.534L649.096 176.631H536.992L523.804 241.534C521.721 251.714 520.796 259.35 521.027 264.44C521.49 269.299 523.804 272.539 527.968 274.158C532.365 275.778 539.306 276.588 548.793 276.588L546.71 287ZM894.419 287H714.289L716.371 276.588C724.469 276.588 730.832 275.894 735.46 274.505C740.319 273.117 744.137 270.456 746.913 266.523C749.69 262.358 751.888 256.226 753.508 248.128L784.05 101.317C785.901 92.5244 786.48 85.8144 785.785 81.1868C785.323 76.5592 782.893 73.4355 778.497 71.8159C774.101 70.1962 767.159 69.3864 757.673 69.3864L759.755 58.9742H937.456L928.085 115.894H917.325C918.02 104.325 917.21 95.4167 914.896 89.1694C912.582 82.9221 907.839 78.6416 900.666 76.3278C893.725 73.7826 883.081 72.51 868.735 72.51H820.493L802.098 162.749H840.276C850.919 162.749 859.249 161.823 865.265 159.972C871.281 158.121 875.793 154.65 878.8 149.56C881.808 144.469 884.238 137.297 886.089 128.041H897.195L880.883 208.562H870.124C871.975 198.844 872.322 191.671 871.165 187.043C870.008 182.416 866.769 179.408 861.447 178.02C856.125 176.631 848.143 175.937 837.499 175.937H799.321L779.538 273.464H821.534C834.954 273.464 845.713 272.77 853.811 271.382C861.91 269.994 868.504 267.448 873.594 263.746C878.685 260.044 883.312 254.954 887.477 248.475C891.642 241.765 896.501 233.204 902.054 222.792V222.445H913.161L894.419 287ZM887.477 44.7443H871.859L825.004 7.60769L826.393 0.319204H857.629L887.477 44.7443ZM1004.18 287H924.009L926.092 276.588C935.115 276.588 942.057 275.778 946.916 274.158C951.775 272.307 955.593 268.49 958.369 262.705C961.146 256.92 963.691 248.128 966.005 236.328L993.423 101.317C995.274 92.5244 995.853 85.9301 995.159 81.5339C994.465 76.9062 991.919 73.7826 987.523 72.1629C983.358 70.3119 976.648 69.3864 967.393 69.3864L969.476 58.9742H1038.89L1076.37 234.592H1077.76L1183.62 58.9742H1249.21L1247.13 69.3864C1239.03 69.3864 1232.56 70.3119 1227.7 72.1629C1223.07 73.7826 1219.48 76.9062 1216.94 81.5339C1214.39 85.9301 1212.19 92.4088 1210.34 100.97L1180.84 245.699C1178.3 258.424 1178.88 266.754 1182.58 270.688C1186.51 274.621 1194.61 276.588 1206.87 276.588L1204.79 287H1112.12L1114.2 276.588C1122.77 276.588 1129.24 275.778 1133.64 274.158C1138.27 272.539 1141.74 269.531 1144.05 265.135C1146.37 260.507 1148.33 254.028 1149.95 245.699L1180.84 95.7638H1179.45L1062.84 287H1055.2L1013.21 96.1109H1011.82L983.011 236.328C980.697 248.128 979.656 256.92 979.888 262.705C980.35 268.49 982.664 272.307 986.829 274.158C990.994 275.778 997.473 276.588 1006.27 276.588L1004.18 287ZM1409.26 287H1229.13L1231.22 276.588C1239.31 276.588 1245.68 275.894 1250.3 274.505C1255.16 273.117 1258.98 270.456 1261.76 266.523C1264.53 262.358 1266.73 256.226 1268.35 248.128L1298.89 101.317C1300.75 92.5244 1301.32 85.8144 1300.63 81.1868C1300.17 76.5592 1297.74 73.4355 1293.34 71.8159C1288.95 70.1962 1282 69.3864 1272.52 69.3864L1274.6 58.9742H1452.3L1442.93 115.894H1432.17C1432.86 104.325 1432.05 95.4167 1429.74 89.1694C1427.43 82.9221 1422.68 78.6416 1415.51 76.3278C1408.57 73.7826 1397.93 72.51 1383.58 72.51H1335.34L1316.94 162.749H1355.12C1365.76 162.749 1374.09 161.823 1380.11 159.972C1386.13 158.121 1390.64 154.65 1393.65 149.56C1396.65 144.469 1399.08 137.297 1400.93 128.041H1412.04L1395.73 208.562H1384.97C1386.82 198.844 1387.17 191.671 1386.01 187.043C1384.85 182.416 1381.61 179.408 1376.29 178.02C1370.97 176.631 1362.99 175.937 1352.34 175.937H1314.17L1294.38 273.464H1336.38C1349.8 273.464 1360.56 272.77 1368.66 271.382C1376.75 269.994 1383.35 267.448 1388.44 263.746C1393.53 260.044 1398.16 254.954 1402.32 248.475C1406.49 241.765 1411.35 233.204 1416.9 222.792V222.445H1428.01L1409.26 287Z" fill="#1D1D1D"/>
</svg>
