<svg xmlns="http://www.w3.org/2000/svg" id="_Шар_1" width="421.349" height="234.757" data-name="Шар_1" version="1.1"><defs id="defs1"><style id="style1">.st0{fill:#ffce00}.st1{fill:#96989a}</style></defs><g id="g4" transform="translate(-49.026 -42.022)"><path id="path1" d="M259 259.77c-56.11 0-101.77-45.65-101.77-101.77S202.88 56.23 259 56.23 360.77 101.88 360.77 158 315.12 259.77 259 259.77zm0-201.61c-55.05 0-99.84 44.79-99.84 99.84 0 55.05 44.79 99.84 99.84 99.84 55.05 0 99.84-44.79 99.84-99.84 0-55.05-44.79-99.84-99.84-99.84z" class="st1"/><g id="g3"><path id="path2" d="M359.8 259.77c-56.11 0-101.77-45.65-101.77-101.77S303.68 56.23 359.8 56.23 461.57 101.88 461.57 158 415.92 259.77 359.8 259.77zm0-201.61c-55.05 0-99.84 44.79-99.84 99.84 0 55.05 44.79 99.84 99.84 99.84 55.05 0 99.84-44.79 99.84-99.84 0-55.05-44.79-99.84-99.84-99.84z" class="st1"/><path id="path3" d="M158.2 259.77c-56.11 0-101.77-45.65-101.77-101.77S102.08 56.23 158.2 56.23 259.97 101.88 259.97 158 214.32 259.77 158.2 259.77zm0-201.61c-55.05 0-99.84 44.79-99.84 99.84 0 55.05 44.79 99.84 99.84 99.84 55.05 0 99.84-44.79 99.84-99.84 0-55.05-44.79-99.84-99.84-99.84z" class="st1"/></g></g><g id="g14" transform="translate(-49.026 -42.022)"><g id="g10"><path id="path4" d="M172.52 231.65h-9.64v-4.62h-12.21l-3.16 4.62h-10.7l23.91-35.16h11.8zm-9.64-13.01v-9.59l-6.53 9.59z" class="st0"/><path id="path5" d="M312.59 231.65h-9.64v-4.62h-12.21l-3.16 4.62h-10.7l23.91-35.16h11.8zm-9.64-13.01v-9.59l-6.53 9.59z" class="st0"/><path id="path6" d="M197.93 196.49c-16.17 0-22.3 8.14-22.3 17.08v18.08h9.64v-9.69h12.56v-9.39h-12.51c.3-4.12 2.56-6.68 12.61-6.68h.8l6.81-9.39h-7.61z" class="st0"/><path id="path7" d="M223.25 196.49c-16.17 0-22.3 8.14-22.3 17.08v18.08h9.64v-9.69h12.56v-9.39h-12.51c.3-4.12 2.56-6.68 12.61-6.68h.8l6.81-9.39h-7.61z" class="st0"/><path id="path8" d="M265.01 196.49h9.64v35.16h-9.64z" class="st0"/><path id="path9" d="M343.03 196.49v9.39h-9.14v25.77h-9.64v-25.77h-9.14v-9.39h27.93z" class="st0"/><path id="polygon9" d="M235.66 222.26v-25.77l-9.65 13.31v21.85h9.65z" class="st0"/><path id="polygon10" d="M248.74 196.49h-9.64V231.65h23.8v-9.39h-14.16z" class="st0"/><path id="path10" d="M361.31 205.89h8.44v-9.39h-8.44c-12.15 0-18.28 8.64-18.28 17.58 0 8.94 6.13 17.58 18.28 17.58h8.44v-9.39h-8.44c-2.01 0-5.53-.5-7.33-3.47h15.76v-9.39h-15.81c1.81-3.01 5.32-3.52 7.38-3.52z" class="st0"/></g><g id="g13"><path id="path11" d="M311.34 84.35v27.38h-26.65v75.12h-28.12v-75.12h-26.65V84.35Z" class="st0"/><path id="path12" d="M170.39 159.47h22.49v27.38h-22.49c-35.43 0-53.3-25.19-53.3-51.25s17.87-51.25 53.3-51.25h22.49v27.38h-22.49c-8.2 0-24.75 2.78-24.75 23.87s16.55 23.87 24.75 23.87z" class="st0"/><path id="path13" d="M197.48 84.35h28.12v102.5h-28.12z" class="st0"/><path id="polygon13" d="M343.78 122.51V84.35h-28.12v79.5l-15.64 23.01h31.19l69.7-102.51h-31.19z" class="st0"/></g></g></svg>
