<svg xmlns="http://www.w3.org/2000/svg" width="140" height="34" fill="none"><g clip-path="url(#a)"><path fill="#004DA9" d="M32.93 17.568c.355 0 .773-.034 1.255-.092a6.866 6.866 0 0 0 1.617-.449c.6-.241 1.136-.624 1.626-1.148.482-.532.791-1.223.927-2.08h-2.662c-.291.716-.636 1.215-1.045 1.515-.4.307-1.063.457-1.99.457-.527 0-.99-.075-1.381-.241-.4-.166-.718-.391-.982-.666a2.824 2.824 0 0 1-.572-.973 3.418 3.418 0 0 1-.182-1.14c0-.84.282-1.563.872-2.145.573-.583 1.418-.882 2.527-.882.708 0 1.317.166 1.817.49.5.325.79.724.89 1.198h2.654c-.128-.707-.39-1.297-.8-1.763a4.374 4.374 0 0 0-1.445-1.073 6.736 6.736 0 0 0-1.635-.507 8.795 8.795 0 0 0-1.481-.133c-1.872 0-3.344.432-4.435 1.305-1.072.866-1.617 2.038-1.617 3.502 0 .64.109 1.248.345 1.822.218.574.582 1.081 1.063 1.539.491.449 1.118.807 1.9 1.065.772.274 1.69.399 2.735.399ZM42.78 4.98h-2.544v12.253h2.544V4.98ZM47.651 4.98h-2.535V6.87h2.535V4.98ZM47.651 8.285h-2.535v8.942h2.535V8.285ZM57.001 15.321c-.4.3-1.072.458-1.99.458-.527 0-.981-.075-1.372-.241a2.853 2.853 0 0 1-.981-.666 2.57 2.57 0 0 1-.573-.973 3.66 3.66 0 0 1-.181-1.14c0-.84.29-1.563.872-2.146.572-.582 1.408-.881 2.517-.881.709 0 1.318.166 1.817.49.5.325.8.724.9 1.198h2.653c-.118-.707-.4-1.297-.808-1.763A4.145 4.145 0 0 0 58.4 8.584a6.553 6.553 0 0 0-1.627-.508 8.796 8.796 0 0 0-1.481-.133c-1.872 0-3.344.433-4.425 1.306-1.072.865-1.618 2.038-1.618 3.502 0 .64.118 1.248.346 1.822a4.2 4.2 0 0 0 1.072 1.539c.482.449 1.118.807 1.9 1.064.771.258 1.69.383 2.734.383.355 0 .773-.033 1.254-.091a6.86 6.86 0 0 0 1.617-.45c.6-.24 1.136-.623 1.618-1.148.482-.532.8-1.222.936-2.08h-2.653c-.31.725-.664 1.232-1.073 1.531ZM64.761 14.347l1.609-1.198 3.462 4.084h3.426L68.36 11.66l4.516-3.377h-3.598l-4.517 3.585V4.98h-2.535v12.253h2.535v-2.886Z"/><path fill="#0B6ADD" d="M75.066 16.06c.445.466 1 .824 1.69 1.098.672.275 1.454.408 2.353.408.482 0 .936-.05 1.372-.159A6.177 6.177 0 0 0 81.644 17c.337-.166.61-.333.818-.516.21-.174.346-.333.39-.482h.046v1.23h2.545V4.98h-2.545v4.592h-.045c-.364-.516-.863-.898-1.527-1.148-.663-.25-1.399-.374-2.208-.374-.9 0-1.69.133-2.371.4-.682.274-1.236.631-1.672 1.089a4.461 4.461 0 0 0-.982 1.53 4.568 4.568 0 0 0-.327 1.722c0 .599.11 1.181.327 1.739.21.565.536 1.072.973 1.53Zm1.535-4.375c.118-.35.318-.666.582-.949a2.763 2.763 0 0 1 1.027-.657c.418-.158.927-.24 1.499-.24.563 0 1.063.082 1.49.24.418.159.763.383 1.027.657.263.275.463.591.582.94.127.35.181.716.181 1.115 0 .4-.063.765-.181 1.123-.119.35-.319.665-.582.957-.264.282-.6.499-1.027.665-.418.166-.918.241-1.49.241-.582 0-1.081-.075-1.508-.24-.427-.167-.764-.384-1.027-.666a2.591 2.591 0 0 1-.582-.957 3.284 3.284 0 0 1-.182-1.123c.01-.383.073-.748.191-1.106ZM97.546 9.473c-.481-.474-1.108-.84-1.872-1.114-.772-.266-1.671-.408-2.716-.408-.864 0-1.654.117-2.39.35-.727.232-1.345.557-1.872.99a4.434 4.434 0 0 0-1.2 1.555c-.281.607-.417 1.272-.417 2.005 0 .615.109 1.206.336 1.771a4.308 4.308 0 0 0 1.063 1.514c.481.441 1.108.79 1.899 1.057.781.257 1.69.382 2.753.382.873 0 1.636-.1 2.3-.3.653-.199 1.19-.457 1.626-.756.427-.3.772-.616 1.017-.94.255-.325.473-.64.655-.973h-2.763a2.81 2.81 0 0 1-1.081.956c-.436.216-1.036.333-1.836.333-.59 0-1.1-.083-1.517-.241-.436-.167-.773-.375-1.027-.624a2.84 2.84 0 0 1-.563-.815 2.224 2.224 0 0 1-.2-.849h9.214v-.35c0-.681-.118-1.33-.346-1.929a4.782 4.782 0 0 0-1.063-1.614Zm-7.823 2.396c.1-.44.263-.815.509-1.115.227-.3.5-.54.808-.715.318-.175.636-.3.963-.374.337-.083.664-.117.982-.117.345 0 .681.042 1.036.117.345.075.672.208 1 .39.326.184.59.425.817.724.227.3.382.666.454 1.098h-6.57v-.008ZM112.558 17.284v-1.639c-.082.009-.218.017-.391.034-.164.016-.309.016-.427.016a.812.812 0 0 1-.391-.091c-.109-.067-.163-.2-.163-.416v-4.234c0-.4-.046-.749-.128-1.065-.09-.316-.299-.624-.636-.915-.336-.3-.872-.549-1.599-.732-.727-.191-1.69-.29-2.89-.29-1.535 0-2.744.232-3.598.69-.863.457-1.39 1.256-1.554 2.379h2.49c.091-.99.991-1.481 2.672-1.481.845 0 1.526.1 2.017.283.5.191.745.524.745.998a.668.668 0 0 1-.127.424c-.091.108-.255.2-.518.275-.255.075-.627.141-1.118.2-.481.057-1.236.14-2.272.224h-.018c-.599.05-1.117.108-1.554.183a5.491 5.491 0 0 0-1.308.4c-.436.19-.8.473-1.081.83-.282.367-.418.841-.418 1.407 0 .881.345 1.564 1.036 2.063.69.49 1.672.74 2.935.74.663 0 1.263-.042 1.781-.117a6.956 6.956 0 0 0 1.335-.307c.364-.134.664-.258.882-.391.227-.125.427-.267.581-.416.028.133.064.258.109.374.046.116.137.233.273.358.136.125.327.224.582.3.254.082.572.116.944.116.309 0 .573-.009.782-.034.218-.025.463-.066.745-.116.127-.025.218-.042.282-.05Zm-3.926-3.643c0 .457-.127.856-.363 1.18a2.33 2.33 0 0 1-.927.758 5.126 5.126 0 0 1-1.181.39 6.094 6.094 0 0 1-1.191.117c-.254 0-.49-.016-.727-.058a2.225 2.225 0 0 1-.654-.216 1.19 1.19 0 0 1-.491-.433c-.127-.183-.181-.416-.181-.698 0-.391.154-.69.499-.89.337-.209.955-.358 1.891-.458 1.035-.117 1.771-.2 2.189-.258.418-.066.8-.166 1.145-.3l-.009.866ZM116.283 4.98h-2.535v12.253h2.535V4.98ZM119.509 16.128c.481.449 1.099.798 1.89 1.056.772.258 1.69.383 2.753.383.872 0 1.636-.1 2.299-.3.645-.2 1.2-.457 1.627-.757.427-.299.772-.615 1.026-.94.246-.316.464-.64.646-.973h-2.763a2.804 2.804 0 0 1-1.081.957c-.427.216-1.036.333-1.836.333-.581 0-1.099-.084-1.517-.242-.436-.166-.772-.374-1.027-.623-.245-.258-.445-.525-.563-.816a2.243 2.243 0 0 1-.209-.848h9.223v-.341c0-.682-.118-1.331-.345-1.93a4.35 4.35 0 0 0-1.055-1.614c-.481-.474-1.099-.84-1.871-1.114-.764-.266-1.672-.408-2.717-.408-.864 0-1.654.117-2.372.35-.736.232-1.354.557-1.881.99a4.35 4.35 0 0 0-1.199 1.555c-.291.607-.428 1.272-.428 2.005 0 .615.11 1.206.346 1.771.218.558.572 1.057 1.054 1.506Zm1.754-5.382c.227-.3.499-.54.817-.715.318-.175.637-.3.964-.375.336-.083.663-.116.981-.116.345 0 .691.042 1.027.116.345.075.672.208.999.391.318.183.591.425.818.724.227.3.382.665.464 1.098h-6.57c.091-.44.254-.815.5-1.123ZM138.982 8.134a6.466 6.466 0 0 0-1.009-.083c-.9 0-1.626.183-2.217.54a5.044 5.044 0 0 0-1.472 1.431h-.036V8.284h-2.545v8.941h2.545v-4.317c0-.499.099-.915.29-1.264.192-.35.446-.624.755-.848a3.179 3.179 0 0 1 1.008-.45 4.25 4.25 0 0 1 1.072-.133 6 6 0 0 1 .79.042c.256.025.527.083.827.175l-.008-2.296Z"/><path fill="#004DA9" d="M.022 0 3.93 33.355l10.04-9.274 14.021-2.404L.022 0Zm6.56 11.33 9.596 7.435-4.788.857-3.462 3.153-1.345-11.446Z"/><mask id="b" width="28" height="34" x="0" y="0" maskUnits="userSpaceOnUse" style="mask-type:alpha"><path fill="#004DA9" d="M.022 0 3.93 33.355l10.04-9.274 14.021-2.404L.022 0Zm6.561 11.33 9.595 7.435-4.788.857-3.462 3.153-1.345-11.446Z"/></mask><g mask="url(#b)"><path fill="url(#c)" d="m28.19 21.729-12.07-2.978-9.498-7.367L-.468-.469 28.191 21.73Z"/><path fill="#004DA9" d="m27.96 21.657-14.012 2.404-2.577-4.441 4.785-.874 11.804 2.911ZM3.946 33.35l3.96-10.575L6.56 11.329 0 0l3.945 33.35Z"/><path fill="url(#d)" d="m3.946 33.35 10.033-9.242-2.609-4.487-3.41 3.148-4.014 10.58Z"/></g></g><defs><linearGradient id="c" x1="3.643" x2="20.748" y1="7.233" y2="18.156" gradientUnits="userSpaceOnUse"><stop stop-color="#B9C9FF"/><stop offset="1" stop-color="#fff" stop-opacity="0"/></linearGradient><linearGradient id="d" x1="8.928" x2="3.912" y1="19.872" y2="33.601" gradientUnits="userSpaceOnUse"><stop stop-color="#B9C8FF"/><stop offset="1" stop-color="#fff" stop-opacity="0"/></linearGradient><clipPath id="a"><path fill="#fff" d="M0 0h139.121v33.483H0z"/></clipPath></defs></svg>
