<svg width="40" height="40" viewBox="0 0 40 40" fill="none" xmlns="http://www.w3.org/2000/svg">
<path d="M32.5735 28.3594H31.8098C31.3352 28.3594 30.9504 27.9746 30.9504 27.5C30.9504 27.0254 31.3352 26.6407 31.8098 26.6407H32.5735C32.7064 26.6407 32.837 26.6048 32.9512 26.5369L34.51 25.6102C34.733 25.4777 34.8714 25.2342 34.8714 24.9749V23.6805C34.8714 23.3908 34.7009 23.1265 34.437 23.0071L33.8808 22.7553C33.0033 22.3582 32.4363 21.4792 32.4363 20.516V19.2912C32.4363 18.6346 32.692 18.0173 33.1563 17.5531L34.3213 16.3881C34.4609 16.2484 34.5377 16.0628 34.5377 15.8654V14.6102C34.5377 14.2026 34.2062 13.871 33.7986 13.871H31.8159C31.6185 13.871 31.4329 13.9479 31.2932 14.0876L29.558 15.8228C29.0938 16.2871 28.4766 16.5428 27.82 16.5428H23.4521C22.0968 16.5428 20.9942 15.4401 20.9942 14.0849C20.9942 13.6773 20.6627 13.3457 20.2551 13.3457H18.8094C18.1859 13.3457 17.5911 13.1117 17.1347 12.6869L16.8134 12.3878C16.466 12.0644 16.4466 11.5206 16.7698 11.1732C17.0932 10.826 17.637 10.8063 17.9845 11.1298L18.3057 11.4289C18.443 11.5566 18.6219 11.627 18.8093 11.627H20.2551C21.6104 11.627 22.713 12.7296 22.713 14.0849C22.713 14.4925 23.0445 14.824 23.4521 14.824H27.82C28.0174 14.824 28.203 14.7471 28.3426 14.6075L30.0779 12.8722C30.5423 12.408 31.1595 12.1524 31.8159 12.1524H33.7986C35.1539 12.1524 36.2565 13.255 36.2565 14.6103V15.8655C36.2565 16.5221 36.0008 17.1394 35.5365 17.6036L34.3716 18.7686C34.2319 18.9083 34.1551 19.0939 34.1551 19.2913V20.5161C34.1551 20.8058 34.3256 21.0701 34.5895 21.1896L35.1457 21.4413C36.0232 21.8385 36.5902 22.7174 36.5902 23.6806V24.975C36.5902 25.8374 36.1296 26.6469 35.3883 27.0877L33.8295 28.0144C33.4498 28.24 33.0156 28.3594 32.5735 28.3594Z" fill="#FF57C6"/>
<path d="M13.6198 31.0867H8.91883C7.56352 31.0867 6.46094 29.9841 6.46094 28.6288V25.1307C6.46094 24.4742 6.71656 23.857 7.18086 23.3927L8.3257 22.2479C8.46531 22.1083 8.54219 21.9227 8.54219 21.7252V21.1166C8.54219 20.709 8.21063 20.3774 7.80297 20.3774H7.23485C6.57828 20.3774 5.96102 20.1218 5.4968 19.6576L4.12969 18.2904C3.66547 17.8262 3.40977 17.2089 3.40977 16.5523V14.7717C3.40977 13.4164 4.51235 12.3138 5.86766 12.3138H7.35039C7.59969 12.3138 7.83047 12.1895 7.96758 11.9813L8.71406 10.8479C8.97524 10.4516 9.50813 10.342 9.90445 10.6029C10.3008 10.864 10.4105 11.397 10.1495 11.7933L9.40297 12.9266C8.94688 13.6191 8.17953 14.0325 7.35039 14.0325H5.86766C5.46008 14.0325 5.12852 14.3641 5.12852 14.7716V16.5523C5.12852 16.7497 5.20539 16.9353 5.345 17.0749L6.71211 18.4421C6.85172 18.5817 7.03735 18.6586 7.23477 18.6586H7.80289C9.1582 18.6586 10.2609 19.7613 10.2609 21.1165V21.7252C10.2609 22.3816 10.0052 22.9988 9.54094 23.4631L8.39609 24.608C8.25649 24.7476 8.17961 24.9332 8.17961 25.1306V28.6288C8.17961 29.0363 8.51117 29.3679 8.91875 29.3679H13.0909L15.9466 23.7119C16.3877 22.8384 17.2696 22.2957 18.2482 22.2957H19.6153C20.2718 22.2957 20.8891 22.5513 21.3533 23.0155L21.8114 23.4737C22.147 23.8093 22.147 24.3534 21.8114 24.6891C21.4757 25.0247 20.9317 25.0247 20.596 24.6891L20.138 24.231C19.9984 24.0914 19.8127 24.0145 19.6153 24.0145H18.2482C17.922 24.0145 17.628 24.1954 17.4809 24.4866L14.3869 30.6147C14.2407 30.9041 13.9441 31.0867 13.6198 31.0867Z" fill="#FF57C6"/>
<path d="M39.6576 4.51193C39.4421 4.34959 39.1627 4.29787 38.9033 4.37248L26.3802 7.97123L19.7773 6.07373C19.504 4.95505 18.9303 3.92646 18.1028 3.09896C15.6309 0.627085 11.6088 0.626929 9.1368 3.09896C8.3093 3.92654 7.73562 4.95505 7.46234 6.07373L0.622031 8.03943C0.25375 8.14529 0 8.48216 0 8.86545V37.8958C0 38.1657 0.126797 38.4198 0.342422 38.5822C0.493125 38.6958 0.675 38.7551 0.859453 38.7551C0.938828 38.7551 1.01867 38.7441 1.09672 38.7217L13.6198 35.1229L26.1429 38.7217C26.2973 38.7657 26.4629 38.7659 26.6176 38.7217L39.378 35.0547C39.7463 34.9489 40 34.612 40 34.2288V5.19849C40 4.92857 39.8732 4.67435 39.6576 4.51193ZM14.4791 16.0093C14.8354 15.8679 15.1552 15.6391 15.4075 15.3365L18.4884 11.6429C19.3723 10.5831 19.8805 9.27709 19.9509 7.91193L25.5209 9.51256V19.8182C24.1946 19.9981 22.9146 20.5958 21.8973 21.6131C20.7755 22.7349 20.1183 24.2254 20.0468 25.8103C19.9752 27.3951 20.4955 28.9388 21.5116 30.1571L24.5926 33.8508C24.8449 34.1533 25.1647 34.3822 25.5209 34.5235V36.7546L14.4792 33.5815V16.0093H14.4791ZM26.848 32.7498C26.6891 32.9404 26.4866 32.9688 26.3802 32.9688C26.2738 32.9688 26.0713 32.9404 25.9124 32.7498L22.8315 29.0562C22.0909 28.1682 21.7116 27.0429 21.7637 25.8878C21.8159 24.7326 22.2949 23.6462 23.1126 22.8285C24.9142 21.0267 27.8459 21.0266 29.6478 22.8285C30.4655 23.6462 30.9445 24.7326 30.9966 25.8878C31.0488 27.0429 30.6695 28.1682 29.9289 29.0562L26.848 32.7498ZM9.00336 7.37357C9.05547 6.21841 9.53453 5.13193 10.3522 4.31427C12.1541 2.5124 15.0859 2.51255 16.8874 4.31427C17.7051 5.13193 18.1841 6.21841 18.2362 7.37357C18.2884 8.52873 17.9091 9.65396 17.1685 10.5419L14.0876 14.2356C13.9287 14.4261 13.7262 14.4546 13.6198 14.4546C13.5134 14.4546 13.3109 14.4261 13.152 14.2356L10.0711 10.5419C9.33047 9.65396 8.95117 8.52873 9.00336 7.37357ZM1.71875 9.51263L7.28883 7.91193C7.35914 9.27709 7.86734 10.5831 8.75125 11.6429L11.8322 15.3365C12.0845 15.639 12.4043 15.8679 12.7605 16.0092V33.5815L1.71875 36.7546V9.51263ZM38.2812 33.5815L27.2396 36.7546V34.5234C27.5958 34.3821 27.9155 34.1533 28.1679 33.8508L31.2488 30.1571C32.265 28.9388 32.7852 27.3951 32.7137 25.8103C32.6422 24.2254 31.985 22.7349 30.8632 21.6131C29.8459 20.5958 28.5659 19.9982 27.2396 19.8182V9.51263L38.2812 6.33959V33.5815Z" fill="#100730"/>
<path d="M26.3802 23.3C24.8385 23.3 23.5841 24.5543 23.5841 26.0961C23.5841 27.6379 24.8385 28.8922 26.3802 28.8922C27.9219 28.8922 29.1762 27.6379 29.1762 26.0961C29.1762 24.5543 27.9219 23.3 26.3802 23.3ZM26.3802 27.1735C25.7862 27.1735 25.3029 26.6902 25.3029 26.0961C25.3029 25.5021 25.7862 25.0188 26.3802 25.0188C26.9742 25.0188 27.4575 25.5021 27.4575 26.0961C27.4575 26.6902 26.9743 27.1735 26.3802 27.1735Z" fill="#100730"/>
<path d="M13.6198 10.3781C15.1615 10.3781 16.4159 9.12378 16.4159 7.58198C16.4159 6.04026 15.1615 4.78589 13.6198 4.78589C12.078 4.78589 10.8238 6.04019 10.8238 7.58198C10.8238 9.12378 12.078 10.3781 13.6198 10.3781ZM13.6198 6.50464C14.2138 6.50464 14.6971 6.98792 14.6971 7.58198C14.6971 8.17605 14.2138 8.65933 13.6198 8.65933C13.0258 8.65933 12.5425 8.17605 12.5425 7.58198C12.5425 6.98792 13.0257 6.50464 13.6198 6.50464Z" fill="#100730"/>
</svg>
