<svg width="40" height="40" viewBox="0 0 40 40" fill="none" xmlns="http://www.w3.org/2000/svg">
<path d="M0.859375 8.672V36.797H21.9997M33.6253 36.797H39.1406V8.672" stroke="#100730" stroke-width="1.71875" stroke-miterlimit="2.6131" stroke-linecap="round" stroke-linejoin="round"/>
<path d="M30.9375 31.3282H27.8125V27.0314" stroke="#100730" stroke-width="1.71875" stroke-miterlimit="2.6131" stroke-linecap="round" stroke-linejoin="round"/>
<path fill-rule="evenodd" clip-rule="evenodd" d="M7.69531 16.6798C8.66352 16.6798 9.45312 15.8902 9.45312 14.922C9.45312 13.9538 8.66344 13.1642 7.69531 13.1642C6.72719 13.1642 5.9375 13.9538 5.9375 14.922C5.9375 15.8902 6.72719 16.6798 7.69531 16.6798Z" stroke="#100730" stroke-width="1.71875" stroke-miterlimit="2.6131" stroke-linecap="round" stroke-linejoin="round"/>
<path fill-rule="evenodd" clip-rule="evenodd" d="M15.8984 16.6798C16.8666 16.6798 17.6562 15.8902 17.6562 14.922C17.6562 13.9538 16.8666 13.1642 15.8984 13.1642C14.9303 13.1642 14.1406 13.9538 14.1406 14.922C14.1406 15.8902 14.9303 16.6798 15.8984 16.6798Z" stroke="#100730" stroke-width="1.71875" stroke-miterlimit="2.6131" stroke-linecap="round" stroke-linejoin="round"/>
<path fill-rule="evenodd" clip-rule="evenodd" d="M24.1016 16.6798C25.0697 16.6798 25.8594 15.8902 25.8594 14.922C25.8594 13.9538 25.0697 13.1642 24.1016 13.1642C23.1334 13.1642 22.3438 13.9538 22.3438 14.922C22.3438 15.8902 23.1334 16.6798 24.1016 16.6798Z" stroke="#100730" stroke-width="1.71875" stroke-miterlimit="2.6131" stroke-linecap="round" stroke-linejoin="round"/>
<path fill-rule="evenodd" clip-rule="evenodd" d="M32.3047 16.6798C33.2728 16.6798 34.0625 15.8902 34.0625 14.922C34.0625 13.9538 33.2728 13.1642 32.3047 13.1642C31.3365 13.1642 30.5469 13.9538 30.5469 14.922C30.5469 15.8902 31.3365 16.6798 32.3047 16.6798Z" stroke="#100730" stroke-width="1.71875" stroke-miterlimit="2.6131" stroke-linecap="round" stroke-linejoin="round"/>
<path fill-rule="evenodd" clip-rule="evenodd" d="M7.69531 24.4923C8.66352 24.4923 9.45312 23.7026 9.45312 22.7345C9.45312 21.7663 8.66344 20.9767 7.69531 20.9767C6.72719 20.9767 5.9375 21.7663 5.9375 22.7345C5.93758 23.7026 6.72719 24.4923 7.69531 24.4923Z" stroke="#100730" stroke-width="1.71875" stroke-miterlimit="2.6131" stroke-linecap="round" stroke-linejoin="round"/>
<path fill-rule="evenodd" clip-rule="evenodd" d="M15.8984 24.4923C16.8666 24.4923 17.6562 23.7026 17.6562 22.7345C17.6562 21.7663 16.8666 20.9767 15.8984 20.9767C14.9303 20.9767 14.1406 21.7663 14.1406 22.7345C14.1407 23.7026 14.9303 24.4923 15.8984 24.4923Z" stroke="#100730" stroke-width="1.71875" stroke-miterlimit="2.6131" stroke-linecap="round" stroke-linejoin="round"/>
<path fill-rule="evenodd" clip-rule="evenodd" d="M7.69531 32.3047C8.66352 32.3047 9.45312 31.5151 9.45312 30.5469C9.45312 29.5787 8.66344 28.7891 7.69531 28.7891C6.72719 28.7891 5.9375 29.5787 5.9375 30.5469C5.93758 31.5151 6.72719 32.3047 7.69531 32.3047Z" stroke="#100730" stroke-width="1.71875" stroke-miterlimit="2.6131" stroke-linecap="round" stroke-linejoin="round"/>
<path d="M39.1406 2.42188H0.859375V8.67195H39.1406V2.42188Z" stroke="#FF57C6" stroke-width="1.71875" stroke-miterlimit="2.6131" stroke-linecap="round" stroke-linejoin="round"/>
<path d="M27.8125 39.1406C32.1272 39.1406 35.625 35.6428 35.625 31.3281C35.625 27.0134 32.1272 23.5156 27.8125 23.5156C23.4978 23.5156 20 27.0134 20 31.3281C20 35.6428 23.4978 39.1406 27.8125 39.1406Z" stroke="#FF57C6" stroke-width="1.71875" stroke-miterlimit="2.6131" stroke-linecap="round" stroke-linejoin="round"/>
<path d="M5.64465 0.859375V4.7657" stroke="#100730" stroke-width="1.71875" stroke-miterlimit="2.6131" stroke-linecap="round" stroke-linejoin="round"/>
<path d="M10.4297 0.859375V4.7657" stroke="#100730" stroke-width="1.71875" stroke-miterlimit="2.6131" stroke-linecap="round" stroke-linejoin="round"/>
<path d="M15.2148 0.859375V4.7657" stroke="#100730" stroke-width="1.71875" stroke-miterlimit="2.6131" stroke-linecap="round" stroke-linejoin="round"/>
<path d="M20 0.859375V4.7657" stroke="#100730" stroke-width="1.71875" stroke-miterlimit="2.6131" stroke-linecap="round" stroke-linejoin="round"/>
<path d="M24.7852 0.859375V4.7657" stroke="#100730" stroke-width="1.71875" stroke-miterlimit="2.6131" stroke-linecap="round" stroke-linejoin="round"/>
<path d="M29.5703 0.859375V4.7657" stroke="#100730" stroke-width="1.71875" stroke-miterlimit="2.6131" stroke-linecap="round" stroke-linejoin="round"/>
<path d="M34.3555 0.859375V4.7657" stroke="#100730" stroke-width="1.71875" stroke-miterlimit="2.6131" stroke-linecap="round" stroke-linejoin="round"/>
</svg>
