<svg xmlns="http://www.w3.org/2000/svg" width="60" height="49" fill="none"><path fill="#fff" d="M32.79 1.267c-.395.476-1.029 1.11-1.346 1.426l-.554.634h-7.128l-.555.158c-.634.238-1.346.634-1.742 1.188-.396.396-.872 1.347-.95 1.901-.08.554-.08 7.604 0 8.396.157 1.03.395 1.742.95 2.217l.237.238-.475.95c-.95 2.06-2.693 6.179-2.614 6.258l.634-.475c2.138-1.98 4.99-4.198 5.386-4.277h.079c-.08.079-.08.079 0 .079h.238c.079.079.079.158-.555.792l-.713.713.159.158c.079.08.158.238.158.238s.238-.08.555-.238c.712-.317 1.504-.634 1.504-.634v1.03l-.079 1.03H20.276V27.8h1.426v-2.693.634h-1.267v-2.535h2.534v1.267H24.712v-1.267h1.267-1.109v1.109h1.109v1.347c0 1.9.159 5.465.317 6.02 0 .157 0 .157-.238.157h-.237v.793c0 .792 0 .792.158.792h.159c0 .158 0 .237.079.237.08 0 .08 0 .08-.079v-.08c.078 0 .078 0 .078.08 0 0 0 .08.08 0 0 0 .079.159.158.396.158.792.396 1.901.475 2.06.08.158.317.158.396 0 0-.08.158-.634.317-1.268.158-.633.238-1.188.317-1.188 0 0 .079-.08 0-.08 0 0 0-.078.079-.078.08 0 .08 0 0 0v.079s.08 0 .08-.08c0-.079.078-.079.158-.079h.079c0-.079.713-.079 2.455-.079h2.456v-1.505h-2.456c-1.346 0-2.455 0-2.455-.079 0 0 .554-2.138.871-3.326 0-.08.159-.08 1.901-.08h1.9v-2.613c0-2.456 0-2.614-.078-2.694-.08-.079-.475-.316-.871-.554l-.793-.475.159-.555c.396-1.03.713-1.821 1.109-2.693.316-.633.475-.87.475-.792.08.08 0 .238-.238.713a5.724 5.724 0 0 1-.316.555s.158-.238.395-.555a2.4 2.4 0 0 1 .397-.554c.079 0 .396.158.712.396.396.237.634.396.634.396s.158-.317.396-.634l.396-.633-.634-.396c-.316-.238-.633-.396-.633-.476 0-.079 1.9-2.614 2.772-3.643l.475-.555.475-.079.476-.079v-1.267l.95-1.11.95-1.108V28.989h1.426v-7.128l.238-.95c.317-1.347 1.03-3.327 1.505-4.357.475-1.109.871-1.98.95-1.822 0 .08-.079.713-.158 1.426-.08.713-.159 1.346-.159 1.426 0 .079.159-.634.317-1.505.159-.872.396-2.297.555-3.09l.317-1.425v15.049h1.108v1.267h1.268v1.268h3.801V27.88h1.268v-1.267h1.267V23.92h-.633v.475c0 .238-.08 1.11-.08 1.98v1.505h-6.257V8.08h6.178v6.178l.159-.08c.079 0 1.03-.158 1.98-.395 1.03-.159 2.296-.396 2.93-.555l1.11-.237V9.346c0-3.485 0-3.643-.08-4.04-.159-.474-.475-1.108-.792-1.425-.317-.317-1.03-.792-1.426-.95l-.475-.159h-6.416c-6.336 0-6.495 0-6.89.159-1.11.316-1.901 1.108-2.298 2.217-.079.159-.079.792-.158 1.822 0 .871-.08 1.663-.08 1.663s-.395.08-.791.238c-.396.08-.872.158-.95.238-.16.079-.16 0-.16-1.426 0-1.267-.078-1.505-.158-1.822-.475-1.346-1.425-2.218-2.613-2.614-.476-.158-.634-.158-2.06-.237-.87 0-1.584-.08-1.584-.08 0-.079.792-1.98.95-2.455l.16-.475c-.08.396-.397.792-.872 1.267Zm-.157.792c-.476 1.188-.872 2.218-1.268 3.485a13.965 13.965 0 0 1-.475 1.347c0-.238.554-2.06.792-2.693.08-.238.08-.238 0-.159-.158.159-.95 1.11-1.03 1.268-.079.079-.079.079-.317.079-.237-.08-.158-.158-.95.95-.95 1.426-2.06 3.406-3.247 5.703-.872 1.743-2.297 4.515-2.773 5.307l-.396.634.238.158.238.158.475-.475c4.198-3.802 9.505-6.574 15.049-8 .554-.158 1.03-.237 1.109-.237 0 0-.396.554-.95 1.188a155.8 155.8 0 0 0-3.407 4.119c-.316.396-.554.712-.554.712l.158-.316c.08-.159.476-.872.872-1.664.396-.712.792-1.505.95-1.663.08-.158.238-.396.238-.396s-.317.08-.792.238c-4.436 1.505-9.03 3.96-13.386 7.207-2.139 1.505-2.535 2.06-3.327 3.644-.316.554-.554 1.109-.633 1.188l-.159.079.08-.238c.079-.158.237-.554.396-1.03 2.613-6.336 6.02-12.276 9.9-17.266 1.03-1.347 3.01-3.564 3.09-3.564.237-.08.158.079.078.237Zm12.435 1.743v.554h6.97V3.168h1.267v1.109H55.206V3.168h1.267v1.267l.317.08c.554.237 1.03.713 1.109 1.346l.08.238h1.266v1.267h-1.267v3.327s.159-.08.396-.159c.396-.158.396-.158.555.159.079.079.158.316.237.554l.159.317-.555.238c-.317.079-.554.237-.554.316 0 .08 0 .317.079.555.158.713.238.633-.634.792l-.475.08-.08-.635c-.078-.316-.078-.633-.157-.633-.08 0-.793.158-.872.158-.079 0-.079.08 0 .634.08.396.08.633.08.633-.08 0-1.11.238-1.189.238 0 0-.079-.158-.079-.317 0-.158-.079-.396-.079-.633l-.08-.317h-1.266v-1.267h1.267V8.079h-1.267V6.812h-5.07v1.267h-1.267v1.267h-1.109v2.218l-.237.238c-.792.712-1.664 2.534-2.297 4.831-.159.475-.238.792-.238.634 0-.159.158-1.268.317-2.535.317-2.693.554-4.831.633-4.91v.633c0 .396-.079 1.505-.158 2.614-.08 1.03-.158 1.98-.158 1.98s.079-.158.158-.396c.158-.396.158-.634.238-2.139.158-2.296.237-3.643.316-5.069.08-.633.08-1.188.08-1.267 0-.158-.555 2.614-.872 4.436a268.961 268.961 0 0 0-1.267 10.059c0 .396-.08-2.139-.08-6.416v-6.97h-1.266V6.02h1.267l.08-.317c.157-.555 1.029-1.268 1.425-1.268.079 0 .079-.079.079-.633v-.634h1.267v.634h-.237Zm-19.406.317v.633h-1.267V3.485h1.267v.634Zm9.426 0v.633H33.82V3.485h1.267v.634Zm-5.465.87c0 .08-.396.476-.713 1.03-.396.476-.95 1.268-1.188 1.664-.476.713-.555.713-.792.713h-.238l.159.079c.158.08.158.08-.159.08h-.396v.554c0 .316 0 .554-.08.554l-.078.08c0 .078-.317.554-.634 1.108-.871 1.426-1.663 2.772-2.376 4.119-.317.633-.634 1.109-.634 1.03-.158-.08-.475-1.11-.475-1.664 0-.475 0-.475-.713-.475h-.634v-1.267h1.268V8.317h-1.268V7.049h1.268l.079-.237c.08-.396.317-.872.634-1.268.396-.396.633-.633 1.03-.712.474 0 6.019 0 5.94.158Zm6.336.08c.634.317 1.347 1.188 1.426 1.822l.079.237h1.267v1.268h-1.267V9.82l-.95.317c-.713.238-2.06.792-3.169 1.188-.079 0-.079-.317-.079-1.505V8.237h-1.188c-.713 0-1.267 0-1.267-.079 0-.158.317-1.109.633-2.218l.396-1.188h3.644l.475.317ZM29.86 7.05l-.475 1.347h-.871l.158-.317c.238-.475 1.584-2.376 1.584-2.376s-.158.633-.396 1.346Zm.159.634c-.08.238-.396 1.346-.792 2.534-.317 1.11-.713 2.297-.713 2.535-.08.317-.159.475-.238.475-.079.08-.158.08-.158.08s.158-.634.396-1.347c.633-1.98 1.584-4.752 1.584-4.673 0-.08-.08.158-.08.396Zm3.247 1.346v.634H31.84V8.396h1.426v.633Zm10.772.713c-.08.08 0 .08 0 0-.08-.079 0-.158 0-.158v.158ZM27.88 9.98s-.079.079-.158 0c-.159-.08-.159-.08.079-.08.08 0 .158 0 .08.08Zm.238 0c0-.08.079-.08.317-.08h.316l-.475 1.426a58.886 58.886 0 0 1-.475 1.505s-.08.08 0 .08c0 0 0 .079-.08 0-.079 0-.237.079-.474.475l-.317.475.396.317c.237.158.396.316.396.316s-.396.238-.713.555c-.792.554-1.743 1.267-2.456 1.9-.396.318-.554.397-.633.397-.08 0-.08-.08-.08-.08s.238-.474.555-1.029c.317-.554.871-1.584 1.188-2.297l.634-1.188v.792l.317.238c.158.079.317.158.396.158 0 0 .158-.317.396-.554.158-.317.396-.555.396-.555s.079-.633.079-1.346v-1.347s.08 0 .158-.079c0-.158.08-.158.159-.08 0 .08 0 .08 0 0Zm3.722.396v.475h1.426v.634l-.08-.317-.078-.317H31.84v1.109l-.712.396c-.396.238-1.03.554-1.347.792-.396.238-.713.396-.792.396-.08 0-.158-.08-.238-.08-.079-.078-.158-.078-.158-.078l-.317.475-.317.475s.08-.238.238-.396c.158-.237.238-.396.238-.475 0-.08.237-.238.554-.475.317-.159.555-.396.634-.476 0-.079.158-.633.316-1.267.159-.633.317-1.188.396-1.267.08-.08.317-.08.713-.08h.634v.476h.158Zm3.802 3.88c-1.03 1.902-1.425 2.615-1.505 2.615-.079 0-.079 0-.079-.08 0 0 .159-.396.396-.87.475-.951.555-1.189.396-1.426-.158-.159-.475-.159-.95 0-.792.316-.396.079.475-.317.475-.238 1.03-.476 1.188-.555l.317-.158c.08.158-.08.475-.238.792Zm-.95.635c0 .079-.475.95-.95 1.98-1.11 2.138-1.505 2.851-1.98 4.118-1.347 3.565-3.407 10.614-4.12 14.178-.079.475-.158.871-.158.871s-.317-1.267-.475-2.217c-.396-2.614-.634-6.495-.475-9.98.079-1.11.079-2.218.158-2.535 0-.317.08-.554 0-.554-.08-.08-.871.317-1.742.713l-.793.316.634-.633c.792-.792 1.584-1.426 2.456-2.06.792-.554 1.9-1.267 1.98-1.267 0 0-.08.396-.238.792-.08.396-.238.95-.317 1.188-.079.238-.079.396-.079.396s0-.316.08-.712c.078-.555.158-.713.078-.872 0-.079-.079-.158-.079-.158-.079 0-.633.396-1.03.713l-.395.317.158.079c.237.158.317.317.158 1.109-.237 1.425-.237 2.376-.237 5.702 0 1.822 0 3.485.079 3.644l.08.396.078-.317c.08-.238.159-.634.159-1.663.079-1.505.079-1.822.079-1.03v.554l.158-1.108c.396-2.297 1.03-4.594 2.218-8.238.555-1.742.713-2.06 1.03-2.376.396-.396 1.584-1.03 2.693-1.505.633-.079.792-.079.792.159Zm-1.663.079c-.08.079-1.03.554-1.03.554 0-.079.95-.554 1.03-.554Zm-2.377 1.425.159.08-.159.237c-.079.159-.87 2.297-1.267 3.723 0 .158-.08.238-.08.238-.078 0-.474-.238-.474-.317 0-.08.475-1.901.633-2.456l.159-.633s-1.505.871-2.218 1.346c-.713.476-.713.476-.871.396l-.159-.158c0-.08 3.96-2.535 4.119-2.535-.08-.079 0 0 .158.08Zm-2.138 4.04v-.159.159Zm-.08.317c-.079-.08 0-.159 0-.159v.159Zm3.644 1.742c.238.159.396.317.396.317s-.158.317-.317.555l-.317.475-.316-.238c-.159-.08-.317-.238-.317-.238l.317.159.316.158c.08 0 .555-.712.634-.87 0 0-.158-.16-.396-.318a2.859 2.859 0 0 1-.396-.317c-.158 0-.08.08.396.317Zm-3.406-.079c.08-.238 0 .238-.158.95-.159.476-.238.713-.159.555.159-1.426.159-1.663.238-1.505 0 .08.08.08.08 0Zm2.614 1.505s0 .08.08.08c.078 0 .078 0 .078-.08s0-.08.08 0c.079 0 .158.08.158.08.158 0 .158.237.158 1.583v1.505h-1.9s.791-2.534.95-2.93c.08-.159.158-.238.238-.238h.158Zm1.9 3.327v1.267h-2.534v-1.267h1.268v-1.268h1.267v1.268Z"/><path fill="#fff" d="M43.88 3.88v.555h1.109V3.326H43.88v.555ZM52.196 3.88v.555h1.109V3.326h-1.109v.555ZM55.444 3.88v.555h1.109V3.326h-1.109v.555ZM41.108 6.652v.554h1.108V6.098h-1.108v.554ZM58.216 6.812v.555h1.109V6.258h-1.109v.554ZM45.78 7.603v.555h1.109V7.049h-1.108v.554ZM47.048 7.128v1.03h1.109V7.049h-.555c-.317 0-.475 0-.554.079ZM53.543 7.682v.634h1.109V7.207h-1.109v.475ZM45.78 8.95v.555h1.109V8.396h-1.108v.555ZM58.533 10.77l-.317.159v.475c0 .713 0 .713.554.476.238-.08.475-.238.475-.238 0-.08-.237-.95-.316-.95-.08 0-.238 0-.396.079ZM53.543 12.277v.555h1.109v-1.109h-1.109v.554ZM57.582 12.436c-.237.079-.475.079-.475.079s.159 1.03.238 1.03c.079.079.95-.08 1.03-.159.079-.079-.159-1.109-.238-1.109-.08.08-.317.08-.555.159ZM55.285 12.83c-.633.159-.554.08-.395.634.079.317.079.554.158.554 0 0 .238 0 .554-.079.555-.079.555-.079.396-.792-.079-.396-.158-.396-.712-.316ZM24.474 4.119v.554h1.109V3.564h-1.109v.555ZM33.9 4.119v.554h1.109V3.564H33.9v.555ZM20.752 7.29v1.029h1.109V7.13h-.555c-.396.08-.554.158-.554.158ZM20.752 12.753s-.08.317-.08.554v.476h1.11v-1.109h-.476c-.317 0-.554.079-.554.079ZM37.544 7.84v.634h1.108V7.365h-1.108v.475ZM31.92 9.03v.553h1.267V8.475H31.92v.554ZM33.187 15.525c-.555.317-.95 1.03-1.505 2.376-.634 1.505-1.109 3.168-1.584 5.149-.396 1.663-.792 3.564-.713 3.564 0 0 .238-.555.475-1.347.555-1.742 1.584-4.594 1.901-5.306.159-.317.634-1.347 1.188-2.456.475-1.03.95-1.98.95-1.98-.079-.158-.475-.158-.712 0ZM31.92 26.611v.555h1.109v-1.109H31.92v.554ZM30.653 27.879v.554h1.109v-1.109h-1.03v.555h-.08ZM31.999 27.325s-.08.317-.08.555v.475h1.11v-1.109h-.476c-.316.08-.554.08-.554.08ZM2.455 3.325C1.347 3.721.634 4.435.238 5.464l-.159.475v23.603h1.268v-6.97l.237-.95a30.48 30.48 0 0 1 1.268-3.802c.316-.792 1.188-2.693 1.267-2.614 0 0-.08.555-.159 1.267-.237 1.822-.158 1.743.159-.237.158-1.03.396-2.297.554-2.93l.238-1.11v15.049h1.267v1.268h1.267v1.267h3.802v-1.267h1.267v-1.268h1.268v-2.693h-1.267v-1.267h1.267v1.109H17.267v-1.109h1.267v1.267h-1.109V29.226h1.109v1.267h-1.109v.158c-.079.396-.396.95-.713 1.109l-.316.238v1.267l.237-.08c.713-.316 1.426-.95 1.743-1.742l.237-.475V23.127h-6.02v5.227H6.258V8.553h6.178v3.089c0 1.663 0 3.089.08 3.089.079.08 3.168-.554 5.306-.95l.792-.159V9.899c0-3.564 0-3.722-.158-4.118-.317-1.03-1.188-1.901-2.297-2.218-.396-.158-.554-.158-6.89-.158H2.771l-.317-.08Zm1.822.476v.554h6.97V3.246h1.267v1.109H14.415V3.246h1.268v1.267l.317.08c.633.237 1.188.95 1.188 1.425v.159h1.267v1.267h-1.267v3.327s.158-.08.396-.159c.158-.079.396-.079.396-.079.079.08.475 1.03.475 1.109 0 .08-1.03.475-1.188.475-.08 0-.08 0-.08.08.08.079.238 1.187.238 1.187l-.633.159c-.396.079-.634.079-.634.079 0-.08-.08-.317-.158-.554-.08-.317-.08-.555-.08-.555-.079-.08-.87.08-.95.159 0 0 0 .316.08.633.078.317.078.555.078.555-.079 0-1.188.237-1.188.158l-.158-.634-.08-.554h-1.267v-1.267h1.268V8.236h-1.268V6.97H7.366v1.267H6.1v1.267H4.832v2.218l-.159.159c-.871.791-1.98 3.168-2.534 5.465-.08.158-.08.237-.08.237-.079-.079.792-6.732.95-7.524l.08-.475v.475c0 .237-.08 1.346-.158 2.376-.08 1.03-.159 2.06-.159 2.297v.396l.159-.396c.158-.317.158-.634.237-2.614.08-2.138.317-5.307.396-5.782v-.237c-.079.079-.554 2.534-.87 4.435-.476 2.93-.951 6.812-1.347 10.217-.08.872-.08.317-.08-6.178V7.444H0V6.177h1.267l.159-.317c.079-.238.237-.475.475-.713s.475-.396.713-.475l.317-.159V3.246h1.267v.555h.08Z"/><path fill="#fff" d="M3.089 3.325s-.08.238-.08.555v.475h1.109V3.246h-.554c-.238.08-.475.08-.475.08ZM11.327 3.325s-.08.238-.08.555v.475h1.11V3.246h-.555c-.158.08-.475.08-.475.08ZM14.574 3.88v.555h1.109V3.326h-1.109v.555ZM.159 6.652v.554h1.109V6.098H.159v.554ZM17.346 6.812v.555h1.109V6.258h-1.109v.554ZM4.911 7.13v1.029H6.02V6.97h-.555c-.316.079-.475.079-.554.158ZM6.257 7.603v.555h1.109V7.049H6.257v.554ZM12.594 7.603v.555h1.109V7.049h-1.109v.554ZM4.911 8.95v.555H6.02V8.396H4.91v.555ZM17.584 10.85l-.317.158v.555c0 .316.08.554.08.554.078.08 1.029-.317 1.029-.396 0-.08-.317-1.03-.396-1.03 0 0-.159.08-.396.159ZM12.594 12.277v.555h1.109v-1.109h-1.109v.554ZM16.712 12.436c-.316.08-.554.159-.475.159.08.633.159 1.03.238 1.03.158 0 .95-.159.95-.159.08-.08-.079-.871-.158-1.03 0-.079-.159-.079-.555 0ZM14.416 12.831c-.159 0-.396.08-.396.08-.08.079.079.87.158 1.03.08.078 1.109-.08 1.109-.238 0-.08-.08-.317-.08-.555-.237-.475-.158-.396-.791-.317ZM3.564 16.237c-.316.713-.396 1.188-.633 5.703-.08 1.109-.08 1.822-.08 1.505 0-.555.08-4.515.159-5.228v-.554l-.238.554c-.237.634-.633 1.98-.554 2.06l.158-.317.159-.238v3.406c0 1.901.079 4.04.079 4.752 0 .713.08 1.505.08 1.743 0 .871.078.237.158-1.664.079-2.138.316-5.148.475-7.207.079-1.109.475-4.436.554-4.91.08-.239-.079-.16-.317.395ZM44.514 16.157c-.159.317-.238.713-.317.95-.08.396-.238 3.565-.396 5.624-.08.792-.08.554 0-1.109 0-1.188.079-2.535.079-2.93 0-.476.079-.872 0-.872 0 0-.555 1.505-.634 1.98-.158.476-.079.634.08.317.079-.158.158-.238.158-.238v1.426c0 1.505.079 7.445.158 8.396 0 .475.08.317.159-1.109.079-1.742.237-4.752.475-7.05.08-.791.237-2.375.317-3.484.158-1.11.237-2.139.237-2.139-.079-.158-.237 0-.316.238ZM35.959 18.058c.08.08.08.08 0 0-.158 0-.792.95-.713 1.11 0 .078.238.158.475.316l.397.237.079-.158a1.7 1.7 0 0 0 .316-.554c.238-.396.238-.396.08-.476-.08 0-.08-.079-.08-.158 0 0 0-.08-.079-.08s-.079 0 0 0c.08.08 0 .08-.237-.078-.238-.159-.238-.238 0-.08.158.08.158.08.079 0-.159-.079-.317-.158-.317-.079Z"/><path fill="#fff" d="M44.593 18.299c0 .08 0 .08 0 0 .08 0 .08-.08 0-.08v.08ZM36.751 18.614c.159.079.159.158-.316.871l-.317.475.317.317c.158.159.396.475.554.634.238.396.475 1.188.475 1.663v.317h1.426v1.267h-1.426V28.04h1.426v-1.822c0-3.643 0-4.118-.158-4.831a2.777 2.777 0 0 0-.476-1.109c-.316-.475-1.108-1.346-1.425-1.505-.08-.237-.159-.237-.08-.158Z"/><path fill="#fff" d="M37.543 22.888s-.079.317-.079.554v.476h1.267v-1.109h-.554c-.317 0-.554 0-.634.079ZM53.464 23.049c0 .08.238.08.634.08h.633v1.108h3.327v-1.109h1.267v1.267h-1.267V29.07h1.267v1.267h-.634c-.554 0-.633 0-.633.08 0 .316-.158.633-.554 1.029l-.397.396v1.267l.159-.08c.396-.157 1.109-.712 1.346-1.029.317-.396.555-.95.713-1.346.08-.238.08-1.268.08-4.04v-3.722h-3.01c-1.98.079-2.931.079-2.931.158ZM12.673 23.681v.555h1.109v-1.109h-1.109v.554ZM17.346 23.681v.555h1.109v-1.109h-1.109v.554Z"/><path fill="#fff" d="M53.543 23.681v.555h1.109v-1.109h-1.109v.554ZM58.216 23.681v.555h1.109v-1.109h-1.109v.554ZM20.673 23.918v.554h1.109v-1.109h-1.109v.555ZM22.02 24v.554h1.108v-1.109h-1.109V24ZM20.673 25.19v.554h1.109v-1.109h-1.109v.554ZM4.911 27.642v.555H6.02v-1.109H4.91v.554ZM12.673 27.642v.555h1.109v-1.109h-1.109v.554ZM45.78 27.642v.555h1.109v-1.109h-1.108v.554ZM53.543 27.642v.555h1.109v-1.109h-1.109v.554ZM20.593 28.672v.713h1.268v-1.426h-1.268v.713ZM37.544 28.672v.713h1.267v-1.426h-1.267v.713ZM4.911 28.435v1.029H6.02v-1.109h-.555c-.396 0-.475 0-.554.08ZM6.257 28.91v.634h1.109v-1.108H6.257v.475ZM11.405 28.434s-.079.317-.079.555v.554h1.109v-1.109h-.554c-.159-.079-.476-.079-.476 0ZM12.673 28.91v.554h1.109v-1.109h-1.109v.555ZM45.78 28.91v.554h1.109v-1.109h-1.108v.555ZM47.048 28.435v1.029h1.109v-1.109h-.555c-.317 0-.475 0-.554.08ZM52.276 28.91v.554h1.108v-1.109h-1.108v.555ZM53.543 28.91v.554h1.109v-1.109h-1.109v.555ZM17.346 29.623v.554h1.109v-1.109h-1.109v.555ZM58.216 29.623v.554h1.109v-1.109h-1.109v.555ZM20.515 29.703c0 .396.237 1.268.475 1.743.317.554 1.188 1.505 1.822 1.742.395.238 1.108.396 1.504.396.159 0 .159 0 .159-.712v-.713h-.317a2.367 2.367 0 0 1-1.347-.792c-.396-.476-.633-.792-.712-1.426l-.08-.396H20.594v.158h-.08ZM37.385 29.862c-.079.238-.158.554-.237.792-.396.713-1.188 1.347-1.901 1.426h-.317V33.505h.158c.396 0 1.11-.237 1.505-.396.634-.316 1.505-1.188 1.822-1.821.238-.555.475-1.188.475-1.664v-.237H37.465l-.08.475ZM.159 30.017v.555h1.108v-1.109H0l.159.554ZM41.029 30.02v.555h1.108V29.387H41.03v.633ZM40.95 30.889c.078.238.474.95.712 1.188.317.396.792.713 1.188.871l.396.238h12.515v-1.347H44.672v1.268h-1.267v-1.268l-.396-.158c-.317-.159-.713-.555-.792-.792 0-.08-.159-.159-.713-.159h-.713l.158.159ZM.08 30.733s.079.238.237.476c.317.633 1.03 1.346 1.663 1.663l.476.238H14.97v-1.268H3.881v1.268H2.614v-1.268l-.238-.158c-.316-.159-.712-.475-.792-.792l-.079-.238H.872c-.555.08-.792.08-.792.08Z"/><path fill="#fff" d="M2.693 31.84s-.08.317-.08.554v.555h1.189V31.84H2.693ZM43.483 32.394v.555h1.109V31.84h-1.108v.554ZM15.129 32.474v.555h1.108V31.92H15.13v.554ZM55.919 32.474v.555h1.109V31.92h-1.109v.554ZM24.474 32.077s-.079.317-.079.713v.634h1.426v-1.426h-.634c-.396.08-.633.08-.713.08ZM33.583 32.71v.714h1.267v-1.426h-1.267v.713ZM30.652 43.644c-.158.08-.237.792-.237 3.248v1.821h.95V45.228l1.743 1.743c1.584 1.663 1.742 1.742 1.9 1.742.159 0 .238-.079.317-.158.159-.158.159-.238.159-2.535v-2.376h-.951v1.188c0 .634-.079 1.426-.079 1.743v.554l-1.03-1.109c-2.376-2.613-2.455-2.613-2.772-2.376ZM14.732 43.722c-.713.158-1.267.713-1.584 1.346-.237.476-.237 1.03-.237 2.535v1.109h.95v-1.268h3.168v1.189c0 .079.08.079.475.079h.476v-4.753l-.159-.158c-.158-.158-.158-.158-1.505-.158-.87 0-1.425 0-1.584.079Zm2.376 1.822v.95h-3.247v-.475c0-.396.08-.555.238-.792.396-.555.792-.713 2.059-.713h.871v1.03h.08ZM19.802 43.642c-.238.079-.555.316-.713.713-.08.237-.159.475-.159 1.821 0 1.822.08 1.98.555 2.297l.237.159h1.98c1.901 0 1.98 0 2.139-.08.158-.158.158-.237.158-1.346 0-1.663.159-1.505-1.821-1.505h-1.584v.95h2.376v1.109h-1.505c-1.347 0-1.505 0-1.584-.079-.08-.079-.08-.317-.08-1.505 0-1.267 0-1.346.08-1.505.079-.079.317-.079 2.06-.079h1.9v-1.029h-1.98c-.95.079-1.98.079-2.06.079ZM25.108 43.8c-.158.159-.158.238-.08 2.139v1.98l.16.237c.316.476.474.555 2.534.555h1.822v-.951H27.8c-1.743 0-1.743 0-1.822-.158-.079-.158-.079-.396-.079-1.584v-1.505h3.644v-.95H25.266l-.158.237ZM37.227 43.722c-.317.158-.475.396-.555.713-.079.158-.079.792-.079 1.742 0 1.743 0 1.901.555 2.218l.237.158h3.802v-.95h-1.742c-1.505 0-1.743 0-1.822-.08-.08-.078-.08-.316-.08-1.504s0-1.426.08-1.505c.079-.08.317-.08 1.822-.08h1.742v-.95h-1.822c-1.742.159-1.9.159-2.138.238ZM41.741 44.513c0 1.109.08 1.505.476 1.9.316.397.633.555 1.188.555l.475.08v1.584h.95v-1.584l.476-.08c.475-.079.87-.158 1.188-.554.396-.396.396-.634.475-1.822v-1.03h-.951v1.03c0 .95 0 1.03-.158 1.188-.238.238-.554.317-1.505.317-1.426 0-1.505-.08-1.584-1.505l-.08-1.03h-.95v.951Z"/><path fill="#fff" d="M26.296 46.098v.476h2.852v-.951h-2.852v.475Z"/></svg>
