<svg xmlns="http://www.w3.org/2000/svg" width="139" height="19" fill="none"><mask id="a" width="139" height="19" x="0" y="0" maskUnits="userSpaceOnUse" style="mask-type:luminance"><path fill="#fff" d="M138.596 0H0v18.017h138.596V0Z"/></mask><g fill="#fff" mask="url(#a)"><path d="M.24 3.615h5.062v13.679h3.134V3.615h5.062V.723H.24v2.892ZM15.607 17.294h3.133v-6.99h7.231v6.99h3.134V.723H25.97V7.41h-7.23V.723h-3.134v16.57ZM32.298 17.292h11.51V14.52h-8.376v-4.399h7.653V7.35h-7.653V3.553h8.316V.781h-11.45v16.511ZM51.823 18.017h3.013L64.296 0h-3.013l-9.46 18.017ZM72.733 17.296h5.001c5.243 0 9.039-2.712 9.039-8.316 0-5.604-3.796-8.316-9.039-8.316h-5.001v16.632Zm3.133-2.893V3.617h2.11c3.374 0 5.663 1.808 5.663 5.423 0 3.616-2.29 5.423-5.664 5.423h-2.109v-.06ZM93.1 17.294h3.194L102.44.723h-3.374L95.33 11.328l-.241.723c-.12.422-.302.904-.422 1.386-.18-.421-.301-.903-.422-1.386l-.24-.723L90.267.723h-3.375l6.207 16.57ZM103.826 17.294h3.134V.723h-3.134v16.57ZM109.852 3.615h8.436l-8.737 10.847v2.832h12.835V14.4h-9.099l8.677-10.786V.723h-12.112v2.892ZM124.977 17.294h3.134v-6.99h7.231v6.99h3.133V.723h-3.133V7.41h-7.231V.723h-3.134v16.57Z"/></g></svg>
