<svg width="30" height="30" viewBox="0 0 30 30" fill="none" xmlns="http://www.w3.org/2000/svg">
<path d="M4.96582 3.21875C2.23348 3.21875 0 5.45229 0 8.18457V21.8145C0 24.5468 2.23348 26.7803 4.96582 26.7803H25.0362C27.7686 26.7803 30 24.5468 30 21.8145V8.18463C30 5.45229 27.7686 3.21881 25.0362 3.21881L4.96582 3.21875ZM6.15393 8.91043L13.3391 16.5328C14.2079 17.3613 15.6013 17.3871 16.4224 16.5537L23.8712 8.89789C24.2836 8.47391 24.9616 8.46453 25.3856 8.87697C25.8095 9.28941 25.8189 9.9674 25.4065 10.3914C22.9201 12.946 20.4335 15.5014 17.9473 18.0556C16.2787 19.7492 13.5454 19.6896 11.8603 18.0828C9.44004 15.5204 7.01596 12.9464 4.59557 10.3788C4.19127 9.94824 4.21184 9.2716 4.64156 8.86643C5.11523 8.42322 5.81777 8.5676 6.15393 8.91043Z" fill="#FF57C6"/>
</svg>
