<svg xmlns="http://www.w3.org/2000/svg" width="134" height="27" fill="none"><g clip-path="url(#a)"><path fill="#FF8A00" fill-rule="evenodd" d="M3.324 13.353 19.961 3.82V0L.001 11.451v3.82l19.96 11.435 9.965-5.722v-3.82l-9.965 5.722-16.637-9.533Zm23.278-1.902-9.981 5.722 3.332 1.918 6.649-3.82v-3.82Zm-3.325-5.73L9.981 13.354l3.324 1.918 9.98-5.73v-3.82h-.008Z" clip-rule="evenodd"/><path fill="#fff" d="M51.905 16.5v2.525H41.39V5.43h10.272v2.525h-7.15v2.953h6.309v2.444h-6.309V16.5h7.393ZM69.222 5.43l-5.88 13.595h-3.106L54.372 5.43h3.397l4.133 9.71 4.19-9.71h3.13ZM82.81 16.5v2.525H72.286V5.43h10.272v2.525h-7.142v2.953h6.309v2.444h-6.31V16.5h7.393ZM95.912 19.025l-2.62-3.787h-2.888v3.787h-3.146V5.43h5.88c1.205 0 2.248.202 3.138.599.89.404 1.57.97 2.047 1.707.477.737.72 1.61.72 2.622 0 1.012-.243 1.878-.728 2.614-.486.728-1.173 1.295-2.07 1.683l3.048 4.37h-3.38ZM95.12 8.602c-.493-.405-1.213-.615-2.151-.615h-2.565v4.742h2.556c.947 0 1.667-.21 2.152-.623.493-.413.736-.995.736-1.748.008-.76-.234-1.343-.728-1.756ZM112.41 16.112h-6.309l-1.205 2.913h-3.219l6.058-13.595h3.106l6.074 13.595h-3.3l-1.205-2.913Zm-.987-2.387-2.151-5.204-2.152 5.204h4.303ZM120.273 5.43h6.172c1.472 0 2.782.283 3.914.841 1.132.567 2.014 1.36 2.637 2.38.631 1.02.938 2.217.938 3.576 0 1.36-.315 2.55-.938 3.578-.631 1.02-1.505 1.812-2.637 2.379-1.132.566-2.434.841-3.914.841h-6.172V5.43Zm6.018 11.014c1.359 0 2.443-.38 3.251-1.133.809-.753 1.214-1.78 1.214-3.075 0-1.295-.405-2.323-1.214-3.076-.808-.752-1.892-1.133-3.251-1.133h-2.871v8.433h2.871v-.016Z"/></g><defs><clipPath id="a"><path fill="#fff" d="M0 0h133.934v26.787H0z"/></clipPath></defs></svg>
