<?xml version="1.0" encoding="UTF-8" standalone="no"?>
<svg
   id="_Слой_1"
   data-name="Слой_1"
   viewBox="0 0 627.1369 521.16522"
   version="1.1"
   sodipodi:docname="FB.svg"
   width="627.1369"
   height="521.16522"
   inkscape:version="1.4 (e7c3feb1, 2024-10-09)"
   xmlns:inkscape="http://www.inkscape.org/namespaces/inkscape"
   xmlns:sodipodi="http://sodipodi.sourceforge.net/DTD/sodipodi-0.dtd"
   xmlns="http://www.w3.org/2000/svg"
   xmlns:svg="http://www.w3.org/2000/svg">
  <sodipodi:namedview
     id="namedview7"
     pagecolor="#ffffff"
     bordercolor="#000000"
     borderopacity="0.25"
     inkscape:showpageshadow="2"
     inkscape:pageopacity="0.0"
     inkscape:pagecheckerboard="0"
     inkscape:deskcolor="#d1d1d1"
     inkscape:zoom="0.25478517"
     inkscape:cx="486.68453"
     inkscape:cy="563.2196"
     inkscape:window-width="1440"
     inkscape:window-height="900"
     inkscape:window-x="0"
     inkscape:window-y="0"
     inkscape:window-maximized="0"
     inkscape:current-layer="_Слой_1" />
  <defs
     id="defs1">
    <style
       id="style1">
      .cls-1 {
        fill: #fd3600;
      }
    </style>
  </defs>
  <path
     class="cls-1"
     d="m 225.31674,157.69286 c -34.88,-2.63 -67.71,3.51 -67.71,34.11 v 41.58 h 62.54 l -17.2,61.2 h -45.34 v 146.47 H 93.936738 v -146.47 h -35.54 v -61.2 h 35.54 v -41.58 c 0,-34.87 8.690002,-56.89 29.610002,-73.24 24.44,-19.109999 63.28,-24.369999 101.78,-22.069999 v 61.199999 z"
     id="path1" />
  <g
     id="g5"
     transform="translate(-211.94326,-247.26714)">
    <path
       class="cls-1"
       d="m 657.8,347.59 -10.29,-3.5 -2.86,8.42 10.29,3.5 c 3.43,1.17 5.62,0.35 6.58,-2.46 0.95,-2.81 -0.28,-4.79 -3.71,-5.96 z"
       id="path2" />
    <path
       class="cls-1"
       d="m 602.71,329.49 c -3.62,-1.23 -7.04,-1.04 -10.27,0.58 -3.23,1.62 -5.48,4.29 -6.75,8.04 -1.27,3.75 -1.12,7.23 0.45,10.48 1.57,3.25 4.17,5.49 7.79,6.72 3.62,1.23 7.05,1.04 10.31,-0.56 3.26,-1.61 5.52,-4.28 6.79,-8.02 1.27,-3.74 1.11,-7.24 -0.5,-10.5 -1.61,-3.26 -4.22,-5.5 -7.83,-6.73 z"
       id="path3" />
    <path
       class="cls-1"
       d="m 653.29,366.09 -11.88,-4.04 -2.96,8.7 11.88,4.04 c 3.49,1.19 5.75,0.28 6.76,-2.71 0.44,-1.31 0.33,-2.5 -0.35,-3.56 -0.68,-1.07 -1.83,-1.88 -3.45,-2.43 z"
       id="path4" />
    <path
       class="cls-1"
       d="M 794.23,362.28 583.47,290.63 c -10.95,-3.72 -22.85,2.14 -26.57,13.09 l -14.39,42.34 c -3.72,10.95 2.14,22.85 13.09,26.57 l 6.02,2.05 c 7.7,3.31 22.13,11.94 24.65,30.78 0.51,3.83 5.21,5.43 7.98,2.73 7.5,-7.34 19.99,-15.16 36.46,-10.02 l 135.66,46.12 c 10.95,3.72 22.85,-2.14 26.57,-13.09 l 14.39,-42.34 c 3.72,-10.95 -2.14,-22.85 -13.09,-26.57 z m -184.28,3.63 c -6.42,3.14 -13.09,3.53 -20.02,1.18 -6.92,-2.35 -11.96,-6.72 -15.1,-13.12 -3.15,-6.39 -3.55,-13.05 -1.19,-19.97 2.35,-6.92 6.73,-11.96 13.12,-15.1 6.39,-3.15 13.05,-3.55 19.97,-1.19 6.92,2.35 11.97,6.73 15.15,13.13 3.18,6.4 3.59,13.06 1.24,19.98 -2.35,6.92 -6.74,11.95 -13.16,15.09 z m 58.45,11.58 c -1.34,3.93 -3.78,6.66 -7.33,8.2 -3.55,1.54 -7.82,1.46 -12.81,-0.23 l -24.6,-8.36 15.9,-46.76 22.73,7.73 c 4.92,1.67 8.33,4.19 10.22,7.54 1.89,3.35 2.16,7 0.83,10.92 -1.4,4.11 -4.02,6.81 -7.86,8.08 3.64,3.6 4.62,7.9 2.92,12.89 z m 45.81,30.39 -11.78,-4.01 9.03,-26.56 -31.01,19.09 -8.98,-3.05 15.9,-46.76 11.78,4.01 -9.03,26.56 31.01,-19.09 8.98,3.05 z m 50.69,17.23 -12.07,-4.1 5.06,-14.87 c -3.87,-0.06 -7.77,-0.77 -11.7,-2.1 -5.67,-1.93 -9.72,-4.9 -12.15,-8.93 -2.42,-4.02 -2.7,-8.78 -0.84,-14.27 l 5.69,-16.74 12.07,4.1 -5.21,15.34 c -1.59,4.68 0.51,8 6.31,9.97 3.37,1.14 6.59,1.58 9.68,1.31 l 6.99,-20.58 12.07,4.1 -15.9,46.76 z"
       id="path5" />
  </g>
  <g
     id="g7"
     transform="translate(-211.94326,-247.26714)">
    <path
       class="cls-1"
       d="m 679.74,472.39 c -23.53,-25.17 -51.91,-37.76 -85.14,-37.76 -33.23,0 -61.2,12.01 -79.96,36.03 V 342.83 h -63.67 v 345.49 h 63.67 V 659.2 c 18.75,24.02 45.41,36.03 79.96,36.03 34.55,0 61.61,-12.59 85.14,-37.76 23.52,-25.17 35.29,-56.02 35.29,-92.54 0,-36.52 -11.77,-67.37 -35.29,-92.54 z m -82.1,154.27 c -25.47,0 -46.11,-20.64 -46.11,-46.11 0,-15.9 8.05,-29.91 20.29,-38.2 -0.16,-1.16 -0.25,-2.35 -0.25,-3.55 v -25.02 c 0,-14.03 11.41,-25.44 25.44,-25.44 14.03,0 25.44,11.41 25.44,25.44 v 25.02 c 0,0.94 -0.06,1.87 -0.16,2.79 12.9,8.17 21.47,22.57 21.47,38.97 0,25.47 -20.64,46.11 -46.11,46.11 z"
       id="path6" />
    <path
       class="cls-1"
       d="m 597,498.14 c -8.62,0 -15.63,7.01 -15.63,15.64 v 23.63 c 5.06,-1.91 10.54,-2.96 16.28,-2.96 5.25,0 10.29,0.89 15,2.51 v -23.17 c 0,-8.62 -7.01,-15.64 -15.64,-15.64 z"
       id="path7" />
  </g>
  <rect
     class="cls-1"
     x="504.35043"
     y="-64.860725"
     width="8.4499998"
     height="55.330002"
     rx="4.23"
     ry="4.23"
     transform="rotate(45)"
     id="rect7" />
</svg>
