<svg xmlns="http://www.w3.org/2000/svg" width="140" height="28" fill="none"><g clip-path="url(#a)"><path fill="#fff" d="M26.223 1.14H1.14v25.083h25.083V1.141Z"/><path fill="#CB333B" d="M24.513 0H2.85A2.85 2.85 0 0 0 0 2.85v21.663a2.85 2.85 0 0 0 2.85 2.85h21.663a2.85 2.85 0 0 0 2.85-2.85V2.85A2.85 2.85 0 0 0 24.513 0ZM23.9 16.338a86.117 86.117 0 0 0-.84 6.638l-.087-.019c-.421-.105-.841-.21-1.263-.31-.158-.04-.318-.065-.475-.102-.134-.031-.145-.078-.095-.203.053-.136.11-.274.136-.416.072-.4-.051-.764-.24-1.11-.237-.435-.552-.816-.857-1.204a2.41 2.41 0 0 1-.414-.765c-.126-.397-.14-.808-.144-1.224-.004-.267.125-.396.354-.475.116-.039.23-.087.335-.148.13-.077.14-.219.027-.324-.075-.072-.16-.13-.241-.197a4.987 4.987 0 0 1-.118-.1c.028-.034.044-.058.065-.082.51-.597.565-1.27.272-1.963-.215-.506-.628-.84-1.16-1.002a1.806 1.806 0 0 0-.537-.097c-.291.003-.579.051-.844.188-.261.134-.51.292-.686.528-.418.56-.566 1.392-.133 2.073.059.092.046.115-.053.164a3.017 3.017 0 0 0-.316.172.189.189 0 0 0-.035.293c.041.042.091.079.14.112.119.08.242.156.36.241a.233.233 0 0 1 .103.249c-.052.272-.098.547-.162.815-.105.431-.328.798-.648 1.103-.249.238-.5.47-.751.704-.217.2-.413.42-.57.67-.238.383-.325.79-.198 1.232.042.147.013.188-.142.188H12.68c-.155 0-.184-.04-.142-.188.127-.442.04-.849-.199-1.232a3.295 3.295 0 0 0-.568-.67c-.251-.234-.503-.466-.752-.704a2.237 2.237 0 0 1-.648-1.103c-.064-.268-.11-.543-.162-.815a.234.234 0 0 1 .103-.249c.118-.085.242-.16.36-.241.05-.033.099-.07.14-.112a.189.189 0 0 0-.035-.293c-.1-.065-.208-.12-.315-.172-.1-.05-.113-.072-.054-.164.433-.68.286-1.513-.132-2.073-.177-.236-.426-.394-.687-.529a1.869 1.869 0 0 0-.843-.187 1.806 1.806 0 0 0-.538.097c-.532.162-.944.496-1.16 1.002-.292.692-.237 1.366.273 1.963.02.024.037.048.064.083l-.117.1c-.081.066-.166.124-.242.196-.112.105-.103.247.028.324.105.061.219.11.335.148.228.079.357.208.353.475-.003.416-.018.827-.143 1.224a2.41 2.41 0 0 1-.414.764c-.306.39-.62.77-.858 1.205-.188.346-.312.71-.24 1.11.026.142.083.28.136.416.05.126.04.172-.095.203-.157.037-.317.063-.475.101-.422.101-.841.206-1.263.311a45.89 45.89 0 0 1-.086.019A86.19 86.19 0 0 0 2.009 9.38l.224.154s1.384.947 3.778 1.82c.038.013.13.045.195.003.053-.034.07-.103.076-.162.224-2.217-.25-5.735-.25-5.735-.021-.162-.046-.35-.072-.562l.222.17c.114.09 3.293 2.57 3.997 2.875.082.036.196.07.315.038.1-.028.184-.102.273-.224.43-.589.795-1.22 1.125-1.869.438-.863.856-1.736 1.268-2.613.191-.404.346-.826.522-1.25.176.424.331.846.522 1.25.412.877.83 1.75 1.269 2.613.33.649.694 1.28 1.124 1.87.089.12.174.195.273.223a.473.473 0 0 0 .315-.038c.704-.306 3.883-2.786 3.997-2.874l.223-.171-.073.562s-.474 3.518-.25 5.735c.006.06.023.128.076.162.066.042.157.01.195-.003 2.394-.873 3.778-1.82 3.778-1.82l.225-.154a85.762 85.762 0 0 0-1.455 6.957Z"/><path fill="#fff" d="M134.829 20.857h-3.163V8.865h-4.315V6.1h11.77v2.765h-4.292v11.992ZM127.658 20.857h-3.585l-.907-2.5h-6.328l-.928 2.5h-3.584L118.034 6.1h3.938l5.686 14.757Zm-5.355-5.266-2.3-6.35-2.302 6.35h4.602ZM110.777 20.857h-10.443V6.1h10.443v2.765h-7.302v3.12h7.147v2.765h-7.147v3.341h7.302v2.766ZM93.009 20.857h-8.01V6.1h7.766c1.343 0 2.382.368 3.12 1.106.752.723 1.128 1.608 1.128 2.655 0 .9-.243 1.652-.73 2.256-.487.605-1.091.981-1.814 1.129.796.118 1.468.523 2.013 1.217.546.693.819 1.497.819 2.411 0 1.15-.376 2.102-1.129 2.854-.752.752-1.806 1.129-3.163 1.129Zm-.93-8.85c.531 0 .952-.148 1.262-.443.31-.295.464-.678.464-1.15 0-.472-.162-.856-.487-1.15-.309-.31-.722-.465-1.238-.465H88.14v3.208h3.939Zm.111 6.128c.59 0 1.055-.147 1.394-.442.34-.31.508-.73.508-1.261 0-.487-.169-.893-.508-1.217-.34-.34-.804-.509-1.394-.509h-4.049v3.43h4.05ZM81.405 20.857h-3.163V10.525l-4.16 10.332H72.71l-4.159-10.332v10.332h-3.142V6.1h4.403l3.584 8.916L76.981 6.1h4.424v14.757ZM63.383 20.857h-3.584l-.907-2.5h-6.328l-.93 2.5h-3.583L53.759 6.1h3.938l5.686 14.757Zm-5.354-5.266-2.301-6.35-2.301 6.35h4.602ZM40.332 21.143c-2.213 0-4.078-.707-5.598-2.123-1.504-1.416-2.256-3.26-2.256-5.532 0-2.286.752-4.13 2.256-5.53 1.52-1.402 3.385-2.103 5.598-2.103 2.684 0 4.72 1.1 6.106 3.297l-2.61 1.416a4.087 4.087 0 0 0-1.46-1.372 3.832 3.832 0 0 0-2.036-.553c-1.342 0-2.449.457-3.319 1.372-.87.914-1.305 2.072-1.305 3.473 0 1.402.435 2.56 1.305 3.474.87.914 1.977 1.372 3.319 1.372.62 0 1.217-.111 1.792-.332.575-.221 1.025-.487 1.35-.797v-1.77H39.58v-2.743h7.035v5.664c-1.667 1.858-3.761 2.787-6.283 2.787Z"/></g><defs><clipPath id="a"><path fill="#fff" d="M0 0h139.121v27.413H0z"/></clipPath></defs></svg>
