<svg width="149" height="30" viewBox="0 0 149 30" fill="none" xmlns="http://www.w3.org/2000/svg">
<g clip-path="url(#clip0_444_3147)">
<path d="M27.7838 2.46875H1.58154V27.8694H27.7838V2.46875Z" fill="#F4F4F4"/>
<path d="M26.227 0.737305H3.16078C1.4846 0.737305 0.125732 2.08449 0.125732 3.74637V26.6153C0.125732 28.277 1.4846 29.6243 3.16078 29.6243H26.227C27.9033 29.6243 29.2621 28.277 29.2621 26.6153V3.74615C29.2621 2.08449 27.9031 0.737305 26.227 0.737305ZM25.5754 17.9855C25.1606 20.4601 24.8738 22.8042 24.681 24.9926C24.6435 24.9849 24.6164 24.979 24.5889 24.9732C24.14 24.8624 23.6932 24.7517 23.2442 24.6448C23.0756 24.6038 22.905 24.5767 22.7383 24.5378C22.5952 24.5047 22.5836 24.4562 22.6366 24.3241C22.6936 24.1801 22.7544 24.0343 22.7817 23.8846C22.8583 23.4628 22.7269 23.0779 22.5269 22.7125C22.274 22.2536 21.9387 21.8513 21.6135 21.441C21.4213 21.1981 21.2664 20.9315 21.1723 20.6343C21.0391 20.2145 21.0233 19.7809 21.0194 19.3416C21.0155 19.0597 21.1527 18.9236 21.3958 18.84C21.5192 18.7993 21.6409 18.7486 21.7526 18.6845C21.8918 18.6029 21.9016 18.4531 21.7821 18.3424C21.7018 18.2665 21.6115 18.2044 21.5251 18.1344C21.4839 18.1012 21.4427 18.0663 21.3995 18.0294C21.4289 17.9922 21.4466 17.9672 21.4682 17.9418C22.0112 17.312 22.0701 16.6005 21.7583 15.8696C21.529 15.335 21.0899 14.9833 20.5233 14.8121C20.339 14.7557 20.1409 14.7071 19.9509 14.7091C19.6411 14.713 19.3352 14.7635 19.053 14.9074C18.7746 15.0492 18.51 15.2164 18.3218 15.4653C17.8768 16.0563 17.72 16.935 18.1807 17.6542C18.2434 17.7514 18.2297 17.7747 18.1238 17.8273C18.01 17.8827 17.8942 17.9401 17.7878 18.0086C17.6784 18.0791 17.6591 18.225 17.7501 18.3176C17.7943 18.3626 17.8473 18.4012 17.9004 18.4357C18.0258 18.5212 18.1573 18.6008 18.2826 18.6905C18.3728 18.7527 18.414 18.844 18.3924 18.9529C18.3375 19.2406 18.2885 19.5302 18.2199 19.814C18.1082 20.269 17.8709 20.6559 17.5299 20.9786C17.2651 21.2293 16.9967 21.4741 16.73 21.7211C16.4987 21.9328 16.291 22.1643 16.1243 22.4288C15.8695 22.833 15.7774 23.2628 15.9125 23.7291C15.9577 23.8846 15.9263 23.9274 15.7616 23.9274H13.6264C13.4616 23.9274 13.4303 23.8846 13.4754 23.7291C13.6106 23.2626 13.5182 22.833 13.2637 22.4288C13.097 22.1643 12.8893 21.9328 12.658 21.7211C12.3913 21.4741 12.1227 21.2293 11.8581 20.9786C11.517 20.6559 11.2799 20.269 11.1681 19.814C11.0995 19.5302 11.0503 19.2408 10.9956 18.9529C10.9742 18.844 11.0152 18.7527 11.1053 18.6905C11.2308 18.601 11.3623 18.5213 11.4876 18.4357C11.5407 18.4012 11.5937 18.3626 11.6379 18.3177C11.7289 18.2251 11.7096 18.0788 11.6004 18.0086C11.494 17.9401 11.3782 17.8827 11.2643 17.8273C11.1585 17.7747 11.1448 17.7514 11.2075 17.6542C11.6682 16.935 11.5113 16.0563 11.0664 15.4653C10.8782 15.2164 10.6135 15.0492 10.3352 14.9074C10.0528 14.7635 9.74703 14.713 9.43729 14.7091C9.24713 14.7071 9.04917 14.7557 8.86489 14.8121C8.29834 14.9833 7.85925 15.335 7.62986 15.8696C7.31818 16.6005 7.37701 17.312 7.92001 17.9418C7.94142 17.9672 7.95919 17.9924 7.98858 18.0294C7.94576 18.0665 7.90432 18.1012 7.86316 18.1344C7.77692 18.2043 7.68649 18.2665 7.60618 18.3424C7.48659 18.4531 7.49639 18.6029 7.63557 18.6845C7.74731 18.7486 7.86889 18.7993 7.99239 18.84C8.23544 18.9236 8.37248 19.0597 8.36873 19.3416C8.36483 19.7809 8.34914 20.2145 8.21585 20.6343C8.12174 20.9315 7.96691 21.1979 7.77478 21.441C7.44933 21.8513 7.11415 22.2536 6.86126 22.7125C6.6613 23.0779 6.52993 23.4628 6.60637 23.8846C6.63384 24.0343 6.69459 24.1801 6.75145 24.3241C6.80439 24.4562 6.79261 24.5047 6.64974 24.5378C6.48313 24.5767 6.31248 24.6038 6.144 24.6448C5.69506 24.7517 5.2481 24.8624 4.79915 24.9732C4.77175 24.979 4.74429 24.9849 4.70706 24.9926C4.51435 22.8042 4.22755 20.4599 3.81267 17.9855C3.37021 15.3467 2.83807 12.8932 2.26445 10.6404C2.31572 10.6757 2.39984 10.7334 2.50363 10.8037C2.50363 10.8037 3.97761 11.8032 6.52624 12.7243C6.56644 12.7389 6.66415 12.7728 6.73433 12.7275C6.78988 12.6916 6.8081 12.6193 6.81462 12.5571C7.05367 10.2161 6.54905 6.5022 6.54905 6.5022C6.5259 6.33163 6.49958 6.13217 6.47157 5.90881C6.50863 5.93663 6.59754 6.00366 6.70879 6.08959C6.82972 6.18307 10.2145 8.80095 10.9648 9.12414C11.0516 9.16156 11.1729 9.19845 11.2998 9.16368C11.4056 9.13449 11.496 9.05603 11.5901 8.92781C12.0489 8.30569 12.4371 7.63895 12.788 6.95464C13.2545 6.04293 13.6995 5.12147 14.1386 4.19614C14.3421 3.76978 14.507 3.324 14.6945 2.87629C14.8819 3.324 15.0472 3.76978 15.2504 4.19614C15.6894 5.12147 16.1345 6.04293 16.6011 6.95464C16.952 7.63895 17.3402 8.30569 17.7989 8.92781C17.8931 9.05603 17.9835 9.13449 18.0893 9.16368C18.2162 9.19866 18.3374 9.16156 18.4243 9.12414C19.1745 8.80095 22.5591 6.18307 22.6802 6.08959C22.7915 6.00366 22.8805 5.93663 22.9176 5.90881C22.8895 6.13217 22.8632 6.33163 22.84 6.5022C22.84 6.5022 22.3353 10.2161 22.5744 12.5571C22.5807 12.6193 22.5989 12.6916 22.6547 12.7275C22.7248 12.7728 22.8225 12.7389 22.8628 12.7243C25.4115 11.8032 26.8854 10.8037 26.8854 10.8037C26.9892 10.7334 27.0733 10.6757 27.1245 10.6404C26.5501 12.8932 26.0179 15.3467 25.5754 17.9855Z" fill="#CB333B"/>
<path d="M43.0715 22.8348C40.7156 22.8348 38.7289 22.0872 37.1113 20.5925C35.5092 19.0977 34.7083 17.1513 34.7083 14.7533C34.7083 12.3398 35.5092 10.3934 37.1113 8.91418C38.7289 7.43493 40.7156 6.69531 43.0715 6.69531C45.9298 6.69531 48.0972 7.85535 49.5735 10.1754L46.7937 11.6703C46.4168 11.0786 45.8984 10.5959 45.2388 10.2221C44.5949 9.83288 43.8724 9.63823 43.0715 9.63823C41.6423 9.63823 40.4643 10.1209 39.5377 11.0863C38.6111 12.0517 38.1478 13.2741 38.1478 14.7533C38.1478 16.2326 38.6111 17.4549 39.5377 18.4203C40.4643 19.3857 41.6423 19.8684 43.0715 19.8684C43.7311 19.8684 44.3671 19.7516 44.9796 19.5181C45.5921 19.2845 46.0711 19.0042 46.4168 18.6772V16.8087H42.2705V13.9125H49.762V19.8918C47.9873 21.8537 45.757 22.8348 43.0715 22.8348ZM67.6164 22.531H63.8002L62.8343 19.8918H56.0965L55.1071 22.531H51.2906L57.3688 6.95223H61.562L67.6164 22.531ZM61.9154 16.9722L59.4654 10.2689L57.0153 16.9722H61.9154ZM86.8068 22.531H83.4381V11.6235L79.0092 22.531H77.5486L73.1196 11.6235V22.531H69.7743V6.95223H74.4624L78.2789 16.3649L82.0954 6.95223H86.8068V22.531ZM99.1624 22.531H90.6343V6.95223H98.9033C100.332 6.95223 101.44 7.34151 102.225 8.12005C103.026 8.88304 103.427 9.81731 103.427 10.9229C103.427 11.8727 103.167 12.6668 102.649 13.3052C102.131 13.9436 101.487 14.3407 100.717 14.4964C101.565 14.621 102.28 15.0492 102.861 15.781C103.442 16.5129 103.733 17.3615 103.733 18.3269C103.733 19.5414 103.332 20.5458 102.531 21.3398C101.73 22.1339 100.607 22.531 99.1624 22.531ZM98.173 13.1884C98.7384 13.1884 99.186 13.0327 99.5158 12.7213C99.8456 12.4099 100.011 12.005 100.011 11.5068C100.011 11.0085 99.8377 10.6036 99.4922 10.2922C99.1624 9.96523 98.7227 9.80174 98.173 9.80174H93.9796V13.1884H98.173ZM98.2908 19.6582C98.919 19.6582 99.4137 19.5025 99.7749 19.1911C100.136 18.8641 100.317 18.4203 100.317 17.8597C100.317 17.3459 100.136 16.9177 99.7749 16.5751C99.4137 16.217 98.919 16.0379 98.2908 16.0379H93.9796V19.6582H98.2908ZM118.082 22.531H106.962V6.95223H118.082V9.8718H110.308V13.1651H117.917V16.0847H110.308V19.6115H118.082V22.531ZM136.057 22.531H132.24L131.275 19.8918H124.537L123.547 22.531H119.731L125.809 6.95223H130.002L136.057 22.531ZM130.356 16.9722L127.906 10.2689L125.456 16.9722H130.356ZM143.693 22.531H140.324V9.8718H135.73V6.95223H148.263V9.8718H143.693V22.531Z" fill="#F4F4F4"/>
</g>
<defs>
<clipPath id="clip0_444_3147">
<rect width="149" height="29" fill="white" transform="translate(0 0.666992)"/>
</clipPath>
</defs>
</svg>
