<svg width="880" height="398" viewBox="0 0 880 398" fill="none" xmlns="http://www.w3.org/2000/svg">
<path d="M706.303 109.007L744.488 176.139V128.614C744.488 126.219 743.073 120.085 742.149 117.663C740.893 114.356 738.567 112.1 737.185 109.007H776.367L771.402 117.004C767.621 151.282 770.725 186.425 769.734 220.996C770.093 222.819 770.286 224.702 770.917 226.465C772.08 229.699 774.526 231.056 775.702 233.97H746.149L705.971 164.176V222.999C705.971 225.98 710.696 230.91 711.281 233.964H674.092C674.724 231.156 676.83 229.652 677.927 226.831C679.023 224.01 679.409 220.703 680.06 217.669C680.1 126.585 680.06 217.669 680.1 126.585C679.914 123.897 679.243 119.486 678.405 116.984C677.256 113.538 674.763 112.047 673.428 109H706.303V109.007Z" fill="white"/>
<path d="M513.377 109.672L516.693 139.579C515.995 140.371 506.612 132.273 505.077 132.273H472.201V162.852H493.786C495.115 162.852 502.558 155.939 503.415 156.871L504.08 190.098C503.548 190.703 496.869 185.447 495.779 185.447H472.201V214.363C472.201 215.574 473.577 222.44 474.049 223.817C475.258 227.35 478.634 230.384 480.834 233.305H437C441.931 226.625 442.622 219.14 443.008 211.069C442.968 124.635 443.008 211.069 442.968 124.635C442.157 121.229 441.532 117.357 440.17 114.143C439.379 112.28 437.97 111.488 437.658 109.672H513.37H513.377Z" fill="white"/>
<path d="M876.646 109.007L879.304 140.238C878.274 141.076 869.289 132.267 867.016 132.267H846.761V219.672C846.761 220.471 848.176 224.722 848.635 225.773C849.977 228.854 852.782 231.009 854.064 233.964H809.566C810.563 231.056 813.527 229.087 814.809 226.246C815.381 224.975 816.869 219.453 816.869 218.341V132.267H796.614C794.793 132.267 783.595 142.247 783.004 141.568L786.32 109H876.639L876.646 109.007Z" fill="white"/>
<path d="M570.489 109.007C568.747 111.395 564.7 116.086 564.009 118.8C563.843 119.452 563.185 124.749 563.185 125.287V210.697H592.073C594.804 210.697 603.39 201.302 605.497 198.92C605.896 198.468 605.457 197.643 607.012 198.075L601.736 233.618L526.661 233.957C526.17 233.478 530.908 227.117 531.44 225.78C532.45 223.245 532.696 220.318 533.287 217.663C533.327 188.5 533.327 160 533.327 130.57C532.862 122.446 531.466 115.221 525.99 109H570.489V109.007Z" fill="white"/>
<path d="M658.148 109.007C655.497 112.925 652.673 117.117 652.181 121.974C652.148 214.383 652.181 127.5 652.148 214.383C652.38 217.337 653.304 221.389 654.314 224.176C655.636 227.836 658.215 230.437 659.477 233.964H616.308L621.273 225.966C624.582 191.894 622.867 156.957 622.223 122.693C621.259 117.297 619.651 112.832 615.65 109H658.155L658.148 109.007Z" fill="white"/>
<path d="M649.371 263.398C601.344 269.167 602.115 342.42 652.515 346.286C713.8 350.99 714.464 255.574 649.371 263.398ZM650.674 329.526C647.551 329.041 642.752 326.306 640.453 324.137C626.438 310.897 632.95 279.2 654.508 277.856C687.397 275.807 690.049 335.634 650.674 329.533V329.526Z" fill="#00C9FB"/>
<path d="M584.445 314.729C611.851 301.508 602.368 264.502 571.812 264.549L532.499 264.549C531.888 266.438 533.895 265.82 534.486 266.538C536.234 268.694 536.232 270.83 537.282 273.185C536.764 293.651 537.648 314.21 537.309 334.695C536.95 337.057 536.91 339.739 535.295 341.648C535.209 341.755 535.375 342.42 535.069 342.726C534.305 343.478 532.916 343.764 532.637 344.968H559.199C557.651 343.551 554.547 340.111 554.547 337.989V316.385H564.841C566.469 316.385 578.059 341.794 580.445 344.968H603.026L594.52 333.205L584.439 314.722L584.445 314.729ZM573.693 301.315C573.022 301.522 569.154 302.433 568.835 302.433H554.554V279.166H568.835C569.334 279.166 573.374 280.184 574.185 280.457C585.535 284.289 584.924 297.862 573.693 301.309V301.315Z" fill="#00C9FB"/>
<path d="M481.499 313.066H496.112V328.022C480.821 334.762 458.804 328.215 456.937 309.406C453.8 277.796 486.543 268.827 506.732 288.475C505.967 285.328 505.383 266.944 503.615 265.86C480.435 258.421 450.278 264.582 441.14 289.626C429.797 320.724 454.285 348.235 485.812 346.299C491.766 345.933 511.609 341.316 512.719 334.343C513.889 326.991 511.849 316.771 512.719 309.087C513.238 309.12 515.763 300.67 517.371 299.779H481.512V313.072L481.499 313.066Z" fill="#00C9FB"/>
<path d="M763.075 277.517C763.819 286.419 764.172 311.895 762.251 319.879C758.609 335.048 733.988 333.771 731.928 317.996C730.718 308.714 730.851 282.34 731.868 272.853C732.286 268.914 734.121 267.324 736.52 264.549H709.958C710.097 265.621 711.42 265.467 712.27 266.559C713.154 267.696 713.785 269.4 713.958 270.85C716.317 290.504 707.08 326.605 724.624 339.932C738.254 350.285 766.371 348.561 775.702 333.012C785.371 316.898 777.449 288.102 781.011 269.865C781.257 269.666 782.806 265.268 784.334 264.549H757.772C761.38 268.102 762.663 272.573 763.075 277.523V277.517Z" fill="#00C9FB"/>
<path d="M846.099 266.538C831.3 262.646 814.932 265.334 799.614 264.549L802.265 268.534C805.588 282.061 804.372 319.925 803.621 335.361C803.548 336.805 803.136 338.222 802.93 339.652L798.949 345.634L826.169 344.962C826.169 343.744 824.401 343.864 824.176 343.638C823.212 342.673 822.421 339.965 821.517 339.652V319.712C834.529 320.105 851.356 319.193 860.021 308.062C871.239 293.658 864.354 270.537 846.092 266.532L846.099 266.538ZM838.131 304.423C832.894 304.735 827.458 305.634 822.195 305.088C821.976 305.068 821.75 305.108 821.531 305.088V279.16C826.349 278.987 830.735 279.127 835.48 279.825C840.231 280.53 844.478 281.382 846.431 286.479C849.661 294.922 845.906 301.056 838.138 304.416L838.131 304.423Z" fill="#00C9FB"/>
<g clip-path="url(#clip0_363_13899)">
<path d="M419.23 127.16C417.74 125.48 415.53 124.62 413.3 124.84C391.73 126.98 374.52 122.96 360.7 112.57C346.43 101.84 336.85 87.1001 326.71 71.4901C321.83 63.9701 316.78 56.2001 311.17 48.9501C299.09 33.3301 284.05 19.6701 267.68 9.45007C266.65 8.81007 262.64 6.46007 258.98 4.46007C252.05 0.670068 247.04 -2.06993 242.87 2.28007C241.74 3.46007 241.06 4.99007 240.94 6.62007C239.01 33.2501 229.96 47.5401 214.02 49.0901C205.1 49.9501 197.74 47.8201 192.13 42.7401C184.32 35.6701 179.63 22.4601 179.54 7.36007C179.6 5.47007 178.9 3.57007 177.46 2.14007C172.93 -2.33993 167.24 0.890068 158.63 5.79007C153.61 8.65007 148.35 11.8901 146.95 12.8201C132.85 22.2001 120.87 34.0501 108.09 51.2201C102.87 58.2401 98.1499 65.4001 93.5899 72.3301C75.2599 100.15 59.4299 124.18 20.1899 125.37C16.4599 125.48 12.5099 125.31 7.75992 124.84C5.72992 124.63 3.70992 125.33 2.22992 126.74C-1.51008 130.3 0.0599191 134.97 2.42992 142.03C3.73992 145.93 5.29992 150.15 5.80992 151.43C16.6199 178.38 35.0399 199.39 62.0999 215.68C65.2599 217.58 69.3799 220.02 73.1599 222C73.1899 222.01 73.2099 222.03 73.2399 222.04C74.1299 222.5 83.0199 224.1 83.7799 224.46C84.9799 232.98 86.8199 245.21 97.2699 259.79C102.55 267.16 111.89 274.67 116.22 277.36C114.17 282.76 106.76 292.74 105.3 293.18C100.48 298.94 94.0499 298.82 94.0599 301.33C94.0699 303.63 99.2599 305.21 105.87 306.26C107 306.44 101.04 305.8 103.05 306C106.52 306.34 110.68 306.66 114.02 306.91C114.05 306.91 114.08 306.91 114.11 306.91C114.14 307.52 114.16 308.13 114.18 308.68C114.31 312.23 114.48 317.06 115.47 322.26C116.25 334.3 122.48 346.66 133.98 359C134.06 359.09 142.53 368.16 146.85 370.48C148.47 371.35 150.54 372.17 153.54 371.78C154.7 371.65 155.78 371.23 156.7 370.59C172.4 386.46 188.45 395.22 205.71 397.36C206 397.4 206.29 397.41 206.57 397.41C207.34 397.41 208.09 397.28 208.8 397.04C209.96 397.25 210.66 397.34 210.82 397.36C211.38 397.43 211.95 397.43 212.52 397.36C229.78 395.22 245.84 386.46 261.53 370.59C262.43 371.21 263.49 371.63 264.64 371.77C267.67 372.18 269.75 371.35 271.4 370.47C275.7 368.15 284.16 359.09 284.24 359C297.47 344.82 303.69 330.71 302.75 317.07L303.2 314.39L304.71 314.54C306.9 314.77 309.06 313.94 310.56 312.33C312.05 310.71 312.7 308.49 312.31 306.33L310.88 298.45L322.4 295.16C324.71 294.5 326.52 292.7 327.19 290.4C327.86 288.1 327.31 285.6 325.72 283.8L315.95 272.73L318.71 265.57C320.41 263.75 322.36 260.65 325.21 254.95C327.59 250.19 329.88 245.01 330.62 242.95C331.26 241.18 333.25 235.42 334.72 228.21L341.03 224.72C381.18 209.02 411.74 174.04 420.82 133.33C421.31 131.14 420.72 128.84 419.23 127.16Z" fill="#222234"/>
<path d="M289.06 215.51C288.3 210.39 283.01 199.57 277.31 198.46C259.47 194.97 239.48 213.45 223 217.29L225.92 245.3L229.58 235.93L232.83 231.02C236.85 232.75 240.31 236.41 244.83 237.14C248.49 237.73 252.67 237.16 256.3 236.7L250.9 235.88C246.34 234.52 242.3 231.85 238.9 228.68C238.49 228.31 236.06 226.34 236.64 225.83L243.23 224.39C248.78 233.7 259.58 231.89 264.11 223C270.89 225.48 277.97 222.71 284.9 224.1L267.64 214.65C266.3 213.76 269.18 212.59 269.89 212.25C275.91 209.39 284.56 210.47 289.07 215.52L289.06 215.51ZM296.12 196.69C295.99 199.09 296.72 201.37 296.84 203.74C297.55 217.52 298.07 240.41 294.85 253.43C292.62 262.46 288.13 269.44 282.5 276.79C281.59 277 281.55 276.66 281.06 276.18C275.04 270.37 273.34 267.17 264.8 263.75C261.15 262.29 251.25 260.57 249.18 259.29C247.79 258.43 245.86 254.88 244.07 253.32C239.89 249.68 235.38 248.07 230.09 250.72C236.25 253.05 239.67 257.2 240.21 263.61C236.45 264.45 229.1 265.49 225.95 267.38C224.28 268.38 223.43 270.72 222.12 272.01C216.96 277.06 209.39 277.41 204.14 272.23C202.86 270.96 201.34 267.97 200.26 267.37C198.2 266.23 185.08 263.98 184.8 262.74C186.98 255.67 193.42 251.69 197.55 245.81C203.99 236.63 207.35 224.87 208.1 213.86C230.45 206.72 251.88 197.08 274 189.28C281.65 189.73 289.07 193.86 296.09 196.69H296.12Z" fill="white"/>
<path d="M137.36 193.35C147.31 196.05 157.66 197.24 167.67 199.64C172.42 200.78 177.03 202.62 181.84 203.49C181.85 204.46 182.17 204.73 180.99 204.59C175.41 203.92 169.82 204.04 164.26 203.48C159.81 203.03 151.68 200.49 148.19 200.6C136.52 200.96 136.24 220.95 138.14 228.6C139.02 232.13 140.37 235.38 142.1 238.29C138.48 242.13 133.97 244.96 129.04 246.57C127.58 234.31 128.24 220.17 128.83 210.11C129.28 202.59 127.37 195.61 137.34 193.37L137.36 193.35ZM148.66 246.17C157.27 253.74 169.65 256.5 182.44 252.16C182.81 252.46 177.11 259.29 176.72 259.54C175.09 260.55 170.52 261.05 168.29 261.74C158.14 264.9 149.85 268.76 143.43 277.35C139.19 272.46 135 267.47 132.55 261.47C131.86 259.78 131.27 257.95 130.77 256C137.1 253.78 143.48 250.25 148.67 246.17H148.66Z" fill="white"/>
<path d="M258.09 184.01L229.21 194.9L211.3 200.07L166.35 185.44C196.21 180.26 228.13 179.11 258.09 184.02V184.01Z" fill="white"/>
<path d="M172.53 8.16022C172.59 32.9302 184.2 60.0502 214.69 57.0902C240.01 54.6302 246.45 28.4602 247.92 8.16022C248.64 7.41022 262.37 15.4302 263.96 16.4302C280.02 26.4502 294.21 39.5202 305.62 54.2702C322.34 75.9102 333.88 102.22 356.47 119.21C373.12 131.73 393.18 134.91 413.97 132.85C405.32 171.59 376.21 204.65 338.03 219.42C338.72 215.76 338.53 212.21 338.28 208.53C366.63 195.22 389.8 172.44 399.23 143.2C394.82 143.29 390.36 143.15 385.98 142.58C324.98 134.77 312.87 63.0802 268.81 32.4502L256.4 24.5002C254.81 39.5002 246.18 54.5302 232.41 62.1602C228.44 64.3602 225.18 65.0102 221.12 66.4602C199 69 183.426 62.8525 173.76 49.7302C167.58 41.3502 166.41 34.9702 164.02 25.3202C163.86 24.6802 164.45 24.3302 163.19 24.5102C130.48 42.4002 115.98 75.1002 95.1102 102.85C77.6302 126.09 53.2402 144.35 21.7802 143.2C30.0702 169.65 49.5202 188.5 73.1802 202.98C74.8602 204.01 82.5802 207.73 82.9202 208.91C83.1902 209.86 82.3502 212.18 82.3802 213.7C82.4202 215.36 83.1702 217.09 83.0102 218.58C82.9402 219.24 83.1902 219.68 82.1602 219.39C78.4402 218.34 69.3702 212.92 65.7002 210.71C40.9502 195.82 22.8702 176.21 12.2902 149.85C11.4402 147.73 6.2402 133.6 7.0502 132.84C11.4902 133.29 15.9202 133.54 20.3902 133.41C73.5702 131.8 87.3602 91.8502 113.7 56.4402C124.37 42.1002 135.65 29.7902 150.82 19.6902C153.1 18.1702 171.34 6.98022 172.53 8.16022Z" fill="#04BAEE"/>
<path d="M260.31 311.49C261.11 312.73 256.56 321.19 255.58 322.86C250.06 332.21 241.93 339.96 231.23 343.56C229.82 340.95 228.53 338.22 226.84 335.75C226.02 334.55 221.21 329.68 221.85 328.85C228.64 326.45 234.09 320.74 238.29 315.24L185.59 314.7C185.19 315.03 189.08 319.84 189.57 320.4C190.72 321.7 192.45 323.39 193.79 324.52C195.13 325.65 201.43 329.31 201.5 329.75C201.72 331.07 197.03 336.2 195.89 337.95C194.02 340.82 194.58 343.83 190.66 342.76C179.08 339.59 166.88 323.95 162.86 313.4C167.88 311.51 172.53 307.87 177.64 306.27C199.36 299.45 226.96 299.79 248.61 306.7C250.02 307.15 259.98 311 260.31 311.51V311.49Z" fill="#FBFBFB"/>
<path d="M286.45 173.67C277.71 172.53 268.87 171.21 260.09 170.41C215.59 166.35 175.45 167.61 133.13 182.38C126.75 184.61 120.61 188.02 114.16 189.46C124.02 179.69 138.5 173.01 151.58 167.98C188.99 153.58 232.95 152.58 270.88 166.05C276.15 167.92 282.23 170.13 286.45 173.68V173.67Z" fill="#04BAEE"/>
<path d="M152.7 365.87C151.62 366.03 151.05 365.84 150.13 365.35C147.66 364.02 141.24 357.58 139.09 355.27C128.89 344.33 119.96 329.94 122.95 314.7C124.59 318.18 125.53 321.9 127.1 325.41C131.43 335.06 138 343.69 145.62 351.17L145.34 332.37C145.75 329.39 148.13 335.42 148.64 336.28C158.92 353.75 172.55 369.63 189.59 381.33L206.54 391.45C187.68 389.11 172.53 378.11 160.05 365.06L152.7 356.06V365.86V365.87Z" fill="#FBFBFB"/>
<path d="M308.56 210.97C309.42 204.31 317.85 196.36 324.71 201.44C333.78 208.16 327.31 232.51 324.01 241.61C322.82 244.91 315.38 261.37 312.8 262.42C311.72 262.86 311.99 261.76 311.81 261.22C311.24 259.53 308.49 249.55 308.69 248.6C308.78 248.16 311.77 245.09 312.41 244.08C315.95 238.49 319.19 229.21 320.86 222.8C322.31 217.25 325.88 206.25 316.48 214.24C313.03 217.17 311.31 220.93 308.55 224.32C308.94 220.1 308.02 215.09 308.55 210.98L308.56 210.97Z" fill="#FBFBFB"/>
<path d="M112.46 224.31C111.12 224.57 111.55 224.15 111.19 223.61C108.01 218.85 105.21 212.99 98.8603 211.25C98.0803 220.64 102.12 231.79 106.31 240.3C107.27 242.25 111.8 248.08 111.9 248.57C112.27 250.5 109.99 258.39 109.21 260.68C109.03 261.22 109.31 262.31 108.22 261.88C106.94 261.38 102.84 254.76 101.97 253.18C95.4903 241.45 90.8203 223.71 92.0703 210.44C92.8303 202.41 99.0503 196.04 107.08 202C109.49 203.79 112.46 208.66 112.46 211.53V224.33V224.31Z" fill="#FBFBFB"/>
<path d="M107.36 298.9C107.04 297.51 107.75 297.95 108.42 297.49C122.21 288.16 123.87 284.93 128.5 269.39C128.66 268.83 128.64 267.75 129.45 267.87C134.19 283.61 125.91 299.8 107.36 298.9Z" fill="#FBFBFB"/>
<path d="M179.23 277.01C179.58 278.59 178.76 278 178.08 278.45C163.89 287.73 160.78 304.18 139.67 300C136.18 299.31 133.22 297.53 129.82 296.76C129.45 294.62 131.09 296.25 132.37 296.14C138.45 295.59 143.87 294.64 149.57 292.39C160.06 288.24 167.95 279.26 179.24 277.01H179.23Z" fill="white"/>
</g>
<defs>
<clipPath id="clip0_363_13899">
<rect width="420.99" height="397.42" fill="white"/>
</clipPath>
</defs>
</svg>
