<svg width="40" height="40" viewBox="0 0 40 40" fill="none" xmlns="http://www.w3.org/2000/svg">
<path d="M11.5655 31.1473V20.1706C11.5655 15.5123 15.3417 11.7361 20 11.7361C24.6583 11.7361 28.4346 15.5123 28.4346 20.1706V31.1804" stroke="#100730" stroke-width="1.71875" stroke-miterlimit="10" stroke-linejoin="round"/>
<path d="M13.2755 35.6433V39.1407" stroke="#100730" stroke-width="1.71875" stroke-miterlimit="10" stroke-linecap="round" stroke-linejoin="round"/>
<path d="M26.7246 35.6433V39.1407" stroke="#100730" stroke-width="1.71875" stroke-miterlimit="10" stroke-linecap="round" stroke-linejoin="round"/>
<path d="M22.7335 27.0126L22.7316 30.0472L25.0623 30.2105C28.8477 30.4759 31.783 33.624 31.783 37.4187V39.1406H8.2171V37.4187C8.2171 33.6241 11.1523 30.4759 14.9377 30.2105L17.2684 30.0472L17.2703 27.0126" stroke="#100730" stroke-width="1.71875" stroke-miterlimit="10" stroke-linejoin="round"/>
<path d="M17.2684 30.0471L20 32.2803L22.7317 30.0471" stroke="#100730" stroke-width="1.71875" stroke-miterlimit="10" stroke-linejoin="round"/>
<path d="M24.7642 19.927V23.0287C24.7642 25.6599 22.6312 27.7929 20 27.7929C17.3688 27.7929 15.2358 25.6599 15.2358 23.0287V19.927H24.7642Z" stroke="#100730" stroke-width="1.71875" stroke-miterlimit="10" stroke-linejoin="round"/>
<path d="M20.0099 8.14235L22.7758 5.98641C23.6287 5.32157 24.1274 4.30063 24.1274 3.21923C24.1274 1.88993 23.0287 0.803913 21.7006 0.86157C21.0204 0.891101 20.416 1.21298 20.0099 1.70477C19.6039 1.21298 18.9995 0.891101 18.3192 0.86157C16.9912 0.803913 15.8925 1.88993 15.8925 3.21923C15.8925 4.30063 16.3912 5.32157 17.2441 5.98641L20.0099 8.14235Z" stroke="#FF57C6" stroke-width="1.71875" stroke-miterlimit="10" stroke-linecap="round" stroke-linejoin="round"/>
<path d="M32.843 11.7464L29.8758 13.0035L30.1545 9.79307L28.0421 7.35963L31.1814 6.6326L32.843 3.87158L34.5046 6.6326L37.6439 7.35963L35.5315 9.79307L35.8101 13.0035L32.843 11.7464Z" stroke="#FF57C6" stroke-width="1.71875" stroke-miterlimit="10" stroke-linecap="round" stroke-linejoin="round"/>
<path d="M6.29999 12.3813C8.47814 12.3813 10.2439 10.6156 10.2439 8.43744C10.2439 6.25928 8.47814 4.49353 6.29999 4.49353C4.12183 4.49353 2.35608 6.25928 2.35608 8.43744C2.35608 10.6156 4.12183 12.3813 6.29999 12.3813Z" stroke="#FF57C6" stroke-width="1.71875" stroke-miterlimit="10" stroke-linecap="round" stroke-linejoin="round"/>
</svg>
