<svg width="72" height="72" viewBox="0 0 72 72" fill="none" xmlns="http://www.w3.org/2000/svg">
<g clip-path="url(#clip0_29_32)">
<path fill-rule="evenodd" clip-rule="evenodd" d="M23.6953 70.453H48.3047V69.4975C48.3047 62.4485 42.7676 56.6809 36 56.6809C29.2324 56.6809 23.6953 62.4484 23.6953 69.4975V70.453Z" stroke="#100730" stroke-width="3.09375" stroke-miterlimit="2.6131" stroke-linecap="round" stroke-linejoin="round"/>
<path d="M40.1554 55.2942C43.2121 52.9993 43.8296 48.6611 41.5347 45.6045C39.2399 42.5479 34.9017 41.9303 31.845 44.2252C28.7884 46.52 28.1709 50.8583 30.4657 53.9149C32.7606 56.9715 37.0988 57.589 40.1554 55.2942Z" stroke="#100730" stroke-width="3.09375" stroke-miterlimit="2.6131" stroke-linecap="round" stroke-linejoin="round"/>
<path d="M44.7544 6.26074H64.6032C67.8198 6.26074 70.4533 8.89423 70.4533 12.1109V23.6084C70.4533 26.8257 67.8208 29.4584 64.6032 29.4584H56.7588L49.4462 35.2696V29.4584H41.9696C39.8149 29.4584 37.9231 28.2777 36.9081 26.5314" stroke="#100730" stroke-width="3.09375" stroke-miterlimit="2.6131" stroke-linecap="round" stroke-linejoin="round"/>
<path fill-rule="evenodd" clip-rule="evenodd" d="M43.8408 7.17188V20.1797C43.8408 23.273 41.3093 25.8047 38.2158 25.8047H25.6442V32.9497L18.613 25.8047H7.17187C4.07812 25.8047 1.54688 23.2734 1.54688 20.1797V7.17188C1.54688 4.07812 4.07883 1.54688 7.17187 1.54688H38.2158C41.309 1.54688 43.8408 4.07841 43.8408 7.17188Z" stroke="#100730" stroke-width="3.09375" stroke-miterlimit="2.6131" stroke-linecap="round" stroke-linejoin="round"/>
<path d="M25.5199 61.9254C23.8811 56.8485 19.2597 53.1653 13.8517 53.1653C7.08411 53.1653 1.547 58.9327 1.547 65.9818V66.9374H22.9562" stroke="#100730" stroke-width="3.09375" stroke-miterlimit="2.6131" stroke-linecap="round" stroke-linejoin="round"/>
<path d="M17.4892 52.1347C20.7408 50.1254 21.7478 45.8606 19.7385 42.6091C17.7291 39.3575 13.4643 38.3505 10.2128 40.3598C6.96122 42.3692 5.95421 46.634 7.96354 49.8855C9.97287 53.1371 14.2377 54.1441 17.4892 52.1347Z" stroke="#100730" stroke-width="3.09375" stroke-miterlimit="2.6131" stroke-linecap="round" stroke-linejoin="round"/>
<path d="M49.0439 66.9374H70.4531V65.9818C70.4531 58.9329 64.916 53.1653 58.1484 53.1653C52.7448 53.1653 48.1265 56.8425 46.4841 61.9129" stroke="#100730" stroke-width="3.09375" stroke-miterlimit="2.6131" stroke-linecap="round" stroke-linejoin="round"/>
<path d="M58.5783 53.1559C62.3931 52.9185 65.2933 49.6335 65.0559 45.8185C64.8186 42.0036 61.5336 39.1034 57.7187 39.3407C53.9038 39.5781 51.0037 42.8631 51.2411 46.6781C51.4784 50.493 54.7634 53.3932 58.5783 53.1559Z" stroke="#100730" stroke-width="3.09375" stroke-miterlimit="2.6131" stroke-linecap="round" stroke-linejoin="round"/>
<path d="M63.4218 20.3208H57.9165" stroke="#FF57C6" stroke-width="3.09375" stroke-miterlimit="2.6131" stroke-linecap="round" stroke-linejoin="round"/>
<path d="M53.6846 13.9925L64.125 13.8237" stroke="#FF57C6" stroke-width="3.09375" stroke-miterlimit="2.6131" stroke-linecap="round" stroke-linejoin="round"/>
<path d="M7.875 16.84H20.4697M37.5127 10.5117H7.875" stroke="#FF57C6" stroke-width="3.09375" stroke-miterlimit="2.6131" stroke-linecap="round" stroke-linejoin="round"/>
</g>
<defs>
<clipPath id="clip0_29_32">
<rect width="72" height="72" fill="white"/>
</clipPath>
</defs>
</svg>
