<svg width="72" height="72" viewBox="0 0 72 72" fill="none" xmlns="http://www.w3.org/2000/svg">
<path d="M20.9081 16.0371C20.9081 18.904 18.584 21.2192 15.7169 21.2192C12.85 21.2192 10.5258 18.9042 10.5258 16.0371C10.5258 13.1702 12.8499 10.8459 15.7169 10.8459C18.584 10.8461 20.9081 13.1702 20.9081 16.0371Z" stroke="#FF57C6" stroke-width="3.09375" stroke-miterlimit="10" stroke-linecap="round" stroke-linejoin="round"/>
<path d="M5.15533 25.1641C5.48187 22.9246 7.40815 21.2192 9.73816 21.2192H21.6961C24.0184 21.2192 25.9428 22.935 26.2789 25.1635" stroke="#FF57C6" stroke-width="3.09375" stroke-miterlimit="10" stroke-linecap="round" stroke-linejoin="round"/>
<path d="M25.7367 25.7368C31.2704 20.203 31.2704 11.231 25.7367 5.69728C20.2029 0.163519 11.2309 0.163519 5.69713 5.69728C0.163368 11.231 0.163368 20.203 5.69713 25.7368C11.2309 31.2706 20.2029 31.2706 25.7367 25.7368Z" stroke="#100730" stroke-width="3.09375" stroke-miterlimit="10" stroke-linecap="round" stroke-linejoin="round"/>
<path d="M61.4741 16.0371C61.4741 18.904 59.15 21.2192 56.2829 21.2192C53.4158 21.2192 51.0917 18.9042 51.0917 16.0371C51.0917 13.1702 53.4158 10.8459 56.2829 10.8459C59.15 10.8461 61.4741 13.1702 61.4741 16.0371Z" stroke="#FF57C6" stroke-width="3.09375" stroke-miterlimit="10" stroke-linecap="round" stroke-linejoin="round"/>
<path d="M45.7211 25.1641C46.0477 22.9246 47.9739 21.2192 50.304 21.2192H62.2619C64.5841 21.2192 66.5086 22.935 66.8447 25.1635" stroke="#FF57C6" stroke-width="3.09375" stroke-miterlimit="10" stroke-linecap="round" stroke-linejoin="round"/>
<path d="M66.3022 25.737C71.836 20.2033 71.836 11.2313 66.3022 5.69752C60.7684 0.163762 51.7964 0.16376 46.2627 5.69752C40.7289 11.2313 40.7289 20.2033 46.2627 25.737C51.7964 31.2708 60.7684 31.2708 66.3022 25.737Z" stroke="#100730" stroke-width="3.09375" stroke-miterlimit="10" stroke-linecap="round" stroke-linejoin="round"/>
<path d="M61.4741 56.603C61.4741 59.4701 59.15 61.7851 56.2829 61.7851C53.4158 61.7851 51.0917 59.4701 51.0917 56.603C51.0917 53.7361 53.4158 51.4119 56.2829 51.4119C59.15 51.4119 61.4741 53.7361 61.4741 56.603Z" stroke="#FF57C6" stroke-width="3.09375" stroke-miterlimit="10" stroke-linecap="round" stroke-linejoin="round"/>
<path d="M45.7211 65.73C46.0477 63.4905 47.9739 61.7852 50.304 61.7852H62.2619C64.5841 61.7852 66.5086 63.5009 66.8447 65.7294" stroke="#FF57C6" stroke-width="3.09375" stroke-miterlimit="10" stroke-linecap="round" stroke-linejoin="round"/>
<path d="M56.2829 70.4532C64.1089 70.4532 70.4531 64.109 70.4531 56.283C70.4531 48.457 64.1089 42.1128 56.2829 42.1128C48.4569 42.1128 42.1127 48.457 42.1127 56.283C42.1127 64.109 48.4569 70.4532 56.2829 70.4532Z" stroke="#100730" stroke-width="3.09375" stroke-miterlimit="10" stroke-linecap="round" stroke-linejoin="round"/>
<path d="M36 40.895C38.7033 40.895 40.8949 38.7035 40.8949 36.0001C40.8949 33.2967 38.7033 31.1052 36 31.1052C33.2966 31.1052 31.1051 33.2967 31.1051 36.0001C31.1051 38.7035 33.2966 40.895 36 40.895Z" stroke="#100730" stroke-width="3.09375" stroke-miterlimit="10" stroke-linecap="round" stroke-linejoin="round"/>
<path d="M32.5388 32.5389L25.7358 25.7358" stroke="#100730" stroke-width="3.09375" stroke-miterlimit="10" stroke-linecap="round" stroke-linejoin="round"/>
<path d="M32.5388 39.4612L25.7376 46.2624" stroke="#100730" stroke-width="3.09375" stroke-miterlimit="10" stroke-linecap="round" stroke-linejoin="round"/>
<path d="M39.4612 39.4612L46.2563 46.2563" stroke="#100730" stroke-width="3.09375" stroke-miterlimit="10" stroke-linecap="round" stroke-linejoin="round"/>
<path d="M39.4612 32.5388L46.2612 25.7388" stroke="#100730" stroke-width="3.09375" stroke-miterlimit="10" stroke-linecap="round" stroke-linejoin="round"/>
<path d="M20.9081 56.603C20.9081 59.4701 18.584 61.7851 15.7169 61.7851C12.85 61.7851 10.5258 59.4701 10.5258 56.603C10.5258 53.7361 12.8499 51.4119 15.7169 51.4119C18.584 51.4119 20.9081 53.7361 20.9081 56.603Z" stroke="#FF57C6" stroke-width="3.09375" stroke-miterlimit="10" stroke-linecap="round" stroke-linejoin="round"/>
<path d="M5.15533 65.73C5.48187 63.4905 7.40815 61.7852 9.73816 61.7852H21.6961C24.0184 61.7852 25.9428 63.5009 26.2789 65.7294" stroke="#FF57C6" stroke-width="3.09375" stroke-miterlimit="10" stroke-linecap="round" stroke-linejoin="round"/>
<path d="M15.7171 70.4532C23.5431 70.4532 29.8873 64.109 29.8873 56.283C29.8873 48.457 23.5431 42.1128 15.7171 42.1128C7.8911 42.1128 1.54688 48.457 1.54688 56.283C1.54688 64.109 7.8911 70.4532 15.7171 70.4532Z" stroke="#100730" stroke-width="3.09375" stroke-miterlimit="10" stroke-linecap="round" stroke-linejoin="round"/>
</svg>
