<svg width="72" height="69" viewBox="0 0 72 69" fill="none" xmlns="http://www.w3.org/2000/svg">
<path d="M29.6861 59.4182L28.2296 49.0419C28.1621 48.5611 28.3242 48.0765 28.6677 47.7331L31.3336 45.0671L33.5213 47.2548L31.4006 49.3756L32.7499 58.9883L29.6861 59.4182Z" fill="#FF57C6"/>
<path d="M23.9906 59.4181L20.927 58.9881L22.2763 49.3754L20.1555 47.2546L22.3432 45.0669L25.0092 47.7329C25.3524 48.0763 25.5147 48.5609 25.4472 49.0417L23.9906 59.4181Z" fill="#FF57C6"/>
<path d="M69.5992 43.1044L66.4667 39.9718C66.8537 39.2362 67.0595 38.4132 67.0595 37.5584C67.0595 36.171 66.5193 34.8667 65.5383 33.8857L62.8653 31.2127C61.8843 30.2317 60.58 29.6914 59.1926 29.6914C57.8053 29.6914 56.501 30.2317 55.52 31.2127C54.539 32.1937 53.9987 33.498 53.9987 34.8854C53.9987 36.2728 54.539 37.5771 55.52 38.5581L58.1929 41.231C59.1739 42.212 60.4782 42.7522 61.8656 42.7522C62.7204 42.7522 63.5434 42.5464 64.279 42.1595L66.9586 44.839V59.2031H70.0523V44.1981C70.0522 43.7878 69.8893 43.3945 69.5992 43.1044ZM60.3806 39.0432L57.7077 36.3704C57.311 35.9738 57.0925 35.4463 57.0925 34.8854C57.0925 34.3244 57.311 33.797 57.7077 33.4004C58.1043 33.0037 58.6317 32.7852 59.1927 32.7852C59.7537 32.7852 60.2811 33.0037 60.6777 33.4004L63.3507 36.0734C63.7474 36.47 63.9659 36.9974 63.9659 37.5584C63.9659 38.1193 63.7474 38.6467 63.3507 39.0434C62.9541 39.4401 62.4267 39.6586 61.8657 39.6586C61.3047 39.6586 60.7771 39.4398 60.3806 39.0432Z" fill="#FF57C6"/>
<path d="M26.8581 26.6066C26.0128 26.6066 25.1678 26.347 24.4465 25.8278C23.7533 25.3287 23.5958 24.3621 24.095 23.6686C24.5941 22.9754 25.5607 22.8177 26.2541 23.3171C26.6153 23.5771 27.1008 23.5772 27.4622 23.3171C28.1557 22.818 29.1223 22.9755 29.6214 23.6688C30.1205 24.3621 29.963 25.3289 29.2697 25.8279C28.5484 26.347 27.7031 26.6066 26.8581 26.6066Z" fill="#FF57C6"/>
<path d="M70.4531 57.6562H51.7289V44.8546C51.7289 42.8314 51.0016 40.8731 49.6807 39.3405C48.36 37.808 46.5306 36.7995 44.5296 36.5008L33.1484 34.802V31.5937C36.1924 29.5573 38.2013 26.0892 38.2013 22.1598V16.3762H38.2819C39.1362 16.3762 39.8288 15.6836 39.8288 14.8293V9.4237C39.8288 4.22747 35.6013 0 30.405 0H23.2715C18.0752 0 13.8478 4.22747 13.8478 9.4237V14.8293C13.8478 15.6836 14.5403 16.3762 15.3946 16.3762H15.5147V22.1598C15.5147 26.0724 17.506 29.5286 20.5283 31.5683V34.802L9.14709 36.5008C7.14614 36.7995 5.31675 37.808 3.99586 39.3405C2.67511 40.8731 1.94766 42.8314 1.94766 44.8546V57.6562H1.54688C0.692578 57.6562 0 58.3488 0 59.2031V67.0781C0 67.9324 0.692578 68.625 1.54688 68.625H70.4531C71.3074 68.625 72 67.9324 72 67.0781V59.2031C72 58.3488 71.3074 57.6562 70.4531 57.6562ZM37.7795 38.6213L32.4276 43.9733L29.0265 40.5723L31.861 37.7378L37.7795 38.6213ZM26.8383 38.385L23.622 35.1688V33.0303C24.6482 33.3363 25.7338 33.5032 26.8581 33.5032C27.9681 33.5032 29.04 33.3401 30.0547 33.0415V35.1688L26.8383 38.385ZM16.9417 9.4237C16.9417 5.93339 19.7813 3.09375 23.2716 3.09375H30.4051C33.8955 3.09375 36.7352 5.93339 36.7352 9.4237V13.2825H28.3591C26.8661 13.2825 25.6514 12.0677 25.6514 10.5747C25.6514 9.72042 24.9588 9.02784 24.1045 9.02784C23.2502 9.02784 22.5577 9.72042 22.5577 10.5747C22.5577 12.0677 21.3429 13.2825 19.8499 13.2825H16.9417V9.4237ZM18.6085 22.1598V16.3762H19.8498C21.5291 16.3762 23.0441 15.659 24.1044 14.5149C25.1648 15.6592 26.6797 16.3762 28.359 16.3762H35.1075V22.1598C35.1075 26.7086 31.4068 30.4095 26.858 30.4095C22.3093 30.4095 18.6085 26.7086 18.6085 22.1598ZM21.8159 37.7378L24.6502 40.5721L21.2491 43.9733L15.8972 38.6213L21.8159 37.7378ZM5.04141 44.8546C5.04141 42.2248 7.00284 39.9489 9.60384 39.5606L12.0901 39.1895L20.1552 47.2546C20.4573 47.5567 20.8531 47.7077 21.249 47.7077C21.6449 47.7077 22.0407 47.5567 22.3428 47.2546L26.8381 42.7593L31.3335 47.2546C31.6356 47.5567 32.0314 47.7077 32.4273 47.7077C32.8231 47.7077 33.219 47.5567 33.5211 47.2546L41.5862 39.1894L44.0726 39.5605C46.6736 39.9487 48.6349 42.2246 48.6349 44.8545V57.6562H43.2093V53.1353C43.2093 52.281 42.5167 51.5884 41.6624 51.5884C40.8081 51.5884 40.1155 52.281 40.1155 53.1353V57.6562H13.5609V53.1353C13.5609 52.281 12.8683 51.5884 12.014 51.5884C11.1597 51.5884 10.4671 52.281 10.4671 53.1353V57.6562H5.04141V44.8546ZM68.9062 65.5312H3.09375V60.75H68.9062V65.5312Z" fill="#100730"/>
</svg>
