<svg width="43" height="45" viewBox="0 0 43 45" fill="none" xmlns="http://www.w3.org/2000/svg">
<path d="M20.5348 22.7008C20.517 22.3193 20.4813 21.928 20.4368 21.5318C20.419 21.4046 20.4056 21.2873 20.3878 21.1601C19.7016 21.028 19.011 20.8128 18.3382 20.4607C18.3694 20.6661 18.4006 20.8617 18.4318 21.0623C18.4853 21.4438 18.5343 21.8155 18.5699 22.1823C18.5877 22.334 18.5967 22.4856 18.6011 22.6274C19.2516 22.7742 19.8888 22.9307 20.5036 23.097C20.5125 23.0383 20.5304 22.9747 20.5482 22.9111C20.5482 22.8426 20.5437 22.7742 20.5393 22.7008H20.5348Z" fill="#F9F9F9"/>
<path d="M21.1633 27.0684C21.141 27.1956 21.1232 27.3276 21.1009 27.4548C21.1633 27.3423 21.2123 27.22 21.2658 27.1075C21.2346 27.0977 21.1989 27.0831 21.1633 27.0733V27.0684ZM18.2093 1.96713C18.3741 1.91333 18.5434 1.85953 18.7172 1.81062C18.5434 1.85464 18.3697 1.90844 18.2093 1.96713ZM7.54272 21.693C7.61846 21.6735 7.70312 21.6637 7.78332 21.6588C7.70312 21.6637 7.62292 21.6784 7.54272 21.693ZM7.54272 21.693C7.61846 21.6735 7.70312 21.6637 7.78332 21.6588C7.70312 21.6637 7.62292 21.6784 7.54272 21.693ZM7.54272 21.693C7.61846 21.6735 7.70312 21.6637 7.78332 21.6588C7.70312 21.6637 7.62292 21.6784 7.54272 21.693Z" fill="#F9F9F9"/>
<path d="M41.201 12.2015C40.9381 12.6662 40.6307 13.1113 40.2743 13.5319C39.8064 13.0526 39.3163 12.6173 38.7816 12.226C39.0846 11.864 39.3475 11.4923 39.5658 11.101C40.2564 9.86845 40.4302 8.60165 40.0916 7.23703C39.3698 4.31213 35.4845 3.52466 29.024 3.14804C27.977 3.08935 26.9834 3.06 26.0477 3.06C23.5526 3.06 21.4496 3.27521 19.7609 3.70563C19.2842 3.8328 18.8387 3.96975 18.4287 4.12138C18.3753 3.9991 18.3174 3.8866 18.2639 3.77411C18.2149 3.66161 18.1525 3.5589 18.0901 3.45129C17.8317 3.01109 17.5421 2.63936 17.2658 2.33611C17.2703 2.33122 17.8896 2.07688 18.2104 1.96928C18.3753 1.91548 18.5446 1.86167 18.7184 1.81276C19.0703 1.70516 19.4357 1.60734 19.8189 1.52419C20.2466 1.42636 20.6922 1.34321 21.1644 1.26985C21.4808 1.22094 21.806 1.18181 22.1447 1.14268C22.4744 1.10844 22.813 1.0742 23.1605 1.04486C24.0338 0.97638 24.9695 0.947033 25.9631 0.947033C26.9566 0.947033 28.0082 0.981271 29.1265 1.04486C35.4667 1.41169 40.8089 2.09156 41.9451 6.68433C42.4218 8.61633 42.1679 10.475 41.201 12.2064V12.2015Z" fill="#F9F9F9"/>
<path d="M36.3887 12.4842C36.3887 12.4842 36.3887 12.4886 36.3842 12.4886C36.558 12.5644 36.7362 12.649 36.9055 12.7292C36.7362 12.6401 36.5669 12.5644 36.3887 12.4842ZM36.3887 12.4842C36.3887 12.4842 36.3887 12.4886 36.3842 12.4886C36.558 12.5644 36.7362 12.649 36.9055 12.7292C36.7362 12.6401 36.5669 12.5644 36.3887 12.4842ZM36.3887 12.4842C36.3887 12.4842 36.3887 12.4886 36.3842 12.4886C36.558 12.5644 36.7362 12.649 36.9055 12.7292C36.7362 12.6401 36.5669 12.5644 36.3887 12.4842Z" fill="#F9F9F9"/>
<path d="M24.4666 21.0766C24.3018 21.5951 23.9988 22.7201 23.9988 22.7201C23.9988 22.7201 23.7582 23.6934 23.6513 24.1874C23.1032 23.9477 22.5196 23.7276 21.9181 23.5271C21.8869 23.5173 21.8512 23.5075 21.8245 23.4977C21.8512 23.3755 21.878 23.2532 21.9136 23.1309C21.9359 23.0282 21.9582 22.9206 21.9849 22.8179C22.0473 22.5586 22.1097 22.2994 22.181 22.0402C22.2433 21.7956 22.3057 21.5462 22.377 21.3065C23.1211 21.287 23.8295 21.194 24.4622 21.0766H24.4666Z" fill="#F9F9F9"/>
<path d="M19.9754 40.0772C18.0239 40.762 16.2728 41.1141 15.551 41.2462C14.0094 41.525 12.6728 41.6571 11.5054 41.6571C10.8103 41.6571 10.1687 41.6081 9.58061 41.5201C9.34447 41.4859 9.12169 41.4419 8.89892 41.3929C8.57366 41.3147 8.26177 41.2266 7.97216 41.1239C7.58453 40.987 7.21918 40.8207 6.88056 40.6299C6.71125 40.5321 6.55085 40.4294 6.39045 40.3267C6.23896 40.2191 6.08301 40.1115 5.94044 39.9892C5.79341 39.8669 5.65528 39.7495 5.51716 39.6175C5.37904 39.4903 5.24983 39.3582 5.12062 39.2164C4.99586 39.0794 4.87556 38.9327 4.75972 38.7811C4.63942 38.6343 4.52358 38.4778 4.41219 38.3164C4.3008 38.155 4.19387 37.9936 4.08693 37.8224C3.87752 37.4849 3.68148 37.1279 3.48989 36.7562C1.61411 33.0878 1.40024 29.4048 2.92404 26.8908C3.32058 26.2403 3.8196 25.6827 4.4211 25.2278C4.03792 24.6849 3.66366 24.1126 3.2983 23.5061C2.98641 23.7458 2.69681 24.0099 2.42056 24.2936C2.28244 24.4403 2.15323 24.5822 2.02402 24.7387C1.77005 25.0468 1.53391 25.3696 1.32895 25.7218C-0.600294 28.9108 -0.422073 33.4204 1.81906 37.7931C3.91317 41.8869 6.85382 43.7602 11.5188 43.7602C12.8242 43.7602 14.2589 43.6135 15.8585 43.3249C16.9367 43.1342 18.8259 42.7233 20.8665 41.975C20.5323 41.4223 20.2294 40.7962 19.9709 40.0772H19.9754Z" fill="#F9F9F9"/>
<path d="M29.7499 32.2658C29.7499 35.6993 27.7761 38.1107 25.2676 39.7981C24.8087 39.3188 24.4834 38.7025 24.2607 38.0079C26.279 36.6482 27.8296 34.7798 27.8296 32.2658C27.8296 30.0305 26.8048 28.2991 24.5325 26.9491C24.1448 26.7143 23.7171 26.4893 23.2493 26.279C22.777 26.0638 22.2601 25.8633 21.7076 25.6725C21.6096 25.6383 21.5161 25.604 21.418 25.5698L20.0814 25.1687C19.5868 25.0318 19.0655 24.8997 18.5175 24.7725C18.0853 24.6747 17.6397 24.5818 17.1719 24.4889C15.7149 24.2003 14.0931 23.9411 12.302 23.7161C11.549 23.6182 10.8317 23.5791 10.1455 23.5791C9.86036 23.5791 9.57966 23.584 9.30787 23.6036C8.71529 23.6378 8.14943 23.7112 7.61922 23.8335C7.39645 23.5547 7.18704 23.2808 7.00436 23.0215C6.88406 22.8552 6.77267 22.6889 6.67465 22.5471C6.63455 22.4884 6.54989 22.3563 6.46524 22.2292C6.42514 22.1705 6.3895 22.1069 6.36276 22.0678C6.33603 22.0237 6.31821 21.9944 6.31821 21.9944C6.63455 21.8966 6.96426 21.8134 7.30734 21.74C7.38308 21.7303 7.45882 21.7107 7.54348 21.696C7.61922 21.6765 7.70388 21.6667 7.78408 21.6618C8.52815 21.5297 9.32124 21.471 10.15 21.471C10.9119 21.471 11.7005 21.5248 12.5248 21.6276C14.1199 21.833 15.6927 22.0629 17.2075 22.3514C17.6798 22.4395 18.1432 22.5324 18.6021 22.6351C19.2526 22.7819 19.8898 22.9384 20.5046 23.1047L21.8324 23.5057C21.8591 23.5155 21.8948 23.5253 21.926 23.5351C22.5275 23.7405 23.1111 23.9557 23.6592 24.1954C24.1047 24.3861 24.5325 24.5916 24.9379 24.8117C27.8741 26.4013 29.7543 28.7246 29.7543 32.2706L29.7499 32.2658Z" fill="#F9F9F9"/>
<path d="M7.97284 41.12C8.26245 41.218 8.57434 41.3027 8.89959 41.365C8.57434 41.2938 8.26245 41.2136 7.97284 41.12ZM7.97284 41.12C8.26245 41.218 8.57434 41.3027 8.89959 41.365C8.57434 41.2938 8.26245 41.2136 7.97284 41.12ZM7.97284 41.12C8.26245 41.218 8.57434 41.3027 8.89959 41.365C8.57434 41.2938 8.26245 41.2136 7.97284 41.12ZM7.97284 41.12C8.26245 41.218 8.57434 41.3027 8.89959 41.365C8.57434 41.2938 8.26245 41.2136 7.97284 41.12ZM7.97284 41.12C8.26245 41.218 8.57434 41.3027 8.89959 41.365C8.57434 41.2938 8.26245 41.2136 7.97284 41.12ZM7.97284 41.12C8.26245 41.218 8.57434 41.3027 8.89959 41.365C8.57434 41.2938 8.26245 41.2136 7.97284 41.12ZM7.97284 41.12C8.26245 41.218 8.57434 41.3027 8.89959 41.365C8.57434 41.2938 8.26245 41.2136 7.97284 41.12ZM7.97284 41.12C8.26245 41.218 8.57434 41.3027 8.89959 41.365C8.57434 41.2938 8.26245 41.2136 7.97284 41.12ZM7.97284 41.12C8.26245 41.218 8.57434 41.3027 8.89959 41.365C8.57434 41.2938 8.26245 41.2136 7.97284 41.12ZM7.97284 41.12C8.26245 41.218 8.57434 41.3027 8.89959 41.365C8.57434 41.2938 8.26245 41.2136 7.97284 41.12ZM7.97284 41.12C8.26245 41.218 8.57434 41.3027 8.89959 41.365C8.57434 41.2938 8.26245 41.2136 7.97284 41.12ZM7.97284 41.12C8.26245 41.218 8.57434 41.3027 8.89959 41.365C8.57434 41.2938 8.26245 41.2136 7.97284 41.12ZM7.97284 41.12C8.26245 41.218 8.57434 41.3027 8.89959 41.365C8.57434 41.2938 8.26245 41.2136 7.97284 41.12ZM7.97284 41.12C8.26245 41.218 8.57434 41.3027 8.89959 41.365C8.57434 41.2938 8.26245 41.2136 7.97284 41.12ZM7.97284 41.12C8.26245 41.218 8.57434 41.3027 8.89959 41.365C8.57434 41.2938 8.26245 41.2136 7.97284 41.12ZM7.97284 41.12C8.26245 41.218 8.57434 41.3027 8.89959 41.365C8.57434 41.2938 8.26245 41.2136 7.97284 41.12ZM7.97284 41.12C8.26245 41.218 8.57434 41.3027 8.89959 41.365C8.57434 41.2938 8.26245 41.2136 7.97284 41.12ZM7.97284 41.12C8.26245 41.218 8.57434 41.3027 8.89959 41.365C8.57434 41.2938 8.26245 41.2136 7.97284 41.12ZM7.97284 41.12C8.26245 41.218 8.57434 41.3027 8.89959 41.365C8.57434 41.2938 8.26245 41.2136 7.97284 41.12ZM7.97284 41.12C8.26245 41.218 8.57434 41.3027 8.89959 41.365C8.57434 41.2938 8.26245 41.2136 7.97284 41.12ZM7.97284 41.12C8.26245 41.218 8.57434 41.3027 8.89959 41.365C8.57434 41.2938 8.26245 41.2136 7.97284 41.12ZM7.97284 41.12C8.26245 41.218 8.57434 41.3027 8.89959 41.365C8.57434 41.2938 8.26245 41.2136 7.97284 41.12ZM7.97284 41.12C8.26245 41.218 8.57434 41.3027 8.89959 41.365C8.57434 41.2938 8.26245 41.2136 7.97284 41.12ZM7.97284 41.12C8.26245 41.218 8.57434 41.3027 8.89959 41.365C8.57434 41.2938 8.26245 41.2136 7.97284 41.12ZM7.97284 41.12C8.26245 41.218 8.57434 41.3027 8.89959 41.365C8.57434 41.2938 8.26245 41.2136 7.97284 41.12ZM7.97284 41.12C8.26245 41.218 8.57434 41.3027 8.89959 41.365C8.57434 41.2938 8.26245 41.2136 7.97284 41.12Z" fill="#F9F9F9"/>
<path d="M19.9223 26.686C19.8822 26.7741 19.6862 27.136 19.6327 27.2289C18.7773 28.6082 17.3738 29.4544 15.3421 29.8261C14.9321 29.9044 14.5267 29.9386 14.1123 29.9386C11.7375 29.9386 9.3449 28.706 7.12604 26.3192C6.8498 26.0257 6.57355 25.6882 6.57355 25.6882C6.19038 25.2236 5.87849 24.8176 5.64235 24.485C5.45076 24.2404 5.25471 23.9665 5.04976 23.6682C4.83589 23.3503 3.98934 21.8976 3.7532 21.4574C1.37394 17.0749 -0.305798 11.5724 0.206589 7.63996C0.473921 5.57101 1.50315 3.7564 3.17398 2.40156C4.02053 1.7168 5.0052 1.16899 6.0879 0.777701C6.19929 0.733681 6.30622 0.699443 6.41761 0.665205C6.77851 0.538036 7.15277 0.435322 7.53595 0.347282C7.84338 0.273915 8.15082 0.215221 8.46716 0.16631C9.17559 0.0538139 9.90184 1.14441e-05 10.6504 1.14441e-05C11.488 1.14441e-05 12.3435 0.0733784 13.1989 0.215221C14.344 0.415757 15.2841 0.77281 16.046 1.26681C16.046 1.26681 16.6252 1.62387 17.2668 2.33308C17.5431 2.63633 17.8327 3.00806 18.0911 3.44826C18.1535 3.55586 18.2114 3.66347 18.2649 3.77107C18.3184 3.88357 18.3763 4.00096 18.4297 4.11834C18.452 4.17214 18.4743 4.22595 18.4966 4.27486C18.6659 4.67104 18.804 5.08679 18.9154 5.5221C19.459 7.64974 19.3699 10.0317 19.2986 11.9637C19.2585 13.1082 19.2228 14.1892 19.3164 14.9522C19.41 15.6614 19.5392 16.4195 19.6817 17.1728C18.8798 16.7326 18.0688 15.9695 17.3604 14.6489C17.3114 13.8223 17.3426 12.8784 17.3827 11.8806C17.454 9.85075 17.4629 8.01168 17.1421 6.48565C17.0307 5.95741 16.8792 5.4634 16.6832 5.01831C16.2733 4.3042 15.8455 3.79553 15.3955 3.41891C14.9767 3.06186 14.5445 2.8173 14.0856 2.61187C13.7292 2.47981 13.3415 2.37221 12.9049 2.29884C12.1385 2.16678 11.3766 2.09831 10.6281 2.09831C9.83947 2.09831 9.06866 2.17167 8.33349 2.31352C8.07062 2.36243 7.81219 2.42112 7.55823 2.49449C6.32404 2.82708 5.21016 3.37489 4.31014 4.10367C3.05813 5.11613 2.29624 6.44163 2.10019 7.9432C1.71256 10.961 3.0715 16.263 5.52205 20.665C5.77601 21.115 6.03889 21.5601 6.31513 21.9905C6.31513 21.9905 6.33296 22.0199 6.35969 22.0639C6.38642 22.1128 6.42207 22.1666 6.46217 22.2253C6.54237 22.3525 6.63148 22.4845 6.67158 22.5432C6.7696 22.69 6.88099 22.8514 7.00129 23.0177C7.18396 23.2769 7.38892 23.5557 7.61615 23.8296C7.99487 24.2991 8.35577 24.6904 8.46716 24.8127C8.57855 24.935 8.92608 25.2871 8.99291 25.3556C9.18005 25.5317 9.37609 25.7127 9.58104 25.8839C10.1959 26.4072 10.8954 26.8963 11.6618 27.2485C11.9157 27.3708 12.1697 27.4735 12.4415 27.5566C12.9717 27.7229 13.5376 27.8256 14.1212 27.8256C14.4153 27.8256 14.7227 27.7963 15.0302 27.7425C16.4337 27.4882 17.3961 26.9697 17.9485 26.1822C18.6302 26.3339 19.254 26.4904 19.8288 26.6567C19.86 26.6616 19.8912 26.6664 19.9223 26.6811V26.686Z" fill="#F9F9F9"/>
<path d="M21.1658 27.0669C21.1435 27.1827 21.1257 27.303 21.1034 27.4189C21.1658 27.3164 21.2148 27.205 21.2683 27.1025C21.2371 27.0936 21.2014 27.0802 21.1658 27.0713V27.0669ZM21.1658 27.0669C21.1435 27.1827 21.1257 27.303 21.1034 27.4189C21.1658 27.3164 21.2148 27.205 21.2683 27.1025C21.2371 27.0936 21.2014 27.0802 21.1658 27.0713V27.0669Z" fill="#F9F9F9"/>
<path d="M42.3166 27.7683C41.381 33.8431 38.3022 39.37 34.0917 42.5541C32.5278 43.7329 30.3401 44.5448 28.1747 44.5448C26.8247 44.5448 25.488 44.2318 24.3118 43.4981C23.9464 43.2683 23.5588 42.9797 23.1934 42.6177C22.8548 42.2949 22.5251 41.9036 22.2177 41.439C21.8657 40.9156 21.5493 40.2993 21.2865 39.5706C21.1261 39.1353 20.9835 38.6608 20.8632 38.1375C20.5513 36.7582 20.4087 35.0707 20.5246 33.0116C20.5424 32.7866 20.6671 30.4486 21.1127 27.4503C21.1751 27.3379 21.2241 27.2156 21.2776 27.1031C21.937 27.333 22.5073 27.5628 23.0108 27.8025C22.5741 30.7665 22.4405 33.0898 22.4405 33.1387C22.3513 34.699 22.4226 36.0783 22.6543 37.2668C22.7523 37.7951 22.886 38.2842 23.0509 38.7342C23.3048 39.4385 23.6301 40.045 24.0311 40.5537C24.3563 40.9694 24.7351 41.3167 25.1539 41.5955C25.1851 41.6199 25.2207 41.6444 25.2564 41.6689C26.1296 42.2118 27.141 42.4417 28.1703 42.4417C29.9302 42.4417 31.7481 41.7667 33.009 40.8178C36.8007 37.9565 39.572 32.9431 40.4275 27.4161C41.0512 23.3565 40.5166 19.6783 38.9482 17.3306C38.8725 17.2181 38.7878 17.1007 38.7076 16.9882C38.418 16.5921 38.0883 16.2252 37.7363 15.8877C37.2061 15.3888 36.6046 14.9535 35.9764 14.616C35.4328 14.3226 34.858 14.0927 34.2699 13.9313C33.6461 13.7699 32.9956 13.6769 32.3496 13.6769H32.2471C29.8768 13.7112 27.8005 14.8802 26.348 16.9687C26.1876 17.0127 26.0316 17.0469 25.8712 17.0812C25.6796 17.1252 25.4747 17.1692 25.2519 17.2279C24.7796 17.3404 24.2806 17.4627 23.7593 17.5507C23.9999 17.0323 24.2628 16.5529 24.5435 16.1078C26.3391 13.271 29.1327 11.6178 32.2204 11.5689H32.3407C33.5481 11.5689 34.7333 11.8036 35.8338 12.2487C36.0209 12.327 36.2081 12.4052 36.3952 12.4933C36.569 12.5764 36.7472 12.6694 36.9165 12.7574C37.2017 12.9139 37.4824 13.09 37.7497 13.2808C38.3022 13.6525 38.819 14.0927 39.2958 14.5916C39.3047 14.5916 39.3136 14.5965 39.318 14.6111C39.3893 14.6845 39.4606 14.7628 39.5319 14.841C39.6032 14.9144 39.6745 14.9975 39.7413 15.0758C39.9151 15.2763 40.0755 15.4867 40.2314 15.697C40.3294 15.8241 40.4186 15.9513 40.5077 16.0834C42.379 18.8909 43.0429 23.1462 42.33 27.7683H42.3166Z" fill="#F9F9F9"/>
<path d="M37.7313 15.8813C37.3259 16.1748 36.9071 16.4487 36.4793 16.7128C32.3312 19.2611 27.3054 20.4447 26.5078 20.6208C26.3653 20.6501 26.2138 20.6893 26.0489 20.7284C26.0177 20.7333 25.9821 20.748 25.9509 20.7528C25.5321 20.8556 25.0286 20.9778 24.4717 21.0757C23.839 21.1882 23.135 21.286 22.3865 21.3055C22.2973 21.3104 22.2038 21.3104 22.1102 21.3104C22.0077 21.3104 21.9008 21.3104 21.7939 21.3055C21.5176 21.3007 21.2458 21.2762 20.9651 21.2371C20.7736 21.2175 20.582 21.1882 20.3904 21.1539C19.7042 21.0219 19.0136 20.8067 18.3408 20.4545C17.7928 20.1855 17.2626 19.8284 16.7457 19.3784C15.4403 18.229 14.2596 16.4633 13.3907 13.783C12.21 10.1538 12.3481 7.22891 13.8095 5.07682C13.9744 4.83226 14.1615 4.59749 14.362 4.3725C14.9323 4.73933 15.3333 5.26268 15.5962 5.99635C15.5071 6.10395 15.4224 6.22134 15.3423 6.33384C14.2952 7.87943 14.2462 10.144 15.1997 13.0689C15.2977 13.3819 15.4091 13.6754 15.516 13.9591C15.623 14.2428 15.7388 14.5118 15.8546 14.7661C15.9081 14.8884 15.966 15.0009 16.0239 15.1134C16.0239 15.1183 16.0284 15.133 16.0329 15.1378C16.1532 15.3775 16.2779 15.6074 16.4071 15.8226C16.5408 16.0329 16.6655 16.2383 16.8037 16.4291C16.8705 16.5171 16.9373 16.615 17.0086 16.7079C17.1467 16.884 17.2849 17.0503 17.4274 17.2068C17.5522 17.3437 17.6814 17.4709 17.8106 17.5932C18.5146 18.2486 19.2587 18.6643 20.0206 18.9138C20.5018 19.0654 20.9874 19.1535 21.4686 19.1926C21.5087 19.1975 21.9142 19.217 22.0701 19.217C22.4087 19.217 22.7518 19.1975 23.0771 19.1632C24.0038 19.0605 26.1915 18.5567 27.1539 18.3024C28.994 17.8182 31.3064 17.0552 33.4718 16.0085C33.7882 15.852 34.1045 15.6954 34.4164 15.534C34.9555 15.2406 35.4768 14.9373 35.9759 14.6047C36.6085 14.9422 37.2056 15.3775 37.7358 15.8764L37.7313 15.8813Z" fill="#F9F9F9"/>
</svg>
