<svg width="40" height="40" viewBox="0 0 40 40" fill="none" xmlns="http://www.w3.org/2000/svg">
<g clip-path="url(#clip0_4_696)">
<path d="M4.36401 34.5191V15.6481H7.71589" stroke="#100730" stroke-width="1.71875" stroke-miterlimit="10" stroke-linecap="round" stroke-linejoin="round"/>
<path d="M33.285 15.6481H35.636V34.3092" stroke="#100730" stroke-width="1.71875" stroke-miterlimit="10" stroke-linecap="round" stroke-linejoin="round"/>
<path d="M33.9415 39.1406H6.0585C3.50615 39.1406 1.43701 37.0716 1.43701 34.5192H38.5629C38.5629 37.0716 36.4938 39.1406 33.9415 39.1406Z" stroke="#100730" stroke-width="1.71875" stroke-miterlimit="10" stroke-linecap="round" stroke-linejoin="round"/>
<path d="M28.5401 15.6481V24.262C25.543 24.262 22.8157 22.6873 21.3357 20.3206H12.7336C10.153 20.3206 8.06116 18.2286 8.06116 15.6481C8.06116 13.0676 10.153 10.9757 12.7336 10.9757H21.3357C22.8157 8.60891 25.543 7.0343 28.5401 7.0343V15.6481Z" stroke="#FF57C6" stroke-width="1.71875" stroke-miterlimit="10" stroke-linecap="round" stroke-linejoin="round"/>
<path d="M14.0883 10.9965V20.3164" stroke="#FF57C6" stroke-width="1.71875" stroke-miterlimit="10" stroke-linecap="round" stroke-linejoin="round"/>
<path d="M21.3142 10.9806V20.3027" stroke="#FF57C6" stroke-width="1.71875" stroke-miterlimit="10" stroke-linecap="round" stroke-linejoin="round"/>
<path d="M28.5489 12.4131H29.628C31.4147 12.4131 32.863 13.8614 32.863 15.6482C32.863 17.4348 31.4913 18.8832 29.7047 18.8832H28.5488" stroke="#FF57C6" stroke-width="1.71875" stroke-miterlimit="10" stroke-linecap="round" stroke-linejoin="round"/>
<path d="M17.1671 20.3163L18.1777 23.1591C18.7324 24.8045 17.5084 26.5086 15.7721 26.5086H14.4627L12.3557 20.2891" stroke="#FF57C6" stroke-width="1.71875" stroke-miterlimit="10" stroke-linecap="round" stroke-linejoin="round"/>
<path d="M7.83008 29.8977H10.1409" stroke="#100730" stroke-width="1.71875" stroke-miterlimit="10" stroke-linecap="round" stroke-linejoin="round"/>
<path d="M19.923 29.8977H32.0929" stroke="#100730" stroke-width="1.71875" stroke-miterlimit="10" stroke-linecap="round" stroke-linejoin="round"/>
<path d="M4.44104 2.93909L6.13518 5.86604" stroke="#FF57C6" stroke-width="1.71875" stroke-miterlimit="10" stroke-linecap="round" stroke-linejoin="round"/>
<path d="M35.559 2.93909L33.8649 5.86604" stroke="#FF57C6" stroke-width="1.71875" stroke-miterlimit="10" stroke-linecap="round" stroke-linejoin="round"/>
<path d="M20 0.859375V4.09445" stroke="#FF57C6" stroke-width="1.71875" stroke-miterlimit="10" stroke-linecap="round" stroke-linejoin="round"/>
</g>
<defs>
<clipPath id="clip0_4_696">
<rect width="40" height="40" fill="white"/>
</clipPath>
</defs>
</svg>
