<svg width="40" height="40" viewBox="0 0 40 40" fill="none" xmlns="http://www.w3.org/2000/svg">
<g clip-path="url(#clip0_4_526)">
<path d="M23.2277 16.7233C23.2277 18.2661 21.9768 19.5168 20.4338 19.5168C19.6685 19.5168 16.9066 19.5292 16.9066 19.5292C16.9066 19.5292 16.9066 17.5011 16.9066 16.7233C16.9066 16.0847 16.9066 13.9298 16.9066 13.9298C16.9066 13.9298 19.5295 13.9298 20.4338 13.9298C21.9769 13.9298 23.2277 15.1805 23.2277 16.7233Z" stroke="#FF57C6" stroke-width="1.71875" stroke-miterlimit="10" stroke-linecap="round" stroke-linejoin="round"/>
<path d="M24.3181 22.788C24.3181 24.5927 22.8548 26.0558 21.0498 26.0558C20.1545 26.0558 16.9067 26.0702 16.9067 26.0702C16.9067 26.0702 16.9067 23.6977 16.9067 22.788C16.9067 22.0408 16.9067 19.5201 16.9067 19.5201C16.9067 19.5201 19.992 19.5201 21.0498 19.5201C22.8548 19.5202 24.3181 20.9833 24.3181 22.788Z" stroke="#FF57C6" stroke-width="1.71875" stroke-miterlimit="10" stroke-linecap="round" stroke-linejoin="round"/>
<path d="M17.7529 13.9298H15.6819" stroke="#FF57C6" stroke-width="1.71875" stroke-miterlimit="10" stroke-linecap="round" stroke-linejoin="round"/>
<path d="M17.7529 26.0702H15.6819" stroke="#FF57C6" stroke-width="1.71875" stroke-miterlimit="10" stroke-linecap="round" stroke-linejoin="round"/>
<path d="M16.9066 12.7191V14.4471" stroke="#FF57C6" stroke-width="1.71875" stroke-miterlimit="10" stroke-linecap="round" stroke-linejoin="round"/>
<path d="M20.0885 12.7191V13.6879" stroke="#FF57C6" stroke-width="1.71875" stroke-miterlimit="10" stroke-linecap="round" stroke-linejoin="round"/>
<path d="M16.9066 25.553V27.2809" stroke="#FF57C6" stroke-width="1.71875" stroke-miterlimit="10" stroke-linecap="round" stroke-linejoin="round"/>
<path d="M20.0885 26.417V27.281" stroke="#FF57C6" stroke-width="1.71875" stroke-miterlimit="10" stroke-linecap="round" stroke-linejoin="round"/>
<path d="M20 3.71497V4.12583" stroke="#100730" stroke-width="1.71875" stroke-miterlimit="10" stroke-linecap="round" stroke-linejoin="round"/>
<path d="M20 35.8743V36.2851" stroke="#100730" stroke-width="1.71875" stroke-miterlimit="10" stroke-linecap="round" stroke-linejoin="round"/>
<path d="M36.288 20H35.8771" stroke="#100730" stroke-width="1.71875" stroke-miterlimit="10" stroke-linecap="round" stroke-linejoin="round"/>
<path d="M4.12288 20H3.71194" stroke="#100730" stroke-width="1.71875" stroke-miterlimit="10" stroke-linecap="round" stroke-linejoin="round"/>
<path d="M31.5174 8.48474L31.2268 8.77529" stroke="#100730" stroke-width="1.71875" stroke-miterlimit="10" stroke-linecap="round" stroke-linejoin="round"/>
<path d="M8.7732 31.2247L8.48257 31.5153" stroke="#100730" stroke-width="1.71875" stroke-miterlimit="10" stroke-linecap="round" stroke-linejoin="round"/>
<path d="M31.5174 31.5153L31.2268 31.2247" stroke="#100730" stroke-width="1.71875" stroke-miterlimit="10" stroke-linecap="round" stroke-linejoin="round"/>
<path d="M8.7732 8.77529L8.48257 8.48474" stroke="#100730" stroke-width="1.71875" stroke-miterlimit="10" stroke-linecap="round" stroke-linejoin="round"/>
<path d="M20 39.1371C30.5711 39.1371 39.1406 30.5692 39.1406 20C39.1406 9.43089 30.5711 0.862915 20 0.862915C9.42892 0.862915 0.859375 9.43089 0.859375 20C0.859375 30.5692 9.42892 39.1371 20 39.1371Z" stroke="#100730" stroke-width="1.71875" stroke-miterlimit="10" stroke-linecap="round" stroke-linejoin="round"/>
<path d="M20 32.816C27.0794 32.816 32.8184 27.0781 32.8184 20C32.8184 12.9219 27.0794 7.18396 20 7.18396C12.9206 7.18396 7.18164 12.9219 7.18164 20C7.18164 27.0781 12.9206 32.816 20 32.816Z" stroke="#100730" stroke-width="1.71875" stroke-miterlimit="10" stroke-linecap="round" stroke-linejoin="round"/>
</g>
<defs>
<clipPath id="clip0_4_526">
<rect width="40" height="40" fill="white"/>
</clipPath>
</defs>
</svg>
