<svg width="40" height="40" viewBox="0 0 40 40" fill="none" xmlns="http://www.w3.org/2000/svg">
<g clip-path="url(#clip0_4_817)">
<path d="M15.9198 16.25H4.29688C2.39836 16.25 0.859375 17.789 0.859375 19.6875V31.875C0.859375 33.7735 2.39836 35.3125 4.29688 35.3125V39.1406L8.15969 35.3125H20.3125C22.211 35.3125 23.75 33.7735 23.75 31.875V24.0802" stroke="#FF57C6" stroke-width="1.71875" stroke-miterlimit="10" stroke-linejoin="round"/>
<path d="M25.9739 18.5131C27.5272 18.5131 28.7864 17.2539 28.7864 15.7006C28.7864 14.1473 27.5272 12.8881 25.9739 12.8881C24.4206 12.8881 23.1614 14.1473 23.1614 15.7006C23.1614 17.2539 24.4206 18.5131 25.9739 18.5131Z" stroke="#FF57C6" stroke-width="1.71875" stroke-miterlimit="10" stroke-linecap="round" stroke-linejoin="round"/>
<path d="M28.7864 15.7005V6.95569L31.3698 9.53913" stroke="#FF57C6" stroke-width="1.71875" stroke-miterlimit="10" stroke-linecap="round" stroke-linejoin="round"/>
<path d="M16.3826 24.4408L10.6152 21.1109C9.5833 20.5152 8.29346 21.2598 8.29346 22.4514V29.1111C8.29346 30.3026 9.5833 31.0473 10.6152 30.4516L16.3826 27.1217C17.4145 26.5259 17.4145 25.0366 16.3826 24.4408Z" stroke="#100730" stroke-width="1.71875" stroke-miterlimit="10" stroke-linejoin="round"/>
<path d="M39.1406 12.7344C39.1406 6.17602 33.824 0.859375 27.2656 0.859375C20.7073 0.859375 15.3906 6.17602 15.3906 12.7344C15.3906 19.2927 20.7073 24.6094 27.2656 24.6094C28.9024 24.6094 30.4619 24.2781 31.8807 23.6791L35.2344 27.0027V21.5384C37.6334 19.3656 39.1406 16.2261 39.1406 12.7344Z" stroke="#100730" stroke-width="1.71875" stroke-miterlimit="10" stroke-linejoin="round"/>
</g>
<defs>
<clipPath id="clip0_4_817">
<rect width="40" height="40" fill="white"/>
</clipPath>
</defs>
</svg>
