<svg width="40" height="40" viewBox="0 0 40 40" fill="none" xmlns="http://www.w3.org/2000/svg">
<path d="M18.0469 25.0014V32.7425C18.0469 33.7204 17.2467 34.5205 16.2688 34.5205H2.63742C1.65945 34.5205 0.859375 33.7204 0.859375 32.7425V7.25754C0.859375 6.27957 1.65945 5.47949 2.63742 5.47949H16.2689C17.2469 5.47949 18.047 6.27965 18.047 7.25754V13.9913" stroke="#100730" stroke-width="1.71875" stroke-miterlimit="22.9256" stroke-linecap="round" stroke-linejoin="round"/>
<path d="M13.3438 5.87801L12.3048 8.99512H6.6014L5.55164 5.84583" stroke="#100730" stroke-width="1.71875" stroke-miterlimit="22.9256" stroke-linecap="round" stroke-linejoin="round"/>
<path d="M21.9531 13.9913V7.25754C21.9531 6.27957 22.7531 5.47949 23.7311 5.47949H37.3626C38.3405 5.47949 39.1406 6.27965 39.1406 7.25754V32.7425C39.1406 33.7204 38.3405 34.5205 37.3626 34.5205H23.7311C22.7532 34.5205 21.9531 33.7204 21.9531 32.7425V25.0014" stroke="#100730" stroke-width="1.71875" stroke-miterlimit="22.9256" stroke-linecap="round" stroke-linejoin="round"/>
<path d="M34.4376 5.87801L33.3985 8.99512H27.6951L26.6454 5.84583" stroke="#100730" stroke-width="1.71875" stroke-miterlimit="22.9256" stroke-linecap="round" stroke-linejoin="round"/>
<path d="M10.625 31.0048H8.28125" stroke="#FF57C6" stroke-width="1.71875" stroke-miterlimit="22.9256" stroke-linecap="round" stroke-linejoin="round"/>
<path fill-rule="evenodd" clip-rule="evenodd" d="M25.4094 20.8637C28.3214 15.8199 22.9664 12.4681 20 15.4345C17.0335 12.4681 11.6785 15.8198 14.5905 20.8637C15.9308 23.185 18.6338 25.3132 20 25.6793C21.3662 25.3132 24.0692 23.185 25.4094 20.8637Z" stroke="#FF57C6" stroke-width="1.71875" stroke-miterlimit="22.9256" stroke-linecap="round" stroke-linejoin="round"/>
<path d="M31.7187 31.0048H29.375" stroke="#FF57C6" stroke-width="1.71875" stroke-miterlimit="22.9256" stroke-linecap="round" stroke-linejoin="round"/>
</svg>
