<svg width="40" height="40" viewBox="0 0 40 40" fill="none" xmlns="http://www.w3.org/2000/svg">
<g clip-path="url(#clip0_4_793)">
<path d="M5.10168 29.9986L7.59311 24.3367L8.57626 28.5456L9.82424 26.631L10.5518 28.5456H12.837" stroke="#100730" stroke-width="1.71866" stroke-miterlimit="10" stroke-linecap="round" stroke-linejoin="round"/>
<path d="M27.7291 14.7107V7.23337L21.3544 0.859497H0.859314V35.7014H15.0207" stroke="#100730" stroke-width="1.71866" stroke-miterlimit="10" stroke-linejoin="round"/>
<path d="M27.7291 35.1612V28.9896" stroke="#100730" stroke-width="1.71866" stroke-miterlimit="10" stroke-linejoin="round"/>
<path d="M21.0243 0.859497V7.56335H27.7291" stroke="#100730" stroke-width="1.71866" stroke-miterlimit="10" stroke-linejoin="round"/>
<path d="M14.3337 39.1387V37.5702C14.3337 36.0203 15.5901 34.7639 17.1399 34.7639H26.2587C27.8085 34.7639 29.0649 36.0203 29.0649 37.5702V39.1387H14.3337Z" stroke="#100730" stroke-width="1.71866" stroke-miterlimit="10" stroke-linejoin="round"/>
<path d="M30.1175 21.9728L23.9146 28.1756" stroke="#100730" stroke-width="1.71866" stroke-miterlimit="10" stroke-linejoin="round"/>
<path d="M25.5553 26.535L34.3985 36.3008C35.4432 37.4545 37.2408 37.499 38.3413 36.3985C39.4419 35.2979 39.3973 33.5004 38.2436 32.4557L28.4778 23.6124" stroke="#100730" stroke-width="1.71866" stroke-miterlimit="10" stroke-linejoin="round"/>
<path d="M18.5978 22.859L24.8008 16.656" stroke="#100730" stroke-width="1.71866" stroke-miterlimit="10" stroke-linejoin="round"/>
<path d="M32.6907 19.6723L27.1012 14.0828C26.6702 13.6518 25.9715 13.6518 25.5405 14.0828L24.6644 14.9589C24.2334 15.3899 24.2334 16.0886 24.6644 16.5196L30.2539 22.1091C30.6849 22.5401 31.3836 22.5401 31.8146 22.1091L32.6907 21.233C33.1217 20.802 33.1217 20.1033 32.6907 19.6723Z" stroke="#100730" stroke-width="1.71866" stroke-miterlimit="10" stroke-linejoin="round"/>
<path d="M24.051 28.3121L18.4614 22.7225C18.0304 22.2915 17.3317 22.2915 16.9007 22.7225L16.0246 23.5987C15.5936 24.0297 15.5936 24.7284 16.0246 25.1594L21.6141 30.7489C22.0451 31.1799 22.7438 31.1799 23.1748 30.7489L24.051 29.8728C24.482 29.4418 24.482 28.7431 24.051 28.3121Z" stroke="#100730" stroke-width="1.71866" stroke-miterlimit="10" stroke-linejoin="round"/>
<path d="M5.10168 16.1711H20.1009" stroke="#FF57C6" stroke-width="1.71866" stroke-miterlimit="10" stroke-linecap="round" stroke-linejoin="round"/>
<path d="M5.10168 19.9209H12.6013" stroke="#FF57C6" stroke-width="1.71866" stroke-miterlimit="10" stroke-linecap="round" stroke-linejoin="round"/>
<path d="M5.10168 12.4214H20.1009" stroke="#FF57C6" stroke-width="1.71866" stroke-miterlimit="10" stroke-linecap="round" stroke-linejoin="round"/>
<path d="M16.7721 5.23425H5.10168V8.67157H16.7721V5.23425Z" stroke="#FF57C6" stroke-width="1.71866" stroke-miterlimit="10" stroke-linecap="round" stroke-linejoin="round"/>
</g>
<defs>
<clipPath id="clip0_4_793">
<rect width="39.998" height="39.998" fill="white"/>
</clipPath>
</defs>
</svg>
