<svg width="40" height="40" viewBox="0 0 40 40" fill="none" xmlns="http://www.w3.org/2000/svg">
<path d="M22.8619 20.0468C22.8758 19.585 22.8833 19.1179 22.8833 18.6459C22.8833 9.65598 20.3106 2.36816 17.1372 2.36816C13.9637 2.36816 11.3911 9.65598 11.3911 18.6459C11.3911 27.1619 13.6997 34.1493 16.6407 34.8625" stroke="#100730" stroke-width="1.71875" stroke-miterlimit="10" stroke-linejoin="round"/>
<path d="M17.6872 24.0719H1.78662" stroke="#100730" stroke-width="1.71875" stroke-miterlimit="10" stroke-linejoin="round"/>
<path d="M32.4237 13.22H1.78662" stroke="#100730" stroke-width="1.71875" stroke-miterlimit="10" stroke-linejoin="round"/>
<path d="M33.3542 20.0468C33.3936 19.585 33.4148 19.1179 33.4148 18.6459C33.4148 9.65598 26.127 2.36816 17.1371 2.36816C8.14719 2.36816 0.859375 9.65598 0.859375 18.6459C0.859375 27.4698 7.88063 34.653 16.6409 34.9154" stroke="#100730" stroke-width="1.71875" stroke-miterlimit="10" stroke-linejoin="round"/>
<path d="M26.525 28.7047H31.1547L32.0892 24.9547H25.5906L26.525 28.7047Z" stroke="#100730" stroke-width="1.71875" stroke-miterlimit="10" stroke-linecap="round" stroke-linejoin="round"/>
<path d="M26.5251 28.7048L25.2241 23.4844H23.692" stroke="#100730" stroke-width="1.71875" stroke-miterlimit="10" stroke-linecap="round" stroke-linejoin="round"/>
<circle cx="30.4934" cy="30.0305" r="0.859375" fill="#100730"/>
<circle cx="27.1865" cy="30.0305" r="0.859375" fill="#100730"/>
<path d="M36.4141 37.6318H19.3672C17.8613 37.6318 16.6406 36.4111 16.6406 34.9053V33.2568H39.1406V34.9053C39.1406 36.4111 37.9199 37.6318 36.4141 37.6318Z" stroke="#FF57C6" stroke-width="1.71875" stroke-miterlimit="10" stroke-linejoin="round"/>
<path d="M17.6871 33.2568V22.5227C17.6871 21.1554 18.7956 20.047 20.1628 20.047H35.6184C36.9857 20.047 38.0941 21.1554 38.0941 22.5227V33.2568" stroke="#FF57C6" stroke-width="1.71875" stroke-miterlimit="10" stroke-linejoin="round"/>
</svg>
