<svg width="40" height="40" viewBox="0 0 40 40" fill="none" xmlns="http://www.w3.org/2000/svg">
<path d="M19.6091 4.60876H4.61061V17.3399H19.6091V4.60876Z" stroke="#FF57C6" stroke-width="1.71857" stroke-miterlimit="10" stroke-linecap="round" stroke-linejoin="round"/>
<path d="M14.6088 10.4117L10.7298 8.17215C10.2966 7.92202 9.75509 8.23464 9.75509 8.7349V13.214C9.75509 13.7142 10.2966 14.0268 10.7298 13.7767L14.6088 11.5372C15.042 11.2871 15.042 10.6618 14.6088 10.4117Z" stroke="#FF57C6" stroke-width="1.71857" stroke-miterlimit="10" stroke-linecap="round" stroke-linejoin="round"/>
<path d="M29.5112 31.0482L32.8055 32.4439L32.4962 28.8795L34.8415 26.1777L31.356 25.3705L29.5112 22.3049L27.6663 25.3705L24.1808 26.1777L26.5262 28.8795L26.2168 32.4439L29.5112 31.0482Z" stroke="#FF57C6" stroke-width="1.71857" stroke-miterlimit="10" stroke-linecap="round" stroke-linejoin="round"/>
<path d="M19.8832 21.327V33.0314C19.8832 34.9056 21.4026 36.4251 23.277 36.4251H28.588L30.6328 39.1408L32.6777 36.4251H35.7454C37.6197 36.4251 39.1391 34.9056 39.1391 33.0314V21.7176C39.1391 19.8432 37.6197 18.3239 35.7454 18.3239H23.4332" stroke="#100730" stroke-width="1.71857" stroke-miterlimit="10" stroke-linejoin="round"/>
<path d="M20.4674 0.859253H3.75218C2.15539 0.859253 0.860916 2.15373 0.860916 3.75051V18.2024C0.860916 19.7992 2.15539 21.0936 3.75218 21.0936H7.40649L9.45135 23.8094L11.4962 21.0936H20.4674C22.0642 21.0936 23.3587 19.7992 23.3587 18.2024V3.75051C23.3587 2.15373 22.0642 0.859253 20.4674 0.859253Z" stroke="#100730" stroke-width="1.71857" stroke-miterlimit="10" stroke-linecap="round" stroke-linejoin="round"/>
</svg>
