<svg xmlns="http://www.w3.org/2000/svg" width="129" height="35" fill="none"><path fill="#261EDF" fill-rule="evenodd" d="M94.133 7.233c0 .09 0 .09 0 0 .983 2.768 1.876 5.448 2.858 8.127.09.268.179.447.179.714.178 5.27-1.608 9.735-5.359 13.397-3.483 3.215-7.68 4.733-12.414 4.644-4.198-.178-7.77-1.697-10.896-4.465a13.804 13.804 0 0 1-2.143-2.412c-.09 0-.09-.09-.179-.09h.268s0-.088-.09-.088c-.446-.536-.892-1.072-1.25-1.697-1.16-2.144-1.875-4.466-2.054-6.877.268-.179.447-.357.715-.536.09-.09.268-.179.357-.357.715-.804 1.161-1.787 1.34-2.858.089-.893.089-1.786 0-2.68 0-.268-.09-.535-.179-.803 0-.09 0-.09-.09-.179-.089-.179-.089-.357-.178-.536-.09-.268-.268-.536-.357-.804 1.518-3.036 3.662-5.447 6.52-7.234C74.93.267 78.95-.448 83.236.267c4.109.803 7.502 2.768 10.182 5.983.178.358.446.715.714.983Z" clip-rule="evenodd" opacity=".998"/><path fill="#fff" fill-rule="evenodd" d="M0 6.873h3.305v20.273H0V6.873Z" clip-rule="evenodd" opacity=".998"/><path fill="#fff" fill-rule="evenodd" d="M7.591 6.873h3.84c1.965 2.858 3.84 5.805 5.806 8.663 1.965-2.858 3.84-5.805 5.805-8.663h3.84v20.273h-3.304V11.338c-2.055 3.126-4.109 6.252-6.163 9.289h-.178c-.09 0-.179 0-.268-.09-2.054-3.125-4.109-6.162-6.163-9.288v15.719H7.502c.09-6.52.09-13.307.09-20.095Z" clip-rule="evenodd" opacity=".994"/><path fill="#fff" fill-rule="evenodd" d="M31.348 6.873h9.02c1.608.09 3.037.625 4.198 1.608.982.893 1.697 1.964 1.965 3.304.178 1.072.267 2.233 0 3.305-.447 2.232-1.787 3.75-3.93 4.644-.893.357-1.786.446-2.68.536h-5.358v6.876h-3.305c.09-6.698.09-13.485.09-20.273ZM34.652 10h5.359c.804 0 1.518.268 2.233.804.625.536 1.071 1.25 1.16 2.143.09.893 0 1.786-.446 2.59-.536.804-1.25 1.34-2.233 1.518-.267.09-.535.09-.803.09h-5.18c-.09-2.322-.09-4.734-.09-7.145ZM64.66 9.733c.09.268.269.536.358.804.09.179.09.357.179.536v.179c.089.268.178.536.178.803.09.894.09 1.787 0 2.68-.178 1.072-.625 2.054-1.34 2.858-.089.09-.267.178-.357.357-.178.179-.446.357-.625.536-.804.536-1.697.804-2.59.982 1.518 1.965 3.037 3.93 4.644 5.895.447.536.804 1.16 1.25 1.697v.089H62.34c-1.876-2.5-3.84-5.001-5.716-7.502-1.072 0-2.054-.09-3.126 0v7.591h-3.304V6.965h9.11c1.517.09 2.857.536 4.107 1.518.536.357.894.804 1.25 1.25Zm-11.074.268h5.27c.803 0 1.607.268 2.322.804.625.536.982 1.161 1.071 1.965.179 2.054-.803 3.305-2.768 3.751-.268 0-.447.09-.715.09h-5.09c-.09-2.144-.09-4.377-.09-6.61Z" clip-rule="evenodd" opacity=".995"/><path fill="#fff" fill-rule="evenodd" d="M97.17 16.164c-.09-.268-.09-.447-.18-.715-.892-2.679-1.875-5.358-2.768-8.127 0-.09-.09-.268-.09-.357h3.484c1.786 5.448 3.662 10.896 5.537 16.344 1.876-5.448 3.662-10.896 5.538-16.344h3.483l-.268.804c-2.233 6.43-4.466 12.95-6.699 19.38h-4.197c-1.25-3.662-2.59-7.323-3.84-10.985Z" clip-rule="evenodd" opacity=".994"/><path fill="#fff" fill-rule="evenodd" d="M115.031 6.873h13.218V10h-9.913v5.18h9.199v3.126h-9.199v5.626h9.913v3.126h-13.218V6.873Z" clip-rule="evenodd" opacity=".996"/><path fill="#000" fill-rule="evenodd" d="M79.665 7.592c2.858-.09 5.358.893 7.323 2.947 1.965 2.143 2.769 4.644 2.5 7.591-.356 2.858-1.696 5.09-4.018 6.788-2.322 1.607-4.912 2.054-7.68 1.429-2.68-.715-4.734-2.233-6.163-4.645-1.25-2.41-1.518-4.822-.804-7.412.983-2.947 2.947-5.002 5.895-6.163 1.071-.357 2.054-.535 2.947-.535Z" clip-rule="evenodd"/><path fill="#1C1A52" fill-rule="evenodd" d="M65.107 11.074s.09.09.09.18c-.09-.09-.09-.09-.09-.18Z" clip-rule="evenodd"/><path fill="#1C1952" fill-rule="evenodd" d="M64.035 17.59c-.09.09-.178.268-.357.357.09-.178.268-.268.357-.357Z" clip-rule="evenodd"/><path fill="#2B2D7C" fill-rule="evenodd" d="M66.36 27.06c.09 0 .09.09 0 0Z" clip-rule="evenodd" opacity=".992"/></svg>
