<?xml version="1.0" encoding="UTF-8" standalone="no"?>
<svg
   version="1.1"
   viewBox="0 0 1022.2726 1029.5122"
   id="svg12"
   sodipodi:docname="iq-logo1.svg"
   width="1022.2725"
   height="1029.5122"
   inkscape:version="1.4 (e7c3feb1, 2024-10-09)"
   xmlns:inkscape="http://www.inkscape.org/namespaces/inkscape"
   xmlns:sodipodi="http://sodipodi.sourceforge.net/DTD/sodipodi-0.dtd"
   xmlns="http://www.w3.org/2000/svg"
   xmlns:svg="http://www.w3.org/2000/svg">
  <sodipodi:namedview
     id="namedview12"
     pagecolor="#ffffff"
     bordercolor="#000000"
     borderopacity="0.25"
     inkscape:showpageshadow="2"
     inkscape:pageopacity="0.0"
     inkscape:pagecheckerboard="0"
     inkscape:deskcolor="#d1d1d1"
     inkscape:zoom="0.13812656"
     inkscape:cx="608.13793"
     inkscape:cy="1748.3966"
     inkscape:window-width="1440"
     inkscape:window-height="900"
     inkscape:window-x="0"
     inkscape:window-y="0"
     inkscape:window-maximized="0"
     inkscape:current-layer="svg12">
    <inkscape:page
       x="0"
       y="0"
       width="1022.2726"
       height="1029.5122"
       id="page12"
       margin="0"
       bleed="0" />
  </sodipodi:namedview>
  <defs
     id="defs1">
    <style
       id="style1">.st0{opacity:.6}.st1{fill:#fff}.st4{fill:#00bffe}</style>
  </defs>
  <path
     d="M 125.59551,947.09574 H 91.815511 V 829.08576 h 33.779999 z m 153.9,-13.26 v 27 c -3.72,0.97 -9.21,1.94 -18.11,1.94 -15.68,0 -24.57,-6.79 -30.71,-15.68 -6.79,1.62 -14.55,2.42 -22.95,2.42 -43.65,0 -67.74,-23.92 -67.74,-58.19998 v -6.47 c 0,-34.27 24.09,-58.2 67.74,-58.2 43.65,0 68.06,23.92 68.06,58.2 v 6.47 c 0,17.61998 -6.3,32.48998 -18.43,42.83998 2.26,1.3 5.01,2.1 7.92,2.1 6.47,0 11.8,-1.46 14.23,-2.43 z m -106.21,-43.32998 c 0,7.91998 2.43,14.70998 7.27,19.71998 -0.48,-1.61 -0.64,-3.23 -0.64,-5.17 0,-11.32 7.92,-20.03998 22.63,-20.03998 17.62,0 27.16,11.47998 34.75,23.43998 3.39,-4.85 5.01,-10.99 5.01,-17.94998 v -4.85 c 0,-18.27 -11.64,-30.07 -34.43,-30.07 -22.79,0 -34.6,11.8 -34.6,30.07 v 4.85 z m 46.08,30.06998 c -4.04,-11.64 -8.24,-20.85 -18.59,-20.85 -5.82,0 -9.38,3.56 -9.38,8.89 0,7.6 5.66,13.09 16.33,13.09 4.36,0 8.08,-0.32 11.64,-1.13 z m 227.79,-18.1 v 3.56 c 0,27.48 -16.65,43.49 -42.19,43.49 -22.79,0 -34.92,-11.8 -38.96,-28.45 l -10.67,26.03 h -15.2 V 829.09576 h 32.17 v 48.66 c 3.88,-8.24 14.23,-18.75 34.6,-18.75 23.6,0 40.25,16.16 40.25,43.48998 z m -32.49,1.78 c 0,-11.64 -6.47,-18.26998 -21.01,-18.26998 -14.54,0 -21.34,6.78998 -21.34,18.26998 0,11.48 6.95,18.27 21.34,18.27 14.39,0 21.01,-6.63 21.01,-18.27 z m 110.75,-42.83998 h 32.66 v 85.67998 h -15.36 l -10.67,-25.87 c -4.69,18.91 -16.65,28.29 -36.05,28.29 -23.28,0 -37.02,-13.25 -37.02,-40.09 v -48.00998 h 32.5 v 42.02998 c 0,13.26 4.85,17.94 15.84,17.94 11.64,0 18.1,-6.47 18.1,-18.27 v -41.70998 z m 115.75996,0 h 33.46 l -33.46,80.98998 c -11.64,28.61 -23.91997,39.28 -48.97996,39.28 -7.11,0 -14.07,-1.13 -18.43,-2.26 v -25.06 c 4.53,0.48 9.7,0.97 13.42,0.97 8.24,0 11.8,-3.07 14.71,-10.67 l -36.05,-83.25998 h 35.4 l 20.04999,53.34998 19.87997,-53.34998 z m 139.2,49.13998 h -73.39 c 1.45,9.7 8.41,14.87 20.69,14.87 11.15,0 14.55,-3.39 17.3,-7.27 h 34.44 c -2.91,16 -18.11,31.36 -50.6,31.36 -34.76,0 -53.19,-18.27 -53.19,-43.49 v -3.56 c 0,-25.21998 18.43,-43.48998 53.67,-43.48998 35.24,0 51.89,18.1 51.89,42.51998 0,3.07 -0.16,5.5 -0.81,9.05 z m -73.07,-15.52 h 41.55 c -0.97,-9.04998 -7.11,-14.70998 -19.56,-14.70998 -13.42,0 -20.37,5.5 -21.98,14.70998 z m 155.37,-34.42998 v 31.19998 c -3.72,-0.48998 -8.89,-0.80998 -14.55,-0.80998 -14.22,0 -19.88,5.32998 -19.88,22.30998 v 33.79 h -32.98 v -85.67998 h 15.36 l 10.67,26.51 c 4.53,-21.01 15.52,-28.94 28.61,-28.94 5.98,0 10.02,0.81 12.77,1.61 z m 41.3901,58.35998 c 0.81,5.5 3.88,9.05 19.24,9.05 15.36,0 18.27,-2.91 18.27,-7.11 0,-3.72 -2.26,-6.47 -24.09,-7.27 -35.89,-1.62 -44.62,-11.48 -44.62,-26.83998 0,-15.36 12.13,-27.81 48.82,-27.81 36.69,0 48.49,12.77 49.63,29.75 h -32.49 c -0.48,-5.17 -3.72,-8.57 -17.3,-8.57 -13.58,0 -16.65,2.75 -16.65,6.63 0,3.88 2.26,6.62998 23.12,7.59998 36.69,1.78 45.91,11.64 45.91,26.35 0,16.16 -12.29,28.77 -51.25,28.77 -38.96,0 -50.11,-12.77 -51.4,-30.55 z"
     class="st1"
     id="path2" />
  <g
     class="st0"
     id="g3"
     transform="translate(-427.14449,-434.38424)">
    <path
       d="m 1140.94,783.03 v 52.26 l 44.17,19.74 z"
       class="st4"
       id="path3" />
  </g>
  <path
     d="m 713.79547,348.64576 -44.18,72 44.18,-19.74 z"
     class="st4"
     id="path4" />
  <g
     class="st0"
     id="g5"
     transform="translate(-427.14449,-434.38424)">
    <path
       d="m 1140.94,888.9 v 35.51 l 44.2,-61.15 z"
       class="st4"
       id="path5" />
  </g>
  <path
     d="m 713.79547,490.02576 v -35.52 l -44.18,-25.64 44.18,61.15 z"
     class="st4"
     id="path6" />
  <path
     d="m 713.79547,446.29576 44.17,-25.65 -44.17,-19.72 z"
     class="st4"
     style="opacity:0.2"
     id="path7" />
  <g
     class="st0"
     id="g8"
     transform="translate(-427.14449,-434.38424)">
    <path
       d="m 1096.76,855.03 44.18,25.65 v -45.37 z"
       class="st4"
       id="path8" />
  </g>
  <path
     d="m 584.43551,231.02576 c 2.15,-14.42 -8.83,-22.18 -23.84,-27.35 l 4.87,-19.54 -11.9,-2.96 -4.74,19.02 c -3.12,-0.78 -6.33,-1.51 -9.53,-2.24 l 4.78,-19.15 -11.89,-2.96 -4.87,19.53 c -2.59,-0.59 -5.13,-1.17 -7.59,-1.79 v -0.06 l -16.39,-4.1 -3.16,12.7 c 0,0 8.82,2.02 8.64,2.15 4.82,1.2 5.69,4.39 5.54,6.92 l -5.57,22.34 -7.78,31.18 c -0.59,1.46 -2.08,3.66 -5.45,2.83 0.12,0.17 -8.64,-2.16 -8.64,-2.16 l -5.9,13.62 15.48,3.86 c 2.88,0.72 5.7,1.48 8.47,2.19 l -4.92,19.77 11.88,2.96 4.88,-19.55 c 3.24,0.88 6.39,1.69 9.47,2.46 l -4.86,19.46 11.89,2.96 4.92,-19.72 c 20.28,3.84 35.53,2.29 41.95,-16.05 5.17,-14.77 -0.25,-23.29 -10.92,-28.85 7.77,-1.8 13.62,-6.91 15.19,-17.47 z m -27.18,38.1 c -3.68,14.77 -28.54,6.79 -36.61,4.78 l 6.53,-26.18 c 8.06,2.01 33.91,6 30.08,21.4 z m 3.68,-38.32 c -3.35,13.43 -24.05,6.61 -30.77,4.94 l 5.92,-23.74 c 6.72,1.67 28.34,4.8 24.85,18.81 z m -217.58,160.56 3.46,-3.46 8.21,-8.2 27.93,28.02 16.25,-16.36 -44.18,-44.26 -44.34,44.26 16.26,16.36 z"
     class="st4"
     id="path9" />
  <path
     d="m 338.71151,419.35176 16.327,-16.327 16.327,16.327 -16.327,16.328 z"
     class="st4"
     id="path10" />
  <path
     d="m 355.01551,458.98576 -9.81,-9.81 -1.81,-1.81 -16.45,-16.32 -16.26,16.26 44.34,44.26 44.18,-44.26 -16.25,-16.26 z m -72.283,-39.614 16.328,-16.327 16.327,16.327 -16.327,16.327 z m 111.885,0.001 16.327,-16.327 16.327,16.327 -16.327,16.328 z m 151.608,148.583 v -16.12 h 36.87 v -24.57 h -100.41 v 24.57 h 36.88 v 16.11 c -29.97,1.38 -52.51,7.31 -52.51,14.42 0,7.11 22.55,13.05 52.51,14.43 v 51.65 h 26.66 v -51.65 c 29.92,-1.38 52.41,-7.31 52.41,-14.42 0,-7.11 -22.49,-13.04 -52.41,-14.42 m 0.01,24.46 c -0.75,0.03 -4.62,0.27 -13.22,0.27 -6.88,0 -11.72,-0.2 -13.43,-0.28 v 0.02 c -26.48,-1.17 -46.24,-5.78 -46.24,-11.3 0,-5.52 19.77,-10.12 46.24,-11.3 v 18 c 1.73,0.12 6.69,0.41 13.54,0.41 8.22,0 12.36,-0.34 13.12,-0.41 v -18 c 26.43,1.18 46.15,5.79 46.15,11.29 0,5.5 -19.73,10.12 -46.15,11.29"
     class="st4"
     id="path11" />
  <path
     d="m 532.85551,69.54576 -349.79,349.79 349.79,349.79 349.79006,-349.79 z m 332.04996,349.79 -161.59,161.59 -161.58996,-161.59 161.58996,-161.59 z m -170.46,-170.46 -161.58996,161.59 -161.59,-161.59 161.59,-161.59 z m -332.04996,8.87 161.59,161.59 -161.59,161.59 -161.59,-161.59 z m 8.87,332.05 161.59,-161.59 161.58996,161.59 -161.58996,161.59 z"
     class="st4"
     id="path12" />
</svg>
