<svg width="320" height="320" viewBox="0 0 320 320" fill="none" xmlns="http://www.w3.org/2000/svg">
<circle cx="160" cy="160" r="160" fill="#F2F2F2"/>
<path d="M49.7065 238.706V205.877H55.7074V238.706H49.7065ZM49.7065 239V233.882H72.063V239H49.7065ZM85.3431 239.588C82.5583 239.588 80.2835 239 78.5185 237.823C76.7927 236.607 75.4984 235.058 74.6355 233.176C73.8119 231.293 73.3804 229.332 73.3412 227.292C73.302 224.861 73.753 222.703 74.6943 220.821C75.6749 218.899 77.0477 217.408 78.8126 216.349C80.6169 215.251 82.7348 214.702 85.1666 214.702C87.3238 214.702 89.2653 215.173 90.9911 216.114C92.7168 217.055 94.07 218.369 95.0505 220.056C96.0703 221.742 96.5998 223.762 96.639 226.116C96.639 226.194 96.639 226.429 96.639 226.822C96.639 227.175 96.639 227.449 96.639 227.645H79.048C79.048 229.881 79.5971 231.607 80.6953 232.823C81.8327 233.999 83.3428 234.588 85.2254 234.588C86.7159 234.588 87.9514 234.215 88.9319 233.47C89.9517 232.724 90.5596 231.744 90.7557 230.528H96.5802C96.4233 232.215 95.8742 233.744 94.9329 235.117C93.9915 236.49 92.7168 237.588 91.1087 238.412C89.5006 239.196 87.5787 239.588 85.3431 239.588ZM79.2245 224.939H90.6381C90.5988 224.664 90.5204 224.233 90.4027 223.645C90.2851 223.056 90.0301 222.448 89.6379 221.821C89.2457 221.193 88.677 220.664 87.9317 220.232C87.1865 219.801 86.2256 219.585 85.0489 219.585C83.8723 219.585 82.9113 219.781 82.1661 220.173C81.4209 220.566 80.8522 221.056 80.46 221.644C80.0677 222.233 79.7736 222.821 79.5775 223.409C79.3814 223.998 79.2637 224.508 79.2245 224.939ZM107.753 239.588C105.557 239.588 103.772 239.078 102.4 238.059C101.027 237 100.027 235.548 99.3991 233.705C98.8108 231.822 98.5166 229.665 98.5166 227.233C98.5166 224.762 98.8304 222.586 99.4579 220.703C100.085 218.82 101.066 217.369 102.4 216.349C103.772 215.29 105.557 214.761 107.753 214.761C109.165 214.761 110.342 214.957 111.283 215.349C112.264 215.741 113.048 216.212 113.637 216.761C114.264 217.31 114.735 217.859 115.049 218.408C115.362 218.918 115.578 219.33 115.696 219.644H115.813V214.82H121.991V239H116.814L115.813 235.058H115.696C115.617 235.333 115.402 235.725 115.049 236.235C114.696 236.706 114.205 237.215 113.578 237.765C112.989 238.274 112.205 238.706 111.224 239.059C110.283 239.412 109.126 239.588 107.753 239.588ZM110.224 234.529C111.676 234.529 112.813 234.215 113.637 233.587C114.46 232.96 115.029 232.097 115.343 230.999C115.657 229.861 115.813 228.626 115.813 227.292C115.813 225.841 115.637 224.586 115.284 223.527C114.97 222.429 114.401 221.585 113.578 220.997C112.793 220.37 111.676 220.056 110.224 220.056C108.695 220.056 107.498 220.389 106.636 221.056C105.812 221.723 105.224 222.605 104.871 223.703C104.557 224.762 104.4 225.959 104.4 227.292C104.4 228.626 104.557 229.842 104.871 230.94C105.224 232.038 105.812 232.921 106.636 233.587C107.498 234.215 108.695 234.529 110.224 234.529ZM134.647 239.588C132.255 239.588 130.313 239.078 128.823 238.059C127.372 237.039 126.313 235.607 125.646 233.764C124.979 231.92 124.646 229.783 124.646 227.351C124.646 224.802 124.979 222.605 125.646 220.762C126.352 218.879 127.431 217.428 128.882 216.408C130.372 215.349 132.294 214.82 134.647 214.82C136.177 214.82 137.452 215.075 138.471 215.585C139.53 216.055 140.354 216.624 140.942 217.291C141.57 217.957 142.021 218.565 142.296 219.114C142.57 219.664 142.727 219.997 142.766 220.115H142.884V205.877H149.061V239H143.884L142.884 234.705H142.766C142.727 234.784 142.551 235.078 142.237 235.588C141.962 236.098 141.492 236.666 140.825 237.294C140.197 237.921 139.374 238.471 138.354 238.941C137.334 239.373 136.099 239.588 134.647 239.588ZM136.589 234.529C138.079 234.529 139.276 234.215 140.178 233.587C141.119 232.96 141.786 232.117 142.178 231.058C142.609 229.959 142.825 228.704 142.825 227.292C142.825 225.919 142.629 224.704 142.237 223.645C141.845 222.546 141.197 221.703 140.295 221.115C139.432 220.487 138.256 220.173 136.765 220.173C135.157 220.173 133.883 220.507 132.941 221.174C132.039 221.84 131.412 222.723 131.059 223.821C130.706 224.919 130.529 226.076 130.529 227.292C130.529 228.508 130.686 229.685 131 230.822C131.353 231.92 131.961 232.823 132.824 233.529C133.726 234.195 134.981 234.529 136.589 234.529ZM166.469 206.936V239H160.468V206.936H166.469ZM150.702 211.054V205.877H176.294V211.054H150.702ZM177.373 239V214.82H183.374V239H177.373ZM180.373 211.702C179.079 211.702 178.197 211.368 177.726 210.701C177.294 210.035 177.079 209.27 177.079 208.407C177.079 207.544 177.294 206.799 177.726 206.171C178.197 205.504 179.079 205.171 180.373 205.171C181.707 205.171 182.57 205.504 182.962 206.171C183.393 206.799 183.609 207.544 183.609 208.407C183.609 209.27 183.393 210.035 182.962 210.701C182.57 211.368 181.707 211.702 180.373 211.702ZM186.622 239V214.82H192.329L192.447 220.056H192.565C192.604 219.899 192.741 219.566 192.976 219.056C193.251 218.507 193.663 217.918 194.212 217.291C194.8 216.624 195.545 216.055 196.448 215.585C197.35 215.075 198.467 214.82 199.801 214.82C201.095 214.82 202.174 215.075 203.037 215.585C203.9 216.094 204.586 216.742 205.096 217.526C205.645 218.31 206.037 219.154 206.273 220.056H206.39C206.43 219.899 206.606 219.546 206.92 218.997C207.234 218.448 207.685 217.859 208.273 217.232C208.861 216.565 209.626 215.996 210.567 215.526C211.548 215.055 212.725 214.82 214.097 214.82C215.627 214.82 216.882 215.153 217.863 215.82C218.882 216.447 219.687 217.271 220.275 218.291C220.863 219.271 221.295 220.33 221.569 221.468C221.883 222.605 222.079 223.703 222.158 224.762C222.236 225.782 222.275 226.625 222.275 227.292V239H216.451V227.233C216.451 226.606 216.412 225.9 216.333 225.115C216.294 224.292 216.137 223.507 215.862 222.762C215.627 221.978 215.215 221.35 214.627 220.879C214.039 220.37 213.215 220.115 212.156 220.115C210.862 220.115 209.861 220.487 209.155 221.232C208.489 221.938 208.018 222.86 207.743 223.998C207.508 225.096 207.39 226.253 207.39 227.469V239H201.507V227.233C201.507 226.606 201.488 225.9 201.448 225.115C201.409 224.292 201.252 223.507 200.978 222.762C200.703 221.978 200.272 221.35 199.683 220.879C199.095 220.37 198.271 220.115 197.212 220.115C195.957 220.115 194.977 220.487 194.271 221.232C193.565 221.938 193.074 222.86 192.8 223.998C192.565 225.096 192.447 226.253 192.447 227.469V239H186.622ZM236.256 239.588C233.472 239.588 231.197 239 229.432 237.823C227.706 236.607 226.412 235.058 225.549 233.176C224.725 231.293 224.294 229.332 224.254 227.292C224.215 224.861 224.666 222.703 225.608 220.821C226.588 218.899 227.961 217.408 229.726 216.349C231.53 215.251 233.648 214.702 236.08 214.702C238.237 214.702 240.178 215.173 241.904 216.114C243.63 217.055 244.983 218.369 245.964 220.056C246.983 221.742 247.513 223.762 247.552 226.116C247.552 226.194 247.552 226.429 247.552 226.822C247.552 227.175 247.552 227.449 247.552 227.645H229.961C229.961 229.881 230.51 231.607 231.608 232.823C232.746 233.999 234.256 234.588 236.139 234.588C237.629 234.588 238.865 234.215 239.845 233.47C240.865 232.724 241.473 231.744 241.669 230.528H247.493C247.336 232.215 246.787 233.744 245.846 235.117C244.905 236.49 243.63 237.588 242.022 238.412C240.414 239.196 238.492 239.588 236.256 239.588ZM230.138 224.939H241.551C241.512 224.664 241.434 224.233 241.316 223.645C241.198 223.056 240.943 222.448 240.551 221.821C240.159 221.193 239.59 220.664 238.845 220.232C238.1 219.801 237.139 219.585 235.962 219.585C234.785 219.585 233.825 219.781 233.079 220.173C232.334 220.566 231.765 221.056 231.373 221.644C230.981 222.233 230.687 222.821 230.491 223.409C230.295 223.998 230.177 224.508 230.138 224.939ZM260.726 239.588C259.902 239.588 259 239.471 258.019 239.235C257.039 239.039 256.058 238.725 255.078 238.294C254.097 237.823 253.195 237.235 252.371 236.529C251.587 235.823 250.959 234.999 250.489 234.058C250.018 233.117 249.783 232.019 249.783 230.763H255.313C255.313 230.803 255.333 231.058 255.372 231.528C255.45 231.999 255.646 232.528 255.96 233.117C256.274 233.666 256.784 234.156 257.49 234.588C258.196 235.019 259.216 235.235 260.549 235.235C261.608 235.235 262.471 235.097 263.138 234.823C263.805 234.548 264.295 234.215 264.609 233.823C264.962 233.391 265.138 232.921 265.138 232.411C265.138 231.548 264.766 230.881 264.02 230.41C263.314 229.901 262.393 229.489 261.255 229.175C260.118 228.861 258.902 228.547 257.608 228.234C256.352 227.881 255.156 227.43 254.019 226.88C252.921 226.331 252.018 225.586 251.312 224.645C250.606 223.664 250.253 222.409 250.253 220.879C250.253 218.605 251.156 216.898 252.96 215.761C254.764 214.624 257.058 214.055 259.843 214.055C261.334 214.055 262.726 214.231 264.02 214.584C265.354 214.898 266.531 215.428 267.55 216.173C268.57 216.879 269.374 217.801 269.962 218.938C270.59 220.036 270.904 221.389 270.904 222.997H265.373C265.413 222.095 265.256 221.37 264.903 220.821C264.589 220.232 264.158 219.781 263.609 219.467C263.059 219.154 262.471 218.938 261.844 218.82C261.216 218.703 260.608 218.644 260.02 218.644C258.608 218.644 257.529 218.899 256.784 219.409C256.078 219.879 255.725 220.507 255.725 221.291C255.725 222.193 256.078 222.899 256.784 223.409C257.529 223.88 258.47 224.272 259.608 224.586C260.785 224.9 262.02 225.233 263.314 225.586C264.609 225.9 265.825 226.331 266.962 226.88C268.099 227.43 269.021 228.175 269.727 229.116C270.472 230.018 270.845 231.234 270.845 232.764C270.845 234.293 270.414 235.568 269.551 236.588C268.727 237.568 267.55 238.314 266.021 238.824C264.53 239.333 262.765 239.588 260.726 239.588Z" fill="#292929"/>
<path d="M217 121.5C217 161.541 184.541 194 144.5 194C104.459 194 72 161.541 72 121.5C72 81.4594 104.459 49 144.5 49C184.541 49 217 81.4594 217 121.5Z" fill="url(#paint0_linear_100_30385)"/>
<path d="M217 97.3333C243.694 97.3333 265.333 118.973 265.333 145.667C265.333 171.387 245.243 192.41 219.9 193.91V194H147.158L171.93 163.155C169.824 157.731 168.666 151.834 168.666 145.667C168.666 118.973 190.306 97.3333 217 97.3333Z" fill="url(#paint1_linear_100_30385)"/>
<g filter="url(#filter0_dddd_100_30385)">
<path fill-rule="evenodd" clip-rule="evenodd" d="M212.128 113.041C215.148 109.219 215.756 104.025 213.697 99.6118C211.631 95.2022 207.255 92.3383 202.385 92.2049C183.263 91.704 152.149 90.8879 130.109 90.3085C124.579 90.1595 119.573 93.5701 117.686 98.7717C115.799 103.973 117.454 109.801 121.791 113.237L145.09 131.69L144.31 161.402C144.167 166.933 147.577 171.939 152.779 173.827C157.981 175.714 163.808 174.059 167.239 169.72L212.128 113.041Z" fill="url(#paint2_linear_100_30385)"/>
</g>
<defs>
<filter id="filter0_dddd_100_30385" x="100.482" y="86.9204" width="130.856" height="145.678" filterUnits="userSpaceOnUse" color-interpolation-filters="sRGB">
<feFlood flood-opacity="0" result="BackgroundImageFix"/>
<feColorMatrix in="SourceAlpha" type="matrix" values="0 0 0 0 0 0 0 0 0 0 0 0 0 0 0 0 0 0 127 0" result="hardAlpha"/>
<feOffset dy="2.41667"/>
<feGaussianBlur stdDeviation="2.9"/>
<feColorMatrix type="matrix" values="0 0 0 0 0 0 0 0 0 0 0 0 0 0 0 0 0 0 0.1 0"/>
<feBlend mode="normal" in2="BackgroundImageFix" result="effect1_dropShadow_100_30385"/>
<feColorMatrix in="SourceAlpha" type="matrix" values="0 0 0 0 0 0 0 0 0 0 0 0 0 0 0 0 0 0 127 0" result="hardAlpha"/>
<feOffset dy="10.15"/>
<feGaussianBlur stdDeviation="5.075"/>
<feColorMatrix type="matrix" values="0 0 0 0 0 0 0 0 0 0 0 0 0 0 0 0 0 0 0.09 0"/>
<feBlend mode="normal" in2="effect1_dropShadow_100_30385" result="effect2_dropShadow_100_30385"/>
<feColorMatrix in="SourceAlpha" type="matrix" values="0 0 0 0 0 0 0 0 0 0 0 0 0 0 0 0 0 0 127 0" result="hardAlpha"/>
<feOffset dy="23.2"/>
<feGaussianBlur stdDeviation="7.00833"/>
<feColorMatrix type="matrix" values="0 0 0 0 0 0 0 0 0 0 0 0 0 0 0 0 0 0 0.05 0"/>
<feBlend mode="normal" in2="effect2_dropShadow_100_30385" result="effect3_dropShadow_100_30385"/>
<feColorMatrix in="SourceAlpha" type="matrix" values="0 0 0 0 0 0 0 0 0 0 0 0 0 0 0 0 0 0 127 0" result="hardAlpha"/>
<feOffset dy="41.5667"/>
<feGaussianBlur stdDeviation="8.21667"/>
<feColorMatrix type="matrix" values="0 0 0 0 0 0 0 0 0 0 0 0 0 0 0 0 0 0 0.01 0"/>
<feBlend mode="normal" in2="effect3_dropShadow_100_30385" result="effect4_dropShadow_100_30385"/>
<feBlend mode="normal" in="SourceGraphic" in2="effect4_dropShadow_100_30385" result="shape"/>
</filter>
<linearGradient id="paint0_linear_100_30385" x1="144.5" y1="49" x2="144.5" y2="194" gradientUnits="userSpaceOnUse">
<stop stop-color="#49EDF9"/>
<stop offset="1" stop-color="#4971F7"/>
</linearGradient>
<linearGradient id="paint1_linear_100_30385" x1="206.246" y1="97.3333" x2="206.246" y2="194" gradientUnits="userSpaceOnUse">
<stop stop-color="#F8494E"/>
<stop offset="1" stop-color="#E425D4"/>
</linearGradient>
<linearGradient id="paint2_linear_100_30385" x1="202.436" y1="141.683" x2="113.786" y2="109.521" gradientUnits="userSpaceOnUse">
<stop stop-color="#FFEDF8"/>
<stop offset="1" stop-color="#F2FCFF"/>
</linearGradient>
</defs>
</svg>
