<svg width="142" height="28" viewBox="0 0 142 28" fill="none" xmlns="http://www.w3.org/2000/svg">
<path d="M15.0287 14.0033C15.0156 13.7679 14.9895 13.5265 14.9569 13.2821C14.9439 13.2037 14.9341 13.1312 14.9211 13.0528C14.4188 12.9713 13.9133 12.8386 13.4209 12.6213C13.4437 12.748 13.4665 12.8687 13.4894 12.9924C13.5285 13.2278 13.5644 13.4571 13.5905 13.6834C13.6035 13.777 13.61 13.8705 13.6133 13.958C14.0894 14.0485 14.5558 14.1451 15.0059 14.2477C15.0124 14.2115 15.0254 14.1722 15.0385 14.133C15.0385 14.0908 15.0352 14.0485 15.0319 14.0033H15.0287Z" fill="#FF57C6"/>
<path d="M15.4901 16.6957C15.4738 16.7741 15.4608 16.8556 15.4445 16.934C15.4901 16.8646 15.526 16.7892 15.5651 16.7198C15.5423 16.7138 15.5162 16.7047 15.4901 16.6987V16.6957ZM13.3279 1.21045C13.4486 1.17726 13.5725 1.14407 13.6997 1.11389C13.5725 1.14105 13.4453 1.17424 13.3279 1.21045ZM5.52038 13.3796C5.57582 13.3675 5.63778 13.3615 5.69649 13.3584C5.63778 13.3615 5.57908 13.3705 5.52038 13.3796ZM5.52038 13.3796C5.57582 13.3675 5.63778 13.3615 5.69649 13.3584C5.63778 13.3615 5.57908 13.3705 5.52038 13.3796ZM5.52038 13.3796C5.57582 13.3675 5.63778 13.3615 5.69649 13.3584C5.63778 13.3615 5.57908 13.3705 5.52038 13.3796Z" fill="#9F72FF"/>
<path d="M30.1575 7.52544C29.9651 7.81209 29.74 8.08668 29.4791 8.34617C29.1367 8.05047 28.7779 7.78192 28.3866 7.54053C28.6084 7.31724 28.8008 7.08792 28.9606 6.84653C29.4661 6.08615 29.5933 5.30465 29.3454 4.4628C28.8171 2.6584 25.9732 2.1726 21.2444 1.94026C20.478 1.90405 19.7507 1.88595 19.0658 1.88595C17.2395 1.88595 15.7002 2.01871 14.4642 2.28424C14.1152 2.3627 13.7891 2.44718 13.489 2.54072C13.4499 2.46529 13.4075 2.39589 13.3684 2.32649C13.3325 2.25709 13.2868 2.19372 13.2412 2.12734C13.052 1.85578 12.84 1.62645 12.6378 1.43938C12.6411 1.43636 13.0944 1.27946 13.3292 1.21307C13.4499 1.17988 13.5738 1.14669 13.701 1.11652C13.9587 1.05013 14.2261 0.989786 14.5066 0.938491C14.8196 0.878143 15.1458 0.826848 15.4915 0.781587C15.723 0.751413 15.9611 0.727274 16.2089 0.703135C16.4503 0.682013 16.6981 0.660891 16.9525 0.642787C17.5917 0.600544 18.2766 0.582439 19.0039 0.582439C19.7311 0.582439 20.5008 0.603561 21.3194 0.642787C25.9602 0.869091 29.8705 1.28851 30.7021 4.12183C31.0511 5.3137 30.8652 6.46031 30.1575 7.52846V7.52544Z" fill="#10E6D9"/>
<path d="M26.6343 7.70023C26.6343 7.70023 26.6343 7.70325 26.6311 7.70325C26.7583 7.75452 26.8887 7.81182 27.0127 7.8661C26.8887 7.80579 26.7648 7.75452 26.6343 7.70023ZM26.6343 7.70023C26.6343 7.70023 26.6343 7.70325 26.6311 7.70325C26.7583 7.75452 26.8887 7.81182 27.0127 7.8661C26.8887 7.80579 26.7648 7.75452 26.6343 7.70023ZM26.6343 7.70023C26.6343 7.70023 26.6343 7.70325 26.6311 7.70325C26.7583 7.75452 26.8887 7.81182 27.0127 7.8661C26.8887 7.80579 26.7648 7.75452 26.6343 7.70023Z" fill="#9F72FF"/>
<path d="M17.9088 12.9982C17.7881 13.3181 17.5663 14.0121 17.5663 14.0121C17.5663 14.0121 17.3902 14.6125 17.312 14.9173C16.9108 14.7694 16.4836 14.6336 16.0433 14.5099C16.0205 14.5039 15.9944 14.4979 15.9748 14.4918C15.9944 14.4164 16.014 14.3409 16.0401 14.2655C16.0564 14.2021 16.0727 14.1358 16.0922 14.0724C16.1379 13.9125 16.1836 13.7526 16.2357 13.5926C16.2814 13.4418 16.327 13.2879 16.3792 13.14C16.9239 13.128 17.4424 13.0706 17.9055 12.9982H17.9088Z" fill="#9F72FF"/>
<path d="M14.6212 24.7241C13.1927 25.1466 11.911 25.3638 11.3827 25.4453C10.2543 25.6173 9.27592 25.6987 8.42146 25.6987C7.9127 25.6987 7.44308 25.6686 7.01259 25.6143C6.83974 25.5931 6.67668 25.566 6.51361 25.5358C6.27554 25.4875 6.04725 25.4332 5.83527 25.3698C5.55153 25.2854 5.28411 25.1828 5.03625 25.0651C4.91232 25.0047 4.79492 24.9414 4.67751 24.878C4.56663 24.8116 4.45248 24.7452 4.34812 24.6698C4.2405 24.5944 4.1394 24.522 4.0383 24.4405C3.9372 24.362 3.84262 24.2806 3.74804 24.1931C3.65673 24.1086 3.56867 24.0181 3.48388 23.9245C3.39582 23.834 3.31103 23.7374 3.2295 23.6379C3.14797 23.5383 3.06969 23.4387 2.99142 23.3331C2.83814 23.1249 2.69465 22.9046 2.55441 22.6753C1.18141 20.4123 1.02487 18.1402 2.14023 16.5893C2.43048 16.1879 2.79575 15.844 3.23602 15.5633C2.95555 15.2284 2.6816 14.8754 2.41418 14.5012C2.18589 14.6491 1.9739 14.812 1.7717 14.987C1.6706 15.0775 1.57603 15.1651 1.48145 15.2616C1.29556 15.4517 1.12271 15.6509 0.972688 15.8681C-0.439449 17.8354 -0.308997 20.6175 1.33143 23.315C2.86423 25.8406 5.01668 26.9962 8.43125 26.9962C9.38681 26.9962 10.4369 26.9057 11.6077 26.7277C12.397 26.61 13.7798 26.3565 15.2734 25.8949C15.0288 25.5539 14.8071 25.1677 14.6179 24.7241H14.6212Z" fill="#FFA800"/>
<path d="M21.7765 19.9069C21.7765 22.0251 20.3317 23.5126 18.4956 24.5536C18.1597 24.2579 17.9216 23.8777 17.7586 23.4493C19.2359 22.6104 20.3709 21.4578 20.3709 19.9069C20.3709 18.5279 19.6208 17.4598 17.9575 16.627C17.6738 16.4821 17.3607 16.3433 17.0183 16.2136C16.6726 16.0808 16.2942 15.9571 15.8898 15.8394C15.8181 15.8183 15.7496 15.7972 15.6779 15.7761L14.6995 15.5286C14.3375 15.4441 13.9559 15.3627 13.5548 15.2842C13.2384 15.2239 12.9123 15.1666 12.5699 15.1092C11.5034 14.9312 10.3163 14.7713 9.00527 14.6325C8.45412 14.5721 7.92905 14.548 7.42681 14.548C7.21809 14.548 7.01263 14.551 6.81369 14.5631C6.37994 14.5842 5.96575 14.6295 5.57766 14.7049C5.4146 14.5329 5.26132 14.3639 5.1276 14.204C5.03955 14.1014 4.95802 13.9988 4.88627 13.9113C4.85692 13.8751 4.79495 13.7936 4.73299 13.7152C4.70364 13.679 4.67755 13.6398 4.65798 13.6156C4.63841 13.5885 4.62537 13.5704 4.62537 13.5704C4.85692 13.51 5.09825 13.4587 5.34937 13.4134C5.40481 13.4074 5.46026 13.3953 5.52222 13.3863C5.57766 13.3742 5.63963 13.3682 5.69833 13.3652C6.24296 13.2837 6.82347 13.2475 7.43007 13.2475C7.98775 13.2475 8.565 13.2807 9.16834 13.344C10.3359 13.4708 11.4871 13.6126 12.5959 13.7906C12.9416 13.8449 13.2808 13.9023 13.6167 13.9656C14.0929 14.0562 14.5592 14.1527 15.0093 14.2553L15.9812 14.5027C16.0007 14.5088 16.0268 14.5148 16.0497 14.5208C16.4899 14.6476 16.9172 14.7803 17.3183 14.9282C17.6444 15.0459 17.9575 15.1726 18.2543 15.3084C20.4035 16.289 21.7797 17.7223 21.7797 19.9099L21.7765 19.9069Z" fill="#FFA800"/>
<path d="M5.83638 25.3659C6.04836 25.4323 6.27665 25.4896 6.51473 25.5318C6.27665 25.4835 6.04836 25.4292 5.83638 25.3659ZM5.83638 25.3659C6.04836 25.4323 6.27665 25.4896 6.51473 25.5318C6.27665 25.4835 6.04836 25.4292 5.83638 25.3659ZM5.83638 25.3659C6.04836 25.4323 6.27665 25.4896 6.51473 25.5318C6.27665 25.4835 6.04836 25.4292 5.83638 25.3659ZM5.83638 25.3659C6.04836 25.4323 6.27665 25.4896 6.51473 25.5318C6.27665 25.4835 6.04836 25.4292 5.83638 25.3659ZM5.83638 25.3659C6.04836 25.4323 6.27665 25.4896 6.51473 25.5318C6.27665 25.4835 6.04836 25.4292 5.83638 25.3659ZM5.83638 25.3659C6.04836 25.4323 6.27665 25.4896 6.51473 25.5318C6.27665 25.4835 6.04836 25.4292 5.83638 25.3659ZM5.83638 25.3659C6.04836 25.4323 6.27665 25.4896 6.51473 25.5318C6.27665 25.4835 6.04836 25.4292 5.83638 25.3659ZM5.83638 25.3659C6.04836 25.4323 6.27665 25.4896 6.51473 25.5318C6.27665 25.4835 6.04836 25.4292 5.83638 25.3659ZM5.83638 25.3659C6.04836 25.4323 6.27665 25.4896 6.51473 25.5318C6.27665 25.4835 6.04836 25.4292 5.83638 25.3659ZM5.83638 25.3659C6.04836 25.4323 6.27665 25.4896 6.51473 25.5318C6.27665 25.4835 6.04836 25.4292 5.83638 25.3659ZM5.83638 25.3659C6.04836 25.4323 6.27665 25.4896 6.51473 25.5318C6.27665 25.4835 6.04836 25.4292 5.83638 25.3659ZM5.83638 25.3659C6.04836 25.4323 6.27665 25.4896 6.51473 25.5318C6.27665 25.4835 6.04836 25.4292 5.83638 25.3659ZM5.83638 25.3659C6.04836 25.4323 6.27665 25.4896 6.51473 25.5318C6.27665 25.4835 6.04836 25.4292 5.83638 25.3659ZM5.83638 25.3659C6.04836 25.4323 6.27665 25.4896 6.51473 25.5318C6.27665 25.4835 6.04836 25.4292 5.83638 25.3659ZM5.83638 25.3659C6.04836 25.4323 6.27665 25.4896 6.51473 25.5318C6.27665 25.4835 6.04836 25.4292 5.83638 25.3659ZM5.83638 25.3659C6.04836 25.4323 6.27665 25.4896 6.51473 25.5318C6.27665 25.4835 6.04836 25.4292 5.83638 25.3659ZM5.83638 25.3659C6.04836 25.4323 6.27665 25.4896 6.51473 25.5318C6.27665 25.4835 6.04836 25.4292 5.83638 25.3659ZM5.83638 25.3659C6.04836 25.4323 6.27665 25.4896 6.51473 25.5318C6.27665 25.4835 6.04836 25.4292 5.83638 25.3659ZM5.83638 25.3659C6.04836 25.4323 6.27665 25.4896 6.51473 25.5318C6.27665 25.4835 6.04836 25.4292 5.83638 25.3659ZM5.83638 25.3659C6.04836 25.4323 6.27665 25.4896 6.51473 25.5318C6.27665 25.4835 6.04836 25.4292 5.83638 25.3659ZM5.83638 25.3659C6.04836 25.4323 6.27665 25.4896 6.51473 25.5318C6.27665 25.4835 6.04836 25.4292 5.83638 25.3659ZM5.83638 25.3659C6.04836 25.4323 6.27665 25.4896 6.51473 25.5318C6.27665 25.4835 6.04836 25.4292 5.83638 25.3659ZM5.83638 25.3659C6.04836 25.4323 6.27665 25.4896 6.51473 25.5318C6.27665 25.4835 6.04836 25.4292 5.83638 25.3659ZM5.83638 25.3659C6.04836 25.4323 6.27665 25.4896 6.51473 25.5318C6.27665 25.4835 6.04836 25.4292 5.83638 25.3659ZM5.83638 25.3659C6.04836 25.4323 6.27665 25.4896 6.51473 25.5318C6.27665 25.4835 6.04836 25.4292 5.83638 25.3659ZM5.83638 25.3659C6.04836 25.4323 6.27665 25.4896 6.51473 25.5318C6.27665 25.4835 6.04836 25.4292 5.83638 25.3659Z" fill="#9F72FF"/>
<path d="M14.5828 16.4629C14.5534 16.5172 14.4099 16.7405 14.3708 16.7978C13.7446 17.6487 12.7173 18.1707 11.2302 18.4C10.9301 18.4483 10.6334 18.4694 10.3301 18.4694C8.59179 18.4694 6.84048 17.709 5.21636 16.2365C5.01416 16.0555 4.81196 15.8473 4.81196 15.8473C4.53149 15.5607 4.3032 15.3102 4.13035 15.105C3.99012 14.9542 3.84662 14.7852 3.6966 14.6011C3.54006 14.405 2.92042 13.5088 2.74757 13.2373C1.00604 10.5337 -0.223462 7.13913 0.151585 4.71315C0.347263 3.4368 1.10062 2.31735 2.3236 1.48154C2.94325 1.0591 3.66399 0.721155 4.45648 0.479764C4.53802 0.452608 4.61629 0.431486 4.69782 0.410364C4.96198 0.331912 5.23593 0.268547 5.5164 0.214234C5.74143 0.168974 5.96646 0.132765 6.19801 0.102591C6.71656 0.0331912 7.24814 0 7.79604 0C8.40916 0 9.03533 0.0452608 9.6615 0.132765C10.4996 0.256478 11.1878 0.476747 11.7455 0.781503C11.7455 0.781503 12.1694 1.00177 12.6391 1.43929C12.8413 1.62637 13.0532 1.85569 13.2424 2.12726C13.288 2.19364 13.3304 2.26002 13.3696 2.3264C13.4087 2.3958 13.4511 2.46822 13.4902 2.54064C13.5066 2.57383 13.5229 2.60702 13.5392 2.63719C13.6631 2.8816 13.7642 3.13808 13.8457 3.40663C14.2436 4.71919 14.1784 6.18866 14.1262 7.38052C14.0968 8.08659 14.0708 8.75343 14.1392 9.22414C14.2077 9.66167 14.3023 10.1294 14.4067 10.594C13.8196 10.3225 13.2261 9.85176 12.7075 9.03707C12.6717 8.52713 12.6945 7.94477 12.7238 7.32923C12.776 6.07701 12.7825 4.94248 12.5477 4.00105C12.4662 3.67517 12.3553 3.37042 12.2118 3.09584C11.9118 2.6553 11.5987 2.34149 11.2693 2.10915C10.9627 1.88888 10.6464 1.73801 10.3105 1.61128C10.0496 1.52981 9.76586 1.46343 9.44625 1.41817C8.88531 1.3367 8.32763 1.29446 7.77973 1.29446C7.20249 1.29446 6.63828 1.33972 6.10017 1.42722C5.90776 1.4574 5.7186 1.49361 5.53271 1.53887C4.62933 1.74405 3.81401 2.082 3.15523 2.53159C2.23881 3.15618 1.68113 3.9739 1.53763 4.90023C1.2539 6.76196 2.24859 10.0328 4.0423 12.7485C4.22819 13.026 4.42061 13.3006 4.62281 13.5662C4.62281 13.5662 4.63585 13.5843 4.65542 13.6114C4.67499 13.6416 4.70108 13.6748 4.73043 13.711C4.78913 13.7894 4.85436 13.8709 4.88371 13.9071C4.95546 13.9976 5.03699 14.0972 5.12505 14.1998C5.25876 14.3597 5.40878 14.5317 5.5751 14.7007C5.85231 14.9904 6.11648 15.2318 6.19801 15.3072C6.27954 15.3826 6.53392 15.5999 6.58284 15.6421C6.71982 15.7507 6.86331 15.8624 7.01333 15.968C7.46339 16.2909 7.97541 16.5926 8.53635 16.8099C8.72225 16.8853 8.90814 16.9487 9.10708 16.9999C9.49517 17.1025 9.90935 17.1659 10.3366 17.1659C10.5518 17.1659 10.7769 17.1478 11.0019 17.1146C12.0292 16.9577 12.7336 16.6379 13.138 16.1521C13.637 16.2456 14.0936 16.3422 14.5143 16.4447C14.5371 16.4478 14.5599 16.4508 14.5828 16.4598V16.4629Z" fill="#FF57C6"/>
<path d="M15.4928 16.7029C15.4765 16.7814 15.4634 16.8628 15.4471 16.9412C15.4928 16.8718 15.5286 16.7964 15.5678 16.7271C15.545 16.721 15.5189 16.712 15.4928 16.706V16.7029ZM15.4928 16.7029C15.4765 16.7814 15.4634 16.8628 15.4471 16.9412C15.4928 16.8718 15.5286 16.7964 15.5678 16.7271C15.545 16.721 15.5189 16.712 15.4928 16.706V16.7029Z" fill="#9F72FF"/>
<path d="M30.9743 17.1356C30.2894 20.8832 28.0359 24.2929 24.954 26.2572C23.8093 26.9844 22.208 27.4853 20.623 27.4853C19.6348 27.4853 18.6564 27.2922 17.7954 26.8395C17.528 26.6977 17.2443 26.5197 16.9769 26.2964C16.729 26.0973 16.4877 25.8559 16.2626 25.5692C16.005 25.2464 15.7734 24.8662 15.581 24.4166C15.4636 24.148 15.3593 23.8554 15.2712 23.5325C15.0429 22.6816 14.9386 21.6406 15.0234 20.3703C15.0364 20.2315 15.1277 18.7892 15.4538 16.9395C15.4995 16.8701 15.5354 16.7947 15.5745 16.7253C16.0572 16.8671 16.4746 17.0089 16.8432 17.1568C16.5235 18.9853 16.4257 20.4186 16.4257 20.4487C16.3605 21.4113 16.4127 22.2622 16.5822 22.9954C16.654 23.3213 16.7518 23.623 16.8725 23.9006C17.0584 24.3351 17.2965 24.7093 17.59 25.0231C17.8281 25.2796 18.1053 25.4938 18.4118 25.6658C18.4347 25.6809 18.4607 25.696 18.4868 25.711C19.126 26.046 19.8664 26.1878 20.6197 26.1878C21.9079 26.1878 23.2385 25.7714 24.1615 25.186C26.9368 23.4209 28.9653 20.328 29.5915 16.9184C30.0481 14.414 29.6567 12.1449 28.5088 10.6965C28.4533 10.6271 28.3914 10.5547 28.3327 10.4853C28.1207 10.2409 27.8793 10.0146 27.6217 9.80641C27.2336 9.49864 26.7933 9.23009 26.3335 9.02189C25.9356 8.84085 25.5149 8.69903 25.0844 8.59946C24.6278 8.49988 24.1517 8.44255 23.6788 8.44255H23.6038C21.8688 8.46367 20.349 9.18483 19.2859 10.4733C19.1684 10.5004 19.0543 10.5215 18.9369 10.5427C18.7967 10.5698 18.6466 10.597 18.4836 10.6332C18.1379 10.7026 17.7726 10.778 17.391 10.8323C17.5672 10.5125 17.7596 10.2168 17.965 9.94219C19.2793 8.19211 21.3242 7.17223 23.5842 7.14206H23.6723C24.5561 7.14206 25.4236 7.28689 26.2291 7.56148C26.3661 7.60975 26.5031 7.65803 26.6401 7.71234C26.7672 7.76364 26.8977 7.82097 27.0216 7.87528C27.2303 7.97184 27.4358 8.08047 27.6315 8.19814C28.0359 8.42747 28.4142 8.69903 28.7631 9.0068C28.7697 9.0068 28.7762 9.00982 28.7795 9.01887C28.8316 9.06413 28.8838 9.11241 28.936 9.16069C28.9882 9.20595 29.0404 9.25725 29.0893 9.30552C29.2165 9.42924 29.3339 9.55898 29.448 9.68873C29.5198 9.76718 29.585 9.84564 29.6502 9.92711C31.02 11.6591 31.5059 14.2842 30.9841 17.1356H30.9743Z" fill="#9F72FF"/>
<path d="M27.6182 9.80231C27.3214 9.98335 27.0148 10.1523 26.7018 10.3153C23.6655 11.8873 19.9868 12.6175 19.403 12.7262C19.2986 12.7443 19.1878 12.7684 19.0671 12.7925C19.0443 12.7956 19.0182 12.8046 18.9953 12.8076C18.6888 12.871 18.3203 12.9464 17.9126 13.0068C17.4495 13.0762 16.9342 13.1365 16.3863 13.1486C16.3211 13.1516 16.2526 13.1516 16.1841 13.1516C16.1091 13.1516 16.0308 13.1516 15.9526 13.1486C15.7504 13.1456 15.5514 13.1305 15.346 13.1063C15.2057 13.0943 15.0655 13.0762 14.9253 13.055C14.423 12.9736 13.9175 12.8408 13.4251 12.6236C13.0239 12.4576 12.6358 12.2373 12.2575 11.9597C11.302 11.2507 10.4377 10.1614 9.80178 8.50785C8.93754 6.26895 9.03863 4.46456 10.1083 3.13691C10.229 2.98604 10.366 2.8412 10.5127 2.7024C10.9302 2.92871 11.2237 3.25157 11.4161 3.70418C11.3509 3.77056 11.2889 3.84298 11.2302 3.91238C10.4638 4.86587 10.4279 6.26292 11.1259 8.06731C11.1976 8.26043 11.2791 8.44147 11.3574 8.61648C11.4357 8.79149 11.5205 8.95744 11.6053 9.11435C11.6444 9.18978 11.6868 9.25918 11.7292 9.32858C11.7292 9.3316 11.7325 9.34065 11.7357 9.34367C11.8238 9.49152 11.9151 9.63334 12.0097 9.7661C12.1075 9.89585 12.1988 10.0226 12.2999 10.1403C12.3488 10.1946 12.3978 10.2549 12.4499 10.3122C12.551 10.4209 12.6521 10.5235 12.7565 10.62C12.8478 10.7045 12.9424 10.783 13.037 10.8584C13.5523 11.2627 14.0969 11.5192 14.6546 11.6731C15.0068 11.7666 15.3623 11.8209 15.7145 11.8451C15.7438 11.8481 16.0406 11.8602 16.1548 11.8602C16.4026 11.8602 16.6537 11.8481 16.8918 11.827C17.5702 11.7636 19.1715 11.4528 19.8759 11.2959C21.2228 10.9972 22.9154 10.5265 24.5004 9.88076C24.7319 9.78421 24.9635 9.68765 25.1918 9.58808C25.5864 9.40703 25.968 9.21995 26.3332 9.01477C26.7963 9.22297 27.2334 9.49152 27.6214 9.79929L27.6182 9.80231Z" fill="#10E6D9"/>
<path d="M50.8436 21.0575L49.8456 18.9212H43.6133L42.6349 21.0575H37.7299L43.2024 7.93185H50.3935L55.9051 21.0575H50.8436ZM49.0596 15.5417C48.5639 14.2774 48.0552 13.1187 47.5366 11.8545L47.067 10.6807C46.6104 11.779 45.9386 13.3269 45.0548 15.5447H49.0596V15.5417ZM88.9386 11.3143H78.3068V13.2062H88.9386V16.5857H78.3068V21.0575H73.6954V7.93185H88.9386V11.3113V11.3143ZM106.647 7.93185V21.0575H102.056V16.5857H94.8644V21.0575H90.2725V7.93185H94.8644V13.2032H102.056V7.93185H106.647ZM119.624 7.91375H124.47V15.1102C124.444 16.8814 123.785 18.3479 122.497 19.5035C121.222 20.6592 119.063 21.2385 116.03 21.2385C112.997 21.2385 110.851 20.6894 109.72 19.594C108.585 18.4836 108.033 17.0323 108.06 15.2369V7.91375H112.906V14.2261C112.906 15.1887 112.736 16.3413 113.845 17.1711C114.315 17.4608 115.065 17.7444 116.092 17.7444C117.214 17.7444 118.033 17.4608 118.554 17.1711C119.722 16.4922 119.64 15.08 119.631 14.0632V7.91375H119.624Z" fill="#100730"/>
<path d="M138.96 14.4634C140.395 14.2159 141.485 13.0422 141.485 11.6331V11.4792C141.485 9.50581 139.766 7.90659 137.649 7.90659H125.837V21.0594H138.161C140.281 21.0594 142 19.4602 142 17.4838V17.3601C142 15.7789 140.647 14.4966 138.96 14.4573V14.4634ZM136.407 18.1174H130.687V16.1682H136.407C136.987 16.1682 137.46 16.6057 137.46 17.1428C137.46 17.6799 136.987 18.1174 136.407 18.1174ZM136.407 12.7525H130.687V10.8033H136.407C136.987 10.8033 137.46 11.2408 137.46 11.7779C137.46 12.315 136.987 12.7525 136.407 12.7525Z" fill="#100730"/>
<path d="M72.3509 11.3105H61.7223V13.1994H72.3509V16.5819H61.7223V21.0537H57.1109V7.92805H72.3509V11.3105Z" fill="#100730"/>
</svg>
