<svg xmlns="http://www.w3.org/2000/svg" xml:space="preserve" width="1326.103" height="568.76"><defs><clipPath id="a" clipPathUnits="userSpaceOnUse"><path d="M0 468.817h1080V0H0Z"/></clipPath></defs><path d="M0 0h24.051v237.243H3.379L-98.658 61.49l-103.005 175.753h-20.672V0h24.065v188.668l93.198-158.508h11.86L0 189.775Z" style="fill:#fff;fill-opacity:1;fill-rule:nonzero;stroke:none" transform="matrix(1.33333 0 0 -1.33333 296.447 321.073)"/><g clip-path="url(#a)" transform="matrix(1.33333 0 0 -1.33333 -56.948 596.925)"><path d="M0 0h-24.396v-134.888c0-28.023-6.33-48.695-18.976-62.017-12.66-13.336-30.629-19.997-53.894-19.997-23.045 0-40.904 6.661-53.55 19.997-12.66 13.322-18.976 33.994-18.976 62.017V0h-25.086v-135.908c0-34.119 8.702-59.88 26.106-77.27 17.39-17.404 41.221-26.092 71.506-26.092 30.27 0 54.059 8.688 71.339 26.092C-8.633-195.788 0-170.027 0-135.908z" style="fill:#fff;fill-opacity:1;fill-rule:nonzero;stroke:none" transform="translate(522.5 444.132)"/><path d="M0 0c30.271 0 54.06 8.688 71.34 26.092 17.293 17.39 25.954 43.152 25.954 77.27V239.27H72.871V104.383c0-28.023-6.33-48.696-18.977-62.018C41.234 29.03 23.265 22.369 0 22.369c-23.044 0-40.904 6.661-53.55 19.996-12.66 13.322-18.976 33.995-18.976 62.018V239.27h-25.085V103.362c0-34.118 8.702-59.88 26.106-77.27C-54.115 8.688-30.285 0 0 0" style="fill:#fff;fill-opacity:1;fill-rule:nonzero;stroke:none" transform="translate(658.016 204.862)"/><path d="M0 0c-39.414 0-81.173-7.08-124.09-32.165-39.248-22.81-62.748-51.145-69.81-73.062-4.124-12.346-4.31-25.465 5.711-35.07 5.987-5.741 13.848-9.1 21.743-11.641 32.105-10.328 67.026-8.885 99.29-18.709 7.221-2.2 14.937-5.542 18.152-12.372 2.76-5.86 1.45-12.8-.636-18.932-10.14-29.821-36.592-46.461-61.855-62.575-14.298-9.12-29.34-16.972-44.662-24.289 1.95-1.042-222.499-111.499-334.88-137.755 133.06 21.389 354.372 124.843 354.899 124.409 14.026 6.855 27.815 14.168 41.033 22.501 33.3 20.991 74.579 47.325 79.239 90.257.525 4.846.562 9.857-1.019 14.468-2.148 6.268-7.13 11.247-12.796 14.684-23.851 14.469-56.791 15.863-83.569 19.957-37.07 5.668-56.68 15.143-56.68 27.416 0 3.448 1.269 7.737 3.779 12.743 11.97 24.258 33.842 44.144 64.954 59.107 14.784 6.813 30.009 12.136 45.234 15.832 15.197 3.696 31.14 5.558 47.385 5.558 36.435 0 36.435-14.163 36.435-18.825 0-5.13-5.323-30.781-5.323-30.781 1.503.323 3.724 3.082 4.75 4.178 1.574 1.68 2.956 3.593 4.313 5.452 2.936 4.023 5.36 8.307 7.888 12.581 2.506 4.235 4.801 8.721 5.671 13.611.366 2.059.492 4.151.492 6.24C45.648-9.143 30.285 0 0 0" style="fill:#fd5100;fill-opacity:1;fill-rule:nonzero;stroke:none" transform="translate(991.64 447.694)"/><path d="M0 0v-35.373h4.772v18.066c0 4.178 1.075 7.391 3.172 9.667 2.123 2.262 5.047 3.406 8.77 3.406.166 0 .359-.014.524-.041.194-.028.359-.028.552-.028V.345c-3.475 0-6.371-.717-8.688-2.124-2.124-1.288-3.51-3.256-4.523-5.585V0Z" style="fill:#fff;fill-opacity:1;fill-rule:nonzero;stroke:none" transform="translate(45.69 176.213)"/><path d="M0 0c1.931 1.117 4.11 1.682 6.537 1.682 2.482 0 4.661-.565 6.537-1.682 1.903-1.131 3.392-2.689 4.495-4.689.874-1.584 1.131-3.482 1.312-5.42H-5.758c.192 1.922.428 3.82 1.262 5.393C-3.42-2.703-1.931-1.131 0 0m15.611-28.781c2.345.993 4.33 2.427 5.903 4.316l-2.703 3.103c-1.352-1.572-2.952-2.744-4.827-3.517-1.848-.758-3.862-1.144-6.013-1.144-2.758 0-5.185.579-7.309 1.724-2.151 1.144-3.806 2.744-4.992 4.785-.974 1.676-1.295 3.718-1.472 5.834h29.467c0 .262 0 .524.028.772.027.248.027.482.027.703 0 3.544-.745 6.689-2.206 9.405-1.49 2.717-3.531 4.827-6.096 6.33-2.593 1.504-5.544 2.262-8.881 2.262-3.282 0-6.234-.772-8.854-2.331-2.62-1.544-4.689-3.668-6.206-6.371-1.489-2.689-2.261-5.792-2.261-9.295s.799-6.619 2.372-9.336c1.572-2.717 3.751-4.841 6.536-6.399 2.786-1.545 6.013-2.317 9.709-2.317 2.813 0 5.406.483 7.778 1.476" style="fill:#fff;fill-opacity:1;fill-rule:nonzero;stroke:none" transform="translate(79.037 170.766)"/><path d="m0 0-3.586 2.427C-4.799.676-6.289-.634-8.081-1.489c-1.821-.855-3.752-1.283-5.875-1.283-2.51 0-4.772.579-6.813 1.724-2.013 1.145-3.613 2.758-4.772 4.813-1.186 2.069-1.765 4.496-1.765 7.281 0 2.786.579 5.213 1.765 7.282a12.417 12.417 0 0 0 4.772 4.813c2.041 1.145 4.303 1.724 6.813 1.724 2.123 0 4.054-.428 5.875-1.283 1.792-.855 3.282-2.179 4.495-3.971L0 22.038c-1.407 2.33-3.31 4.082-5.737 5.254-2.427 1.158-5.13 1.751-8.164 1.751-3.503 0-6.62-.772-9.378-2.289-2.786-1.531-4.937-3.641-6.509-6.344-1.572-2.689-2.372-5.819-2.372-9.364 0-3.502.8-6.619 2.372-9.336 1.572-2.717 3.723-4.841 6.509-6.399 2.758-1.544 5.875-2.317 9.378-2.317 3.034 0 5.737.593 8.164 1.779C-3.31-4.041-1.407-2.289 0 0" style="fill:#fff;fill-opacity:1;fill-rule:nonzero;stroke:none" transform="translate(141.123 147.515)"/><path d="M0 0v7.364h-4.579v-35.373H.193v18.066c0 4.178 1.076 7.392 3.172 9.667 2.124 2.262 5.047 3.407 8.771 3.407.165 0 .358-.014.524-.042.193-.027.359-.027.552-.027v4.647c-3.476 0-6.372-.717-8.689-2.124C2.4 4.298 1.014 2.329 0 0" style="fill:#fff;fill-opacity:1;fill-rule:nonzero;stroke:none" transform="translate(155.052 168.849)"/><path d="M0 0c0-2.703-.469-5.02-1.434-6.951-.966-1.93-2.372-3.392-4.193-4.413-1.792-1.006-3.944-1.517-6.426-1.517-3.365 0-5.985.952-7.833 2.869-1.876 1.903-2.814 4.744-2.814 8.523v20.01h-4.771V-2.027c0-3.365.607-6.179 1.848-8.426 1.241-2.248 2.979-3.931 5.213-5.048 2.261-1.131 4.882-1.682 7.888-1.682 3.144 0 5.902.717 8.247 2.179 2.034 1.253 3.377 3.142 4.496 5.24v-7.088h4.578v35.373H0Z" style="fill:#fff;fill-opacity:1;fill-rule:nonzero;stroke:none" transform="translate(204.643 157.692)"/><path d="M222.792 140.84h4.772v35.373h-4.772z" style="fill:#fff;fill-opacity:1;fill-rule:nonzero;stroke:none"/><path d="M0 0c0 .952-.331 1.738-1.021 2.358-.661.635-1.489.952-2.482.952-.993 0-1.82-.331-2.51-.979-.662-.649-.993-1.448-.993-2.4 0-.938.331-1.751.993-2.427a3.489 3.489 0 0 1 2.51-1.007c1.021 0 1.876.345 2.51 1.007C-.331-1.82 0-.979 0 0" style="fill:#fff;fill-opacity:1;fill-rule:nonzero;stroke:none" transform="translate(228.722 187.536)"/><path d="M0 0c1.793-1.793 4.358-2.689 7.668-2.689 1.406 0 2.758.193 4.082.607 1.324.4 2.455 1.02 3.42 1.875l-1.683 3.448C12.081 2.027 10.343 1.42 8.219 1.42c-1.986 0-3.503.552-4.551 1.683C2.62 4.22 2.096 5.82 2.096 7.888v21.155h10.785v3.972H2.096v7.82h-4.799v-7.82h-6.316v-3.972h6.316V7.613c0-3.283.91-5.82 2.703-7.613" style="fill:#fff;fill-opacity:1;fill-rule:nonzero;stroke:none" transform="translate(243.81 143.198)"/><path d="M0 0c-2.124 1.103-4.634 1.655-7.502 1.655-3.696 0-6.84-.897-9.488-2.662-2.229-1.513-3.581-3.634-4.668-5.935-.854 2.36-1.764 4.665-3.634 6.004-2.427 1.724-5.379 2.593-8.826 2.593-3.283 0-6.124-.731-8.551-2.193-2.056-1.253-3.384-3.111-4.468-5.166V1.31h-4.578v-35.373h4.771v18.604c0 2.689.497 4.992 1.462 6.895.965 1.917 2.344 3.379 4.137 4.385 1.793 1.007 3.889 1.517 6.261 1.517 3.255 0 5.765-.951 7.558-2.868 1.792-1.903 2.703-4.73 2.703-8.454v-20.079h4.771v18.604c0 2.689.497 4.992 1.462 6.895.965 1.917 2.317 3.379 4.11 4.385 1.765 1.007 3.861 1.517 6.288 1.517 3.227 0 5.737-.951 7.53-2.868 1.765-1.903 2.648-4.73 2.648-8.454v-20.079h4.799v20.548c0 3.42-.607 6.247-1.793 8.495C3.806-2.772 2.124-1.103 0 0" style="fill:#fff;fill-opacity:1;fill-rule:nonzero;stroke:none" transform="translate(319.383 174.903)"/><path d="M0 0c1.931 1.117 4.11 1.682 6.537 1.682 2.482 0 4.661-.565 6.537-1.682 1.903-1.131 3.392-2.689 4.495-4.689.874-1.584 1.131-3.482 1.312-5.42H-5.758c.192 1.922.428 3.82 1.262 5.393C-3.42-2.703-1.931-1.131 0 0m15.418 3.53c-2.593 1.504-5.544 2.262-8.881 2.262-3.282 0-6.234-.772-8.854-2.331-2.62-1.544-4.689-3.668-6.206-6.371-1.489-2.689-2.261-5.792-2.261-9.295s.799-6.619 2.372-9.336c1.572-2.717 3.751-4.841 6.536-6.399 2.786-1.545 6.013-2.317 9.709-2.317 2.814 0 5.406.483 7.778 1.476 2.345.993 4.33 2.427 5.903 4.316l-2.703 3.103c-1.352-1.572-2.952-2.744-4.827-3.517-1.848-.758-3.862-1.144-6.013-1.144-2.758 0-5.185.579-7.309 1.724-2.151 1.144-3.806 2.744-4.992 4.785-.974 1.676-1.295 3.718-1.472 5.834h29.467c0 .262 0 .524.028.772.027.248.027.482.027.703 0 3.544-.745 6.689-2.206 9.405-1.49 2.717-3.531 4.827-6.096 6.33" style="fill:#fff;fill-opacity:1;fill-rule:nonzero;stroke:none" transform="translate(346.357 170.766)"/><path d="M0 0c-2.207 1.103-4.716 1.655-7.585 1.655-3.42 0-6.371-.731-8.826-2.193-2.141-1.26-3.529-3.123-4.661-5.196V1.31h-4.579v-35.373h4.772v18.604c0 2.689.524 4.992 1.517 6.895 1.02 1.917 2.454 3.379 4.33 4.385 1.848 1.007 4.055 1.517 6.564 1.517 3.365 0 5.986-.951 7.861-2.868 1.848-1.903 2.786-4.73 2.786-8.454v-20.079h4.772v20.548c0 3.42-.607 6.247-1.848 8.495C3.861-2.772 2.151-1.103 0 0" style="fill:#fff;fill-opacity:1;fill-rule:nonzero;stroke:none" transform="translate(405.52 174.903)"/><path d="M0 0c-1.986 0-3.503.552-4.551 1.682C-5.599 2.8-6.123 4.399-6.123 6.468v21.155H4.661v3.972H-6.123v7.819h-4.799v-7.819h-6.316v-3.972h6.316V6.192c0-3.282.91-5.82 2.703-7.612 1.792-1.793 4.358-2.69 7.667-2.69 1.407 0 2.759.193 4.082.607 1.324.4 2.455 1.021 3.421 1.876L5.268 1.82C3.861.607 2.124 0 0 0" style="fill:#fff;fill-opacity:1;fill-rule:nonzero;stroke:none" transform="translate(437.128 144.619)"/><path d="M0 0c-1.958-1.241-4.275-1.862-6.978-1.862-2.813 0-5.02.607-6.592 1.821-1.572 1.213-2.372 2.827-2.372 4.854 0 1.793.662 3.296 1.986 4.51 1.324 1.213 3.696 1.82 7.116 1.82H4.275V5.351C3.393 3.02 1.958 1.227 0 0m-5.296 30.422c-2.785 0-5.433-.413-7.943-1.254-2.51-.828-4.661-2-6.454-3.531l2.151-3.572c1.434 1.255 3.172 2.262 5.241 3.034a18.824 18.824 0 0 0 6.536 1.145c3.338 0 5.848-.814 7.53-2.427 1.683-1.614 2.51-3.931 2.51-6.937v-2.165H-6.978c-3.365 0-6.041-.455-8.054-1.379-1.986-.924-3.42-2.138-4.303-3.641-.882-1.503-1.324-3.172-1.324-5.02 0-2.013.524-3.806 1.573-5.351 1.02-1.558 2.509-2.772 4.468-3.641 1.958-.882 4.247-1.31 6.895-1.31 3.393 0 6.178.69 8.413 2.083C2.491-2.406 3.57-.743 4.496 1.027v-6.323h4.578v21.969c0 4.62-1.241 8.068-3.751 10.343-2.482 2.262-6.013 3.406-10.619 3.406" style="fill:#fff;fill-opacity:1;fill-rule:nonzero;stroke:none" transform="translate(63.37 82.212)"/><path d="M0 0c-2.013-1.103-4.33-1.641-6.951-1.641-2.537 0-4.854.538-6.895 1.641-2.041 1.103-3.641 2.634-4.772 4.592-1.158 1.945-1.737 4.207-1.737 6.772 0 2.551.579 4.799 1.737 6.73 1.131 1.93 2.731 3.447 4.772 4.55 2.041 1.104 4.358 1.655 6.895 1.655 2.621 0 4.938-.551 6.951-1.655 2.013-1.103 3.613-2.62 4.799-4.55 1.159-1.931 1.738-4.179 1.738-6.73 0-2.565-.579-4.827-1.738-6.772A12.586 12.586 0 0 0 0 0m6.62 21.179c-1.45 2.272-3.231 4.146-5.544 5.341-2.51 1.31-5.351 1.958-8.495 1.958-3.365 0-6.399-.717-9.075-2.165-2.703-1.434-4.827-3.448-6.371-6.027-1.572-2.579-2.345-5.557-2.345-8.922 0-3.379.773-6.358 2.345-8.964 1.544-2.607 3.668-4.648 6.371-6.096 2.676-1.462 5.71-2.193 9.075-2.193 3.144 0 5.985.676 8.495 2.014C3.298-2.679 4.973-.824 6.399 1.314V-3.53c0-4.4-1.048-7.654-3.172-9.737-2.096-2.096-5.406-3.144-9.902-3.144-2.73 0-5.323.441-7.778 1.324-2.455.869-4.496 2.055-6.15 3.53l-2.428-3.64c1.821-1.752 4.22-3.09 7.199-4.041 2.951-.938 6.068-1.407 9.295-1.407 5.847 0 10.261 1.421 13.239 4.275 3.007 2.855 4.496 7.337 4.496 13.446v31.057H6.62Z" style="fill:#fff;fill-opacity:1;fill-rule:nonzero;stroke:none" transform="translate(107.06 84.156)"/><path d="M0 0c1.931 1.117 4.11 1.682 6.537 1.682 2.482 0 4.661-.565 6.537-1.682 1.903-1.131 3.392-2.689 4.495-4.689.874-1.584 1.131-3.482 1.312-5.42H-5.758c.192 1.922.428 3.82 1.262 5.393C-3.42-2.703-1.931-1.131 0 0m15.418 3.53c-2.593 1.504-5.544 2.262-8.881 2.262-3.282 0-6.234-.772-8.854-2.331-2.62-1.544-4.689-3.668-6.206-6.371-1.489-2.689-2.261-5.792-2.261-9.295s.799-6.619 2.372-9.336c1.572-2.717 3.751-4.841 6.536-6.399 2.786-1.545 6.013-2.317 9.709-2.317 2.813 0 5.406.483 7.778 1.476 2.345.993 4.33 2.427 5.903 4.316l-2.703 3.103c-1.352-1.572-2.952-2.744-4.827-3.517-1.848-.758-3.862-1.144-6.013-1.144-2.758 0-5.185.579-7.309 1.724-2.151 1.144-3.806 2.744-4.992 4.785-.974 1.676-1.295 3.718-1.472 5.834h29.467c0 .262 0 .524.028.772.027.248.027.482.027.703 0 3.544-.745 6.689-2.206 9.405-1.49 2.717-3.531 4.827-6.096 6.33" style="fill:#fff;fill-opacity:1;fill-rule:nonzero;stroke:none" transform="translate(138.806 106.842)"/><path d="M0 0c-2.207 1.103-4.716 1.655-7.585 1.655-3.42 0-6.371-.731-8.826-2.193-2.141-1.26-3.529-3.123-4.661-5.196V1.31h-4.579v-35.373h4.772v18.604c0 2.689.524 4.992 1.517 6.895 1.02 1.917 2.454 3.379 4.33 4.385 1.848 1.007 4.055 1.517 6.564 1.517 3.365 0 5.986-.951 7.861-2.868 1.848-1.903 2.786-4.73 2.786-8.454v-20.079h4.772v20.548c0 3.42-.607 6.247-1.848 8.495C3.861-2.772 2.151-1.103 0 0" style="fill:#fff;fill-opacity:1;fill-rule:nonzero;stroke:none" transform="translate(197.969 110.98)"/><path d="M0 0c2.041 1.145 4.303 1.724 6.813 1.724 2.123 0 4.054-.428 5.875-1.283 1.792-.855 3.282-2.179 4.495-3.971l3.586 2.427c-1.407 2.33-3.31 4.082-5.737 5.254-2.427 1.158-5.13 1.751-8.164 1.751-3.503 0-6.62-.772-9.378-2.289-2.786-1.531-4.937-3.641-6.509-6.344-1.572-2.689-2.372-5.819-2.372-9.364 0-3.502.8-6.619 2.372-9.336 1.572-2.717 3.723-4.84 6.509-6.399 2.758-1.544 5.875-2.317 9.378-2.317 3.034 0 5.737.593 8.164 1.779 2.427 1.186 4.33 2.938 5.737 5.227l-3.586 2.427c-1.213-1.751-2.703-3.061-4.495-3.916-1.821-.855-3.752-1.283-5.875-1.283-2.51 0-4.772.579-6.813 1.724-2.013 1.145-3.613 2.758-4.772 4.813-1.186 2.069-1.765 4.496-1.765 7.281 0 2.786.579 5.213 1.765 7.282A12.417 12.417 0 0 0 0 0" style="fill:#fff;fill-opacity:1;fill-rule:nonzero;stroke:none" transform="translate(225.66 106.732)"/><path d="m0 0-13.353 30.066h-4.992L-2.52-5.191l-1.538-3.482c-1.02-2.206-2.124-3.751-3.255-4.62-1.158-.882-2.51-1.31-4.082-1.31-1.296 0-2.482.235-3.53.704a10.159 10.159 0 0 0-2.924 1.985l-2.234-3.571c1.076-1.076 2.372-1.89 3.862-2.428a14.11 14.11 0 0 1 4.771-.799c1.71 0 3.255.275 4.634.841 1.407.551 2.703 1.517 3.889 2.855 1.186 1.351 2.262 3.171 3.255 5.461l17.734 39.621h-4.716z" style="fill:#fff;fill-opacity:1;fill-rule:nonzero;stroke:none" transform="translate(267.257 82.224)"/></g></svg>