<svg xmlns="http://www.w3.org/2000/svg" width="105" height="29" fill="none"><g clip-path="url(#a)"><mask id="b" width="106" height="30" x="0" y="-1" maskUnits="userSpaceOnUse" style="mask-type:luminance"><path fill="#fff" d="M105-.001H0v29h105v-29Z"/></mask><g fill="#FF5C02" mask="url(#b)"><path d="M12.917 7.173v14.955c0 2.1-.517 3.77-1.552 5.01-1.035 1.24-2.467 1.861-4.295 1.861H5.96c-1.95 0-3.43-.588-4.441-1.764C.508 26.06.002 24.357 0 22.128V7.21C0 2.403 1.974-.001 5.922-.001h1.11c3.925 0 5.886 2.391 5.885 7.174ZM7.773 22.287V6.794c0-1.24-.432-1.86-1.295-1.86-.889 0-1.333.62-1.333 1.86v15.493c0 1.114.456 1.671 1.369 1.67.84-.004 1.26-.56 1.259-1.67ZM14.36.342h4.628l3.366 14.423V.342h4.368v28.24h-4.18l-3.813-15.487v15.487H14.36V.342ZM28.277.342h10.288v4.972H33.2v6.148h4.22v5.094h-4.22v6.946h5.626v5.087H28.269L28.277.342ZM101.263.342h-5.848l-.295 2.396c.054-.04.11-.076.167-.11.416-.25.796-.525 1.636.081.84.607 2.694 1.115 4 1.212 1.305.097.599.503.068.83-.506.32-3.641 1.661-5.5 2.258-.369.118-.847.408-.976.637-.129.23-2.58 20.932-2.58 20.932h4.368l.445-4.745h2.961l.517 4.745h4.775L101.263.342ZM97.227 18.98l.963-9.68 1.037 9.68h-2ZM89.683.477a11.21 11.21 0 0 0 1.552 1.062V.342h-1.727l.175.135ZM89.868 10.58c.689-.505 1.267-1.283 1.365-1.777.099-.493.058-2.671 0-3.122-.057-.45-.578-1.374-.948-1.813C89.11 2.47 88.846.652 88.846.652a1.426 1.426 0 0 1 0-.31h-2.538v11.953a11.444 11.444 0 0 0 3.56-1.715ZM86.803 21.066c-.164.138-.329.27-.493.401v7.115h4.924V15.686a18.621 18.621 0 0 1-4.43 5.38ZM77.472 25.669a5.292 5.292 0 0 0-1.196.396s.465.427.976.892c.51.465.978 1.397-.466 1.388-1.443-.01-2.913-.45-3.677-.935-.245-.159-.442-.307-.64-.439v1.611h6.997c1.925 0 3.3-.518 4.126-1.555.795-1.002 1.21-2.497 1.242-4.485a22.926 22.926 0 0 1-7.362 3.127ZM77.39 13.71V4.817h1.111c.466 0 .801.147 1 .437.199.29.295.778.295 1.461v6.304c.289-.031.466.01.855 0 1.401.004 2.8-.122 4.18-.374v-6.27c0-2.123-.427-3.662-1.278-4.618C82.7.802 81.338.33 79.464.34h-6.996v14.847c1.887-.586 3.75-1.124 4.922-1.476ZM70.763 26.55c-1.96.1-3.29.103-6.054.017-1.259-.04-2.386-.099-3.14-.319a5.845 5.845 0 0 1-.766-.273v2.603h10.548V26.56a3.945 3.945 0 0 0-.588-.012ZM61.566 19.127c.332-.1 2.224-.3 4.166-1.364v-1.207h2.647a57 57 0 0 1 1.572-.552v-4.542h-4.22V5.314h5.364V.342H60.81V19.47a2.43 2.43 0 0 1 .756-.343ZM43.748 28.58h4.293v-1.02c-.125.029-.253-.045-.385-.013-.26.06-.556.266-.827.331-.272.066-.134-.089-.803.053-.31.068-.628.293-.905.358-.378.09-.66.048-.906.107-.164.038-.321.1-.467.184ZM48.041 26.947V11.881l2.142 14.425c.295-.09.423-.167.72-.256.235-.07.646-.063.88-.133.232-.07.426-.293.647-.358.127-.038.264 0 .39-.044l1.994-13.634v13.037c.219-.067.466 0 .675-.056.281-.084.519-.38.776-.457.337-.102.661-.013.95-.1.429-.13.708-.408 1.01-.497.303-.095.615-.159.93-.193.016-.352.048-.704.099-1.054V.341h-5.66l-1.89 14.273L49.818.342h-6.07V28.23c.17-.05.353-.13.56-.192.246-.073.56-.044.853-.132.294-.087.528-.278.84-.372.276-.081.608-.03.907-.12.259-.078.476-.318.75-.398.12-.035.262-.033.384-.07ZM50.295 27.04l.23 1.544h1.85l.31-2.1c-.071.018-.19-.038-.26-.022-.202.048-.354.218-.558.266-.254.059-.532-.02-.788.04-.257.058-.522.211-.784.272ZM54.813 25.983v2.598h4.443v-3.64c-.166.039-.48 0-.839.078-.31.072-.611.36-1.027.459-.281.065-.621-.077-.952 0-.295.068-.607.318-.931.398-.233.054-.449.05-.694.107Z"/><path d="m84.189 25.948-5.333-.613a1.074 1.074 0 0 0 .738-.517c.19-.35.116-.973.155-1.678 0 0-.04-2.482-.026-4.816.025-4.052.07-9.132.07-9.132h5.032l.017 12.806c.036 3.059-.653 3.95-.653 3.95Z"/></g></g><defs><clipPath id="a"><path fill="#fff" d="M0 0h105v29H0z"/></clipPath></defs></svg>
