<svg xmlns="http://www.w3.org/2000/svg" width="86" height="41" fill="none"><g fill="#EDFF00"><path d="M2.62 35.69c.492 0 .887.147 1.186.44.303.297.455.688.455 1.175 0 .485-.159.875-.477 1.17-.314.292-.726.439-1.236.439H1.78v1.337H.62v-4.56h2Zm-.84 2.352h.525c.248 0 .441-.063.578-.187.137-.128.206-.31.206-.547 0-.236-.069-.417-.206-.543-.135-.124-.325-.187-.572-.187h-.53v1.464Zm12.557 1.207h-1.492l-.29 1.002h-1.182l1.532-4.56h1.42l1.532 4.56h-1.233l-.287-1.002Zm-1.267-.835h1.04l-.506-1.757h-.026l-.508 1.758Zm11.7-.553h.686c.212 0 .379-.057.499-.173a.623.623 0 0 0 .18-.471.619.619 0 0 0-.186-.471.684.684 0 0 0-.497-.18h-.682v1.295Zm0 2.39h-1.16v-4.56h1.96c.564 0 .998.132 1.302.398.299.26.448.63.448 1.106 0 .286-.067.543-.202.77-.14.239-.33.412-.575.519l.91 1.767h-1.302l-.78-1.596h-.601v1.596Zm11.51 0v-3.625h-1.264v-.936h3.688v.936H37.44v3.625h-1.16Zm10.231 0v-4.56h.926l1.934 2.65h.025v-2.65h1.1v4.56h-.916l-1.944-2.677h-.025v2.677h-1.1Zm15.117 0h-3.126v-4.56h3.126v.935h-1.966v.907h1.849v.853h-1.85v.93h1.967v.935Zm9.127-2.39h.686c.213 0 .38-.057.5-.173a.623.623 0 0 0 .18-.471.619.619 0 0 0-.187-.471.684.684 0 0 0-.496-.18h-.683v1.295Zm0 2.39h-1.16v-4.56h1.96c.564 0 .999.132 1.302.398.3.26.449.63.449 1.106 0 .286-.068.543-.203.77-.139.239-.33.412-.575.519l.91 1.767h-1.302l-.78-1.596h-.6v1.596ZM82.16 38.93c.02.153.11.28.265.379.154.095.34.142.556.142.224 0 .405-.045.544-.136.135-.088.202-.202.202-.341a.338.338 0 0 0-.161-.297c-.105-.07-.289-.132-.55-.187l-.597-.117c-.85-.162-1.274-.598-1.274-1.308 0-.438.17-.791.512-1.059.335-.263.77-.395 1.302-.395.565 0 1.01.128 1.337.383.32.252.483.595.49 1.027h-1.069a.487.487 0 0 0-.224-.389.887.887 0 0 0-.521-.142c-.203 0-.365.042-.487.126a.387.387 0 0 0-.186.335c0 .123.053.221.16.297.106.074.279.135.519.184l.591.11c.449.087.779.235.99.446.21.21.315.496.315.856 0 .453-.174.815-.521 1.084-.348.268-.816.402-1.403.402-.584 0-1.043-.124-1.378-.37-.337-.246-.51-.59-.515-1.03h1.103ZM47.991 0h8.18v27.305h-6.955L37.057 12.482v14.823h-8.179V0h7.348l11.765 14.316V0ZM65.535 20.76h19.819v6.545H58.062V0h27.292v6.545h-19.82v3.972h19.82v6.192h-19.82v4.052Z"/><path fill-rule="evenodd" d="M26.759 20.938c.546-1.542.546-3.46.546-7.3 0-3.839 0-5.758-.546-7.3a9.52 9.52 0 0 0-5.8-5.792C19.418 0 17.496 0 13.654 0 9.81 0 7.888 0 6.345.546A9.52 9.52 0 0 0 .546 6.339C0 7.88 0 9.799 0 13.639c0 3.838 0 5.757.546 7.299a9.512 9.512 0 0 0 2.41 3.713l.028.025a14.55 14.55 0 0 1 7.694-4.347 6.92 6.92 0 0 1-3.92-6.238c0-1.563.518-3.005 1.392-4.164L6.89 6.8 9 7.536l.773-3.26 2.815 1.813 1.01-1.995 1.28 3.185a6.918 6.918 0 0 1 5.703 6.812 6.92 6.92 0 0 1-3.93 6.243 14.549 14.549 0 0 1 7.67 4.342l.029-.025a9.513 9.513 0 0 0 2.409-3.713Z" clip-rule="evenodd"/><path d="m11.07 5.88-.916-.618-.232 1.081.916.619.231-1.082Z"/></g></svg>
