<svg width="378" height="104" viewBox="0 0 378 104" fill="none" xmlns="http://www.w3.org/2000/svg">
<mask id="mask0_181_7032" style="mask-type:luminance" maskUnits="userSpaceOnUse" x="0" y="-1" width="379" height="105">
<path d="M378.001 -0.00390625H0.00134277V103.087H378.001V-0.00390625Z" fill="white"/>
</mask>
<g mask="url(#mask0_181_7032)">
<path d="M46.501 25.4972V78.6612C46.501 86.124 44.6385 92.0608 40.9128 96.4712C37.1875 100.882 32.0333 103.087 25.4502 103.087H21.4546C14.4358 103.087 9.10646 100.997 5.46666 96.8164C1.82684 92.6359 0.00506826 86.5842 0.00134277 78.6612V25.633C0.00134277 8.54173 7.10774 -0.00390625 21.3205 -0.00390625H25.3161C39.4433 -0.00390625 46.5047 8.49646 46.501 25.4972ZM27.9817 79.2272V24.1503C27.9817 19.7435 26.4281 17.5401 23.3211 17.5401C20.1209 17.5401 18.5208 19.7435 18.5208 24.1503V79.2272C18.5208 83.1887 20.1637 85.1675 23.4496 85.1637C26.4747 85.1487 27.9854 83.17 27.9817 79.2272Z" fill="#80D8CF"/>
<path d="M51.699 1.21387H68.3576L80.4726 52.4878V1.21387H96.1981V101.605H81.149L67.4241 46.551V101.605H51.699V1.21387Z" fill="#80D8CF"/>
<path d="M101.796 1.21387H138.835V18.888H119.517V40.7445H134.705V58.8544H119.517V83.5462H139.768V101.628H101.768L101.796 1.21387Z" fill="#80D8CF"/>
<path d="M364.548 1.21387H343.495L342.433 9.73119C342.627 9.59099 342.827 9.46066 343.033 9.3407C344.529 8.45218 345.898 7.47313 348.922 9.62935C351.946 11.7855 358.622 13.5909 363.323 13.9361C368.022 14.2813 365.479 15.7245 363.567 16.8903C361.746 18.0222 350.459 22.793 343.764 24.9153C342.44 25.3341 340.718 26.3641 340.253 27.179C339.79 27.994 330.965 101.588 330.965 101.588H346.691L348.291 84.7234H358.953L360.815 101.588H378.003L364.548 1.21387ZM350.018 67.4681L353.483 33.0592L357.216 67.4681H350.018Z" fill="#80D8CF"/>
<path d="M322.859 1.69491C324.614 3.10728 326.483 4.36987 328.448 5.46969V1.21387H322.228L322.859 1.69491Z" fill="#80D8CF"/>
<path d="M323.523 37.6093C326.003 35.8152 328.087 33.0476 328.44 31.2932C328.793 29.539 328.646 21.7969 328.44 20.1954C328.234 18.5938 326.356 15.3113 325.025 13.7494C320.795 8.78044 319.846 2.31744 319.846 2.31744C319.805 1.95065 319.805 1.58066 319.846 1.21387H310.708V43.7044C315.291 42.4286 319.624 40.3671 323.523 37.6093Z" fill="#80D8CF"/>
<path d="M312.492 74.8838C311.899 75.3761 311.306 75.846 310.714 76.3099V101.602H328.44V55.7607C324.366 63.0993 318.953 69.588 312.492 74.8838Z" fill="#80D8CF"/>
<path d="M278.9 91.2459C277.415 91.5436 275.968 92.0166 274.592 92.6552C274.592 92.6552 276.268 94.1718 278.107 95.8241C279.945 97.4767 281.627 100.793 276.43 100.759C271.233 100.725 265.941 99.1577 263.192 97.437C262.309 96.8713 261.599 96.3449 260.889 95.8753V101.603H286.075C293.005 101.603 297.956 99.7594 300.929 96.0734C303.794 92.5118 305.284 87.1976 305.4 80.1309C297.264 85.3529 288.299 89.1132 278.9 91.2459Z" fill="#80D8CF"/>
<path d="M278.604 48.7377V17.1244H282.605C284.282 17.1244 285.489 17.6451 286.204 18.6751C286.919 19.7051 287.266 21.4425 287.266 23.8703V46.2813C288.305 46.1682 288.942 46.3154 290.345 46.2813C295.388 46.2926 300.423 45.8474 305.388 44.9514V22.6592C305.388 15.1134 303.855 9.6427 300.789 6.24711C297.723 2.85148 292.817 1.17065 286.07 1.20461H260.884V53.9838C267.679 51.901 274.385 49.9882 278.604 48.7377Z" fill="#80D8CF"/>
<path d="M254.746 94.378C247.689 94.7345 242.905 94.7457 232.952 94.4402C228.42 94.2987 224.363 94.0894 221.647 93.3084C220.708 93.0475 219.788 92.7223 218.892 92.335V101.588H256.865V94.4177C256.16 94.3524 255.453 94.3393 254.746 94.378Z" fill="#80D8CF"/>
<path d="M221.635 67.9942C222.831 67.6378 229.643 66.9246 236.634 63.1442V58.8544H246.162C247.917 58.2149 249.828 57.5527 251.823 56.8907V40.7445H236.634V18.888H255.942V1.21387H218.914V69.211C219.747 68.6527 220.667 68.2413 221.635 67.9942Z" fill="#80D8CF"/>
<path d="M157.491 101.599H172.948V97.9718C172.495 98.0737 172.037 97.8135 171.562 97.9266C170.623 98.1418 169.562 98.8719 168.584 99.1037C167.606 99.3358 168.103 98.7869 165.694 99.2905C164.577 99.5338 163.431 100.332 162.437 100.564C161.073 100.887 160.056 100.734 159.173 100.943C158.585 101.08 158.018 101.301 157.491 101.599Z" fill="#80D8CF"/>
<path d="M172.948 95.7931V42.233L180.66 93.5123C181.722 93.1956 182.18 92.9182 183.253 92.6014C184.097 92.3521 185.577 92.3805 186.416 92.1315C187.254 91.8826 187.952 91.0903 188.746 90.8582C189.204 90.7223 189.696 90.8582 190.154 90.6998L197.33 42.233V88.5774C198.117 88.3397 199.006 88.5774 199.76 88.3793C200.772 88.0794 201.627 87.0267 202.555 86.7552C203.767 86.3928 204.935 86.7099 205.975 86.3984C207.517 85.9401 208.523 84.9499 209.607 84.6328C210.7 84.2969 211.823 84.0676 212.96 83.948C213.014 82.694 213.131 81.4435 213.312 80.2014V1.21387H192.937L186.136 51.9501L179.341 1.21387H157.491V100.354C158.1 100.179 158.759 99.8962 159.503 99.6753C160.391 99.4151 161.52 99.5169 162.576 99.2058C163.633 98.8943 164.476 98.2155 165.599 97.8815C166.594 97.5928 167.79 97.7737 168.863 97.457C169.796 97.1796 170.579 96.3251 171.562 96.0421C171.998 95.9175 172.507 95.9234 172.948 95.7931Z" fill="#80D8CF"/>
<path d="M181.061 96.1203L181.888 101.61H188.549L189.667 94.145C189.41 94.2075 188.985 94.0094 188.728 94.0659C188.002 94.2356 187.454 94.8413 186.722 95.0109C185.805 95.2202 184.805 94.9432 183.883 95.1525C182.961 95.3618 182.005 95.905 181.061 96.1203Z" fill="#80D8CF"/>
<path d="M197.327 92.3614V101.597H213.32V88.6602C212.723 88.796 211.594 88.6602 210.303 88.9376C209.185 89.1922 208.101 90.2165 206.604 90.5673C205.592 90.7995 204.368 90.2959 203.178 90.5673C202.116 90.8107 200.993 91.6992 199.825 91.9822C198.987 92.1746 198.21 92.1578 197.327 92.3614Z" fill="#80D8CF"/>
<path d="M303.078 92.2405L283.883 90.0618C284.428 89.9631 284.948 89.7482 285.405 89.4311C285.863 89.114 286.249 88.7019 286.537 88.2224C287.219 86.9772 286.956 84.7645 287.096 82.2575C287.096 82.2575 286.951 73.4345 287.001 65.1379C287.09 50.7348 287.252 32.6758 287.252 32.6758H305.369L305.431 78.1998C305.559 89.0712 303.078 92.2405 303.078 92.2405Z" fill="#80D8CF"/>
</g>
</svg>
