<svg width="58" height="59" viewBox="0 0 58 59" fill="none" xmlns="http://www.w3.org/2000/svg">
<g clip-path="url(#clip0_444_3637)">
<path d="M47.5778 30.1523C50.5824 30.1523 53.0638 31.1185 55.0222 33.0509C57.0073 34.9565 57.9999 37.3854 57.9999 40.3377C57.9999 43.29 57.0073 45.7323 55.0222 47.6647C53.037 49.5971 50.5556 50.5633 47.5778 50.5633H37.5854V58.3332H29.8191V30.1523H47.5778ZM46.6523 43.7597C47.6449 43.7597 48.4496 43.451 49.0667 42.8337C49.7105 42.1896 50.0324 41.3576 50.0324 40.3377C50.0324 39.6936 49.8849 39.1166 49.5898 38.6066C49.3215 38.0698 48.9326 37.6538 48.4229 37.3586C47.9131 37.0634 47.3229 36.9158 46.6523 36.9158H37.5854V43.7597H46.6523ZM53.1502 53.4834H57.9999V58.3332H53.1502V53.4834Z" fill="#EDFF00"/>
<path d="M49.5548 0.333008H58V28.5138H50.8193L38.2644 13.2157V28.5138H29.8192V0.333008H37.4064L49.5548 15.1078V0.333008ZM7.71608 51.5786H28.1808V58.333H0V30.1522H28.1808V36.9066H7.71608V41.007H28.1808V47.3974H7.71608V51.5786Z" fill="white"/>
<path fill-rule="evenodd" clip-rule="evenodd" d="M25.1429 25.7705L25.1133 25.7961C23.0212 23.5478 20.2499 21.9409 17.126 21.3022C19.5218 20.1663 21.1786 17.7249 21.1786 14.8963C21.1786 12.1516 19.6186 9.77143 17.3374 8.59492C17.3095 8.58069 17.2861 8.55907 17.2698 8.53243C17.2534 8.50579 17.2446 8.47515 17.2445 8.44388V5.11693C17.2445 4.96549 17.0598 4.89151 16.9553 5.00107L15.9344 6.07111C15.9165 6.08987 15.8945 6.10423 15.8701 6.11306C15.8457 6.12189 15.8196 6.12494 15.7938 6.12199C15.7681 6.11904 15.7433 6.11016 15.7216 6.09604C15.6998 6.08193 15.6817 6.06296 15.6685 6.04064L14.2417 3.62773C14.1767 3.51784 14.0177 3.51784 13.9528 3.62773L12.526 6.04064C12.5128 6.06296 12.4946 6.08192 12.4728 6.09602C12.4511 6.11013 12.4264 6.11901 12.4006 6.12195C12.3748 6.1249 12.3487 6.12184 12.3244 6.11301C12.3 6.10417 12.278 6.08981 12.2601 6.07105L11.2392 5.001C11.1347 4.89151 10.9499 4.96549 10.9499 5.11693V8.44388C10.9498 8.47514 10.9411 8.50576 10.9247 8.5324C10.9083 8.55904 10.885 8.58067 10.8571 8.59492C8.57581 9.77143 7.01585 12.1516 7.01585 14.8963C7.01585 17.7249 8.67268 20.1663 11.0684 21.3022C7.94459 21.9409 5.17321 23.5478 3.08112 25.7961L3.05144 25.7704C1.93254 24.7066 1.08037 23.3938 0.564157 21.9387C0 20.3484 0 18.3677 0 14.4065C0 10.4451 0 8.46455 0.564157 6.87412C1.55466 4.08173 3.7551 1.88504 6.55219 0.896225C8.14524 0.333008 10.1293 0.333008 14.0972 0.333008C18.0652 0.333008 20.0492 0.333008 21.6423 0.896225C24.4393 1.88504 26.6398 4.08173 27.6303 6.87412C28.1944 8.46455 28.1944 10.4451 28.1944 14.4065C28.1944 18.3677 28.1944 20.3484 27.6303 21.9387C27.1141 23.3939 26.2619 24.7067 25.1429 25.7705Z" fill="white"/>
<path d="M13.7383 5.7162C13.7248 5.69155 13.7178 5.66392 13.7178 5.63584C13.7178 5.60777 13.7248 5.58014 13.7383 5.55549L13.9499 5.16748C14.0135 5.05094 14.1809 5.05094 14.2446 5.16748L14.4561 5.55549C14.4696 5.58014 14.4766 5.60777 14.4766 5.63584C14.4766 5.66392 14.4696 5.69155 14.4561 5.7162L14.2446 6.10421C14.1809 6.22074 14.0135 6.22074 13.9499 6.10421L13.7383 5.7162Z" fill="white"/>
</g>
<defs>
<clipPath id="clip0_444_3637">
<rect width="58" height="58" fill="white" transform="translate(0 0.333008)"/>
</clipPath>
</defs>
</svg>
