<svg xmlns="http://www.w3.org/2000/svg" width="544" height="282" fill="none"><path fill="#1E1E1E" d="m152.089 119.018-.145.726h-8.063l.146-.726h.29a8.04 8.04 0 0 0 2.688-.436c.823-.291 1.453-.848 1.888-1.671l27.749-48.014h1.525c1.55 10.17 2.784 18.498 3.705 24.988.968 6.489 1.767 11.573 2.397 15.254.678 3.68 1.307 6.223 1.888 7.627.63 1.356 1.38 2.034 2.252 2.034 2.034 0 4.165-1.235 6.392-3.705 2.276-2.518 4.673-5.859 7.192-10.024h.726a285.414 285.414 0 0 1-3.487 5.666c-1.162 1.84-2.348 3.487-3.559 4.939-1.211 1.405-2.446 2.543-3.705 3.414-1.259.872-2.59 1.308-3.995 1.308-1.743 0-3.172-.315-4.285-.944-1.066-.63-1.962-1.598-2.688-2.906-.727-1.307-1.332-2.978-1.816-5.012a175.04 175.04 0 0 1-1.526-7.409 4.824 4.824 0 0 0-.145-.581 14.359 14.359 0 0 1-.145-.654h-19.613a161.93 161.93 0 0 1-3.995 6.683 67.438 67.438 0 0 0-3.777 6.828c-.484.823-.533 1.477-.145 1.961.435.436 1.162.654 2.179.654h.072Zm25.279-16.853-3.923-26.368-15.326 26.368h19.249Zm66.917-12.566c.242-1.26.121-2.01-.363-2.252-.436-.242-1.09-.363-1.961-.363h-8.427l-7.699 36.102c-.824 3.825-2.034 6.61-3.632 8.353-1.598 1.743-3.245 2.615-4.94 2.615-1.453 0-2.784-.629-3.995-1.889-1.211-1.21-2.034-2.954-2.47-5.23l.654-.435c1.114 3.147 2.373 4.721 3.777 4.721.969 0 1.865-.726 2.688-2.179.872-1.404 1.598-3.535 2.179-6.392l7.627-35.666h-16.344l-7.699 36.102c-.824 3.825-2.034 6.61-3.632 8.353-1.598 1.743-3.245 2.615-4.94 2.615-1.452 0-2.784-.629-3.995-1.889-1.21-1.21-2.034-2.954-2.47-5.23l.654-.435c1.114 3.147 2.373 4.721 3.777 4.721.969 0 1.889-.726 2.761-2.179.823-1.404 1.525-3.535 2.106-6.392l7.627-35.666h-5.157l.145-.727h5.158l.653-3.196c.388-1.84.92-3.559 1.598-5.157.678-1.647 1.55-3.075 2.615-4.286a11.616 11.616 0 0 1 3.85-2.978c1.55-.726 3.342-1.09 5.376-1.09 2.082 0 3.874.46 5.375 1.38 1.55.872 2.445 1.962 2.688 3.27.29 1.549.024 2.711-.799 3.486-.824.775-1.744 1.162-2.761 1.162a3.08 3.08 0 0 1-2.034-.726c-.581-.484-.871-1.235-.871-2.252.097-1.985-.073-3.414-.509-4.286-.387-.871-.944-1.307-1.67-1.307-.775.048-1.502.436-2.18 1.162-.678.678-1.331 1.598-1.961 2.76-.581 1.163-1.114 2.519-1.598 4.068-.484 1.501-.92 3.1-1.307 4.794l-.654 3.196h16.344l.653-3.196c.436-2.034 1.041-3.874 1.816-5.52.824-1.647 1.84-3.075 3.051-4.286a12.089 12.089 0 0 1 4.286-2.76c1.646-.63 3.559-.945 5.738-.945 2.519.049 4.673.485 6.465 1.308 1.792.823 2.809 1.937 3.051 3.341.291 1.55.024 2.712-.799 3.487-.823.775-1.743 1.162-2.76 1.162a3.08 3.08 0 0 1-2.034-.726c-.581-.484-.872-1.235-.872-2.252.097-1.985-.121-3.414-.654-4.286-.484-.871-1.234-1.307-2.251-1.307-2.18-.049-4.044 1.017-5.594 3.196-1.501 2.18-2.711 5.375-3.632 9.588l-.653 3.196h17.143l-3.56 16.635a412.825 412.825 0 0 1-1.307 6.029c-.388 1.889-.654 3.583-.799 5.085-.146 1.452-.097 2.639.145 3.559.291.872.896 1.307 1.816 1.307.242 0 .702-.145 1.38-.435.678-.291 1.55-.896 2.615-1.816 1.065-.969 2.325-2.325 3.777-4.068 1.453-1.743 3.051-4.044 4.795-6.901h.726c-1.647 2.76-3.196 5.085-4.649 6.974-1.404 1.888-2.736 3.414-3.995 4.576-1.211 1.162-2.349 2.009-3.414 2.542-1.017.484-2.01.727-2.978.727-3.1 0-4.891-1.381-5.376-4.141-.436-2.809.049-7.288 1.453-13.438l2.833-13.293Zm18.516-17.216.145-.726 4.068-1.09 5.23-1.67h.726l-7.264 34.14a412.825 412.825 0 0 1-1.307 6.029c-.388 1.889-.654 3.584-.799 5.085-.146 1.453-.097 2.639.145 3.559.242.872.823 1.308 1.743 1.308.242 0 .702-.17 1.38-.509.727-.387 1.623-1.065 2.688-2.034 1.114-1.017 2.397-2.421 3.85-4.213 1.453-1.791 3.051-4.116 4.794-6.973h.727c-3.342 5.472-6.247 9.395-8.717 11.767-2.421 2.373-4.576 3.56-6.465 3.56-1.55 0-2.76-.339-3.632-1.017-.823-.678-1.356-1.719-1.598-3.124-.242-1.452-.242-3.293 0-5.52.29-2.228.751-4.867 1.38-7.918l6.029-28.474c.388-1.695-.048-2.543-1.307-2.543-.339 0-.775.073-1.308.218l-.508.145Zm21.494.291c.242-1.017.799-1.889 1.671-2.615.871-.726 1.84-1.09 2.905-1.09 1.066 0 1.889.364 2.47 1.09.581.726.751 1.598.508 2.615-.242 1.065-.823 1.985-1.743 2.76-.872.727-1.84 1.09-2.905 1.09-1.066 0-1.889-.363-2.47-1.09-.533-.775-.678-1.695-.436-2.76Zm-6.174 14.382.145-.726 3.995-1.09 5.303-1.815h.726l-4.14 19.467a412.552 412.552 0 0 1-1.308 6.029c-.387 1.889-.654 3.583-.799 5.085-.145 1.452-.097 2.639.145 3.559.291.872.896 1.307 1.816 1.307.243 0 .703-.145 1.381-.435.678-.291 1.549-.896 2.615-1.816 1.065-.969 2.324-2.325 3.777-4.068 1.453-1.743 3.051-4.044 4.794-6.901h.726c-1.646 2.76-3.196 5.085-4.649 6.974-1.404 1.888-2.736 3.414-3.995 4.576-1.21 1.162-2.348 2.009-3.414 2.542-1.017.484-2.009.727-2.978.727-3.099 0-4.891-1.381-5.375-4.141-.436-2.809.048-7.288 1.453-13.438l2.905-13.656c.388-1.695-.048-2.543-1.307-2.543-.339 0-.775.073-1.308.218l-.508.145Zm24.763 14.528c-.581 2.761-.775 5.255-.581 7.482.242 2.228.775 4.141 1.598 5.739.871 1.598 2.009 2.833 3.414 3.704 1.404.824 3.002 1.235 4.794 1.235 2.421 0 4.988-.726 7.7-2.179 2.712-1.501 5.06-3.632 7.046-6.392.193-2.276.702-5.061 1.525-8.354l2.397-11.332c-.871-2.614-2.348-4.6-4.431-5.956-2.034-1.404-4.213-2.106-6.537-2.106-1.792 0-3.584.435-5.376 1.307-1.743.823-3.389 2.034-4.939 3.632-1.501 1.598-2.833 3.51-3.995 5.739-1.162 2.227-2.034 4.721-2.615 7.481Zm30.799 3.632a182.45 182.45 0 0 0-1.162 5.23c-.291 1.647-.485 3.1-.582 4.359-.048 1.21.073 2.179.364 2.905.29.727.847 1.09 1.67 1.09.243 0 .703-.17 1.381-.509.677-.387 1.549-1.065 2.615-2.034 1.113-1.016 2.397-2.421 3.849-4.213 1.453-1.791 3.075-4.116 4.867-6.973h.727c-3.342 5.472-6.247 9.395-8.717 11.768-2.421 2.372-4.576 3.559-6.465 3.559-3.051 0-4.818-1.429-5.303-4.286a29.957 29.957 0 0 1-7.409 3.269c-2.615.726-5.133 1.09-7.554 1.09-2.615 0-4.964-.436-7.046-1.308-2.083-.92-3.826-2.203-5.23-3.85-1.356-1.646-2.276-3.632-2.761-5.956-.484-2.325-.435-4.916.146-7.773.629-2.857 1.67-5.448 3.123-7.772 1.501-2.325 3.269-4.31 5.303-5.956a23.605 23.605 0 0 1 6.828-3.778c2.47-.92 5.012-1.38 7.627-1.38 2.324 0 4.625.363 6.901 1.09 2.324.678 4.31 1.695 5.956 3.05l4.722-3.413h.726l-4.576 21.791Zm22.407-18.45-3.559 16.489a412.552 412.552 0 0 1-1.308 6.029c-.387 1.889-.653 3.584-.799 5.085-.145 1.453-.096 2.639.146 3.559.242.872.823 1.308 1.743 1.308.242 0 .702-.194 1.38-.581.727-.436 1.647-1.163 2.76-2.18 1.114-1.065 2.398-2.518 3.85-4.358 1.502-1.84 3.148-4.189 4.94-7.046h.726c-3.341 5.521-6.271 9.54-8.789 12.058-2.47 2.47-4.649 3.705-6.538 3.705-3.099 0-4.891-1.38-5.375-4.141-.436-2.808.048-7.288 1.453-13.438l3.559-16.489h-5.157l.145-.726h5.157l7.918-13.511h.726l-2.832 13.51h7.118l-.145.727h-7.119Zm9.58 14.818a24.588 24.588 0 0 1 2.76-7.19 25.303 25.303 0 0 1 4.795-6.03 22.631 22.631 0 0 1 6.319-4.14c2.325-1.017 4.794-1.526 7.409-1.526 3.439 0 6.272.557 8.499 1.67 2.276 1.066 3.753 2.834 4.431 5.303.388 1.599.218 3.172-.508 4.722-.727 1.55-1.816 3.05-3.269 4.504-1.453 1.404-3.196 2.736-5.23 3.995a60.792 60.792 0 0 1-6.32 3.487 74.734 74.734 0 0 1-6.537 2.687c-2.179.727-4.189 1.283-6.029 1.671.968 2.47 2.373 4.479 4.213 6.029 1.84 1.501 4.14 2.252 6.901 2.252 1.84 0 3.825-.291 5.956-.872a27.778 27.778 0 0 0 6.392-2.615 28.484 28.484 0 0 0 5.957-4.358 22.206 22.206 0 0 0 4.649-6.102h.726c-1.211 2.47-2.857 4.673-4.94 6.61a36.93 36.93 0 0 1-6.537 4.867c-2.325 1.308-4.673 2.3-7.046 2.978-2.373.678-4.479.993-6.32.945-2.808-.049-5.375-.461-7.699-1.235-2.276-.824-4.189-2.01-5.739-3.56-1.501-1.549-2.542-3.486-3.123-5.811-.533-2.373-.436-5.133.29-8.281Zm13.874-16.489c-1.646.727-3.123 1.816-4.431 3.269-1.307 1.453-2.373 3.148-3.196 5.085-.775 1.888-1.283 3.995-1.525 6.32-.194 2.324-.025 4.745.508 7.263.194.969.484 2.034.872 3.196 2.421-.532 4.988-1.428 7.7-2.687 2.76-1.308 5.254-2.857 7.481-4.649 2.228-1.792 4.02-3.753 5.376-5.884 1.356-2.18 1.84-4.382 1.453-6.61-.388-2.228-1.429-3.874-3.124-4.94-1.646-1.065-3.511-1.598-5.593-1.598-.872 0-1.768.097-2.688.291a13.9 13.9 0 0 0-2.833.944Z" style="fill:#fefefe;fill-opacity:1"/><path fill="#1E1E1E" d="M43.134 151.334h-.097v-.969h23.438c4.585 0 8.653.355 12.204 1.066 3.616.71 6.65 1.904 9.104 3.583 2.454 1.614 4.294 3.777 5.52 6.489 1.292 2.648 1.938 5.908 1.938 9.782 0 3.874-.646 7.135-1.938 9.782-1.29 2.583-3.163 4.649-5.617 6.199-2.454 1.55-5.456 2.68-9.007 3.39-3.551.646-7.62.968-12.204.968H55.628v20.824c0 3.163 1.582 4.745 4.746 4.745h.097v.969H43.037v-.969h.097c3.164 0 4.746-1.582 4.746-4.745V156.08c0-3.164-1.582-4.746-4.746-4.746Zm23.341 0H55.628v39.322h10.847c4.197 0 7.62-.452 10.267-1.356 2.712-.969 4.875-2.292 6.489-3.971 1.614-1.679 2.712-3.713 3.293-6.102.646-2.389.968-5.036.968-7.942 0-2.905-.322-5.585-.968-8.038-.581-2.454-1.679-4.552-3.293-6.296-1.614-1.808-3.777-3.196-6.49-4.164-2.647-.969-6.069-1.453-10.266-1.453Zm69.838 66.828c-2.582 0-3.874-1.291-3.874-3.874v-.775a38.063 38.063 0 0 1-8.813 4.165c-3.099 1.033-6.134 1.549-9.104 1.549-4.649 0-8.362-1.194-11.138-3.583-2.777-2.454-4.165-6.102-4.165-10.945 0-2.518.484-4.713 1.453-6.586a13.696 13.696 0 0 1 4.165-4.648c1.743-1.292 3.777-2.26 6.101-2.906 2.325-.646 4.811-.969 7.458-.969 2.389 0 4.746.259 7.07.775 2.389.452 4.714.969 6.973 1.55v-.969c0-4.455-.355-8.038-1.065-10.75-.646-2.777-1.55-4.907-2.712-6.392-1.162-1.55-2.486-2.583-3.971-3.1a14.06 14.06 0 0 0-4.649-.775c-1.485 0-2.97.388-4.455 1.163-1.42.775-2.776 1.904-4.068 3.39-1.291 1.485-2.421 3.325-3.39 5.52-.968 2.131-1.711 4.584-2.227 7.361l-3.777-8.426c2.26-3.229 4.939-5.747 8.038-7.555 3.164-1.808 6.715-2.712 10.654-2.712 2.454 0 4.81.323 7.07.969 2.26.581 4.262 1.679 6.005 3.293 1.808 1.55 3.261 3.68 4.359 6.392 1.162 2.647 1.807 6.037 1.937 10.17v22.954c0 3.163 1.581 4.745 4.745 4.745h.097v.969h-8.717Zm-29.346-13.463c0 4.52 1.066 7.813 3.196 9.879 2.131 2.002 4.811 3.003 8.039 3.003 2.195 0 4.52-.42 6.973-1.259 2.454-.84 4.875-2.099 7.264-3.778v-19.37c-1.678-.71-3.615-1.291-5.811-1.743-2.195-.452-4.229-.678-6.101-.678-1.873 0-3.649.258-5.327.775a10.969 10.969 0 0 0-4.262 2.518c-1.227 1.097-2.195 2.55-2.905 4.358-.711 1.743-1.066 3.842-1.066 6.295Zm73.77-53.365v-.969h12.591v63.342c.387 2.324 1.937 3.486 4.649 3.486h.096v.969h-12.494v-1.356c-3.357 1.55-7.167 2.324-11.428 2.324-3.487 0-6.747-.548-9.782-1.646-3.035-1.098-5.714-2.712-8.039-4.843-2.26-2.13-4.068-4.745-5.424-7.845-1.291-3.164-1.937-6.779-1.937-10.847 0-3.81.646-7.264 1.937-10.363 1.356-3.1 3.164-5.747 5.424-7.942a24.189 24.189 0 0 1 8.039-5.037c3.035-1.226 6.295-1.84 9.782-1.84.904 0 1.872.097 2.905.291 1.034.194 2.067.452 3.1.775a30.87 30.87 0 0 1 2.905.871c.969.259 1.808.517 2.518.775V156.08c0-3.164-1.581-4.746-4.745-4.746h-.097Zm-24.019 42.615c0 4.326.451 8.039 1.355 11.138.904 3.035 2.131 5.52 3.681 7.457 1.614 1.937 3.487 3.358 5.617 4.262 2.131.904 4.391 1.356 6.78 1.356 2.195 0 4.261-.355 6.198-1.066 1.937-.71 3.681-1.872 5.23-3.486v-38.354c-1.549-1.743-3.293-3.099-5.23-4.067a13.665 13.665 0 0 0-6.198-1.453c-2.389 0-4.649.581-6.78 1.743-2.13 1.098-4.003 2.712-5.617 4.843-1.55 2.13-2.777 4.681-3.681 7.651-.904 2.97-1.355 6.295-1.355 9.976Zm89.237-6.392c-.452-2.777-1.226-5.263-2.324-7.458-1.033-2.195-2.292-4.068-3.777-5.617-1.485-1.55-3.164-2.712-5.037-3.487a13.396 13.396 0 0 0-5.714-1.259c-2.001 0-3.938.419-5.811 1.259-1.808.775-3.454 1.937-4.939 3.487-1.485 1.549-2.777 3.422-3.875 5.617-1.033 2.195-1.775 4.681-2.227 7.458h33.704Zm-34.285 6.392c0 2.712.387 5.391 1.162 8.039.839 2.647 2.034 5.036 3.584 7.167 1.614 2.13 3.551 3.841 5.811 5.133 2.324 1.291 4.971 1.937 7.942 1.937a29.45 29.45 0 0 0 7.167-.872 21.356 21.356 0 0 0 6.586-2.809c2.001-1.291 3.745-2.97 5.23-5.036 1.549-2.131 2.744-4.746 3.583-7.845l.969.291a24.232 24.232 0 0 1-3.293 7.748 23.303 23.303 0 0 1-5.521 6.005c-2.131 1.678-4.552 3.002-7.264 3.971-2.647.968-5.488 1.452-8.523 1.452-3.487 0-6.747-.548-9.782-1.646-3.035-1.098-5.714-2.712-8.039-4.843-2.26-2.13-4.067-4.745-5.423-7.845-1.292-3.164-1.937-6.779-1.937-10.847 0-3.81.645-7.264 1.937-10.363 1.356-3.1 3.163-5.747 5.423-7.942a24.189 24.189 0 0 1 8.039-5.037c3.035-1.226 6.295-1.84 9.782-1.84 2.906 0 5.682.452 8.329 1.356a22.458 22.458 0 0 1 7.168 3.777 21.918 21.918 0 0 1 5.52 5.908c1.55 2.325 2.68 4.908 3.39 7.749v.871l-41.453.097a38.378 38.378 0 0 0-.387 5.424Zm47.866-42.615v-.969h12.591v62.083c0 3.163 1.582 4.745 4.745 4.745h.097v.969h-17.433v-.969h.097c3.164 0 4.746-1.582 4.746-4.745V156.08c0-3.164-1.582-4.746-4.746-4.746h-.097Zm83.39-.969c-4.52 0-8.491.904-11.913 2.712-3.422 1.808-6.263 4.262-8.523 7.361-2.26 3.035-3.939 6.618-5.036 10.751-1.098 4.067-1.647 8.426-1.647 13.075 0 4.326.452 8.555 1.356 12.687.969 4.068 2.518 7.684 4.649 10.848 2.131 3.099 4.907 5.617 8.329 7.554 3.487 1.873 7.748 2.809 12.785 2.809 2.066 0 4.326-.162 6.779-.484 2.518-.388 4.843-1.001 6.974-1.841 2.195-.839 4.067-1.969 5.617-3.389 1.614-1.421 2.518-3.164 2.712-5.23l.387-3.875h.872l-1.065 10.17c-1.356.71-2.97 1.42-4.843 2.131a66.21 66.21 0 0 1-5.714 1.743 63.802 63.802 0 0 1-6.102 1.259c-2.002.323-3.874.484-5.617.484-4.843 0-9.395-.71-13.656-2.13-4.197-1.485-7.878-3.681-11.042-6.586-3.163-2.906-5.682-6.522-7.554-10.848-1.808-4.39-2.68-9.491-2.615-15.302-.065-5.812.807-10.88 2.615-15.206 1.872-4.391 4.391-8.039 7.554-10.945 3.164-2.905 6.845-5.068 11.042-6.489 4.261-1.485 8.813-2.227 13.656-2.227 3.551 0 6.941.549 10.169 1.646 3.229 1.033 6.231 2.389 9.007 4.068v-4.746h.969v11.623h-.969c-.322-2.067-1.13-3.842-2.421-5.327a14.95 14.95 0 0 0-4.649-3.584c-1.743-.968-3.68-1.646-5.811-2.034a30.279 30.279 0 0 0-6.295-.678Zm29.163.969v-.969h12.591v62.083c0 3.163 1.582 4.745 4.745 4.745h.097v.969h-17.433v-.969h.097c3.163 0 4.745-1.582 4.745-4.745V156.08c0-3.164-1.582-4.746-4.745-4.746h-.097Zm28.11 22.76c0-2.26-1.615-3.39-4.843-3.39v-.968h12.591v27.893c0 2.712.097 5.295.29 7.748.194 2.454.614 4.649 1.259 6.586.711 1.873 1.679 3.358 2.906 4.456 1.291 1.097 2.97 1.646 5.036 1.646 2.325 0 4.423-.613 6.296-1.84a19.192 19.192 0 0 0 4.939-4.746 25.625 25.625 0 0 0 3.196-6.198c.84-2.196 1.324-4.23 1.453-6.102v-25.085c0-2.26-1.614-3.39-4.842-3.39v-.968h12.59v42.712c0 3.163 1.582 4.745 4.746 4.745h.097v.969h-12.591V204.99a29.673 29.673 0 0 1-2.324 5.327 21.856 21.856 0 0 1-3.487 4.552 16.278 16.278 0 0 1-4.649 3.099c-1.679.775-3.487 1.162-5.424 1.162-3.486 0-6.36-.516-8.619-1.549-2.196-1.098-3.939-2.551-5.23-4.359-1.292-1.808-2.196-3.906-2.712-6.295-.452-2.454-.678-5.036-.678-7.748v-25.085Zm51.528-22.76v-.969h12.591v21.114c.71-.258 1.517-.516 2.421-.775a40.477 40.477 0 0 1 3.003-.871 27.202 27.202 0 0 1 3.099-.775c1.097-.194 2.066-.291 2.905-.291 3.487 0 6.748.614 9.782 1.84 3.035 1.163 5.682 2.841 7.942 5.037 2.325 2.195 4.133 4.842 5.424 7.942 1.356 3.099 2.034 6.553 2.034 10.363 0 4.068-.678 7.683-2.034 10.847-1.291 3.1-3.099 5.715-5.424 7.845-2.26 2.131-4.907 3.745-7.942 4.843-3.034 1.098-6.295 1.646-9.782 1.646-4.907 0-9.362-1.097-13.365-3.293l-4.843 2.325h-.968V156.08c0-3.164-1.582-4.746-4.746-4.746h-.097Zm41.453 42.615c0-3.681-.452-7.006-1.356-9.976-.904-2.97-2.163-5.521-3.777-7.651-1.55-2.131-3.39-3.745-5.521-4.843-2.131-1.162-4.391-1.743-6.78-1.743-2.195 0-4.261.484-6.198 1.453-1.937.968-3.681 2.324-5.23 4.067v38.354c1.549 1.614 3.293 2.776 5.23 3.486 1.937.711 4.003 1.066 6.198 1.066 2.389 0 4.649-.452 6.78-1.356 2.131-.904 3.971-2.325 5.521-4.262 1.614-1.937 2.873-4.422 3.777-7.457.904-3.099 1.356-6.812 1.356-11.138Z" style="fill:#fff;fill-opacity:1"/><g fill="#E4FF02" filter="url(#a)"><path d="M436.289 40.062a16.07 16.07 0 0 0-9.888 4.644 15.996 15.996 0 0 0-4.65 9.874c3.957.458 8.166 2.478 11.62 5.927 3.457 3.45 5.482 7.654 5.937 11.602a16.057 16.057 0 0 0 9.892-4.64 15.986 15.986 0 0 0 4.647-9.874c-3.948-.458-8.164-2.477-11.618-5.927-3.453-3.45-5.478-7.654-5.94-11.606Z"/><path d="M453.912 55.6a16.031 16.031 0 0 0-4.707-10.898c-3.022-3.02-6.953-4.58-10.917-4.702.446 3.455 2.284 7.169 5.365 10.245 3.081 3.077 6.795 4.909 10.259 5.354ZM421.691 56.574a16.01 16.01 0 0 0 4.71 10.894 16.052 16.052 0 0 0 10.911 4.7c-.446-3.452-2.281-7.162-5.364-10.239-3.079-3.075-6.798-4.908-10.257-5.355Z"/></g><defs><filter id="a" width="40.221" height="40.167" x="417.691" y="40" color-interpolation-filters="sRGB" filterUnits="userSpaceOnUse"><feFlood flood-opacity="0" result="BackgroundImageFix"/><feColorMatrix in="SourceAlpha" result="hardAlpha" values="0 0 0 0 0 0 0 0 0 0 0 0 0 0 0 0 0 0 127 0"/><feOffset dy="4"/><feGaussianBlur stdDeviation="2"/><feComposite in2="hardAlpha" operator="out"/><feColorMatrix values="0 0 0 0 0.117647 0 0 0 0 0.117647 0 0 0 0 0.117647 0 0 0 0.1 0"/><feBlend in2="BackgroundImageFix" result="effect1_dropShadow_0_1"/><feBlend in="SourceGraphic" in2="effect1_dropShadow_0_1" result="shape"/></filter></defs></svg>
