<svg xmlns="http://www.w3.org/2000/svg" width="125" height="25" fill="none"><mask id="a" width="125" height="25" x="0" y="0" maskUnits="userSpaceOnUse" style="mask-type:luminance"><path fill="#fff" d="M124.129 0H0v24.281h124.129V0Z"/></mask><g mask="url(#a)"><path fill="#fff" d="M35.714 7.623c1.143 0 2.178.436 2.994 1.361.817.871 1.253 1.96 1.253 3.267 0 1.306-.436 2.395-1.253 3.266-.816.871-1.796 1.307-2.994 1.307-1.198 0-2.123-.436-2.776-1.252v4.464h-2.233V7.896h2.233V8.93c.653-.871 1.578-1.307 2.776-1.307Zm-2.123 6.315c.435.436 1.034.654 1.687.654.654 0 1.253-.218 1.688-.654.49-.435.708-1.034.708-1.742 0-.707-.218-1.306-.708-1.742-.435-.49-1.034-.708-1.688-.708-.653 0-1.252.218-1.687.708-.436.436-.654 1.034-.654 1.742s.218 1.307.654 1.742ZM48.072 8.875V7.84h2.233v8.657h-2.233v-1.035c-.653.817-1.633 1.253-2.83 1.253-1.144 0-2.124-.436-2.995-1.307-.817-.871-1.252-1.96-1.252-3.267 0-1.252.381-2.34 1.252-3.266.817-.871 1.797-1.361 2.994-1.361 1.253.109 2.178.544 2.831 1.36Zm-4.083 5.063c.436.435 1.035.653 1.688.653.708 0 1.252-.218 1.688-.653.49-.436.707-1.035.707-1.742 0-.708-.217-1.307-.707-1.742-.436-.49-1.035-.708-1.688-.708-.708 0-1.252.218-1.688.708-.435.435-.653 1.034-.653 1.742a2.184 2.184 0 0 0 .653 1.742ZM54.606 16.497h-2.233V3.867h2.233v12.63ZM63.208 8.875V7.84h2.232v8.657h-2.232v-1.035c-.654.817-1.634 1.253-2.831 1.253-1.144 0-2.124-.436-2.995-1.307-.816-.871-1.252-1.96-1.252-3.267 0-1.252.436-2.34 1.252-3.266.817-.871 1.797-1.361 2.995-1.361 1.197.109 2.177.544 2.83 1.36Zm-4.138 5.063c.436.435 1.034.653 1.742.653s1.252-.218 1.688-.653c.49-.436.708-1.035.708-1.742 0-.708-.218-1.307-.708-1.742-.436-.49-1.035-.708-1.688-.708s-1.252.218-1.742.708c-.435.435-.653 1.034-.653 1.742 0 .707.218 1.306.653 1.742ZM69.686 16.498h-2.232V7.842h2.233v8.656ZM85.475 7.623c.98 0 1.742.327 2.34.926.6.653.872 1.47.872 2.558v5.39h-1.144v-5.39c0-.762-.218-1.306-.599-1.742-.38-.435-.87-.599-1.524-.599-.762 0-1.361.273-1.742.763-.436.49-.653 1.252-.653 2.232v4.79H81.88v-5.39c0-.761-.163-1.306-.544-1.741-.381-.436-.871-.6-1.47-.6-.708 0-1.307.273-1.797.763-.435.49-.707 1.252-.707 2.178v4.79h-1.144V7.896h1.144v1.252c.598-.98 1.524-1.47 2.667-1.47 1.252 0 2.123.545 2.613 1.58.654-1.09 1.634-1.634 2.832-1.634ZM94.947 7.623c1.307 0 2.341.436 3.103 1.361.817.926 1.198 1.96 1.198 3.212 0 .055 0 .218-.054.545h-7.568c.109.87.49 1.579 1.089 2.069.599.544 1.415.762 2.341.762 1.307 0 2.232-.49 2.777-1.47l.98.599c-.382.598-.926 1.088-1.58 1.47a5.005 5.005 0 0 1-2.231.544c-1.361 0-2.45-.436-3.321-1.307-.871-.87-1.307-1.96-1.307-3.266 0-1.307.436-2.396 1.252-3.267.871-.816 1.96-1.252 3.321-1.252Zm0 1.089c-.925 0-1.633.272-2.286.817a3.352 3.352 0 0 0-1.09 2.123h6.425c-.109-.926-.49-1.633-1.034-2.123-.6-.545-1.253-.817-2.015-.817ZM108.45 9.528V4.355h1.143v12.141h-1.143v-1.688c-.817 1.253-1.96 1.906-3.485 1.906-1.252 0-2.286-.436-3.157-1.307-.871-.87-1.307-1.96-1.307-3.212 0-1.252.436-2.34 1.307-3.212.871-.871 1.905-1.307 3.157-1.307 1.525-.054 2.722.6 3.485 1.852Zm-5.826 5.063c.654.653 1.47.98 2.396.98.925 0 1.742-.327 2.395-.98.653-.708.98-1.47.98-2.45 0-.98-.327-1.742-.98-2.45-.653-.653-1.47-.98-2.395-.98-.926 0-1.742.327-2.396.98-.653.653-.98 1.47-.98 2.45 0 .98.327 1.796.98 2.45ZM113.132 16.498h-1.144V7.842h1.144v8.656ZM122.985 9.528V7.84h1.144v8.657h-1.144v-1.688c-.816 1.252-1.96 1.905-3.484 1.905-1.252 0-2.287-.435-3.158-1.306s-1.306-1.96-1.306-3.212c0-1.252.435-2.341 1.306-3.212s1.906-1.307 3.158-1.307c1.524-.054 2.722.599 3.484 1.851Zm-5.825 5.063c.653.654 1.47.98 2.395.98.98 0 1.743-.326 2.396-.98.653-.708.98-1.47.98-2.45 0-.98-.327-1.742-.98-2.45-.653-.653-1.47-.98-2.396-.98-.98 0-1.742.327-2.395.98-.653.654-.98 1.47-.98 2.45 0 .98.327 1.797.98 2.45Z"/><path fill="url(#b)" d="M67.563 3.322c0 .055.11.762-.109 1.035-.163.272-.38.707-.272 1.143.109.762.871 1.252 1.633 1.143.763-.109 1.253-.816 1.144-1.579-.055-.163-.055-.326-.164-.435-.38-1.252-.109-1.47-.109-1.47s-.598.272-.544.98c-.163-.218-.925-1.252-.435-2.341 0 0-.273.109-.436.435-.163.273-.327.817-.163 1.688.054.381-.055.708-.164.817A1.2 1.2 0 0 0 68 4.302c-.055-.326-.11-.708-.436-.98Z"/><path fill="url(#c)" d="M24.281 12.14C24.281 5.445 18.837 0 12.141 0 5.444 0 0 5.444 0 12.14c0 6.697 5.444 12.141 12.14 12.141 6.697 0 12.141-5.444 12.141-12.14Z"/><path fill="#fff" d="M9.255 8.165c-.054.054-.054.054 0 .054 0 0 .327 2.232-.327 3.212-.598.817-1.197 2.178-.925 3.594.381 2.34 2.668 3.92 5.009 3.538 2.34-.38 3.92-2.613 3.538-4.954-.054-.272-.108-.544-.217-.762-.164-.381-.327-.762-.436-1.198-.98-3.321-.163-4.029-.109-4.029v-.109l-.054-.054s-1.851.871-1.688 3.103c-.49-.653-2.776-3.865-1.307-7.35v-.108c-.054 0-.762.38-1.36 1.36-.545.926-1.09 2.56-.49 5.227.217 1.252-.273 2.232-.49 2.613.108-.435.163-.87.163-1.36-.11-.763-.272-1.96-1.307-2.777Z"/></g><defs><linearGradient id="b" x1="67.99" x2="68.795" y1="1.834" y2="6.671" gradientUnits="userSpaceOnUse"><stop stop-color="#FFD008"/><stop offset="1" stop-color="#FDBF23"/></linearGradient><linearGradient id="c" x1="12.132" x2="12.132" y1="-.012" y2="24.265" gradientUnits="userSpaceOnUse"><stop stop-color="#FFD008"/><stop offset="1" stop-color="#FDBF23"/></linearGradient></defs></svg>
