<svg width="623" height="235" viewBox="0 0 623 235" fill="none" xmlns="http://www.w3.org/2000/svg">
<path d="M407.533 142H353.676L345.422 122.805H304.565L296.724 142H290.533L348.724 0L407.533 142ZM348.724 16.0988L328.501 65.8401L349.755 116.82H390.613L348.724 16.0988ZM307.247 116.82H343.152L324.994 73.8895L307.247 116.82ZM352.025 122.805L357.803 136.015H398.66L393.295 122.805H352.025Z" fill="white"/>
<path d="M289.112 0.00455676C293.623 0.00455676 297.853 0.635668 301.8 1.89789C305.889 3.16011 309.413 5.05344 312.374 7.57788C315.864 10.5541 318.753 15.3514 320.426 19.3328C322.264 23.7038 323.533 33.61 323.533 38.3784C323.533 43.1468 322.259 53.7776 320.426 57.424C318.734 61.0704 316.552 65.2432 313.016 68.1216C309.479 71 306.587 72.6162 302.498 73.8784C298.551 75.1406 293.623 75.7973 289.112 75.7973L252.779 75.7928V142H214.533V0L289.112 0.00455676ZM252.779 69.4816L289.112 69.4862C292.778 69.4862 296.232 68.9953 299.474 68.0136C302.858 67.0319 305.748 65.5593 308.144 63.5958V63.5958C314.067 59.013 315.876 51.0047 316.547 43.5459C316.73 41.5131 316.84 39.6636 316.84 38.3784C316.84 36.1805 316.518 32.3321 316.061 28.7391C315.492 24.2728 314.269 20.3167 311.724 16.6029V16.6029C309.689 13.6339 306.829 10.6676 303.578 9.12293C302.302 8.51652 300.934 8.0015 299.474 7.57788C296.232 6.59616 292.778 6.10529 289.112 6.10529L252.779 6.10074V69.4816ZM220.666 75.7928V135.899H246.435V75.7928H220.666ZM220.666 6.10074V69.4816H246.435V6.10074H220.666Z" fill="white"/>
<path d="M573.299 178.088H580.41L597.597 205.603H598.105L615.037 178.088H622.064L600.899 211.699V233.118H594.634V211.783L573.299 178.088Z" fill="white"/>
<path d="M568.096 182.588L565.472 187.667C560.279 184.168 554.861 182.418 549.217 182.418C542.444 182.418 536.884 184.591 532.538 188.937C528.193 193.283 526.02 198.814 526.02 205.531C526.02 212.699 528.164 218.315 532.454 222.379C536.8 226.386 542.359 228.39 549.132 228.39C552.688 228.39 555.708 228.051 558.191 227.374C560.731 226.64 563.44 225.342 566.319 223.479L568.181 229.067C562.876 232.51 556.216 234.231 548.201 234.231C544.476 234.231 540.92 233.667 537.534 232.538C534.203 231.353 531.184 229.631 528.475 227.374C525.766 225.06 523.621 222.04 522.04 218.315C520.46 214.533 519.67 210.272 519.67 205.531C519.67 197.178 522.52 190.348 528.221 185.043C533.978 179.681 540.976 177 549.217 177C556.611 177 562.904 178.863 568.096 182.588Z" fill="white"/>
<path d="M460.264 178.088H467.037L505.134 225.583L504.796 208.735V178.088H510.807V233.118H503.78L465.682 185.284L466.275 204.756V233.118H460.264V178.088Z" fill="white"/>
<path d="M415.207 233.118V178.088H449.664V183.506H421.557V201.709H446.87V207.127H421.557V227.615H450.934V233.118H415.207Z" fill="white"/>
<path d="M383.783 204.43H404.61V227.712C398.627 232.058 391.177 234.231 382.259 234.231C377.123 234.231 372.439 233.159 368.206 231.014C364.029 228.869 360.614 225.596 357.962 221.193C355.309 216.791 353.982 211.598 353.982 205.616C353.982 197.262 356.804 190.405 362.449 185.043C368.093 179.681 375.007 177 383.191 177C391.036 177 397.809 178.863 403.51 182.588L400.8 187.583C395.777 184.14 389.907 182.418 383.191 182.418C376.305 182.418 370.774 184.591 366.597 188.937C362.42 193.283 360.332 198.843 360.332 205.616C360.332 212.558 362.505 218.146 366.851 222.379C371.197 226.612 376.615 228.728 383.106 228.728C388.976 228.728 394.14 227.43 398.599 224.834V209.679H383.783V204.43Z" fill="white"/>
<path d="M319.87 178.088H327.32L351.026 233.118H344.337L336.464 214.577H310.303L302.599 233.118H296.08L319.87 178.088ZM322.833 184.607L312.504 209.328H334.263L324.018 184.607H322.833Z" fill="white"/>
<path d="M257.121 178.088H263.47V233.118H257.121V207.042H224.949V233.118H218.6V178.088H224.949V201.624H257.121V178.088Z" fill="white"/>
<path d="M210.018 182.588L207.394 187.667C202.201 184.168 196.783 182.418 191.139 182.418C184.366 182.418 178.806 184.591 174.46 188.937C170.114 193.283 167.941 198.814 167.941 205.531C167.941 212.699 170.086 218.315 174.376 222.379C178.722 226.386 184.281 228.39 191.054 228.39C194.61 228.39 197.629 228.051 200.113 227.374C202.653 226.64 205.362 225.342 208.24 223.479L210.103 229.067C204.797 232.51 198.137 234.231 190.123 234.231C186.398 234.231 182.842 233.667 179.455 232.538C176.125 231.353 173.106 229.631 170.397 227.374C167.687 225.06 165.543 222.04 163.962 218.315C162.382 214.533 161.592 210.272 161.592 205.531C161.592 197.178 164.442 190.348 170.143 185.043C175.9 179.681 182.898 177 191.139 177C198.533 177 204.826 178.863 210.018 182.588Z" fill="white"/>
<path d="M102.191 178.088H108.964L147.062 225.583L146.723 208.735V178.088H152.734V233.118H145.708L107.61 185.284L108.202 204.756V233.118H102.191V178.088Z" fill="white"/>
<path d="M63.4052 178.088H70.8554L94.5607 233.118H87.8724L79.9989 214.577H53.8384L46.1342 233.118H39.6152L63.4052 178.088ZM66.3683 184.607L56.0396 209.328H77.7977L67.5536 184.607H66.3683Z" fill="white"/>
<path d="M0 178.088H18.6256C24.8905 178.088 30.0267 179.612 34.034 182.66C38.0413 185.651 40.045 189.771 40.045 195.02C40.045 200.439 38.0695 204.672 34.1187 207.719C30.1678 210.767 25.0034 212.291 18.6256 212.291H6.34963V233.118H0V178.088ZM6.34963 183.506V206.788H17.3556C28.2488 206.788 33.6954 202.866 33.6954 195.02C33.6954 187.344 28.2488 183.506 17.3556 183.506H6.34963Z" fill="white"/>
</svg>
