<svg xmlns="http://www.w3.org/2000/svg" width="135" height="52" fill="none"><path fill="#fff" d="M63.786 9.77c.194-.158.361-.167.5-.028.138.14.088.334-.153.584-.37.334-.795.557-1.276.668-.48.102-.966.158-1.456.167-1.48.037-2.709-.403-3.689-1.321-.98-.928-1.47-2.184-1.47-3.77 0-1.595.615-2.963 1.845-4.103C59.317.827 60.985.256 63.093.256c1.276.028 2.348.348 3.217.96.87.612 1.549 1.335 2.039 2.17.064.13.162.157.291.083l6.005-3.13c.268-.12.462-.102.582.056.12.148.088.297-.096.445-.657.473-.745 1.131-.264 1.975.49.835 1.285 1.697 2.385 2.587 2.191 1.818 3.227 3.668 3.107 5.55-.111 1.883-.79 3.686-2.039 5.411-1.424 1.938-2.829 3.223-4.216 3.853-1.387.64-3.037.427-4.95-.64a.214.214 0 0 0-.223-.014.214.214 0 0 0-.11.167c-.139 1.169-.38 2.147-.722 2.935-.332.788-.845 1.512-1.539 2.17-.13.12-.25.14-.36.056-.112-.084-.12-.204-.028-.362.712-1.493.947-3.491.707-5.995 0-.084-.046-.144-.139-.18-1.849-.724-3.23-.64-4.146.25-.157.157-.31.185-.458.083-.139-.111-.143-.255-.014-.431 1.443-1.883 2.848-2.88 4.216-2.99.074-.01.125-.033.153-.07.037-.037.055-.098.055-.181-.11-1.196-.226-2.388-.347-3.575l-.332-3.589c-.139-1.353-.597-2.522-1.373-3.505-.777-.992-1.743-1.497-2.899-1.516-1.239-.065-2.283.241-3.134.918-.85.668-1.276 1.609-1.276 2.824 0 1.215.389 2.174 1.165 2.88.786.704 1.83 1.056 3.134 1.056.934.019 1.701-.227 2.302-.737ZM68.82 4.4c.158.427.264.854.32 1.28.064.427.106.83.124 1.21.056 1.976.042 3.65-.041 5.022a128.333 128.333 0 0 0-.153 3.77c0 .11.042.18.125.208a15.6 15.6 0 0 1 1.484.78c1.876 1.084 3.365 1.515 4.466 1.293 1.109-.223 1.996-.863 2.662-1.92 1.46-2.318.55-4.808-2.732-7.47-1.118-.89-2.061-1.747-2.83-2.573-.757-.825-1.164-1.692-1.22-2.6 0-.112-.036-.181-.11-.21a.267.267 0 0 0-.223.015l-1.76.918c-.13.065-.167.157-.112.278Zm19.72 13.855c-.47.361-.988.76-1.552 1.196-.564.427-1.087.82-1.567 1.182-.167.13-.301.186-.403.167-.092-.018-.13-.102-.11-.25 0-.195-.287-.566-.86-1.113-1.507-1.419-2.233-3.264-2.177-5.536.055-1.947.956-3.593 2.704-4.938.535-.408 1.035-.839 1.497-1.293a6.977 6.977 0 0 0 1.248-1.656c.149-.287.352-.296.61-.027 1.406 1.595 2.81 2.536 4.217 2.823.444.084.49.26.138.529-.435.315-.67.705-.707 1.168v.028l.041 6.357c0 .426.153.718.458.876.315.158.652.037 1.013-.362.139-.157.268-.194.388-.11.13.073.134.212.013.416-.332.501-.656.992-.97 1.475a9.616 9.616 0 0 0-.777 1.502l-.014.014c-.129.213-.286.213-.471 0a.74.74 0 0 0-.36-.223c-1.055-.232-1.72-.932-1.998-2.1a.367.367 0 0 0-.138-.167.358.358 0 0 0-.222.042Zm.154-8.193c-.574-.158-1.244-.603-2.011-1.335-.37-.445-.666-.487-.888-.125-.98 1.465-1.364 3.083-1.151 4.854.296 2.532 1.183 4.094 2.663 4.688.01 0 .018.004.027.014.38.12.837-.107 1.373-.682a.283.283 0 0 0 .056-.153c-.01-.14-.014-.357-.014-.654l.125-6.384c0-.112-.06-.186-.18-.223Zm11.066 5.133c-.01 1.493.268 2.355.832 2.587a.225.225 0 0 1 .097.195.18.18 0 0 1-.097.166c-.832.631-1.507 1.47-2.024 2.518a.253.253 0 0 1-.209.111.252.252 0 0 1-.208-.11c-.518-1.049-1.22-1.883-2.108-2.505-.055-.037-.083-.097-.083-.18 0-.084.032-.149.098-.195.6-.232.9-1.094.9-2.587v-4.618c0-.946-.175-1.526-.527-1.739-.406-.269-.739-.172-.997.292-.102.195-.219.241-.348.14-.129-.103-.124-.265.014-.488.269-.426.522-.862.764-1.307.249-.445.503-.89.762-1.335.148-.27.356-.325.624-.167l.014.014c1.359.686 2.173 1.525 2.44 2.517.02.102.065.162.139.181.075.019.148 0 .222-.056a81.425 81.425 0 0 0 1.567-1.349c.536-.473.902-.909 1.096-1.307.102-.241.268-.237.499.014a23.967 23.967 0 0 0 1.414 1.39c.398.344 1.069.599 2.011.766.167.037.251.11.251.222.008.102-.047.172-.168.209a1.52 1.52 0 0 0-.637.487c-.185.222-.277.598-.277 1.126v5.884c0 .946.176 1.525.526 1.739.407.25.735.148.985-.306.102-.177.217-.214.346-.112.139.093.139.25 0 .473-.276.436-.54.877-.79 1.322-.24.436-.485.871-.735 1.307-.166.26-.374.32-.624.181-1.682-.816-2.524-2.026-2.524-3.63l.013-7.122c0-.278-.068-.459-.207-.542h-.014v-.028l-1.178-.974a.271.271 0 0 0-.32-.014l-1.442 1.127c-.064.046-.097.102-.097.167v5.536ZM112.117.84c-.731.204-1.087.635-1.068 1.294.009.417.245.806.708 1.168a3.95 3.95 0 0 0 1.649.71.04.04 0 0 1 .028.013c1.941.724 3.629 1.67 5.062 2.838 1.442 1.168 2.26 2.865 2.454 5.09v.043c-.194 1.669-.596 3.06-1.206 4.172-.611 1.113-1.331 1.962-2.164 2.546l-.013.028c-.389.334-.847.63-1.374.89-.526.26-.994.528-1.401.807-.258.176-.425.176-.498 0-.518-1.234-1.946-2.175-4.286-2.824-.138-.028-.212-.097-.221-.209-.01-.11.042-.19.153-.236.581-.223.873-.84.873-1.85l-.028-5.787c0-.324.147-.477.444-.458.924.12 1.849-.195 2.774-.946.055-.037.082-.107.082-.209a.246.246 0 0 0-.138-.167 52.576 52.576 0 0 0-1.053-.431 17.183 17.183 0 0 1-1.027-.473c-.86-.39-1.498-.895-1.914-1.516-.406-.621-.647-1.238-.72-1.85v-.07c.23-1.77 1.118-2.758 2.662-2.962.24-.038.37.009.388.139.028.13-.028.213-.166.25Zm2.704 7.303a.22.22 0 0 0-.236.027l-.652.515c-.185.14-.278.306-.278.5l.057 6.872c0 .14.055.237.166.292l2.995 1.767c.241.148.463.093.666-.167.832-1.178 1.151-2.74.957-4.688-.186-1.956-.985-3.435-2.4-4.437-.258-.176-.683-.403-1.275-.681Zm14.02 10.112c-.471.361-.989.76-1.553 1.196-.564.427-1.086.82-1.567 1.182-.166.13-.301.186-.403.167-.092-.018-.129-.102-.11-.25 0-.195-.287-.566-.86-1.113-1.507-1.419-2.232-3.264-2.178-5.536.057-1.947.958-3.593 2.705-4.938.536-.408 1.036-.839 1.498-1.293a7.017 7.017 0 0 0 1.248-1.656c.147-.287.351-.296.61-.027 1.405 1.595 2.811 2.536 4.216 2.823.444.084.49.26.139.529-.434.315-.671.705-.708 1.168v.028l.042 6.357c0 .426.153.718.458.876.314.158.651.037 1.012-.362.138-.157.267-.194.389-.11.129.073.134.212.013.416-.333.501-.656.992-.971 1.475a9.579 9.579 0 0 0-.775 1.502l-.015.014c-.13.213-.286.213-.471 0a.742.742 0 0 0-.361-.223c-1.054-.232-1.72-.932-1.997-2.1a.375.375 0 0 0-.139-.167.356.356 0 0 0-.222.042Zm.153-8.193c-.573-.158-1.244-.603-2.011-1.335-.37-.445-.666-.487-.888-.125-.979 1.465-1.364 3.083-1.15 4.854.295 2.532 1.183 4.094 2.662 4.688.01 0 .018.004.028.014.379.12.836-.107 1.373-.682a.282.282 0 0 0 .055-.153c-.009-.14-.014-.357-.014-.654l.125-6.384c0-.112-.06-.186-.18-.223Zm-65.36 30.949c.018-.52-.106-.84-.375-.96-.258-.13-.813-.097-1.664.097-1.313.316-2.487.024-3.522-.876-1.036-.9-1.553-2.24-1.553-4.02.009-1.77.651-3.301 1.927-4.59 1.276-1.289 2.802-1.933 4.577-1.933.804 0 1.678.2 2.62.598a6.356 6.356 0 0 1 2.413 1.78c.056.074.117.107.181.098.065-.01.12-.051.167-.125a5.658 5.658 0 0 1 1.567-1.684c.647-.454 1.502-.667 2.565-.64 1.378.066 2.612.919 3.703 2.56.055.083.124.125.208.125.083 0 .148-.046.194-.139a5.57 5.57 0 0 1 1.47-1.78c.592-.464 1.331-.696 2.22-.696 1.136.019 2.075.366 2.814 1.043.74.677 1.276 1.813 1.608 3.408.204 1.104.63 1.688 1.277 1.753.184.009.282.088.291.236.018.149-.093.26-.333.334-1.793.612-3.028 1.595-3.703 2.949-.675 1.344-.647 3.06.084 5.146.323.946.785 1.614 1.386 2.003.61.38 1.277.348 1.997-.097.268-.158.467-.153.597.014.138.158.115.315-.07.473-.628.5-1.252 1.001-1.872 1.502-.61.492-1.225.983-1.844 1.474-.102.075-.2.075-.291 0-1.97-1.585-3.158-3.347-3.565-5.285-.397-1.938.879-4.233 3.828-6.885.065-.065.093-.13.083-.195 0-.065-.041-.12-.125-.167-.647-.436-1.123-1.553-1.428-3.352-.324-1.78-1.044-2.68-2.163-2.699-.796-.018-1.47.566-2.025 1.753a.182.182 0 0 0 0 .195c.36.77.62 1.627.777 2.573.166.946.175 1.947.027 3.004-.37 2.56-.92 4.493-1.65 5.8a31.476 31.476 0 0 1-2.58 3.895c-1.322 1.66-2.57 1.841-3.744.543-.333-.371-.684-.612-1.054-.723-.36-.112-.776.018-1.248.389-.176.148-.328.167-.458.056-.12-.12-.11-.27.028-.445 1.184-1.651 2.122-2.592 2.815-2.824.703-.232 1.387-.037 2.053.584.545.51 1.045.784 1.497.82.463.038.823-.305 1.082-1.029.5-1.39.675-3.333.527-5.828-.139-2.503-.642-4.423-1.511-5.758-.86-1.335-1.683-2.12-2.47-2.351-.776-.241-1.483-.037-2.121.612-.092.093-.097.19-.013.292 1.1 1.53 1.692 3.301 1.775 5.314a10.481 10.481 0 0 1-.957 4.757 21.765 21.765 0 0 1-2.677 4.353c-1.193 1.521-2.325 2.393-3.398 2.615-1.063.223-2.038-.32-2.926-1.627-.776-1.168-1.567-1.312-2.371-.431-.194.167-.37.171-.527.014-.148-.158-.125-.339.07-.543 2.523-2.578 4.506-2.916 5.949-1.015.23.315.448.607.651.876.213.269.527.394.943.376.537-.019 1.1-.608 1.692-1.767.592-1.159.888-2.62.888-4.381-.018-2.31-.62-4.33-1.803-6.065-1.183-1.743-2.538-2.698-4.063-2.865-1.526-.158-2.728.13-3.606.862-.878.733-1.304 1.6-1.276 2.601.028 1.02.296 1.836.804 2.448.518.612 1.47.737 2.857.376 2.672-.686 3.832.301 3.481 2.963-.037.278-.166.421-.388.43-.213 0-.32-.106-.32-.32Zm28.319 8.081c-.02-.222-.14-.39-.361-.5a3.927 3.927 0 0 1-.54-.334c-1.064-.724-1.818-1.605-2.262-2.643a9.819 9.819 0 0 1-.734-3.325c-.111-2.642.6-4.655 2.135-6.036a6.822 6.822 0 0 1 1.886-1.196c.712-.316 1.442-.57 2.191-.766.231-.046.403.07.513.348l1.997 4.702c.093.25.06.408-.097.473h-.027l-5.686 2.211c-.11.056-.157.144-.14.264.454 2.06 1.212 3.38 2.276 3.965 1.062.575 2.121.658 3.175.25.186-.083.3-.07.347.042.055.111.023.195-.098.25-.748.38-1.464.77-2.149 1.169-.674.398-1.28.816-1.817 1.252-.083.055-.207.074-.374.055-.157-.019-.236-.079-.236-.18Zm-1.29-7.859a.27.27 0 0 0 .097.181c.055.037.125.037.208 0l2.954-1.113c.138-.055.18-.153.125-.292l-1.692-4.159c-.084-.203-.25-.231-.5-.083-.536.315-.901 1.034-1.095 2.156a11.394 11.394 0 0 0-.097 3.31Zm10.443-11.906c-.731.204-1.087.635-1.068 1.293.008.418.244.807.707 1.169a3.959 3.959 0 0 0 1.65.71c.009 0 .018.004.028.013 1.941.723 3.628 1.67 5.061 2.838 1.443 1.168 2.262 2.865 2.456 5.09v.042c-.194 1.67-.597 3.06-1.207 4.173-.61 1.113-1.331 1.961-2.164 2.546l-.014.027c-.389.334-.845.631-1.372.89-.527.26-.995.53-1.401.807-.259.177-.425.177-.5 0-.517-1.233-1.945-2.174-4.285-2.823-.139-.028-.212-.098-.221-.209-.01-.111.041-.19.152-.236.582-.223.874-.84.874-1.85l-.028-5.787c0-.324.148-.477.444-.459.925.12 1.849-.194 2.773-.946.056-.037.084-.106.084-.208a.252.252 0 0 0-.138-.167 50.368 50.368 0 0 0-1.056-.431c-.35-.149-.693-.306-1.025-.473-.86-.39-1.499-.895-1.914-1.516-.407-.622-.647-1.238-.721-1.85v-.07c.23-1.771 1.118-2.759 2.662-2.963.241-.037.37.01.389.14.027.13-.028.213-.166.25Zm2.704 7.302a.22.22 0 0 0-.236.028l-.652.515c-.184.139-.277.306-.277.5l.055 6.872c0 .139.056.236.167.292l2.995 1.767c.241.148.462.092.666-.168.831-1.177 1.15-2.74.956-4.687-.184-1.957-.984-3.436-2.398-4.437-.259-.176-.685-.403-1.276-.682Zm8.903 8.805-.097-7.622a.96.96 0 0 0-.084-.432c-.221-.361-.411-.45-.568-.264l-.555.57c-.147.167-.291.186-.43.056-.129-.13-.106-.31.07-.542.407-.51.771-1.02 1.095-1.53.324-.51.657-1.016.999-1.517.148-.176.318-.171.512.014.389.473.769.89 1.137 1.252.37.353.898.728 1.582 1.127.194.074.277.162.25.264-.019.102-.079.158-.181.167-.24.093-.453.255-.638.487-.184.222-.277.598-.277 1.127v5.883c0 .946.175 1.526.527 1.739.407.241.74.14.999-.306.092-.176.203-.213.332-.111.139.092.139.25 0 .473a21.95 21.95 0 0 0-.777 1.321c-.24.436-.484.872-.735 1.308-.176.26-.393.315-.651.166-.832-.398-1.461-.885-1.886-1.46-.416-.575-.624-1.298-.624-2.17Zm2.011-16.51c1.026 0 1.494.496 1.401 1.488-.056.5-.37 1.006-.944 1.516-.563.5-1.013.746-1.345.737-.333 0-.587-.264-.762-.793-.176-.528-.246-1.015-.209-1.46.029-.427.231-.78.61-1.057a2.058 2.058 0 0 1 1.249-.432Zm10.872 17.818c-.472.361-.989.76-1.552 1.196l-1.568 1.182c-.166.13-.301.186-.402.167-.093-.018-.13-.102-.111-.25 0-.195-.287-.566-.86-1.113-1.507-1.419-2.232-3.264-2.177-5.536.055-1.947.957-3.593 2.704-4.938.536-.408 1.035-.84 1.498-1.294a7.015 7.015 0 0 0 1.248-1.655c.147-.287.351-.296.61-.028 1.406 1.595 2.811 2.537 4.216 2.824.444.083.489.26.139.529-.435.315-.671.704-.707 1.168v.028l.041 6.356c0 .427.153.72.458.877.314.157.651.037 1.012-.362.138-.158.268-.195.389-.111.129.074.133.213.013.417-.333.5-.657.992-.971 1.474a9.58 9.58 0 0 0-.776 1.503l-.015.014c-.129.213-.285.213-.47 0a.742.742 0 0 0-.361-.223c-1.054-.232-1.72-.932-1.997-2.1a.375.375 0 0 0-.139-.167.36.36 0 0 0-.222.041Zm.152-8.193c-.572-.158-1.243-.603-2.01-1.335-.37-.445-.666-.487-.887-.126-.981 1.465-1.365 3.084-1.151 4.855.294 2.531 1.182 4.094 2.662 4.687.009 0 .019.005.027.014.38.12.837-.106 1.374-.681a.282.282 0 0 0 .055-.153 11.15 11.15 0 0 1-.014-.654l.125-6.384c0-.112-.06-.186-.181-.223Z"/><mask id="a" width="50" height="52" x="0" y="0" maskUnits="userSpaceOnUse" style="mask-type:luminance"><path fill="#fff" d="M49.164.611H0v50.976h49.164V.61Z"/></mask><g mask="url(#a)"><path fill="#fff" d="m49.164 8.077-1.612-4.941L43.325.61 36.54 4.962l-4.227-1.826-7.454-1.092-.431-.064-.014.002-7.396 1.368-4.226 1.827L5.617.773 1.779 3.297 0 8.131l.222 5.64 3.393 4.836-3.058 7.626 2.78 12.192 20.967 13.16L45.161 38.37l2.78-12.192-3.058-7.627 3.393-4.837.888-5.637Zm-20.8 38.138-3.503.698-3.448-.538-3.393-3.383 2.336.964 3.059-.159 1.446-.859 1.502.698 3.061.161 2.336-.967-3.396 3.385Zm1.058-3.33-4.228-.84v-1.13l4.393-.987 1.448-2.954-1.448 1.29-1.612-.31-3.114.04h-3.058l-1.612.43-1.447-1.288 1.447 2.954 4.392.859v1.127l-4.227.969-2.336-.268-1.89-4.246-.168-2.954 3.058-5.854 2.614-1.397 3.393-.43 3.058.43 2.78 1.289 3.118 5.8-.168 2.955-1.89 4.242-2.503.273Zm17.406-16.276L43.77 37.512l-8.788 5.102-2.613.86 1.891-4.943v-3.383h3.503l2.614-2.256.167-4.942-1.612-1.557-3.503-4.672-3.948 1.397-.614.268-.444 5.21-2.614-.86-3.058-.268-3.393.268-2.503.86-.445-5.372-.612-.268-3.948-1.397-3.503 4.672-1.612 1.719.167 4.942 2.614 2.256h3.503v3.383l1.89 4.944-2.613-.861-8.788-5.102L2.449 26.61l2.783-7.196 8.342-13 3.838-1.989 7.006-1.463 7.68 1.374 3.611 2.077 8.343 13 2.776 7.197Z"/></g></svg>
