<svg width="118" height="118" viewBox="0 0 118 118" fill="none" xmlns="http://www.w3.org/2000/svg">
<path d="M0 0H4.72V4.72H0V0ZM4.72 0H9.44V4.72H4.72V0ZM9.44 0H14.16V4.72H9.44V0ZM14.16 0H18.88V4.72H14.16V0ZM18.88 0H23.6V4.72H18.88V0ZM23.6 0H28.32V4.72H23.6V0ZM28.32 0H33.04V4.72H28.32V0ZM42.48 0H47.2V4.72H42.48V0ZM56.64 0H61.36V4.72H56.64V0ZM61.36 0H66.08V4.72H61.36V0ZM66.08 0H70.8V4.72H66.08V0ZM84.96 0H89.68V4.72H84.96V0ZM89.68 0H94.4V4.72H89.68V0ZM94.4 0H99.12V4.72H94.4V0ZM99.12 0H103.84V4.72H99.12V0ZM103.84 0H108.56V4.72H103.84V0ZM108.56 0H113.28V4.72H108.56V0ZM113.28 0H118V4.72H113.28V0ZM0 4.72H4.72V9.44H0V4.72ZM28.32 4.72H33.04V9.44H28.32V4.72ZM37.76 4.72H42.48V9.44H37.76V4.72ZM42.48 4.72H47.2V9.44H42.48V4.72ZM47.2 4.72H51.92V9.44H47.2V4.72ZM61.36 4.72H66.08V9.44H61.36V4.72ZM75.52 4.72H80.24V9.44H75.52V4.72ZM84.96 4.72H89.68V9.44H84.96V4.72ZM113.28 4.72H118V9.44H113.28V4.72ZM0 9.44H4.72V14.16H0V9.44ZM9.44 9.44H14.16V14.16H9.44V9.44ZM14.16 9.44H18.88V14.16H14.16V9.44ZM18.88 9.44H23.6V14.16H18.88V9.44ZM28.32 9.44H33.04V14.16H28.32V9.44ZM42.48 9.44H47.2V14.16H42.48V9.44ZM47.2 9.44H51.92V14.16H47.2V9.44ZM61.36 9.44H66.08V14.16H61.36V9.44ZM70.8 9.44H75.52V14.16H70.8V9.44ZM84.96 9.44H89.68V14.16H84.96V9.44ZM94.4 9.44H99.12V14.16H94.4V9.44ZM99.12 9.44H103.84V14.16H99.12V9.44ZM103.84 9.44H108.56V14.16H103.84V9.44ZM113.28 9.44H118V14.16H113.28V9.44ZM0 14.16H4.72V18.88H0V14.16ZM9.44 14.16H14.16V18.88H9.44V14.16ZM14.16 14.16H18.88V18.88H14.16V14.16ZM18.88 14.16H23.6V18.88H18.88V14.16ZM28.32 14.16H33.04V18.88H28.32V14.16ZM37.76 14.16H42.48V18.88H37.76V14.16ZM61.36 14.16H66.08V18.88H61.36V14.16ZM75.52 14.16H80.24V18.88H75.52V14.16ZM84.96 14.16H89.68V18.88H84.96V14.16ZM94.4 14.16H99.12V18.88H94.4V14.16ZM99.12 14.16H103.84V18.88H99.12V14.16ZM103.84 14.16H108.56V18.88H103.84V14.16ZM113.28 14.16H118V18.88H113.28V14.16ZM0 18.88H4.72V23.6H0V18.88ZM9.44 18.88H14.16V23.6H9.44V18.88ZM14.16 18.88H18.88V23.6H14.16V18.88ZM18.88 18.88H23.6V23.6H18.88V18.88ZM28.32 18.88H33.04V23.6H28.32V18.88ZM37.76 18.88H42.48V23.6H37.76V18.88ZM42.48 18.88H47.2V23.6H42.48V18.88ZM47.2 18.88H51.92V23.6H47.2V18.88ZM51.92 18.88H56.64V23.6H51.92V18.88ZM61.36 18.88H66.08V23.6H61.36V18.88ZM66.08 18.88H70.8V23.6H66.08V18.88ZM75.52 18.88H80.24V23.6H75.52V18.88ZM84.96 18.88H89.68V23.6H84.96V18.88ZM94.4 18.88H99.12V23.6H94.4V18.88ZM99.12 18.88H103.84V23.6H99.12V18.88ZM103.84 18.88H108.56V23.6H103.84V18.88ZM113.28 18.88H118V23.6H113.28V18.88ZM0 23.6H4.72V28.32H0V23.6ZM28.32 23.6H33.04V28.32H28.32V23.6ZM42.48 23.6H47.2V28.32H42.48V23.6ZM51.92 23.6H56.64V28.32H51.92V23.6ZM84.96 23.6H89.68V28.32H84.96V23.6ZM113.28 23.6H118V28.32H113.28V23.6ZM0 28.32H4.72V33.04H0V28.32ZM4.72 28.32H9.44V33.04H4.72V28.32ZM9.44 28.32H14.16V33.04H9.44V28.32ZM14.16 28.32H18.88V33.04H14.16V28.32ZM18.88 28.32H23.6V33.04H18.88V28.32ZM23.6 28.32H28.32V33.04H23.6V28.32ZM28.32 28.32H33.04V33.04H28.32V28.32ZM37.76 28.32H42.48V33.04H37.76V28.32ZM47.2 28.32H51.92V33.04H47.2V28.32ZM56.64 28.32H61.36V33.04H56.64V28.32ZM66.08 28.32H70.8V33.04H66.08V28.32ZM75.52 28.32H80.24V33.04H75.52V28.32ZM84.96 28.32H89.68V33.04H84.96V28.32ZM89.68 28.32H94.4V33.04H89.68V28.32ZM94.4 28.32H99.12V33.04H94.4V28.32ZM99.12 28.32H103.84V33.04H99.12V28.32ZM103.84 28.32H108.56V33.04H103.84V28.32ZM108.56 28.32H113.28V33.04H108.56V28.32ZM113.28 28.32H118V33.04H113.28V28.32ZM37.76 33.04H42.48V37.76H37.76V33.04ZM42.48 33.04H47.2V37.76H42.48V33.04ZM47.2 33.04H51.92V37.76H47.2V33.04ZM56.64 33.04H61.36V37.76H56.64V33.04ZM61.36 33.04H66.08V37.76H61.36V33.04ZM75.52 33.04H80.24V37.76H75.52V33.04ZM4.72 37.76H9.44V42.48H4.72V37.76ZM14.16 37.76H18.88V42.48H14.16V37.76ZM18.88 37.76H23.6V42.48H18.88V37.76ZM23.6 37.76H28.32V42.48H23.6V37.76ZM28.32 37.76H33.04V42.48H28.32V37.76ZM37.76 37.76H42.48V42.48H37.76V37.76ZM47.2 37.76H51.92V42.48H47.2V37.76ZM66.08 37.76H70.8V42.48H66.08V37.76ZM75.52 37.76H80.24V42.48H75.52V37.76ZM80.24 37.76H84.96V42.48H80.24V37.76ZM84.96 37.76H89.68V42.48H84.96V37.76ZM94.4 37.76H99.12V42.48H94.4V37.76ZM99.12 37.76H103.84V42.48H99.12V37.76ZM108.56 37.76H113.28V42.48H108.56V37.76ZM0 42.48H4.72V47.2H0V42.48ZM4.72 42.48H9.44V47.2H4.72V42.48ZM9.44 42.48H14.16V47.2H9.44V42.48ZM14.16 42.48H18.88V47.2H14.16V42.48ZM18.88 42.48H23.6V47.2H18.88V42.48ZM23.6 42.48H28.32V47.2H23.6V42.48ZM33.04 42.48H37.76V47.2H33.04V42.48ZM56.64 42.48H61.36V47.2H56.64V42.48ZM66.08 42.48H70.8V47.2H66.08V42.48ZM70.8 42.48H75.52V47.2H70.8V42.48ZM89.68 42.48H94.4V47.2H89.68V42.48ZM94.4 42.48H99.12V47.2H94.4V42.48ZM99.12 42.48H103.84V47.2H99.12V42.48ZM103.84 42.48H108.56V47.2H103.84V42.48ZM108.56 42.48H113.28V47.2H108.56V42.48ZM14.16 47.2H18.88V51.92H14.16V47.2ZM23.6 47.2H28.32V51.92H23.6V47.2ZM28.32 47.2H33.04V51.92H28.32V47.2ZM37.76 47.2H42.48V51.92H37.76V47.2ZM47.2 47.2H51.92V51.92H47.2V47.2ZM51.92 47.2H56.64V51.92H51.92V47.2ZM66.08 47.2H70.8V51.92H66.08V47.2ZM70.8 47.2H75.52V51.92H70.8V47.2ZM84.96 47.2H89.68V51.92H84.96V47.2ZM89.68 47.2H94.4V51.92H89.68V47.2ZM94.4 47.2H99.12V51.92H94.4V47.2ZM99.12 47.2H103.84V51.92H99.12V47.2ZM113.28 47.2H118V51.92H113.28V47.2ZM0 51.92H4.72V56.64H0V51.92ZM4.72 51.92H9.44V56.64H4.72V51.92ZM9.44 51.92H14.16V56.64H9.44V51.92ZM33.04 51.92H37.76V56.64H33.04V51.92ZM37.76 51.92H42.48V56.64H37.76V51.92ZM51.92 51.92H56.64V56.64H51.92V51.92ZM66.08 51.92H70.8V56.64H66.08V51.92ZM70.8 51.92H75.52V56.64H70.8V51.92ZM80.24 51.92H84.96V56.64H80.24V51.92ZM99.12 51.92H103.84V56.64H99.12V51.92ZM103.84 51.92H108.56V56.64H103.84V51.92ZM108.56 51.92H113.28V56.64H108.56V51.92ZM113.28 51.92H118V56.64H113.28V51.92ZM0 56.64H4.72V61.36H0V56.64ZM4.72 56.64H9.44V61.36H4.72V56.64ZM14.16 56.64H18.88V61.36H14.16V56.64ZM28.32 56.64H33.04V61.36H28.32V56.64ZM42.48 56.64H47.2V61.36H42.48V56.64ZM47.2 56.64H51.92V61.36H47.2V56.64ZM51.92 56.64H56.64V61.36H51.92V56.64ZM61.36 56.64H66.08V61.36H61.36V56.64ZM66.08 56.64H70.8V61.36H66.08V56.64ZM75.52 56.64H80.24V61.36H75.52V56.64ZM84.96 56.64H89.68V61.36H84.96V56.64ZM89.68 56.64H94.4V61.36H89.68V56.64ZM113.28 56.64H118V61.36H113.28V56.64ZM0 61.36H4.72V66.08H0V61.36ZM14.16 61.36H18.88V66.08H14.16V61.36ZM37.76 61.36H42.48V66.08H37.76V61.36ZM47.2 61.36H51.92V66.08H47.2V61.36ZM51.92 61.36H56.64V66.08H51.92V61.36ZM56.64 61.36H61.36V66.08H56.64V61.36ZM66.08 61.36H70.8V66.08H66.08V61.36ZM70.8 61.36H75.52V66.08H70.8V61.36ZM94.4 61.36H99.12V66.08H94.4V61.36ZM108.56 61.36H113.28V66.08H108.56V61.36ZM0 66.08H4.72V70.8H0V66.08ZM4.72 66.08H9.44V70.8H4.72V66.08ZM9.44 66.08H14.16V70.8H9.44V66.08ZM14.16 66.08H18.88V70.8H14.16V66.08ZM23.6 66.08H28.32V70.8H23.6V66.08ZM28.32 66.08H33.04V70.8H28.32V66.08ZM42.48 66.08H47.2V70.8H42.48V66.08ZM51.92 66.08H56.64V70.8H51.92V66.08ZM56.64 66.08H61.36V70.8H56.64V66.08ZM70.8 66.08H75.52V70.8H70.8V66.08ZM75.52 66.08H80.24V70.8H75.52V66.08ZM80.24 66.08H84.96V70.8H80.24V66.08ZM84.96 66.08H89.68V70.8H84.96V66.08ZM94.4 66.08H99.12V70.8H94.4V66.08ZM99.12 66.08H103.84V70.8H99.12V66.08ZM103.84 66.08H108.56V70.8H103.84V66.08ZM108.56 66.08H113.28V70.8H108.56V66.08ZM113.28 66.08H118V70.8H113.28V66.08ZM0 70.8H4.72V75.52H0V70.8ZM14.16 70.8H18.88V75.52H14.16V70.8ZM33.04 70.8H37.76V75.52H33.04V70.8ZM37.76 70.8H42.48V75.52H37.76V70.8ZM42.48 70.8H47.2V75.52H42.48V70.8ZM47.2 70.8H51.92V75.52H47.2V70.8ZM70.8 70.8H75.52V75.52H70.8V70.8ZM75.52 70.8H80.24V75.52H75.52V70.8ZM89.68 70.8H94.4V75.52H89.68V70.8ZM99.12 70.8H103.84V75.52H99.12V70.8ZM103.84 70.8H108.56V75.52H103.84V70.8ZM113.28 70.8H118V75.52H113.28V70.8ZM0 75.52H4.72V80.24H0V75.52ZM14.16 75.52H18.88V80.24H14.16V75.52ZM23.6 75.52H28.32V80.24H23.6V75.52ZM28.32 75.52H33.04V80.24H28.32V75.52ZM33.04 75.52H37.76V80.24H33.04V75.52ZM37.76 75.52H42.48V80.24H37.76V75.52ZM42.48 75.52H47.2V80.24H42.48V75.52ZM47.2 75.52H51.92V80.24H47.2V75.52ZM56.64 75.52H61.36V80.24H56.64V75.52ZM61.36 75.52H66.08V80.24H61.36V75.52ZM66.08 75.52H70.8V80.24H66.08V75.52ZM70.8 75.52H75.52V80.24H70.8V75.52ZM75.52 75.52H80.24V80.24H75.52V75.52ZM80.24 75.52H84.96V80.24H80.24V75.52ZM84.96 75.52H89.68V80.24H84.96V75.52ZM89.68 75.52H94.4V80.24H89.68V75.52ZM94.4 75.52H99.12V80.24H94.4V75.52ZM103.84 75.52H108.56V80.24H103.84V75.52ZM108.56 75.52H113.28V80.24H108.56V75.52ZM37.76 80.24H42.48V84.96H37.76V80.24ZM42.48 80.24H47.2V84.96H42.48V80.24ZM47.2 80.24H51.92V84.96H47.2V80.24ZM56.64 80.24H61.36V84.96H56.64V80.24ZM75.52 80.24H80.24V84.96H75.52V80.24ZM94.4 80.24H99.12V84.96H94.4V80.24ZM103.84 80.24H108.56V84.96H103.84V80.24ZM108.56 80.24H113.28V84.96H108.56V80.24ZM0 84.96H4.72V89.68H0V84.96ZM4.72 84.96H9.44V89.68H4.72V84.96ZM9.44 84.96H14.16V89.68H9.44V84.96ZM14.16 84.96H18.88V89.68H14.16V84.96ZM18.88 84.96H23.6V89.68H18.88V84.96ZM23.6 84.96H28.32V89.68H23.6V84.96ZM28.32 84.96H33.04V89.68H28.32V84.96ZM42.48 84.96H47.2V89.68H42.48V84.96ZM56.64 84.96H61.36V89.68H56.64V84.96ZM66.08 84.96H70.8V89.68H66.08V84.96ZM75.52 84.96H80.24V89.68H75.52V84.96ZM84.96 84.96H89.68V89.68H84.96V84.96ZM94.4 84.96H99.12V89.68H94.4V84.96ZM113.28 84.96H118V89.68H113.28V84.96ZM0 89.68H4.72V94.4H0V89.68ZM28.32 89.68H33.04V94.4H28.32V89.68ZM37.76 89.68H42.48V94.4H37.76V89.68ZM42.48 89.68H47.2V94.4H42.48V89.68ZM70.8 89.68H75.52V94.4H70.8V89.68ZM75.52 89.68H80.24V94.4H75.52V89.68ZM94.4 89.68H99.12V94.4H94.4V89.68ZM113.28 89.68H118V94.4H113.28V89.68ZM0 94.4H4.72V99.12H0V94.4ZM9.44 94.4H14.16V99.12H9.44V94.4ZM14.16 94.4H18.88V99.12H14.16V94.4ZM18.88 94.4H23.6V99.12H18.88V94.4ZM28.32 94.4H33.04V99.12H28.32V94.4ZM37.76 94.4H42.48V99.12H37.76V94.4ZM42.48 94.4H47.2V99.12H42.48V94.4ZM47.2 94.4H51.92V99.12H47.2V94.4ZM51.92 94.4H56.64V99.12H51.92V94.4ZM61.36 94.4H66.08V99.12H61.36V94.4ZM66.08 94.4H70.8V99.12H66.08V94.4ZM70.8 94.4H75.52V99.12H70.8V94.4ZM75.52 94.4H80.24V99.12H75.52V94.4ZM80.24 94.4H84.96V99.12H80.24V94.4ZM84.96 94.4H89.68V99.12H84.96V94.4ZM89.68 94.4H94.4V99.12H89.68V94.4ZM94.4 94.4H99.12V99.12H94.4V94.4ZM108.56 94.4H113.28V99.12H108.56V94.4ZM113.28 94.4H118V99.12H113.28V94.4ZM0 99.12H4.72V103.84H0V99.12ZM9.44 99.12H14.16V103.84H9.44V99.12ZM14.16 99.12H18.88V103.84H14.16V99.12ZM18.88 99.12H23.6V103.84H18.88V99.12ZM28.32 99.12H33.04V103.84H28.32V99.12ZM37.76 99.12H42.48V103.84H37.76V99.12ZM66.08 99.12H70.8V103.84H66.08V99.12ZM70.8 99.12H75.52V103.84H70.8V99.12ZM75.52 99.12H80.24V103.84H75.52V99.12ZM80.24 99.12H84.96V103.84H80.24V99.12ZM84.96 99.12H89.68V103.84H84.96V99.12ZM108.56 99.12H113.28V103.84H108.56V99.12ZM113.28 99.12H118V103.84H113.28V99.12ZM0 103.84H4.72V108.56H0V103.84ZM9.44 103.84H14.16V108.56H9.44V103.84ZM14.16 103.84H18.88V108.56H14.16V103.84ZM18.88 103.84H23.6V108.56H18.88V103.84ZM28.32 103.84H33.04V108.56H28.32V103.84ZM56.64 103.84H61.36V108.56H56.64V103.84ZM61.36 103.84H66.08V108.56H61.36V103.84ZM66.08 103.84H70.8V108.56H66.08V103.84ZM80.24 103.84H84.96V108.56H80.24V103.84ZM94.4 103.84H99.12V108.56H94.4V103.84ZM99.12 103.84H103.84V108.56H99.12V103.84ZM103.84 103.84H108.56V108.56H103.84V103.84ZM108.56 103.84H113.28V108.56H108.56V103.84ZM113.28 103.84H118V108.56H113.28V103.84ZM0 108.56H4.72V113.28H0V108.56ZM28.32 108.56H33.04V113.28H28.32V108.56ZM37.76 108.56H42.48V113.28H37.76V108.56ZM42.48 108.56H47.2V113.28H42.48V108.56ZM47.2 108.56H51.92V113.28H47.2V108.56ZM61.36 108.56H66.08V113.28H61.36V108.56ZM70.8 108.56H75.52V113.28H70.8V108.56ZM80.24 108.56H84.96V113.28H80.24V108.56ZM89.68 108.56H94.4V113.28H89.68V108.56ZM94.4 108.56H99.12V113.28H94.4V108.56ZM103.84 108.56H108.56V113.28H103.84V108.56ZM108.56 108.56H113.28V113.28H108.56V108.56ZM113.28 108.56H118V113.28H113.28V108.56ZM0 113.28H4.72V118H0V113.28ZM4.72 113.28H9.44V118H4.72V113.28ZM9.44 113.28H14.16V118H9.44V113.28ZM14.16 113.28H18.88V118H14.16V113.28ZM18.88 113.28H23.6V118H18.88V113.28ZM23.6 113.28H28.32V118H23.6V113.28ZM28.32 113.28H33.04V118H28.32V113.28ZM51.92 113.28H56.64V118H51.92V113.28ZM56.64 113.28H61.36V118H56.64V113.28ZM61.36 113.28H66.08V118H61.36V113.28ZM66.08 113.28H70.8V118H66.08V113.28ZM75.52 113.28H80.24V118H75.52V113.28ZM80.24 113.28H84.96V118H80.24V113.28ZM84.96 113.28H89.68V118H84.96V113.28ZM99.12 113.28H103.84V118H99.12V113.28ZM113.28 113.28H118V118H113.28V113.28Z" fill="#130C2C"/>
</svg>
