<svg width="118" height="118" viewBox="0 0 118 118" fill="none" xmlns="http://www.w3.org/2000/svg">
<path d="M0 0H4.06897V4.06897H0V0ZM4.06897 0H8.13793V4.06897H4.06897V0ZM8.13793 0H12.2069V4.06897H8.13793V0ZM12.2069 0H16.2759V4.06897H12.2069V0ZM16.2759 0H20.3448V4.06897H16.2759V0ZM20.3448 0H24.4138V4.06897H20.3448V0ZM24.4138 0H28.4828V4.06897H24.4138V0ZM40.6897 0H44.7586V4.06897H40.6897V0ZM44.7586 0H48.8276V4.06897H44.7586V0ZM52.8966 0H56.9655V4.06897H52.8966V0ZM56.9655 0H61.0345V4.06897H56.9655V0ZM61.0345 0H65.1034V4.06897H61.0345V0ZM65.1034 0H69.1724V4.06897H65.1034V0ZM89.5172 0H93.5862V4.06897H89.5172V0ZM93.5862 0H97.6552V4.06897H93.5862V0ZM97.6552 0H101.724V4.06897H97.6552V0ZM101.724 0H105.793V4.06897H101.724V0ZM105.793 0H109.862V4.06897H105.793V0ZM109.862 0H113.931V4.06897H109.862V0ZM113.931 0H118V4.06897H113.931V0ZM0 4.06897H4.06897V8.13793H0V4.06897ZM24.4138 4.06897H28.4828V8.13793H24.4138V4.06897ZM32.5517 4.06897H36.6207V8.13793H32.5517V4.06897ZM36.6207 4.06897H40.6897V8.13793H36.6207V4.06897ZM48.8276 4.06897H52.8966V8.13793H48.8276V4.06897ZM56.9655 4.06897H61.0345V8.13793H56.9655V4.06897ZM65.1034 4.06897H69.1724V8.13793H65.1034V4.06897ZM77.3103 4.06897H81.3793V8.13793H77.3103V4.06897ZM89.5172 4.06897H93.5862V8.13793H89.5172V4.06897ZM113.931 4.06897H118V8.13793H113.931V4.06897ZM0 8.13793H4.06897V12.2069H0V8.13793ZM8.13793 8.13793H12.2069V12.2069H8.13793V8.13793ZM12.2069 8.13793H16.2759V12.2069H12.2069V8.13793ZM16.2759 8.13793H20.3448V12.2069H16.2759V8.13793ZM24.4138 8.13793H28.4828V12.2069H24.4138V8.13793ZM36.6207 8.13793H40.6897V12.2069H36.6207V8.13793ZM40.6897 8.13793H44.7586V12.2069H40.6897V8.13793ZM44.7586 8.13793H48.8276V12.2069H44.7586V8.13793ZM48.8276 8.13793H52.8966V12.2069H48.8276V8.13793ZM56.9655 8.13793H61.0345V12.2069H56.9655V8.13793ZM77.3103 8.13793H81.3793V12.2069H77.3103V8.13793ZM89.5172 8.13793H93.5862V12.2069H89.5172V8.13793ZM97.6552 8.13793H101.724V12.2069H97.6552V8.13793ZM101.724 8.13793H105.793V12.2069H101.724V8.13793ZM105.793 8.13793H109.862V12.2069H105.793V8.13793ZM113.931 8.13793H118V12.2069H113.931V8.13793ZM0 12.2069H4.06897V16.2759H0V12.2069ZM8.13793 12.2069H12.2069V16.2759H8.13793V12.2069ZM12.2069 12.2069H16.2759V16.2759H12.2069V12.2069ZM16.2759 12.2069H20.3448V16.2759H16.2759V12.2069ZM24.4138 12.2069H28.4828V16.2759H24.4138V12.2069ZM32.5517 12.2069H36.6207V16.2759H32.5517V12.2069ZM36.6207 12.2069H40.6897V16.2759H36.6207V12.2069ZM52.8966 12.2069H56.9655V16.2759H52.8966V12.2069ZM61.0345 12.2069H65.1034V16.2759H61.0345V12.2069ZM69.1724 12.2069H73.2414V16.2759H69.1724V12.2069ZM77.3103 12.2069H81.3793V16.2759H77.3103V12.2069ZM81.3793 12.2069H85.4483V16.2759H81.3793V12.2069ZM89.5172 12.2069H93.5862V16.2759H89.5172V12.2069ZM97.6552 12.2069H101.724V16.2759H97.6552V12.2069ZM101.724 12.2069H105.793V16.2759H101.724V12.2069ZM105.793 12.2069H109.862V16.2759H105.793V12.2069ZM113.931 12.2069H118V16.2759H113.931V12.2069ZM0 16.2759H4.06897V20.3448H0V16.2759ZM8.13793 16.2759H12.2069V20.3448H8.13793V16.2759ZM12.2069 16.2759H16.2759V20.3448H12.2069V16.2759ZM16.2759 16.2759H20.3448V20.3448H16.2759V16.2759ZM24.4138 16.2759H28.4828V20.3448H24.4138V16.2759ZM32.5517 16.2759H36.6207V20.3448H32.5517V16.2759ZM40.6897 16.2759H44.7586V20.3448H40.6897V16.2759ZM56.9655 16.2759H61.0345V20.3448H56.9655V16.2759ZM61.0345 16.2759H65.1034V20.3448H61.0345V16.2759ZM69.1724 16.2759H73.2414V20.3448H69.1724V16.2759ZM73.2414 16.2759H77.3103V20.3448H73.2414V16.2759ZM77.3103 16.2759H81.3793V20.3448H77.3103V16.2759ZM89.5172 16.2759H93.5862V20.3448H89.5172V16.2759ZM97.6552 16.2759H101.724V20.3448H97.6552V16.2759ZM101.724 16.2759H105.793V20.3448H101.724V16.2759ZM105.793 16.2759H109.862V20.3448H105.793V16.2759ZM113.931 16.2759H118V20.3448H113.931V16.2759ZM0 20.3448H4.06897V24.4138H0V20.3448ZM24.4138 20.3448H28.4828V24.4138H24.4138V20.3448ZM36.6207 20.3448H40.6897V24.4138H36.6207V20.3448ZM40.6897 20.3448H44.7586V24.4138H40.6897V20.3448ZM44.7586 20.3448H48.8276V24.4138H44.7586V20.3448ZM48.8276 20.3448H52.8966V24.4138H48.8276V20.3448ZM52.8966 20.3448H56.9655V24.4138H52.8966V20.3448ZM69.1724 20.3448H73.2414V24.4138H69.1724V20.3448ZM89.5172 20.3448H93.5862V24.4138H89.5172V20.3448ZM113.931 20.3448H118V24.4138H113.931V20.3448ZM0 24.4138H4.06897V28.4828H0V24.4138ZM4.06897 24.4138H8.13793V28.4828H4.06897V24.4138ZM8.13793 24.4138H12.2069V28.4828H8.13793V24.4138ZM12.2069 24.4138H16.2759V28.4828H12.2069V24.4138ZM16.2759 24.4138H20.3448V28.4828H16.2759V24.4138ZM20.3448 24.4138H24.4138V28.4828H20.3448V24.4138ZM24.4138 24.4138H28.4828V28.4828H24.4138V24.4138ZM32.5517 24.4138H36.6207V28.4828H32.5517V24.4138ZM40.6897 24.4138H44.7586V28.4828H40.6897V24.4138ZM48.8276 24.4138H52.8966V28.4828H48.8276V24.4138ZM56.9655 24.4138H61.0345V28.4828H56.9655V24.4138ZM65.1034 24.4138H69.1724V28.4828H65.1034V24.4138ZM73.2414 24.4138H77.3103V28.4828H73.2414V24.4138ZM81.3793 24.4138H85.4483V28.4828H81.3793V24.4138ZM89.5172 24.4138H93.5862V28.4828H89.5172V24.4138ZM93.5862 24.4138H97.6552V28.4828H93.5862V24.4138ZM97.6552 24.4138H101.724V28.4828H97.6552V24.4138ZM101.724 24.4138H105.793V28.4828H101.724V24.4138ZM105.793 24.4138H109.862V28.4828H105.793V24.4138ZM109.862 24.4138H113.931V28.4828H109.862V24.4138ZM113.931 24.4138H118V28.4828H113.931V24.4138ZM32.5517 28.4828H36.6207V32.5517H32.5517V28.4828ZM36.6207 28.4828H40.6897V32.5517H36.6207V28.4828ZM40.6897 28.4828H44.7586V32.5517H40.6897V28.4828ZM48.8276 28.4828H52.8966V32.5517H48.8276V28.4828ZM56.9655 28.4828H61.0345V32.5517H56.9655V28.4828ZM61.0345 28.4828H65.1034V32.5517H61.0345V28.4828ZM65.1034 28.4828H69.1724V32.5517H65.1034V28.4828ZM73.2414 28.4828H77.3103V32.5517H73.2414V28.4828ZM4.06897 32.5517H8.13793V36.6207H4.06897V32.5517ZM12.2069 32.5517H16.2759V36.6207H12.2069V32.5517ZM16.2759 32.5517H20.3448V36.6207H16.2759V32.5517ZM20.3448 32.5517H24.4138V36.6207H20.3448V32.5517ZM24.4138 32.5517H28.4828V36.6207H24.4138V32.5517ZM32.5517 32.5517H36.6207V36.6207H32.5517V32.5517ZM44.7586 32.5517H48.8276V36.6207H44.7586V32.5517ZM52.8966 32.5517H56.9655V36.6207H52.8966V32.5517ZM69.1724 32.5517H73.2414V36.6207H69.1724V32.5517ZM85.4483 32.5517H89.5172V36.6207H85.4483V32.5517ZM89.5172 32.5517H93.5862V36.6207H89.5172V32.5517ZM97.6552 32.5517H101.724V36.6207H97.6552V32.5517ZM101.724 32.5517H105.793V36.6207H101.724V32.5517ZM109.862 32.5517H113.931V36.6207H109.862V32.5517ZM0 36.6207H4.06897V40.6897H0V36.6207ZM8.13793 36.6207H12.2069V40.6897H8.13793V36.6207ZM12.2069 36.6207H16.2759V40.6897H12.2069V36.6207ZM16.2759 36.6207H20.3448V40.6897H16.2759V36.6207ZM20.3448 36.6207H24.4138V40.6897H20.3448V36.6207ZM28.4828 36.6207H32.5517V40.6897H28.4828V36.6207ZM36.6207 36.6207H40.6897V40.6897H36.6207V36.6207ZM44.7586 36.6207H48.8276V40.6897H44.7586V36.6207ZM56.9655 36.6207H61.0345V40.6897H56.9655V36.6207ZM61.0345 36.6207H65.1034V40.6897H61.0345V36.6207ZM77.3103 36.6207H81.3793V40.6897H77.3103V36.6207ZM93.5862 36.6207H97.6552V40.6897H93.5862V36.6207ZM97.6552 36.6207H101.724V40.6897H97.6552V36.6207ZM101.724 36.6207H105.793V40.6897H101.724V36.6207ZM105.793 36.6207H109.862V40.6897H105.793V36.6207ZM109.862 36.6207H113.931V40.6897H109.862V36.6207ZM0 40.6897H4.06897V44.7586H0V40.6897ZM4.06897 40.6897H8.13793V44.7586H4.06897V40.6897ZM12.2069 40.6897H16.2759V44.7586H12.2069V40.6897ZM24.4138 40.6897H28.4828V44.7586H24.4138V40.6897ZM28.4828 40.6897H32.5517V44.7586H28.4828V40.6897ZM40.6897 40.6897H44.7586V44.7586H40.6897V40.6897ZM48.8276 40.6897H52.8966V44.7586H48.8276V40.6897ZM61.0345 40.6897H65.1034V44.7586H61.0345V40.6897ZM69.1724 40.6897H73.2414V44.7586H69.1724V40.6897ZM81.3793 40.6897H85.4483V44.7586H81.3793V40.6897ZM85.4483 40.6897H89.5172V44.7586H85.4483V40.6897ZM89.5172 40.6897H93.5862V44.7586H89.5172V40.6897ZM101.724 40.6897H105.793V44.7586H101.724V40.6897ZM105.793 40.6897H109.862V44.7586H105.793V40.6897ZM4.06897 44.7586H8.13793V48.8276H4.06897V44.7586ZM8.13793 44.7586H12.2069V48.8276H8.13793V44.7586ZM16.2759 44.7586H20.3448V48.8276H16.2759V44.7586ZM28.4828 44.7586H32.5517V48.8276H28.4828V44.7586ZM32.5517 44.7586H36.6207V48.8276H32.5517V44.7586ZM40.6897 44.7586H44.7586V48.8276H40.6897V44.7586ZM56.9655 44.7586H61.0345V48.8276H56.9655V44.7586ZM65.1034 44.7586H69.1724V48.8276H65.1034V44.7586ZM69.1724 44.7586H73.2414V48.8276H69.1724V44.7586ZM77.3103 44.7586H81.3793V48.8276H77.3103V44.7586ZM81.3793 44.7586H85.4483V48.8276H81.3793V44.7586ZM101.724 44.7586H105.793V48.8276H101.724V44.7586ZM113.931 44.7586H118V48.8276H113.931V44.7586ZM8.13793 48.8276H12.2069V52.8966H8.13793V48.8276ZM12.2069 48.8276H16.2759V52.8966H12.2069V48.8276ZM24.4138 48.8276H28.4828V52.8966H24.4138V48.8276ZM32.5517 48.8276H36.6207V52.8966H32.5517V48.8276ZM36.6207 48.8276H40.6897V52.8966H36.6207V48.8276ZM44.7586 48.8276H48.8276V52.8966H44.7586V48.8276ZM48.8276 48.8276H52.8966V52.8966H48.8276V48.8276ZM56.9655 48.8276H61.0345V52.8966H56.9655V48.8276ZM61.0345 48.8276H65.1034V52.8966H61.0345V48.8276ZM73.2414 48.8276H77.3103V52.8966H73.2414V48.8276ZM81.3793 48.8276H85.4483V52.8966H81.3793V48.8276ZM85.4483 48.8276H89.5172V52.8966H85.4483V48.8276ZM89.5172 48.8276H93.5862V52.8966H89.5172V48.8276ZM101.724 48.8276H105.793V52.8966H101.724V48.8276ZM109.862 48.8276H113.931V52.8966H109.862V48.8276ZM32.5517 52.8966H36.6207V56.9655H32.5517V52.8966ZM40.6897 52.8966H44.7586V56.9655H40.6897V52.8966ZM56.9655 52.8966H61.0345V56.9655H56.9655V52.8966ZM61.0345 52.8966H65.1034V56.9655H61.0345V52.8966ZM69.1724 52.8966H73.2414V56.9655H69.1724V52.8966ZM73.2414 52.8966H77.3103V56.9655H73.2414V52.8966ZM81.3793 52.8966H85.4483V56.9655H81.3793V52.8966ZM89.5172 52.8966H93.5862V56.9655H89.5172V52.8966ZM97.6552 52.8966H101.724V56.9655H97.6552V52.8966ZM105.793 52.8966H109.862V56.9655H105.793V52.8966ZM109.862 52.8966H113.931V56.9655H109.862V52.8966ZM113.931 52.8966H118V56.9655H113.931V52.8966ZM4.06897 56.9655H8.13793V61.0345H4.06897V56.9655ZM12.2069 56.9655H16.2759V61.0345H12.2069V56.9655ZM20.3448 56.9655H24.4138V61.0345H20.3448V56.9655ZM24.4138 56.9655H28.4828V61.0345H24.4138V56.9655ZM28.4828 56.9655H32.5517V61.0345H28.4828V56.9655ZM36.6207 56.9655H40.6897V61.0345H36.6207V56.9655ZM48.8276 56.9655H52.8966V61.0345H48.8276V56.9655ZM52.8966 56.9655H56.9655V61.0345H52.8966V56.9655ZM56.9655 56.9655H61.0345V61.0345H56.9655V56.9655ZM65.1034 56.9655H69.1724V61.0345H65.1034V56.9655ZM73.2414 56.9655H77.3103V61.0345H73.2414V56.9655ZM77.3103 56.9655H81.3793V61.0345H77.3103V56.9655ZM93.5862 56.9655H97.6552V61.0345H93.5862V56.9655ZM101.724 56.9655H105.793V61.0345H101.724V56.9655ZM113.931 56.9655H118V61.0345H113.931V56.9655ZM0 61.0345H4.06897V65.1034H0V61.0345ZM8.13793 61.0345H12.2069V65.1034H8.13793V61.0345ZM12.2069 61.0345H16.2759V65.1034H12.2069V61.0345ZM28.4828 61.0345H32.5517V65.1034H28.4828V61.0345ZM32.5517 61.0345H36.6207V65.1034H32.5517V61.0345ZM36.6207 61.0345H40.6897V65.1034H36.6207V61.0345ZM48.8276 61.0345H52.8966V65.1034H48.8276V61.0345ZM61.0345 61.0345H65.1034V65.1034H61.0345V61.0345ZM85.4483 61.0345H89.5172V65.1034H85.4483V61.0345ZM89.5172 61.0345H93.5862V65.1034H89.5172V61.0345ZM97.6552 61.0345H101.724V65.1034H97.6552V61.0345ZM101.724 61.0345H105.793V65.1034H101.724V61.0345ZM105.793 61.0345H109.862V65.1034H105.793V61.0345ZM113.931 61.0345H118V65.1034H113.931V61.0345ZM0 65.1034H4.06897V69.1724H0V65.1034ZM4.06897 65.1034H8.13793V69.1724H4.06897V65.1034ZM8.13793 65.1034H12.2069V69.1724H8.13793V65.1034ZM12.2069 65.1034H16.2759V69.1724H12.2069V65.1034ZM24.4138 65.1034H28.4828V69.1724H24.4138V65.1034ZM36.6207 65.1034H40.6897V69.1724H36.6207V65.1034ZM40.6897 65.1034H44.7586V69.1724H40.6897V65.1034ZM48.8276 65.1034H52.8966V69.1724H48.8276V65.1034ZM61.0345 65.1034H65.1034V69.1724H61.0345V65.1034ZM69.1724 65.1034H73.2414V69.1724H69.1724V65.1034ZM73.2414 65.1034H77.3103V69.1724H73.2414V65.1034ZM81.3793 65.1034H85.4483V69.1724H81.3793V65.1034ZM93.5862 65.1034H97.6552V69.1724H93.5862V65.1034ZM101.724 65.1034H105.793V69.1724H101.724V65.1034ZM109.862 65.1034H113.931V69.1724H109.862V65.1034ZM113.931 65.1034H118V69.1724H113.931V65.1034ZM0 69.1724H4.06897V73.2414H0V69.1724ZM12.2069 69.1724H16.2759V73.2414H12.2069V69.1724ZM28.4828 69.1724H32.5517V73.2414H28.4828V69.1724ZM36.6207 69.1724H40.6897V73.2414H36.6207V69.1724ZM44.7586 69.1724H48.8276V73.2414H44.7586V69.1724ZM48.8276 69.1724H52.8966V73.2414H48.8276V69.1724ZM56.9655 69.1724H61.0345V73.2414H56.9655V69.1724ZM73.2414 69.1724H77.3103V73.2414H73.2414V69.1724ZM77.3103 69.1724H81.3793V73.2414H77.3103V69.1724ZM81.3793 69.1724H85.4483V73.2414H81.3793V69.1724ZM97.6552 69.1724H101.724V73.2414H97.6552V69.1724ZM0 73.2414H4.06897V77.3103H0V73.2414ZM4.06897 73.2414H8.13793V77.3103H4.06897V73.2414ZM8.13793 73.2414H12.2069V77.3103H8.13793V73.2414ZM16.2759 73.2414H20.3448V77.3103H16.2759V73.2414ZM20.3448 73.2414H24.4138V77.3103H20.3448V73.2414ZM24.4138 73.2414H28.4828V77.3103H24.4138V73.2414ZM28.4828 73.2414H32.5517V77.3103H28.4828V73.2414ZM40.6897 73.2414H44.7586V77.3103H40.6897V73.2414ZM44.7586 73.2414H48.8276V77.3103H44.7586V73.2414ZM52.8966 73.2414H56.9655V77.3103H52.8966V73.2414ZM65.1034 73.2414H69.1724V77.3103H65.1034V73.2414ZM77.3103 73.2414H81.3793V77.3103H77.3103V73.2414ZM101.724 73.2414H105.793V77.3103H101.724V73.2414ZM113.931 73.2414H118V77.3103H113.931V73.2414ZM0 77.3103H4.06897V81.3793H0V77.3103ZM4.06897 77.3103H8.13793V81.3793H4.06897V77.3103ZM8.13793 77.3103H12.2069V81.3793H8.13793V77.3103ZM12.2069 77.3103H16.2759V81.3793H12.2069V77.3103ZM28.4828 77.3103H32.5517V81.3793H28.4828V77.3103ZM32.5517 77.3103H36.6207V81.3793H32.5517V77.3103ZM44.7586 77.3103H48.8276V81.3793H44.7586V77.3103ZM48.8276 77.3103H52.8966V81.3793H48.8276V77.3103ZM56.9655 77.3103H61.0345V81.3793H56.9655V77.3103ZM61.0345 77.3103H65.1034V81.3793H61.0345V77.3103ZM65.1034 77.3103H69.1724V81.3793H65.1034V77.3103ZM77.3103 77.3103H81.3793V81.3793H77.3103V77.3103ZM85.4483 77.3103H89.5172V81.3793H85.4483V77.3103ZM89.5172 77.3103H93.5862V81.3793H89.5172V77.3103ZM97.6552 77.3103H101.724V81.3793H97.6552V77.3103ZM105.793 77.3103H109.862V81.3793H105.793V77.3103ZM109.862 77.3103H113.931V81.3793H109.862V77.3103ZM0 81.3793H4.06897V85.4483H0V81.3793ZM4.06897 81.3793H8.13793V85.4483H4.06897V81.3793ZM8.13793 81.3793H12.2069V85.4483H8.13793V81.3793ZM12.2069 81.3793H16.2759V85.4483H12.2069V81.3793ZM16.2759 81.3793H20.3448V85.4483H16.2759V81.3793ZM24.4138 81.3793H28.4828V85.4483H24.4138V81.3793ZM28.4828 81.3793H32.5517V85.4483H28.4828V81.3793ZM32.5517 81.3793H36.6207V85.4483H32.5517V81.3793ZM36.6207 81.3793H40.6897V85.4483H36.6207V81.3793ZM52.8966 81.3793H56.9655V85.4483H52.8966V81.3793ZM65.1034 81.3793H69.1724V85.4483H65.1034V81.3793ZM69.1724 81.3793H73.2414V85.4483H69.1724V81.3793ZM77.3103 81.3793H81.3793V85.4483H77.3103V81.3793ZM81.3793 81.3793H85.4483V85.4483H81.3793V81.3793ZM85.4483 81.3793H89.5172V85.4483H85.4483V81.3793ZM89.5172 81.3793H93.5862V85.4483H89.5172V81.3793ZM93.5862 81.3793H97.6552V85.4483H93.5862V81.3793ZM97.6552 81.3793H101.724V85.4483H97.6552V81.3793ZM32.5517 85.4483H36.6207V89.5172H32.5517V85.4483ZM36.6207 85.4483H40.6897V89.5172H36.6207V85.4483ZM52.8966 85.4483H56.9655V89.5172H52.8966V85.4483ZM61.0345 85.4483H65.1034V89.5172H61.0345V85.4483ZM69.1724 85.4483H73.2414V89.5172H69.1724V85.4483ZM73.2414 85.4483H77.3103V89.5172H73.2414V85.4483ZM77.3103 85.4483H81.3793V89.5172H77.3103V85.4483ZM81.3793 85.4483H85.4483V89.5172H81.3793V85.4483ZM97.6552 85.4483H101.724V89.5172H97.6552V85.4483ZM101.724 85.4483H105.793V89.5172H101.724V85.4483ZM105.793 85.4483H109.862V89.5172H105.793V85.4483ZM0 89.5172H4.06897V93.5862H0V89.5172ZM4.06897 89.5172H8.13793V93.5862H4.06897V89.5172ZM8.13793 89.5172H12.2069V93.5862H8.13793V89.5172ZM12.2069 89.5172H16.2759V93.5862H12.2069V89.5172ZM16.2759 89.5172H20.3448V93.5862H16.2759V89.5172ZM20.3448 89.5172H24.4138V93.5862H20.3448V89.5172ZM24.4138 89.5172H28.4828V93.5862H24.4138V89.5172ZM36.6207 89.5172H40.6897V93.5862H36.6207V89.5172ZM40.6897 89.5172H44.7586V93.5862H40.6897V89.5172ZM48.8276 89.5172H52.8966V93.5862H48.8276V89.5172ZM61.0345 89.5172H65.1034V93.5862H61.0345V89.5172ZM77.3103 89.5172H81.3793V93.5862H77.3103V89.5172ZM81.3793 89.5172H85.4483V93.5862H81.3793V89.5172ZM89.5172 89.5172H93.5862V93.5862H89.5172V89.5172ZM97.6552 89.5172H101.724V93.5862H97.6552V89.5172ZM105.793 89.5172H109.862V93.5862H105.793V89.5172ZM0 93.5862H4.06897V97.6552H0V93.5862ZM24.4138 93.5862H28.4828V97.6552H24.4138V93.5862ZM32.5517 93.5862H36.6207V97.6552H32.5517V93.5862ZM40.6897 93.5862H44.7586V97.6552H40.6897V93.5862ZM44.7586 93.5862H48.8276V97.6552H44.7586V93.5862ZM61.0345 93.5862H65.1034V97.6552H61.0345V93.5862ZM73.2414 93.5862H77.3103V97.6552H73.2414V93.5862ZM77.3103 93.5862H81.3793V97.6552H77.3103V93.5862ZM81.3793 93.5862H85.4483V97.6552H81.3793V93.5862ZM97.6552 93.5862H101.724V97.6552H97.6552V93.5862ZM101.724 93.5862H105.793V97.6552H101.724V93.5862ZM0 97.6552H4.06897V101.724H0V97.6552ZM8.13793 97.6552H12.2069V101.724H8.13793V97.6552ZM12.2069 97.6552H16.2759V101.724H12.2069V97.6552ZM16.2759 97.6552H20.3448V101.724H16.2759V97.6552ZM24.4138 97.6552H28.4828V101.724H24.4138V97.6552ZM32.5517 97.6552H36.6207V101.724H32.5517V97.6552ZM52.8966 97.6552H56.9655V101.724H52.8966V97.6552ZM56.9655 97.6552H61.0345V101.724H56.9655V97.6552ZM61.0345 97.6552H65.1034V101.724H61.0345V97.6552ZM69.1724 97.6552H73.2414V101.724H69.1724V97.6552ZM77.3103 97.6552H81.3793V101.724H77.3103V97.6552ZM81.3793 97.6552H85.4483V101.724H81.3793V97.6552ZM85.4483 97.6552H89.5172V101.724H85.4483V97.6552ZM89.5172 97.6552H93.5862V101.724H89.5172V97.6552ZM93.5862 97.6552H97.6552V101.724H93.5862V97.6552ZM97.6552 97.6552H101.724V101.724H97.6552V97.6552ZM113.931 97.6552H118V101.724H113.931V97.6552ZM0 101.724H4.06897V105.793H0V101.724ZM8.13793 101.724H12.2069V105.793H8.13793V101.724ZM12.2069 101.724H16.2759V105.793H12.2069V101.724ZM16.2759 101.724H20.3448V105.793H16.2759V101.724ZM24.4138 101.724H28.4828V105.793H24.4138V101.724ZM32.5517 101.724H36.6207V105.793H32.5517V101.724ZM52.8966 101.724H56.9655V105.793H52.8966V101.724ZM73.2414 101.724H77.3103V105.793H73.2414V101.724ZM93.5862 101.724H97.6552V105.793H93.5862V101.724ZM109.862 101.724H113.931V105.793H109.862V101.724ZM0 105.793H4.06897V109.862H0V105.793ZM8.13793 105.793H12.2069V109.862H8.13793V105.793ZM12.2069 105.793H16.2759V109.862H12.2069V105.793ZM16.2759 105.793H20.3448V109.862H16.2759V105.793ZM24.4138 105.793H28.4828V109.862H24.4138V105.793ZM36.6207 105.793H40.6897V109.862H36.6207V105.793ZM44.7586 105.793H48.8276V109.862H44.7586V105.793ZM48.8276 105.793H52.8966V109.862H48.8276V105.793ZM52.8966 105.793H56.9655V109.862H52.8966V105.793ZM61.0345 105.793H65.1034V109.862H61.0345V105.793ZM73.2414 105.793H77.3103V109.862H73.2414V105.793ZM81.3793 105.793H85.4483V109.862H81.3793V105.793ZM85.4483 105.793H89.5172V109.862H85.4483V105.793ZM93.5862 105.793H97.6552V109.862H93.5862V105.793ZM97.6552 105.793H101.724V109.862H97.6552V105.793ZM105.793 105.793H109.862V109.862H105.793V105.793ZM109.862 105.793H113.931V109.862H109.862V105.793ZM113.931 105.793H118V109.862H113.931V105.793ZM0 109.862H4.06897V113.931H0V109.862ZM24.4138 109.862H28.4828V113.931H24.4138V109.862ZM32.5517 109.862H36.6207V113.931H32.5517V109.862ZM36.6207 109.862H40.6897V113.931H36.6207V109.862ZM40.6897 109.862H44.7586V113.931H40.6897V109.862ZM48.8276 109.862H52.8966V113.931H48.8276V109.862ZM65.1034 109.862H69.1724V113.931H65.1034V109.862ZM77.3103 109.862H81.3793V113.931H77.3103V109.862ZM85.4483 109.862H89.5172V113.931H85.4483V109.862ZM97.6552 109.862H101.724V113.931H97.6552V109.862ZM101.724 109.862H105.793V113.931H101.724V109.862ZM105.793 109.862H109.862V113.931H105.793V109.862ZM113.931 109.862H118V113.931H113.931V109.862ZM0 113.931H4.06897V118H0V113.931ZM4.06897 113.931H8.13793V118H4.06897V113.931ZM8.13793 113.931H12.2069V118H8.13793V113.931ZM12.2069 113.931H16.2759V118H12.2069V113.931ZM16.2759 113.931H20.3448V118H16.2759V113.931ZM20.3448 113.931H24.4138V118H20.3448V113.931ZM24.4138 113.931H28.4828V118H24.4138V113.931ZM36.6207 113.931H40.6897V118H36.6207V113.931ZM44.7586 113.931H48.8276V118H44.7586V113.931ZM52.8966 113.931H56.9655V118H52.8966V113.931ZM56.9655 113.931H61.0345V118H56.9655V113.931ZM61.0345 113.931H65.1034V118H61.0345V113.931ZM77.3103 113.931H81.3793V118H77.3103V113.931ZM81.3793 113.931H85.4483V118H81.3793V113.931ZM93.5862 113.931H97.6552V118H93.5862V113.931ZM97.6552 113.931H101.724V118H97.6552V113.931Z" fill="#130C2C"/>
</svg>
