<svg xmlns="http://www.w3.org/2000/svg" width="110" height="111" fill="none"><path fill="#556A74" d="M0 .086h3.793v3.793H0V.086Zm3.793 0h3.793v3.793H3.793V.086Zm3.793 0h3.793v3.793H7.586V.086Zm3.793 0h3.793v3.793H11.38V.086Zm3.793 0h3.793v3.793h-3.793V.086Zm3.793 0h3.794v3.793h-3.794V.086Zm3.794 0h3.793v3.793h-3.793V.086Zm15.172 0h3.793v3.793h-3.793V.086Zm3.793 0h3.793v3.793h-3.793V.086Zm7.586 0h3.793v3.793H49.31V.086Zm3.793 0h3.794v3.793h-3.794V.086Zm3.794 0h3.793v3.793h-3.793V.086Zm3.793 0h3.793v3.793H60.69V.086Zm22.758 0h3.793v3.793h-3.793V.086Zm3.793 0h3.793v3.793h-3.793V.086Zm3.793 0h3.794v3.793h-3.794V.086Zm3.794 0h3.793v3.793h-3.793V.086Zm3.793 0h3.793v3.793h-3.793V.086Zm3.793 0h3.793v3.793h-3.793V.086Zm3.793 0H110v3.793h-3.793V.086ZM0 3.879h3.793v3.793H0V3.88Zm22.759 0h3.793v3.793h-3.793V3.88Zm7.586 0h3.793v3.793h-3.793V3.88Zm3.793 0h3.793v3.793h-3.793V3.88Zm11.38 0h3.792v3.793h-3.793V3.88Zm7.585 0h3.794v3.793h-3.794V3.88Zm7.587 0h3.793v3.793H60.69V3.88Zm11.379 0h3.793v3.793H72.07V3.88Zm11.38 0h3.792v3.793h-3.793V3.88Zm22.758 0H110v3.793h-3.793V3.88ZM0 7.672h3.793v3.793H0V7.672Zm7.586 0h3.793v3.793H7.586V7.672Zm3.793 0h3.793v3.793H11.38V7.672Zm3.793 0h3.793v3.793h-3.793V7.672Zm7.587 0h3.793v3.793h-3.793V7.672Zm11.379 0h3.793v3.793h-3.793V7.672Zm3.793 0h3.793v3.793h-3.793V7.672Zm3.793 0h3.793v3.793h-3.793V7.672Zm3.793 0h3.793v3.793h-3.793V7.672Zm7.586 0h3.794v3.793h-3.794V7.672Zm18.966 0h3.793v3.793H72.07V7.672Zm11.38 0h3.792v3.793h-3.793V7.672Zm7.585 0h3.794v3.793h-3.794V7.672Zm3.794 0h3.793v3.793h-3.793V7.672Zm3.793 0h3.793v3.793h-3.793V7.672Zm7.586 0H110v3.793h-3.793V7.672ZM0 11.465h3.793v3.793H0v-3.793Zm7.586 0h3.793v3.793H7.586v-3.793Zm3.793 0h3.793v3.793H11.38v-3.793Zm3.793 0h3.793v3.793h-3.793v-3.793Zm7.587 0h3.793v3.793h-3.793v-3.793Zm7.586 0h3.793v3.793h-3.793v-3.793Zm3.793 0h3.793v3.793h-3.793v-3.793Zm15.172 0h3.793v3.793H49.31v-3.793Zm7.587 0h3.793v3.793h-3.793v-3.793Zm7.586 0h3.793v3.793h-3.793v-3.793Zm7.586 0h3.793v3.793H72.07v-3.793Zm3.793 0h3.793v3.793h-3.793v-3.793Zm7.586 0h3.793v3.793h-3.793v-3.793Zm7.587 0h3.793v3.793h-3.794v-3.793Zm3.793 0h3.793v3.793h-3.793v-3.793Zm3.793 0h3.793v3.793h-3.793v-3.793Zm7.586 0H110v3.793h-3.793v-3.793ZM0 15.258h3.793v3.794H0v-3.794Zm7.586 0h3.793v3.794H7.586v-3.794Zm3.793 0h3.793v3.794H11.38v-3.794Zm3.793 0h3.793v3.794h-3.793v-3.794Zm7.587 0h3.793v3.794h-3.793v-3.794Zm7.586 0h3.793v3.794h-3.793v-3.794Zm7.586 0h3.793v3.794h-3.793v-3.794Zm15.172 0h3.794v3.794h-3.794v-3.794Zm3.794 0h3.793v3.794h-3.793v-3.794Zm7.586 0h3.793v3.794h-3.793v-3.794Zm3.793 0h3.793v3.794h-3.793v-3.794Zm3.793 0h3.793v3.794H72.07v-3.794Zm11.38 0h3.792v3.794h-3.793v-3.794Zm7.585 0h3.794v3.794h-3.794v-3.794Zm3.794 0h3.793v3.794h-3.793v-3.794Zm3.793 0h3.793v3.794h-3.793v-3.794Zm7.586 0H110v3.794h-3.793v-3.794ZM0 19.052h3.793v3.793H0v-3.793Zm22.759 0h3.793v3.793h-3.793v-3.793Zm11.379 0h3.793v3.793h-3.793v-3.793Zm3.793 0h3.793v3.793h-3.793v-3.793Zm3.793 0h3.793v3.793h-3.793v-3.793Zm3.793 0h3.793v3.793h-3.793v-3.793Zm3.793 0h3.793v3.793H49.31v-3.793Zm15.173 0h3.793v3.793h-3.793v-3.793Zm18.965 0h3.793v3.793h-3.793v-3.793Zm22.759 0H110v3.793h-3.793v-3.793ZM0 22.845h3.793v3.793H0v-3.793Zm3.793 0h3.793v3.793H3.793v-3.793Zm3.793 0h3.793v3.793H7.586v-3.793Zm3.793 0h3.793v3.793H11.38v-3.793Zm3.793 0h3.793v3.793h-3.793v-3.793Zm3.793 0h3.794v3.793h-3.794v-3.793Zm3.794 0h3.793v3.793h-3.793v-3.793Zm7.586 0h3.793v3.793h-3.793v-3.793Zm7.586 0h3.793v3.793h-3.793v-3.793Zm7.586 0h3.793v3.793h-3.793v-3.793Zm7.586 0h3.794v3.793h-3.794v-3.793Zm7.587 0h3.793v3.793H60.69v-3.793Zm7.586 0h3.793v3.793h-3.793v-3.793Zm7.586 0h3.793v3.793h-3.793v-3.793Zm7.586 0h3.793v3.793h-3.793v-3.793Zm3.793 0h3.793v3.793h-3.793v-3.793Zm3.793 0h3.794v3.793h-3.794v-3.793Zm3.794 0h3.793v3.793h-3.793v-3.793Zm3.793 0h3.793v3.793h-3.793v-3.793Zm3.793 0h3.793v3.793h-3.793v-3.793Zm3.793 0H110v3.793h-3.793v-3.793Zm-75.862 3.793h3.793v3.793h-3.793v-3.793Zm3.793 0h3.793v3.793h-3.793v-3.793Zm3.793 0h3.793v3.793h-3.793v-3.793Zm7.586 0h3.793v3.793h-3.793v-3.793Zm7.586 0h3.794v3.793h-3.794v-3.793Zm3.794 0h3.793v3.793h-3.793v-3.793Zm3.793 0h3.793v3.793H60.69v-3.793Zm7.586 0h3.793v3.793h-3.793v-3.793ZM3.793 30.43h3.793v3.793H3.793V30.43Zm7.586 0h3.793v3.793H11.38V30.43Zm3.793 0h3.793v3.793h-3.793V30.43Zm3.793 0h3.794v3.793h-3.794V30.43Zm3.794 0h3.793v3.793h-3.793V30.43Zm7.586 0h3.793v3.793h-3.793V30.43Zm11.38 0h3.792v3.793h-3.793V30.43Zm7.585 0h3.793v3.793H49.31V30.43Zm15.173 0h3.793v3.793h-3.793V30.43Zm15.172 0h3.793v3.793h-3.793V30.43Zm3.793 0h3.793v3.793h-3.793V30.43Zm7.587 0h3.793v3.793h-3.794V30.43Zm3.793 0h3.793v3.793h-3.793V30.43Zm7.586 0h3.793v3.793h-3.793V30.43ZM0 34.224h3.793v3.793H0v-3.793Zm7.586 0h3.793v3.793H7.586v-3.793Zm3.793 0h3.793v3.793H11.38v-3.793Zm3.793 0h3.793v3.793h-3.793v-3.793Zm3.793 0h3.794v3.793h-3.794v-3.793Zm7.587 0h3.793v3.793h-3.793v-3.793Zm7.586 0h3.793v3.793h-3.793v-3.793Zm7.586 0h3.793v3.793h-3.793v-3.793Zm11.38 0h3.793v3.793h-3.794v-3.793Zm3.793 0h3.793v3.793h-3.793v-3.793Zm15.172 0h3.793v3.793H72.07v-3.793Zm15.172 0h3.793v3.793h-3.793v-3.793Zm3.793 0h3.794v3.793h-3.794v-3.793Zm3.794 0h3.793v3.793h-3.793v-3.793Zm3.793 0h3.793v3.793h-3.793v-3.793Zm3.793 0h3.793v3.793h-3.793v-3.793ZM0 38.017h3.793v3.793H0v-3.793Zm3.793 0h3.793v3.793H3.793v-3.793Zm7.586 0h3.793v3.793H11.38v-3.793Zm11.38 0h3.793v3.793h-3.793v-3.793Zm3.793 0h3.793v3.793h-3.793v-3.793Zm11.379 0h3.793v3.793h-3.793v-3.793Zm7.586 0h3.793v3.793h-3.793v-3.793Zm11.38 0h3.793v3.793h-3.793v-3.793Zm7.586 0h3.793v3.793h-3.793v-3.793Zm11.38 0h3.792v3.793h-3.793v-3.793Zm3.792 0h3.793v3.793h-3.793v-3.793Zm3.793 0h3.793v3.793h-3.793v-3.793Zm11.38 0h3.793v3.793h-3.793v-3.793Zm3.793 0h3.793v3.793h-3.793v-3.793ZM3.793 41.81h3.793v3.793H3.793V41.81Zm3.793 0h3.793v3.793H7.586V41.81Zm7.586 0h3.793v3.793h-3.793V41.81Zm11.38 0h3.793v3.793h-3.793V41.81Zm3.793 0h3.793v3.793h-3.793V41.81Zm7.586 0h3.793v3.793h-3.793V41.81Zm15.172 0h3.794v3.793h-3.794V41.81Zm7.587 0h3.793v3.793H60.69V41.81Zm3.793 0h3.793v3.793h-3.793V41.81Zm7.586 0h3.793v3.793H72.07V41.81Zm3.793 0h3.793v3.793h-3.793V41.81Zm18.966 0h3.793v3.793h-3.793V41.81Zm11.379 0H110v3.793h-3.793V41.81Zm-98.62 3.793h3.792v3.793H7.586v-3.793Zm3.792 0h3.793v3.793H11.38v-3.793Zm11.38 0h3.793v3.793h-3.793v-3.793Zm7.586 0h3.793v3.793h-3.793v-3.793Zm3.793 0h3.793v3.793h-3.793v-3.793Zm7.586 0h3.793v3.793h-3.793v-3.793Zm3.793 0h3.793v3.793h-3.793v-3.793Zm7.586 0h3.794v3.793h-3.794v-3.793Zm3.794 0h3.793v3.793h-3.793v-3.793Zm11.379 0h3.793v3.793h-3.793v-3.793Zm7.586 0h3.793v3.793h-3.793v-3.793Zm3.793 0h3.793v3.793h-3.793v-3.793Zm3.793 0h3.793v3.793h-3.793v-3.793Zm11.38 0h3.793v3.793h-3.793v-3.793Zm7.586 0h3.793v3.793h-3.793v-3.793Zm-72.07 3.793h3.794v3.793h-3.793v-3.793Zm7.587 0h3.793v3.793h-3.793v-3.793Zm15.172 0h3.794v3.793h-3.794v-3.793Zm3.794 0h3.793v3.793h-3.793v-3.793Zm7.586 0h3.793v3.793h-3.793v-3.793Zm3.793 0h3.793v3.793h-3.793v-3.793Zm7.586 0h3.793v3.793h-3.793v-3.793Zm7.586 0h3.793v3.793h-3.793v-3.793Zm7.587 0h3.793v3.793h-3.794v-3.793Zm7.586 0h3.793v3.793h-3.793v-3.793Zm3.793 0h3.793v3.793h-3.793v-3.793Zm3.793 0H110v3.793h-3.793v-3.793ZM3.793 53.19h3.793v3.794H3.793v-3.794Zm7.586 0h3.793v3.794H11.38v-3.794Zm7.586 0h3.794v3.794h-3.794v-3.794Zm3.794 0h3.793v3.794h-3.793v-3.794Zm3.793 0h3.793v3.794h-3.793v-3.794Zm7.586 0h3.793v3.794h-3.793v-3.794Zm11.38 0h3.792v3.794h-3.793v-3.794Zm3.792 0h3.793v3.794H49.31v-3.794Zm3.793 0h3.794v3.794h-3.794v-3.794Zm7.587 0h3.793v3.794H60.69v-3.794Zm7.586 0h3.793v3.794h-3.793v-3.794Zm3.793 0h3.793v3.794H72.07v-3.794Zm15.172 0h3.793v3.794h-3.793v-3.794Zm7.587 0h3.793v3.794h-3.793v-3.794Zm11.379 0H110v3.794h-3.793v-3.794ZM0 56.983h3.793v3.793H0v-3.794Zm7.586 0h3.793v3.793H7.586v-3.794Zm3.793 0h3.793v3.793H11.38v-3.794Zm15.173 0h3.793v3.793h-3.793v-3.794Zm3.793 0h3.793v3.793h-3.793v-3.794Zm3.793 0h3.793v3.793h-3.793v-3.794Zm11.38 0h3.792v3.793h-3.793v-3.794Zm11.379 0h3.793v3.793h-3.793v-3.794Zm22.758 0h3.793v3.793h-3.793v-3.794Zm3.793 0h3.793v3.793h-3.793v-3.794Zm7.587 0h3.793v3.793h-3.794v-3.794Zm3.793 0h3.793v3.793h-3.793v-3.794Zm3.793 0h3.793v3.793h-3.793v-3.794Zm7.586 0H110v3.793h-3.793v-3.794ZM0 60.776h3.793v3.793H0v-3.793Zm3.793 0h3.793v3.793H3.793v-3.793Zm3.793 0h3.793v3.793H7.586v-3.793Zm3.793 0h3.793v3.793H11.38v-3.793Zm11.38 0h3.793v3.793h-3.793v-3.793Zm11.379 0h3.793v3.793h-3.793v-3.793Zm3.793 0h3.793v3.793h-3.793v-3.793Zm7.586 0h3.793v3.793h-3.793v-3.793Zm11.38 0h3.793v3.793h-3.793v-3.793Zm7.586 0h3.793v3.793h-3.793v-3.793Zm3.793 0h3.793v3.793h-3.793v-3.793Zm7.586 0h3.793v3.793h-3.793v-3.793Zm11.38 0h3.792v3.793h-3.793v-3.793Zm7.586 0h3.793v3.793h-3.793v-3.793Zm7.586 0h3.793v3.793h-3.793v-3.793Zm3.793 0H110v3.793h-3.793v-3.793ZM0 64.569h3.793v3.793H0v-3.793Zm11.38 0h3.792v3.793H11.38v-3.793Zm15.172 0h3.793v3.793h-3.793v-3.793Zm7.586 0h3.793v3.793h-3.793v-3.793Zm7.586 0h3.793v3.793h-3.793v-3.793Zm3.793 0h3.793v3.793h-3.793v-3.793Zm7.586 0h3.794v3.793h-3.794v-3.793Zm15.173 0h3.793v3.793h-3.793v-3.793Zm3.793 0h3.793v3.793H72.07v-3.793Zm3.793 0h3.793v3.793h-3.793v-3.793Zm15.172 0h3.794v3.793h-3.794v-3.793ZM0 68.362h3.793v3.793H0v-3.793Zm3.793 0h3.793v3.793H3.793v-3.793Zm3.793 0h3.793v3.793H7.586v-3.793Zm7.586 0h3.793v3.793h-3.793v-3.793Zm3.793 0h3.794v3.793h-3.794v-3.793Zm3.794 0h3.793v3.793h-3.793v-3.793Zm3.793 0h3.793v3.793h-3.793v-3.793Zm11.379 0h3.793v3.793h-3.793v-3.793Zm3.793 0h3.793v3.793h-3.793v-3.793Zm7.586 0h3.793v3.793H49.31v-3.793Zm11.38 0h3.793v3.793H60.69v-3.793Zm11.379 0h3.793v3.793H72.07v-3.793Zm22.759 0h3.793v3.793h-3.793v-3.793Zm11.379 0H110v3.793h-3.793v-3.793ZM0 72.155h3.793v3.793H0v-3.793Zm3.793 0h3.793v3.793H3.793v-3.793Zm3.793 0h3.793v3.793H7.586v-3.793Zm3.793 0h3.793v3.793H11.38v-3.793Zm15.173 0h3.793v3.793h-3.793v-3.793Zm3.793 0h3.793v3.793h-3.793v-3.793Zm11.38 0h3.792v3.793h-3.793v-3.793Zm3.792 0h3.793v3.793h-3.793v-3.793Zm7.586 0h3.794v3.793h-3.794v-3.793Zm3.794 0h3.793v3.793h-3.793v-3.793Zm3.793 0h3.793v3.793H60.69v-3.793Zm11.379 0h3.793v3.793H72.07v-3.793Zm7.586 0h3.793v3.793h-3.793v-3.793Zm3.793 0h3.793v3.793h-3.793v-3.793Zm7.587 0h3.793v3.793h-3.794v-3.793Zm7.586 0h3.793v3.793h-3.793v-3.793Zm3.793 0h3.793v3.793h-3.793v-3.793ZM0 75.948h3.793v3.793H0v-3.793Zm3.793 0h3.793v3.793H3.793v-3.793Zm3.793 0h3.793v3.793H7.586v-3.793Zm3.793 0h3.793v3.793H11.38v-3.793Zm3.793 0h3.793v3.793h-3.793v-3.793Zm7.587 0h3.793v3.793h-3.793v-3.793Zm3.793 0h3.793v3.793h-3.793v-3.793Zm3.793 0h3.793v3.793h-3.793v-3.793Zm3.793 0h3.793v3.793h-3.793v-3.793Zm15.172 0h3.793v3.793H49.31v-3.793Zm11.38 0h3.793v3.793H60.69v-3.793Zm3.793 0h3.793v3.793h-3.793v-3.793Zm7.586 0h3.793v3.793H72.07v-3.793Zm3.793 0h3.793v3.793h-3.793v-3.793Zm3.793 0h3.793v3.793h-3.793v-3.793Zm3.793 0h3.793v3.793h-3.793v-3.793Zm3.793 0h3.793v3.793h-3.793v-3.793Zm3.793 0h3.794v3.793h-3.794v-3.793Zm-60.69 3.793h3.794v3.793h-3.793v-3.793Zm3.794 0h3.793v3.793h-3.793v-3.793Zm15.172 0h3.793v3.793H49.31v-3.793Zm7.587 0h3.793v3.793h-3.793v-3.793Zm7.586 0h3.793v3.793h-3.793v-3.793Zm3.793 0h3.793v3.793h-3.793v-3.793Zm3.793 0h3.793v3.793H72.07v-3.793Zm3.793 0h3.793v3.793h-3.793v-3.793Zm15.172 0h3.794v3.793h-3.794v-3.793Zm3.794 0h3.793v3.793h-3.793v-3.793Zm3.793 0h3.793v3.793h-3.793v-3.793ZM0 83.534h3.793v3.793H0v-3.793Zm3.793 0h3.793v3.793H3.793v-3.793Zm3.793 0h3.793v3.793H7.586v-3.793Zm3.793 0h3.793v3.793H11.38v-3.793Zm3.793 0h3.793v3.793h-3.793v-3.793Zm3.793 0h3.794v3.793h-3.794v-3.793Zm3.794 0h3.793v3.793h-3.793v-3.793Zm11.379 0h3.793v3.793h-3.793v-3.793Zm3.793 0h3.793v3.793h-3.793v-3.793Zm7.586 0h3.793v3.793h-3.793v-3.793Zm11.38 0h3.793v3.793h-3.793v-3.793Zm15.172 0h3.793v3.793H72.07v-3.793Zm3.793 0h3.793v3.793h-3.793v-3.793Zm7.586 0h3.793v3.793h-3.793v-3.793Zm7.587 0h3.793v3.793h-3.794v-3.793Zm7.586 0h3.793v3.793h-3.793v-3.793ZM0 87.327h3.793v3.793H0v-3.793Zm22.759 0h3.793v3.793h-3.793v-3.793Zm7.586 0h3.793v3.793h-3.793v-3.793Zm7.586 0h3.793v3.793h-3.793v-3.793Zm3.793 0h3.793v3.793h-3.793v-3.793Zm15.173 0h3.793v3.793h-3.793v-3.793Zm11.379 0h3.793v3.793h-3.793v-3.793Zm3.793 0h3.793v3.793H72.07v-3.793Zm3.793 0h3.793v3.793h-3.793v-3.793Zm15.172 0h3.794v3.793h-3.794v-3.793Zm3.794 0h3.793v3.793h-3.793v-3.793ZM0 91.12h3.793v3.793H0V91.12Zm7.586 0h3.793v3.793H7.586V91.12Zm3.793 0h3.793v3.793H11.38V91.12Zm3.793 0h3.793v3.793h-3.793V91.12Zm7.587 0h3.793v3.793h-3.793V91.12Zm7.586 0h3.793v3.793h-3.793V91.12Zm18.965 0h3.793v3.793H49.31V91.12Zm3.793 0h3.794v3.793h-3.794V91.12Zm3.794 0h3.793v3.793h-3.793V91.12Zm7.586 0h3.793v3.793h-3.793V91.12Zm7.586 0h3.793v3.793H72.07V91.12Zm3.793 0h3.793v3.793h-3.793V91.12Zm3.793 0h3.793v3.793h-3.793V91.12Zm3.793 0h3.793v3.793h-3.793V91.12Zm3.793 0h3.793v3.793h-3.793V91.12Zm3.793 0h3.794v3.793h-3.794V91.12Zm15.173 0H110v3.793h-3.793V91.12ZM0 94.913h3.793v3.794H0v-3.793Zm7.586 0h3.793v3.794H7.586v-3.793Zm3.793 0h3.793v3.794H11.38v-3.793Zm3.793 0h3.793v3.794h-3.793v-3.793Zm7.587 0h3.793v3.794h-3.793v-3.793Zm7.586 0h3.793v3.794h-3.793v-3.793Zm18.965 0h3.793v3.794H49.31v-3.793Zm18.966 0h3.793v3.794h-3.793v-3.793Zm18.965 0h3.793v3.794h-3.793v-3.793Zm15.173 0h3.793v3.794h-3.793v-3.793ZM0 98.707h3.793v3.793H0v-3.793Zm7.586 0h3.793v3.793H7.586v-3.793Zm3.793 0h3.793v3.793H11.38v-3.793Zm3.793 0h3.793v3.793h-3.793v-3.793Zm7.587 0h3.793v3.793h-3.793v-3.793Zm11.379 0h3.793v3.793h-3.793v-3.793Zm7.586 0h3.793v3.793h-3.793v-3.793Zm3.793 0h3.793v3.793h-3.793v-3.793Zm3.793 0h3.793v3.793H49.31v-3.793Zm7.587 0h3.793v3.793h-3.793v-3.793Zm11.379 0h3.793v3.793h-3.793v-3.793Zm7.586 0h3.793v3.793h-3.793v-3.793Zm3.793 0h3.793v3.793h-3.793v-3.793Zm7.586 0h3.793v3.793h-3.793v-3.793Zm3.793 0h3.794v3.793h-3.794v-3.793Zm7.587 0h3.793v3.793h-3.793v-3.793Zm3.793 0h3.793v3.793h-3.793v-3.793Zm3.793 0H110v3.793h-3.793v-3.793ZM0 102.5h3.793v3.793H0V102.5Zm22.759 0h3.793v3.793h-3.793V102.5Zm7.586 0h3.793v3.793h-3.793V102.5Zm3.793 0h3.793v3.793h-3.793V102.5Zm3.793 0h3.793v3.793h-3.793V102.5Zm7.586 0h3.793v3.793h-3.793V102.5Zm15.173 0h3.793v3.793H60.69V102.5Zm11.379 0h3.793v3.793H72.07V102.5Zm7.586 0h3.793v3.793h-3.793V102.5Zm11.38 0h3.793v3.793h-3.794V102.5Zm3.793 0h3.793v3.793h-3.793V102.5Zm3.793 0h3.793v3.793h-3.793V102.5Zm7.586 0H110v3.793h-3.793V102.5ZM0 106.293h3.793v3.793H0v-3.793Zm3.793 0h3.793v3.793H3.793v-3.793Zm3.793 0h3.793v3.793H7.586v-3.793Zm3.793 0h3.793v3.793H11.38v-3.793Zm3.793 0h3.793v3.793h-3.793v-3.793Zm3.793 0h3.794v3.793h-3.794v-3.793Zm3.794 0h3.793v3.793h-3.793v-3.793Zm11.379 0h3.793v3.793h-3.793v-3.793Zm7.586 0h3.793v3.793h-3.793v-3.793Zm7.586 0h3.793v3.793H49.31v-3.793Zm3.793 0h3.794v3.793h-3.794v-3.793Zm3.794 0h3.793v3.793h-3.793v-3.793Zm15.172 0h3.793v3.793H72.07v-3.793Zm3.793 0h3.793v3.793h-3.793v-3.793Zm11.38 0h3.792v3.793h-3.793v-3.793Zm3.792 0h3.794v3.793h-3.794v-3.793Z"/></svg>
