<svg xmlns="http://www.w3.org/2000/svg" width="110" height="111" fill="none"><path fill="#556A74" d="M0 .086h3.333v3.333H0V.086Zm3.333 0h3.334v3.333H3.333V.086Zm3.334 0H10v3.333H6.667V.086Zm3.333 0h3.333v3.333H10V.086Zm3.333 0h3.334v3.333h-3.334V.086Zm3.334 0H20v3.333h-3.333V.086Zm3.333 0h3.333v3.333H20V.086Zm16.667 0H40v3.333h-3.333V.086ZM50 .086h3.333v3.333H50V.086Zm3.333 0h3.334v3.333h-3.334V.086Zm6.667 0h3.333v3.333H60V.086Zm13.333 0h3.334v3.333h-3.334V.086Zm13.334 0H90v3.333h-3.333V.086Zm3.333 0h3.333v3.333H90V.086Zm3.333 0h3.334v3.333h-3.334V.086Zm3.334 0H100v3.333h-3.333V.086Zm3.333 0h3.333v3.333H100V.086Zm3.333 0h3.334v3.333h-3.334V.086Zm3.334 0H110v3.333h-3.333V.086ZM0 3.419h3.333v3.334H0V3.419Zm20 0h3.333v3.334H20V3.419Zm16.667 0H40v3.334h-3.333V3.419Zm3.333 0h3.333v3.334H40V3.419Zm3.333 0h3.334v3.334h-3.334V3.419Zm6.667 0h3.333v3.334H50V3.419Zm3.333 0h3.334v3.334h-3.334V3.419Zm3.334 0H60v3.334h-3.333V3.419Zm3.333 0h3.333v3.334H60V3.419Zm6.667 0H70v3.334h-3.333V3.419Zm3.333 0h3.333v3.334H70V3.419Zm3.333 0h3.334v3.334h-3.334V3.419Zm13.334 0H90v3.334h-3.333V3.419Zm20 0H110v3.334h-3.333V3.419ZM0 6.753h3.333v3.333H0V6.753Zm6.667 0H10v3.333H6.667V6.753Zm3.333 0h3.333v3.333H10V6.753Zm3.333 0h3.334v3.333h-3.334V6.753Zm6.667 0h3.333v3.333H20V6.753Zm10 0h3.333v3.333H30V6.753Zm10 0h3.333v3.333H40V6.753Zm6.667 0H50v3.333h-3.333V6.753Zm3.333 0h3.333v3.333H50V6.753Zm3.333 0h3.334v3.333h-3.334V6.753Zm6.667 0h3.333v3.333H60V6.753Zm13.333 0h3.334v3.333h-3.334V6.753Zm3.334 0H80v3.333h-3.333V6.753Zm10 0H90v3.333h-3.333V6.753Zm6.666 0h3.334v3.333h-3.334V6.753Zm3.334 0H100v3.333h-3.333V6.753Zm3.333 0h3.333v3.333H100V6.753Zm6.667 0H110v3.333h-3.333V6.753ZM0 10.086h3.333v3.333H0v-3.333Zm6.667 0H10v3.333H6.667v-3.333Zm3.333 0h3.333v3.333H10v-3.333Zm3.333 0h3.334v3.333h-3.334v-3.333Zm6.667 0h3.333v3.333H20v-3.333Zm6.667 0H30v3.333h-3.333v-3.333Zm6.666 0h3.334v3.333h-3.334v-3.333Zm13.334 0H50v3.333h-3.333v-3.333Zm13.333 0h3.333v3.333H60v-3.333Zm3.333 0h3.334v3.333h-3.334v-3.333Zm3.334 0H70v3.333h-3.333v-3.333Zm6.666 0h3.334v3.333h-3.334v-3.333Zm13.334 0H90v3.333h-3.333v-3.333Zm6.666 0h3.334v3.333h-3.334v-3.333Zm3.334 0H100v3.333h-3.333v-3.333Zm3.333 0h3.333v3.333H100v-3.333Zm6.667 0H110v3.333h-3.333v-3.333ZM0 13.419h3.333v3.334H0v-3.334Zm6.667 0H10v3.334H6.667v-3.334Zm3.333 0h3.333v3.334H10v-3.334Zm3.333 0h3.334v3.334h-3.334v-3.334Zm6.667 0h3.333v3.334H20v-3.334Zm16.667 0H40v3.334h-3.333v-3.334Zm23.333 0h3.333v3.334H60v-3.334Zm3.333 0h3.334v3.334h-3.334v-3.334Zm3.334 0H70v3.334h-3.333v-3.334Zm6.666 0h3.334v3.334h-3.334v-3.334Zm3.334 0H80v3.334h-3.333v-3.334Zm3.333 0h3.333v3.334H80v-3.334Zm6.667 0H90v3.334h-3.333v-3.334Zm6.666 0h3.334v3.334h-3.334v-3.334Zm3.334 0H100v3.334h-3.333v-3.334Zm3.333 0h3.333v3.334H100v-3.334Zm6.667 0H110v3.334h-3.333v-3.334ZM0 16.753h3.333v3.333H0v-3.333Zm20 0h3.333v3.333H20v-3.333Zm6.667 0H30v3.333h-3.333v-3.333Zm6.666 0h3.334v3.333h-3.334v-3.333Zm3.334 0H40v3.333h-3.333v-3.333Zm6.666 0h3.334v3.333h-3.334v-3.333Zm10 0h3.334v3.333h-3.334v-3.333Zm6.667 0h3.333v3.333H60v-3.333Zm6.667 0H70v3.333h-3.333v-3.333Zm13.333 0h3.333v3.333H80v-3.333Zm6.667 0H90v3.333h-3.333v-3.333Zm20 0H110v3.333h-3.333v-3.333ZM0 20.086h3.333v3.333H0v-3.333Zm3.333 0h3.334v3.333H3.333v-3.333Zm3.334 0H10v3.333H6.667v-3.333Zm3.333 0h3.333v3.333H10v-3.333Zm3.333 0h3.334v3.333h-3.334v-3.333Zm3.334 0H20v3.333h-3.333v-3.333Zm3.333 0h3.333v3.333H20v-3.333Zm6.667 0H30v3.333h-3.333v-3.333Zm6.666 0h3.334v3.333h-3.334v-3.333Zm6.667 0h3.333v3.333H40v-3.333Zm6.667 0H50v3.333h-3.333v-3.333Zm6.666 0h3.334v3.333h-3.334v-3.333Zm6.667 0h3.333v3.333H60v-3.333Zm6.667 0H70v3.333h-3.333v-3.333Zm6.666 0h3.334v3.333h-3.334v-3.333Zm6.667 0h3.333v3.333H80v-3.333Zm6.667 0H90v3.333h-3.333v-3.333Zm3.333 0h3.333v3.333H90v-3.333Zm3.333 0h3.334v3.333h-3.334v-3.333Zm3.334 0H100v3.333h-3.333v-3.333Zm3.333 0h3.333v3.333H100v-3.333Zm3.333 0h3.334v3.333h-3.334v-3.333Zm3.334 0H110v3.333h-3.333v-3.333Zm-80 3.333H30v3.334h-3.333v-3.334Zm6.666 0h3.334v3.334h-3.334v-3.334Zm10 0h3.334v3.334h-3.334v-3.334Zm3.334 0H50v3.334h-3.333v-3.334Zm3.333 0h3.333v3.334H50v-3.334Zm10 0h3.333v3.334H60v-3.334Zm13.333 0h3.334v3.334h-3.334v-3.334Zm-70 3.334h3.334v3.333H3.333v-3.333Zm3.334 0H10v3.333H6.667v-3.333Zm13.333 0h3.333v3.333H20v-3.333Zm16.667 0H40v3.333h-3.333v-3.333Zm10 0H50v3.333h-3.333v-3.333Zm6.666 0h3.334v3.333h-3.334v-3.333Zm6.667 0h3.333v3.333H60v-3.333Zm3.333 0h3.334v3.333h-3.334v-3.333Zm3.334 0H70v3.333h-3.333v-3.333Zm10 0H80v3.333h-3.333v-3.333Zm10 0H90v3.333h-3.333v-3.333Zm3.333 0h3.333v3.333H90v-3.333Zm6.667 0H100v3.333h-3.333v-3.333ZM0 30.086h3.333v3.333H0v-3.333Zm3.333 0h3.334v3.333H3.333v-3.333Zm6.667 0h3.333v3.333H10v-3.333Zm3.333 0h3.334v3.333h-3.334v-3.333Zm3.334 0H20v3.333h-3.333v-3.333Zm6.666 0h3.334v3.333h-3.334v-3.333Zm6.667 0h3.333v3.333H30v-3.333Zm3.333 0h3.334v3.333h-3.334v-3.333Zm3.334 0H40v3.333h-3.333v-3.333Zm3.333 0h3.333v3.333H40v-3.333Zm6.667 0H50v3.333h-3.333v-3.333Zm6.666 0h3.334v3.333h-3.334v-3.333Zm10 0h3.334v3.333h-3.334v-3.333Zm3.334 0H70v3.333h-3.333v-3.333Zm10 0H80v3.333h-3.333v-3.333Zm3.333 0h3.333v3.333H80v-3.333Zm6.667 0H90v3.333h-3.333v-3.333Zm10 0H100v3.333h-3.333v-3.333Zm10 0H110v3.333h-3.333v-3.333ZM0 33.419h3.333v3.334H0v-3.334Zm6.667 0H10v3.334H6.667v-3.334Zm10 0H20v3.334h-3.333v-3.334Zm3.333 0h3.333v3.334H20v-3.334Zm3.333 0h3.334v3.334h-3.334v-3.334Zm3.334 0H30v3.334h-3.333v-3.334Zm3.333 0h3.333v3.334H30v-3.334Zm10 0h3.333v3.334H40v-3.334Zm3.333 0h3.334v3.334h-3.334v-3.334Zm3.334 0H50v3.334h-3.333v-3.334Zm10 0H60v3.334h-3.333v-3.334Zm3.333 0h3.333v3.334H60v-3.334Zm3.333 0h3.334v3.334h-3.334v-3.334Zm6.667 0h3.333v3.334H70v-3.334Zm3.333 0h3.334v3.334h-3.334v-3.334Zm3.334 0H80v3.334h-3.333v-3.334Zm3.333 0h3.333v3.334H80v-3.334Zm16.667 0H100v3.334h-3.333v-3.334Zm3.333 0h3.333v3.334H100v-3.334Zm6.667 0H110v3.334h-3.333v-3.334ZM3.333 36.753h3.334v3.333H3.333v-3.333Zm3.334 0H10v3.333H6.667v-3.333Zm3.333 0h3.333v3.333H10v-3.333Zm6.667 0H20v3.333h-3.333v-3.333Zm6.666 0h3.334v3.333h-3.334v-3.333Zm6.667 0h3.333v3.333H30v-3.333Zm3.333 0h3.334v3.333h-3.334v-3.333Zm16.667 0h3.333v3.333H50v-3.333Zm10 0h3.333v3.333H60v-3.333Zm3.333 0h3.334v3.333h-3.334v-3.333Zm10 0h3.334v3.333h-3.334v-3.333Zm3.334 0H80v3.333h-3.333v-3.333Zm3.333 0h3.333v3.333H80v-3.333Zm6.667 0H90v3.333h-3.333v-3.333Zm3.333 0h3.333v3.333H90v-3.333Zm3.333 0h3.334v3.333h-3.334v-3.333Zm3.334 0H100v3.333h-3.333v-3.333Zm6.666 0h3.334v3.333h-3.334v-3.333ZM6.667 40.086H10v3.333H6.667v-3.333Zm3.333 0h3.333v3.333H10v-3.333Zm6.667 0H20v3.333h-3.333v-3.333Zm3.333 0h3.333v3.333H20v-3.333Zm3.333 0h3.334v3.333h-3.334v-3.333Zm6.667 0h3.333v3.333H30v-3.333Zm6.667 0H40v3.333h-3.333v-3.333Zm3.333 0h3.333v3.333H40v-3.333Zm3.333 0h3.334v3.333h-3.334v-3.333Zm3.334 0H50v3.333h-3.333v-3.333Zm10 0H60v3.333h-3.333v-3.333Zm3.333 0h3.333v3.333H60v-3.333Zm3.333 0h3.334v3.333h-3.334v-3.333Zm3.334 0H70v3.333h-3.333v-3.333Zm3.333 0h3.333v3.333H70v-3.333Zm3.333 0h3.334v3.333h-3.334v-3.333Zm6.667 0h3.333v3.333H80v-3.333Zm6.667 0H90v3.333h-3.333v-3.333Zm3.333 0h3.333v3.333H90v-3.333Zm13.333 0h3.334v3.333h-3.334v-3.333Zm3.334 0H110v3.333h-3.333v-3.333ZM3.333 43.419h3.334v3.334H3.333v-3.334Zm3.334 0H10v3.334H6.667v-3.334Zm6.666 0h3.334v3.334h-3.334v-3.334Zm23.334 0H40v3.334h-3.333v-3.334Zm6.666 0h3.334v3.334h-3.334v-3.334Zm3.334 0H50v3.334h-3.333v-3.334Zm13.333 0h3.333v3.334H60v-3.334Zm6.667 0H70v3.334h-3.333v-3.334Zm3.333 0h3.333v3.334H70v-3.334Zm3.333 0h3.334v3.334h-3.334v-3.334Zm3.334 0H80v3.334h-3.333v-3.334Zm3.333 0h3.333v3.334H80v-3.334Zm6.667 0H90v3.334h-3.333v-3.334Zm10 0H100v3.334h-3.333v-3.334Zm6.666 0h3.334v3.334h-3.334v-3.334Zm3.334 0H110v3.334h-3.333v-3.334ZM3.333 46.753h3.334v3.333H3.333v-3.333Zm13.334 0H20v3.333h-3.333v-3.333Zm3.333 0h3.333v3.333H20v-3.333Zm3.333 0h3.334v3.333h-3.334v-3.333Zm3.334 0H30v3.333h-3.333v-3.333Zm3.333 0h3.333v3.333H30v-3.333Zm6.667 0H40v3.333h-3.333v-3.333Zm3.333 0h3.333v3.333H40v-3.333Zm20 0h3.333v3.333H60v-3.333Zm6.667 0H70v3.333h-3.333v-3.333Zm6.666 0h3.334v3.333h-3.334v-3.333Zm3.334 0H80v3.333h-3.333v-3.333Zm13.333 0h3.333v3.333H90v-3.333Zm6.667 0H100v3.333h-3.333v-3.333Zm10 0H110v3.333h-3.333v-3.333ZM3.333 50.086h3.334v3.333H3.333v-3.333Zm3.334 0H10v3.333H6.667v-3.333Zm3.333 0h3.333v3.333H10v-3.333Zm16.667 0H30v3.333h-3.333v-3.333Zm10 0H40v3.333h-3.333v-3.333Zm3.333 0h3.333v3.333H40v-3.333Zm6.667 0H50v3.333h-3.333v-3.333Zm6.666 0h3.334v3.333h-3.334v-3.333Zm3.334 0H60v3.333h-3.333v-3.333Zm6.666 0h3.334v3.333h-3.334v-3.333Zm3.334 0H70v3.333h-3.333v-3.333Zm6.666 0h3.334v3.333h-3.334v-3.333Zm10 0h3.334v3.333h-3.334v-3.333Zm3.334 0H90v3.333h-3.333v-3.333Zm10 0H100v3.333h-3.333v-3.333ZM0 53.419h3.333v3.334H0v-3.334Zm16.667 0H20v3.334h-3.333v-3.334Zm3.333 0h3.333v3.334H20v-3.334Zm3.333 0h3.334v3.334h-3.334v-3.334Zm6.667 0h3.333v3.334H30v-3.334Zm13.333 0h3.334v3.334h-3.334v-3.334Zm6.667 0h3.333v3.334H50v-3.334Zm3.333 0h3.334v3.334h-3.334v-3.334Zm3.334 0H60v3.334h-3.333v-3.334Zm3.333 0h3.333v3.334H60v-3.334Zm6.667 0H70v3.334h-3.333v-3.334Zm13.333 0h3.333v3.334H80v-3.334Zm6.667 0H90v3.334h-3.333v-3.334Zm3.333 0h3.333v3.334H90v-3.334Zm6.667 0H100v3.334h-3.333v-3.334Zm6.666 0h3.334v3.334h-3.334v-3.334ZM0 56.753h3.333v3.333H0v-3.333Zm3.333 0h3.334v3.333H3.333v-3.333Zm10 0h3.334v3.333h-3.334v-3.333Zm16.667 0h3.333v3.333H30v-3.333Zm3.333 0h3.334v3.333h-3.334v-3.333Zm3.334 0H40v3.333h-3.333v-3.333Zm3.333 0h3.333v3.333H40v-3.333Zm6.667 0H50v3.333h-3.333v-3.333Zm16.666 0h3.334v3.333h-3.334v-3.333Zm3.334 0H70v3.333h-3.333v-3.333Zm3.333 0h3.333v3.333H70v-3.333Zm3.333 0h3.334v3.333h-3.334v-3.333Zm3.334 0H80v3.333h-3.333v-3.333Zm6.666 0h3.334v3.333h-3.334v-3.333Zm3.334 0H90v3.333h-3.333v-3.333Zm10 0H100v3.333h-3.333v-3.333Zm10 0H110v3.333h-3.333v-3.333ZM0 60.086h3.333v3.333H0v-3.333Zm3.333 0h3.334v3.333H3.333v-3.333Zm3.334 0H10v3.333H6.667v-3.333Zm6.666 0h3.334v3.333h-3.334v-3.333Zm6.667 0h3.333v3.333H20v-3.333Zm6.667 0H30v3.333h-3.333v-3.333Zm3.333 0h3.333v3.333H30v-3.333Zm13.333 0h3.334v3.333h-3.334v-3.333Zm3.334 0H50v3.333h-3.333v-3.333Zm3.333 0h3.333v3.333H50v-3.333Zm3.333 0h3.334v3.333h-3.334v-3.333Zm10 0h3.334v3.333h-3.334v-3.333Zm3.334 0H70v3.333h-3.333v-3.333Zm10 0H80v3.333h-3.333v-3.333Zm13.333 0h3.333v3.333H90v-3.333Zm6.667 0H100v3.333h-3.333v-3.333Zm3.333 0h3.333v3.333H100v-3.333Zm6.667 0H110v3.333h-3.333v-3.333ZM0 63.419h3.333v3.334H0v-3.334Zm3.333 0h3.334v3.334H3.333v-3.334Zm6.667 0h3.333v3.334H10v-3.334Zm13.333 0h3.334v3.334h-3.334v-3.334Zm10 0h3.334v3.334h-3.334v-3.334Zm16.667 0h3.333v3.334H50v-3.334Zm6.667 0H60v3.334h-3.333v-3.334Zm3.333 0h3.333v3.334H60v-3.334Zm3.333 0h3.334v3.334h-3.334v-3.334Zm3.334 0H70v3.334h-3.333v-3.334Zm3.333 0h3.333v3.334H70v-3.334Zm6.667 0H80v3.334h-3.333v-3.334Zm3.333 0h3.333v3.334H80v-3.334Zm3.333 0h3.334v3.334h-3.334v-3.334Zm10 0h3.334v3.334h-3.334v-3.334Zm3.334 0H100v3.334h-3.333v-3.334ZM0 66.753h3.333v3.333H0v-3.333Zm3.333 0h3.334v3.333H3.333v-3.333Zm10 0h3.334v3.333h-3.334v-3.333Zm6.667 0h3.333v3.333H20v-3.333Zm3.333 0h3.334v3.333h-3.334v-3.333Zm3.334 0H30v3.333h-3.333v-3.333Zm3.333 0h3.333v3.333H30v-3.333Zm23.333 0h3.334v3.333h-3.334v-3.333Zm6.667 0h3.333v3.333H60v-3.333Zm10 0h3.333v3.333H70v-3.333Zm6.667 0H80v3.333h-3.333v-3.333Zm3.333 0h3.333v3.333H80v-3.333Zm6.667 0H90v3.333h-3.333v-3.333Zm3.333 0h3.333v3.333H90v-3.333Zm13.333 0h3.334v3.333h-3.334v-3.333Zm3.334 0H110v3.333h-3.333v-3.333Zm-90 3.333H20v3.333h-3.333v-3.333Zm16.666 0h3.334v3.333h-3.334v-3.333Zm3.334 0H40v3.333h-3.333v-3.333Zm6.666 0h3.334v3.333h-3.334v-3.333Zm13.334 0H60v3.333h-3.333v-3.333Zm20 0H80v3.333h-3.333v-3.333Zm3.333 0h3.333v3.333H80v-3.333Zm6.667 0H90v3.333h-3.333v-3.333Zm3.333 0h3.333v3.333H90v-3.333Zm6.667 0H100v3.333h-3.333v-3.333Zm10 0H110v3.333h-3.333v-3.333ZM0 73.419h3.333v3.334H0v-3.334Zm3.333 0h3.334v3.334H3.333v-3.334Zm6.667 0h3.333v3.334H10v-3.334Zm6.667 0H20v3.334h-3.333v-3.334Zm3.333 0h3.333v3.334H20v-3.334Zm3.333 0h3.334v3.334h-3.334v-3.334Zm10 0h3.334v3.334h-3.334v-3.334Zm3.334 0H40v3.334h-3.333v-3.334Zm13.333 0h3.333v3.334H50v-3.334Zm3.333 0h3.334v3.334h-3.334v-3.334Zm10 0h3.334v3.334h-3.334v-3.334Zm6.667 0h3.333v3.334H70v-3.334Zm6.667 0H80v3.334h-3.333v-3.334Zm3.333 0h3.333v3.334H80v-3.334Zm6.667 0H90v3.334h-3.333v-3.334Zm6.666 0h3.334v3.334h-3.334v-3.334Zm3.334 0H100v3.334h-3.333v-3.334Zm10 0H110v3.334h-3.333v-3.334Zm-100 3.334H10v3.333H6.667v-3.333Zm3.333 0h3.333v3.333H10v-3.333Zm6.667 0H20v3.333h-3.333v-3.333Zm6.666 0h3.334v3.333h-3.334v-3.333Zm3.334 0H30v3.333h-3.333v-3.333Zm6.666 0h3.334v3.333h-3.334v-3.333Zm3.334 0H40v3.333h-3.333v-3.333Zm16.666 0h3.334v3.333h-3.334v-3.333Zm26.667 0h3.333v3.333H80v-3.333Zm3.333 0h3.334v3.333h-3.334v-3.333Zm3.334 0H90v3.333h-3.333v-3.333Zm3.333 0h3.333v3.333H90v-3.333Zm6.667 0H100v3.333h-3.333v-3.333ZM0 80.086h3.333v3.333H0v-3.333Zm3.333 0h3.334v3.333H3.333v-3.333Zm3.334 0H10v3.333H6.667v-3.333Zm3.333 0h3.333v3.333H10v-3.333Zm10 0h3.333v3.333H20v-3.333Zm3.333 0h3.334v3.333h-3.334v-3.333Zm10 0h3.334v3.333h-3.334v-3.333Zm3.334 0H40v3.333h-3.333v-3.333Zm6.666 0h3.334v3.333h-3.334v-3.333Zm3.334 0H50v3.333h-3.333v-3.333Zm6.666 0h3.334v3.333h-3.334v-3.333Zm6.667 0h3.333v3.333H60v-3.333Zm3.333 0h3.334v3.333h-3.334v-3.333Zm3.334 0H70v3.333h-3.333v-3.333Zm10 0H80v3.333h-3.333v-3.333Zm3.333 0h3.333v3.333H80v-3.333Zm3.333 0h3.334v3.333h-3.334v-3.333Zm3.334 0H90v3.333h-3.333v-3.333Zm3.333 0h3.333v3.333H90v-3.333Zm3.333 0h3.334v3.333h-3.334v-3.333Zm3.334 0H100v3.333h-3.333v-3.333Zm10 0H110v3.333h-3.333v-3.333Zm-80 3.333H30v3.334h-3.333v-3.334Zm6.666 0h3.334v3.334h-3.334v-3.334Zm3.334 0H40v3.334h-3.333v-3.334Zm3.333 0h3.333v3.334H40v-3.334Zm6.667 0H50v3.334h-3.333v-3.334Zm6.666 0h3.334v3.334h-3.334v-3.334Zm10 0h3.334v3.334h-3.334v-3.334Zm13.334 0H80v3.334h-3.333v-3.334Zm3.333 0h3.333v3.334H80v-3.334Zm13.333 0h3.334v3.334h-3.334v-3.334ZM0 86.753h3.333v3.333H0v-3.333Zm3.333 0h3.334v3.333H3.333v-3.333Zm3.334 0H10v3.333H6.667v-3.333Zm3.333 0h3.333v3.333H10v-3.333Zm3.333 0h3.334v3.333h-3.334v-3.333Zm3.334 0H20v3.333h-3.333v-3.333Zm3.333 0h3.333v3.333H20v-3.333Zm13.333 0h3.334v3.333h-3.334v-3.333Zm16.667 0h3.333v3.333H50v-3.333Zm10 0h3.333v3.333H60v-3.333Zm3.333 0h3.334v3.333h-3.334v-3.333Zm6.667 0h3.333v3.333H70v-3.333Zm3.333 0h3.334v3.333h-3.334v-3.333Zm6.667 0h3.333v3.333H80v-3.333Zm6.667 0H90v3.333h-3.333v-3.333Zm6.666 0h3.334v3.333h-3.334v-3.333Zm3.334 0H100v3.333h-3.333v-3.333Zm3.333 0h3.333v3.333H100v-3.333Zm6.667 0H110v3.333h-3.333v-3.333ZM0 90.086h3.333v3.333H0v-3.333Zm20 0h3.333v3.333H20v-3.333Zm20 0h3.333v3.333H40v-3.333Zm3.333 0h3.334v3.333h-3.334v-3.333Zm13.334 0H60v3.333h-3.333v-3.333Zm3.333 0h3.333v3.333H60v-3.333Zm3.333 0h3.334v3.333h-3.334v-3.333Zm10 0h3.334v3.333h-3.334v-3.333Zm3.334 0H80v3.333h-3.333v-3.333Zm3.333 0h3.333v3.333H80v-3.333Zm13.333 0h3.334v3.333h-3.334v-3.333Zm3.334 0H100v3.333h-3.333v-3.333Zm6.666 0h3.334v3.333h-3.334v-3.333Zm3.334 0H110v3.333h-3.333v-3.333ZM0 93.419h3.333v3.334H0v-3.334Zm6.667 0H10v3.334H6.667v-3.334Zm3.333 0h3.333v3.334H10v-3.334Zm3.333 0h3.334v3.334h-3.334v-3.334Zm6.667 0h3.333v3.334H20v-3.334Zm13.333 0h3.334v3.334h-3.334v-3.334Zm6.667 0h3.333v3.334H40v-3.334Zm6.667 0H50v3.334h-3.333v-3.334Zm3.333 0h3.333v3.334H50v-3.334Zm10 0h3.333v3.334H60v-3.334Zm6.667 0H70v3.334h-3.333v-3.334Zm3.333 0h3.333v3.334H70v-3.334Zm3.333 0h3.334v3.334h-3.334v-3.334Zm3.334 0H80v3.334h-3.333v-3.334Zm3.333 0h3.333v3.334H80v-3.334Zm3.333 0h3.334v3.334h-3.334v-3.334Zm3.334 0H90v3.334h-3.333v-3.334Zm3.333 0h3.333v3.334H90v-3.334Zm3.333 0h3.334v3.334h-3.334v-3.334ZM0 96.753h3.333v3.333H0v-3.333Zm6.667 0H10v3.333H6.667v-3.333Zm3.333 0h3.333v3.333H10v-3.333Zm3.333 0h3.334v3.333h-3.334v-3.333Zm6.667 0h3.333v3.333H20v-3.333Zm13.333 0h3.334v3.333h-3.334v-3.333Zm3.334 0H40v3.333h-3.333v-3.333Zm10 0H50v3.333h-3.333v-3.333Zm10 0H60v3.333h-3.333v-3.333Zm3.333 0h3.333v3.333H60v-3.333Zm6.667 0H70v3.333h-3.333v-3.333Zm3.333 0h3.333v3.333H70v-3.333Zm3.333 0h3.334v3.333h-3.334v-3.333Zm3.334 0H80v3.333h-3.333v-3.333Zm3.333 0h3.333v3.333H80v-3.333Zm3.333 0h3.334v3.333h-3.334v-3.333Zm6.667 0h3.333v3.333H90v-3.333Zm3.333 0h3.334v3.333h-3.334v-3.333Zm6.667 0h3.333v3.333H100v-3.333Zm6.667 0H110v3.333h-3.333v-3.333ZM0 100.086h3.333v3.333H0v-3.333Zm6.667 0H10v3.333H6.667v-3.333Zm3.333 0h3.333v3.333H10v-3.333Zm3.333 0h3.334v3.333h-3.334v-3.333Zm6.667 0h3.333v3.333H20v-3.333Zm6.667 0H30v3.333h-3.333v-3.333Zm3.333 0h3.333v3.333H30v-3.333Zm10 0h3.333v3.333H40v-3.333Zm3.333 0h3.334v3.333h-3.334v-3.333Zm6.667 0h3.333v3.333H50v-3.333Zm10 0h3.333v3.333H60v-3.333Zm6.667 0H70v3.333h-3.333v-3.333Zm13.333 0h3.333v3.333H80v-3.333Zm10 0h3.333v3.333H90v-3.333Zm3.333 0h3.334v3.333h-3.334v-3.333Zm3.334 0H100v3.333h-3.333v-3.333Zm3.333 0h3.333v3.333H100v-3.333Zm3.333 0h3.334v3.333h-3.334v-3.333Zm3.334 0H110v3.333h-3.333v-3.333ZM0 103.419h3.333v3.334H0v-3.334Zm20 0h3.333v3.334H20v-3.334Zm6.667 0H30v3.334h-3.333v-3.334Zm3.333 0h3.333v3.334H30v-3.334Zm13.333 0h3.334v3.334h-3.334v-3.334Zm3.334 0H50v3.334h-3.333v-3.334Zm10 0H60v3.334h-3.333v-3.334Zm6.666 0h3.334v3.334h-3.334v-3.334Zm3.334 0H70v3.334h-3.333v-3.334Zm6.666 0h3.334v3.334h-3.334v-3.334Zm6.667 0h3.333v3.334H80v-3.334Zm3.333 0h3.334v3.334h-3.334v-3.334Zm6.667 0h3.333v3.334H90v-3.334Zm3.333 0h3.334v3.334h-3.334v-3.334Zm3.334 0H100v3.334h-3.333v-3.334ZM0 106.753h3.333v3.333H0v-3.333Zm3.333 0h3.334v3.333H3.333v-3.333Zm3.334 0H10v3.333H6.667v-3.333Zm3.333 0h3.333v3.333H10v-3.333Zm3.333 0h3.334v3.333h-3.334v-3.333Zm3.334 0H20v3.333h-3.333v-3.333Zm3.333 0h3.333v3.333H20v-3.333Zm10 0h3.333v3.333H30v-3.333Zm16.667 0H50v3.333h-3.333v-3.333Zm6.666 0h3.334v3.333h-3.334v-3.333Zm6.667 0h3.333v3.333H60v-3.333Zm6.667 0H70v3.333h-3.333v-3.333Zm13.333 0h3.333v3.333H80v-3.333Zm6.667 0H90v3.333h-3.333v-3.333Zm3.333 0h3.333v3.333H90v-3.333Zm3.333 0h3.334v3.333h-3.334v-3.333Zm13.334 0H110v3.333h-3.333v-3.333Z"/></svg>
