<svg width="118" height="118" viewBox="0 0 118 118" fill="none" xmlns="http://www.w3.org/2000/svg">
<path d="M0 0H3.57576V3.57576H0V0ZM3.57576 0H7.15152V3.57576H3.57576V0ZM7.15152 0H10.7273V3.57576H7.15152V0ZM10.7273 0H14.303V3.57576H10.7273V0ZM14.303 0H17.8788V3.57576H14.303V0ZM17.8788 0H21.4545V3.57576H17.8788V0ZM21.4545 0H25.0303V3.57576H21.4545V0ZM39.3333 0H42.9091V3.57576H39.3333V0ZM42.9091 0H46.4848V3.57576H42.9091V0ZM53.6364 0H57.2121V3.57576H53.6364V0ZM57.2121 0H60.7879V3.57576H57.2121V0ZM64.3636 0H67.9394V3.57576H64.3636V0ZM78.6667 0H82.2424V3.57576H78.6667V0ZM92.9697 0H96.5454V3.57576H92.9697V0ZM96.5454 0H100.121V3.57576H96.5454V0ZM100.121 0H103.697V3.57576H100.121V0ZM103.697 0H107.273V3.57576H103.697V0ZM107.273 0H110.848V3.57576H107.273V0ZM110.848 0H114.424V3.57576H110.848V0ZM114.424 0H118V3.57576H114.424V0ZM0 3.57576H3.57576V7.15152H0V3.57576ZM21.4545 3.57576H25.0303V7.15152H21.4545V3.57576ZM32.1818 3.57576H35.7576V7.15152H32.1818V3.57576ZM39.3333 3.57576H42.9091V7.15152H39.3333V3.57576ZM46.4848 3.57576H50.0606V7.15152H46.4848V3.57576ZM57.2121 3.57576H60.7879V7.15152H57.2121V3.57576ZM60.7879 3.57576H64.3636V7.15152H60.7879V3.57576ZM64.3636 3.57576H67.9394V7.15152H64.3636V3.57576ZM92.9697 3.57576H96.5454V7.15152H92.9697V3.57576ZM114.424 3.57576H118V7.15152H114.424V3.57576ZM0 7.15152H3.57576V10.7273H0V7.15152ZM7.15152 7.15152H10.7273V10.7273H7.15152V7.15152ZM10.7273 7.15152H14.303V10.7273H10.7273V7.15152ZM14.303 7.15152H17.8788V10.7273H14.303V7.15152ZM21.4545 7.15152H25.0303V10.7273H21.4545V7.15152ZM32.1818 7.15152H35.7576V10.7273H32.1818V7.15152ZM39.3333 7.15152H42.9091V10.7273H39.3333V7.15152ZM53.6364 7.15152H57.2121V10.7273H53.6364V7.15152ZM57.2121 7.15152H60.7879V10.7273H57.2121V7.15152ZM64.3636 7.15152H67.9394V10.7273H64.3636V7.15152ZM75.0909 7.15152H78.6667V10.7273H75.0909V7.15152ZM78.6667 7.15152H82.2424V10.7273H78.6667V7.15152ZM82.2424 7.15152H85.8182V10.7273H82.2424V7.15152ZM92.9697 7.15152H96.5454V10.7273H92.9697V7.15152ZM100.121 7.15152H103.697V10.7273H100.121V7.15152ZM103.697 7.15152H107.273V10.7273H103.697V7.15152ZM107.273 7.15152H110.848V10.7273H107.273V7.15152ZM114.424 7.15152H118V10.7273H114.424V7.15152ZM0 10.7273H3.57576V14.303H0V10.7273ZM7.15152 10.7273H10.7273V14.303H7.15152V10.7273ZM10.7273 10.7273H14.303V14.303H10.7273V10.7273ZM14.303 10.7273H17.8788V14.303H14.303V10.7273ZM21.4545 10.7273H25.0303V14.303H21.4545V10.7273ZM28.6061 10.7273H32.1818V14.303H28.6061V10.7273ZM39.3333 10.7273H42.9091V14.303H39.3333V10.7273ZM42.9091 10.7273H46.4848V14.303H42.9091V10.7273ZM46.4848 10.7273H50.0606V14.303H46.4848V10.7273ZM57.2121 10.7273H60.7879V14.303H57.2121V10.7273ZM64.3636 10.7273H67.9394V14.303H64.3636V10.7273ZM67.9394 10.7273H71.5152V14.303H67.9394V10.7273ZM71.5152 10.7273H75.0909V14.303H71.5152V10.7273ZM75.0909 10.7273H78.6667V14.303H75.0909V10.7273ZM78.6667 10.7273H82.2424V14.303H78.6667V10.7273ZM82.2424 10.7273H85.8182V14.303H82.2424V10.7273ZM92.9697 10.7273H96.5454V14.303H92.9697V10.7273ZM100.121 10.7273H103.697V14.303H100.121V10.7273ZM103.697 10.7273H107.273V14.303H103.697V10.7273ZM107.273 10.7273H110.848V14.303H107.273V10.7273ZM114.424 10.7273H118V14.303H114.424V10.7273ZM0 14.303H3.57576V17.8788H0V14.303ZM7.15152 14.303H10.7273V17.8788H7.15152V14.303ZM10.7273 14.303H14.303V17.8788H10.7273V14.303ZM14.303 14.303H17.8788V17.8788H14.303V14.303ZM21.4545 14.303H25.0303V17.8788H21.4545V14.303ZM35.7576 14.303H39.3333V17.8788H35.7576V14.303ZM42.9091 14.303H46.4848V17.8788H42.9091V14.303ZM50.0606 14.303H53.6364V17.8788H50.0606V14.303ZM60.7879 14.303H64.3636V17.8788H60.7879V14.303ZM64.3636 14.303H67.9394V17.8788H64.3636V14.303ZM67.9394 14.303H71.5152V17.8788H67.9394V14.303ZM71.5152 14.303H75.0909V17.8788H71.5152V14.303ZM92.9697 14.303H96.5454V17.8788H92.9697V14.303ZM100.121 14.303H103.697V17.8788H100.121V14.303ZM103.697 14.303H107.273V17.8788H103.697V14.303ZM107.273 14.303H110.848V17.8788H107.273V14.303ZM114.424 14.303H118V17.8788H114.424V14.303ZM0 17.8788H3.57576V21.4545H0V17.8788ZM21.4545 17.8788H25.0303V21.4545H21.4545V17.8788ZM28.6061 17.8788H32.1818V21.4545H28.6061V17.8788ZM53.6364 17.8788H57.2121V21.4545H53.6364V17.8788ZM57.2121 17.8788H60.7879V21.4545H57.2121V17.8788ZM60.7879 17.8788H64.3636V21.4545H60.7879V17.8788ZM71.5152 17.8788H75.0909V21.4545H71.5152V17.8788ZM92.9697 17.8788H96.5454V21.4545H92.9697V17.8788ZM114.424 17.8788H118V21.4545H114.424V17.8788ZM0 21.4545H3.57576V25.0303H0V21.4545ZM3.57576 21.4545H7.15152V25.0303H3.57576V21.4545ZM7.15152 21.4545H10.7273V25.0303H7.15152V21.4545ZM10.7273 21.4545H14.303V25.0303H10.7273V21.4545ZM14.303 21.4545H17.8788V25.0303H14.303V21.4545ZM17.8788 21.4545H21.4545V25.0303H17.8788V21.4545ZM21.4545 21.4545H25.0303V25.0303H21.4545V21.4545ZM28.6061 21.4545H32.1818V25.0303H28.6061V21.4545ZM35.7576 21.4545H39.3333V25.0303H35.7576V21.4545ZM42.9091 21.4545H46.4848V25.0303H42.9091V21.4545ZM50.0606 21.4545H53.6364V25.0303H50.0606V21.4545ZM57.2121 21.4545H60.7879V25.0303H57.2121V21.4545ZM64.3636 21.4545H67.9394V25.0303H64.3636V21.4545ZM71.5152 21.4545H75.0909V25.0303H71.5152V21.4545ZM78.6667 21.4545H82.2424V25.0303H78.6667V21.4545ZM85.8182 21.4545H89.3939V25.0303H85.8182V21.4545ZM92.9697 21.4545H96.5454V25.0303H92.9697V21.4545ZM96.5454 21.4545H100.121V25.0303H96.5454V21.4545ZM100.121 21.4545H103.697V25.0303H100.121V21.4545ZM103.697 21.4545H107.273V25.0303H103.697V21.4545ZM107.273 21.4545H110.848V25.0303H107.273V21.4545ZM110.848 21.4545H114.424V25.0303H110.848V21.4545ZM114.424 21.4545H118V25.0303H114.424V21.4545ZM28.6061 25.0303H32.1818V28.6061H28.6061V25.0303ZM32.1818 25.0303H35.7576V28.6061H32.1818V25.0303ZM35.7576 25.0303H39.3333V28.6061H35.7576V25.0303ZM39.3333 25.0303H42.9091V28.6061H39.3333V25.0303ZM46.4848 25.0303H50.0606V28.6061H46.4848V25.0303ZM53.6364 25.0303H57.2121V28.6061H53.6364V25.0303ZM64.3636 25.0303H67.9394V28.6061H64.3636V25.0303ZM78.6667 25.0303H82.2424V28.6061H78.6667V25.0303ZM82.2424 25.0303H85.8182V28.6061H82.2424V25.0303ZM85.8182 25.0303H89.3939V28.6061H85.8182V25.0303ZM3.57576 28.6061H7.15152V32.1818H3.57576V28.6061ZM7.15152 28.6061H10.7273V32.1818H7.15152V28.6061ZM21.4545 28.6061H25.0303V32.1818H21.4545V28.6061ZM42.9091 28.6061H46.4848V32.1818H42.9091V28.6061ZM46.4848 28.6061H50.0606V32.1818H46.4848V28.6061ZM53.6364 28.6061H57.2121V32.1818H53.6364V28.6061ZM57.2121 28.6061H60.7879V32.1818H57.2121V28.6061ZM67.9394 28.6061H71.5152V32.1818H67.9394V28.6061ZM71.5152 28.6061H75.0909V32.1818H71.5152V28.6061ZM82.2424 28.6061H85.8182V32.1818H82.2424V28.6061ZM85.8182 28.6061H89.3939V32.1818H85.8182V28.6061ZM92.9697 28.6061H96.5454V32.1818H92.9697V28.6061ZM96.5454 28.6061H100.121V32.1818H96.5454V28.6061ZM103.697 28.6061H107.273V32.1818H103.697V28.6061ZM0 32.1818H3.57576V35.7576H0V32.1818ZM7.15152 32.1818H10.7273V35.7576H7.15152V32.1818ZM10.7273 32.1818H14.303V35.7576H10.7273V32.1818ZM14.303 32.1818H17.8788V35.7576H14.303V32.1818ZM28.6061 32.1818H32.1818V35.7576H28.6061V32.1818ZM35.7576 32.1818H39.3333V35.7576H35.7576V32.1818ZM42.9091 32.1818H46.4848V35.7576H42.9091V32.1818ZM50.0606 32.1818H53.6364V35.7576H50.0606V32.1818ZM67.9394 32.1818H71.5152V35.7576H67.9394V32.1818ZM82.2424 32.1818H85.8182V35.7576H82.2424V32.1818ZM85.8182 32.1818H89.3939V35.7576H85.8182V32.1818ZM92.9697 32.1818H96.5454V35.7576H92.9697V32.1818ZM103.697 32.1818H107.273V35.7576H103.697V32.1818ZM114.424 32.1818H118V35.7576H114.424V32.1818ZM3.57576 35.7576H7.15152V39.3333H3.57576V35.7576ZM7.15152 35.7576H10.7273V39.3333H7.15152V35.7576ZM10.7273 35.7576H14.303V39.3333H10.7273V35.7576ZM14.303 35.7576H17.8788V39.3333H14.303V35.7576ZM21.4545 35.7576H25.0303V39.3333H21.4545V35.7576ZM25.0303 35.7576H28.6061V39.3333H25.0303V35.7576ZM28.6061 35.7576H32.1818V39.3333H28.6061V35.7576ZM32.1818 35.7576H35.7576V39.3333H32.1818V35.7576ZM35.7576 35.7576H39.3333V39.3333H35.7576V35.7576ZM39.3333 35.7576H42.9091V39.3333H39.3333V35.7576ZM42.9091 35.7576H46.4848V39.3333H42.9091V35.7576ZM50.0606 35.7576H53.6364V39.3333H50.0606V35.7576ZM53.6364 35.7576H57.2121V39.3333H53.6364V35.7576ZM60.7879 35.7576H64.3636V39.3333H60.7879V35.7576ZM64.3636 35.7576H67.9394V39.3333H64.3636V35.7576ZM67.9394 35.7576H71.5152V39.3333H67.9394V35.7576ZM71.5152 35.7576H75.0909V39.3333H71.5152V35.7576ZM75.0909 35.7576H78.6667V39.3333H75.0909V35.7576ZM82.2424 35.7576H85.8182V39.3333H82.2424V35.7576ZM85.8182 35.7576H89.3939V39.3333H85.8182V35.7576ZM103.697 35.7576H107.273V39.3333H103.697V35.7576ZM107.273 35.7576H110.848V39.3333H107.273V35.7576ZM114.424 35.7576H118V39.3333H114.424V35.7576ZM3.57576 39.3333H7.15152V42.9091H3.57576V39.3333ZM10.7273 39.3333H14.303V42.9091H10.7273V39.3333ZM32.1818 39.3333H35.7576V42.9091H32.1818V39.3333ZM42.9091 39.3333H46.4848V42.9091H42.9091V39.3333ZM46.4848 39.3333H50.0606V42.9091H46.4848V39.3333ZM53.6364 39.3333H57.2121V42.9091H53.6364V39.3333ZM64.3636 39.3333H67.9394V42.9091H64.3636V39.3333ZM67.9394 39.3333H71.5152V42.9091H67.9394V39.3333ZM71.5152 39.3333H75.0909V42.9091H71.5152V39.3333ZM78.6667 39.3333H82.2424V42.9091H78.6667V39.3333ZM82.2424 39.3333H85.8182V42.9091H82.2424V39.3333ZM85.8182 39.3333H89.3939V42.9091H85.8182V39.3333ZM92.9697 39.3333H96.5454V42.9091H92.9697V39.3333ZM96.5454 39.3333H100.121V42.9091H96.5454V39.3333ZM100.121 39.3333H103.697V42.9091H100.121V39.3333ZM103.697 39.3333H107.273V42.9091H103.697V39.3333ZM110.848 39.3333H114.424V42.9091H110.848V39.3333ZM114.424 39.3333H118V42.9091H114.424V39.3333ZM0 42.9091H3.57576V46.4848H0V42.9091ZM7.15152 42.9091H10.7273V46.4848H7.15152V42.9091ZM14.303 42.9091H17.8788V46.4848H14.303V42.9091ZM21.4545 42.9091H25.0303V46.4848H21.4545V42.9091ZM25.0303 42.9091H28.6061V46.4848H25.0303V42.9091ZM28.6061 42.9091H32.1818V46.4848H28.6061V42.9091ZM35.7576 42.9091H39.3333V46.4848H35.7576V42.9091ZM39.3333 42.9091H42.9091V46.4848H39.3333V42.9091ZM50.0606 42.9091H53.6364V46.4848H50.0606V42.9091ZM60.7879 42.9091H64.3636V46.4848H60.7879V42.9091ZM64.3636 42.9091H67.9394V46.4848H64.3636V42.9091ZM71.5152 42.9091H75.0909V46.4848H71.5152V42.9091ZM85.8182 42.9091H89.3939V46.4848H85.8182V42.9091ZM92.9697 42.9091H96.5454V46.4848H92.9697V42.9091ZM96.5454 42.9091H100.121V46.4848H96.5454V42.9091ZM7.15152 46.4848H10.7273V50.0606H7.15152V46.4848ZM14.303 46.4848H17.8788V50.0606H14.303V46.4848ZM35.7576 46.4848H39.3333V50.0606H35.7576V46.4848ZM39.3333 46.4848H42.9091V50.0606H39.3333V46.4848ZM42.9091 46.4848H46.4848V50.0606H42.9091V46.4848ZM50.0606 46.4848H53.6364V50.0606H50.0606V46.4848ZM60.7879 46.4848H64.3636V50.0606H60.7879V46.4848ZM64.3636 46.4848H67.9394V50.0606H64.3636V46.4848ZM71.5152 46.4848H75.0909V50.0606H71.5152V46.4848ZM75.0909 46.4848H78.6667V50.0606H75.0909V46.4848ZM82.2424 46.4848H85.8182V50.0606H82.2424V46.4848ZM85.8182 46.4848H89.3939V50.0606H85.8182V46.4848ZM89.3939 46.4848H92.9697V50.0606H89.3939V46.4848ZM92.9697 46.4848H96.5454V50.0606H92.9697V46.4848ZM96.5454 46.4848H100.121V50.0606H96.5454V46.4848ZM110.848 46.4848H114.424V50.0606H110.848V46.4848ZM114.424 46.4848H118V50.0606H114.424V46.4848ZM3.57576 50.0606H7.15152V53.6364H3.57576V50.0606ZM14.303 50.0606H17.8788V53.6364H14.303V50.0606ZM17.8788 50.0606H21.4545V53.6364H17.8788V50.0606ZM21.4545 50.0606H25.0303V53.6364H21.4545V50.0606ZM28.6061 50.0606H32.1818V53.6364H28.6061V50.0606ZM32.1818 50.0606H35.7576V53.6364H32.1818V50.0606ZM39.3333 50.0606H42.9091V53.6364H39.3333V50.0606ZM42.9091 50.0606H46.4848V53.6364H42.9091V50.0606ZM60.7879 50.0606H64.3636V53.6364H60.7879V50.0606ZM64.3636 50.0606H67.9394V53.6364H64.3636V50.0606ZM71.5152 50.0606H75.0909V53.6364H71.5152V50.0606ZM82.2424 50.0606H85.8182V53.6364H82.2424V50.0606ZM85.8182 50.0606H89.3939V53.6364H85.8182V50.0606ZM100.121 50.0606H103.697V53.6364H100.121V50.0606ZM114.424 50.0606H118V53.6364H114.424V50.0606ZM7.15152 53.6364H10.7273V57.2121H7.15152V53.6364ZM10.7273 53.6364H14.303V57.2121H10.7273V53.6364ZM14.303 53.6364H17.8788V57.2121H14.303V53.6364ZM46.4848 53.6364H50.0606V57.2121H46.4848V53.6364ZM50.0606 53.6364H53.6364V57.2121H50.0606V53.6364ZM53.6364 53.6364H57.2121V57.2121H53.6364V53.6364ZM57.2121 53.6364H60.7879V57.2121H57.2121V53.6364ZM64.3636 53.6364H67.9394V57.2121H64.3636V53.6364ZM67.9394 53.6364H71.5152V57.2121H67.9394V53.6364ZM71.5152 53.6364H75.0909V57.2121H71.5152V53.6364ZM82.2424 53.6364H85.8182V57.2121H82.2424V53.6364ZM85.8182 53.6364H89.3939V57.2121H85.8182V53.6364ZM89.3939 53.6364H92.9697V57.2121H89.3939V53.6364ZM92.9697 53.6364H96.5454V57.2121H92.9697V53.6364ZM103.697 53.6364H107.273V57.2121H103.697V53.6364ZM7.15152 57.2121H10.7273V60.7879H7.15152V57.2121ZM10.7273 57.2121H14.303V60.7879H10.7273V57.2121ZM17.8788 57.2121H21.4545V60.7879H17.8788V57.2121ZM21.4545 57.2121H25.0303V60.7879H21.4545V57.2121ZM32.1818 57.2121H35.7576V60.7879H32.1818V57.2121ZM35.7576 57.2121H39.3333V60.7879H35.7576V57.2121ZM53.6364 57.2121H57.2121V60.7879H53.6364V57.2121ZM57.2121 57.2121H60.7879V60.7879H57.2121V57.2121ZM64.3636 57.2121H67.9394V60.7879H64.3636V57.2121ZM71.5152 57.2121H75.0909V60.7879H71.5152V57.2121ZM82.2424 57.2121H85.8182V60.7879H82.2424V57.2121ZM85.8182 57.2121H89.3939V60.7879H85.8182V57.2121ZM92.9697 57.2121H96.5454V60.7879H92.9697V57.2121ZM96.5454 57.2121H100.121V60.7879H96.5454V57.2121ZM103.697 57.2121H107.273V60.7879H103.697V57.2121ZM110.848 57.2121H114.424V60.7879H110.848V57.2121ZM0 60.7879H3.57576V64.3636H0V60.7879ZM3.57576 60.7879H7.15152V64.3636H3.57576V60.7879ZM10.7273 60.7879H14.303V64.3636H10.7273V60.7879ZM17.8788 60.7879H21.4545V64.3636H17.8788V60.7879ZM28.6061 60.7879H32.1818V64.3636H28.6061V60.7879ZM32.1818 60.7879H35.7576V64.3636H32.1818V60.7879ZM35.7576 60.7879H39.3333V64.3636H35.7576V60.7879ZM39.3333 60.7879H42.9091V64.3636H39.3333V60.7879ZM50.0606 60.7879H53.6364V64.3636H50.0606V60.7879ZM57.2121 60.7879H60.7879V64.3636H57.2121V60.7879ZM67.9394 60.7879H71.5152V64.3636H67.9394V60.7879ZM71.5152 60.7879H75.0909V64.3636H71.5152V60.7879ZM82.2424 60.7879H85.8182V64.3636H82.2424V60.7879ZM89.3939 60.7879H92.9697V64.3636H89.3939V60.7879ZM92.9697 60.7879H96.5454V64.3636H92.9697V60.7879ZM103.697 60.7879H107.273V64.3636H103.697V60.7879ZM114.424 60.7879H118V64.3636H114.424V60.7879ZM0 64.3636H3.57576V67.9394H0V64.3636ZM3.57576 64.3636H7.15152V67.9394H3.57576V64.3636ZM7.15152 64.3636H10.7273V67.9394H7.15152V64.3636ZM10.7273 64.3636H14.303V67.9394H10.7273V64.3636ZM17.8788 64.3636H21.4545V67.9394H17.8788V64.3636ZM21.4545 64.3636H25.0303V67.9394H21.4545V64.3636ZM28.6061 64.3636H32.1818V67.9394H28.6061V64.3636ZM32.1818 64.3636H35.7576V67.9394H32.1818V64.3636ZM53.6364 64.3636H57.2121V67.9394H53.6364V64.3636ZM57.2121 64.3636H60.7879V67.9394H57.2121V64.3636ZM60.7879 64.3636H64.3636V67.9394H60.7879V64.3636ZM64.3636 64.3636H67.9394V67.9394H64.3636V64.3636ZM67.9394 64.3636H71.5152V67.9394H67.9394V64.3636ZM78.6667 64.3636H82.2424V67.9394H78.6667V64.3636ZM82.2424 64.3636H85.8182V67.9394H82.2424V64.3636ZM89.3939 64.3636H92.9697V67.9394H89.3939V64.3636ZM96.5454 64.3636H100.121V67.9394H96.5454V64.3636ZM103.697 64.3636H107.273V67.9394H103.697V64.3636ZM107.273 64.3636H110.848V67.9394H107.273V64.3636ZM110.848 64.3636H114.424V67.9394H110.848V64.3636ZM114.424 64.3636H118V67.9394H114.424V64.3636ZM0 67.9394H3.57576V71.5152H0V67.9394ZM28.6061 67.9394H32.1818V71.5152H28.6061V67.9394ZM39.3333 67.9394H42.9091V71.5152H39.3333V67.9394ZM46.4848 67.9394H50.0606V71.5152H46.4848V67.9394ZM50.0606 67.9394H53.6364V71.5152H50.0606V67.9394ZM53.6364 67.9394H57.2121V71.5152H53.6364V67.9394ZM64.3636 67.9394H67.9394V71.5152H64.3636V67.9394ZM82.2424 67.9394H85.8182V71.5152H82.2424V67.9394ZM85.8182 67.9394H89.3939V71.5152H85.8182V67.9394ZM89.3939 67.9394H92.9697V71.5152H89.3939V67.9394ZM100.121 67.9394H103.697V71.5152H100.121V67.9394ZM103.697 67.9394H107.273V71.5152H103.697V67.9394ZM110.848 67.9394H114.424V71.5152H110.848V67.9394ZM0 71.5152H3.57576V75.0909H0V71.5152ZM3.57576 71.5152H7.15152V75.0909H3.57576V71.5152ZM10.7273 71.5152H14.303V75.0909H10.7273V71.5152ZM14.303 71.5152H17.8788V75.0909H14.303V71.5152ZM21.4545 71.5152H25.0303V75.0909H21.4545V71.5152ZM25.0303 71.5152H28.6061V75.0909H25.0303V71.5152ZM46.4848 71.5152H50.0606V75.0909H46.4848V71.5152ZM50.0606 71.5152H53.6364V75.0909H50.0606V71.5152ZM53.6364 71.5152H57.2121V75.0909H53.6364V71.5152ZM57.2121 71.5152H60.7879V75.0909H57.2121V71.5152ZM78.6667 71.5152H82.2424V75.0909H78.6667V71.5152ZM82.2424 71.5152H85.8182V75.0909H82.2424V71.5152ZM85.8182 71.5152H89.3939V75.0909H85.8182V71.5152ZM89.3939 71.5152H92.9697V75.0909H89.3939V71.5152ZM92.9697 71.5152H96.5454V75.0909H92.9697V71.5152ZM96.5454 71.5152H100.121V75.0909H96.5454V71.5152ZM3.57576 75.0909H7.15152V78.6667H3.57576V75.0909ZM7.15152 75.0909H10.7273V78.6667H7.15152V75.0909ZM17.8788 75.0909H21.4545V78.6667H17.8788V75.0909ZM28.6061 75.0909H32.1818V78.6667H28.6061V75.0909ZM35.7576 75.0909H39.3333V78.6667H35.7576V75.0909ZM39.3333 75.0909H42.9091V78.6667H39.3333V75.0909ZM42.9091 75.0909H46.4848V78.6667H42.9091V75.0909ZM46.4848 75.0909H50.0606V78.6667H46.4848V75.0909ZM53.6364 75.0909H57.2121V78.6667H53.6364V75.0909ZM60.7879 75.0909H64.3636V78.6667H60.7879V75.0909ZM75.0909 75.0909H78.6667V78.6667H75.0909V75.0909ZM82.2424 75.0909H85.8182V78.6667H82.2424V75.0909ZM85.8182 75.0909H89.3939V78.6667H85.8182V75.0909ZM92.9697 75.0909H96.5454V78.6667H92.9697V75.0909ZM96.5454 75.0909H100.121V78.6667H96.5454V75.0909ZM103.697 75.0909H107.273V78.6667H103.697V75.0909ZM107.273 75.0909H110.848V78.6667H107.273V75.0909ZM114.424 75.0909H118V78.6667H114.424V75.0909ZM0 78.6667H3.57576V82.2424H0V78.6667ZM3.57576 78.6667H7.15152V82.2424H3.57576V78.6667ZM14.303 78.6667H17.8788V82.2424H14.303V78.6667ZM21.4545 78.6667H25.0303V82.2424H21.4545V78.6667ZM25.0303 78.6667H28.6061V82.2424H25.0303V78.6667ZM28.6061 78.6667H32.1818V82.2424H28.6061V78.6667ZM42.9091 78.6667H46.4848V82.2424H42.9091V78.6667ZM57.2121 78.6667H60.7879V82.2424H57.2121V78.6667ZM64.3636 78.6667H67.9394V82.2424H64.3636V78.6667ZM67.9394 78.6667H71.5152V82.2424H67.9394V78.6667ZM78.6667 78.6667H82.2424V82.2424H78.6667V78.6667ZM82.2424 78.6667H85.8182V82.2424H82.2424V78.6667ZM92.9697 78.6667H96.5454V82.2424H92.9697V78.6667ZM96.5454 78.6667H100.121V82.2424H96.5454V78.6667ZM100.121 78.6667H103.697V82.2424H100.121V78.6667ZM114.424 78.6667H118V82.2424H114.424V78.6667ZM7.15152 82.2424H10.7273V85.8182H7.15152V82.2424ZM10.7273 82.2424H14.303V85.8182H10.7273V82.2424ZM14.303 82.2424H17.8788V85.8182H14.303V82.2424ZM17.8788 82.2424H21.4545V85.8182H17.8788V82.2424ZM32.1818 82.2424H35.7576V85.8182H32.1818V82.2424ZM35.7576 82.2424H39.3333V85.8182H35.7576V82.2424ZM46.4848 82.2424H50.0606V85.8182H46.4848V82.2424ZM50.0606 82.2424H53.6364V85.8182H50.0606V82.2424ZM57.2121 82.2424H60.7879V85.8182H57.2121V82.2424ZM64.3636 82.2424H67.9394V85.8182H64.3636V82.2424ZM78.6667 82.2424H82.2424V85.8182H78.6667V82.2424ZM89.3939 82.2424H92.9697V85.8182H89.3939V82.2424ZM92.9697 82.2424H96.5454V85.8182H92.9697V82.2424ZM103.697 82.2424H107.273V85.8182H103.697V82.2424ZM0 85.8182H3.57576V89.3939H0V85.8182ZM3.57576 85.8182H7.15152V89.3939H3.57576V85.8182ZM14.303 85.8182H17.8788V89.3939H14.303V85.8182ZM17.8788 85.8182H21.4545V89.3939H17.8788V85.8182ZM21.4545 85.8182H25.0303V89.3939H21.4545V85.8182ZM28.6061 85.8182H32.1818V89.3939H28.6061V85.8182ZM32.1818 85.8182H35.7576V89.3939H32.1818V85.8182ZM35.7576 85.8182H39.3333V89.3939H35.7576V85.8182ZM46.4848 85.8182H50.0606V89.3939H46.4848V85.8182ZM60.7879 85.8182H64.3636V89.3939H60.7879V85.8182ZM64.3636 85.8182H67.9394V89.3939H64.3636V85.8182ZM67.9394 85.8182H71.5152V89.3939H67.9394V85.8182ZM71.5152 85.8182H75.0909V89.3939H71.5152V85.8182ZM82.2424 85.8182H85.8182V89.3939H82.2424V85.8182ZM85.8182 85.8182H89.3939V89.3939H85.8182V85.8182ZM89.3939 85.8182H92.9697V89.3939H89.3939V85.8182ZM92.9697 85.8182H96.5454V89.3939H92.9697V85.8182ZM96.5454 85.8182H100.121V89.3939H96.5454V85.8182ZM100.121 85.8182H103.697V89.3939H100.121V85.8182ZM103.697 85.8182H107.273V89.3939H103.697V85.8182ZM110.848 85.8182H114.424V89.3939H110.848V85.8182ZM28.6061 89.3939H32.1818V92.9697H28.6061V89.3939ZM32.1818 89.3939H35.7576V92.9697H32.1818V89.3939ZM35.7576 89.3939H39.3333V92.9697H35.7576V89.3939ZM50.0606 89.3939H53.6364V92.9697H50.0606V89.3939ZM57.2121 89.3939H60.7879V92.9697H57.2121V89.3939ZM60.7879 89.3939H64.3636V92.9697H60.7879V89.3939ZM64.3636 89.3939H67.9394V92.9697H64.3636V89.3939ZM67.9394 89.3939H71.5152V92.9697H67.9394V89.3939ZM71.5152 89.3939H75.0909V92.9697H71.5152V89.3939ZM75.0909 89.3939H78.6667V92.9697H75.0909V89.3939ZM82.2424 89.3939H85.8182V92.9697H82.2424V89.3939ZM85.8182 89.3939H89.3939V92.9697H85.8182V89.3939ZM100.121 89.3939H103.697V92.9697H100.121V89.3939ZM114.424 89.3939H118V92.9697H114.424V89.3939ZM0 92.9697H3.57576V96.5454H0V92.9697ZM3.57576 92.9697H7.15152V96.5454H3.57576V92.9697ZM7.15152 92.9697H10.7273V96.5454H7.15152V92.9697ZM10.7273 92.9697H14.303V96.5454H10.7273V92.9697ZM14.303 92.9697H17.8788V96.5454H14.303V92.9697ZM17.8788 92.9697H21.4545V96.5454H17.8788V92.9697ZM21.4545 92.9697H25.0303V96.5454H21.4545V92.9697ZM32.1818 92.9697H35.7576V96.5454H32.1818V92.9697ZM42.9091 92.9697H46.4848V96.5454H42.9091V92.9697ZM46.4848 92.9697H50.0606V96.5454H46.4848V92.9697ZM50.0606 92.9697H53.6364V96.5454H50.0606V92.9697ZM53.6364 92.9697H57.2121V96.5454H53.6364V92.9697ZM57.2121 92.9697H60.7879V96.5454H57.2121V92.9697ZM60.7879 92.9697H64.3636V96.5454H60.7879V92.9697ZM64.3636 92.9697H67.9394V96.5454H64.3636V92.9697ZM67.9394 92.9697H71.5152V96.5454H67.9394V92.9697ZM71.5152 92.9697H75.0909V96.5454H71.5152V92.9697ZM85.8182 92.9697H89.3939V96.5454H85.8182V92.9697ZM92.9697 92.9697H96.5454V96.5454H92.9697V92.9697ZM100.121 92.9697H103.697V96.5454H100.121V92.9697ZM103.697 92.9697H107.273V96.5454H103.697V92.9697ZM107.273 92.9697H110.848V96.5454H107.273V92.9697ZM114.424 92.9697H118V96.5454H114.424V92.9697ZM0 96.5454H3.57576V100.121H0V96.5454ZM21.4545 96.5454H25.0303V100.121H21.4545V96.5454ZM71.5152 96.5454H75.0909V100.121H71.5152V96.5454ZM78.6667 96.5454H82.2424V100.121H78.6667V96.5454ZM82.2424 96.5454H85.8182V100.121H82.2424V96.5454ZM85.8182 96.5454H89.3939V100.121H85.8182V96.5454ZM100.121 96.5454H103.697V100.121H100.121V96.5454ZM103.697 96.5454H107.273V100.121H103.697V96.5454ZM110.848 96.5454H114.424V100.121H110.848V96.5454ZM114.424 96.5454H118V100.121H114.424V96.5454ZM0 100.121H3.57576V103.697H0V100.121ZM7.15152 100.121H10.7273V103.697H7.15152V100.121ZM10.7273 100.121H14.303V103.697H10.7273V100.121ZM14.303 100.121H17.8788V103.697H14.303V100.121ZM21.4545 100.121H25.0303V103.697H21.4545V100.121ZM32.1818 100.121H35.7576V103.697H32.1818V100.121ZM35.7576 100.121H39.3333V103.697H35.7576V100.121ZM42.9091 100.121H46.4848V103.697H42.9091V100.121ZM50.0606 100.121H53.6364V103.697H50.0606V100.121ZM57.2121 100.121H60.7879V103.697H57.2121V100.121ZM60.7879 100.121H64.3636V103.697H60.7879V100.121ZM64.3636 100.121H67.9394V103.697H64.3636V100.121ZM67.9394 100.121H71.5152V103.697H67.9394V100.121ZM71.5152 100.121H75.0909V103.697H71.5152V100.121ZM75.0909 100.121H78.6667V103.697H75.0909V100.121ZM78.6667 100.121H82.2424V103.697H78.6667V100.121ZM82.2424 100.121H85.8182V103.697H82.2424V100.121ZM85.8182 100.121H89.3939V103.697H85.8182V100.121ZM89.3939 100.121H92.9697V103.697H89.3939V100.121ZM92.9697 100.121H96.5454V103.697H92.9697V100.121ZM96.5454 100.121H100.121V103.697H96.5454V100.121ZM100.121 100.121H103.697V103.697H100.121V100.121ZM0 103.697H3.57576V107.273H0V103.697ZM7.15152 103.697H10.7273V107.273H7.15152V103.697ZM10.7273 103.697H14.303V107.273H10.7273V103.697ZM14.303 103.697H17.8788V107.273H14.303V103.697ZM21.4545 103.697H25.0303V107.273H21.4545V103.697ZM39.3333 103.697H42.9091V107.273H39.3333V103.697ZM42.9091 103.697H46.4848V107.273H42.9091V103.697ZM53.6364 103.697H57.2121V107.273H53.6364V103.697ZM57.2121 103.697H60.7879V107.273H57.2121V103.697ZM60.7879 103.697H64.3636V107.273H60.7879V103.697ZM71.5152 103.697H75.0909V107.273H71.5152V103.697ZM82.2424 103.697H85.8182V107.273H82.2424V103.697ZM85.8182 103.697H89.3939V107.273H85.8182V103.697ZM89.3939 103.697H92.9697V107.273H89.3939V103.697ZM96.5454 103.697H100.121V107.273H96.5454V103.697ZM100.121 103.697H103.697V107.273H100.121V103.697ZM103.697 103.697H107.273V107.273H103.697V103.697ZM107.273 103.697H110.848V107.273H107.273V103.697ZM114.424 103.697H118V107.273H114.424V103.697ZM0 107.273H3.57576V110.848H0V107.273ZM7.15152 107.273H10.7273V110.848H7.15152V107.273ZM10.7273 107.273H14.303V110.848H10.7273V107.273ZM14.303 107.273H17.8788V110.848H14.303V107.273ZM21.4545 107.273H25.0303V110.848H21.4545V107.273ZM28.6061 107.273H32.1818V110.848H28.6061V107.273ZM39.3333 107.273H42.9091V110.848H39.3333V107.273ZM46.4848 107.273H50.0606V110.848H46.4848V107.273ZM60.7879 107.273H64.3636V110.848H60.7879V107.273ZM64.3636 107.273H67.9394V110.848H64.3636V107.273ZM71.5152 107.273H75.0909V110.848H71.5152V107.273ZM75.0909 107.273H78.6667V110.848H75.0909V107.273ZM85.8182 107.273H89.3939V110.848H85.8182V107.273ZM96.5454 107.273H100.121V110.848H96.5454V107.273ZM100.121 107.273H103.697V110.848H100.121V107.273ZM107.273 107.273H110.848V110.848H107.273V107.273ZM110.848 107.273H114.424V110.848H110.848V107.273ZM114.424 107.273H118V110.848H114.424V107.273ZM0 110.848H3.57576V114.424H0V110.848ZM21.4545 110.848H25.0303V114.424H21.4545V110.848ZM28.6061 110.848H32.1818V114.424H28.6061V110.848ZM39.3333 110.848H42.9091V114.424H39.3333V110.848ZM42.9091 110.848H46.4848V114.424H42.9091V110.848ZM50.0606 110.848H53.6364V114.424H50.0606V110.848ZM53.6364 110.848H57.2121V114.424H53.6364V110.848ZM57.2121 110.848H60.7879V114.424H57.2121V110.848ZM60.7879 110.848H64.3636V114.424H60.7879V110.848ZM67.9394 110.848H71.5152V114.424H67.9394V110.848ZM71.5152 110.848H75.0909V114.424H71.5152V110.848ZM78.6667 110.848H82.2424V114.424H78.6667V110.848ZM85.8182 110.848H89.3939V114.424H85.8182V110.848ZM89.3939 110.848H92.9697V114.424H89.3939V110.848ZM92.9697 110.848H96.5454V114.424H92.9697V110.848ZM96.5454 110.848H100.121V114.424H96.5454V110.848ZM100.121 110.848H103.697V114.424H100.121V110.848ZM103.697 110.848H107.273V114.424H103.697V110.848ZM0 114.424H3.57576V118H0V114.424ZM3.57576 114.424H7.15152V118H3.57576V114.424ZM7.15152 114.424H10.7273V118H7.15152V114.424ZM10.7273 114.424H14.303V118H10.7273V114.424ZM14.303 114.424H17.8788V118H14.303V114.424ZM17.8788 114.424H21.4545V118H17.8788V114.424ZM21.4545 114.424H25.0303V118H21.4545V114.424ZM39.3333 114.424H42.9091V118H39.3333V114.424ZM46.4848 114.424H50.0606V118H46.4848V114.424ZM53.6364 114.424H57.2121V118H53.6364V114.424ZM60.7879 114.424H64.3636V118H60.7879V114.424ZM64.3636 114.424H67.9394V118H64.3636V114.424ZM71.5152 114.424H75.0909V118H71.5152V114.424ZM85.8182 114.424H89.3939V118H85.8182V114.424ZM96.5454 114.424H100.121V118H96.5454V114.424ZM100.121 114.424H103.697V118H100.121V114.424ZM114.424 114.424H118V118H114.424V114.424Z" fill="#130C2C"/>
</svg>
