<svg xmlns="http://www.w3.org/2000/svg" width="110" height="111" fill="none"><path fill="#556A74" d="M0 .086h2.973v2.973H0V.086Zm2.973 0h2.973v2.973H2.973V.086Zm2.973 0h2.973v2.973H5.946V.086Zm2.973 0h2.973v2.973H8.919V.086Zm2.973 0h2.973v2.973h-2.973V.086Zm2.973 0h2.973v2.973h-2.973V.086Zm2.973 0h2.973v2.973h-2.973V.086Zm5.946 0h2.973v2.973h-2.973V.086Zm8.919 0h2.973v2.973h-2.973V.086Zm2.973 0h2.973v2.973h-2.973V.086Zm2.973 0h2.973v2.973h-2.973V.086Zm5.946 0h2.973v2.973h-2.973V.086Zm8.919 0h2.972v2.973h-2.972V.086Zm2.972 0h2.974v2.973h-2.974V.086Zm5.946 0h2.973v2.973h-2.973V.086Zm8.92 0h2.972v2.973h-2.973V.086Zm2.972 0h2.973v2.973h-2.973V.086Zm8.92 0h2.972v2.973h-2.973V.086Zm5.945 0h2.973v2.973H89.19V.086Zm2.973 0h2.973v2.973h-2.973V.086Zm2.973 0h2.973v2.973h-2.973V.086Zm2.973 0h2.973v2.973h-2.973V.086Zm2.973 0h2.973v2.973h-2.973V.086Zm2.973 0h2.973v2.973h-2.973V.086Zm2.973 0H110v2.973h-2.973V.086ZM0 3.059h2.973v2.973H0V3.059Zm17.838 0h2.973v2.973h-2.973V3.059Zm11.892 0h2.973v2.973H29.73V3.059Zm5.946 0h2.973v2.973h-2.973V3.059Zm8.919 0h2.973v2.973h-2.973V3.059Zm2.973 0h2.973v2.973h-2.973V3.059Zm2.973 0h2.973v2.973H50.54V3.059Zm2.973 0h2.972v2.973h-2.972V3.059Zm2.972 0h2.974v2.973h-2.974V3.059Zm5.946 0h2.973v2.973h-2.973V3.059Zm2.973 0h2.973v2.973h-2.973V3.059Zm14.865 0h2.973v2.973H80.27V3.059Zm2.973 0h2.973v2.973h-2.973V3.059Zm5.946 0h2.973v2.973H89.19V3.059Zm17.838 0H110v2.973h-2.973V3.059ZM0 6.032h2.973v2.973H0V6.032Zm5.946 0h2.973v2.973H5.946V6.032Zm2.973 0h2.973v2.973H8.919V6.032Zm2.973 0h2.973v2.973h-2.973V6.032Zm5.946 0h2.973v2.973h-2.973V6.032Zm20.81 0h2.974v2.973h-2.973V6.032Zm2.974 0h2.973v2.973h-2.973V6.032Zm5.946 0h2.973v2.973h-2.973V6.032Zm14.864 0h2.973v2.973h-2.973V6.032Zm14.865 0h2.973v2.973h-2.973V6.032Zm5.946 0h2.973v2.973h-2.973V6.032Zm5.946 0h2.973v2.973H89.19V6.032Zm5.946 0h2.973v2.973h-2.973V6.032Zm2.973 0h2.973v2.973h-2.973V6.032Zm2.973 0h2.973v2.973h-2.973V6.032Zm5.946 0H110v2.973h-2.973V6.032ZM0 9.005h2.973v2.973H0V9.005Zm5.946 0h2.973v2.973H5.946V9.005Zm2.973 0h2.973v2.973H8.919V9.005Zm2.973 0h2.973v2.973h-2.973V9.005Zm5.946 0h2.973v2.973h-2.973V9.005Zm8.919 0h2.973v2.973h-2.973V9.005Zm5.946 0h2.973v2.973h-2.973V9.005Zm2.973 0h2.973v2.973h-2.973V9.005Zm8.919 0h2.973v2.973h-2.973V9.005Zm2.973 0h2.973v2.973h-2.973V9.005Zm2.973 0h2.973v2.973H50.54V9.005Zm5.946 0h2.972v2.973h-2.973V9.005Zm2.972 0h2.973v2.973H59.46V9.005Zm5.946 0h2.973v2.973h-2.973V9.005Zm2.973 0h2.973v2.973h-2.973V9.005Zm2.973 0h2.973v2.973h-2.973V9.005Zm2.973 0h2.973v2.973h-2.973V9.005Zm14.865 0h2.973v2.973H89.19V9.005Zm5.946 0h2.973v2.973h-2.973V9.005Zm2.973 0h2.973v2.973h-2.973V9.005Zm2.973 0h2.973v2.973h-2.973V9.005Zm5.946 0H110v2.973h-2.973V9.005ZM0 11.978h2.973v2.973H0v-2.973Zm5.946 0h2.973v2.973H5.946v-2.973Zm2.973 0h2.973v2.973H8.919v-2.973Zm2.973 0h2.973v2.973h-2.973v-2.973Zm5.946 0h2.973v2.973h-2.973v-2.973Zm5.946 0h2.973v2.973h-2.973v-2.973Zm2.973 0h2.973v2.973h-2.973v-2.973Zm5.946 0h2.973v2.973h-2.973v-2.973Zm2.973 0h2.973v2.973h-2.973v-2.973Zm5.946 0h2.973v2.973h-2.973v-2.973Zm2.973 0h2.973v2.973h-2.973v-2.973Zm2.973 0h2.973v2.973h-2.973v-2.973Zm8.919 0h2.972v2.973h-2.973v-2.973Zm5.945 0h2.973v2.973h-2.973v-2.973Zm5.946 0h2.973v2.973h-2.973v-2.973Zm5.946 0h2.973v2.973h-2.973v-2.973Zm2.973 0h2.973v2.973h-2.973v-2.973Zm11.892 0h2.973v2.973H89.19v-2.973Zm5.946 0h2.973v2.973h-2.973v-2.973Zm2.973 0h2.973v2.973h-2.973v-2.973Zm2.973 0h2.973v2.973h-2.973v-2.973Zm5.946 0H110v2.973h-2.973v-2.973ZM0 14.95h2.973v2.973H0V14.95Zm17.838 0h2.973v2.973h-2.973V14.95Zm5.946 0h2.973v2.973h-2.973V14.95Zm5.946 0h2.973v2.973H29.73V14.95Zm2.973 0h2.973v2.973h-2.973V14.95Zm8.919 0h2.973v2.973h-2.973V14.95Zm2.973 0h2.973v2.973h-2.973V14.95Zm5.946 0h2.973v2.973H50.54V14.95Zm5.946 0h2.972v2.973h-2.973V14.95Zm5.945 0h2.973v2.973h-2.973V14.95Zm2.973 0h2.973v2.973h-2.973V14.95Zm8.92 0h2.972v2.973h-2.973V14.95Zm5.945 0h2.973v2.973H80.27V14.95Zm2.973 0h2.973v2.973h-2.973V14.95Zm5.946 0h2.973v2.973H89.19V14.95Zm17.838 0H110v2.973h-2.973V14.95ZM0 17.924h2.973v2.973H0v-2.973Zm2.973 0h2.973v2.973H2.973v-2.973Zm2.973 0h2.973v2.973H5.946v-2.973Zm2.973 0h2.973v2.973H8.919v-2.973Zm2.973 0h2.973v2.973h-2.973v-2.973Zm2.973 0h2.973v2.973h-2.973v-2.973Zm2.973 0h2.973v2.973h-2.973v-2.973Zm5.946 0h2.973v2.973h-2.973v-2.973Zm5.946 0h2.973v2.973H29.73v-2.973Zm5.946 0h2.973v2.973h-2.973v-2.973Zm5.946 0h2.973v2.973h-2.973v-2.973Zm5.946 0h2.973v2.973h-2.973v-2.973Zm5.946 0h2.972v2.973h-2.972v-2.973Zm5.945 0h2.973v2.973H59.46v-2.973Zm5.946 0h2.973v2.973h-2.973v-2.973Zm5.946 0h2.973v2.973h-2.973v-2.973Zm5.946 0h2.973v2.973h-2.973v-2.973Zm5.946 0h2.973v2.973h-2.973v-2.973Zm5.946 0h2.973v2.973H89.19v-2.973Zm2.973 0h2.973v2.973h-2.973v-2.973Zm2.973 0h2.973v2.973h-2.973v-2.973Zm2.973 0h2.973v2.973h-2.973v-2.973Zm2.973 0h2.973v2.973h-2.973v-2.973Zm2.973 0h2.973v2.973h-2.973v-2.973Zm2.973 0H110v2.973h-2.973v-2.973Zm-80.27 2.973h2.973v2.973h-2.973v-2.973Zm5.946 0h2.973v2.973h-2.973v-2.973Zm2.973 0h2.973v2.973h-2.973v-2.973Zm2.973 0h2.973v2.973h-2.973v-2.973Zm23.783 0h2.973v2.973h-2.973v-2.973Zm2.973 0h2.973v2.973h-2.973v-2.973Zm2.973 0h2.973v2.973h-2.973v-2.973Zm2.973 0h2.973v2.973h-2.973v-2.973Zm11.892 0h2.973v2.973h-2.973v-2.973ZM2.973 23.87h2.973v2.973H2.973V23.87Zm2.973 0h2.973v2.973H5.946V23.87Zm2.973 0h2.973v2.973H8.919V23.87Zm2.973 0h2.973v2.973h-2.973V23.87Zm2.973 0h2.973v2.973h-2.973V23.87Zm2.973 0h2.973v2.973h-2.973V23.87Zm2.973 0h2.973v2.973H20.81V23.87Zm5.946 0h2.973v2.973h-2.973V23.87Zm2.973 0h2.973v2.973H29.73V23.87Zm8.919 0h2.973v2.973h-2.973V23.87Zm5.946 0h2.973v2.973h-2.973V23.87Zm2.973 0h2.973v2.973h-2.973V23.87Zm2.973 0h2.973v2.973H50.54V23.87Zm14.864 0h2.973v2.973h-2.973V23.87Zm11.892 0h2.973v2.973h-2.973V23.87Zm14.865 0h2.973v2.973h-2.973V23.87Zm2.973 0h2.973v2.973h-2.973V23.87Zm11.892 0H110v2.973h-2.973V23.87ZM0 26.843h2.973v2.973H0v-2.973Zm2.973 0h2.973v2.973H2.973v-2.973Zm2.973 0h2.973v2.973H5.946v-2.973Zm2.973 0h2.973v2.973H8.919v-2.973Zm5.946 0h2.973v2.973h-2.973v-2.973Zm5.946 0h2.973v2.973H20.81v-2.973Zm14.865 0h2.973v2.973h-2.973v-2.973Zm2.973 0h2.973v2.973h-2.973v-2.973Zm5.946 0h2.973v2.973h-2.973v-2.973Zm2.973 0h2.973v2.973h-2.973v-2.973Zm2.973 0h2.973v2.973H50.54v-2.973Zm5.946 0h2.972v2.973h-2.973v-2.973Zm11.891 0h2.973v2.973h-2.973v-2.973Zm5.946 0h2.973v2.973h-2.973v-2.973Zm8.92 0h2.972v2.973h-2.973v-2.973Zm2.972 0h2.973v2.973h-2.973v-2.973Zm2.973 0h2.973v2.973H89.19v-2.973Zm2.973 0h2.973v2.973h-2.973v-2.973Zm8.919 0h2.973v2.973h-2.973v-2.973ZM0 29.816h2.973v2.973H0v-2.973Zm2.973 0h2.973v2.973H2.973v-2.973Zm8.919 0h2.973v2.973h-2.973v-2.973Zm2.973 0h2.973v2.973h-2.973v-2.973Zm2.973 0h2.973v2.973h-2.973v-2.973Zm2.973 0h2.973v2.973H20.81v-2.973Zm5.946 0h2.973v2.973h-2.973v-2.973Zm2.973 0h2.973v2.973H29.73v-2.973Zm2.973 0h2.973v2.973h-2.973v-2.973Zm11.892 0h2.973v2.973h-2.973v-2.973Zm2.973 0h2.973v2.973h-2.973v-2.973Zm5.946 0h2.972v2.973h-2.972v-2.973Zm2.972 0h2.974v2.973h-2.974v-2.973Zm2.974 0h2.972v2.973H59.46v-2.973Zm2.972 0h2.973v2.973h-2.973v-2.973Zm8.92 0h2.972v2.973h-2.973v-2.973Zm2.972 0h2.973v2.973h-2.973v-2.973Zm2.973 0h2.973v2.973h-2.973v-2.973Zm2.973 0h2.973v2.973H80.27v-2.973Zm8.92 0h2.972v2.973H89.19v-2.973Zm8.918 0h2.973v2.973h-2.973v-2.973Zm2.973 0h2.973v2.973h-2.973v-2.973Zm2.973 0h2.973v2.973h-2.973v-2.973Zm2.973 0H110v2.973h-2.973v-2.973ZM0 32.789h2.973v2.973H0v-2.973Zm2.973 0h2.973v2.973H2.973v-2.973Zm2.973 0h2.973v2.973H5.946v-2.973Zm2.973 0h2.973v2.973H8.919v-2.973Zm2.973 0h2.973v2.973h-2.973v-2.973Zm2.973 0h2.973v2.973h-2.973v-2.973Zm8.919 0h2.973v2.973h-2.973v-2.973Zm5.946 0h2.973v2.973H29.73v-2.973Zm2.973 0h2.973v2.973h-2.973v-2.973Zm17.837 0h2.974v2.973H50.54v-2.973Zm2.974 0h2.972v2.973h-2.972v-2.973Zm8.918 0h2.973v2.973h-2.973v-2.973Zm8.92 0h2.972v2.973h-2.973v-2.973Zm5.945 0h2.973v2.973h-2.973v-2.973Zm5.946 0h2.973v2.973h-2.973v-2.973Zm5.946 0h2.973v2.973H89.19v-2.973Zm2.973 0h2.973v2.973h-2.973v-2.973Zm2.973 0h2.973v2.973h-2.973v-2.973Zm8.919 0h2.973v2.973h-2.973v-2.973ZM0 35.762h2.973v2.973H0v-2.973Zm5.946 0h2.973v2.973H5.946v-2.973Zm2.973 0h2.973v2.973H8.919v-2.973Zm5.946 0h2.973v2.973h-2.973v-2.973Zm2.973 0h2.973v2.973h-2.973v-2.973Zm5.946 0h2.973v2.973h-2.973v-2.973Zm11.892 0h2.973v2.973h-2.973v-2.973Zm2.973 0h2.973v2.973h-2.973v-2.973Zm2.973 0h2.973v2.973h-2.973v-2.973Zm2.973 0h2.973v2.973h-2.973v-2.973Zm8.919 0h2.972v2.973h-2.972v-2.973Zm5.945 0h2.973v2.973H59.46v-2.973Zm5.946 0h2.973v2.973h-2.973v-2.973Zm2.973 0h2.973v2.973h-2.973v-2.973Zm5.946 0h2.973v2.973h-2.973v-2.973Zm2.973 0h2.973v2.973h-2.973v-2.973Zm5.946 0h2.973v2.973h-2.973v-2.973Zm2.973 0h2.973v2.973h-2.973v-2.973Zm2.973 0h2.973v2.973H89.19v-2.973Zm5.946 0h2.973v2.973h-2.973v-2.973Zm2.973 0h2.973v2.973h-2.973v-2.973Zm5.946 0h2.973v2.973h-2.973v-2.973ZM2.973 38.735h2.973v2.973H2.973v-2.973Zm2.973 0h2.973v2.973H5.946v-2.973Zm2.973 0h2.973v2.973H8.919v-2.973Zm2.973 0h2.973v2.973h-2.973v-2.973Zm2.973 0h2.973v2.973h-2.973v-2.973Zm5.946 0h2.973v2.973H20.81v-2.973Zm5.946 0h2.973v2.973h-2.973v-2.973Zm2.973 0h2.973v2.973H29.73v-2.973Zm5.946 0h2.973v2.973h-2.973v-2.973Zm8.919 0h2.973v2.973h-2.973v-2.973Zm5.946 0h2.973v2.973H50.54v-2.973Zm17.837 0h2.973v2.973h-2.973v-2.973Zm14.865 0h2.973v2.973h-2.973v-2.973Zm2.973 0h2.973v2.973h-2.973v-2.973Zm5.946 0h2.973v2.973h-2.973v-2.973Zm5.946 0h2.973v2.973h-2.973v-2.973Zm2.973 0h2.973v2.973h-2.973v-2.973ZM2.973 41.708h2.973v2.973H2.973v-2.973Zm5.946 0h2.973v2.973H8.919v-2.973Zm2.973 0h2.973v2.973h-2.973v-2.973Zm2.973 0h2.973v2.973h-2.973v-2.973Zm2.973 0h2.973v2.973h-2.973v-2.973Zm14.865 0h2.973v2.973h-2.973v-2.973Zm2.973 0h2.973v2.973h-2.973v-2.973Zm2.973 0h2.973v2.973h-2.973v-2.973Zm2.973 0h2.973v2.973h-2.973v-2.973Zm5.946 0h2.973v2.973h-2.973v-2.973Zm2.973 0h2.973v2.973H50.54v-2.973Zm5.946 0h2.972v2.973h-2.973v-2.973Zm2.972 0h2.973v2.973H59.46v-2.973Zm5.946 0h2.973v2.973h-2.973v-2.973Zm14.865 0h2.973v2.973H80.27v-2.973Zm8.92 0h2.972v2.973H89.19v-2.973Zm2.972 0h2.973v2.973h-2.973v-2.973Zm5.946 0h2.973v2.973h-2.973v-2.973Zm5.946 0h2.973v2.973h-2.973v-2.973Zm2.973 0H110v2.973h-2.973v-2.973ZM0 44.68h2.973v2.973H0V44.68Zm5.946 0h2.973v2.973H5.946V44.68Zm5.946 0h2.973v2.973h-2.973V44.68Zm2.973 0h2.973v2.973h-2.973V44.68Zm8.919 0h2.973v2.973h-2.973V44.68Zm2.973 0h2.973v2.973h-2.973V44.68Zm2.973 0h2.973v2.973H29.73V44.68Zm2.973 0h2.973v2.973h-2.973V44.68Zm5.946 0h2.973v2.973h-2.973V44.68Zm2.973 0h2.973v2.973h-2.973V44.68Zm5.946 0h2.973v2.973h-2.973V44.68Zm2.973 0h2.973v2.973H50.54V44.68Zm2.973 0h2.972v2.973h-2.972V44.68Zm2.972 0h2.974v2.973h-2.974V44.68Zm11.892 0h2.973v2.973h-2.973V44.68Zm2.973 0h2.973v2.973h-2.973V44.68Zm5.946 0h2.973v2.973h-2.973V44.68Zm2.973 0h2.973v2.973H80.27V44.68Zm2.973 0h2.973v2.973h-2.973V44.68Zm2.973 0h2.973v2.973h-2.973V44.68Zm5.946 0h2.973v2.973h-2.973V44.68ZM5.946 47.654h2.973v2.972H5.946v-2.972Zm2.973 0h2.973v2.972H8.919v-2.972Zm2.973 0h2.973v2.972h-2.973v-2.972Zm5.946 0h2.973v2.972h-2.973v-2.972Zm5.946 0h2.973v2.972h-2.973v-2.972Zm5.946 0h2.973v2.972H29.73v-2.972Zm5.946 0h2.973v2.972h-2.973v-2.972Zm2.973 0h2.973v2.972h-2.973v-2.972Zm5.946 0h2.973v2.972h-2.973v-2.972Zm2.973 0h2.973v2.972h-2.973v-2.972Zm8.919 0h2.972v2.972h-2.973v-2.972Zm2.972 0h2.973v2.972H59.46v-2.972Zm2.973 0h2.973v2.972h-2.973v-2.972Zm2.973 0h2.973v2.972h-2.973v-2.972Zm8.92 0h2.972v2.972h-2.973v-2.972Zm2.972 0h2.973v2.972h-2.973v-2.972Zm2.973 0h2.973v2.972H80.27v-2.972Zm5.946 0h2.973v2.972h-2.973v-2.972Zm2.973 0h2.973v2.972H89.19v-2.972Zm5.946 0h2.973v2.972h-2.973v-2.972Zm5.946 0h2.973v2.972h-2.973v-2.972Zm5.946 0H110v2.972h-2.973v-2.972ZM2.973 50.626h2.973V53.6H2.973v-2.974Zm2.973 0h2.973V53.6H5.946v-2.974Zm2.973 0h2.973V53.6H8.919v-2.974Zm5.946 0h2.973V53.6h-2.973v-2.974Zm5.946 0h2.973V53.6H20.81v-2.974Zm8.919 0h2.973V53.6H29.73v-2.974Zm5.946 0h2.973V53.6h-2.973v-2.974Zm5.946 0h2.973V53.6h-2.973v-2.974Zm5.946 0h2.973V53.6h-2.973v-2.974Zm5.946 0h2.972V53.6h-2.972v-2.974Zm2.972 0h2.974V53.6h-2.974v-2.974Zm2.974 0h2.972V53.6H59.46v-2.974Zm2.972 0h2.973V53.6h-2.973v-2.974Zm5.946 0h2.973V53.6h-2.973v-2.974Zm2.973 0h2.973V53.6h-2.973v-2.974Zm2.973 0h2.973V53.6h-2.973v-2.974Zm17.838 0h2.973V53.6h-2.973v-2.974Zm5.946 0h2.973V53.6h-2.973v-2.974ZM0 53.6h2.973v2.972H0V53.6Zm5.946 0h2.973v2.972H5.946V53.6Zm5.946 0h2.973v2.972h-2.973V53.6Zm5.946 0h2.973v2.972h-2.973V53.6Zm8.919 0h2.973v2.972h-2.973V53.6Zm11.892 0h2.973v2.972h-2.973V53.6Zm8.919 0h2.973v2.972h-2.973V53.6Zm8.919 0h2.972v2.972h-2.973V53.6Zm2.972 0h2.973v2.972H59.46V53.6Zm2.973 0h2.973v2.972h-2.973V53.6Zm11.892 0h2.973v2.972h-2.973V53.6Zm2.973 0h2.973v2.972h-2.973V53.6Zm2.973 0h2.973v2.972H80.27V53.6Zm2.973 0h2.973v2.972h-2.973V53.6Zm2.973 0h2.973v2.972h-2.973V53.6Zm8.92 0h2.972v2.972h-2.973V53.6Zm8.918 0h2.973v2.972h-2.973V53.6Zm2.973 0H110v2.972h-2.973V53.6ZM0 56.572h2.973v2.973H0v-2.973Zm8.919 0h2.973v2.973H8.919v-2.973Zm14.865 0h2.973v2.973h-2.973v-2.973Zm8.919 0h2.973v2.973h-2.973v-2.973Zm2.973 0h2.973v2.973h-2.973v-2.973Zm2.973 0h2.973v2.973h-2.973v-2.973Zm2.973 0h2.973v2.973h-2.973v-2.973Zm5.946 0h2.973v2.973h-2.973v-2.973Zm2.973 0h2.973v2.973H50.54v-2.973Zm5.946 0h2.972v2.973h-2.973v-2.973Zm2.972 0h2.973v2.973H59.46v-2.973Zm2.973 0h2.973v2.973h-2.973v-2.973Zm2.973 0h2.973v2.973h-2.973v-2.973Zm5.946 0h2.973v2.973h-2.973v-2.973Zm5.946 0h2.973v2.973h-2.973v-2.973Zm2.973 0h2.973v2.973H80.27v-2.973Zm2.973 0h2.973v2.973h-2.973v-2.973Zm8.92 0h2.972v2.973h-2.973v-2.973Zm2.972 0h2.973v2.973h-2.973v-2.973Zm8.919 0h2.973v2.973h-2.973v-2.973Zm2.973 0H110v2.973h-2.973v-2.973Zm-95.135 2.973h2.973v2.973h-2.973v-2.973Zm2.973 0h2.973v2.973h-2.973v-2.973Zm2.973 0h2.973v2.973h-2.973v-2.973Zm2.973 0h2.973v2.973H20.81v-2.973Zm2.973 0h2.973v2.973h-2.973v-2.973Zm5.946 0h2.973v2.973H29.73v-2.973Zm2.973 0h2.973v2.973h-2.973v-2.973Zm5.946 0h2.973v2.973h-2.973v-2.973Zm2.973 0h2.973v2.973h-2.973v-2.973Zm14.864 0h2.974v2.973h-2.974v-2.973Zm2.974 0h2.972v2.973H59.46v-2.973Zm5.945 0h2.973v2.973h-2.973v-2.973Zm2.973 0h2.973v2.973h-2.973v-2.973Zm5.946 0h2.973v2.973h-2.973v-2.973Zm2.973 0h2.973v2.973h-2.973v-2.973Zm8.92 0h2.972v2.973h-2.973v-2.973Zm2.972 0h2.973v2.973H89.19v-2.973Zm2.973 0h2.973v2.973h-2.973v-2.973Zm2.973 0h2.973v2.973h-2.973v-2.973Zm2.973 0h2.973v2.973h-2.973v-2.973Zm2.973 0h2.973v2.973h-2.973v-2.973ZM0 62.518h2.973v2.973H0v-2.973Zm8.919 0h2.973v2.973H8.919v-2.973Zm2.973 0h2.973v2.973h-2.973v-2.973Zm2.973 0h2.973v2.973h-2.973v-2.973Zm5.946 0h2.973v2.973H20.81v-2.973Zm2.973 0h2.973v2.973h-2.973v-2.973Zm5.946 0h2.973v2.973H29.73v-2.973Zm5.946 0h2.973v2.973h-2.973v-2.973Zm8.919 0h2.973v2.973h-2.973v-2.973Zm2.973 0h2.973v2.973h-2.973v-2.973Zm14.864 0h2.973v2.973h-2.973v-2.973Zm5.946 0h2.973v2.973h-2.973v-2.973Zm5.946 0h2.973v2.973h-2.973v-2.973Zm17.838 0h2.973v2.973h-2.973v-2.973Zm8.919 0h2.973v2.973h-2.973v-2.973Zm5.946 0H110v2.973h-2.973v-2.973ZM5.946 65.491h2.973v2.973H5.946v-2.973Zm2.973 0h2.973v2.973H8.919v-2.973Zm2.973 0h2.973v2.973h-2.973v-2.973Zm2.973 0h2.973v2.973h-2.973v-2.973Zm2.973 0h2.973v2.973h-2.973v-2.973Zm2.973 0h2.973v2.973H20.81v-2.973Zm2.973 0h2.973v2.973h-2.973v-2.973Zm2.973 0h2.973v2.973h-2.973v-2.973Zm14.865 0h2.973v2.973h-2.973v-2.973Zm8.919 0h2.973v2.973H50.54v-2.973Zm5.946 0h2.972v2.973h-2.973v-2.973Zm17.837 0h2.973v2.973h-2.973v-2.973Zm2.973 0h2.973v2.973h-2.973v-2.973Zm2.973 0h2.973v2.973H80.27v-2.973Zm23.784 0h2.973v2.973h-2.973v-2.973Zm2.973 0H110v2.973h-2.973v-2.973ZM0 68.464h2.973v2.973H0v-2.973Zm5.946 0h2.973v2.973H5.946v-2.973Zm8.919 0h2.973v2.973h-2.973v-2.973Zm5.946 0h2.973v2.973H20.81v-2.973Zm8.919 0h2.973v2.973H29.73v-2.973Zm2.973 0h2.973v2.973h-2.973v-2.973Zm2.973 0h2.973v2.973h-2.973v-2.973Zm2.973 0h2.973v2.973h-2.973v-2.973Zm11.892 0h2.973v2.973H50.54v-2.973Zm11.891 0h2.973v2.973h-2.973v-2.973Zm5.946 0h2.973v2.973h-2.973v-2.973Zm17.838 0h2.973v2.973h-2.973v-2.973Zm2.973 0h2.973v2.973H89.19v-2.973Zm2.973 0h2.973v2.973h-2.973v-2.973Zm11.892 0h2.973v2.973h-2.973v-2.973Zm2.973 0H110v2.973h-2.973v-2.973ZM5.946 71.437h2.973v2.973H5.946v-2.973Zm8.919 0h2.973v2.973h-2.973v-2.973Zm2.973 0h2.973v2.973h-2.973v-2.973Zm2.973 0h2.973v2.973H20.81v-2.973Zm17.838 0h2.973v2.973h-2.973v-2.973Zm2.973 0h2.973v2.973h-2.973v-2.973Zm11.892 0h2.972v2.973h-2.972v-2.973Zm5.945 0h2.973v2.973H59.46v-2.973Zm5.946 0h2.973v2.973h-2.973v-2.973Zm5.946 0h2.973v2.973h-2.973v-2.973Zm2.973 0h2.973v2.973h-2.973v-2.973Zm14.865 0h2.973v2.973H89.19v-2.973Zm5.946 0h2.973v2.973h-2.973v-2.973Zm2.973 0h2.973v2.973h-2.973v-2.973Zm2.973 0h2.973v2.973h-2.973v-2.973Zm2.973 0h2.973v2.973h-2.973v-2.973ZM0 74.41h2.973v2.973H0V74.41Zm2.973 0h2.973v2.973H2.973V74.41Zm2.973 0h2.973v2.973H5.946V74.41Zm5.946 0h2.973v2.973h-2.973V74.41Zm8.919 0h2.973v2.973H20.81V74.41Zm5.946 0h2.973v2.973h-2.973V74.41Zm2.973 0h2.973v2.973H29.73V74.41Zm2.973 0h2.973v2.973h-2.973V74.41Zm2.973 0h2.973v2.973h-2.973V74.41Zm11.892 0h2.973v2.973h-2.973V74.41Zm5.946 0h2.972v2.973h-2.972V74.41Zm2.972 0h2.974v2.973h-2.974V74.41Zm11.892 0h2.973v2.973h-2.973V74.41Zm5.946 0h2.973v2.973h-2.973V74.41Zm2.973 0h2.973v2.973h-2.973V74.41Zm2.973 0h2.973v2.973H80.27V74.41Zm2.973 0h2.973v2.973h-2.973V74.41Zm2.973 0h2.973v2.973h-2.973V74.41Zm5.946 0h2.973v2.973h-2.973V74.41ZM0 77.383h2.973v2.973H0v-2.973Zm5.946 0h2.973v2.973H5.946v-2.973Zm2.973 0h2.973v2.973H8.919v-2.973Zm8.919 0h2.973v2.973h-2.973v-2.973Zm2.973 0h2.973v2.973H20.81v-2.973Zm5.946 0h2.973v2.973h-2.973v-2.973Zm2.973 0h2.973v2.973H29.73v-2.973Zm29.73 0h2.972v2.973H59.46v-2.973Zm2.972 0h2.973v2.973h-2.973v-2.973Zm8.92 0h2.972v2.973h-2.973v-2.973Zm8.918 0h2.973v2.973H80.27v-2.973Zm8.92 0h2.972v2.973H89.19v-2.973Zm5.945 0h2.973v2.973h-2.973v-2.973Zm2.973 0h2.973v2.973h-2.973v-2.973Zm5.946 0h2.973v2.973h-2.973v-2.973Zm2.973 0H110v2.973h-2.973v-2.973ZM0 80.356h2.973v2.973H0v-2.973Zm8.919 0h2.973v2.973H8.919v-2.973Zm2.973 0h2.973v2.973h-2.973v-2.973Zm14.865 0h2.973v2.973h-2.973v-2.973Zm5.946 0h2.973v2.973h-2.973v-2.973Zm2.973 0h2.973v2.973h-2.973v-2.973Zm11.892 0h2.973v2.973h-2.973v-2.973Zm14.864 0h2.973v2.973h-2.973v-2.973Zm2.973 0h2.973v2.973h-2.973v-2.973Zm2.973 0h2.973v2.973h-2.973v-2.973Zm8.92 0h2.972v2.973h-2.973v-2.973Zm8.918 0h2.973v2.973h-2.973v-2.973Zm17.838 0h2.973v2.973h-2.973v-2.973ZM0 83.33h2.973v2.973H0V83.33Zm17.838 0h2.973v2.973h-2.973V83.33Zm14.865 0h2.973v2.973h-2.973V83.33Zm2.973 0h2.973v2.973h-2.973V83.33Zm2.973 0h2.973v2.973h-2.973V83.33Zm2.973 0h2.973v2.973h-2.973V83.33Zm11.892 0h2.972v2.973h-2.972V83.33Zm2.972 0h2.974v2.973h-2.974V83.33Zm2.974 0h2.972v2.973H59.46V83.33Zm5.945 0h2.973v2.973h-2.973V83.33Zm8.92 0h2.972v2.973h-2.973V83.33Zm2.972 0h2.973v2.973h-2.973V83.33Zm2.973 0h2.973v2.973H80.27V83.33Zm2.973 0h2.973v2.973h-2.973V83.33Zm2.973 0h2.973v2.973h-2.973V83.33Zm2.973 0h2.973v2.973H89.19V83.33Zm2.973 0h2.973v2.973h-2.973V83.33Zm2.973 0h2.973v2.973h-2.973V83.33Zm2.973 0h2.973v2.973h-2.973V83.33Zm8.919 0H110v2.973h-2.973V83.33Zm-83.243 2.973h2.973v2.973h-2.973v-2.973Zm2.973 0h2.973v2.973h-2.973v-2.973Zm2.973 0h2.973v2.973H29.73v-2.973Zm2.973 0h2.973v2.973h-2.973v-2.973Zm11.892 0h2.973v2.973h-2.973v-2.973Zm2.973 0h2.973v2.973h-2.973v-2.973Zm2.973 0h2.973v2.973H50.54v-2.973Zm2.973 0h2.972v2.973h-2.972v-2.973Zm8.918 0h2.973v2.973h-2.973v-2.973Zm5.946 0h2.973v2.973h-2.973v-2.973Zm14.865 0h2.973v2.973h-2.973v-2.973Zm11.892 0h2.973v2.973h-2.973v-2.973Zm8.919 0h2.973v2.973h-2.973v-2.973ZM0 89.275h2.973v2.973H0v-2.973Zm2.973 0h2.973v2.973H2.973v-2.973Zm2.973 0h2.973v2.973H5.946v-2.973Zm2.973 0h2.973v2.973H8.919v-2.973Zm2.973 0h2.973v2.973h-2.973v-2.973Zm2.973 0h2.973v2.973h-2.973v-2.973Zm2.973 0h2.973v2.973h-2.973v-2.973Zm5.946 0h2.973v2.973h-2.973v-2.973Zm2.973 0h2.973v2.973h-2.973v-2.973Zm2.973 0h2.973v2.973H29.73v-2.973Zm2.973 0h2.973v2.973h-2.973v-2.973Zm17.837 0h2.974v2.973H50.54v-2.973Zm8.92 0h2.972v2.973H59.46v-2.973Zm2.972 0h2.973v2.973h-2.973v-2.973Zm8.92 0h2.972v2.973h-2.973v-2.973Zm2.972 0h2.973v2.973h-2.973v-2.973Zm2.973 0h2.973v2.973h-2.973v-2.973Zm5.946 0h2.973v2.973h-2.973v-2.973Zm5.946 0h2.973v2.973H89.19v-2.973Zm5.946 0h2.973v2.973h-2.973v-2.973Zm2.973 0h2.973v2.973h-2.973v-2.973Zm5.946 0h2.973v2.973h-2.973v-2.973Zm2.973 0H110v2.973h-2.973v-2.973ZM0 92.248h2.973v2.973H0v-2.973Zm17.838 0h2.973v2.973h-2.973v-2.973Zm5.946 0h2.973v2.973h-2.973v-2.973Zm2.973 0h2.973v2.973h-2.973v-2.973Zm2.973 0h2.973v2.973H29.73v-2.973Zm2.973 0h2.973v2.973h-2.973v-2.973Zm2.973 0h2.973v2.973h-2.973v-2.973Zm8.919 0h2.973v2.973h-2.973v-2.973Zm11.892 0h2.972v2.973h-2.973v-2.973Zm5.945 0h2.973v2.973h-2.973v-2.973Zm2.973 0h2.973v2.973h-2.973v-2.973Zm2.973 0h2.973v2.973h-2.973v-2.973Zm14.865 0h2.973v2.973h-2.973v-2.973Zm11.892 0h2.973v2.973h-2.973v-2.973Zm8.919 0h2.973v2.973h-2.973v-2.973ZM0 95.221h2.973v2.973H0v-2.973Zm5.946 0h2.973v2.973H5.946v-2.973Zm2.973 0h2.973v2.973H8.919v-2.973Zm2.973 0h2.973v2.973h-2.973v-2.973Zm5.946 0h2.973v2.973h-2.973v-2.973Zm5.946 0h2.973v2.973h-2.973v-2.973Zm2.973 0h2.973v2.973h-2.973v-2.973Zm2.973 0h2.973v2.973H29.73v-2.973Zm5.946 0h2.973v2.973h-2.973v-2.973Zm26.756 0h2.973v2.973h-2.973v-2.973Zm5.946 0h2.973v2.973h-2.973v-2.973Zm2.973 0h2.973v2.973h-2.973v-2.973Zm2.973 0h2.973v2.973h-2.973v-2.973Zm2.973 0h2.973v2.973h-2.973v-2.973Zm2.973 0h2.973v2.973H80.27v-2.973Zm2.973 0h2.973v2.973h-2.973v-2.973Zm2.973 0h2.973v2.973h-2.973v-2.973Zm2.973 0h2.973v2.973H89.19v-2.973Zm2.973 0h2.973v2.973h-2.973v-2.973Zm2.973 0h2.973v2.973h-2.973v-2.973Zm5.946 0h2.973v2.973h-2.973v-2.973Zm2.973 0h2.973v2.973h-2.973v-2.973Zm2.973 0H110v2.973h-2.973v-2.973ZM0 98.194h2.973v2.973H0v-2.973Zm5.946 0h2.973v2.973H5.946v-2.973Zm2.973 0h2.973v2.973H8.919v-2.973Zm2.973 0h2.973v2.973h-2.973v-2.973Zm5.946 0h2.973v2.973h-2.973v-2.973Zm5.946 0h2.973v2.973h-2.973v-2.973Zm2.973 0h2.973v2.973h-2.973v-2.973Zm2.973 0h2.973v2.973H29.73v-2.973Zm2.973 0h2.973v2.973h-2.973v-2.973Zm2.973 0h2.973v2.973h-2.973v-2.973Zm5.946 0h2.973v2.973h-2.973v-2.973Zm2.973 0h2.973v2.973h-2.973v-2.973Zm2.973 0h2.973v2.973h-2.973v-2.973Zm2.973 0h2.973v2.973H50.54v-2.973Zm2.973 0h2.972v2.973h-2.972v-2.973Zm5.945 0h2.973v2.973H59.46v-2.973Zm2.973 0h2.973v2.973h-2.973v-2.973Zm2.973 0h2.973v2.973h-2.973v-2.973Zm8.92 0h2.972v2.973h-2.973v-2.973Zm14.864 0h2.973v2.973H89.19v-2.973Zm2.973 0h2.973v2.973h-2.973v-2.973Zm2.973 0h2.973v2.973h-2.973v-2.973Zm5.946 0h2.973v2.973h-2.973v-2.973Zm2.973 0h2.973v2.973h-2.973v-2.973ZM0 101.167h2.973v2.973H0v-2.973Zm5.946 0h2.973v2.973H5.946v-2.973Zm2.973 0h2.973v2.973H8.919v-2.973Zm2.973 0h2.973v2.973h-2.973v-2.973Zm5.946 0h2.973v2.973h-2.973v-2.973Zm5.946 0h2.973v2.973h-2.973v-2.973Zm2.973 0h2.973v2.973h-2.973v-2.973Zm11.892 0h2.973v2.973h-2.973v-2.973Zm2.973 0h2.973v2.973h-2.973v-2.973Zm5.946 0h2.973v2.973h-2.973v-2.973Zm8.919 0h2.972v2.973h-2.973v-2.973Zm5.945 0h2.973v2.973h-2.973v-2.973Zm2.973 0h2.973v2.973h-2.973v-2.973Zm5.946 0h2.973v2.973h-2.973v-2.973Zm8.92 0h2.972v2.973H80.27v-2.973Zm2.972 0h2.973v2.973h-2.973v-2.973Zm2.973 0h2.973v2.973h-2.973v-2.973Zm5.946 0h2.973v2.973h-2.973v-2.973Zm14.865 0H110v2.973h-2.973v-2.973ZM0 104.14h2.973v2.973H0v-2.973Zm17.838 0h2.973v2.973h-2.973v-2.973Zm5.946 0h2.973v2.973h-2.973v-2.973Zm2.973 0h2.973v2.973h-2.973v-2.973Zm5.946 0h2.973v2.973h-2.973v-2.973Zm8.919 0h2.973v2.973h-2.973v-2.973Zm5.946 0h2.973v2.973h-2.973v-2.973Zm8.919 0h2.972v2.973h-2.973v-2.973Zm2.972 0h2.973v2.973H59.46v-2.973Zm2.973 0h2.973v2.973h-2.973v-2.973Zm5.946 0h2.973v2.973h-2.973v-2.973Zm2.973 0h2.973v2.973h-2.973v-2.973Zm5.946 0h2.973v2.973h-2.973v-2.973Zm2.973 0h2.973v2.973H80.27v-2.973Zm2.973 0h2.973v2.973h-2.973v-2.973Zm2.973 0h2.973v2.973h-2.973v-2.973Zm5.946 0h2.973v2.973h-2.973v-2.973Zm5.946 0h2.973v2.973h-2.973v-2.973Zm8.919 0H110v2.973h-2.973v-2.973ZM0 107.113h2.973v2.973H0v-2.973Zm2.973 0h2.973v2.973H2.973v-2.973Zm2.973 0h2.973v2.973H5.946v-2.973Zm2.973 0h2.973v2.973H8.919v-2.973Zm2.973 0h2.973v2.973h-2.973v-2.973Zm2.973 0h2.973v2.973h-2.973v-2.973Zm2.973 0h2.973v2.973h-2.973v-2.973Zm8.919 0h2.973v2.973h-2.973v-2.973Zm5.946 0h2.973v2.973h-2.973v-2.973Zm2.973 0h2.973v2.973h-2.973v-2.973Zm8.919 0h2.973v2.973h-2.973v-2.973Zm8.919 0h2.972v2.973h-2.972v-2.973Zm2.972 0h2.974v2.973h-2.974v-2.973Zm2.974 0h2.972v2.973H59.46v-2.973Zm11.891 0h2.973v2.973h-2.973v-2.973Zm2.973 0h2.973v2.973h-2.973v-2.973Zm2.973 0h2.973v2.973h-2.973v-2.973Zm8.92 0h2.972v2.973h-2.973v-2.973Zm5.945 0h2.973v2.973h-2.973v-2.973Zm2.973 0h2.973v2.973h-2.973v-2.973Zm2.973 0h2.973v2.973h-2.973v-2.973Zm2.973 0h2.973v2.973h-2.973v-2.973Zm2.973 0h2.973v2.973h-2.973v-2.973Zm2.973 0H110v2.973h-2.973v-2.973Z"/></svg>
