<svg width="126" height="29" viewBox="0 0 126 29" fill="none" xmlns="http://www.w3.org/2000/svg">
<g clip-path="url(#clip0_444_3292)">
<path d="M109.047 28.9612H102.904V10.1504L105.976 10.9341L109.047 10.1504V28.9612Z" fill="white"/>
<path d="M109.047 6.23083C109.047 4.49935 107.673 3.0957 105.976 3.0957C104.279 3.0957 102.904 4.49935 102.904 6.23083C102.904 7.9623 104.279 9.36595 105.976 9.36595C107.673 9.36595 109.047 7.9623 109.047 6.23083Z" fill="#B5E726"/>
<path d="M125.942 15.6755V10.9728H118.262V5.48633H116.627L112.119 10.9728V21.1619C112.119 25.4884 114.269 28.9997 119.799 28.9997C123.023 28.9997 125.942 28.216 125.942 28.216V23.5133C125.942 23.5133 124.245 24.2971 121.335 24.2971C119.637 24.2971 118.262 23.5447 118.262 21.1619V15.6755H125.942Z" fill="white"/>
<path d="M41.469 10.1895C35.5328 10.1895 30.7178 14.3983 30.7178 19.5948C30.7178 24.7913 35.5328 29.0002 41.469 29.0002C47.4051 29.0002 52.2201 24.7913 52.2201 19.5948C52.2201 14.3983 47.4051 10.1895 41.469 10.1895ZM44.7251 22.918C43.8956 23.7724 42.7438 24.2975 41.469 24.2975C38.9271 24.2975 36.8613 22.1891 36.8613 19.5948C36.8613 18.2938 37.3759 17.1181 38.2129 16.2716C39.0423 15.4173 40.1942 14.8922 41.469 14.8922C42.7438 14.8922 43.8956 15.4173 44.7251 16.2716C45.562 17.1181 46.0766 18.2938 46.0766 19.5948C46.0766 20.8959 45.562 22.0716 44.7251 22.918Z" fill="white"/>
<path d="M68.5306 22.918C67.7013 23.7724 66.5493 24.2975 65.2745 24.2975C62.7327 24.2975 60.6669 22.1891 60.6669 19.5948C60.6669 18.2938 61.1814 17.1181 62.0185 16.2716C62.8478 15.4173 63.9998 14.8922 65.2745 14.8922C66.5493 14.8922 67.7013 15.4173 68.5306 16.2716C69.0144 16.7575 69.3907 17.3611 69.6134 18.0272H76.0257C75.1733 13.5753 70.6041 10.1895 65.2745 10.1895C59.3384 10.1895 54.5234 14.3983 54.5234 19.5948C54.5234 24.7913 59.3384 29.0002 65.2745 29.0002C70.6041 29.0002 75.1733 25.6143 76.0257 21.1624H69.6134C69.3907 21.8286 69.0144 22.4321 68.5306 22.918Z" fill="white"/>
<path d="M29.1815 14.1077C29.1815 12.164 28.4058 10.3926 27.1541 9.1229C25.91 7.84534 24.1745 7.05371 22.27 7.05371H16.2033L14.7057 11.7563H20.734C21.3715 11.7563 21.9474 12.0229 22.3621 12.4462C22.7768 12.8693 23.0379 13.4572 23.0379 14.1077C23.0379 15.4088 22.0088 16.4591 20.734 16.4591H16.4566L12.5862 21.1618H17.071L21.5021 28.9996H29.1815L24.5277 20.7699C27.2386 19.8137 29.1815 17.1959 29.1815 14.1077Z" fill="white"/>
<path d="M12.5863 21.1611L10.0905 28.999H6.14331L12.5863 21.1611Z" fill="white"/>
<path d="M4.19295 11.7563H0L3.86274 7.05371H8.05569L4.19295 11.7563Z" fill="white"/>
<path d="M93.3049 17.4625L98.2734 10.9728H92.13L84.4735 20.9739V5.48633H82.7995L78.3301 10.918V28.9997H84.4735L88.8892 23.2311L92.1529 28.9997H99.8323L93.3049 17.4625Z" fill="white"/>
<path d="M3.83935 28.9999L16.4182 13.7005L11.5571 14.398L16.1341 0L2.64136 16.4594L8.07837 15.6835L3.83935 28.9999Z" fill="#B5E726"/>
</g>
<defs>
<clipPath id="clip0_444_3292">
<rect width="126" height="29" fill="white"/>
</clipPath>
</defs>
</svg>
