<svg width="1184" height="267" viewBox="0 0 1184 267" fill="none" xmlns="http://www.w3.org/2000/svg">
<path d="M1024.7 266.642H966.969V93.4531L995.834 100.669L1024.7 93.4531V266.642Z" fill="white"/>
<path d="M1024.7 57.3687C1024.7 41.4271 1011.78 28.5039 995.834 28.5039C979.892 28.5039 966.969 41.4271 966.969 57.3687C966.969 73.3102 979.892 86.2334 995.834 86.2334C1011.78 86.2334 1024.7 73.3102 1024.7 57.3687Z" fill="#B5E726"/>
<path d="M1183.46 144.326V101.029H1111.29V50.5156H1095.92L1053.56 101.029V194.839C1053.56 234.673 1073.77 267.001 1125.73 267.001C1156.03 267.001 1183.46 259.785 1183.46 259.785V216.488C1183.46 216.488 1167.51 223.704 1140.16 223.704C1124.21 223.704 1111.29 216.777 1111.29 194.839V144.326H1183.46Z" fill="white"/>
<path d="M389.677 93.8125C333.896 93.8125 288.65 132.563 288.65 180.407C288.65 228.25 333.896 267.001 389.677 267.001C445.458 267.001 490.704 228.25 490.704 180.407C490.704 132.563 445.458 93.8125 389.677 93.8125ZM420.274 211.003C412.48 218.869 401.656 223.704 389.677 223.704C365.792 223.704 346.38 204.292 346.38 180.407C346.38 168.428 351.215 157.604 359.08 149.81C366.874 141.945 377.698 137.11 389.677 137.11C401.656 137.11 412.48 141.945 420.274 149.81C428.139 157.604 432.974 168.428 432.974 180.407C432.974 192.386 428.139 203.21 420.274 211.003Z" fill="white"/>
<path d="M643.971 211.003C636.178 218.869 625.353 223.704 613.374 223.704C589.489 223.704 570.077 204.292 570.077 180.407C570.077 168.428 574.912 157.604 582.778 149.81C590.571 141.945 601.396 137.11 613.374 137.11C625.353 137.11 636.178 141.945 643.971 149.81C648.517 154.284 652.053 159.841 654.146 165.974H714.401C706.391 124.986 663.455 93.8125 613.374 93.8125C557.593 93.8125 512.348 132.563 512.348 180.407C512.348 228.25 557.593 267.001 613.374 267.001C663.455 267.001 706.391 235.827 714.401 194.839H654.146C652.053 200.973 648.517 206.529 643.971 211.003Z" fill="white"/>
<path d="M274.214 129.891C274.214 111.995 266.925 95.6863 255.163 83.9961C243.473 72.2337 227.164 64.9453 209.268 64.9453H152.26L138.188 108.242H194.835C200.825 108.242 206.237 110.696 210.134 114.593C214.03 118.489 216.484 123.902 216.484 129.891C216.484 141.87 206.814 151.54 194.835 151.54H154.641L118.271 194.837H160.414L202.052 266.999H274.214L230.483 191.229C255.957 182.425 274.214 158.323 274.214 129.891Z" fill="white"/>
<path d="M118.272 194.832L94.8198 266.994H57.7285L118.272 194.832Z" fill="white"/>
<path d="M39.4004 108.242H0L36.2975 64.9453H75.6979L39.4004 108.242Z" fill="white"/>
<path d="M876.769 160.779L923.457 101.029H865.728L793.782 193.108V50.5156H778.051L736.053 100.524V267.001H793.782L835.275 213.89L865.944 267.001H938.106L876.769 160.779Z" fill="white"/>
<path d="M36.0776 266.999L154.279 126.139L108.6 132.561L151.609 0L24.8203 151.54L75.911 144.396L36.0776 266.999Z" fill="#B5E726"/>
</svg>
