<svg xmlns="http://www.w3.org/2000/svg" width="126" height="34" fill="none"><mask id="a" width="126" height="34" x="0" y="0" maskUnits="userSpaceOnUse" style="mask-type:luminance"><path fill="#fff" d="M125.736 0H0v33.182h125.736V0Z"/></mask><g fill="#fff" mask="url(#a)"><path d="M43.003 18.975c0 .666.11 1.277.333 1.72.222.5.555.888.943 1.221.389.278.888.5 1.443.666.555.111 1.11.222 1.775.222.666 0 1.277-.055 1.72-.222.5-.166.888-.388 1.166-.61.277-.278.5-.555.666-.832.11-.334.222-.666.222-1 0-.665-.167-1.165-.5-1.498a2.57 2.57 0 0 0-.998-.72c-.61-.223-1.388-.445-2.22-.667-.832-.222-1.831-.5-3.107-.832-.777-.222-1.388-.444-1.942-.777a5.946 5.946 0 0 1-1.221-1.11 5.592 5.592 0 0 1-.666-1.276 5.594 5.594 0 0 1-.167-1.387c0-.888.167-1.665.555-2.33a5.392 5.392 0 0 1 1.498-1.665c.61-.444 1.332-.722 2.11-.944a8.546 8.546 0 0 1 2.385-.332c.943 0 1.776.11 2.608.388.832.222 1.554.61 2.164 1.054.61.5 1.11 1.055 1.498 1.776.389.721.555 1.498.555 2.441h-3.107c-.056-1.165-.5-1.942-1.166-2.441-.72-.5-1.609-.721-2.663-.721-.388 0-.721.055-1.11.11a2.433 2.433 0 0 0-1.054.389c-.333.166-.555.388-.777.721-.222.278-.277.666-.277 1.11 0 .61.166 1.11.555 1.498.388.333.943.61 1.553.777.056 0 .333.111.777.222s.999.222 1.554.388c.555.167 1.11.278 1.665.444.554.111.943.222 1.165.278.555.166 1.11.444 1.498.721.444.333.777.666 1.054 1.11.278.388.5.832.666 1.276.166.444.222.943.222 1.387 0 1-.222 1.831-.61 2.553-.389.721-.944 1.276-1.61 1.72-.665.444-1.442.777-2.275.999-.832.222-1.72.333-2.608.333-.998 0-1.942-.111-2.885-.389a5.774 5.774 0 0 1-2.33-1.165 5.502 5.502 0 0 1-1.61-1.942c-.388-.832-.61-1.776-.61-2.886h3.163v.222ZM64.81 17.365c-.056-.444-.111-.888-.278-1.276-.166-.389-.388-.777-.666-1.055a2.568 2.568 0 0 0-.998-.721c-.389-.222-.833-.277-1.277-.277-.5 0-.943.11-1.387.277a3.254 3.254 0 0 0-1.054.721c-.278.278-.5.666-.721 1.055a3.571 3.571 0 0 0-.278 1.331h6.659v-.055Zm-6.604 1.887c0 .499.056.998.222 1.442.167.444.389.888.666 1.22.278.334.666.611 1.055.833.444.222.943.278 1.553.278.833 0 1.498-.167 1.998-.5.5-.388.888-.888 1.165-1.609h2.664c-.167.721-.389 1.332-.777 1.887-.389.555-.777.998-1.332 1.387-.5.388-1.11.666-1.72.832-.61.222-1.276.278-1.998.278-.998 0-1.886-.167-2.663-.5-.777-.333-1.443-.777-1.998-1.387-.555-.61-.943-1.332-1.22-2.164-.278-.832-.389-1.72-.389-2.719a8.3 8.3 0 0 1 .444-2.608 6.857 6.857 0 0 1 1.22-2.164 7.281 7.281 0 0 1 1.943-1.498c.777-.389 1.609-.555 2.608-.555.999 0 1.942.222 2.719.666.832.388 1.498.999 1.997 1.665.555.72.888 1.498 1.166 2.386.222.887.333 1.83.222 2.774h-9.545v.055ZM69.082 12.037h2.664v1.775h.055c.222-.332.444-.61.721-.887.222-.278.5-.5.833-.666.333-.167.666-.333 1.054-.444.388-.111.832-.167 1.387-.167.777 0 1.498.167 2.164.5a2.941 2.941 0 0 1 1.443 1.609 6.248 6.248 0 0 1 1.665-1.554c.61-.388 1.442-.555 2.386-.555 1.387 0 2.441.333 3.162 1 .777.665 1.166 1.775 1.166 3.329v8.878h-2.83v-7.436c0-.5 0-.999-.056-1.387-.055-.444-.11-.777-.277-1.11a1.518 1.518 0 0 0-.722-.721c-.332-.167-.776-.222-1.276-.222-.943 0-1.664.277-2.108.888-.444.61-.666 1.442-.666 2.552v7.547h-2.83v-8.268c0-.888-.166-1.554-.5-1.998-.332-.444-.887-.721-1.775-.721-.389 0-.721.055-1.054.222-.333.166-.61.388-.888.666-.222.277-.444.61-.61 1.054-.167.388-.222.888-.222 1.443v7.657h-2.83V12.037h-.056ZM90.057 12.037h2.664v1.72h.055a3.347 3.347 0 0 1 1.665-1.61 5.494 5.494 0 0 1 2.33-.499c.999 0 1.887.167 2.664.555a4.546 4.546 0 0 1 1.886 1.498c.5.61.888 1.332 1.11 2.165.222.832.388 1.72.388 2.663a9.05 9.05 0 0 1-.333 2.497c-.221.832-.554 1.554-.998 2.164a5.027 5.027 0 0 1-1.72 1.498c-.722.389-1.499.555-2.442.555-.388 0-.832-.055-1.22-.111a4.997 4.997 0 0 1-1.221-.333c-.389-.166-.722-.388-1.055-.61-.333-.278-.61-.555-.776-.944h-.056v6.437h-2.83V12.037h-.11Zm9.933 6.492c0-.555-.056-1.165-.222-1.665-.167-.555-.389-1.054-.666-1.442a2.741 2.741 0 0 0-1.11-1c-.444-.277-.943-.388-1.554-.388-1.22 0-2.108.389-2.719 1.221-.61.832-.887 1.942-.887 3.33 0 .665.055 1.276.222 1.83.166.555.388 1 .72 1.443.334.389.667.722 1.11.944.445.221.944.332 1.554.332.666 0 1.221-.11 1.665-.388.444-.277.832-.61 1.11-.999.277-.444.5-.887.61-1.442.111-.666.167-1.221.167-1.776ZM104.428 12.04h2.664v2.496h.055c.055-.333.222-.666.499-.999.222-.333.555-.61.888-.888.333-.277.722-.499 1.165-.665.389-.167.833-.222 1.277-.222h.666c.111 0 .277.055.388.055v2.72c-.222-.056-.388-.056-.61-.056-.222-.056-.389-.056-.611-.056-.499 0-.943.111-1.387.278a3.08 3.08 0 0 0-1.11.832c-.333.388-.555.832-.721 1.387a6.414 6.414 0 0 0-.278 1.887v6.103h-2.829V12.04h-.056ZM117.912 25.3c-1.054 0-1.942-.167-2.775-.5a5.994 5.994 0 0 1-2.053-1.442c-.555-.61-.943-1.332-1.276-2.165a8.474 8.474 0 0 1-.444-2.718c0-1 .167-1.887.444-2.72a6.052 6.052 0 0 1 1.276-2.163c.555-.61 1.221-1.055 2.053-1.388.833-.333 1.721-.499 2.775-.499 1.054 0 1.942.166 2.719.5.832.332 1.498.776 2.053 1.387.555.61.999 1.331 1.276 2.164.277.832.444 1.72.444 2.719 0 .998-.167 1.886-.444 2.718a6.038 6.038 0 0 1-1.276 2.165c-.555.61-1.221 1.054-2.053 1.442-.777.333-1.665.5-2.719.5Zm0-2.275c.61 0 1.165-.111 1.664-.389.444-.277.833-.61 1.166-1.054.277-.444.499-.888.666-1.443.166-.555.222-1.11.222-1.664 0-.555-.056-1.11-.222-1.665-.111-.555-.333-1.054-.666-1.443-.278-.444-.666-.777-1.166-1.054-.443-.277-.998-.388-1.664-.388-.611 0-1.165.11-1.665.388-.444.277-.832.61-1.165 1.054-.278.389-.499.888-.666 1.443-.111.555-.222 1.11-.222 1.665 0 .554.056 1.11.222 1.664.167.555.388 1 .666 1.443.277.444.666.777 1.165 1.054.5.278 1.054.389 1.665.389Z"/><path fill-rule="evenodd" d="M2.275 11.15c0-4.772 3.884-8.656 8.656-8.656h8.212v7.158c0 .943-.777 1.72-1.72 1.72H2.275v-.222Zm27.189 10.044c0 4.772-3.884 8.656-8.656 8.656h-8.213v-7.158c0-.944.777-1.72 1.72-1.72h15.149v.222Zm-8.656-9.489c4.772 0 8.656 3.884 8.656 8.656v.222H10.986c-4.772 0-8.656-3.884-8.656-8.656v-.222h18.478Z" clip-rule="evenodd"/></g></svg>
