<svg width="338" height="87" viewBox="0 0 338 87" fill="none" xmlns="http://www.w3.org/2000/svg">
<g clip-path="url(#clip0_455_189)">
<path d="M42.8685 85.3595C51.3471 85.3595 59.6352 82.8563 66.6848 78.1667C73.7345 73.4771 79.2291 66.8114 82.4737 59.0129C85.7182 51.2143 86.5672 42.6329 84.9131 34.354C83.259 26.075 79.1762 18.4703 73.181 12.5014C67.1857 6.53266 59.5473 2.46785 51.2316 0.821065C42.916 -0.825722 34.2967 0.0194694 26.4635 3.24975C18.6303 6.48005 11.9353 11.9504 7.22485 18.9689C2.51442 25.9875 0.000244141 34.2391 0.000244141 42.6802C0.000244141 53.9994 4.51672 64.855 12.5561 72.859C20.5955 80.8629 31.4992 85.3595 42.8685 85.3595Z" fill="#212227"/>
<path d="M2.04153 42.8134C2.03378 49.6058 3.74317 56.2909 7.01221 62.2528L12.1156 59.2957C9.37565 54.2301 7.94138 48.5668 7.94138 42.8134C7.94138 37.0601 9.37565 31.3966 12.1156 26.331L7.01221 23.374C3.74317 29.336 2.03378 36.021 2.04153 42.8134Z" fill="#18F0E2"/>
<path d="M22.454 7.47069C16.5475 10.8703 11.5895 15.6877 8.03198 21.4838L13.1354 24.4408C16.1722 19.5387 20.3868 15.4662 25.3993 12.5905C30.4116 9.71488 36.0641 8.12651 41.8468 7.96863V2.03418C35.0293 2.2136 28.3641 4.08209 22.454 7.47069Z" fill="#18F0E2"/>
<path d="M63.2807 7.47069C57.372 4.07932 50.7061 2.21061 43.8879 2.03418V7.96863C49.6636 8.13408 55.3076 9.726 60.3121 12.6012C65.3166 15.4765 69.525 19.545 72.5588 24.4408L77.6621 21.4838C74.1122 15.6956 69.1697 10.8795 63.2807 7.47069Z" fill="#18F0E2"/>
<path d="M83.6942 42.6796C83.7043 35.8895 82.0022 29.2055 78.7439 23.2402L73.6406 26.1974C76.3804 31.2629 77.8147 36.9263 77.8147 42.6796C77.8147 48.433 76.3804 54.0963 73.6406 59.162L78.7439 62.1191C82.0022 56.1538 83.7043 49.4698 83.6942 42.6796Z" fill="#18F0E2"/>
<path d="M43.8879 77.3959V83.3304C50.7084 83.1564 57.3768 81.2854 63.285 77.8882C69.1931 74.4911 74.1533 69.6755 77.7132 63.8808L72.6097 60.9238C69.5698 65.8254 65.3531 69.8973 60.3393 72.7727C55.3255 75.6483 49.672 77.237 43.8879 77.3959Z" fill="#18F0E2"/>
<path d="M22.4539 77.8817C28.3595 81.2819 35.0268 83.1544 41.8467 83.3284V77.394C36.0763 77.2312 30.4366 75.6459 25.4329 72.78C20.4292 69.9141 16.2178 65.8571 13.1759 60.9727L8.07251 63.9297C11.6228 69.7014 16.5666 74.4975 22.4539 77.8817Z" fill="#18F0E2"/>
<path d="M18.282 59.9761L26.9821 44.3884L38.7194 50.8239L63.1878 37.374L38.7194 59.9761L30.0975 55.2906L27.4975 59.9761H18.282Z" fill="#A9A9A9"/>
<path d="M28.9597 40.839L36.0223 44.7111L42.8858 32.3657L49.0529 43.4601L56.1056 39.5674L42.8858 15.7881L28.9597 40.839Z" fill="#A9A9A9"/>
<path d="M52.3782 49.4478L58.3722 43.6533L67.4459 59.9783H58.2304L52.3782 49.4478Z" fill="#A9A9A9"/>
<path d="M15.2417 62.6715L24.9578 45.2639L38.0653 52.4513L65.389 37.4316L38.0653 62.6715L28.4367 57.4397L25.5325 62.6715H15.2417Z" fill="white"/>
<path d="M27.3318 41.183L35.2192 45.5072L42.8836 31.7199L49.7704 44.1098L57.6464 39.7631L42.8842 13.208L27.3318 41.183Z" fill="white"/>
<path d="M53.4849 50.7946L60.1786 44.3232L70.311 62.554H60.0201L53.4849 50.7946Z" fill="white"/>
<path d="M25.1309 45.1506L26.9843 44.3916L38.7214 50.8271L38.2383 52.3378L25.1309 45.1506Z" fill="url(#paint0_linear_455_189)"/>
<path d="M63.1929 37.3745L65.5648 37.3154L38.2412 52.3351L38.7243 50.8244L63.1929 37.3745Z" fill="url(#paint1_linear_455_189)"/>
<path d="M35.2197 45.5099L36.0184 44.7124L42.8819 32.3669L42.8839 31.7227L35.2197 45.5099Z" fill="url(#paint2_linear_455_189)"/>
<path d="M49.05 43.4614L49.7718 44.1124L42.885 31.7227L42.8831 32.3669L49.05 43.4614Z" fill="url(#paint3_linear_455_189)"/>
<path d="M53.4876 50.7955L52.3774 49.4459L58.3714 43.6514L60.1813 44.3242L53.4876 50.7955Z" fill="url(#paint4_linear_455_189)"/>
<path d="M60.0236 62.5554L58.2304 59.9767L52.3782 49.4463L53.4883 50.7959L60.0236 62.5554Z" fill="url(#paint5_linear_455_189)"/>
<path d="M25.7026 62.5539L27.4967 59.9753L28.8848 57.4734L28.6068 57.3223L25.7026 62.5539Z" fill="url(#paint6_linear_455_189)"/>
<path d="M112.333 55.9619C114.656 55.9619 116.476 56.503 117.793 57.585C119.111 58.667 119.769 60.1548 119.769 62.0485C119.769 63.9419 119.111 65.4298 117.793 66.5119C116.476 67.5769 114.656 68.1096 112.333 68.1096H107.445V73.7142H105.521V55.9619H112.333ZM112.281 66.4612C114.084 66.4612 115.462 66.0807 116.415 65.3198C117.369 64.5422 117.845 63.4516 117.845 62.0485C117.845 60.6113 117.369 59.5123 116.415 58.7515C115.462 57.9739 114.084 57.585 112.281 57.585H107.445V66.4612H112.281Z" fill="white"/>
<path d="M147.824 68.9719H137.683L135.499 73.7142H133.497L141.818 55.9619H143.716L152.036 73.7142H150.008L147.824 68.9719ZM147.122 67.4502L142.754 57.9147L138.385 67.4502H147.122Z" fill="white"/>
<path d="M180.868 73.7142L176.708 68.0081C176.24 68.0588 175.753 68.0841 175.252 68.0841H170.363V73.7142H168.439V55.9619H175.252C177.573 55.9619 179.394 56.503 180.711 57.585C182.028 58.667 182.688 60.1548 182.688 62.0485C182.688 63.4347 182.324 64.6099 181.595 65.5734C180.884 66.5203 179.862 67.2049 178.528 67.6276L182.973 73.7142H180.868ZM175.199 66.4865C177.001 66.4865 178.38 66.0976 179.333 65.3198C180.287 64.5422 180.764 63.4516 180.764 62.0485C180.764 60.6113 180.287 59.5123 179.333 58.7515C178.38 57.9739 177.001 57.585 175.199 57.585H170.363V66.4865H175.199Z" fill="white"/>
<path d="M203.902 57.585H197.504V55.9619H212.221V57.585H205.826V73.7142H203.902V57.585Z" fill="white"/>
<path d="M243.897 55.9619V73.7142H242.311L230.609 59.3094V73.7142H228.685V55.9619H230.271L241.999 70.3667V55.9619H243.897Z" fill="white"/>
<path d="M276.099 72.0911V73.7142H263.229V55.9619H275.71V57.585H265.153V63.8998H274.566V65.4974H265.153V72.0911H276.099Z" fill="white"/>
<path d="M306.441 73.7142L302.281 68.0081C301.813 68.0588 301.328 68.0841 300.825 68.0841H295.937V73.7142H294.013V55.9619H300.825C303.148 55.9619 304.969 56.503 306.286 57.585C307.603 58.667 308.261 60.1548 308.261 62.0485C308.261 63.4347 307.897 64.6099 307.17 65.5734C306.459 66.5203 305.435 67.2049 304.101 67.6276L308.548 73.7142H306.441ZM300.773 66.4865C302.576 66.4865 303.955 66.0976 304.908 65.3198C305.861 64.5422 306.337 63.4516 306.337 62.0485C306.337 60.6113 305.861 59.5123 304.908 58.7515C303.955 57.9739 302.576 57.585 300.773 57.585H295.937V66.4865H300.773Z" fill="white"/>
<path d="M331.215 73.8691C329.863 73.8691 328.562 73.6578 327.314 73.2352C326.084 72.8125 325.131 72.2545 324.455 71.5613L325.208 70.1158C325.868 70.7583 326.742 71.2824 327.835 71.688C328.926 72.0769 330.054 72.2714 331.215 72.2714C332.844 72.2714 334.066 71.984 334.882 71.4091C335.696 70.8174 336.104 70.0565 336.104 69.1268C336.104 68.4167 335.878 67.8502 335.428 67.4275C334.994 67.005 334.456 66.6837 333.815 66.4639C333.174 66.2272 332.282 65.9736 331.137 65.7031C329.767 65.3649 328.676 65.0437 327.861 64.7394C327.045 64.4181 326.344 63.9363 325.754 63.2938C325.182 62.6514 324.897 61.7807 324.897 60.6817C324.897 59.7856 325.139 58.974 325.624 58.247C326.11 57.5033 326.856 56.9115 327.861 56.4719C328.865 56.0323 330.114 55.8125 331.604 55.8125C332.644 55.8125 333.658 55.9561 334.648 56.2436C335.652 56.5141 336.519 56.8946 337.248 57.3849L336.597 58.8811C335.835 58.3908 335.02 58.0274 334.153 57.7907C333.286 57.5371 332.437 57.4102 331.604 57.4102C330.01 57.4102 328.806 57.7145 327.99 58.3232C327.194 58.915 326.795 59.6842 326.795 60.631C326.795 61.3411 327.011 61.916 327.444 62.3556C327.896 62.7781 328.45 63.1079 329.109 63.3446C329.785 63.5644 330.686 63.8094 331.813 64.08C333.147 64.4012 334.222 64.7224 335.037 65.0437C335.869 65.348 336.572 65.8214 337.144 66.4639C337.716 67.0895 338.001 67.9433 338.001 69.0253C338.001 69.9213 337.751 70.7414 337.248 71.4853C336.761 72.2122 336.008 72.7956 334.986 73.2352C333.962 73.6578 332.705 73.8691 331.215 73.8691Z" fill="white"/>
<path d="M125.546 18.9737C125.023 18.7458 124.41 18.518 123.708 18.2902C123.019 18.0498 122.292 17.8346 121.526 17.6447C120.773 17.455 120.007 17.3031 119.229 17.1892C118.451 17.0626 117.717 16.9993 117.028 16.9993C115.828 16.9993 114.89 17.1513 114.214 17.455C113.537 17.7586 113.199 18.2713 113.199 18.9926C113.199 19.3343 113.314 19.638 113.544 19.9038C113.786 20.1569 114.124 20.3974 114.558 20.6252C114.992 20.8404 115.509 21.0554 116.109 21.2706C116.721 21.473 117.398 21.6882 118.138 21.9161L119.535 22.3527C120.709 22.707 121.762 23.1374 122.694 23.6436C123.625 24.137 124.41 24.7255 125.048 25.409C125.699 26.0798 126.197 26.8518 126.541 27.7251C126.886 28.5982 127.058 29.5916 127.058 30.7054C127.058 32.0089 126.847 33.1985 126.426 34.2743C126.018 35.3374 125.374 36.2486 124.493 37.008C123.613 37.7672 122.483 38.3556 121.105 38.7734C119.739 39.191 118.093 39.3998 116.166 39.3998C114.456 39.3998 112.753 39.2606 111.055 38.9822C109.371 38.7038 107.667 38.2164 105.945 37.5204V31.2559C107.591 32.0911 109.186 32.7049 110.73 33.0972C112.287 33.4769 113.818 33.6668 115.324 33.6668C116.562 33.6668 117.462 33.4707 118.023 33.0783C118.597 32.686 118.884 32.1419 118.884 31.4457C118.884 31.0281 118.776 30.6737 118.559 30.3827C118.355 30.079 118.017 29.8006 117.545 29.5475C117.085 29.2943 116.479 29.0412 115.726 28.7881C114.973 28.5223 114.061 28.2249 112.989 27.8958C111.917 27.5795 110.921 27.1807 110.003 26.6999C109.097 26.219 108.312 25.6431 107.648 24.9724C106.985 24.289 106.461 23.498 106.079 22.5994C105.708 21.7009 105.523 20.6758 105.523 19.5241C105.523 18.3345 105.734 17.2462 106.155 16.259C106.576 15.2718 107.221 14.4302 108.088 13.7342C108.956 13.0255 110.054 12.475 111.381 12.0826C112.721 11.6903 114.31 11.4941 116.147 11.4941C116.875 11.4941 117.647 11.5258 118.463 11.5891C119.28 11.6523 120.11 11.7473 120.952 11.8738C121.807 12.0004 122.649 12.1649 123.478 12.3674C124.308 12.5699 125.093 12.8103 125.833 13.0888L125.546 18.9737Z" fill="url(#paint7_linear_455_189)"/>
<path d="M132.915 12.0039H143.367C145.179 12.0039 146.768 12.1178 148.133 12.3456C149.511 12.5608 150.704 12.8708 151.713 13.2758C152.721 13.6808 153.557 14.168 154.22 14.7375C154.896 15.307 155.433 15.9335 155.828 16.6168C156.236 17.2877 156.524 18.009 156.69 18.781C156.855 19.553 156.938 20.3503 156.938 21.173C156.938 21.869 156.855 22.565 156.69 23.2611C156.536 23.9571 156.268 24.6216 155.886 25.2544C155.515 25.8871 155.018 26.4755 154.392 27.0199C153.767 27.564 152.995 28.0386 152.076 28.4436C151.17 28.8485 150.092 29.165 148.841 29.3927C147.603 29.6205 146.174 29.7344 144.554 29.7344C144.324 29.7344 144.037 29.7344 143.692 29.7344C143.348 29.7218 143.009 29.7028 142.678 29.6775L141.491 29.6016V38.8465H132.915V12.0039ZM141.491 25.4821H143.463C144.381 25.4821 145.153 25.3746 145.779 25.1594C146.404 24.9317 146.908 24.6279 147.291 24.2482C147.674 23.8685 147.948 23.4192 148.114 22.9003C148.28 22.3815 148.363 21.8247 148.363 21.2299C148.363 20.2807 148.242 19.496 147.999 18.8759C147.757 18.2559 147.412 17.7623 146.965 17.3952C146.532 17.0155 146.015 16.7498 145.415 16.5979C144.815 16.4461 144.164 16.3701 143.463 16.3701H141.491V25.4821Z" fill="url(#paint8_linear_455_189)"/>
<path d="M161.685 12.0039H170.26V38.8465H161.685V12.0039Z" fill="url(#paint9_linear_455_189)"/>
<path d="M176.788 12.0039H185.077L195.375 25.4821V12.0039H201.922V38.8465H193.423L183.278 24.5709V38.8465H176.788V12.0039Z" fill="url(#paint10_linear_455_189)"/>
<path d="M231.707 38.8465H221.486L220.221 33.1325H213.503L212.297 38.8465H205.387L212.277 12.0039H224.261L231.707 38.8465ZM216.948 16.1803L214.327 28.6904H219.801L217.542 16.1803H216.948Z" fill="url(#paint11_linear_455_189)"/>
<path d="M235.171 12.0039H247.344C249.272 12.0039 250.968 12.257 252.437 12.7633C253.905 13.2568 255.123 13.9149 256.093 14.7375C257.075 15.5475 257.816 16.4714 258.313 17.5091C258.811 18.5343 259.06 19.572 259.06 20.6224C259.06 21.445 258.976 22.2613 258.811 23.0712C258.645 23.8685 258.351 24.6279 257.931 25.3493C257.509 26.0579 256.928 26.7034 256.188 27.2856C255.461 27.8551 254.529 28.317 253.393 28.6714C253.56 29.2029 253.84 29.861 254.236 30.6456C254.632 31.4303 255.09 32.2783 255.614 33.1895C256.137 34.1007 256.699 35.0434 257.298 36.018C257.898 36.9924 258.485 37.9353 259.06 38.8465H249.258C248.711 37.6189 248.149 36.2458 247.575 34.7271C247 33.1957 246.541 31.5316 246.197 29.7344H243.746V38.8465H235.171V12.0039ZM245.201 25.4821C246.17 25.4821 246.988 25.3555 247.651 25.1024C248.327 24.8493 248.876 24.5203 249.298 24.1154C249.718 23.7104 250.018 23.2547 250.196 22.7485C250.388 22.2423 250.483 21.736 250.483 21.2299C250.483 20.2301 250.343 19.4138 250.063 18.781C249.783 18.1482 249.398 17.6546 248.914 17.3003C248.429 16.9333 247.868 16.6866 247.23 16.56C246.592 16.4335 245.91 16.3701 245.181 16.3701H243.746V25.4821H245.201Z" fill="url(#paint12_linear_455_189)"/>
<path d="M263.063 12.0039H271.639V38.8465H263.063V12.0039Z" fill="url(#paint13_linear_455_189)"/>
<path d="M290.412 39.397C288.511 39.397 286.802 39.1249 285.283 38.5807C283.778 38.0239 282.495 37.1949 281.435 36.094C280.376 34.9802 279.565 33.588 279.005 31.9175C278.442 30.2471 278.162 28.2917 278.162 26.0517V12.0039H286.737V26.0896C286.737 27.3426 286.802 28.4562 286.929 29.4308C287.057 30.4052 287.273 31.2341 287.58 31.9175C287.887 32.5884 288.294 33.1008 288.805 33.4552C289.316 33.8095 289.954 33.9868 290.719 33.9868C291.562 33.9868 292.238 33.8095 292.749 33.4552C293.271 33.1008 293.674 32.5884 293.954 31.9175C294.247 31.2341 294.445 30.4052 294.548 29.4308C294.65 28.4562 294.701 27.3426 294.701 26.0896V12.0039H301.86V26.0517C301.86 28.3044 301.636 30.266 301.191 31.9365C300.744 33.6071 300.048 34.9993 299.103 36.1129C298.172 37.214 296.984 38.0365 295.543 38.5807C294.114 39.1249 292.404 39.397 290.412 39.397Z" fill="url(#paint14_linear_455_189)"/>
<path d="M308.407 12.0039H316.371L323.11 22.4448L329.846 12.0039H338.001V38.8465H329.235V24.2672L322.918 34.8789H321.06L314.533 24.2672V38.8465H308.407V12.0039Z" fill="url(#paint15_linear_455_189)"/>
<path d="M125.546 18.9737C125.023 18.7458 124.41 18.518 123.708 18.2902C123.019 18.0498 122.292 17.8346 121.526 17.6447C120.773 17.455 120.007 17.3031 119.229 17.1892C118.451 17.0626 117.717 16.9993 117.028 16.9993C115.828 16.9993 114.89 17.1513 114.214 17.455C113.537 17.7586 113.199 18.2713 113.199 18.9926C113.199 19.3343 113.314 19.638 113.544 19.9038C113.786 20.1569 114.124 20.3974 114.558 20.6252C114.992 20.8404 115.509 21.0554 116.109 21.2706C116.721 21.473 117.398 21.6882 118.138 21.9161L119.535 22.3527C120.709 22.707 121.762 23.1374 122.694 23.6436C123.625 24.137 124.41 24.7255 125.048 25.409C125.699 26.0798 126.197 26.8518 126.541 27.7251C126.886 28.5982 127.058 29.5916 127.058 30.7054C127.058 32.0089 126.847 33.1985 126.426 34.2743C126.018 35.3374 125.374 36.2486 124.493 37.008C123.613 37.7672 122.483 38.3556 121.105 38.7734C119.739 39.191 118.093 39.3998 116.166 39.3998C114.456 39.3998 112.753 39.2606 111.055 38.9822C109.371 38.7038 107.667 38.2164 105.945 37.5204V31.2559C107.591 32.0911 109.186 32.7049 110.73 33.0972C112.287 33.4769 113.818 33.6668 115.324 33.6668C116.562 33.6668 117.462 33.4707 118.023 33.0783C118.597 32.686 118.884 32.1419 118.884 31.4457C118.884 31.0281 118.776 30.6737 118.559 30.3827C118.355 30.079 118.017 29.8006 117.545 29.5475C117.085 29.2943 116.479 29.0412 115.726 28.7881C114.973 28.5223 114.061 28.2249 112.989 27.8958C111.917 27.5795 110.921 27.1807 110.003 26.6999C109.097 26.219 108.312 25.6431 107.648 24.9724C106.985 24.289 106.461 23.498 106.079 22.5994C105.708 21.7009 105.523 20.6758 105.523 19.5241C105.523 18.3345 105.734 17.2462 106.155 16.259C106.576 15.2718 107.221 14.4302 108.088 13.7342C108.956 13.0255 110.054 12.475 111.381 12.0826C112.721 11.6903 114.31 11.4941 116.147 11.4941C116.875 11.4941 117.647 11.5258 118.463 11.5891C119.28 11.6523 120.11 11.7473 120.952 11.8738C121.807 12.0004 122.649 12.1649 123.478 12.3674C124.308 12.5699 125.093 12.8103 125.833 13.0888L125.546 18.9737Z" stroke="white" stroke-width="0.560624"/>
<path d="M132.915 12.0039H143.367C145.179 12.0039 146.768 12.1178 148.133 12.3456C149.511 12.5608 150.704 12.8708 151.713 13.2758C152.721 13.6808 153.557 14.168 154.22 14.7375C154.896 15.307 155.433 15.9335 155.828 16.6168C156.236 17.2877 156.524 18.009 156.69 18.781C156.855 19.553 156.938 20.3503 156.938 21.173C156.938 21.869 156.855 22.565 156.69 23.2611C156.536 23.9571 156.268 24.6216 155.886 25.2544C155.515 25.8871 155.018 26.4755 154.392 27.0199C153.767 27.564 152.995 28.0386 152.076 28.4436C151.17 28.8485 150.092 29.165 148.841 29.3927C147.603 29.6205 146.174 29.7344 144.554 29.7344C144.324 29.7344 144.037 29.7344 143.692 29.7344C143.348 29.7218 143.009 29.7028 142.678 29.6775L141.491 29.6016V38.8465H132.915V12.0039ZM141.491 25.4821H143.463C144.381 25.4821 145.153 25.3746 145.779 25.1594C146.404 24.9317 146.908 24.6279 147.291 24.2482C147.674 23.8685 147.948 23.4192 148.114 22.9003C148.28 22.3815 148.363 21.8247 148.363 21.2299C148.363 20.2807 148.242 19.496 147.999 18.8759C147.757 18.2559 147.412 17.7623 146.965 17.3952C146.532 17.0155 146.015 16.7498 145.415 16.5979C144.815 16.4461 144.164 16.3701 143.463 16.3701H141.491V25.4821Z" stroke="white" stroke-width="0.560624"/>
<path d="M161.685 12.0039H170.26V38.8465H161.685V12.0039Z" stroke="white" stroke-width="0.560624"/>
<path d="M176.788 12.0039H185.077L195.375 25.4821V12.0039H201.922V38.8465H193.423L183.278 24.5709V38.8465H176.788V12.0039Z" stroke="white" stroke-width="0.560624"/>
<path d="M231.707 38.8465H221.486L220.221 33.1325H213.503L212.297 38.8465H205.387L212.277 12.0039H224.261L231.707 38.8465ZM216.948 16.1803L214.327 28.6904H219.801L217.542 16.1803H216.948Z" stroke="white" stroke-width="0.560624"/>
<path d="M235.171 12.0039H247.344C249.272 12.0039 250.968 12.257 252.437 12.7633C253.905 13.2568 255.123 13.9149 256.093 14.7375C257.075 15.5475 257.816 16.4714 258.313 17.5091C258.811 18.5343 259.06 19.572 259.06 20.6224C259.06 21.445 258.976 22.2613 258.811 23.0712C258.645 23.8685 258.351 24.6279 257.931 25.3493C257.509 26.0579 256.928 26.7034 256.188 27.2856C255.461 27.8551 254.529 28.317 253.393 28.6714C253.56 29.2029 253.84 29.861 254.236 30.6456C254.632 31.4303 255.09 32.2783 255.614 33.1895C256.137 34.1007 256.699 35.0434 257.298 36.018C257.898 36.9924 258.485 37.9353 259.06 38.8465H249.258C248.711 37.6189 248.149 36.2458 247.575 34.7271C247 33.1957 246.541 31.5316 246.197 29.7344H243.746V38.8465H235.171V12.0039ZM245.201 25.4821C246.17 25.4821 246.988 25.3555 247.651 25.1024C248.327 24.8493 248.876 24.5203 249.298 24.1154C249.718 23.7104 250.018 23.2547 250.196 22.7485C250.388 22.2423 250.483 21.736 250.483 21.2299C250.483 20.2301 250.343 19.4138 250.063 18.781C249.783 18.1482 249.398 17.6546 248.914 17.3003C248.429 16.9333 247.868 16.6866 247.23 16.56C246.592 16.4335 245.91 16.3701 245.181 16.3701H243.746V25.4821H245.201Z" stroke="white" stroke-width="0.560624"/>
<path d="M263.063 12.0039H271.639V38.8465H263.063V12.0039Z" stroke="white" stroke-width="0.560624"/>
<path d="M290.412 39.397C288.511 39.397 286.802 39.1249 285.283 38.5807C283.778 38.0239 282.495 37.1949 281.435 36.094C280.376 34.9802 279.565 33.588 279.005 31.9175C278.442 30.2471 278.162 28.2917 278.162 26.0517V12.0039H286.737V26.0896C286.737 27.3426 286.802 28.4562 286.929 29.4308C287.057 30.4052 287.273 31.2341 287.58 31.9175C287.887 32.5884 288.294 33.1008 288.805 33.4552C289.316 33.8095 289.954 33.9868 290.719 33.9868C291.562 33.9868 292.238 33.8095 292.749 33.4552C293.271 33.1008 293.674 32.5884 293.954 31.9175C294.247 31.2341 294.445 30.4052 294.548 29.4308C294.65 28.4562 294.701 27.3426 294.701 26.0896V12.0039H301.86V26.0517C301.86 28.3044 301.636 30.266 301.191 31.9365C300.744 33.6071 300.048 34.9993 299.103 36.1129C298.172 37.214 296.984 38.0365 295.543 38.5807C294.114 39.1249 292.404 39.397 290.412 39.397Z" stroke="white" stroke-width="0.560624"/>
<path d="M308.407 12.0039H316.371L323.11 22.4448L329.846 12.0039H338.001V38.8465H329.235V24.2672L322.918 34.8789H321.06L314.533 24.2672V38.8465H308.407V12.0039Z" stroke="white" stroke-width="0.560624"/>
</g>
<defs>
<linearGradient id="paint0_linear_455_189" x1="33.32" y1="49.0706" x2="34.7383" y2="47.5257" gradientUnits="userSpaceOnUse">
<stop stop-color="#E6E6E6"/>
<stop offset="1" stop-color="#585858"/>
</linearGradient>
<linearGradient id="paint1_linear_455_189" x1="54.7054" y1="46.1596" x2="48.7774" y2="37.8958" gradientUnits="userSpaceOnUse">
<stop stop-color="#E6E6E6"/>
<stop offset="1" stop-color="#585858"/>
</linearGradient>
<linearGradient id="paint2_linear_455_189" x1="39.838" y1="39.8409" x2="35.6956" y2="38.0764" gradientUnits="userSpaceOnUse">
<stop stop-color="#E6E6E6"/>
<stop offset="1" stop-color="#585858"/>
</linearGradient>
<linearGradient id="paint3_linear_455_189" x1="47.034" y1="39.0182" x2="43.311" y2="37.4318" gradientUnits="userSpaceOnUse">
<stop stop-color="#E6E6E6"/>
<stop offset="1" stop-color="#585858"/>
</linearGradient>
<linearGradient id="paint4_linear_455_189" x1="57.0798" y1="47.8581" x2="54.1495" y2="45.4054" gradientUnits="userSpaceOnUse">
<stop stop-color="#E6E6E6"/>
<stop offset="1" stop-color="#585858"/>
</linearGradient>
<linearGradient id="paint5_linear_455_189" x1="56.985" y1="57.1653" x2="52.9157" y2="55.3468" gradientUnits="userSpaceOnUse">
<stop stop-color="#E6E6E6"/>
<stop offset="1" stop-color="#585858"/>
</linearGradient>
<linearGradient id="paint6_linear_455_189" x1="23.9783" y1="66.0508" x2="28.449" y2="66.3852" gradientUnits="userSpaceOnUse">
<stop stop-color="#E6E6E6"/>
<stop offset="1" stop-color="#585858"/>
</linearGradient>
<linearGradient id="paint7_linear_455_189" x1="222.135" y1="-3.91661" x2="222.135" y2="46.6249" gradientUnits="userSpaceOnUse">
<stop stop-color="white"/>
<stop offset="1" stop-color="#D8D8D8"/>
</linearGradient>
<linearGradient id="paint8_linear_455_189" x1="222.135" y1="-3.91939" x2="222.135" y2="46.6221" gradientUnits="userSpaceOnUse">
<stop stop-color="white"/>
<stop offset="1" stop-color="#D8D8D8"/>
</linearGradient>
<linearGradient id="paint9_linear_455_189" x1="222.134" y1="-3.91939" x2="222.134" y2="46.6221" gradientUnits="userSpaceOnUse">
<stop stop-color="white"/>
<stop offset="1" stop-color="#D8D8D8"/>
</linearGradient>
<linearGradient id="paint10_linear_455_189" x1="222.135" y1="-3.91939" x2="222.135" y2="46.6221" gradientUnits="userSpaceOnUse">
<stop stop-color="white"/>
<stop offset="1" stop-color="#D8D8D8"/>
</linearGradient>
<linearGradient id="paint11_linear_455_189" x1="222.136" y1="-3.91939" x2="222.136" y2="46.6221" gradientUnits="userSpaceOnUse">
<stop stop-color="white"/>
<stop offset="1" stop-color="#D8D8D8"/>
</linearGradient>
<linearGradient id="paint12_linear_455_189" x1="222.134" y1="-3.91939" x2="222.134" y2="46.6221" gradientUnits="userSpaceOnUse">
<stop stop-color="white"/>
<stop offset="1" stop-color="#D8D8D8"/>
</linearGradient>
<linearGradient id="paint13_linear_455_189" x1="222.137" y1="-3.91939" x2="222.137" y2="46.6221" gradientUnits="userSpaceOnUse">
<stop stop-color="white"/>
<stop offset="1" stop-color="#D8D8D8"/>
</linearGradient>
<linearGradient id="paint14_linear_455_189" x1="222.133" y1="-3.91939" x2="222.133" y2="46.6221" gradientUnits="userSpaceOnUse">
<stop stop-color="white"/>
<stop offset="1" stop-color="#D8D8D8"/>
</linearGradient>
<linearGradient id="paint15_linear_455_189" x1="222.135" y1="-3.91939" x2="222.135" y2="46.6221" gradientUnits="userSpaceOnUse">
<stop stop-color="white"/>
<stop offset="1" stop-color="#D8D8D8"/>
</linearGradient>
<clipPath id="clip0_455_189">
<rect width="338" height="87" fill="white"/>
</clipPath>
</defs>
</svg>
