<svg xmlns="http://www.w3.org/2000/svg" width="107" height="75" fill="none"><mask id="a" width="107" height="75" x="0" y="0" maskUnits="userSpaceOnUse" style="mask-type:luminance"><path fill="#fff" d="M106.665 0H0v74.396h106.665V0Z"/></mask><g mask="url(#a)"><path fill="#fff" d="M75.492 48.102h9.063a3809.82 3809.82 0 0 1 6.872-18.624h5.577c.1 0 .2-.1.299-.1l.398-.2c.299-.298.498-.398.498-.398l.797-.796c.2-.3.697-.698 1.394-1.594.697-.896 1.195-1.394 1.693-2.19.299-.4.498-.798.598-.997H78.978c-.1.1-.3.2-.399.299-.199.2-.398.398-.597.498-.498.498-.897.896-.996 1.095-.3.399-.598.598-.797.897-.398.398-.697.796-1.095 1.294-.2.2-.498.598-.797.996-.3.3-.399.598-.598.897-.1.1-.199.299-.299.498h9.063c-2.39 5.975-4.68 12.15-6.971 18.425ZM43.92 48.103h-9.062l9.162-25.097h21.811c.299 0 .598 0 .996.1.398.099.797.298.797.298.398.2.697.498.896.697.2.2.498.498.797.996.1.2.398.697.797 1.693.1.399.498 1.793.398 3.586-.1.796-.2 1.294-.2 1.394 0 .1-.198.697-.597 1.394-.1.2-.498.996-1.294 1.992-.996 1.195-2.092 1.892-2.39 2.092a6.324 6.324 0 0 1-2.49 1.095c-1.494.299-4.183 0-4.88-1.793-.598-1.593.896-3.286.995-3.485 0 0 1.594-1.594 1.793-2.29v-.2c0-.1 0-.2-.398-.697-.2-.299-.399-.498-.598-.598h-9.76c-2.29 6.374-4.581 12.549-6.772 18.823Z"/><path fill="#fff" d="M46.91 38.94h13.743c.2 0 .697 0 1.295-.1 1.195-.198 2.29-.597 2.988-.995-1.594-1.793-3.188-3.486-4.88-5.279h-7.47c-1.594 1.395-3.087 2.789-4.68 4.084-.3.797-.698 1.593-.997 2.29ZM4.083 48.103H28.982c.199 0 .398-.1.597-.1.1 0 .299-.099.498-.198l.398-.2c.1-.1.3-.199.598-.398.598-.498 1.096-.996 1.195-.996.1-.1.498-.498.896-1.095.399-.498.598-.897.698-1.196.199-.298.398-.796.697-1.493.1-.3.199-.598.299-1.096 0-.1.1-.498.1-.896v-.897c0-.1 0-.597-.1-1.095s-.2-.996-.3-1.195c-.099-.299-.198-.697-.497-1.195-.2-.498-.498-.797-.498-.897-.2-.199-.399-.498-.697-.896-.498-.498-.897-.697-.996-.797-.399-.299-.697-.398-.896-.498-.3-.1-.498-.199-.598-.199-.299-.1-.498-.1-.598-.1H20.317c-.1 0-.2-.1-.398-.1-.1 0-.2-.099-.399-.198l-.299-.3c-.1-.099-.199-.099-.298-.298V31.272c0-.1.1-.199.1-.299 0-.1.099-.1.099-.298.1-.3.199-.498.299-.598.1-.1.1-.2.199-.299.1-.1.299-.199.398-.199h15.736l.398-.398.897-.897c.498-.398.796-.796 1.195-1.294.299-.399.697-.697 1.095-1.295.598-.697.996-1.295 1.195-1.594.3-.398.498-.796.698-.995H17.03c-.199 0-.398 0-.597.1-.1 0-.299.099-.598.099-.398.1-.796.298-.996.398-.299.2-.597.398-.796.498-.3.2-.498.398-.598.498l-.598.598-.597.597c-.2.299-.399.498-.598.697-.199.299-.398.598-.498.697-.199.399-.398.697-.498.797 0 .1-.1.299-.298.598-.1.299-.2.398-.3.697 0 .1-.099.299-.198.697-.1.299-.2.598-.2.896v1.096c.1.597.2 1.095.3 1.494.099.498.298.896.398 1.195.1.299.398.697.697 1.195.299.398.597.697.697.797l.697.697c.2.2.498.398.896.697.2.1.498.299.797.398 0 0 .598.2 1.195.3H25.297c.1 0 .199 0 .298.099.1 0 .2.1.3.398.099.2.099.399.099.697v.697c0 .1 0 .2-.1.498 0 .2-.1.3-.1.3 0 .099-.099.199-.298.298-.1.1-.2.1-.299.1H8.764c-.1 0-.1.1-.199.199l-.2.199c-.099.2-.198.299-.298.299-.2.199-.299.398-.598.697-.199.299-.199.299-.896 1.195-.398.498-.498.598-.697.896-.1.2-.2.3-.498.698-.2.298-.398.497-.498.597-.2.299-.398.598-.598.797-.1.199-.199.299-.298.498.199-.1.1 0 .1.1Z"/><path fill="#66BB46" d="M84.555 21.81h4.383c.1-.099.199-.198.298-.397.2-.3.399-.498.598-.797.299-.498.498-.697.597-.797.399-.498.698-.996.996-1.494.3-.398.498-.797.698-1.195.298-.498.597-.996.896-1.593.2-.498.398-.996.597-1.694.1-.498.1-.896.1-1.095v-.896c0-.2-.2-.897-.697-1.494-.299-.399-.598-.598-.797-.697-.398-.2-.797-.399-1.095-.399-.3-.1-.598-.1-1.196-.199-.796-.1-1.493-.1-1.892 0-.298 0-1.195.1-2.689.299-1.095.199-1.892.398-2.59.597-1.394.399-2.489.697-3.186.897-1.594.498-2.789.996-3.586 1.294-1.294.498-2.19.897-2.888 1.195-1.195.498-2.19.996-2.988 1.295-1.195.598-2.091.996-2.49 1.195-1.095.498-1.991.996-2.788 1.395l.1.298c.1.498.199.698.199.897 0 .1.1.299.1.597v.698c.199-.1.398-.2.697-.399.1-.1.298-.1.597-.299.498-.298.797-.398.996-.498l.598-.298c.398-.2.796-.3 1.095-.498.299-.1.498-.2.797-.3.299-.099.498-.198.697-.298.2-.1.398-.2.896-.299.399-.199.598-.199.897-.299.299-.1.498-.199.697-.298.199-.1.498-.2.896-.3.398-.099.598-.198 1.096-.298.299-.1.498-.2.896-.299.1 0 .398-.1.697-.199.797-.199 1.594-.398 1.892-.498.498-.1.897-.199 1.594-.299 1.096-.199 1.892-.199 2.191-.199.697 0 1.096 0 1.295.1.299 0 .697.1 1.095.299.3.1.498.199.697.298.3.2.498.399.598.498.2.3.299.598.398.698.2.398.2.697.2.995 0 .399 0 .698-.1.996-.1.498-.2.797-.299 1.096-.1.1-.299.697-.697 1.494-.1.299-.299.498-.398.597"/><path fill="#66BB46" d="M93.917 19.62c.199-.1.398-.2.697-.299.299-.1.398-.2.697-.299.398-.199.398-.199.797-.298.398-.2.398-.2.996-.399.398-.199.398-.199.896-.398l.996-.398c.1 0 .1-.1.797-.399l.498-.2c.099-.099.099-.198.199-.298.199-.2.299-.299.398-.598.299-.298.299-.298.399-.597.199-.2.298-.398.398-.498.199-.2.299-.398.398-.598.1-.199.199-.298.399-.497.199-.2.298-.399.398-.498.199-.2.299-.399.498-.698.199-.199.199-.398.299-.498.099-.199.199-.398.299-.498.099-.199.199-.398.398-.697.199-.299.299-.498.299-.597.099-.1.199-.3.299-.498.099-.1.199-.299.298-.598.1-.199.199-.398.199-.498.1-.199.2-.398.2-.597.099-.2.099-.399.199-.498.099-.2.099-.399.199-.598l.199-.597c0-.1.1-.3.1-.598.099-.299.099-.498.099-.598V4.083c0-.199 0-.398-.099-.697-.1-.299-.199-.498-.199-.597-.1-.2-.2-.399-.299-.498a2.693 2.693 0 0 0-.399-.498c-.298-.3-.497-.498-.697-.598-.298-.2-.597-.398-.796-.498-.399-.2-.598-.299-.797-.299-.399-.1-.797-.199-1.096-.199-.398-.1-.597-.1-.796-.1-.1 0-.399 0-.797-.099h-1.793c-.299 0-.597 0-.996.1-.398 0-.597.1-1.095.1-.3 0-.598.099-.897.099-.498.1-.796.199-1.294.299-.399.1-.797.199-1.295.298-.398.1-.697.2-1.096.3-.199.099-.597.099-1.095.298-.398.1-.697.2-.996.299-.2.1-.598.199-.996.298-.398.1-.697.2-.996.3-.896.298-1.494.497-1.593.597-.399.1-.698.199-.996.398-.3.1-.698.299-1.295.498-.299.1-.598.2-.697.299-.1.1-.399.2-.697.299-.3.1-.897.298-1.594.597-.398.1-.597.3-1.095.498-.698.299-1.196.498-1.793.797-.598.299-.996.398-1.594.697-.597.299-.996.498-1.593.697-.398.2-.697.3-1.195.598-.498.299-.996.498-1.195.597-.498.2-.797.399-1.295.598a6.864 6.864 0 0 1-1.494.697c-.498.299-.896.399-1.494.797-.597.299-.996.498-1.095.597-.498.3-.797.399-1.096.598-.2.1-.498.299-1.096.598l-.995.497c-.1.1-.3.2-.697.399-.1 0-.498.299-.598.299.1.1.1.1.2.298l.298.3c.1.099.199.198.299.398.199.398.298.498.398.597 0 .1.1.1.1.2.1-.1.298-.2.398-.2.299-.1.398-.199.797-.398.398-.2.299-.2.697-.399.398-.199.697-.398 1.095-.597.3-.2.3-.2 1.096-.498.896-.399.797-.399 1.394-.697.498-.2.797-.399 1.295-.598.498-.199.896-.398 1.195-.597.299-.1.697-.3 1.295-.598.299-.1.299-.1 1.394-.598 1.096-.498 1.096-.498 1.394-.597.498-.2.897-.398 1.395-.598.597-.199 1.294-.498 2.091-.796.797-.3 1.992-.698 3.586-1.295.796-.2 1.493-.498 2.49-.797 1.095-.299 2.39-.697 4.182-.896.2 0 1.395-.2 2.988-.299.498 0 1.096-.1 1.793 0 .796.1 1.195.2 1.494.2.398.099.796.198 1.195.398.199.1.498.199.797.498.398.298.597.597.597.697.2.398.299.697.398.896.2.797.2 1.394.1 1.793-.1.597-.2.996-.299 1.494-.199.796-.498 1.294-.697 1.792-.398.897-.896 1.594-1.295 2.291-.298.398-.597.896-.995 1.594-.3.398-.598.796-1.096 1.493-.299.3-.598.797-.896 1.096ZM10.358 52.885c-.399.399-1.195 1.295-2.092 2.39a98.147 98.147 0 0 0-2.29 2.69 56.182 56.182 0 0 0-1.893 2.589c-.498.797-1.095 1.593-1.693 2.689-.498.797-.896 1.593-1.394 2.789a19.785 19.785 0 0 0-.797 2.49C0 69.616.1 70.213.1 70.512c0 .3.1.797.4 1.295.397.797.895 1.195 1.194 1.394.598.498 1.096.598 1.693.797.2.1.996.299 2.39.398 1.295.1 2.192 0 2.988-.1 1.195-.099 2.191-.298 3.088-.497 1.195-.2 2.091-.498 2.689-.598a55.917 55.917 0 0 0 3.386-.996 62.88 62.88 0 0 0 3.486-1.195c.398-.1 1.593-.597 3.187-1.195 1.195-.498 1.992-.797 3.087-1.295.797-.298 1.892-.796 3.287-1.493 1.294-.598 2.19-.996 2.788-1.295.3-.1 1.494-.697 3.187-1.594 1.693-.896 2.988-1.494 3.486-1.792a49.628 49.628 0 0 1 2.988-1.594c.797-.398 1.593-.896 2.689-1.494.996-.597 1.793-.996 2.788-1.593.997-.598 1.793-1.096 2.889-1.693 1.494-.897 2.59-1.594 3.884-2.39 1.095-.698 2.091-1.295 3.486-2.192.498-.298 1.693-1.095 3.087-2.091.299-.2 1.693-1.096 3.386-2.29.996-.698 1.793-1.295 2.092-1.395.498-.398.896-.697 1.195-.896-.697-.399-1.394-.797-2.092-1.096-.1.1-.299.2-.597.398-1.992 1.494-3.586 2.49-4.98 3.486-.597.399-1.494.996-2.59 1.693-.198.1-1.294.897-2.788 1.793-.797.498-1.693 1.096-3.087 1.892-.498.299-1.195.697-1.893 1.096-.298.199-1.693.996-3.485 1.992-.598.298-1.494.896-2.789 1.494-1.793.995-3.187 1.693-4.183 2.19-1.793.897-3.187 1.594-3.486 1.793-1.693.797-2.888 1.395-3.286 1.594-.697.299-1.893.797-3.386 1.494-.897.398-1.992.796-3.486 1.394-1.494.597-2.59.896-2.988 1.096-.896.298-1.892.597-3.087.995-.797.2-1.694.498-2.988.698-.797.199-1.793.398-3.088.498-1.195.1-1.892.1-2.39 0-.398 0-1.095-.1-1.793-.3-.498-.099-.796-.298-.996-.398-.199-.1-.497-.199-.796-.498a5.056 5.056 0 0 1-.897-1.195c-.199-.398-.199-.796-.298-1.095-.1-.598 0-.996 0-1.395.1-.597.199-1.095.398-1.493.2-.698.498-1.295.697-1.793.399-.797.697-1.394.996-1.793.498-.896.896-1.494 1.195-1.892.399-.598.797-1.096 1.096-1.494.597-.697.996-1.295 1.394-1.793.398-.398.996-1.195 1.793-1.991.299-.399.697-.797 1.294-1.395.2-.199.3-.299.996-1.095l.498-.498h-3.685c-1.593 1.494-2.888 2.788-3.784 3.784Z"/><path fill="#66BB46" d="M24.7 49.2h-3.984c-.299.299-.498.598-.697.797-.1.1-.398.398-.598.697-.1.2-.298.398-.498.598-.1.1-.298.398-.697.796-.398.399-.597.797-.697.897-.2.298-.498.597-.896 1.095-.1.2-.399.598-.797 1.096-.2.398-.498.697-.797 1.195-.199.299-.398.697-.697 1.195-.2.299-.398.697-.597 1.295-.2.398-.3.796-.498 1.294-.1.399-.2.797-.2 1.395 0 .498.1.796.1.896.1.398.2.598.299.697.199.399.398.598.498.697l.398.399c.2.199.399.298.697.398.697.299 1.295.398 1.395.498.199 0 .796.1 1.693.1.697 0 1.095 0 1.992-.2.697-.1 1.394-.199 2.39-.398.896-.2 1.593-.398 2.29-.597.996-.3 1.694-.498 2.39-.797.897-.299 1.594-.498 1.992-.697.698-.3 1.196-.399 2.092-.797.896-.299 1.295-.498 1.892-.697.897-.399 1.494-.598 1.893-.797.896-.398 1.593-.697 2.091-.996.896-.398 1.693-.797 1.892-.896.797-.399 1.295-.697 1.992-.996.896-.399 1.494-.797 1.892-.996.797-.399 1.494-.797 1.893-.996.896-.498 1.593-.896 1.892-1.096.896-.498 1.494-.896 2.191-1.195.598-.299 1.195-.697 1.992-1.195.1-.1.697-.398 1.494-.896.697-.399 1.195-.697 1.693-.996.598-.398 1.195-.697 1.992-1.195.597-.399 1.095-.697 1.892-1.195 1.195-.797 1.594-.996 1.793-1.196.697-.498 1.195-.796 1.394-.896.299-.199.498-.398 1.494-.996.896-.597 1.295-.996 1.892-1.394.2-.2.797-.598 1.793-1.394 1.394-.996 1.494-1.096 1.793-1.395.498-.398.896-.697 1.693-1.294 1.095-.897 1.095-.797 1.693-1.295.796-.598.896-.697 1.494-1.096.1-.1.597-.498 1.294-.996.598-.498 1.096-.896 1.196-.896.1-.1.498-.398 1.195-.996.398-.398 1.095-.896 1.992-1.693.597-.498 1.195-1.096 1.892-1.693h-3.586l-.697.697c-.398.398-.996.896-1.693 1.594-.199.1-.896.796-1.892 1.593-.697.598-1.096.896-1.892 1.494-.598.498-1.295.996-2.191 1.693-.996.797-1.793 1.394-2.39 1.793-1.196.896-2.092 1.593-2.39 1.693-.3.2-1.296.896-2.79 1.892a48.953 48.953 0 0 1-2.987 1.992 134.3 134.3 0 0 1-3.386 2.191c-1.196.697-2.192 1.394-3.586 2.191-.498.299-2.49 1.494-5.08 2.888-1.095.598-2.489 1.395-4.48 2.291-1.196.598-2.69 1.295-4.781 2.191-2.191.896-3.785 1.494-4.084 1.593a24.59 24.59 0 0 1-3.486.997c-.697.199-1.792.398-3.087.497-.498 0-.996.1-1.693.1-.797 0-1.195 0-1.793-.2-.498-.099-1.195-.298-1.693-.896-.299-.298-.398-.697-.498-.896-.199-.498-.1-.896-.1-1.295 0-.498.1-.796.2-1.095.1-.498.299-.797.598-1.394.298-.698.597-1.096.697-1.295.298-.598.597-.996.896-1.494.398-.598.697-.996.896-1.295.498 0 .797-.398 1.096-.697ZM33.264 32.966c.2.2.498.498.698.797l.597.896c.1-.1.299-.299.498-.299.299-.199.498-.398.797-.597.697-.498.697-.498.996-.697.498-.3.797-.598 1.195-.897.498-.398.597-.398 1.295-.896.298-.2.597-.399.796-.598.2-.498.3-.896.399-1.095.199-.598.299-.797.498-1.395.1-.398.199-.697.298-.896-.597.398-1.195.797-1.792 1.295-.996.697-1.195.797-1.793 1.294-.1.1-.697.498-1.793 1.295-.796.598-.995.697-1.294.996-.697.2-1.195.598-1.395.797ZM35.257 36.15c.1.299.199.697.298 1.195l.299 1.195c.2-.1.398-.299.598-.398.398-.299.796-.598 1.095-.897.498-1.195.897-2.49 1.394-3.684-.597.398-1.095.796-1.693 1.195-.697.398-1.294.896-1.991 1.394Z"/><path fill="#FFC708" d="M26.592 57.965c.996-.996.996-2.49 0-3.486s-2.49-.996-3.486 0-.996 2.49 0 3.486c.896.996 2.49.996 3.486 0ZM95.212 48.102a4.463 4.463 0 0 0 4.482-4.482 4.463 4.463 0 0 0-4.482-4.481 4.463 4.463 0 0 0-4.482 4.481 4.463 4.463 0 0 0 4.482 4.482ZM64.039 19.42c0 .997-.2 1.893-.398 2.391H50.893c-.2-.498-.399-1.394-.399-2.39 0-.598.1-2.29 1.295-3.984.299-.398 1.195-1.593 2.888-2.29 1.195-.499 2.191-.598 2.69-.598.597 0 1.593.1 2.589.498 1.693.697 2.59 1.892 2.888 2.29.996 1.694 1.195 3.387 1.195 4.084Z"/></g></svg>
