<svg width="230" height="230" viewBox="0 0 230 230" fill="none" xmlns="http://www.w3.org/2000/svg">
<path d="M0 0H6.9697V6.9697H0V0ZM6.9697 0H13.9394V6.9697H6.9697V0ZM13.9394 0H20.9091V6.9697H13.9394V0ZM20.9091 0H27.8788V6.9697H20.9091V0ZM27.8788 0H34.8485V6.9697H27.8788V0ZM34.8485 0H41.8182V6.9697H34.8485V0ZM41.8182 0H48.7879V6.9697H41.8182V0ZM55.7576 0H62.7273V6.9697H55.7576V0ZM69.697 0H76.6667V6.9697H69.697V0ZM83.6364 0H90.6061V6.9697H83.6364V0ZM97.5758 0H104.545V6.9697H97.5758V0ZM111.515 0H118.485V6.9697H111.515V0ZM118.485 0H125.455V6.9697H118.485V0ZM125.455 0H132.424V6.9697H125.455V0ZM132.424 0H139.394V6.9697H132.424V0ZM146.364 0H153.333V6.9697H146.364V0ZM153.333 0H160.303V6.9697H153.333V0ZM160.303 0H167.273V6.9697H160.303V0ZM181.212 0H188.182V6.9697H181.212V0ZM188.182 0H195.152V6.9697H188.182V0ZM195.152 0H202.121V6.9697H195.152V0ZM202.121 0H209.091V6.9697H202.121V0ZM209.091 0H216.061V6.9697H209.091V0ZM216.061 0H223.03V6.9697H216.061V0ZM223.03 0H230V6.9697H223.03V0ZM0 6.9697H6.9697V13.9394H0V6.9697ZM41.8182 6.9697H48.7879V13.9394H41.8182V6.9697ZM83.6364 6.9697H90.6061V13.9394H83.6364V6.9697ZM125.455 6.9697H132.424V13.9394H125.455V6.9697ZM139.394 6.9697H146.364V13.9394H139.394V6.9697ZM160.303 6.9697H167.273V13.9394H160.303V6.9697ZM181.212 6.9697H188.182V13.9394H181.212V6.9697ZM223.03 6.9697H230V13.9394H223.03V6.9697ZM0 13.9394H6.9697V20.9091H0V13.9394ZM13.9394 13.9394H20.9091V20.9091H13.9394V13.9394ZM20.9091 13.9394H27.8788V20.9091H20.9091V13.9394ZM27.8788 13.9394H34.8485V20.9091H27.8788V13.9394ZM41.8182 13.9394H48.7879V20.9091H41.8182V13.9394ZM55.7576 13.9394H62.7273V20.9091H55.7576V13.9394ZM62.7273 13.9394H69.697V20.9091H62.7273V13.9394ZM76.6667 13.9394H83.6364V20.9091H76.6667V13.9394ZM83.6364 13.9394H90.6061V20.9091H83.6364V13.9394ZM97.5758 13.9394H104.545V20.9091H97.5758V13.9394ZM125.455 13.9394H132.424V20.9091H125.455V13.9394ZM139.394 13.9394H146.364V20.9091H139.394V13.9394ZM146.364 13.9394H153.333V20.9091H146.364V13.9394ZM153.333 13.9394H160.303V20.9091H153.333V13.9394ZM160.303 13.9394H167.273V20.9091H160.303V13.9394ZM181.212 13.9394H188.182V20.9091H181.212V13.9394ZM195.152 13.9394H202.121V20.9091H195.152V13.9394ZM202.121 13.9394H209.091V20.9091H202.121V13.9394ZM209.091 13.9394H216.061V20.9091H209.091V13.9394ZM223.03 13.9394H230V20.9091H223.03V13.9394ZM0 20.9091H6.9697V27.8788H0V20.9091ZM13.9394 20.9091H20.9091V27.8788H13.9394V20.9091ZM20.9091 20.9091H27.8788V27.8788H20.9091V20.9091ZM27.8788 20.9091H34.8485V27.8788H27.8788V20.9091ZM41.8182 20.9091H48.7879V27.8788H41.8182V20.9091ZM55.7576 20.9091H62.7273V27.8788H55.7576V20.9091ZM97.5758 20.9091H104.545V27.8788H97.5758V20.9091ZM118.485 20.9091H125.455V27.8788H118.485V20.9091ZM125.455 20.9091H132.424V27.8788H125.455V20.9091ZM132.424 20.9091H139.394V27.8788H132.424V20.9091ZM139.394 20.9091H146.364V27.8788H139.394V20.9091ZM146.364 20.9091H153.333V27.8788H146.364V20.9091ZM153.333 20.9091H160.303V27.8788H153.333V20.9091ZM181.212 20.9091H188.182V27.8788H181.212V20.9091ZM195.152 20.9091H202.121V27.8788H195.152V20.9091ZM202.121 20.9091H209.091V27.8788H202.121V20.9091ZM209.091 20.9091H216.061V27.8788H209.091V20.9091ZM223.03 20.9091H230V27.8788H223.03V20.9091ZM0 27.8788H6.9697V34.8485H0V27.8788ZM13.9394 27.8788H20.9091V34.8485H13.9394V27.8788ZM20.9091 27.8788H27.8788V34.8485H20.9091V27.8788ZM27.8788 27.8788H34.8485V34.8485H27.8788V27.8788ZM41.8182 27.8788H48.7879V34.8485H41.8182V27.8788ZM62.7273 27.8788H69.697V34.8485H62.7273V27.8788ZM76.6667 27.8788H83.6364V34.8485H76.6667V27.8788ZM90.6061 27.8788H97.5758V34.8485H90.6061V27.8788ZM97.5758 27.8788H104.545V34.8485H97.5758V27.8788ZM111.515 27.8788H118.485V34.8485H111.515V27.8788ZM125.455 27.8788H132.424V34.8485H125.455V27.8788ZM132.424 27.8788H139.394V34.8485H132.424V27.8788ZM139.394 27.8788H146.364V34.8485H139.394V27.8788ZM146.364 27.8788H153.333V34.8485H146.364V27.8788ZM167.273 27.8788H174.242V34.8485H167.273V27.8788ZM181.212 27.8788H188.182V34.8485H181.212V27.8788ZM195.152 27.8788H202.121V34.8485H195.152V27.8788ZM202.121 27.8788H209.091V34.8485H202.121V27.8788ZM209.091 27.8788H216.061V34.8485H209.091V27.8788ZM223.03 27.8788H230V34.8485H223.03V27.8788ZM0 34.8485H6.9697V41.8182H0V34.8485ZM41.8182 34.8485H48.7879V41.8182H41.8182V34.8485ZM55.7576 34.8485H62.7273V41.8182H55.7576V34.8485ZM69.697 34.8485H76.6667V41.8182H69.697V34.8485ZM90.6061 34.8485H97.5758V41.8182H90.6061V34.8485ZM97.5758 34.8485H104.545V41.8182H97.5758V34.8485ZM104.545 34.8485H111.515V41.8182H104.545V34.8485ZM132.424 34.8485H139.394V41.8182H132.424V34.8485ZM146.364 34.8485H153.333V41.8182H146.364V34.8485ZM167.273 34.8485H174.242V41.8182H167.273V34.8485ZM181.212 34.8485H188.182V41.8182H181.212V34.8485ZM223.03 34.8485H230V41.8182H223.03V34.8485ZM0 41.8182H6.9697V48.7879H0V41.8182ZM6.9697 41.8182H13.9394V48.7879H6.9697V41.8182ZM13.9394 41.8182H20.9091V48.7879H13.9394V41.8182ZM20.9091 41.8182H27.8788V48.7879H20.9091V41.8182ZM27.8788 41.8182H34.8485V48.7879H27.8788V41.8182ZM34.8485 41.8182H41.8182V48.7879H34.8485V41.8182ZM41.8182 41.8182H48.7879V48.7879H41.8182V41.8182ZM55.7576 41.8182H62.7273V48.7879H55.7576V41.8182ZM69.697 41.8182H76.6667V48.7879H69.697V41.8182ZM83.6364 41.8182H90.6061V48.7879H83.6364V41.8182ZM97.5758 41.8182H104.545V48.7879H97.5758V41.8182ZM111.515 41.8182H118.485V48.7879H111.515V41.8182ZM125.455 41.8182H132.424V48.7879H125.455V41.8182ZM139.394 41.8182H146.364V48.7879H139.394V41.8182ZM153.333 41.8182H160.303V48.7879H153.333V41.8182ZM167.273 41.8182H174.242V48.7879H167.273V41.8182ZM181.212 41.8182H188.182V48.7879H181.212V41.8182ZM188.182 41.8182H195.152V48.7879H188.182V41.8182ZM195.152 41.8182H202.121V48.7879H195.152V41.8182ZM202.121 41.8182H209.091V48.7879H202.121V41.8182ZM209.091 41.8182H216.061V48.7879H209.091V41.8182ZM216.061 41.8182H223.03V48.7879H216.061V41.8182ZM223.03 41.8182H230V48.7879H223.03V41.8182ZM55.7576 48.7879H62.7273V55.7576H55.7576V48.7879ZM62.7273 48.7879H69.697V55.7576H62.7273V48.7879ZM83.6364 48.7879H90.6061V55.7576H83.6364V48.7879ZM104.545 48.7879H111.515V55.7576H104.545V48.7879ZM111.515 48.7879H118.485V55.7576H111.515V48.7879ZM118.485 48.7879H125.455V55.7576H118.485V48.7879ZM125.455 48.7879H132.424V55.7576H125.455V48.7879ZM146.364 48.7879H153.333V55.7576H146.364V48.7879ZM167.273 48.7879H174.242V55.7576H167.273V48.7879ZM6.9697 55.7576H13.9394V62.7273H6.9697V55.7576ZM20.9091 55.7576H27.8788V62.7273H20.9091V55.7576ZM34.8485 55.7576H41.8182V62.7273H34.8485V55.7576ZM41.8182 55.7576H48.7879V62.7273H41.8182V55.7576ZM48.7879 55.7576H55.7576V62.7273H48.7879V55.7576ZM55.7576 55.7576H62.7273V62.7273H55.7576V55.7576ZM62.7273 55.7576H69.697V62.7273H62.7273V55.7576ZM111.515 55.7576H118.485V62.7273H111.515V55.7576ZM125.455 55.7576H132.424V62.7273H125.455V55.7576ZM139.394 55.7576H146.364V62.7273H139.394V55.7576ZM146.364 55.7576H153.333V62.7273H146.364V55.7576ZM167.273 55.7576H174.242V62.7273H167.273V55.7576ZM174.242 55.7576H181.212V62.7273H174.242V55.7576ZM181.212 55.7576H188.182V62.7273H181.212V55.7576ZM188.182 55.7576H195.152V62.7273H188.182V55.7576ZM202.121 55.7576H209.091V62.7273H202.121V55.7576ZM209.091 55.7576H216.061V62.7273H209.091V55.7576ZM223.03 55.7576H230V62.7273H223.03V55.7576ZM0 62.7273H6.9697V69.697H0V62.7273ZM6.9697 62.7273H13.9394V69.697H6.9697V62.7273ZM20.9091 62.7273H27.8788V69.697H20.9091V62.7273ZM34.8485 62.7273H41.8182V69.697H34.8485V62.7273ZM48.7879 62.7273H55.7576V69.697H48.7879V62.7273ZM69.697 62.7273H76.6667V69.697H69.697V62.7273ZM76.6667 62.7273H83.6364V69.697H76.6667V62.7273ZM97.5758 62.7273H104.545V69.697H97.5758V62.7273ZM104.545 62.7273H111.515V69.697H104.545V62.7273ZM111.515 62.7273H118.485V69.697H111.515V62.7273ZM118.485 62.7273H125.455V69.697H118.485V62.7273ZM139.394 62.7273H146.364V69.697H139.394V62.7273ZM146.364 62.7273H153.333V69.697H146.364V62.7273ZM167.273 62.7273H174.242V69.697H167.273V62.7273ZM174.242 62.7273H181.212V69.697H174.242V62.7273ZM181.212 62.7273H188.182V69.697H181.212V62.7273ZM188.182 62.7273H195.152V69.697H188.182V62.7273ZM216.061 62.7273H223.03V69.697H216.061V62.7273ZM223.03 62.7273H230V69.697H223.03V62.7273ZM6.9697 69.697H13.9394V76.6667H6.9697V69.697ZM13.9394 69.697H20.9091V76.6667H13.9394V69.697ZM27.8788 69.697H34.8485V76.6667H27.8788V69.697ZM34.8485 69.697H41.8182V76.6667H34.8485V69.697ZM41.8182 69.697H48.7879V76.6667H41.8182V69.697ZM48.7879 69.697H55.7576V76.6667H48.7879V69.697ZM55.7576 69.697H62.7273V76.6667H55.7576V69.697ZM76.6667 69.697H83.6364V76.6667H76.6667V69.697ZM83.6364 69.697H90.6061V76.6667H83.6364V69.697ZM97.5758 69.697H104.545V76.6667H97.5758V69.697ZM104.545 69.697H111.515V76.6667H104.545V69.697ZM125.455 69.697H132.424V76.6667H125.455V69.697ZM132.424 69.697H139.394V76.6667H132.424V69.697ZM139.394 69.697H146.364V76.6667H139.394V69.697ZM181.212 69.697H188.182V76.6667H181.212V69.697ZM188.182 69.697H195.152V76.6667H188.182V69.697ZM195.152 69.697H202.121V76.6667H195.152V69.697ZM209.091 69.697H216.061V76.6667H209.091V69.697ZM216.061 69.697H223.03V76.6667H216.061V69.697ZM223.03 69.697H230V76.6667H223.03V69.697ZM0 76.6667H6.9697V83.6364H0V76.6667ZM6.9697 76.6667H13.9394V83.6364H6.9697V76.6667ZM13.9394 76.6667H20.9091V83.6364H13.9394V76.6667ZM55.7576 76.6667H62.7273V83.6364H55.7576V76.6667ZM76.6667 76.6667H83.6364V83.6364H76.6667V76.6667ZM90.6061 76.6667H97.5758V83.6364H90.6061V76.6667ZM104.545 76.6667H111.515V83.6364H104.545V76.6667ZM125.455 76.6667H132.424V83.6364H125.455V76.6667ZM146.364 76.6667H153.333V83.6364H146.364V76.6667ZM153.333 76.6667H160.303V83.6364H153.333V76.6667ZM167.273 76.6667H174.242V83.6364H167.273V76.6667ZM174.242 76.6667H181.212V83.6364H174.242V76.6667ZM181.212 76.6667H188.182V83.6364H181.212V76.6667ZM195.152 76.6667H202.121V83.6364H195.152V76.6667ZM202.121 76.6667H209.091V83.6364H202.121V76.6667ZM216.061 76.6667H223.03V83.6364H216.061V76.6667ZM0 83.6364H6.9697V90.6061H0V83.6364ZM6.9697 83.6364H13.9394V90.6061H6.9697V83.6364ZM13.9394 83.6364H20.9091V90.6061H13.9394V83.6364ZM34.8485 83.6364H41.8182V90.6061H34.8485V83.6364ZM41.8182 83.6364H48.7879V90.6061H41.8182V83.6364ZM55.7576 83.6364H62.7273V90.6061H55.7576V83.6364ZM62.7273 83.6364H69.697V90.6061H62.7273V83.6364ZM69.697 83.6364H76.6667V90.6061H69.697V83.6364ZM90.6061 83.6364H97.5758V90.6061H90.6061V83.6364ZM97.5758 83.6364H104.545V90.6061H97.5758V83.6364ZM125.455 83.6364H132.424V90.6061H125.455V83.6364ZM132.424 83.6364H139.394V90.6061H132.424V83.6364ZM139.394 83.6364H146.364V90.6061H139.394V83.6364ZM153.333 83.6364H160.303V90.6061H153.333V83.6364ZM167.273 83.6364H174.242V90.6061H167.273V83.6364ZM174.242 83.6364H181.212V90.6061H174.242V83.6364ZM181.212 83.6364H188.182V90.6061H181.212V83.6364ZM188.182 83.6364H195.152V90.6061H188.182V83.6364ZM202.121 83.6364H209.091V90.6061H202.121V83.6364ZM216.061 83.6364H223.03V90.6061H216.061V83.6364ZM6.9697 90.6061H13.9394V97.5758H6.9697V90.6061ZM20.9091 90.6061H27.8788V97.5758H20.9091V90.6061ZM34.8485 90.6061H41.8182V97.5758H34.8485V90.6061ZM55.7576 90.6061H62.7273V97.5758H55.7576V90.6061ZM76.6667 90.6061H83.6364V97.5758H76.6667V90.6061ZM90.6061 90.6061H97.5758V97.5758H90.6061V90.6061ZM118.485 90.6061H125.455V97.5758H118.485V90.6061ZM125.455 90.6061H132.424V97.5758H125.455V90.6061ZM139.394 90.6061H146.364V97.5758H139.394V90.6061ZM146.364 90.6061H153.333V97.5758H146.364V90.6061ZM181.212 90.6061H188.182V97.5758H181.212V90.6061ZM195.152 90.6061H202.121V97.5758H195.152V90.6061ZM209.091 90.6061H216.061V97.5758H209.091V90.6061ZM216.061 90.6061H223.03V97.5758H216.061V90.6061ZM223.03 90.6061H230V97.5758H223.03V90.6061ZM0 97.5758H6.9697V104.545H0V97.5758ZM13.9394 97.5758H20.9091V104.545H13.9394V97.5758ZM20.9091 97.5758H27.8788V104.545H20.9091V97.5758ZM27.8788 97.5758H34.8485V104.545H27.8788V97.5758ZM34.8485 97.5758H41.8182V104.545H34.8485V97.5758ZM41.8182 97.5758H48.7879V104.545H41.8182V97.5758ZM55.7576 97.5758H62.7273V104.545H55.7576V97.5758ZM69.697 97.5758H76.6667V104.545H69.697V97.5758ZM111.515 97.5758H118.485V104.545H111.515V97.5758ZM125.455 97.5758H132.424V104.545H125.455V97.5758ZM132.424 97.5758H139.394V104.545H132.424V97.5758ZM146.364 97.5758H153.333V104.545H146.364V97.5758ZM160.303 97.5758H167.273V104.545H160.303V97.5758ZM167.273 97.5758H174.242V104.545H167.273V97.5758ZM174.242 97.5758H181.212V104.545H174.242V97.5758ZM181.212 97.5758H188.182V104.545H181.212V97.5758ZM188.182 97.5758H195.152V104.545H188.182V97.5758ZM195.152 97.5758H202.121V104.545H195.152V97.5758ZM216.061 97.5758H223.03V104.545H216.061V97.5758ZM6.9697 104.545H13.9394V111.515H6.9697V104.545ZM13.9394 104.545H20.9091V111.515H13.9394V104.545ZM27.8788 104.545H34.8485V111.515H27.8788V104.545ZM34.8485 104.545H41.8182V111.515H34.8485V104.545ZM62.7273 104.545H69.697V111.515H62.7273V104.545ZM90.6061 104.545H97.5758V111.515H90.6061V104.545ZM97.5758 104.545H104.545V111.515H97.5758V104.545ZM111.515 104.545H118.485V111.515H111.515V104.545ZM125.455 104.545H132.424V111.515H125.455V104.545ZM139.394 104.545H146.364V111.515H139.394V104.545ZM146.364 104.545H153.333V111.515H146.364V104.545ZM167.273 104.545H174.242V111.515H167.273V104.545ZM181.212 104.545H188.182V111.515H181.212V104.545ZM188.182 104.545H195.152V111.515H188.182V104.545ZM216.061 104.545H223.03V111.515H216.061V104.545ZM0 111.515H6.9697V118.485H0V111.515ZM6.9697 111.515H13.9394V118.485H6.9697V111.515ZM20.9091 111.515H27.8788V118.485H20.9091V111.515ZM34.8485 111.515H41.8182V118.485H34.8485V111.515ZM41.8182 111.515H48.7879V118.485H41.8182V111.515ZM69.697 111.515H76.6667V118.485H69.697V111.515ZM76.6667 111.515H83.6364V118.485H76.6667V111.515ZM83.6364 111.515H90.6061V118.485H83.6364V111.515ZM90.6061 111.515H97.5758V118.485H90.6061V111.515ZM97.5758 111.515H104.545V118.485H97.5758V111.515ZM104.545 111.515H111.515V118.485H104.545V111.515ZM111.515 111.515H118.485V118.485H111.515V111.515ZM118.485 111.515H125.455V118.485H118.485V111.515ZM139.394 111.515H146.364V118.485H139.394V111.515ZM146.364 111.515H153.333V118.485H146.364V111.515ZM153.333 111.515H160.303V118.485H153.333V111.515ZM160.303 111.515H167.273V118.485H160.303V111.515ZM167.273 111.515H174.242V118.485H167.273V111.515ZM181.212 111.515H188.182V118.485H181.212V111.515ZM195.152 111.515H202.121V118.485H195.152V111.515ZM216.061 111.515H223.03V118.485H216.061V111.515ZM6.9697 118.485H13.9394V125.455H6.9697V118.485ZM13.9394 118.485H20.9091V125.455H13.9394V118.485ZM20.9091 118.485H27.8788V125.455H20.9091V118.485ZM55.7576 118.485H62.7273V125.455H55.7576V118.485ZM69.697 118.485H76.6667V125.455H69.697V118.485ZM76.6667 118.485H83.6364V125.455H76.6667V118.485ZM83.6364 118.485H90.6061V125.455H83.6364V118.485ZM90.6061 118.485H97.5758V125.455H90.6061V118.485ZM97.5758 118.485H104.545V125.455H97.5758V118.485ZM104.545 118.485H111.515V125.455H104.545V118.485ZM111.515 118.485H118.485V125.455H111.515V118.485ZM118.485 118.485H125.455V125.455H118.485V118.485ZM139.394 118.485H146.364V125.455H139.394V118.485ZM160.303 118.485H167.273V125.455H160.303V118.485ZM167.273 118.485H174.242V125.455H167.273V118.485ZM188.182 118.485H195.152V125.455H188.182V118.485ZM202.121 118.485H209.091V125.455H202.121V118.485ZM216.061 118.485H223.03V125.455H216.061V118.485ZM6.9697 125.455H13.9394V132.424H6.9697V125.455ZM13.9394 125.455H20.9091V132.424H13.9394V125.455ZM20.9091 125.455H27.8788V132.424H20.9091V125.455ZM34.8485 125.455H41.8182V132.424H34.8485V125.455ZM41.8182 125.455H48.7879V132.424H41.8182V125.455ZM48.7879 125.455H55.7576V132.424H48.7879V125.455ZM69.697 125.455H76.6667V132.424H69.697V125.455ZM83.6364 125.455H90.6061V132.424H83.6364V125.455ZM90.6061 125.455H97.5758V132.424H90.6061V125.455ZM97.5758 125.455H104.545V132.424H97.5758V125.455ZM118.485 125.455H125.455V132.424H118.485V125.455ZM139.394 125.455H146.364V132.424H139.394V125.455ZM146.364 125.455H153.333V132.424H146.364V125.455ZM167.273 125.455H174.242V132.424H167.273V125.455ZM174.242 125.455H181.212V132.424H174.242V125.455ZM181.212 125.455H188.182V132.424H181.212V125.455ZM209.091 125.455H216.061V132.424H209.091V125.455ZM216.061 125.455H223.03V132.424H216.061V125.455ZM223.03 125.455H230V132.424H223.03V125.455ZM0 132.424H6.9697V139.394H0V132.424ZM27.8788 132.424H34.8485V139.394H27.8788V132.424ZM34.8485 132.424H41.8182V139.394H34.8485V132.424ZM48.7879 132.424H55.7576V139.394H48.7879V132.424ZM62.7273 132.424H69.697V139.394H62.7273V132.424ZM76.6667 132.424H83.6364V139.394H76.6667V132.424ZM90.6061 132.424H97.5758V139.394H90.6061V132.424ZM104.545 132.424H111.515V139.394H104.545V132.424ZM111.515 132.424H118.485V139.394H111.515V132.424ZM132.424 132.424H139.394V139.394H132.424V132.424ZM139.394 132.424H146.364V139.394H139.394V132.424ZM153.333 132.424H160.303V139.394H153.333V132.424ZM167.273 132.424H174.242V139.394H167.273V132.424ZM174.242 132.424H181.212V139.394H174.242V132.424ZM188.182 132.424H195.152V139.394H188.182V132.424ZM216.061 132.424H223.03V139.394H216.061V132.424ZM0 139.394H6.9697V146.364H0V139.394ZM13.9394 139.394H20.9091V146.364H13.9394V139.394ZM20.9091 139.394H27.8788V146.364H20.9091V139.394ZM27.8788 139.394H34.8485V146.364H27.8788V139.394ZM41.8182 139.394H48.7879V146.364H41.8182V139.394ZM48.7879 139.394H55.7576V146.364H48.7879V139.394ZM76.6667 139.394H83.6364V146.364H76.6667V139.394ZM97.5758 139.394H104.545V146.364H97.5758V139.394ZM132.424 139.394H139.394V146.364H132.424V139.394ZM139.394 139.394H146.364V146.364H139.394V139.394ZM160.303 139.394H167.273V146.364H160.303V139.394ZM167.273 139.394H174.242V146.364H167.273V139.394ZM216.061 139.394H223.03V146.364H216.061V139.394ZM27.8788 146.364H34.8485V153.333H27.8788V146.364ZM48.7879 146.364H55.7576V153.333H48.7879V146.364ZM55.7576 146.364H62.7273V153.333H55.7576V146.364ZM69.697 146.364H76.6667V153.333H69.697V146.364ZM83.6364 146.364H90.6061V153.333H83.6364V146.364ZM90.6061 146.364H97.5758V153.333H90.6061V146.364ZM97.5758 146.364H104.545V153.333H97.5758V146.364ZM111.515 146.364H118.485V153.333H111.515V146.364ZM118.485 146.364H125.455V153.333H118.485V146.364ZM132.424 146.364H139.394V153.333H132.424V146.364ZM146.364 146.364H153.333V153.333H146.364V146.364ZM167.273 146.364H174.242V153.333H167.273V146.364ZM174.242 146.364H181.212V153.333H174.242V146.364ZM181.212 146.364H188.182V153.333H181.212V146.364ZM216.061 146.364H223.03V153.333H216.061V146.364ZM223.03 146.364H230V153.333H223.03V146.364ZM0 153.333H6.9697V160.303H0V153.333ZM6.9697 153.333H13.9394V160.303H6.9697V153.333ZM20.9091 153.333H27.8788V160.303H20.9091V153.333ZM41.8182 153.333H48.7879V160.303H41.8182V153.333ZM48.7879 153.333H55.7576V160.303H48.7879V153.333ZM55.7576 153.333H62.7273V160.303H55.7576V153.333ZM69.697 153.333H76.6667V160.303H69.697V153.333ZM90.6061 153.333H97.5758V160.303H90.6061V153.333ZM132.424 153.333H139.394V160.303H132.424V153.333ZM153.333 153.333H160.303V160.303H153.333V153.333ZM174.242 153.333H181.212V160.303H174.242V153.333ZM181.212 153.333H188.182V160.303H181.212V153.333ZM195.152 153.333H202.121V160.303H195.152V153.333ZM209.091 153.333H216.061V160.303H209.091V153.333ZM223.03 153.333H230V160.303H223.03V153.333ZM6.9697 160.303H13.9394V167.273H6.9697V160.303ZM13.9394 160.303H20.9091V167.273H13.9394V160.303ZM27.8788 160.303H34.8485V167.273H27.8788V160.303ZM48.7879 160.303H55.7576V167.273H48.7879V160.303ZM62.7273 160.303H69.697V167.273H62.7273V160.303ZM69.697 160.303H76.6667V167.273H69.697V160.303ZM97.5758 160.303H104.545V167.273H97.5758V160.303ZM104.545 160.303H111.515V167.273H104.545V160.303ZM132.424 160.303H139.394V167.273H132.424V160.303ZM139.394 160.303H146.364V167.273H139.394V160.303ZM146.364 160.303H153.333V167.273H146.364V160.303ZM153.333 160.303H160.303V167.273H153.333V160.303ZM167.273 160.303H174.242V167.273H167.273V160.303ZM195.152 160.303H202.121V167.273H195.152V160.303ZM202.121 160.303H209.091V167.273H202.121V160.303ZM216.061 160.303H223.03V167.273H216.061V160.303ZM223.03 160.303H230V167.273H223.03V160.303ZM0 167.273H6.9697V174.242H0V167.273ZM41.8182 167.273H48.7879V174.242H41.8182V167.273ZM55.7576 167.273H62.7273V174.242H55.7576V167.273ZM69.697 167.273H76.6667V174.242H69.697V167.273ZM76.6667 167.273H83.6364V174.242H76.6667V167.273ZM83.6364 167.273H90.6061V174.242H83.6364V167.273ZM97.5758 167.273H104.545V174.242H97.5758V167.273ZM111.515 167.273H118.485V174.242H111.515V167.273ZM118.485 167.273H125.455V174.242H118.485V167.273ZM139.394 167.273H146.364V174.242H139.394V167.273ZM146.364 167.273H153.333V174.242H146.364V167.273ZM153.333 167.273H160.303V174.242H153.333V167.273ZM167.273 167.273H174.242V174.242H167.273V167.273ZM174.242 167.273H181.212V174.242H174.242V167.273ZM181.212 167.273H188.182V174.242H181.212V167.273ZM188.182 167.273H195.152V174.242H188.182V167.273ZM195.152 167.273H202.121V174.242H195.152V167.273ZM216.061 167.273H223.03V174.242H216.061V167.273ZM223.03 167.273H230V174.242H223.03V167.273ZM55.7576 174.242H62.7273V181.212H55.7576V174.242ZM62.7273 174.242H69.697V181.212H62.7273V174.242ZM76.6667 174.242H83.6364V181.212H76.6667V174.242ZM97.5758 174.242H104.545V181.212H97.5758V174.242ZM111.515 174.242H118.485V181.212H111.515V174.242ZM118.485 174.242H125.455V181.212H118.485V174.242ZM125.455 174.242H132.424V181.212H125.455V174.242ZM132.424 174.242H139.394V181.212H132.424V174.242ZM139.394 174.242H146.364V181.212H139.394V174.242ZM146.364 174.242H153.333V181.212H146.364V174.242ZM153.333 174.242H160.303V181.212H153.333V174.242ZM167.273 174.242H174.242V181.212H167.273V174.242ZM195.152 174.242H202.121V181.212H195.152V174.242ZM202.121 174.242H209.091V181.212H202.121V174.242ZM223.03 174.242H230V181.212H223.03V174.242ZM0 181.212H6.9697V188.182H0V181.212ZM6.9697 181.212H13.9394V188.182H6.9697V181.212ZM13.9394 181.212H20.9091V188.182H13.9394V181.212ZM20.9091 181.212H27.8788V188.182H20.9091V181.212ZM27.8788 181.212H34.8485V188.182H27.8788V181.212ZM34.8485 181.212H41.8182V188.182H34.8485V181.212ZM41.8182 181.212H48.7879V188.182H41.8182V181.212ZM55.7576 181.212H62.7273V188.182H55.7576V181.212ZM62.7273 181.212H69.697V188.182H62.7273V181.212ZM76.6667 181.212H83.6364V188.182H76.6667V181.212ZM90.6061 181.212H97.5758V188.182H90.6061V181.212ZM104.545 181.212H111.515V188.182H104.545V181.212ZM111.515 181.212H118.485V188.182H111.515V181.212ZM125.455 181.212H132.424V188.182H125.455V181.212ZM139.394 181.212H146.364V188.182H139.394V181.212ZM153.333 181.212H160.303V188.182H153.333V181.212ZM167.273 181.212H174.242V188.182H167.273V181.212ZM181.212 181.212H188.182V188.182H181.212V181.212ZM195.152 181.212H202.121V188.182H195.152V181.212ZM202.121 181.212H209.091V188.182H202.121V181.212ZM209.091 181.212H216.061V188.182H209.091V181.212ZM216.061 181.212H223.03V188.182H216.061V181.212ZM0 188.182H6.9697V195.152H0V188.182ZM41.8182 188.182H48.7879V195.152H41.8182V188.182ZM55.7576 188.182H62.7273V195.152H55.7576V188.182ZM76.6667 188.182H83.6364V195.152H76.6667V188.182ZM83.6364 188.182H90.6061V195.152H83.6364V188.182ZM90.6061 188.182H97.5758V195.152H90.6061V188.182ZM118.485 188.182H125.455V195.152H118.485V188.182ZM132.424 188.182H139.394V195.152H132.424V188.182ZM146.364 188.182H153.333V195.152H146.364V188.182ZM153.333 188.182H160.303V195.152H153.333V188.182ZM167.273 188.182H174.242V195.152H167.273V188.182ZM195.152 188.182H202.121V195.152H195.152V188.182ZM223.03 188.182H230V195.152H223.03V188.182ZM0 195.152H6.9697V202.121H0V195.152ZM13.9394 195.152H20.9091V202.121H13.9394V195.152ZM20.9091 195.152H27.8788V202.121H20.9091V195.152ZM27.8788 195.152H34.8485V202.121H27.8788V195.152ZM41.8182 195.152H48.7879V202.121H41.8182V195.152ZM69.697 195.152H76.6667V202.121H69.697V195.152ZM76.6667 195.152H83.6364V202.121H76.6667V195.152ZM83.6364 195.152H90.6061V202.121H83.6364V195.152ZM104.545 195.152H111.515V202.121H104.545V195.152ZM111.515 195.152H118.485V202.121H111.515V195.152ZM139.394 195.152H146.364V202.121H139.394V195.152ZM167.273 195.152H174.242V202.121H167.273V195.152ZM174.242 195.152H181.212V202.121H174.242V195.152ZM181.212 195.152H188.182V202.121H181.212V195.152ZM188.182 195.152H195.152V202.121H188.182V195.152ZM195.152 195.152H202.121V202.121H195.152V195.152ZM202.121 195.152H209.091V202.121H202.121V195.152ZM0 202.121H6.9697V209.091H0V202.121ZM13.9394 202.121H20.9091V209.091H13.9394V202.121ZM20.9091 202.121H27.8788V209.091H20.9091V202.121ZM27.8788 202.121H34.8485V209.091H27.8788V202.121ZM41.8182 202.121H48.7879V209.091H41.8182V202.121ZM55.7576 202.121H62.7273V209.091H55.7576V202.121ZM69.697 202.121H76.6667V209.091H69.697V202.121ZM76.6667 202.121H83.6364V209.091H76.6667V202.121ZM83.6364 202.121H90.6061V209.091H83.6364V202.121ZM90.6061 202.121H97.5758V209.091H90.6061V202.121ZM97.5758 202.121H104.545V209.091H97.5758V202.121ZM118.485 202.121H125.455V209.091H118.485V202.121ZM125.455 202.121H132.424V209.091H125.455V202.121ZM132.424 202.121H139.394V209.091H132.424V202.121ZM153.333 202.121H160.303V209.091H153.333V202.121ZM160.303 202.121H167.273V209.091H160.303V202.121ZM181.212 202.121H188.182V209.091H181.212V202.121ZM195.152 202.121H202.121V209.091H195.152V202.121ZM202.121 202.121H209.091V209.091H202.121V202.121ZM209.091 202.121H216.061V209.091H209.091V202.121ZM216.061 202.121H223.03V209.091H216.061V202.121ZM0 209.091H6.9697V216.061H0V209.091ZM13.9394 209.091H20.9091V216.061H13.9394V209.091ZM20.9091 209.091H27.8788V216.061H20.9091V209.091ZM27.8788 209.091H34.8485V216.061H27.8788V209.091ZM41.8182 209.091H48.7879V216.061H41.8182V209.091ZM62.7273 209.091H69.697V216.061H62.7273V209.091ZM69.697 209.091H76.6667V216.061H69.697V209.091ZM104.545 209.091H111.515V216.061H104.545V209.091ZM111.515 209.091H118.485V216.061H111.515V209.091ZM118.485 209.091H125.455V216.061H118.485V209.091ZM125.455 209.091H132.424V216.061H125.455V209.091ZM132.424 209.091H139.394V216.061H132.424V209.091ZM139.394 209.091H146.364V216.061H139.394V209.091ZM146.364 209.091H153.333V216.061H146.364V209.091ZM167.273 209.091H174.242V216.061H167.273V209.091ZM195.152 209.091H202.121V216.061H195.152V209.091ZM202.121 209.091H209.091V216.061H202.121V209.091ZM223.03 209.091H230V216.061H223.03V209.091ZM0 216.061H6.9697V223.03H0V216.061ZM41.8182 216.061H48.7879V223.03H41.8182V216.061ZM55.7576 216.061H62.7273V223.03H55.7576V216.061ZM83.6364 216.061H90.6061V223.03H83.6364V216.061ZM97.5758 216.061H104.545V223.03H97.5758V216.061ZM111.515 216.061H118.485V223.03H111.515V216.061ZM125.455 216.061H132.424V223.03H125.455V216.061ZM132.424 216.061H139.394V223.03H132.424V216.061ZM139.394 216.061H146.364V223.03H139.394V216.061ZM146.364 216.061H153.333V223.03H146.364V216.061ZM153.333 216.061H160.303V223.03H153.333V216.061ZM160.303 216.061H167.273V223.03H160.303V216.061ZM167.273 216.061H174.242V223.03H167.273V216.061ZM174.242 216.061H181.212V223.03H174.242V216.061ZM181.212 216.061H188.182V223.03H181.212V216.061ZM0 223.03H6.9697V230H0V223.03ZM6.9697 223.03H13.9394V230H6.9697V223.03ZM13.9394 223.03H20.9091V230H13.9394V223.03ZM20.9091 223.03H27.8788V230H20.9091V223.03ZM27.8788 223.03H34.8485V230H27.8788V223.03ZM34.8485 223.03H41.8182V230H34.8485V223.03ZM41.8182 223.03H48.7879V230H41.8182V223.03ZM83.6364 223.03H90.6061V230H83.6364V223.03ZM111.515 223.03H118.485V230H111.515V223.03ZM125.455 223.03H132.424V230H125.455V223.03ZM132.424 223.03H139.394V230H132.424V223.03ZM146.364 223.03H153.333V230H146.364V223.03ZM167.273 223.03H174.242V230H167.273V223.03ZM174.242 223.03H181.212V230H174.242V223.03ZM195.152 223.03H202.121V230H195.152V223.03ZM202.121 223.03H209.091V230H202.121V223.03ZM216.061 223.03H223.03V230H216.061V223.03Z" fill="#100730"/>
</svg>
