<svg width="132" height="45" viewBox="0 0 132 45" fill="none" xmlns="http://www.w3.org/2000/svg">
<path d="M52.4825 32.0806H56.5011L56.5089 16.3515L59.1462 16.3593L58.1415 12.5762L50.8421 12.584L49.8374 16.3515H52.4825V32.0806Z" fill="white"/>
<path d="M104.443 32.0806H108.462L108.47 16.3515L111.107 16.3593L110.102 12.5762L102.803 12.584L101.798 16.3515H104.443V32.0806Z" fill="white"/>
<path d="M68.3377 26.007C68.2749 25.8186 68.4476 25.7872 68.4476 25.7872C70.0802 25.7872 70.0959 24.5314 70.0959 24.5314C70.0959 24.5314 70.0802 16.2822 70.0802 14.6104C70.0802 13.7156 69.5308 13.2368 69.0127 12.9778C68.636 12.7895 68.22 12.7031 67.7962 12.7031L60.1514 12.711L60.1592 32.0741L63.9267 32.0663V25.7715H64.5546L66.4933 32.082L70.3863 32.0741C70.3941 32.082 68.3927 26.1875 68.3377 26.007ZM66.2892 22.4043C66.2892 22.5927 66.1401 22.7497 65.9438 22.7497H63.9345V15.9996H65.9438C66.1322 15.9996 66.2892 16.1488 66.2892 16.345V22.4043Z" fill="white"/>
<path d="M129.952 26.007C129.89 25.8186 130.062 25.7872 130.062 25.7872C131.695 25.7872 131.711 24.5314 131.711 24.5314C131.711 24.5314 131.695 16.2822 131.695 14.6104C131.695 13.7156 131.146 13.2368 130.627 12.9778C130.251 12.7895 129.835 12.7031 129.411 12.7031L121.766 12.711L121.774 32.0741L125.541 32.0663V25.7715H126.169L128.108 32.082L132.001 32.0741C132.009 32.082 130.007 26.1875 129.952 26.007ZM127.912 22.4043C127.912 22.5927 127.763 22.7497 127.566 22.7497H125.557V15.9996H127.566C127.755 15.9996 127.912 16.1488 127.912 16.345V22.4043Z" fill="white"/>
<path d="M78.762 12.7266H74.6413L71.1172 32.0662H74.9788L75.3556 29.5702H78.0085L78.4402 32.0348H82.2155L78.762 12.7266ZM75.748 26.5798L76.6663 19.7749L77.5847 26.5798H75.748Z" fill="white"/>
<path d="M83.4233 32.0663V12.7031L90.8484 12.711L91.4763 16.2037H87.3321V20.8816H90.4559V24.1468H87.3242V32.0741L83.4233 32.0663Z" fill="white"/>
<path d="M92.8662 32.0663V12.7031L100.291 12.711L100.911 16.2037H96.775V20.8816H99.8909V24.1468H96.7593V32.0741L92.8662 32.0663Z" fill="white"/>
<path d="M116.066 28.5735V24.1468H119.198V20.8816H116.074V16.2037H120.218L119.591 12.711L112.166 12.7031V28.4637V32.0663V32.0741H114.858H116.066L119.591 32.0663L120.218 28.5735H116.584H116.066Z" fill="white"/>
<path d="M18.9369 10.3955L15.0203 12.3891L14.6906 12.5539L10.4758 14.7045L10.1461 14.8694L1.28477 19.3903L0.962963 19.5551V19.924L0.947266 24.6569V25.0179L1.27692 24.8531L10.1383 20.34L10.1147 34.2325L10.1069 34.6014L10.099 39.3343V39.7032L10.0912 44.1692V44.5302L10.413 44.3654L14.6357 42.2148L14.9575 42.05V41.6889L14.9732 37.2229V36.854L14.981 32.1212V31.7523L15.0046 17.8598L18.9369 15.8583V10.3955Z" fill="#DFE15A"/>
<path d="M37.5689 25.4807L37.561 20.7557V20.3946L37.2392 20.5595L28.3935 25.0647L28.3622 11.1958L37.2078 6.69052L37.5296 6.52569V6.1568L37.5218 1.43178V1.07073L37.2 1.23556L28.3543 5.74081L28.3386 0.497765V0.136719L28.0168 0.301543L23.802 2.44428L23.4802 2.60911V2.97801L23.4959 8.22105L20.1758 9.90856V15.3714L23.5037 13.676L23.5272 27.545L23.5351 27.906L23.5429 32.6389V32.9999L23.8647 32.8351L28.0796 30.6845L28.4014 30.5197L37.2471 26.0144L37.5689 25.8496V25.4807Z" fill="#DFE15A"/>
</svg>
