<svg xmlns="http://www.w3.org/2000/svg" width="124" height="49" fill="none"><path fill="#ED3624" d="m32.816 4.407 4.879 26.284-17.47 14.558-17.47-14.558L7.632 4.407l12.67 9.68 12.513-9.68ZM34.468 0 31.32 2.44l-11.174 8.498L8.97 2.44 5.823 0l-.708 3.935L.236 30.219 0 31.635l1.102.944 17.47 14.559 1.574 1.338 1.574-1.338L39.19 32.5l1.102-.945-.237-1.416-4.879-26.284L34.468 0ZM16.92 25.497 7.476 23.53l6.768 5.823 2.675-3.856Zm15.897-1.889-9.444 1.968 2.676 3.856 6.768-5.824ZM51.23 21.875h2.44V11.802h3.147V9.52h-8.735v2.282h3.148v10.073ZM74.366 17.625h4.564l1.732 4.25h2.675L78.222 9.598V9.52h-3.069l-5.036 12.197-.079.158h2.676l1.652-4.25Zm1.731-4.407c.158-.472.315-.944.551-1.416.236.63.394 1.101.551 1.495l.866 2.282h-2.912l.944-2.282v-.079ZM92.23 14.556h-4.328v-2.754h4.485V9.52h-7.004v12.355h2.519v-5.037h4.328v-2.282ZM97.817 16.838h4.328v-2.282h-4.328v-2.754h4.485V9.52h-7.004v12.355h2.519v-5.037ZM107.811 9.52h-2.518v12.355h2.518V9.52ZM56.187 30.611l-2.046-.314c-1.102-.158-1.574-.551-1.574-1.18 0-.788.709-1.338 1.731-1.338 1.102 0 1.81.55 1.968 1.416v.079h2.675v-.158c-.236-2.125-1.967-3.384-4.564-3.384-2.675 0-4.328 1.338-4.328 3.542 0 1.81 1.18 2.911 3.384 3.226l2.203.315c1.18.157 1.732.63 1.732 1.495 0 1.18-.945 1.889-2.519 1.889-.944 0-1.81-.315-2.36-.866a3.198 3.198 0 0 1-.787-2.125v-.157h-2.755v.157c0 1.417.472 2.676 1.417 3.542 1.023 1.023 2.597 1.652 4.407 1.652 3.148 0 5.115-1.652 5.115-4.25.079-1.967-1.18-3.147-3.699-3.54ZM74.996 32.183c0-3.62-2.833-6.374-6.61-6.374-3.778 0-6.611 2.754-6.611 6.374 0 3.62 2.833 6.374 6.61 6.374 1.338 0 2.676-.393 3.778-1.023l2.124 2.125 1.574-1.653-2.046-2.046c.787-1.102 1.18-2.36 1.18-3.777Zm-4.565 3.62a4.591 4.591 0 0 1-2.046.472c-2.282 0-4.013-1.574-4.17-3.777v-.315c0-.787.157-1.495.55-2.125l5.666 5.745Zm2.125-3.699v.157c0 .787-.157 1.496-.55 2.047l-5.746-5.745a4.591 4.591 0 0 1 2.047-.472c2.44 0 4.17 1.652 4.25 4.013ZM85.147 33.678c0 1.574-.866 2.519-2.282 2.519s-2.282-.945-2.282-2.519v-7.633h-2.597v7.712c0 2.912 1.889 4.879 4.8 4.879 2.912 0 4.8-1.889 4.8-4.8v-7.712h-2.518v7.554h.08ZM97.502 25.969h-3.069l-5.036 12.197-.079.158h2.676l1.731-4.25h4.564l1.732 4.25h2.675l-5.115-12.277-.079-.078Zm-2.124 3.698c.157-.472.314-.944.55-1.416.158.472.315 1.023.551 1.495l.866 2.282h-2.912l.945-2.282v-.079ZM108.519 25.969h-3.777v12.355h3.777c3.777 0 6.453-2.518 6.453-6.138.079-3.62-2.597-6.217-6.453-6.217Zm3.935 6.217c0 2.282-1.574 3.856-3.856 3.856h-1.259V28.25h1.259c2.203.079 3.856 1.652 3.856 3.935ZM69.25 21.875l-4.564-5.194h.236a3.527 3.527 0 0 0 3.541-3.542c0-2.124-1.573-3.62-3.934-3.62h-5.194v12.356h2.44v-4.958l4.17 4.957h3.305Zm-5.115-7.083h-2.282v-3.226h2.282c1.102 0 1.81.63 1.81 1.652 0 .944-.708 1.574-1.81 1.574ZM123.943 15.66v-.158h-2.597v.157c0 1.18-.314 2.204-1.101 2.912-.709.708-1.732 1.102-2.833 1.102-2.361 0-4.092-1.653-4.092-4.092 0-2.361 1.652-4.014 4.013-4.014 1.417 0 2.676.63 3.227 1.732v.078h2.754l-.079-.157c-.708-2.361-3.148-3.935-5.981-3.935-3.856 0-6.689 2.676-6.689 6.374 0 3.699 2.833 6.375 6.768 6.375 1.967 0 3.699-.709 4.958-1.968 1.18-1.101 1.731-2.675 1.652-4.407Z"/></svg>
