<svg width="125" height="23" viewBox="0 0 125 23" fill="none" xmlns="http://www.w3.org/2000/svg">
<g clip-path="url(#clip0_444_3647)">
<path d="M48.356 0.333008V3.3946H46.4423C45.7302 3.3946 45.3742 3.8134 45.3742 4.4777V6.26845H48.3263V6.27031H48.5868V6.26845H51.0197V4.10223C51.0197 1.74827 52.5476 0.333008 55.1288 0.333008H58.5112V3.3946H56.5975C55.8854 3.3946 55.5294 3.8134 55.5294 4.4777V6.26845H58.4815V9.57555H55.5294V21.5042H51.0197V9.57555H45.3742V21.5042H40.8646V9.57555H38.4316V6.26845H40.8646V4.10223C40.8646 1.74827 42.3924 0.333008 44.9737 0.333008H48.356Z" fill="white"/>
<path d="M10.2359 21.4465C9.59795 21.6343 8.72274 21.7642 7.7733 21.7642C4.68773 21.7642 2.61088 20.5078 2.61088 17.0997V9.57568H0V6.26858H0.35603C2.29936 6.26858 3.2191 5.50318 3.32294 3.19255L3.39712 1.70508H7.10579V5.04105C7.10579 5.48874 6.88324 5.70536 6.42337 5.70536H5.5778C4.65806 5.70536 3.96083 6.36967 3.96083 7.22168C3.96083 8.11708 4.65806 8.79585 5.5778 8.79585C6.43821 8.79585 7.13545 8.11708 7.13545 7.22168V6.88956C7.13545 6.49964 7.37281 6.26858 7.80297 6.26858H10.4881V9.57568H7.10579V16.5365C7.10579 17.8795 7.86236 18.3128 9.00459 18.3128C9.43482 18.3128 9.85014 18.2695 10.2359 18.1828V21.4465Z" fill="white"/>
<path d="M16.623 9.04152C17.3202 7.16411 18.9668 6.00879 21.2069 6.00879C21.4887 6.00879 21.7854 6.03767 21.9931 6.081V10.3124C21.5925 10.2112 21.1772 10.1679 20.7322 10.1679C18.4031 10.1679 16.7862 11.5543 16.7862 14.3271V21.5044H12.2913V6.26874H16.623V9.04152Z" fill="white"/>
<path fill-rule="evenodd" clip-rule="evenodd" d="M36.94 11.6551C36.94 8.05917 34.5813 5.84961 30.1161 5.84961C25.8289 5.84961 23.0697 8.01585 22.951 11.0919H27.5942C27.6684 9.74883 28.6474 8.91118 30.2051 8.91118C31.7034 8.91118 32.4303 9.74883 32.4303 10.6586C32.4303 11.5973 31.8073 11.9583 30.2645 12.175L27.5497 12.5505C24.4641 12.9837 22.5356 14.3412 22.5356 17.3017C22.5356 20.1755 24.7311 21.9229 27.6536 21.9229C29.9678 21.9229 31.644 20.912 32.5638 19.5835C32.6231 20.3055 32.7418 20.9554 32.8753 21.5041H37.5482V21.0131C37.118 20.681 36.94 19.2224 36.94 18.0094V11.6551ZM33.439 14.7455C32.9347 14.7455 32.6231 14.991 32.5638 15.4387L32.5342 15.6698C32.3116 17.4316 31.2584 18.7169 29.315 18.7169C28.0837 18.7169 27.1492 18.0527 27.1492 16.9551C27.1492 15.8142 27.9651 15.251 29.4337 14.9621L31.3474 14.5867C32.015 14.4567 32.2671 14.1534 32.2671 13.5902V13.2003C32.2671 12.3194 32.9791 11.6695 33.8693 11.6695C34.7445 11.6695 35.4417 12.3194 35.4417 13.2003C35.4417 14.0957 34.7296 14.7455 33.8693 14.7455H33.439Z" fill="white"/>
<path d="M73.6652 15.6409C73.339 19.7712 70.4019 21.9229 66.3818 21.9229C61.8127 21.9229 58.8013 19.0636 58.8013 13.9512C58.8013 8.85343 61.9017 5.84961 66.4114 5.84961C70.491 5.84961 73.4131 7.98698 73.6652 12.1028H69.0668C68.9778 10.1532 67.9839 9.2 66.4708 9.2C64.6313 9.2 63.4297 10.673 63.4297 13.8646C63.4297 17.0706 64.572 18.5726 66.4559 18.5726C67.8949 18.5726 68.9333 17.6483 69.0668 15.6409H73.6652Z" fill="white"/>
<path fill-rule="evenodd" clip-rule="evenodd" d="M82.4858 21.9229C87.1581 21.9229 90.2294 18.8181 90.2294 13.8791C90.2294 8.94006 87.1581 5.84961 82.4858 5.84961C77.7979 5.84961 74.7273 8.94006 74.7273 13.8791C74.7273 18.8181 77.7979 21.9229 82.4858 21.9229ZM82.4858 18.5726C80.5423 18.5726 79.3551 16.9839 79.3551 13.8791C79.3551 10.7742 80.5423 9.2 82.4858 9.2C84.4286 9.2 85.6009 10.7597 85.6009 13.8791C85.6009 16.9984 84.4286 18.5726 82.4858 18.5726Z" fill="white"/>
<path d="M96.5128 9.04152C97.2099 7.16411 98.8568 6.00879 101.097 6.00879C101.379 6.00879 101.675 6.03767 101.883 6.081V10.3124C101.482 10.2112 101.067 10.1679 100.622 10.1679C98.2925 10.1679 96.676 11.5543 96.676 14.3271V21.5044H92.1809V6.26874H96.5128V9.04152Z" fill="white"/>
<path d="M107.054 13.5469C107.054 14.3845 107.677 14.9621 108.596 14.9621H117.794C117.809 14.5578 117.809 14.1246 117.809 13.6769C117.809 8.60793 114.708 5.84961 110.362 5.84961C105.867 5.84961 102.514 8.76681 102.514 13.8935C102.514 19.3091 105.689 21.9229 110.362 21.9229C114.575 21.9229 117.304 19.8578 117.734 16.4641H113.21C112.987 17.966 111.979 18.8036 110.451 18.8036C108.626 18.8036 107.41 17.6338 107.246 15.482C107.217 15.1066 107.024 14.9477 106.668 14.9477H106.341C105.451 14.9477 104.784 14.3701 104.784 13.5181C104.784 12.6515 105.451 12.0739 106.341 12.0739H106.623C107.039 12.0739 107.232 11.9294 107.306 11.5684C107.647 9.90765 108.789 8.92562 110.362 8.92562C112.053 8.92562 113.061 9.89321 113.21 12.1172H108.596C107.677 12.1172 107.054 12.6948 107.054 13.5469Z" fill="white"/>
<path fill-rule="evenodd" clip-rule="evenodd" d="M122.268 20.6783V19.5593H122.804L123.532 20.6783H123.905L123.134 19.5593C123.223 19.5437 123.305 19.5203 123.381 19.4891C123.461 19.4539 123.532 19.409 123.592 19.3543C123.652 19.2958 123.699 19.2254 123.73 19.1434C123.766 19.0614 123.785 18.9657 123.785 18.8563C123.785 18.6298 123.716 18.458 123.58 18.3408C123.447 18.2197 123.235 18.1592 122.942 18.1592H121.949V20.6783H122.268ZM122.689 19.2958H122.268V18.4228H122.852C122.932 18.4228 123.008 18.4287 123.081 18.4404C123.153 18.4521 123.217 18.4755 123.273 18.5107C123.333 18.5419 123.379 18.5849 123.411 18.6395C123.447 18.6943 123.465 18.7665 123.465 18.8563C123.465 18.9618 123.444 19.0458 123.399 19.1083C123.355 19.1668 123.297 19.2098 123.225 19.2371C123.153 19.2645 123.069 19.2821 122.972 19.2898C122.88 19.2938 122.785 19.2958 122.689 19.2958Z" fill="white"/>
<path fill-rule="evenodd" clip-rule="evenodd" d="M122.761 17.2393C122.444 17.2393 122.15 17.2959 121.877 17.4091C121.604 17.5185 121.367 17.6728 121.167 17.872C120.966 18.0673 120.807 18.2977 120.691 18.5633C120.579 18.8289 120.523 19.114 120.523 19.4186C120.523 19.7272 120.579 20.0143 120.691 20.2799C120.807 20.5415 120.966 20.77 121.167 20.9653C121.367 21.1606 121.604 21.3148 121.877 21.4281C122.15 21.5374 122.444 21.5922 122.761 21.5922C123.078 21.5922 123.373 21.5374 123.646 21.4281C123.919 21.3148 124.155 21.1606 124.356 20.9653C124.557 20.77 124.713 20.5415 124.826 20.2799C124.942 20.0143 125 19.7272 125 19.4186C125 19.114 124.942 18.8289 124.826 18.5633C124.713 18.2977 124.557 18.0673 124.356 17.872C124.155 17.6728 123.919 17.5185 123.646 17.4091C123.373 17.2959 123.078 17.2393 122.761 17.2393ZM122.761 17.5498C123.03 17.5498 123.279 17.5986 123.508 17.6962C123.74 17.7939 123.941 17.9267 124.11 18.0946C124.278 18.2625 124.41 18.4598 124.506 18.6863C124.603 18.9128 124.651 19.157 124.651 19.4186C124.651 19.6803 124.603 19.9244 124.506 20.151C124.41 20.3775 124.278 20.5747 124.11 20.7427C123.941 20.9106 123.74 21.0434 123.508 21.141C123.279 21.2387 123.03 21.2875 122.761 21.2875C122.489 21.2875 122.236 21.2387 122.003 21.141C121.774 21.0434 121.576 20.9106 121.408 20.7427C121.239 20.5747 121.107 20.3775 121.01 20.151C120.918 19.9244 120.872 19.6803 120.872 19.4186C120.872 19.157 120.918 18.9128 121.01 18.6863C121.107 18.4598 121.239 18.2625 121.408 18.0946C121.576 17.9267 121.774 17.7939 122.003 17.6962C122.236 17.5986 122.489 17.5498 122.761 17.5498Z" fill="white"/>
</g>
<defs>
<clipPath id="clip0_444_3647">
<rect width="125" height="22" fill="white" transform="translate(0 0.333008)"/>
</clipPath>
</defs>
</svg>
