<svg xmlns="http://www.w3.org/2000/svg" width="144" height="48" fill="none"><path fill="url(#a)" d="m20.691 6 1.504 36L25 40l-2.483-28.197L35.5 32.5l2.057-1.461-2.256-3.224-3.115-4.514-2.686-3.76-3.008-4.407L20.692 6Z"/><path fill="url(#b)" d="M26.492 39 24.5 17.5l9.5 16-7.508 5.5Z"/><path stroke="url(#c)" stroke-linejoin="round" stroke-width=".8" d="M18.113 35.767V9.224L6 31.039 22.195 42m0 0L20.691 6l5.801 9.134L29.5 19.54l2.686 3.762 3.115 4.513 2.256 3.224L35.5 32.5 22.517 11.803 25 40l-2.805 2ZM24.5 17.5 26.492 39 34 33.5l-9.5-16Z"/><path fill="#fff" d="M48.896 19.64h7.44v.752h-3.344V31h-.784V20.392h-3.312v-.752Zm12.738 0c.427 0 .848.064 1.264.192.427.117.811.31 1.152.576.352.256.635.587.848.992.214.405.32.89.32 1.456 0 .427-.064.843-.192 1.248a2.949 2.949 0 0 1-.624 1.072c-.288.32-.661.576-1.12.768-.458.192-1.024.288-1.696.288h-1.76V31h-.784V19.64h2.592Zm-.096 5.84c.566 0 1.035-.08 1.408-.24.374-.16.667-.368.88-.624.214-.256.363-.533.448-.832.096-.31.144-.608.144-.896 0-.341-.064-.661-.192-.96a2.17 2.17 0 0 0-.528-.784 2.415 2.415 0 0 0-.848-.544 2.828 2.828 0 0 0-1.104-.208h-1.92v5.088h1.712Zm1.632.352L66.322 31h-.912l-3.168-5.152.928-.016Zm5.997-6.192h.784V31h-.784V19.64ZM72.582 31l4.8-11.856h.064L82.246 31h-.88L77.19 20.392l.544-.304L73.366 31h-.784Zm2.32-4.496h5.04l.224.736H74.71l.192-.736Zm19.472 4.768-8.96-10.096.209-.16.015 9.984h-.767V19.4h.047l8.96 10.176-.207.064-.017-10h.752v11.632h-.032Zm12.229-1.072c-.192.128-.427.25-.704.368a8.233 8.233 0 0 1-.864.288 7 7 0 0 1-.96.192c-.32.053-.624.08-.912.08-.896 0-1.707-.144-2.432-.432a5.647 5.647 0 0 1-1.84-1.216 5.535 5.535 0 0 1-1.184-1.808 6.186 6.186 0 0 1-.4-2.24c0-.864.15-1.659.448-2.384.31-.725.73-1.35 1.264-1.872a5.593 5.593 0 0 1 1.856-1.232 5.856 5.856 0 0 1 2.24-.432c.597 0 1.157.075 1.68.224.533.15 1.013.352 1.44.608l-.288.704a4.309 4.309 0 0 0-.832-.384 5.86 5.86 0 0 0-.96-.272 4.884 4.884 0 0 0-.96-.096c-.726 0-1.398.128-2.016.384a4.911 4.911 0 0 0-1.616 1.072 4.919 4.919 0 0 0-1.072 1.616 5.221 5.221 0 0 0-.384 2.016c0 .704.117 1.36.352 1.968a5.057 5.057 0 0 0 1.024 1.584c.448.448.981.8 1.6 1.056.618.245 1.306.368 2.064.368a6.63 6.63 0 0 0 1.408-.16c.49-.107.912-.261 1.264-.464v-3.152h-2.56v-.752h3.344V30.2Zm3.283-10.56h.784v10.608h6.224V31h-7.008V19.64Zm9.641 0h7.008v.752h-6.224v4.512h5.6v.752h-5.6v4.592h6.448V31h-7.232V19.64Zm15.899 1.28a7.797 7.797 0 0 0-1.216-.448 5.165 5.165 0 0 0-1.44-.208c-.747 0-1.344.187-1.792.56-.448.373-.672.843-.672 1.408 0 .427.128.784.384 1.072.256.277.592.517 1.008.72.416.192.858.379 1.328.56.373.139.741.293 1.104.464.373.17.709.379 1.008.624a2.6 2.6 0 0 1 .704.912c.181.363.272.81.272 1.344 0 .63-.15 1.19-.448 1.68-.299.48-.715.853-1.248 1.12-.534.267-1.152.4-1.856.4-.566 0-1.083-.07-1.552-.208a7.217 7.217 0 0 1-1.216-.48 18.61 18.61 0 0 1-.816-.48l.368-.64c.234.17.517.341.848.512.341.17.709.315 1.104.432.394.117.789.176 1.184.176.458 0 .901-.09 1.328-.272a2.559 2.559 0 0 0 1.072-.816c.288-.373.432-.843.432-1.408 0-.544-.134-.981-.4-1.312a3.037 3.037 0 0 0-1.024-.832 11.616 11.616 0 0 0-1.328-.576 44.694 44.694 0 0 1-1.088-.432 5.532 5.532 0 0 1-.992-.56 2.694 2.694 0 0 1-.72-.8c-.171-.31-.256-.683-.256-1.12 0-.544.138-1.019.416-1.424.277-.405.65-.72 1.12-.944.48-.235 1.024-.357 1.632-.368.533 0 1.072.07 1.616.208a6.484 6.484 0 0 1 1.44.528l-.304.608Z"/><defs><linearGradient id="a" x1="33.045" x2="23.479" y1="15.887" y2="42.75" gradientUnits="userSpaceOnUse"><stop stop-color="#FF3BE1"/><stop offset=".382" stop-color="#FB3CFF"/><stop offset=".721" stop-color="#A142F7"/><stop offset=".991" stop-color="#7B0FE7"/></linearGradient><linearGradient id="b" x1="33.045" x2="23.479" y1="15.887" y2="42.75" gradientUnits="userSpaceOnUse"><stop stop-color="#FF3BE1"/><stop offset=".382" stop-color="#FB3CFF"/><stop offset=".721" stop-color="#A142F7"/><stop offset=".991" stop-color="#7B0FE7"/></linearGradient><linearGradient id="c" x1="42.607" x2="2.197" y1="26.096" y2="35.243" gradientUnits="userSpaceOnUse"><stop offset=".032" stop-color="#D008D9"/><stop offset=".309" stop-color="#FF00D9"/><stop offset=".568" stop-color="#9751EF"/><stop offset="1" stop-color="#FF0DA8"/></linearGradient></defs></svg>
