<svg xmlns="http://www.w3.org/2000/svg" width="138" height="18" fill="none"><path fill="#EF4F2A" d="M124.968 17.552h6.303V4.947h5.964V0h-18.366v4.947h6.099v12.605ZM6.1 17.619h6.302V5.014h5.964V.066H0v4.948h6.1v12.605ZM20.602 17.619h6.302v-7.184l5.693 7.184h7.387l-5.218-6.1c3.05-.27 5.015-2.44 5.015-5.557 0-3.591-2.643-5.896-6.777-5.896H20.602V17.62Zm6.302-9.081V4.47h3.728c1.762 0 2.643.678 2.643 1.966 0 1.355-.949 2.1-2.846 2.1h-3.524ZM42.22 17.62h6.303V0h-6.302v17.62ZM50.76 17.619h9.08c7.93 0 11.59-4.066 11.59-8.878 0-5.015-3.592-8.675-10.844-8.675h-9.759V17.62h-.067Zm6.235-4.473V4.54h3.05c3.184 0 4.608 1.762 4.608 4.202 0 2.71-1.695 4.473-4.948 4.473h-2.71v-.068ZM73.666 17.62h16.332v-4.473H79.9v-2.372h9.488V6.641H79.9V4.473h10.03V0H73.666v17.62ZM111.075 17.619h-6.303L97.859.066h6.303l6.913 17.553Z"/><path fill="#EF4F2A" d="M92.303 17.619h6.235V.066h-6.235V17.62ZM110.329 17.619h6.303V.066h-6.303V17.62Z"/></svg>
