<svg width="1100" height="330" viewBox="0 0 1100 330" fill="none" xmlns="http://www.w3.org/2000/svg">
<path fill-rule="evenodd" clip-rule="evenodd" d="M131.258 5L133.217 5.66128C134.311 6.01736 135.482 6.4243 135.838 6.60234C136.194 6.78037 137.034 7.26362 137.696 7.67056C138.586 8.25553 138.891 8.58618 138.891 9.06942C138.891 9.5781 132.708 15.8857 108.789 39.7936C84.8943 63.6759 78.5832 69.8562 78.0746 69.8562C77.5654 69.8562 71.2549 63.6759 47.3352 39.7681C27.792 20.2349 17.2572 9.52723 17.2572 9.19659C17.2318 8.91682 17.4352 8.50988 17.6897 8.28097C17.9443 8.0775 19.1147 7.41622 20.311 6.83124C21.5068 6.24626 23.1098 5.61041 23.8735 5.40694C25.0693 5.10174 32.9321 5.05087 131.258 5ZM14.5852 11.8671C14.967 11.8671 24.1022 20.8453 45.2231 41.9554C69.1174 65.8378 75.3007 72.1454 75.3007 72.654C75.3007 73.1627 69.1174 79.4702 45.1977 103.378C21.3034 127.261 14.9924 133.441 14.4837 133.441C14 133.441 13.6693 133.136 13.0841 132.246C12.6515 131.585 12.1931 130.745 12.0151 130.389C11.8371 130.033 11.4299 128.863 10.4121 125.811V72.654C10.4121 25.0419 10.4628 19.3701 10.8193 18.2765C11.0227 17.6152 11.4299 16.5979 11.7098 16.0129C11.9644 15.4025 12.1931 14.8683 12.1931 14.792C12.1931 14.7157 12.6003 14.029 13.1095 13.266C13.7454 12.2995 14.2038 11.8671 14.5852 11.8671ZM141.716 11.8671C142.123 11.8671 142.531 12.1215 142.861 12.5539C143.141 12.9608 143.752 14.0036 144.185 14.9192C144.617 15.8348 145.101 16.9285 145.253 17.3354C145.431 17.7678 145.686 18.7852 145.838 19.6245C146.042 20.7181 146.169 35.3935 146.22 72.1454C146.296 109.228 146.246 123.547 146.042 124.666C145.864 125.506 145.457 127.159 145.075 128.354C144.719 129.55 143.981 131.177 143.446 131.991C142.658 133.161 142.353 133.441 141.767 133.441C141.182 133.441 136.347 128.711 110.977 103.353C85.6321 78.0462 80.8992 73.188 80.9499 72.654C81.0006 72.1961 89.042 63.9812 111.053 41.9554C134.744 18.2002 141.207 11.8671 141.716 11.8671ZM78.4818 75.8331C79.067 75.9351 85.8355 82.5479 109.094 105.794C134.235 130.923 138.917 135.705 138.917 136.315C138.917 136.875 138.637 137.18 137.441 137.968C136.653 138.503 135.253 139.164 134.337 139.469C133.421 139.774 131.818 140.207 130.774 140.41C129.095 140.766 123.039 140.817 78.0999 140.817C33.5939 140.817 27.1049 140.766 25.4253 140.435C24.3821 140.207 23.161 139.927 22.7538 139.774C22.3212 139.621 21.1503 139.062 20.1072 138.553C19.064 138.045 18.0462 137.409 17.8424 137.129C17.639 136.798 17.5624 136.341 17.6644 135.858C17.7917 135.272 24.8147 128.1 47.0041 105.871C63.0609 89.8221 76.5223 76.4437 76.9549 76.1896C77.4635 75.859 77.9726 75.7317 78.4818 75.8331ZM254.317 175.941C310.834 175.916 312.895 175.941 314.625 176.399C315.592 176.653 317.043 177.085 317.806 177.34C318.57 177.594 319.867 178.23 320.656 178.765C321.852 179.553 322.132 179.858 322.132 180.443C322.132 181.028 316.89 186.369 288.619 214.626C261.951 241.281 254.953 248.148 254.444 248.148C253.935 248.148 246.938 241.281 220.269 214.626C193.805 188.175 186.757 181.002 186.757 180.494C186.757 180.138 187.011 179.604 187.316 179.299C187.647 179.019 188.334 178.535 188.843 178.23C189.377 177.925 189.912 177.696 190.065 177.696C190.192 177.696 190.802 177.467 191.388 177.187C191.999 176.907 193.22 176.526 194.136 176.348C195.51 176.043 205.332 175.967 254.317 175.941ZM183.907 183.292C184.492 183.292 190.039 188.735 218.183 216.864C245.36 244.027 251.747 250.539 251.696 251.022C251.645 251.378 239.278 263.917 218.107 285.103C189.836 313.361 184.492 318.6 183.881 318.6C183.423 318.6 183.041 318.371 182.736 317.888C182.482 317.506 181.922 316.463 181.489 315.548C181.057 314.632 180.573 313.589 180.42 313.183C180.268 312.801 179.988 311.656 179.81 310.639C179.58 309.215 179.504 296.091 179.504 250.946C179.504 209.031 179.58 192.626 179.784 191.43C179.962 190.515 180.344 188.963 180.675 187.997C181.005 187.005 181.693 185.555 182.227 184.741C183.016 183.572 183.347 183.292 183.907 183.292ZM324.982 183.292C325.466 183.292 325.847 183.52 326.153 183.978C326.407 184.385 326.967 185.428 327.4 186.343C327.858 187.259 328.392 188.531 328.595 189.192C328.952 190.286 329.003 196.848 329.003 310.969L328.341 312.928C327.985 314.022 327.578 315.192 327.4 315.548C327.221 315.904 326.763 316.743 326.331 317.404C325.745 318.295 325.415 318.6 324.931 318.6C324.422 318.6 317.45 311.758 290.782 285.103C269.61 263.917 257.243 251.378 257.193 251.022C257.142 250.539 263.529 244.027 290.706 216.864C319.053 188.531 324.397 183.292 324.982 183.292ZM254.444 253.591C254.75 253.616 267.804 266.46 288.542 287.189C313.251 311.885 322.132 320.914 322.132 321.321C322.132 321.711 321.767 322.169 321.038 322.695C320.453 323.127 319.613 323.636 319.206 323.814C318.773 324.017 317.552 324.45 314.498 325.467H194.391L192.406 324.806C191.337 324.45 190.166 324.043 189.81 323.865C189.454 323.687 188.614 323.229 187.952 322.797C187.113 322.262 186.731 321.855 186.705 321.397C186.629 320.863 191.871 315.548 220.295 287.164C242.892 264.604 254.113 253.591 254.444 253.591Z" fill="#027AFF"/>
<path fill-rule="evenodd" clip-rule="evenodd" d="M250.798 8.58445C251.383 8.55902 252.401 8.73706 253.063 8.96596C253.75 9.19487 254.768 9.70354 255.353 10.1105C255.964 10.5174 256.905 11.5348 257.465 12.3741C258.025 13.2134 258.483 13.951 258.483 14.0273C258.483 14.1036 258.788 14.6377 259.195 15.2481C259.577 15.8331 260.162 16.9013 260.519 17.5881C260.849 18.3002 261.435 19.3175 261.791 19.8771C262.147 20.4367 262.605 21.2251 262.809 21.6575C263.012 22.0898 263.47 22.8783 263.827 23.4379C264.183 23.9974 264.768 25.0402 265.099 25.7269C265.43 26.4391 266.015 27.4564 266.371 28.0159C266.727 28.5755 267.185 29.3639 267.389 29.7963C267.593 30.2287 268.05 31.0171 268.407 31.5767C268.763 32.1363 269.221 32.9247 269.425 33.357C269.629 33.7894 270.087 34.5779 270.443 35.1374C270.799 35.697 271.257 36.4854 271.46 36.9178C271.664 37.3502 272.122 38.1386 272.479 38.6982C272.835 39.2577 273.42 40.3005 273.751 40.9872C274.082 41.6994 274.692 42.7422 275.074 43.3526C275.456 43.9376 275.787 44.4717 275.787 44.548C275.787 44.6243 276.117 45.1584 276.499 45.7688C276.881 46.3538 277.491 47.422 277.822 48.1087C278.153 48.8208 278.738 49.8382 279.094 50.3978C279.451 50.9573 279.909 51.7458 280.112 52.1781C280.316 52.6105 280.672 53.2209 280.901 53.577C281.13 53.9331 281.817 55.1282 282.402 56.2474C283.013 57.3666 283.701 58.5873 283.955 58.9945C284.235 59.3759 284.438 59.7319 284.438 59.8084C284.438 59.8845 284.769 60.4185 285.151 61.0291C285.532 61.6143 286.143 62.6823 286.474 63.3689C286.805 64.0814 287.39 65.0987 287.746 65.6581C288.103 66.2174 288.561 67.006 288.764 67.4386C288.968 67.8453 289.451 68.6846 289.833 69.2951C290.291 69.9564 290.546 70.7196 290.546 71.3297C290.571 72.2456 290.469 72.347 287.67 74.4328C286.067 75.6281 282.962 77.9172 280.749 79.5197L279.276 80.5982C277.369 81.9958 275.276 83.5297 274.132 84.3521C272.707 85.3947 269.272 87.9126 266.499 89.9476C263.725 91.9822 261.002 93.9914 260.417 94.4494L260.312 94.5264C259.67 95.0008 258.286 96.024 257.083 96.8653C255.811 97.7304 254.106 99.0018 253.267 99.6631C252.096 100.604 251.536 100.884 250.849 100.884C250.187 100.884 249.5 100.528 248.152 99.5358C247.159 98.8238 244.996 97.2471 243.368 96.0514C241.713 94.8561 238.736 92.6942 236.751 91.219C235.704 90.4503 234.394 89.4947 233.148 88.5868C232.004 87.753 230.915 86.9589 230.135 86.3867C228.481 85.1914 225.046 82.6989 222.527 80.8169C219.982 78.9345 216.801 76.5946 215.453 75.6027C214.129 74.6108 212.501 73.4155 211.839 72.9829C211.076 72.4489 210.643 71.9656 210.643 71.635C210.643 71.3551 210.847 70.8211 211.101 70.4397C211.356 70.0325 211.712 69.3712 211.916 68.9645C212.119 68.5578 212.578 67.7439 212.934 67.184C213.29 66.6246 213.748 65.8361 213.951 65.404C214.155 64.9714 214.613 64.1829 214.969 63.6235C215.326 63.0636 215.911 62.0464 216.242 61.3344C216.573 60.6477 217.158 59.6051 217.514 59.0452C217.87 58.4859 218.328 57.6973 218.532 57.2647C218.736 56.8326 219.193 56.0441 219.549 55.4847C219.906 54.9249 220.364 54.1365 220.568 53.7042C220.771 53.2718 221.229 52.4833 221.585 51.9238C221.941 51.3643 222.399 50.5758 222.603 50.1434C222.807 49.711 223.265 48.9226 223.621 48.3631C223.978 47.8035 224.563 46.7862 224.893 46.074C225.224 45.3873 225.809 44.3445 226.166 43.785C226.522 43.2254 226.98 42.4369 227.184 42.0046C227.387 41.5722 227.845 40.7837 228.201 40.2242C228.558 39.6647 229.016 38.8762 229.219 38.4438C229.423 38.0115 229.881 37.223 230.237 36.6635C230.593 36.1039 231.051 35.3154 231.255 34.8831C231.459 34.4507 231.916 33.6623 232.273 33.1027C232.629 32.5432 233.215 31.5258 233.545 30.8137C233.876 30.1269 234.487 29.0587 234.868 28.4738C235.25 27.8634 235.581 27.3293 235.581 27.2529C235.581 27.1766 235.912 26.6425 236.293 26.0575C236.675 25.4471 237.286 24.4043 237.616 23.6922C237.948 23.0055 238.533 21.9627 238.889 21.4031C239.245 20.8436 239.703 20.0552 239.907 19.6227C240.11 19.1904 240.568 18.4019 240.925 17.8424C241.281 17.2828 241.739 16.4944 241.943 16.062C242.146 15.6551 242.604 14.8412 242.96 14.2816C243.317 13.7221 243.775 12.9337 243.978 12.5267C244.182 12.1198 244.945 11.2804 245.658 10.6192C246.498 9.85615 247.413 9.2966 248.33 9.01683C249.093 8.78793 250.187 8.58445 250.773 8.58445H250.798ZM209.244 74.6874C209.524 74.6615 211.432 75.8826 213.519 77.4086C214.856 78.394 216.62 79.6863 218.135 80.7961C218.928 81.3763 219.652 81.9068 220.211 82.3175C220.971 82.8664 221.909 83.5501 222.84 84.2298C223.937 85.0293 225.026 85.8233 225.809 86.3867C226.383 86.8063 227.134 87.3542 227.933 87.9364L227.959 87.9553L227.968 87.9623L227.985 87.9742L227.995 87.9817C229.163 88.8334 230.426 89.7542 231.382 90.4563C232.854 91.5198 235.736 93.631 238.164 95.4095L239.041 96.0514C241.586 97.9338 244.615 100.146 245.76 100.96C247.388 102.105 247.821 102.537 247.821 103.046C247.821 103.504 247.515 103.911 246.727 104.445L246.34 104.729L245.741 105.169C245.003 105.71 244.037 106.418 243.164 107.065C241.765 108.082 239.016 110.091 237.006 111.566C235.958 112.335 234.648 113.291 233.403 114.198L233.394 114.204L233.385 114.211L233.372 114.221C232.239 115.047 231.163 115.831 230.39 116.399C228.736 117.594 225.301 120.112 222.756 121.994C220.186 123.876 216.751 126.394 215.122 127.59C213.468 128.785 210.491 130.947 208.481 132.422C207.144 133.415 205.358 134.72 203.836 135.831C203.098 136.37 202.422 136.864 201.89 137.254C200.236 138.45 197.462 140.51 192.475 144.249H186.978C181.634 144.249 181.456 144.223 180.285 143.613C179.599 143.257 178.682 142.57 178.25 142.087C177.792 141.604 177.105 140.51 176.698 139.671C175.985 138.272 175.934 137.916 175.934 135.474C175.934 132.803 175.934 132.778 177.079 130.514C177.69 129.243 178.504 127.768 178.86 127.208C179.217 126.649 179.675 125.835 179.878 125.428C180.082 125.021 180.54 124.207 180.897 123.647C181.253 123.088 181.71 122.274 181.914 121.867C182.118 121.46 182.576 120.646 182.932 120.086C183.288 119.527 183.747 118.713 183.95 118.306C184.154 117.899 184.612 117.085 184.968 116.526C185.324 115.966 185.909 114.949 186.24 114.237C186.571 113.55 187.156 112.507 187.512 111.948C187.869 111.388 188.327 110.574 188.53 110.168C188.734 109.76 189.192 108.946 189.548 108.387C189.904 107.827 190.362 107.014 190.566 106.607C190.77 106.2 191.228 105.386 191.584 104.826C191.94 104.267 192.525 103.249 192.856 102.537C193.187 101.85 193.798 100.782 194.179 100.197C194.561 99.587 194.892 99.053 194.892 98.9764C194.892 98.9004 195.223 98.3659 195.604 97.7812C195.986 97.1706 196.597 96.1279 196.927 95.4159C197.259 94.7288 197.844 93.6861 198.2 93.1268C198.556 92.5669 199.014 91.7535 199.218 91.3463C199.421 90.9396 199.879 90.1256 200.236 89.5658C200.592 89.0064 201.05 88.1925 201.254 87.7858C201.457 87.3786 201.915 86.5647 202.271 86.0053C202.628 85.4454 203.086 84.632 203.289 84.2248C203.493 83.8181 203.951 83.0041 204.307 82.4443C204.664 81.8849 205.121 81.071 205.325 80.6643C205.529 80.2571 205.987 79.4431 206.343 78.8838C206.699 78.3239 207.284 77.3066 207.615 76.5946C207.946 75.908 208.328 75.1701 208.455 75.018C208.582 74.8395 208.939 74.6874 209.244 74.6874ZM292.199 74.9414C292.836 74.9414 293.116 75.1448 293.599 75.908C293.955 76.4166 294.566 77.4846 294.973 78.2479C295.38 79.0111 295.914 79.9264 296.144 80.2824C296.373 80.6384 296.856 81.5036 297.187 82.1902C297.518 82.9022 298.103 83.9195 298.459 84.4794C298.816 85.0387 299.274 85.8526 299.477 86.2594C299.681 86.6666 300.139 87.4805 300.495 88.0399C300.851 88.5992 301.309 89.4131 301.513 89.8204C301.716 90.2271 302.174 91.041 302.531 91.6009C302.887 92.1602 303.345 92.9741 303.549 93.3809C303.752 93.7881 304.21 94.602 304.566 95.1614C304.923 95.7207 305.381 96.5346 305.584 96.9419C305.788 97.3486 306.246 98.1625 306.602 98.7224C306.958 99.2817 307.544 100.324 307.874 101.011C308.205 101.724 308.791 102.741 309.147 103.3C309.503 103.86 309.961 104.673 310.165 105.081C310.368 105.487 310.826 106.301 311.183 106.861C311.539 107.421 311.997 108.234 312.201 108.641C312.404 109.048 312.862 109.862 313.218 110.422C313.575 110.981 314.033 111.795 314.236 112.202C314.44 112.609 314.898 113.423 315.254 113.983C315.61 114.542 316.068 115.356 316.272 115.763C316.475 116.17 316.933 116.984 317.29 117.543C317.646 118.103 318.231 119.146 318.562 119.832C318.893 120.544 319.478 121.562 319.835 122.121C320.191 122.681 320.649 123.495 320.852 123.902C321.056 124.309 321.514 125.123 321.87 125.682C322.226 126.242 322.685 127.056 322.888 127.462C323.091 127.869 323.55 128.683 323.906 129.243C324.262 129.802 324.695 130.54 324.847 130.896C325.025 131.252 325.331 132.066 325.535 132.753C325.763 133.414 325.941 134.609 325.941 135.423C325.941 136.212 325.763 137.509 325.509 138.272C325.28 139.035 324.669 140.306 324.16 141.07C323.651 141.833 322.888 142.697 322.481 142.977C322.074 143.257 321.158 143.689 320.471 143.918C319.478 144.249 318.206 144.351 314.541 144.351C311.997 144.376 309.656 144.274 309.325 144.147C309.02 144.02 307.086 142.672 305.05 141.171C303.014 139.646 300.495 137.788 299.452 137.051C298.408 136.339 296.983 135.296 296.296 134.787C295.908 134.496 294.984 133.813 293.84 132.967C292.884 132.26 291.775 131.441 290.698 130.642C288.332 128.887 285.507 126.827 284.464 126.089C283.421 125.351 282.072 124.385 281.512 123.953C280.927 123.495 279.12 122.172 277.466 120.977C276.934 120.587 276.259 120.093 275.522 119.555C274 118.443 272.212 117.138 270.875 116.145C269.829 115.377 268.522 114.424 267.279 113.517L267.272 113.512C266.128 112.678 265.039 111.884 264.259 111.312L262.998 110.402C261.5 109.322 259.763 108.07 258.687 107.268C258.112 106.848 257.48 106.39 256.882 105.957C255.995 105.316 255.183 104.728 254.742 104.394C253.495 103.478 253.445 103.402 253.775 102.868C253.953 102.537 254.564 101.927 255.124 101.52C255.291 101.398 255.611 101.163 256.036 100.85L256.047 100.842L256.052 100.838L256.056 100.835C257.054 100.101 258.62 98.9481 260.162 97.8319C261.094 97.1576 262.076 96.4427 262.964 95.7953C264.187 94.9043 265.234 94.1416 265.735 93.7881C266.423 93.3023 267.643 92.3989 268.753 91.5755L269.577 90.9649C270.399 90.3444 272.007 89.1601 273.707 87.9076C274.585 87.2607 275.489 86.595 276.321 85.9799C278.764 84.1487 281.334 82.2916 282.046 81.8084L282.144 81.7402C282.863 81.2341 284.231 80.2725 285.227 79.5197C286.168 78.7858 287.75 77.6179 288.91 76.7612L289.273 76.4927C290.8 75.3994 291.64 74.9414 292.199 74.9414ZM251.23 105.259C251.663 105.386 253.114 106.301 254.462 107.319C255.501 108.103 257.19 109.339 258.655 110.413L258.659 110.416L259.882 111.312C261.537 112.507 264.514 114.669 266.524 116.145C268.175 117.372 270.408 119.004 271.932 120.118L272.759 120.722C274.209 121.765 276.779 123.622 278.459 124.868C280.163 126.089 282.275 127.64 283.191 128.352C284.107 129.04 286.092 130.514 287.644 131.633C289.084 132.713 291.315 134.334 292.739 135.369L292.988 135.55C293.893 136.224 295.212 137.185 296.444 138.083C297.118 138.574 297.767 139.046 298.307 139.442C299.808 140.536 301.538 141.807 302.124 142.239C302.861 142.773 303.167 143.181 303.167 144.249L251.002 144.3C222.298 144.351 198.582 144.325 198.251 144.249C197.946 144.173 197.691 143.969 197.691 143.817C197.666 143.639 198.276 143.079 199.014 142.57C199.752 142.061 202.271 140.23 204.612 138.501C206.928 136.771 210.186 134.381 211.839 133.185C212.612 132.618 213.688 131.833 214.821 131.007L214.834 130.998L214.844 130.991L214.852 130.985C216.097 130.077 217.408 129.122 218.456 128.352C219.792 127.36 221.578 126.055 223.1 124.944L224.026 124.266C224.402 123.992 224.747 123.74 225.046 123.52C226.7 122.325 230.135 119.807 232.68 117.924L233.542 117.294C235.973 115.513 238.864 113.395 240.34 112.329C241.111 111.763 242.064 111.066 242.998 110.383C244.036 109.625 245.05 108.884 245.76 108.362C247.108 107.37 248.711 106.225 249.322 105.793C250.263 105.131 250.543 105.055 251.23 105.259ZM56.0527 179.476C56.7135 179.27 57.4887 179.035 58.1872 178.823L58.1962 178.82C57.4951 179.033 56.7155 179.269 56.0527 179.476Z" fill="#FEE000"/>
<path d="M133.578 199.57C134.315 199.57 134.697 199.799 135.791 200.893C136.53 201.631 137.395 202.648 137.751 203.131C138.107 203.614 138.921 204.759 139.558 205.675C140.193 206.59 141.059 207.786 141.492 208.345C141.898 208.904 142.535 209.871 142.891 210.507C143.247 211.143 144.036 212.516 144.647 213.559C145.258 214.602 145.945 215.873 146.199 216.357C146.39 216.759 146.844 217.776 147.299 218.795L147.573 219.409C147.854 220.036 148.155 220.727 148.415 221.323L148.42 221.334L148.462 221.43C148.677 221.922 148.86 222.34 148.973 222.588C149.202 223.147 149.965 225.309 150.678 227.42C151.365 229.506 152.153 232.202 152.408 233.397C152.662 234.593 153.12 236.882 153.4 238.484C153.68 240.087 154.011 242.197 154.113 243.189C154.215 244.156 154.291 247.539 154.291 250.693C154.291 253.846 154.164 257.687 154.011 259.213C153.858 260.739 153.553 262.697 153.324 263.537C153.095 264.376 152.917 265.292 152.917 265.571C152.917 265.851 152.637 267.174 152.306 268.496C151.975 269.819 151.187 272.464 150.55 274.346C149.914 276.228 149.202 278.237 148.973 278.797C148.734 279.322 148.249 280.473 147.854 281.412L147.777 281.595C147.344 282.561 146.606 284.189 146.148 285.156C145.665 286.122 144.876 287.572 144.392 288.335C143.909 289.097 143.298 290.141 143.043 290.624C142.764 291.107 142.051 292.251 141.44 293.167C140.83 294.082 140.041 295.202 139.685 295.66C139.328 296.118 138.463 297.211 137.725 298.076L137.445 298.405L137.437 298.413L136.826 299.13C136.297 299.748 135.771 300.363 135.435 300.747C134.646 301.637 134.315 301.84 133.578 301.815C132.738 301.815 131.211 300.339 107.546 276.686C84.5674 253.719 82.4299 251.506 82.3792 250.693C82.3026 249.828 83.0151 249.09 107.495 224.699C131.287 200.969 132.738 199.57 133.578 199.57Z" fill="#04BB2D"/>
<path d="M25.3957 199.066C25.9302 199.066 30.7397 203.746 51.4534 224.449C75.4237 248.408 76.8234 249.858 76.8234 250.697C76.8234 251.537 75.5003 252.885 51.4534 276.792C37.4828 290.654 25.8283 302.074 25.5484 302.175C25.167 302.303 24.7598 302.048 23.8693 301.133C23.2329 300.446 21.8586 298.818 20.7901 297.496C19.7469 296.173 17.8635 293.528 16.617 291.646C15.37 289.763 13.5125 286.559 12.5454 284.524C11.553 282.489 10.484 280.251 10.204 279.565L10.0146 279.085C9.7317 278.374 9.35979 277.44 9.13555 276.767C8.83026 275.928 8.42305 274.783 8.24505 274.224C8.04119 273.664 7.53255 272.062 7.12533 270.663C6.69276 269.264 6.33627 267.84 6.33627 267.484C6.33627 267.128 6.15827 266.212 5.95491 265.449C5.7257 264.686 5.44577 263.236 5.31848 262.269C5.16584 261.277 4.93663 258.658 4.78399 256.42C4.6567 254.182 4.60598 250.112 4.68255 247.391C4.75862 244.669 4.93662 241.745 5.06391 240.905C5.19119 240.066 5.5477 237.955 5.85298 236.2C6.20898 234.293 7.09998 230.961 8.14312 227.806C9.08483 224.933 10.0514 222.135 10.2806 221.575C10.5352 221.016 11.4257 219.134 12.2908 217.379C13.1306 215.624 14.403 213.233 15.1155 212.038C15.828 210.842 16.973 209.011 17.6602 207.968C18.3473 206.925 19.3144 205.577 19.7977 204.993C20.3063 204.407 21.0446 203.467 21.4772 202.881C21.8844 202.297 22.8003 201.203 23.4874 200.44C24.3779 199.448 24.9124 199.066 25.3957 199.066Z" fill="#04BB2D"/>
<path d="M89.5545 176.374C88.6387 176.221 84.3383 176.068 80.0121 176.043C75.6611 175.992 71.844 176.043 71.4875 176.17C71.1315 176.272 70.3171 176.374 69.63 176.399C68.9687 176.424 67.4925 176.628 66.322 176.908C65.177 177.162 63.5486 177.493 62.7088 177.645C61.869 177.823 60.3675 178.179 59.4004 178.459C59.0807 178.558 58.6864 178.677 58.2613 178.806L58.2563 178.807L58.231 178.815L58.2126 178.821L58.2076 178.822L58.1987 178.825C57.5001 179.037 56.7249 179.272 56.0642 179.478C55.8956 179.531 55.734 179.581 55.5834 179.629C54.4641 179.985 53.0645 180.494 52.4539 180.774C51.8682 181.028 51.3084 181.257 51.1816 181.257C51.0796 181.257 50.0619 181.715 48.8909 182.274C47.7459 182.834 46.6774 183.292 46.5501 183.292C46.3974 183.292 45.5323 183.698 44.5652 184.182C43.6235 184.69 42.2244 185.479 41.4607 185.962C40.6975 186.445 39.6538 187.056 39.1705 187.31C38.6872 187.59 37.7709 188.175 37.135 188.607C36.4985 189.04 35.4808 189.803 34.8448 190.286C34.2084 190.795 33.394 191.38 33.038 191.634C32.6815 191.863 31.8929 192.473 31.3077 192.956C30.7225 193.44 29.7301 194.304 29.0936 194.864C28.3051 195.576 27.9486 196.085 27.9739 196.517C27.9739 197.026 33.4452 202.622 53.3444 222.511C77.366 246.52 78.791 247.894 79.6308 247.894C80.4706 247.894 81.8956 246.52 105.637 222.79C129.378 199.061 130.778 197.611 130.778 196.771C130.778 196.009 130.549 195.652 129.328 194.457C128.513 193.694 127.572 192.855 127.216 192.626C126.86 192.372 126.07 191.786 125.435 191.303C124.798 190.82 123.017 189.574 121.49 188.557C119.938 187.513 117.877 186.242 116.91 185.708C115.943 185.174 114.035 184.182 112.711 183.495C111.388 182.808 110.217 182.274 110.09 182.274C109.988 182.274 109.2 181.944 108.309 181.537C107.444 181.13 105.688 180.443 104.441 180.011C103.169 179.604 101.006 178.968 99.6061 178.586C98.2065 178.23 95.7383 177.645 94.1353 177.289C92.5318 176.933 90.4709 176.526 89.5545 176.374Z" fill="#04BB2D"/>
<path d="M79.5945 253.484C80.4855 253.484 81.554 254.528 105.652 278.613C129.368 302.318 130.768 303.767 130.768 304.607C130.768 305.37 130.539 305.726 129.317 306.921C128.503 307.684 127.562 308.524 127.205 308.752C126.849 309.007 126.06 309.592 125.424 310.075C124.788 310.558 122.675 312.034 120.716 313.356C118.757 314.653 115.525 316.561 113.515 317.553C111.53 318.544 109.418 319.536 108.807 319.765C108.392 319.928 107.159 320.345 105.733 320.829L104.806 321.143L103.921 321.444C101.81 322.131 99.1884 322.97 98.0687 323.301C96.949 323.657 94.6081 324.165 92.8525 324.445C92.0261 324.577 91.1212 324.725 90.3073 324.859C89.3909 325.009 88.5894 325.141 88.1449 325.208C87.3052 325.335 83.5135 325.463 79.7471 325.463C75.9559 325.463 72.0623 325.361 71.0957 325.208C70.1033 325.081 68.0419 324.776 66.5149 324.547C64.9632 324.318 63.0797 323.911 62.3165 323.682C61.5533 323.428 60.1024 323.021 59.1359 322.792C58.1434 322.563 56.3873 322.029 55.1915 321.648C53.9952 321.266 52.5702 320.732 52.0104 320.503C51.4913 320.267 50.3592 319.79 49.4264 319.398L49.4085 319.39L49.3996 319.387L49.2116 319.308C48.2192 318.875 46.6923 318.188 45.7764 317.756C44.8601 317.298 43.4097 316.51 42.5192 316.001C41.6541 315.467 40.8904 315.035 40.8143 315.035C40.7377 315.035 39.618 314.323 38.3203 313.458C37.0479 312.593 34.5544 310.787 32.7983 309.414C31.0427 308.066 29.2358 306.565 28.7779 306.082C28.32 305.624 27.9635 305.065 28.0147 304.835C28.0654 304.607 39.4654 292.958 53.3847 278.944C77.6608 254.502 78.704 253.484 79.5945 253.484Z" fill="#04BB2D"/>
<path d="M454.714 197.59C453.47 197.086 452.344 196.936 449.291 196.878C447.158 196.82 445.054 196.849 444.551 196.936C444.047 197.023 442.654 197.561 441.439 198.122C439.987 198.8 438.594 199.749 437.498 200.814C436.312 201.972 435.394 203.216 434.683 204.722L433.586 206.944C433.438 256.513 433.438 257.017 434.031 258.765C434.357 259.744 435.068 261.191 435.601 261.995C436.135 262.794 437.201 264.033 438.031 264.774C438.831 265.486 440.313 266.464 441.291 266.91C442.269 267.385 443.661 267.975 444.402 268.212C445.232 268.508 446.773 268.687 448.551 268.687C450.833 268.687 451.751 268.537 453.441 267.917C454.596 267.5 456.167 266.817 456.967 266.377C457.737 265.932 459.1 264.838 459.96 263.946C460.789 263.061 461.916 261.521 462.39 260.542C462.923 259.506 463.427 257.845 463.634 256.635C463.841 255.182 463.96 247.188 463.96 232.502C463.96 219.054 463.841 209.7 463.634 208.426C463.456 207.182 462.953 205.584 462.39 204.455C461.856 203.419 460.848 201.943 460.108 201.173C459.367 200.432 458.211 199.454 457.5 199.008C456.819 198.562 455.544 197.943 454.714 197.59Z" fill="white"/>
<path d="M846.405 61.5861C844.272 61.3487 840.894 61.0825 838.849 61.0234C836.804 60.9638 833.397 61.0234 831.293 61.1415C829.159 61.2602 826.107 61.5566 824.477 61.8228C822.847 62.0891 820.981 62.4446 820.329 62.5928C819.677 62.7409 818.195 63.0964 817.069 63.4217C815.913 63.7476 813.246 64.6952 811.142 65.5537C809.008 66.3832 805.956 67.8339 804.327 68.752C802.697 69.6701 800.089 71.3575 798.548 72.5419C797.007 73.6967 794.192 76.2438 792.325 78.1685C790.162 80.3891 788.088 82.906 786.725 84.9495C785.539 86.726 783.909 89.5393 783.139 91.1677C782.339 92.7961 781.183 95.7281 780.531 97.6824C779.88 99.6367 779.109 102.42 778.812 103.901C778.368 106.062 778.25 107.898 778.25 113.524C778.25 119.032 778.368 121.046 778.783 123.148C779.079 124.628 779.731 126.998 780.205 128.478C780.709 129.959 781.895 132.742 782.872 134.697C783.82 136.651 785.509 139.523 786.606 141.063C787.732 142.603 790.073 145.327 791.881 147.133C793.659 148.939 796.207 151.22 797.511 152.226C798.815 153.203 801.334 154.981 803.141 156.135C804.919 157.32 808.801 159.452 811.735 160.902C814.668 162.354 820.743 165.048 825.218 166.944C829.692 168.809 835.293 171.148 837.664 172.155C840.035 173.162 843.413 174.702 845.22 175.62C846.998 176.508 849.813 178.137 851.443 179.202C853.073 180.298 855.532 182.252 856.895 183.556C858.259 184.859 860.007 186.786 860.807 187.851C861.578 188.916 862.704 190.722 863.267 191.845C863.83 192.974 864.63 194.925 865.045 196.14C865.459 197.356 865.934 199.307 866.082 200.436C866.26 201.559 866.408 204.285 866.408 206.444C866.408 208.574 866.26 211.33 866.082 212.517C865.904 213.669 865.578 215.33 865.371 216.129C865.163 216.957 864.571 218.676 864.037 219.978C863.534 221.281 862.615 223.145 862.052 224.123C861.459 225.101 860.422 226.641 859.741 227.527C859.029 228.418 857.547 230.045 856.451 231.11C855.325 232.175 853.607 233.599 852.629 234.248C851.651 234.902 850.05 235.851 849.072 236.326C848.094 236.824 846.079 237.628 844.627 238.132C843.146 238.635 840.923 239.168 839.649 239.342C838.405 239.521 835.59 239.672 833.426 239.672C831.293 239.672 828.3 239.492 826.848 239.255C825.366 239.018 823.055 238.427 821.662 237.923C820.269 237.391 818.135 236.442 816.921 235.787C815.706 235.11 813.957 234.016 813.068 233.304C812.18 232.621 810.579 231.139 809.512 230.016C808.446 228.893 807.023 227.116 806.312 226.051C805.601 224.98 804.445 222.907 803.734 221.46C803.023 220.007 802.104 217.726 801.66 216.424C801.215 215.122 800.415 213.287 799.911 212.308C799.407 211.359 798.252 209.883 797.363 209.02C796.444 208.135 794.844 207.035 793.659 206.473C791.673 205.495 791.436 205.466 788.177 205.466C785.835 205.466 784.087 205.645 782.546 206.033C781.331 206.328 779.554 207.006 778.576 207.509C777.627 208.013 776.086 209.229 775.138 210.207C774.071 211.301 773.034 212.783 772.442 214.056C771.493 216.042 771.434 216.274 771.434 219.683V223.237C773.923 229.426 775.109 232.175 775.671 233.304C776.235 234.427 777.39 236.499 778.25 237.894C779.109 239.284 780.65 241.536 781.657 242.925C782.694 244.32 785.539 247.486 787.998 250.005C790.458 252.494 793.481 255.301 794.696 256.222C795.911 257.171 797.718 258.445 798.696 259.064C799.674 259.689 801.808 260.87 803.438 261.669C805.068 262.502 807.853 263.683 809.66 264.309C811.438 264.957 814.254 265.785 815.884 266.173C817.513 266.526 819.854 267.029 821.069 267.267C822.61 267.533 826.047 267.654 832.33 267.654C839.56 267.654 841.99 267.533 844.48 267.116C846.198 266.85 848.45 266.41 849.517 266.144C850.584 265.877 853.25 265.078 855.444 264.366C857.636 263.625 861.163 262.201 863.296 261.165C865.4 260.129 868.334 258.473 869.815 257.524C871.267 256.546 873.49 254.948 874.705 253.97C875.92 252.992 878.32 250.745 880.039 248.968C881.758 247.191 884.099 244.407 885.255 242.78C886.41 241.148 887.981 238.751 888.722 237.449C889.462 236.146 890.737 233.541 891.537 231.672C892.336 229.808 893.404 227.052 893.878 225.605C894.381 224.152 895.063 221.663 895.389 220.123C895.744 218.583 896.248 215.712 896.485 213.761C896.752 211.718 896.959 207.839 896.959 204.58C896.989 201.472 896.9 197.946 896.781 196.731C896.663 195.521 896.396 193.506 896.16 192.291C895.922 191.075 895.478 189.124 895.152 187.996C894.856 186.872 894.53 185.658 894.411 185.332C894.292 185.006 893.67 183.466 893.048 181.927C892.396 180.387 891.329 178.077 890.618 176.834C889.936 175.56 888.514 173.31 887.447 171.8C886.351 170.201 883.802 167.299 881.372 164.871C879.061 162.561 875.772 159.659 873.965 158.297C872.157 156.994 869.164 154.981 867.297 153.826C865.43 152.7 861.874 150.776 859.444 149.562C856.984 148.347 853.873 146.867 852.48 146.304C851.087 145.742 848.42 144.646 846.554 143.876C844.687 143.106 839.679 141.093 835.441 139.375C831.204 137.658 826.522 135.644 825.069 134.934C823.588 134.193 821.454 132.979 820.329 132.239C819.173 131.528 817.01 129.692 815.498 128.212C813.987 126.731 812.239 124.777 811.646 123.889C811.083 123 810.194 121.312 809.69 120.187C808.801 118.144 808.801 118.055 808.801 112.932C808.801 108.016 808.86 107.632 809.601 105.529C810.046 104.315 810.905 102.449 811.498 101.384C812.12 100.317 813.631 98.3927 814.876 97.0902C816.21 95.698 818.017 94.2178 819.202 93.5365C820.299 92.8557 822.077 91.9376 823.144 91.4641C824.21 91.0195 826.077 90.3683 827.292 90.0719C828.507 89.7761 830.967 89.3911 832.774 89.2134C834.552 89.0357 837.368 89.0062 838.997 89.0948C840.627 89.2134 842.968 89.4797 844.183 89.687C845.398 89.8942 847.532 90.4864 848.924 90.99C850.317 91.5231 852.303 92.4111 853.369 93.0033C854.436 93.566 856.036 94.6028 856.925 95.2835C857.814 95.9354 859.622 97.5637 860.926 98.8668C862.506 100.446 863.988 101.601 865.371 102.331C866.822 103.072 868.097 103.486 869.668 103.723C871.179 103.93 872.542 103.93 873.965 103.723C875.327 103.516 876.75 103.072 878.113 102.331C879.298 101.71 880.958 100.495 881.995 99.459C883.002 98.4523 884.128 96.9715 884.543 96.0534C884.988 95.1654 885.462 93.8329 885.64 93.0925C885.817 92.3521 885.966 90.9015 885.966 89.8352C885.966 88.7689 885.817 87.3182 885.64 86.5778C885.462 85.8374 884.988 84.5049 884.573 83.6169C884.01 82.4325 882.647 80.8331 879.565 77.6944C877.253 75.3257 874.231 72.6015 872.897 71.6243C871.534 70.6472 869.164 69.1369 867.593 68.308C866.052 67.4489 863.118 66.0868 861.074 65.2874C859.029 64.488 855.77 63.4217 853.814 62.9186C851.858 62.4446 848.51 61.8524 846.405 61.5861Z" fill="white"/>
<path d="M399.247 67.4239C397.825 66.8907 396.758 66.713 394.061 66.6244C392.194 66.5648 389.972 66.6244 389.172 66.772C388.342 66.9202 386.86 67.4534 385.823 67.9564C384.816 68.4305 383.245 69.5559 382.326 70.4143C381.408 71.2439 380.341 72.4873 379.956 73.1385C379.571 73.7903 378.978 75.0633 378.622 75.9518C378.148 77.1953 378 78.232 378 80.3936C378 82.4665 378.148 83.5913 378.563 84.6871C378.889 85.516 381.675 90.639 384.786 96.0874C387.897 101.536 392.431 109.62 394.861 114.002C397.291 118.385 401.795 126.587 404.877 132.214C407.929 137.84 412.108 145.479 414.152 149.24C416.197 153.001 419.368 158.745 421.235 162.062C423.072 165.349 425.68 169.879 427.013 172.13C428.317 174.351 430.451 177.726 431.725 179.592C433.117 181.665 434.984 183.945 436.496 185.396C438.185 187.051 439.666 188.18 441.177 188.95L443.4 190.102C452.379 190.102 453.06 190.015 454.661 189.425C455.639 189.037 456.972 188.417 457.624 188.03C458.276 187.647 459.965 186.166 461.358 184.715C462.751 183.293 464.707 180.924 465.684 179.444C466.662 177.963 468.855 174.439 470.574 171.597C472.292 168.754 475.7 162.891 478.13 158.568C480.56 154.245 485.331 145.657 488.739 139.468C492.117 133.28 497.895 122.738 501.57 116.075C505.244 109.413 510.253 100.322 512.682 95.9398C515.142 91.5572 517.601 86.9968 518.194 85.8714C519.202 83.8581 519.231 83.7099 519.231 80.3936C519.231 77.1362 519.172 76.8994 518.194 74.9156C517.601 73.7012 516.446 72.0433 515.379 70.9179C514.045 69.4962 512.949 68.6968 511.23 67.8383L508.889 66.6835C500.385 66.6244 499.851 66.6835 498.221 67.3347C497.243 67.7492 495.732 68.5492 494.843 69.1119C493.954 69.7041 492.798 70.7107 492.265 71.3619C491.732 72.0137 489.924 74.9452 488.205 77.8766C486.516 80.808 483.316 86.3455 481.123 90.1655C478.9 93.9849 470.87 107.932 463.254 121.109C455.668 134.286 449.238 145.302 449.001 145.539C448.586 145.924 448.497 145.924 448.112 145.391C447.875 145.065 445.771 141.541 443.489 137.544C441.177 133.546 438.155 128.305 436.733 125.847C435.31 123.419 431.577 116.934 428.435 111.486C425.294 106.037 421.294 99.108 419.546 96.0874C417.797 93.0674 414.034 86.5528 411.159 81.5779C408.285 76.6031 405.44 71.9541 404.818 71.2433C404.196 70.533 403.099 69.5264 402.358 69.0523C401.618 68.5492 400.225 67.8088 399.247 67.4239Z" fill="white"/>
<path d="M1017.39 77.2569C1015.82 76.5166 1014.75 76.2798 1012.94 76.1611C1011.64 76.072 1010.04 76.1021 1009.39 76.2202C1008.73 76.3684 1007.61 76.6943 1006.87 76.9605C1006.13 77.2274 1004.88 77.8786 1004.08 78.4118C1003.29 78.9443 1002.1 79.9516 1001.44 80.6914C1000.8 81.4318 999.429 83.7415 998.421 85.8735C997.397 87.9817 988.868 106.103 979.337 126.35L979.013 127.034C969.355 147.554 961.145 164.877 960.757 165.528C960.375 166.18 959.9 167.246 959.663 167.897C959.425 168.549 958.151 171.421 956.789 174.264C955.455 177.106 953.381 181.519 952.196 184.036L949.759 189.207C946.714 195.673 941.373 207.013 935.809 218.828C927.986 235.441 921.348 249.832 921.081 250.81C920.696 252.113 920.607 253.236 920.696 254.955C920.784 256.437 921.11 258.006 921.555 259.1C921.911 260.078 922.83 261.676 923.57 262.625C924.311 263.604 925.733 264.935 926.711 265.612C927.689 266.266 929.29 267.065 930.267 267.36C931.719 267.806 932.786 267.893 936.223 267.806C940.313 267.69 940.402 267.656 942.595 266.591C944.165 265.821 945.291 264.993 946.565 263.633C947.543 262.596 948.699 261.028 949.144 260.136C949.558 259.25 952.403 252.97 955.455 246.22C958.505 239.47 962.836 229.873 965.088 224.9C967.34 219.928 970.716 212.431 972.615 208.257C974.508 204.055 977.589 197.184 979.488 193.01L979.98 191.916C981.931 187.597 984.948 180.905 987.015 176.337C989.267 171.362 995.463 157.652 1000.8 145.837C1006.13 134.022 1010.55 124.31 1010.6 124.22C1010.69 124.132 1010.93 124.28 1011.14 124.517C1011.37 124.754 1024.85 155.549 1041.09 192.917C1057.36 230.289 1071.02 261.41 1071.47 262.064C1071.92 262.712 1072.8 263.719 1073.43 264.281C1074.07 264.877 1075.17 265.705 1075.92 266.116C1076.66 266.533 1077.99 267.123 1078.87 267.389C1080.21 267.806 1081.31 267.893 1084.8 267.777C1088.92 267.69 1089.19 267.627 1091.17 266.683C1092.45 266.087 1093.93 265.051 1094.97 264.044C1096.15 262.892 1097.04 261.647 1097.79 260.136C1098.76 258.093 1098.88 257.647 1098.97 254.805C1099.06 252.437 1098.97 251.343 1098.58 250.22C1098.29 249.415 1094.91 241.687 1091.03 233.045C1087.17 224.396 1080.89 210.417 1077.1 201.948C1073.3 193.485 1067.62 180.749 1064.45 173.671C1061.27 166.595 1055.29 153.27 1051.17 144.06C1047.05 134.851 1041.39 122.207 1038.58 115.929C1035.76 109.652 1031.47 100.058 1029.03 94.6093C1026.6 89.1603 1024.18 83.9192 1023.67 82.942C1023.14 81.9944 1021.98 80.5438 1021.09 79.6847C1020.17 78.8262 1018.57 77.7895 1017.39 77.2569Z" fill="white"/>
<path fill-rule="evenodd" clip-rule="evenodd" d="M641.928 61.0575C644.21 61.1166 648.211 61.3828 650.818 61.6202C653.426 61.8569 657.219 62.3901 659.263 62.8046C661.308 63.2191 664.834 64.0185 667.116 64.6107C669.398 65.1733 672.183 65.9432 673.339 66.3282C674.465 66.7131 677.132 67.6902 679.266 68.5493C681.37 69.3782 685.044 71.0361 687.415 72.2211C689.786 73.4055 692.63 74.9453 693.786 75.6556C694.912 76.3664 697.194 77.8177 698.823 78.9129C700.453 80.0087 703.179 82.0221 704.898 83.3842C706.617 84.7462 709.669 87.4409 711.684 89.4253C713.699 91.3795 716.515 94.311 717.907 95.9399C719.3 97.5683 721.463 100.263 722.678 101.921C723.893 103.609 725.79 106.393 726.916 108.14C728.012 109.916 729.909 113.262 731.094 115.631C732.309 118 733.731 121.05 734.324 122.442L734.4 122.628C734.963 124.023 735.797 126.081 736.25 127.328C736.754 128.631 737.317 130.289 737.495 131.029C737.673 131.769 738.087 133.102 738.384 133.99C738.68 134.878 739.184 136.744 739.51 138.136C739.801 139.277 740.113 140.697 740.314 141.612C740.358 141.813 740.396 141.989 740.428 142.134C740.606 142.962 740.992 145.272 741.318 147.316C741.644 149.358 742.058 152.883 742.236 155.162C742.384 157.442 742.532 161.647 742.532 164.49C742.532 167.333 742.384 171.537 742.236 173.818C742.058 176.098 741.732 179.236 741.466 180.776C741.228 182.316 740.814 184.655 740.576 185.958C740.34 187.26 739.865 189.454 739.539 190.843C739.184 192.238 738.68 194.102 738.384 194.988C738.087 195.879 737.673 197.211 737.495 197.952C737.317 198.692 736.754 200.348 736.25 201.651C735.746 202.953 734.739 205.413 734.028 207.132C733.316 208.846 731.805 211.954 730.709 214.091C729.612 216.221 727.864 219.329 726.797 220.991C725.76 222.675 723.686 225.668 722.204 227.654C720.722 229.633 718.381 232.539 716.989 234.079C715.596 235.619 713.047 238.253 711.329 239.937C709.58 241.599 706.736 244.088 704.957 245.477C703.209 246.901 700.661 248.794 699.268 249.743C697.875 250.687 695.475 252.227 693.934 253.176C692.393 254.126 689.193 255.839 686.822 257.026C684.451 258.183 681.458 259.573 680.154 260.076C679.699 260.25 679.167 260.458 678.622 260.667C677.609 261.055 676.552 261.466 675.858 261.732C675.665 261.801 675.459 261.877 675.247 261.958C674.289 262.305 673.205 262.693 672.598 262.89C671.871 263.15 669.227 263.839 666.662 264.511L666.523 264.545C663.916 265.199 660.656 265.94 659.263 266.178C657.871 266.444 655.263 266.855 653.485 267.121C651.411 267.422 646.966 267.654 641.187 267.746C633.868 267.891 631.171 267.804 626.963 267.388C624.119 267.121 619.644 266.444 617.036 265.911C614.429 265.379 610.962 264.574 609.332 264.134C607.702 263.717 604.828 262.832 602.96 262.207C601.094 261.587 597.953 260.372 595.997 259.544C594.041 258.716 590.782 257.147 588.736 256.076C586.692 255.04 583.818 253.413 582.366 252.493C580.884 251.578 578.573 250.039 577.18 249.06C575.787 248.053 573.387 246.247 571.846 245.002C570.305 243.758 566.69 240.354 563.845 237.454C560.971 234.519 557.77 231.028 556.703 229.633C555.637 228.244 554.007 226.05 553.118 224.748C552.199 223.445 550.688 221.106 549.769 219.567C548.821 218.027 547.102 214.831 545.917 212.458C544.732 210.09 543.339 207.104 542.805 205.795C542.302 204.493 541.146 201.297 540.287 198.692C539.427 196.088 538.509 193.153 538.242 192.174C538.005 191.202 537.501 189.066 537.146 187.439C536.82 185.81 536.345 183.293 536.109 181.813C535.871 180.332 535.486 176.779 535.249 173.907C535.012 171.005 534.805 166.681 534.805 164.283C534.805 161.855 535.012 157.62 535.249 154.866C535.486 152.113 535.842 148.826 535.99 147.611C536.168 146.398 536.435 144.858 536.583 144.206C536.761 143.555 537.234 141.423 537.649 139.468C538.064 137.514 539.19 133.576 540.139 130.733C541.087 127.89 542.272 124.544 542.746 123.33C543.221 122.116 544.228 119.836 544.969 118.296C545.71 116.756 547.014 114.21 547.873 112.67C548.732 111.13 550.273 108.525 551.34 106.896C552.377 105.267 554.392 102.395 555.785 100.529C557.237 98.6045 560.586 94.8146 563.548 91.8235C566.394 88.9216 570.186 85.339 571.994 83.8582C573.772 82.407 576.439 80.3642 577.921 79.3575C579.373 78.3502 581.921 76.7219 583.551 75.7447C585.181 74.7676 587.966 73.2278 589.774 72.3097C591.552 71.4211 594.426 70.0885 596.145 69.3487C597.864 68.6379 600.857 67.483 602.812 66.8318C604.768 66.18 607.702 65.2625 609.332 64.8474C610.962 64.4034 614.162 63.663 616.444 63.1895C618.726 62.7154 622.252 62.0937 624.296 61.8569C626.341 61.5907 630.194 61.2943 632.89 61.1756C635.586 61.0575 639.646 61.028 641.928 61.0575ZM621.778 90.7874C622.578 90.6097 624.593 90.2542 626.223 89.988C627.853 89.7211 630.579 89.3958 632.297 89.2771C634.016 89.1289 637.927 89.0994 641.039 89.1584C644.387 89.2476 648.299 89.5434 650.67 89.8988C652.863 90.2247 656.27 90.9055 658.226 91.4091C660.182 91.8826 662.701 92.5934 663.857 92.9784C664.983 93.3633 667.383 94.2814 669.19 95.0513C670.969 95.7917 673.784 97.1538 675.414 98.0719C677.043 98.9599 679.443 100.441 680.747 101.299C682.051 102.158 684.185 103.728 685.489 104.764C686.792 105.83 689.163 107.992 690.793 109.59C692.393 111.219 694.586 113.588 695.623 114.891C696.66 116.194 698.409 118.592 699.505 120.221C700.572 121.85 702.232 124.663 703.179 126.44C704.098 128.216 705.55 131.414 706.41 133.546C707.239 135.678 708.188 138.343 708.514 139.468C708.84 140.594 709.432 142.874 709.818 144.502C710.203 146.131 710.706 148.648 710.973 150.128C711.21 151.609 711.566 154.185 711.714 155.903C711.862 157.62 711.981 161.47 711.981 164.49C711.981 167.51 711.862 171.36 711.714 173.077C711.566 174.795 711.21 177.371 710.973 178.852C710.706 180.332 710.203 182.849 709.818 184.478C709.432 186.107 708.84 188.388 708.514 189.512C708.188 190.635 707.269 193.245 706.469 195.289C705.639 197.332 704.454 200.053 703.802 201.355C703.15 202.658 701.846 204.996 700.898 206.536C699.95 208.076 698.261 210.623 697.105 212.163C695.949 213.703 693.578 216.429 691.86 218.206C690.141 219.983 687.533 222.438 686.081 223.654C684.6 224.898 681.933 226.855 680.154 228.036C678.347 229.222 675.414 230.907 673.635 231.827C671.828 232.713 668.983 234.015 667.265 234.698C665.546 235.382 663.738 236.059 663.264 236.209C662.76 236.36 661.367 236.742 660.153 237.066C658.937 237.396 656.389 237.986 654.522 238.369C652.655 238.756 649.366 239.231 647.262 239.439C644.803 239.642 640.861 239.735 636.298 239.613C632.09 239.526 627.971 239.26 626.223 238.994C624.593 238.727 621.985 238.224 620.444 237.9C618.903 237.541 616.296 236.829 614.666 236.296C613.036 235.764 610.636 234.907 609.332 234.374C608.028 233.871 605.301 232.568 603.257 231.503C601.212 230.467 598.338 228.777 596.886 227.798C595.404 226.82 593.271 225.251 592.145 224.337C590.989 223.445 588.826 221.494 587.285 220.012C585.774 218.559 583.432 216.012 582.129 214.386C580.825 212.759 578.869 210.091 577.772 208.464C576.706 206.837 575.017 203.902 574.009 201.946C573.001 199.995 571.638 197.002 570.957 195.289C570.275 193.569 569.535 191.642 569.327 190.993C569.09 190.339 568.438 187.885 567.875 185.514C567.282 183.145 566.601 179.888 566.364 178.259C566.127 176.631 565.771 172.84 565.594 169.82C565.327 165.704 565.327 163.009 565.594 159.012C565.771 156.08 566.127 152.349 566.364 150.721C566.601 149.092 567.282 145.835 567.875 143.466C568.438 141.097 569.09 138.639 569.327 137.988C569.535 137.336 570.275 135.412 570.957 133.694C571.638 131.977 572.913 129.193 573.742 127.476C574.602 125.758 576.024 123.241 576.884 121.85C577.743 120.458 579.373 118.059 580.558 116.52C581.714 114.98 584.055 112.255 585.774 110.479C587.492 108.702 590.218 106.185 591.848 104.882C593.478 103.579 595.997 101.714 597.478 100.767C598.931 99.819 601.687 98.2491 603.553 97.302C605.42 96.3243 608.028 95.1104 609.332 94.6074C610.636 94.1037 613.036 93.2152 614.666 92.6826C616.296 92.1495 618.221 91.5868 618.962 91.4091C619.703 91.2314 620.948 90.9356 621.778 90.7874Z" fill="white"/>
</svg>
