<svg xmlns="http://www.w3.org/2000/svg" width="142" height="19" fill="none"><path fill="#FF57C6" d="M9.425 9.49a6.89 6.89 0 0 0-.045-.488l-.022-.156a3.622 3.622 0 0 1-.941-.292l.043.251c.024.16.047.315.063.469a2 2 0 0 1 .015.186c.298.061.59.126.873.196a.627.627 0 0 1 .02-.078c0-.028-.002-.057-.004-.088h-.002Z"/><path fill="#9F72FF" d="M9.714 11.318c-.01.053-.019.108-.03.161.03-.047.052-.098.077-.145l-.047-.014v-.002ZM8.358.823ZM3.462 9.07a.652.652 0 0 1 .11-.014c-.036.002-.073.008-.11.014Zm0 0a.652.652 0 0 1 .11-.014c-.036.002-.073.008-.11.014Zm0 0a.652.652 0 0 1 .11-.014c-.036.002-.073.008-.11.014Z"/><path fill="#10E6D9" d="M18.91 5.1a3.62 3.62 0 0 1-.425.557c-.215-.2-.44-.382-.685-.546.14-.151.26-.307.36-.47.317-.516.397-1.045.241-1.616-.331-1.223-2.114-1.552-5.08-1.71-.48-.024-.936-.036-1.365-.036-1.146 0-2.11.09-2.886.27a7.38 7.38 0 0 0-.611.174c-.025-.051-.051-.098-.076-.146-.022-.047-.051-.09-.08-.134a2.833 2.833 0 0 0-.378-.467 5.947 5.947 0 0 1 .667-.219 9.662 9.662 0 0 1 1.573-.28 17.358 17.358 0 0 1 1.752-.081c.456 0 .938.014 1.452.04 2.91.154 5.361.438 5.883 2.358.219.808.102 1.585-.341 2.309v-.002Z"/><path fill="#9F72FF" d="M16.702 5.219s0 .002-.002.002c.08.035.161.073.239.11a5.18 5.18 0 0 0-.237-.112Zm0 0s0 .002-.002.002c.08.035.161.073.239.11a5.18 5.18 0 0 0-.237-.112Zm0 0s0 .002-.002.002c.08.035.161.073.239.11a5.18 5.18 0 0 0-.237-.112ZM11.23 8.81c-.076.217-.216.688-.216.688s-.11.407-.159.613c-.252-.1-.52-.192-.796-.276l-.042-.012c.012-.051.024-.102.04-.154.01-.043.02-.088.033-.13.029-.109.058-.217.09-.326.029-.102.058-.206.09-.306.342-.009.667-.047.957-.096h.002Z"/><path fill="#FFA800" d="M9.168 16.756c-.896.287-1.7.434-2.03.49-.708.116-1.322.17-1.857.17-.32 0-.614-.02-.884-.056a4.563 4.563 0 0 1-.738-.166 3.347 3.347 0 0 1-.501-.206c-.078-.041-.151-.084-.225-.127-.07-.045-.141-.09-.207-.141a3.58 3.58 0 0 1-.376-.323 2.83 2.83 0 0 1-.165-.182 2.994 2.994 0 0 1-.16-.195 5.416 5.416 0 0 1-.423-.652c-.861-1.534-.96-3.074-.26-4.125a2.58 2.58 0 0 1 .687-.695 11.782 11.782 0 0 1-.515-.72 3.675 3.675 0 0 0-.585.516 3.105 3.105 0 0 0-.32.41c-.885 1.334-.803 3.22.226 5.047.961 1.712 2.31 2.495 4.452 2.495.599 0 1.257-.061 1.991-.182.495-.08 1.362-.251 2.299-.564a4.238 4.238 0 0 1-.411-.794h.002Zm4.485-3.266c0 1.435-.906 2.444-2.057 3.149-.21-.2-.36-.458-.462-.748.926-.569 1.638-1.35 1.638-2.401 0-.935-.47-1.659-1.513-2.223a5.676 5.676 0 0 0-.59-.28 8.557 8.557 0 0 0-.707-.254l-.133-.043-.613-.167a19.199 19.199 0 0 0-1.336-.285 35.152 35.152 0 0 0-2.235-.323 8.39 8.39 0 0 0-1.374-.047 5.08 5.08 0 0 0-.775.096 7.27 7.27 0 0 1-.282-.34c-.055-.069-.106-.138-.151-.198-.019-.024-.058-.08-.097-.132-.018-.025-.034-.052-.047-.068l-.02-.03c.145-.042.296-.076.454-.107.035-.004.07-.012.108-.018a.652.652 0 0 1 .11-.015 6.83 6.83 0 0 1 1.087-.08c.35 0 .711.023 1.09.066.732.086 1.453.182 2.149.303a19.771 19.771 0 0 1 1.513.315l.61.167.042.013c.276.085.544.175.796.276.204.08.4.165.587.257 1.347.665 2.21 1.636 2.21 3.119l-.002-.002Z"/><path fill="#9F72FF" d="M3.66 17.192Zm0 0Zm0 0Zm0 0Zm0 0Zm0 0Zm0 0Zm0 0Zm0 0Zm0 0Zm0 0Zm0 0Zm0 0Zm0 0Zm0 0Zm0 0Zm0 0Zm0 0Zm0 0Zm0 0Zm0 0Zm0 0Zm0 0Zm0 0Zm0 0Zm0 0Z"/><path fill="#FF57C6" d="M9.144 11.157a5.443 5.443 0 0 1-.133.227c-.392.577-1.036.93-1.969 1.086a3.27 3.27 0 0 1-.564.047c-1.09 0-2.188-.515-3.207-1.513a9.176 9.176 0 0 1-.681-.767 6.926 6.926 0 0 1-.272-.342c-.098-.132-.486-.74-.595-.924C.631 7.14-.14 4.838.095 3.194c.123-.865.595-1.623 1.362-2.19A4.76 4.76 0 0 1 2.946.278a5.827 5.827 0 0 1 .94-.209A7.193 7.193 0 0 1 4.89 0c.384 0 .777.03 1.17.09.525.084.956.233 1.306.44 0 0 .266.149.56.445a2.833 2.833 0 0 1 .459.602l.075.145.03.065c.079.166.142.34.193.522.25.89.209 1.885.176 2.693-.018.478-.035.93.008 1.25.043.296.102.613.168.928-.368-.184-.74-.503-1.066-1.055-.022-.346-.008-.74.01-1.158.033-.848.037-1.617-.11-2.255a2.928 2.928 0 0 0-.21-.614 2.481 2.481 0 0 0-.591-.669 2.476 2.476 0 0 0-.602-.337 3.19 3.19 0 0 0-.542-.13A6.746 6.746 0 0 0 4.878.876a6.14 6.14 0 0 0-1.053.09c-.12.02-.239.045-.355.076a4.201 4.201 0 0 0-1.491.673c-.575.423-.925.977-1.015 1.605-.177 1.262.446 3.478 1.571 5.319a11.234 11.234 0 0 0 .679.983c.084.109.178.225.282.34.174.196.34.36.39.411.052.051.211.198.242.227.086.074.176.15.27.22.282.22.603.424.955.571a2.811 2.811 0 0 0 1.129.241c.135 0 .276-.012.417-.034.644-.106 1.086-.323 1.34-.652a14.824 14.824 0 0 1 .905.208v.002Z"/><path fill="#9F72FF" d="m9.716 11.315-.028.162c.028-.047.05-.098.075-.145-.014-.004-.03-.01-.047-.014v-.003Zm0 0-.028.162c.028-.047.05-.098.075-.145-.014-.004-.03-.01-.047-.014v-.003Z"/><path fill="#9F72FF" d="M19.424 11.609c-.43 2.54-1.843 4.85-3.775 6.182a4.969 4.969 0 0 1-2.716.832c-.62 0-1.233-.13-1.773-.438a2.963 2.963 0 0 1-.513-.368 2.93 2.93 0 0 1-.448-.493 3.433 3.433 0 0 1-.428-.78 4.58 4.58 0 0 1-.194-.6c-.143-.577-.208-1.282-.155-2.143.008-.094.065-1.072.27-2.325.028-.047.05-.098.075-.145.303.096.565.192.796.292a24.52 24.52 0 0 0-.262 2.231c-.04.653-.008 1.23.098 1.726.045.22.107.425.182.614.117.294.266.548.45.76.15.174.323.32.515.436l.047.03c.401.227.865.324 1.338.324a4.1 4.1 0 0 0 2.22-.68c1.74-1.196 3.013-3.292 3.405-5.602.287-1.698.041-3.236-.678-4.217l-.11-.143a3.637 3.637 0 0 0-1.255-.992 3.945 3.945 0 0 0-.783-.286 3.863 3.863 0 0 0-.881-.107h-.047c-1.088.015-2.04.503-2.708 1.377a4.176 4.176 0 0 1-.218.047c-.088.018-.182.036-.285.06-.216.048-.445.1-.685.136a5.11 5.11 0 0 1 .36-.603c.824-1.186 2.107-1.878 3.524-1.898h.055c.554 0 1.098.098 1.603.284.086.033.172.066.258.102.08.035.161.074.239.11.13.066.26.14.382.22.254.155.491.34.71.548a2.207 2.207 0 0 1 .108.104 4.436 4.436 0 0 1 .321.358c.046.053.086.106.127.161.86 1.174 1.164 2.953.837 4.886h-.006Z"/><path fill="#10E6D9" d="M17.318 6.639a9.536 9.536 0 0 1-.574.348c-1.904 1.065-4.21 1.56-4.577 1.633-.065.013-.135.03-.21.045-.015.002-.031.009-.045.01-.193.044-.424.095-.68.136a7.012 7.012 0 0 1-1.083.098c-.047 0-.096 0-.145-.002a3.436 3.436 0 0 1-.38-.029 3.622 3.622 0 0 1-1.204-.327 3.431 3.431 0 0 1-.733-.45c-.6-.48-1.141-1.219-1.54-2.34-.542-1.517-.479-2.74.192-3.64.076-.102.162-.2.254-.294a1.3 1.3 0 0 1 .566.68c-.04.044-.08.093-.116.14-.481.646-.503 1.593-.066 2.816.045.13.096.254.145.372a5.201 5.201 0 0 0 .41.78c.06.087.118.173.181.253l.094.116a3.226 3.226 0 0 0 .368.37 2.78 2.78 0 0 0 1.015.553 3.283 3.283 0 0 0 .94.127c.156 0 .313-.009.463-.023.425-.043 1.429-.254 1.87-.36a17.608 17.608 0 0 0 2.9-.959 9.55 9.55 0 0 0 1.15-.587c.29.141.564.323.807.532l-.002.002Z"/><path fill="#F9F9F9" d="m31.881 14.27-.626-1.449h-3.907l-.614 1.448h-3.076l3.432-8.895h4.509l3.456 8.895H31.88Zm-1.118-3.74c-.311-.856-.63-1.641-.955-2.498l-.295-.795c-.286.744-.707 1.793-1.262 3.296h2.512v-.002Zm25.005-2.864h-6.666v1.282h6.666v2.29h-6.666v3.031H46.21V5.374h9.558v2.292Zm11.104-2.292v8.895h-2.88v-3.03h-4.508v3.03h-2.88V5.374h2.88v3.572h4.509V5.374h2.88Zm8.137-.013h3.039v4.878c-.017 1.2-.43 2.194-1.237 2.977-.8.783-2.154 1.176-4.056 1.176-1.901 0-3.247-.372-3.956-1.115-.712-.752-1.058-1.736-1.041-2.953V5.361h3.038V9.64c0 .653-.106 1.434.59 1.996.294.197.764.389 1.408.389.704 0 1.217-.192 1.544-.389.732-.46.681-1.417.675-2.106V5.36h-.004Zm12.125 4.441a1.949 1.949 0 0 0 1.582-1.918V7.78a2.414 2.414 0 0 0-2.404-2.422h-7.407v8.914h7.728a2.414 2.414 0 0 0 2.407-2.423v-.084c0-1.071-.85-1.94-1.906-1.967v.004Zm-1.602 2.476h-3.586v-1.32h3.586a.662.662 0 0 1 0 1.32Zm0-3.635h-3.586V7.322h3.586a.662.662 0 0 1 0 1.32Zm-40.165-.978h-6.664v1.28h6.664v2.293h-6.664v3.03h-2.892V5.373h9.556v2.292Z"/><path fill="url(#a)" d="M104.242 5.616v9.018h-2.669V6.65l.553.06-3.258 7.924h-2.79l-3.27-7.9.553-.072v7.972h-2.657V5.616h4.316l2.97 7.539h-1.022l2.946-7.539h4.328Zm9.184 3.523v1.972h-6.697V9.139h6.697Zm-4.785.986-.565 3.487-1.094-1.214h6.865v2.236h-8.548l.673-4.509-.673-4.509h8.488v2.237h-6.805l1.094-1.215.565 3.487Zm10.962-4.509c1.082 0 2.028.189 2.838.565.817.37 1.45.89 1.899 1.563.457.674.686 1.467.686 2.381 0 .906-.229 1.7-.686 2.38-.449.674-1.082 1.199-1.899 1.576-.81.368-1.756.553-2.838.553h-4.641V5.616h4.641Zm-1.864 7.803-1.286-1.274h3.366c.489 0 .91-.08 1.263-.24a1.91 1.91 0 0 0 .83-.71c.192-.304.288-.661.288-1.07 0-.417-.096-.773-.288-1.07a1.832 1.832 0 0 0-.83-.697c-.353-.169-.774-.253-1.263-.253h-3.366l1.286-1.274v6.588Zm8.231-7.803h2.801v9.018h-2.801V5.616Zm6.063 7.395v-2.237h6.18v2.237h-6.18Zm4.99-7.395 4.04 9.018h-2.994l-3.27-7.803h.757l-3.282 7.803h-2.982l4.028-9.018h3.703Z"/><defs><linearGradient id="a" x1="89.484" x2="141.484" y1="9.634" y2="9.634" gradientUnits="userSpaceOnUse"><stop stop-color="#2090FF"/><stop offset=".207" stop-color="#5454FE"/><stop offset=".422" stop-color="#853FF6"/><stop offset=".707" stop-color="#F367CC"/><stop offset=".987" stop-color="#F75252"/></linearGradient></defs></svg>
