<svg xmlns="http://www.w3.org/2000/svg" width="137" height="37" fill="none"><g fill="#EF474D" clip-path="url(#a)"><path d="M11.318 17.602c.183.257.455.452.82.585l-.523 1.595c-.68-.084-1.229-.272-1.644-.573-.415-.3-.721-.764-.922-1.393-.88 1.31-2.183 1.966-3.91 1.966-1.295 0-2.317-.365-3.063-1.096-.746-.73-1.12-1.684-1.12-2.864 0-1.393.5-2.465 1.504-3.21 1.003-.747 2.427-1.122 4.27-1.122h2.015v-.972c0-.929-.223-1.594-.672-1.99-.449-.4-1.136-.598-2.065-.598s-2.142.232-3.536.696L1.9 6.957c1.626-.597 3.137-.897 4.533-.897 1.542 0 2.697.377 3.462 1.133.765.755 1.146 1.83 1.146 3.223v6c0 .53.09.926.272 1.183l.006.003ZM8.754 16.02v-3.012H7.036c-2.424 0-3.635.897-3.635 2.687 0 .78.189 1.369.573 1.768.38.4.947.598 1.694.598 1.31 0 2.34-.682 3.086-2.04ZM18.712 3.111c-.298.307-.45.784-.45 1.43V6.36h3.187L21.2 8.127h-2.938v11.354H15.97V8.127h-2.34V6.36h2.34V4.566c0-1.127.363-2.037 1.084-2.724.721-.688 1.73-1.034 3.025-1.034.598 0 1.133.052 1.607.16.474.109.985.28 1.533.512l-.722 1.668a5.599 5.599 0 0 0-2.291-.498c-.697 0-1.195.155-1.495.461ZM27.053 3.111c-.297.307-.45.784-.45 1.43V6.36h3.187l-.248 1.768h-2.938v11.354h-2.291V8.127h-2.341V6.36h2.34V4.566c0-1.127.363-2.037 1.084-2.724.722-.688 1.731-1.034 3.025-1.034.598 0 1.134.052 1.607.16.474.109.985.28 1.533.512l-.721 1.668a5.599 5.599 0 0 0-2.292-.498c-.696 0-1.195.155-1.495.461ZM42.14 7.855c.781 1.196 1.171 2.88 1.171 5.053 0 2.06-.449 3.719-1.343 4.98-.898 1.26-2.168 1.891-3.809 1.891-1.461 0-2.607-.498-3.437-1.492v6.223l-2.29.276V6.36h1.965l.174 1.768a5.046 5.046 0 0 1 1.743-1.533 4.56 4.56 0 0 1 2.142-.535c1.675 0 2.905.597 3.685 1.792v.003Zm-1.293 5.053c0-3.353-.988-5.028-2.963-5.028a2.97 2.97 0 0 0-1.768.573c-.533.38-.997.87-1.394 1.468v6.4c.332.513.747.907 1.245 1.182a3.374 3.374 0 0 0 1.644.412c2.158 0 3.236-1.669 3.236-5.003v-.004ZM56.083 17.602c.183.257.455.452.82.585l-.523 1.595c-.68-.084-1.229-.272-1.644-.573-.415-.3-.721-.764-.922-1.393-.88 1.31-2.183 1.966-3.911 1.966-1.294 0-2.316-.365-3.062-1.096-.746-.73-1.121-1.684-1.121-2.864 0-1.393.502-2.465 1.505-3.21 1.003-.747 2.427-1.122 4.27-1.122h2.015v-.972c0-.929-.223-1.594-.672-1.99-.449-.397-1.136-.598-2.065-.598s-2.143.232-3.536.696l-.573-1.669c1.626-.597 3.137-.897 4.533-.897 1.542 0 2.697.377 3.462 1.133.765.755 1.145 1.83 1.145 3.223v6c0 .53.09.926.273 1.183l.006.003Zm-2.564-1.582v-3.012h-1.718c-2.424 0-3.635.897-3.635 2.687 0 .78.189 1.369.573 1.768.38.4.947.598 1.693.598 1.31 0 2.341-.682 3.087-2.04ZM70.227 7.855c.78 1.196 1.17 2.88 1.17 5.053 0 2.06-.449 3.719-1.344 4.98-.898 1.26-2.167 1.891-3.808 1.891-1.462 0-2.607-.498-3.437-1.492v6.223l-2.291.276V6.36h1.966l.173 1.768A5.045 5.045 0 0 1 64.4 6.595a4.56 4.56 0 0 1 2.142-.535c1.675 0 2.904.597 3.685 1.792v.003Zm-1.298 5.053c0-3.353-.987-5.028-2.963-5.028a2.97 2.97 0 0 0-1.768.573c-.532.38-.997.87-1.393 1.468v6.4c.331.513.746.907 1.245 1.182a3.374 3.374 0 0 0 1.644.412c2.158 0 3.235-1.669 3.235-5.003v-.004ZM84.17 17.602c.182.257.454.452.82.585l-.523 1.595c-.682-.084-1.23-.272-1.644-.573-.415-.3-.722-.764-.92-1.393-.88 1.31-2.183 1.966-3.91 1.966-1.295 0-2.317-.365-3.063-1.096-.746-.73-1.12-1.684-1.12-2.864 0-1.393.5-2.465 1.504-3.21 1.003-.747 2.428-1.122 4.27-1.122h2.015v-.972c0-.929-.223-1.594-.671-1.99-.45-.4-1.137-.598-2.066-.598-.928 0-2.142.232-3.535.696l-.573-1.669c1.625-.597 3.136-.897 4.533-.897 1.541 0 2.696.377 3.461 1.133.765.755 1.146 1.83 1.146 3.223v6c0 .53.09.926.272 1.183l.003.003Zm-2.567-1.582v-3.012h-1.719c-2.424 0-3.635.897-3.635 2.687 0 .78.189 1.369.573 1.768.38.4.947.598 1.694.598 1.31 0 2.34-.682 3.087-2.04ZM90.442 16.815c.331.331.499.74.499 1.22s-.168.892-.499 1.232c-.331.34-.746.511-1.245.511a1.61 1.61 0 0 1-1.22-.51 1.701 1.701 0 0 1-.498-1.233c0-.483.167-.889.499-1.22a1.658 1.658 0 0 1 1.22-.499c.498 0 .913.168 1.244.499ZM101.248 6.396c.647.223 1.27.585 1.867 1.084l-1.096 1.442a5.63 5.63 0 0 0-1.356-.733 4.285 4.285 0 0 0-1.455-.236c-1.062 0-1.89.424-2.477 1.27-.589.845-.883 2.099-.883 3.759 0 1.66.291 2.882.87 3.672.582.79 1.41 1.183 2.49 1.183.514 0 .987-.078 1.418-.236.43-.158.913-.412 1.443-.758l1.046 1.492c-1.195.963-2.533 1.443-4.01 1.443-1.777 0-3.173-.598-4.195-1.793-1.022-1.195-1.533-2.845-1.533-4.954 0-1.393.233-2.613.697-3.66.465-1.046 1.124-1.857 1.979-2.44.854-.582 1.87-.87 3.05-.87.78 0 1.492.112 2.139.335h.006ZM114.955 7.904c1.022 1.229 1.533 2.895 1.533 5.003 0 1.363-.233 2.56-.697 3.598-.464 1.037-1.136 1.842-2.016 2.415-.879.573-1.926.858-3.136.858-1.842 0-3.279-.613-4.307-1.842-1.031-1.23-1.542-2.895-1.542-5.004 0-1.36.232-2.56.697-3.598.464-1.037 1.136-1.842 2.015-2.415.88-.573 1.935-.857 3.162-.857 1.842 0 3.272.613 4.294 1.842h-.003Zm-7.707 5.028c0 3.335 1.127 5.004 3.388 5.004 2.26 0 3.384-1.675 3.384-5.029 0-3.353-1.121-5.003-3.36-5.003-2.275 0-3.412 1.678-3.412 5.028ZM136.028 7.146c.647.722.972 1.697.972 2.926v9.413h-2.291v-9.088c0-1.693-.616-2.539-1.842-2.539-.647 0-1.196.186-1.644.56-.449.376-.929.958-1.443 1.757v9.31h-2.292v-9.088c0-1.693-.613-2.539-1.842-2.539-.665 0-1.22.192-1.669.573-.449.381-.919.963-1.418 1.744v9.31h-2.291V6.36h1.966l.198 1.916c.979-1.476 2.242-2.216 3.784-2.216.814 0 1.505.207 2.077.622.573.415.985.997 1.233 1.743.514-.765 1.083-1.35 1.706-1.755.622-.406 1.356-.61 2.204-.61 1.081 0 1.942.362 2.589 1.083l.003.003ZM7.355 29.738l-1.257 5.134h-.765l-1.14-4.604-1.157 4.604H2.28L.995 29.738h.588l1.1 4.691 1.198-4.69h.647l1.176 4.7 1.09-4.7h.561ZM11.968 30.048c.248.279.372.663.372 1.152v3.669h-.57v-3.592c0-.792-.325-1.189-.972-1.189-.328 0-.616.09-.87.27-.251.18-.492.442-.722.79v3.718h-.57v-7.224l.57-.068v3.013c.459-.641 1.025-.96 1.697-.96.458 0 .811.14 1.06.418l.005.003ZM17.993 32.527H14.57c.034.668.192 1.164.477 1.486.284.325.66.486 1.123.486.27 0 .505-.04.713-.124.207-.08.43-.21.671-.387l.267.362c-.254.21-.517.366-.787.471-.269.105-.566.158-.891.158-.681 0-1.214-.232-1.601-.697-.387-.464-.58-1.108-.58-1.932 0-.542.085-1.019.252-1.427.167-.409.405-.725.715-.95a1.79 1.79 0 0 1 1.084-.338c.653 0 1.151.22 1.492.662.34.443.51 1.05.51 1.82 0 .147-.005.283-.018.413l-.003-.003Zm-.542-.589c0-.575-.12-1.024-.359-1.35-.238-.325-.594-.486-1.065-.486-.424 0-.768.164-1.03.49-.264.328-.407.823-.431 1.492h2.885v-.146ZM22.133 29.688l-.108.539a1.679 1.679 0 0 0-.452-.06 1.05 1.05 0 0 0-.84.379c-.213.25-.39.647-.535 1.182v3.14h-.57v-5.134h.49l.049 1.149c.136-.424.325-.74.563-.947.239-.208.536-.31.889-.31.204 0 .372.019.51.059l.004.003ZM26.62 32.527h-3.425c.034.668.192 1.164.477 1.486.285.322.66.486 1.124.486.27 0 .504-.04.712-.124.207-.08.43-.21.672-.387l.266.362c-.254.21-.517.366-.786.471-.27.105-.567.158-.892.158-.681 0-1.214-.232-1.6-.697-.388-.464-.58-1.108-.58-1.932 0-.542.084-1.019.25-1.427.168-.409.406-.725.716-.95.31-.227.672-.338 1.084-.338.653 0 1.152.22 1.492.662.34.443.511 1.05.511 1.82 0 .147-.006.283-.018.413l-.004-.003Zm-.542-.589c0-.575-.121-1.024-.36-1.35-.238-.325-.594-.486-1.065-.486-.424 0-.767.164-1.03.49-.264.328-.406.823-.434 1.492h2.886v-.146h.003ZM34.357 30.333c.384.467.573 1.12.573 1.956 0 .837-.195 1.487-.585 1.97-.39.48-.92.721-1.595.721-.675 0-1.21-.235-1.594-.712-.384-.474-.573-1.127-.573-1.957 0-.542.087-1.018.266-1.424.177-.406.427-.715.756-.932.328-.217.712-.325 1.158-.325.68 0 1.21.235 1.594.703Zm-2.752.337c-.276.372-.412.92-.412 1.638 0 .718.136 1.257.405 1.629.273.371.657.56 1.152.56.495 0 .886-.186 1.164-.56.279-.372.418-.923.418-1.65 0-.728-.136-1.255-.405-1.626-.273-.369-.66-.554-1.164-.554-.505 0-.883.186-1.158.56v.003ZM40.116 30.323c.31.462.467 1.115.467 1.957 0 .842-.167 1.48-.505 1.966-.337.486-.82.731-1.449.731-.306 0-.585-.065-.832-.192a1.913 1.913 0 0 1-.629-.514v2.533l-.57.077v-7.143h.49l.05.746c.188-.269.42-.476.69-.628a1.79 1.79 0 0 1 .888-.226c.623 0 1.087.232 1.4.69v.003Zm-.514 3.617c.247-.372.371-.926.371-1.66 0-1.452-.455-2.18-1.365-2.18-.307 0-.573.078-.799.236-.226.158-.44.371-.644.647v2.728c.34.523.793.786 1.353.786.47 0 .83-.186 1.08-.56l.004.003ZM45.921 32.527h-3.424c.034.668.192 1.164.477 1.486.285.322.66.486 1.124.486.27 0 .504-.04.712-.124.207-.08.43-.21.672-.387l.266.362c-.254.21-.517.366-.786.471-.27.105-.567.158-.892.158-.681 0-1.214-.232-1.6-.697-.388-.464-.58-1.108-.58-1.932 0-.542.084-1.019.25-1.427.168-.409.407-.725.716-.95.31-.227.672-.338 1.084-.338.653 0 1.152.22 1.492.662.34.443.511 1.05.511 1.82 0 .147-.006.283-.018.413l-.004-.003Zm-.538-.589c0-.575-.121-1.024-.36-1.35-.238-.325-.594-.486-1.065-.486-.424 0-.767.164-1.03.49-.264.328-.406.823-.434 1.492h2.886v-.146h.003ZM50.064 29.688l-.108.539a1.679 1.679 0 0 0-.453-.06 1.05 1.05 0 0 0-.839.379c-.213.25-.39.647-.535 1.182v3.14h-.57v-5.134h.49l.049 1.149c.136-.424.325-.74.563-.947.239-.208.536-.31.889-.31.201 0 .372.019.51.059l.004.003ZM54.17 34.313c.068.118.18.208.328.266l-.127.403c-.235-.047-.418-.133-.545-.266-.127-.13-.21-.332-.25-.598-.354.576-.886.864-1.601.864-.49 0-.88-.14-1.164-.418-.285-.279-.428-.65-.428-1.115 0-.53.19-.938.564-1.226.374-.288.898-.43 1.566-.43h.982v-.502c0-.412-.093-.712-.276-.898-.182-.185-.486-.278-.913-.278-.393 0-.858.099-1.393.294l-.149-.43c.576-.23 1.115-.344 1.62-.344 1.117 0 1.678.542 1.678 1.628v2.474c0 .27.034.462.102.58l.006-.004Zm-.672-.697v-1.411h-.892c-.523 0-.922.102-1.198.303-.275.204-.412.508-.412.913 0 .353.096.626.285.815.19.189.455.285.796.285.616 0 1.09-.3 1.421-.904ZM58.474 34.656a1.918 1.918 0 0 1-1.081.325c-.393 0-.7-.114-.923-.35-.223-.232-.334-.566-.334-1.006v-3.424h-.864v-.462h.864v-1.226l.57-.068v1.294h1.325l-.068.462h-1.258v3.396c0 .3.062.524.186.672.124.146.313.22.57.22.257 0 .523-.074.786-.226l.227.39v.003ZM62.728 30.333c.384.467.572 1.12.572 1.956 0 .837-.195 1.487-.585 1.97-.39.48-.92.721-1.594.721-.675 0-1.21-.235-1.595-.712-.384-.474-.573-1.127-.573-1.957 0-.542.087-1.018.267-1.424.176-.406.427-.715.755-.932.328-.217.712-.325 1.158-.325.681 0 1.21.235 1.595.703Zm-2.753.337c-.275.372-.412.92-.412 1.638 0 .718.137 1.257.406 1.629.272.371.656.56 1.152.56.495 0 .885-.186 1.164-.56.279-.372.418-.923.418-1.65 0-.728-.136-1.255-.406-1.626-.272-.369-.66-.554-1.164-.554-.505 0-.882.186-1.158.56v.003ZM67.471 29.688l-.108.539a1.679 1.679 0 0 0-.452-.06c-.347 0-.626.128-.84.379-.213.25-.39.647-.535 1.182v3.14h-.57v-5.134h.49l.05 1.149c.135-.424.324-.74.563-.947.238-.208.535-.31.888-.31.201 0 .372.019.511.059l.003.003ZM70.583 29.772a2.9 2.9 0 0 1 .765.427l-.267.372a2.97 2.97 0 0 0-.669-.36 1.977 1.977 0 0 0-.687-.114c-.34 0-.616.077-.823.235a.742.742 0 0 0-.313.629c0 .263.09.443.27.579.179.136.504.27.975.393.582.152 1.003.34 1.26.57.257.229.387.557.387.981 0 .459-.177.82-.53 1.09-.353.27-.795.403-1.325.403-.393 0-.737-.056-1.03-.17a2.713 2.713 0 0 1-.806-.487l.313-.362c.229.183.464.319.703.406.238.086.507.133.808.133.38 0 .684-.087.916-.26a.852.852 0 0 0 .35-.722.99.99 0 0 0-.118-.51c-.077-.13-.213-.245-.402-.338a4.41 4.41 0 0 0-.833-.288c-.542-.142-.935-.325-1.173-.539-.239-.216-.36-.504-.36-.864 0-.253.075-.486.226-.69a1.49 1.49 0 0 1 .614-.48c.257-.114.547-.17.866-.17.322 0 .614.046.874.142l.009-.006ZM81.726 30.054c.238.282.36.666.36 1.149v3.669h-.57V31.28c0-.405-.078-.706-.23-.898-.154-.192-.368-.29-.644-.29a1.21 1.21 0 0 0-.774.275c-.229.182-.452.446-.668.786v3.719h-.57V31.28c0-.405-.078-.706-.233-.898-.154-.192-.368-.29-.644-.29a1.23 1.23 0 0 0-.786.275c-.23.182-.449.446-.656.786v3.719h-.57v-5.134h.49l.049.873c.198-.306.427-.548.696-.721.27-.173.564-.26.883-.26.319 0 .6.09.823.27.223.179.372.43.452.748.202-.318.44-.57.713-.749.272-.18.57-.27.898-.27.414 0 .74.14.978.422l.003.003ZM87.736 32.527h-3.424c.034.668.192 1.164.477 1.486.284.325.659.486 1.123.486.27 0 .505-.04.713-.124.204-.08.43-.21.671-.387l.267.362c-.254.21-.517.366-.787.471-.27.105-.566.158-.891.158-.682 0-1.214-.232-1.601-.697-.387-.464-.58-1.108-.58-1.932 0-.542.084-1.019.252-1.427.167-.409.405-.725.715-.95a1.796 1.796 0 0 1 1.083-.338c.654 0 1.152.22 1.493.662.34.443.51 1.05.51 1.82 0 .147-.005.283-.018.413l-.003-.003Zm-.539-.589c0-.575-.12-1.024-.359-1.35-.238-.325-.594-.486-1.065-.486-.424 0-.768.164-1.03.49-.264.328-.406.823-.431 1.492h2.885v-.146ZM92.997 32.527h-3.425c.034.668.192 1.164.477 1.486.285.325.66.486 1.124.486.27 0 .505-.04.712-.124.207-.08.43-.21.672-.387l.266.362c-.254.21-.517.366-.786.471-.27.105-.567.158-.892.158-.681 0-1.214-.232-1.6-.697-.388-.464-.58-1.108-.58-1.932 0-.542.084-1.019.251-1.427.167-.409.406-.725.715-.95.31-.227.672-.338 1.084-.338.653 0 1.152.22 1.492.662.341.443.511 1.05.511 1.82 0 .147-.006.283-.018.413l-.003-.003Zm-.54-.589c0-.575-.12-1.024-.358-1.35-.239-.325-.595-.486-1.065-.486-.425 0-.768.164-1.031.49-.264.328-.406.823-.434 1.492h2.886v-.146h.003ZM96.972 34.656a1.918 1.918 0 0 1-1.08.325c-.394 0-.7-.114-.923-.35-.223-.232-.335-.566-.335-1.006v-3.424h-.864v-.462h.864v-1.226l.57-.068v1.294h1.325l-.068.462h-1.257v3.396c0 .3.062.524.186.672.124.146.313.22.57.22.257 0 .523-.074.786-.226l.226.39v.003ZM104.013 34.313a.632.632 0 0 0 .328.266l-.127.403c-.235-.047-.418-.133-.545-.266-.127-.13-.21-.332-.251-.598-.353.576-.885.864-1.6.864-.49 0-.88-.14-1.165-.418-.284-.279-.427-.65-.427-1.115 0-.53.189-.938.564-1.226.374-.288.897-.43 1.566-.43h.982v-.502c0-.412-.093-.712-.276-.898-.182-.185-.486-.278-.913-.278-.393 0-.858.099-1.393.294l-.149-.43c.576-.23 1.115-.344 1.619-.344 1.118 0 1.678.542 1.678 1.628v2.474c0 .27.034.462.103.58l.006-.004Zm-.672-.697v-1.411h-.892c-.523 0-.923.102-1.198.303-.276.204-.412.508-.412.913 0 .353.096.626.285.815.189.189.455.285.796.285.616 0 1.09-.3 1.424-.904h-.003ZM106.83 28.255c-.148.136-.219.356-.219.657v.823h1.353l-.078.461h-1.275v4.673h-.57v-4.67h-.892v-.46h.892v-.843c0-.406.127-.728.378-.963.25-.235.6-.353 1.046-.353.4 0 .799.093 1.198.276l-.195.42a2.387 2.387 0 0 0-.972-.225c-.294 0-.514.068-.662.204h-.004ZM112.085 27.943l-.204.412a2.874 2.874 0 0 0-1.217-.294c-.335 0-.576.068-.728.201-.152.133-.226.36-.226.672v.805h2.864v5.134h-.57v-4.67h-2.297v4.673h-.57v-4.673h-.842v-.46h.842v-.834c0-.418.13-.743.387-.975.257-.232.629-.35 1.115-.35.511 0 .991.12 1.443.362l.003-.003ZM114.846 34.732c-.161-.164-.238-.405-.238-.724v-6.36l.57-.068v6.41c0 .334.136.5.411.5a.822.822 0 0 0 .353-.067l.158.42c-.182.09-.381.137-.588.137-.282 0-.502-.083-.663-.248h-.003ZM118.033 27.598a.403.403 0 0 1 .117.294c0 .118-.04.217-.117.294a.427.427 0 0 1-.313.118.415.415 0 0 1-.304-.118.403.403 0 0 1-.117-.294c0-.117.04-.216.117-.294a.415.415 0 0 1 .304-.117c.13 0 .235.04.313.117Zm-.022 2.14v5.133h-.57v-5.133h.57ZM123.383 34.313a.632.632 0 0 0 .328.266l-.127.403c-.235-.047-.418-.133-.545-.266-.127-.13-.21-.332-.251-.598-.353.576-.885.864-1.6.864-.49 0-.88-.14-1.165-.418-.284-.279-.427-.65-.427-1.115 0-.53.189-.938.564-1.226.374-.288.898-.43 1.566-.43h.982v-.502c0-.412-.093-.712-.276-.898-.182-.185-.486-.278-.913-.278-.393 0-.858.099-1.393.294l-.149-.43c.576-.23 1.115-.344 1.619-.344 1.118 0 1.679.542 1.679 1.628v2.474c0 .27.034.462.102.58l.006-.004Zm-.672-.697v-1.411h-.892c-.523 0-.922.102-1.198.303-.276.204-.412.508-.412.913 0 .353.096.626.285.815.189.189.455.285.796.285.616 0 1.09-.3 1.424-.904h-.003ZM127.687 34.656a1.922 1.922 0 0 1-1.081.325c-.393 0-.7-.114-.923-.35-.223-.232-.334-.566-.334-1.006v-3.424h-.864v-.462h.864v-1.226l.57-.068v1.294h1.325l-.068.462h-1.257v3.396c0 .3.062.524.185.672.124.146.313.22.57.22.257 0 .523-.074.787-.226l.226.39v.003ZM132.201 32.527h-3.425c.034.668.192 1.164.477 1.486.285.325.66.486 1.124.486.269 0 .505-.04.712-.124.205-.08.431-.21.672-.387l.266.362c-.254.21-.517.366-.786.471a2.432 2.432 0 0 1-.892.158c-.681 0-1.214-.232-1.601-.697-.387-.464-.579-1.108-.579-1.932 0-.542.084-1.019.251-1.427.167-.409.406-.725.715-.95a1.797 1.797 0 0 1 1.084-.338c.653 0 1.152.22 1.493.662.34.443.51 1.05.51 1.82 0 .147-.006.283-.018.413l-.003-.003Zm-.539-.589c0-.575-.121-1.024-.359-1.35-.239-.325-.595-.486-1.065-.486-.424 0-.768.164-1.031.49-.264.328-.406.823-.431 1.492h2.886v-.146ZM135.969 29.772c.26.096.517.238.765.427l-.266.372a3 3 0 0 0-.669-.36 2.057 2.057 0 0 0-.688-.114c-.34 0-.616.077-.823.235a.749.749 0 0 0-.313.629c0 .263.09.443.269.579.18.136.505.27.976.393.582.152 1.003.34 1.26.57.257.229.387.557.387.981 0 .459-.177.82-.529 1.09-.353.27-.796.403-1.326.403-.393 0-.737-.056-1.031-.17a2.721 2.721 0 0 1-.805-.487l.313-.362c.229.183.464.319.703.406.238.086.508.133.808.133.381 0 .684-.087.916-.26a.85.85 0 0 0 .35-.722c0-.21-.04-.38-.117-.51a.935.935 0 0 0-.403-.338 4.398 4.398 0 0 0-.833-.288c-.542-.142-.935-.325-1.173-.539-.239-.216-.359-.504-.359-.864 0-.253.074-.486.226-.69.151-.208.356-.365.613-.48.257-.114.548-.17.867-.17.319 0 .61.046.873.142l.009-.006Z"/></g><defs><clipPath id="a"><path fill="#fff" d="M.96.808H137v36.074H.96z"/></clipPath></defs></svg>
