<svg xmlns="http://www.w3.org/2000/svg" width="99" height="39" fill="none"><g clip-path="url(#a)"><mask id="b" width="99" height="24" x="0" y="0" maskUnits="userSpaceOnUse" style="mask-type:luminance"><path fill="#fff" d="M98.957.02H.039v23.93h98.918V.02Z"/></mask><g mask="url(#b)"><path fill="#19FFA0" d="M75.404 11.983H63.63v11.965h11.775V11.983Z"/><path fill="#4981EB" d="M35.363 11.983H23.587v11.965h11.776V11.983Z"/><path fill="#4981EB" d="M35.305 11.922H23.529v11.965h11.776V11.922Z"/><path fill="#4981EB" d="M35.248 11.864H23.472V23.83h11.776V11.864Z"/><path fill="#4981EB" d="M35.188 11.803H23.412v11.965h11.776V11.803Z"/><path fill="#4A80EB" d="M35.13 11.745H23.352V23.71H35.13V11.745Z"/><path fill="#4A80EB" d="M35.07 11.684H23.294v11.964H35.07V11.684Z"/><path fill="#4A80EB" d="M35.014 11.627H23.236v11.965h11.777V11.627Z"/><path fill="#4A80EB" d="M34.953 11.567H23.177v11.965h11.776V11.567Z"/><path fill="#4A80EB" d="M34.895 11.507H23.12v11.965h11.776V11.507Z"/><path fill="#4A80EB" d="M34.839 11.448H23.063v11.965h11.776V11.448Z"/><path fill="#4B80EB" d="M34.777 11.389H23.001v11.965h11.776V11.389Z"/><path fill="#4B7FEB" d="M34.72 11.328H22.944v11.965H34.72V11.328Z"/><path fill="#4B7FEB" d="M34.66 11.267H22.884V23.23H34.66V11.267Z"/><path fill="#4B7FEA" d="M34.602 11.208H22.826v11.965h11.776V11.208Z"/><path fill="#4B7FEA" d="M34.542 11.148H22.766v11.964h11.776V11.148Z"/><path fill="#4B7FEA" d="M34.483 11.089H22.707v11.965h11.776V11.089Z"/><path fill="#4C7FEA" d="M34.426 11.03H22.65v11.965h11.776V11.03Z"/><path fill="#4C7FEA" d="M34.367 10.97H22.591v11.964h11.776V10.97Z"/><path fill="#4C7EEA" d="M34.31 10.91H22.534v11.964H34.31V10.909Z"/><path fill="#4C7EEA" d="M34.252 10.854H22.476v11.964h11.776V10.853Z"/><path fill="#4C7EEA" d="M34.193 10.791H22.417v11.965h11.776V10.79Z"/><path fill="#4C7EEA" d="M34.133 10.731H22.357v11.965h11.776V10.731Z"/><path fill="#4D7EEA" d="M34.074 10.672H22.298v11.965h11.776V10.672Z"/><path fill="#4D7EEA" d="M34.017 10.613H22.241v11.965h11.776V10.613Z"/><path fill="#4D7EEA" d="M33.957 10.553H22.181v11.965h11.776V10.553Z"/><path fill="#4D7EEA" d="M33.9 10.492H22.122v11.965h11.776V10.492Z"/><path fill="#4D7DEA" d="M33.84 10.434H22.063v11.964H33.84V10.434Z"/><path fill="#4D7DEA" d="M33.782 10.376H22.006v11.965h11.776V10.376Z"/><path fill="#4E7DEA" d="M33.723 10.316H21.947v11.965h11.776V10.316Z"/><path fill="#4E7DEA" d="M33.664 10.256H21.888V22.22h11.776V10.256Z"/><path fill="#4E7DEA" d="M33.607 10.198H21.831v11.965h11.776V10.198Z"/><path fill="#4E7DEA" d="M33.548 10.137H21.772v11.965h11.776V10.137Z"/><path fill="#4E7DEA" d="M33.49 10.076H21.712v11.965H33.49V10.076Z"/><path fill="#4E7CEA" d="M33.43 10.019H21.654v11.964H33.43V10.02Z"/><path fill="#4F7CEA" d="M33.37 9.957H21.596v11.965H33.37V9.957Z"/><path fill="#4F7CEA" d="M33.314 9.9H21.538v11.964h11.776V9.9Z"/><path fill="#4F7CEA" d="M33.254 9.839H21.478v11.965h11.776V9.839Z"/><path fill="#4F7CEA" d="M33.195 9.78H21.419v11.964h11.776V9.78Z"/><path fill="#4F7CE9" d="M33.14 9.722H21.362v11.964h11.776V9.722Z"/><path fill="#4F7CE9" d="M33.077 9.658H21.301v11.965h11.776V9.658Z"/><path fill="#507BE9" d="M33.02 9.603H21.246v11.964H33.02V9.603Z"/><path fill="#507BE9" d="M32.96 9.54H21.186v11.965H32.96V9.54Z"/><path fill="#507BE9" d="M32.904 9.483H21.128v11.965h11.776V9.483Z"/><path fill="#507BE9" d="M32.845 9.42H21.07v11.966h11.776V9.42Z"/><path fill="#507BE9" d="M32.786 9.362H21.01v11.965h11.776V9.362Z"/><path fill="#507BE9" d="M32.727 9.304H20.951v11.965h11.776V9.304Z"/><path fill="#517BE9" d="M32.667 9.246H20.891v11.965h11.776V9.246Z"/><path fill="#517AE9" d="M32.608 9.186H20.834V21.15h11.776V9.186Z"/><path fill="#517AE9" d="M32.551 9.126H20.775v11.965h11.776V9.126Z"/><path fill="#517AE9" d="M32.492 9.063H20.718v11.965h11.776V9.063Z"/><path fill="#517AE9" d="M32.433 9.005H20.657V20.97h11.776V9.005Z"/><path fill="#517AE9" d="M32.376 8.947H20.6v11.965h11.776V8.947Z"/><path fill="#527AE9" d="M32.318 8.887H20.542v11.965h11.776V8.887Z"/><path fill="#527AE9" d="M32.258 8.828H20.482v11.965h11.776V8.828Z"/><path fill="#5279E9" d="M32.2 8.767H20.424V20.73H32.2V8.767Z"/><path fill="#5279E9" d="M32.143 8.709H20.367v11.965h11.776V8.709Z"/><path fill="#5279E9" d="M32.082 8.65H20.306v11.965h11.776V8.65Z"/><path fill="#5279E9" d="M32.026 8.59H20.25v11.965h11.776V8.59Z"/><path fill="#5379E9" d="M31.965 8.53H20.189v11.964h11.776V8.53Z"/><path fill="#5379E9" d="M31.908 8.472H20.132v11.964h11.776V8.472Z"/><path fill="#5379E9" d="M31.849 8.41H20.073v11.965h11.776V8.41Z"/><path fill="#5379E9" d="M31.79 8.35H20.012v11.964H31.79V8.35Z"/><path fill="#5378E9" d="M31.733 8.293H19.957v11.965h11.776V8.293Z"/><path fill="#5378E8" d="M31.673 8.233H19.898v11.965h11.775V8.233Z"/><path fill="#5478E8" d="M31.615 8.174H19.839v11.965h11.776V8.174Z"/><path fill="#5478E8" d="M31.555 8.113H19.78v11.965h11.776V8.113Z"/><path fill="#5478E8" d="M31.496 8.053H19.72v11.964h11.776V8.053Z"/><path fill="#5478E8" d="M31.44 7.995H19.662V19.96H31.44V7.995Z"/><path fill="#5478E8" d="M31.378 7.937H19.602V19.9h11.776V7.937Z"/><path fill="#5477E8" d="M31.322 7.876H19.546v11.965h11.776V7.876Z"/><path fill="#5477E8" d="M31.261 7.814H19.485V19.78h11.776V7.814Z"/><path fill="#5577E8" d="M31.203 7.757H19.427v11.965h11.776V7.757Z"/><path fill="#5577E8" d="M31.146 7.695H19.37V19.66h11.776V7.695Z"/><path fill="#5577E8" d="M31.086 7.636H19.31V19.6h11.776V7.636Z"/><path fill="#5577E8" d="M31.027 7.58H19.251v11.964h11.776V7.579Z"/><path fill="#5577E8" d="M30.968 7.517H19.192V19.48h11.776V7.517Z"/><path fill="#5576E8" d="M30.912 7.458H19.136v11.965h11.776V7.458Z"/><path fill="#5676E8" d="M30.852 7.4H19.076v11.964h11.776V7.4Z"/><path fill="#5676E8" d="M30.796 7.338H19.02v11.965h11.776V7.338Z"/><path fill="#5676E8" d="M30.734 7.281H18.958v11.965h11.776V7.281Z"/><path fill="#5676E8" d="M30.676 7.222H18.9v11.964h11.776V7.222Z"/><path fill="#5676E8" d="M30.618 7.16H18.842v11.964h11.776V7.159Z"/><path fill="#5676E8" d="M30.558 7.104H18.782v11.964h11.776V7.104Z"/><path fill="#5775E8" d="M30.5 7.04H18.724v11.965H30.5V7.04Z"/><path fill="#5775E8" d="M30.443 6.982H18.667v11.965h11.776V6.982Z"/><path fill="#5775E8" d="M30.383 6.92H18.607v11.966h11.776V6.92Z"/><path fill="#5775E8" d="M30.324 6.865H18.548V18.83h11.776V6.865Z"/><path fill="#5775E8" d="M30.265 6.804H18.489v11.965h11.776V6.804Z"/><path fill="#5775E7" d="M30.209 6.744H18.433V18.71h11.776V6.744Z"/><path fill="#5875E7" d="M30.149 6.684H18.373v11.964h11.776V6.684Z"/><path fill="#5874E7" d="M30.09 6.622H18.313v11.965h11.775V6.622Z"/><path fill="#5874E7" d="M30.032 6.564H18.256V18.53h11.776V6.564Z"/><path fill="#5874E7" d="M29.974 6.506H18.198V18.47h11.776V6.506Z"/><path fill="#5874E7" d="M29.915 6.447H18.14v11.965h11.776V6.447Z"/><path fill="#5874E7" d="M29.855 6.387H18.079v11.965h11.776V6.387Z"/><path fill="#5974E7" d="M29.797 6.328H18.021v11.965h11.776V6.328Z"/><path fill="#5974E7" d="M29.737 6.268H17.96v11.964h11.776V6.268Z"/><path fill="#5973E7" d="M29.68 6.209H17.904v11.965H29.68V6.209Z"/><path fill="#5973E7" d="M29.622 6.148H17.846v11.965h11.776V6.148Z"/><path fill="#5973E7" d="M29.564 6.093H17.788v11.965h11.776V6.093Z"/><path fill="#5973E7" d="M29.503 6.027H17.727v11.965h11.776V6.027Z"/><path fill="#5A73E7" d="M29.446 5.97H17.67v11.966h11.776V5.97Z"/><path fill="#5A73E7" d="M29.387 5.908H17.61v11.965h11.776V5.908Z"/><path fill="#5A73E7" d="M29.33 5.852H17.554v11.964H29.33V5.852Z"/><path fill="#5A73E7" d="M29.27 5.792H17.494v11.965H29.27V5.792Z"/><path fill="#5A72E7" d="M29.212 5.731H17.436v11.965h11.776V5.731Z"/><path fill="#5A72E7" d="M29.152 5.673H17.377v11.965h11.776V5.673Z"/><path fill="#5B72E7" d="M29.094 5.614H17.318V17.58h11.776V5.614Z"/><path fill="#5B72E7" d="M29.037 5.554H17.261v11.965h11.776V5.554Z"/><path fill="#5B72E7" d="M28.977 5.493H17.201v11.965h11.776V5.493Z"/><path fill="#5B72E7" d="M28.919 5.434H17.143v11.964h11.776V5.434Z"/><path fill="#5B72E7" d="M28.859 5.373H17.083v11.965h11.776V5.373Z"/><path fill="#5B71E7" d="M28.803 5.315H17.027V17.28h11.776V5.315Z"/><path fill="#5C71E7" d="M28.744 5.257H16.968v11.965h11.776V5.257Z"/><path fill="#5C71E6" d="M28.684 5.197H16.908v11.965h11.776V5.197Z"/><path fill="#5C71E6" d="M28.625 5.136H16.85V17.1h11.776V5.136Z"/><path fill="#5C71E6" d="M28.568 5.078H16.792v11.965h11.776V5.078Z"/><path fill="#5C71E6" d="M28.51 5.019H16.732v11.964H28.51V5.02Z"/><path fill="#5C71E6" d="M28.45 4.959H16.672v11.965H28.45V4.959Z"/><path fill="#5D70E6" d="M28.39 4.896H16.614v11.965H28.39V4.896Z"/><path fill="#5D70E6" d="M28.334 4.839H16.558v11.965h11.776V4.839Z"/><path fill="#5D70E6" d="M28.273 4.78H16.497v11.964h11.776V4.78Z"/><path fill="#5D70E6" d="M28.216 4.72H16.44v11.965h11.776V4.72Z"/><path fill="#5D70E6" d="M28.156 4.662H16.38v11.965h11.776V4.662Z"/><path fill="#5D70E6" d="M28.099 4.602H16.323v11.964h11.776V4.602Z"/><path fill="#5E70E6" d="M28.04 4.54H16.266v11.965H28.04V4.54Z"/><path fill="#5E6FE6" d="M27.981 4.481H16.205v11.965h11.776V4.481Z"/><path fill="#5E6FE6" d="M27.923 4.424H16.147v11.965h11.776V4.424Z"/><path fill="#5E6FE6" d="M27.864 4.365H16.088V16.33h11.776V4.365Z"/><path fill="#5E6FE6" d="M27.805 4.303H16.03v11.965h11.776V4.303Z"/><path fill="#5E6FE6" d="M27.747 4.242H15.971v11.965h11.776V4.242Z"/><path fill="#5F6FE6" d="M27.69 4.186H15.912V16.15H27.69V4.186Z"/><path fill="#5F6FE6" d="M27.628 4.125H15.852V16.09h11.776V4.125Z"/><path fill="#5F6EE6" d="M27.571 4.066H15.795v11.965h11.776V4.066Z"/><path fill="#5F6EE6" d="M27.512 4.006H15.737V15.97h11.775V4.006Z"/><path fill="#5F6EE6" d="M27.453 3.948H15.677v11.965h11.776V3.948Z"/><path fill="#5F6EE6" d="M27.394 3.888H15.618v11.964h11.776V3.888Z"/><path fill="#5F6EE6" d="M27.337 3.828H15.561v11.965h11.776V3.828Z"/><path fill="#606EE6" d="M27.278 3.768H15.502v11.964h11.776V3.768Z"/><path fill="#606EE5" d="M27.22 3.708H15.446v11.965H27.22V3.708Z"/><path fill="#606DE5" d="M27.16 3.65H15.382v11.964H27.16V3.65Z"/><path fill="#606DE5" d="M27.103 3.589H15.327v11.965h11.776V3.589Z"/><path fill="#606DE5" d="M27.044 3.532H15.268v11.965h11.776V3.532Z"/><path fill="#606DE5" d="M26.984 3.47H15.208v11.965h11.776V3.47Z"/><path fill="#616DE5" d="M26.926 3.411H15.15v11.965h11.776V3.411Z"/><path fill="#616DE5" d="M26.868 3.35H15.092v11.965h11.776V3.351Z"/><path fill="#616DE5" d="M26.81 3.292H15.034v11.965H26.81V3.292Z"/><path fill="#616DE5" d="M26.75 3.23H14.974v11.965H26.75V3.23Z"/><path fill="#616CE5" d="M26.691 3.173H14.915v11.965h11.776V3.173Z"/><path fill="#616CE5" d="M26.634 3.112H14.858v11.965h11.776V3.112Z"/><path fill="#626CE5" d="M26.575 3.054H14.8v11.964h11.776V3.054Z"/><path fill="#626CE5" d="M26.516 2.993H14.74v11.965h11.776V2.993Z"/><path fill="#626CE5" d="M26.459 2.935H14.683v11.964h11.776V2.935Z"/><path fill="#626CE5" d="M26.4 2.876H14.623v11.965h11.775V2.876Z"/><path fill="#626CE5" d="M26.34 2.815H14.566V14.78H26.34V2.815Z"/><path fill="#626BE5" d="M26.282 2.755H14.506V14.72h11.776V2.755Z"/><path fill="#636BE5" d="M26.225 2.696H14.449v11.965h11.776V2.696Z"/><path fill="#636BE5" d="M26.163 2.637H14.387v11.965h11.776V2.637Z"/><path fill="#636BE5" d="M26.106 2.578H14.33v11.965h11.776V2.578Z"/><path fill="#636BE5" d="M26.047 2.518H14.271v11.964h11.776V2.518Z"/><path fill="#636BE5" d="M25.99 2.459H14.214v11.965H25.99V2.459Z"/><path fill="#636BE5" d="M25.931 2.397H14.155v11.965h11.776V2.397Z"/><path fill="#646AE5" d="M25.872 2.34H14.096v11.965h11.776V2.34Z"/><path fill="#646AE5" d="M25.813 2.28H14.037v11.964h11.776V2.28Z"/><path fill="#646AE4" d="M25.756 2.22H13.98v11.966h11.776V2.22Z"/><path fill="#646AE4" d="M25.694 2.162H13.918v11.965h11.776V2.162Z"/><path fill="#646AE4" d="M25.639 2.102H13.863v11.964h11.776V2.102Z"/><path fill="#646AE4" d="M25.578 2.043H13.802v11.965h11.776V2.043Z"/><path fill="#656AE4" d="M25.52 1.98H13.742v11.965H25.52V1.98Z"/><path fill="#6569E4" d="M25.46 1.922H13.684v11.965H25.46V1.922Z"/><path fill="#6569E4" d="M25.404 1.861H13.628v11.965h11.776V1.861Z"/><path fill="#6569E4" d="M25.344 1.8H13.568v11.966h11.776V1.8Z"/><path fill="#6569E4" d="M25.285 1.742H13.51v11.965h11.776V1.742Z"/><path fill="#6569E4" d="M25.228 1.684H13.452v11.964h11.776V1.684Z"/><path fill="#6669E4" d="M25.17 1.626H13.392v11.965H25.17V1.626Z"/><path fill="#6669E4" d="M25.11 1.567H13.334v11.965H25.11V1.567Z"/><path fill="#6668E4" d="M25.05 1.503H13.274v11.965H25.05V1.503Z"/><path fill="#6668E4" d="M24.993 1.445H13.217V13.41h11.776V1.445Z"/><path fill="#6668E4" d="M24.935 1.386H13.159V13.35h11.776V1.386Z"/><path fill="#6668E4" d="M24.875 1.327H13.1v11.965h11.776V1.327Z"/><path fill="#6768E4" d="M24.817 1.267H13.041V13.23h11.776V1.267Z"/><path fill="#6768E4" d="M24.759 1.208H12.983v11.965h11.776V1.208Z"/><path fill="#6768E4" d="M24.7 1.147H12.924v11.965H24.7V1.147Z"/><path fill="#6768E4" d="M24.641 1.088H12.865v11.965h11.776V1.088Z"/><path fill="#6767E4" d="M24.583 1.03H12.807v11.965h11.776V1.03Z"/><path fill="#6767E4" d="M24.525.97H12.749v11.965h11.776V.97Z"/><path fill="#6867E4" d="M24.466.912H12.69v11.965h11.776V.912Z"/><path fill="#6867E4" d="M24.406.85H12.63v11.965h11.776V.851Z"/><path fill="#6867E4" d="M24.348.792H12.572v11.965h11.776V.792Z"/><path fill="#6867E3" d="M24.29.731H12.516v11.965H24.29V.731Z"/><path fill="#6867E3" d="M24.23.674H12.454v11.965H24.23V.674Z"/><path fill="#6866E3" d="M24.172.612H12.396v11.965h11.776V.612Z"/><path fill="#6966E3" d="M24.113.554H12.337v11.964h11.776V.554Z"/><path fill="#6966E3" d="M24.055.494H12.279V12.46h11.776V.494Z"/><path fill="#6966E3" d="M23.997.434H12.221v11.964h11.776V.434Z"/><path fill="#6966E3" d="M23.939.374H12.163v11.965H23.94V.374Z"/><path fill="#6966E3" d="M23.88.316H12.104v11.965H23.88V.316Z"/><path fill="#6966E3" d="M23.82.255H12.044V12.22H23.82V.255Z"/><path fill="#6A65E3" d="M23.763.195H11.987V12.16h11.776V.195Z"/><path fill="#6A65E3" d="M23.704.137H11.928v11.965h11.776V.137Z"/><path fill="#6A65E3" d="M23.647.078H11.871v11.965h11.776V.078Z"/><path fill="#6A65E3" d="M23.585.018H11.81v11.964h11.776V.018Z"/><path fill="#6A65E3" d="M23.529.078H11.753v11.965h11.776V.078Z"/><path fill="#6A64E3" d="M23.47.137H11.692v11.965H23.47V.137Z"/><path fill="#6A64E3" d="M23.41.195H11.634V12.16H23.41V.195Z"/><path fill="#6A64E3" d="M23.354.255H11.578V12.22h11.776V.255Z"/><path fill="#6A64E3" d="M23.294.316H11.518v11.965h11.776V.316Z"/><path fill="#6A63E3" d="M23.236.374H11.46v11.965h11.776V.374Z"/><path fill="#6A63E3" d="M23.176.434H11.4v11.964h11.776V.434Z"/><path fill="#6A63E3" d="M23.117.494H11.341V12.46h11.776V.494Z"/><path fill="#6A63E3" d="M23.06.554H11.283v11.964H23.06V.554Z"/><path fill="#6A62E3" d="M23 .612H11.224v11.965H23V.612Z"/><path fill="#6A62E3" d="M22.942.674H11.166v11.965h11.776V.674Z"/><path fill="#6A62E3" d="M22.885.731H11.109v11.965h11.776V.731Z"/><path fill="#6A62E3" d="M22.823.792H11.047v11.965h11.776V.792Z"/><path fill="#6A61E3" d="M22.766.85H10.99v11.965h11.776V.851Z"/><path fill="#6A61E3" d="M22.707.912H10.931v11.965h11.776V.912Z"/><path fill="#6A61E3" d="M22.65.97H10.876v11.965H22.65V.97Z"/><path fill="#6B60E3" d="M22.59 1.03H10.812v11.965H22.59V1.03Z"/><path fill="#6B60E3" d="M22.533 1.088H10.757v11.965h11.776V1.088Z"/><path fill="#6B60E3" d="M22.473 1.147H10.697v11.965h11.776V1.147Z"/><path fill="#6B60E3" d="M22.416 1.208H10.64v11.965h11.776V1.208Z"/><path fill="#6B5FE2" d="M22.356 1.267H10.58V13.23h11.776V1.267Z"/><path fill="#6B5FE2" d="M22.297 1.327H10.521v11.965h11.776V1.327Z"/><path fill="#6B5FE2" d="M22.24 1.386H10.462V13.35H22.24V1.386Z"/><path fill="#6B5FE2" d="M22.181 1.445H10.405V13.41h11.776V1.445Z"/><path fill="#6B5EE2" d="M22.123 1.503H10.347v11.965h11.776V1.503Z"/><path fill="#6B5EE2" d="M22.063 1.567H10.287v11.965h11.776V1.567Z"/><path fill="#6B5EE2" d="M22.005 1.626H10.229v11.965h11.776V1.626Z"/><path fill="#6B5DE2" d="M21.945 1.684H10.169v11.964h11.776V1.684Z"/><path fill="#6B5DE2" d="M21.888 1.742H10.112v11.965h11.776V1.742Z"/><path fill="#6B5DE2" d="M21.83 1.8H10.053v11.966h11.775V1.8Z"/><path fill="#6B5DE2" d="M21.77 1.861H9.994v11.965H21.77V1.861Z"/><path fill="#6B5CE2" d="M21.71 1.922H9.936v11.965H21.71V1.922Z"/><path fill="#6B5CE2" d="M21.654 1.98H9.878v11.965h11.776V1.98Z"/><path fill="#6B5CE2" d="M21.594 2.043H9.818v11.965h11.776V2.043Z"/><path fill="#6B5CE2" d="M21.535 2.102H9.76v11.964h11.775V2.102Z"/><path fill="#6B5BE2" d="M21.477 2.162H9.7v11.965h11.777V2.162Z"/><path fill="#6B5BE2" d="M21.42 2.22H9.643v11.966h11.775V2.22Z"/><path fill="#6B5BE2" d="M21.36 2.28H9.584v11.964H21.36V2.28Z"/><path fill="#6B5BE2" d="M21.301 2.34H9.525v11.965h11.776V2.34Z"/><path fill="#6B5AE2" d="M21.245 2.397H9.469v11.965h11.776V2.397Z"/><path fill="#6B5AE2" d="M21.185 2.459H9.41v11.965h11.776V2.459Z"/><path fill="#6B5AE2" d="M21.127 2.518H9.35v11.964h11.776V2.518Z"/><path fill="#6B59E2" d="M21.067 2.578H9.29v11.965h11.776V2.578Z"/><path fill="#6B59E2" d="M21.01 2.637H9.234v11.965H21.01V2.637Z"/><path fill="#6B59E2" d="M20.951 2.696H9.175v11.965h11.776V2.696Z"/><path fill="#6B59E2" d="M20.891 2.755H9.115V14.72h11.776V2.755Z"/><path fill="#6B58E2" d="M20.833 2.815H9.057V14.78h11.776V2.815Z"/><path fill="#6B58E2" d="M20.773 2.876H8.997v11.965h11.776V2.876Z"/><path fill="#6B58E2" d="M20.716 2.935H8.94v11.964h11.776V2.935Z"/><path fill="#6B58E2" d="M20.657 2.993H8.881v11.965h11.776V2.993Z"/><path fill="#6C57E2" d="M20.599 3.054H8.823v11.964h11.776V3.054Z"/><path fill="#6C57E2" d="M20.542 3.112H8.766v11.965h11.776V3.112Z"/><path fill="#6C57E2" d="M20.48 3.173H8.704v11.965H20.48V3.173Z"/><path fill="#6C56E2" d="M20.424 3.23H8.647v11.965h11.777V3.23Z"/><path fill="#6C56E2" d="M20.364 3.292H8.588v11.965h11.776V3.292Z"/><path fill="#6C56E2" d="M20.307 3.35H8.531v11.965h11.776V3.351Z"/><path fill="#6C56E2" d="M20.247 3.411H8.471v11.965h11.776V3.411Z"/><path fill="#6C55E2" d="M20.189 3.47H8.413v11.965h11.776V3.47Z"/><path fill="#6C55E2" d="M20.13 3.532H8.354v11.965H20.13V3.532Z"/><path fill="#6C55E2" d="M20.072 3.589H8.296v11.965h11.776V3.589Z"/><path fill="#6C55E1" d="M20.014 3.65H8.238v11.964h11.776V3.65Z"/><path fill="#6C54E1" d="M19.954 3.708H8.178v11.965h11.776V3.708Z"/><path fill="#6C54E1" d="M19.897 3.768H8.121v11.964h11.776V3.768Z"/><path fill="#6C54E1" d="M19.837 3.828H8.06v11.965h11.776V3.828Z"/><path fill="#6C54E1" d="M19.778 3.888H8.002v11.964h11.776V3.888Z"/><path fill="#6C53E1" d="M19.72 3.948H7.944v11.965H19.72V3.948Z"/><path fill="#6C53E1" d="M19.663 4.006H7.887V15.97h11.776V4.006Z"/><path fill="#6C53E1" d="M19.601 4.066H7.825v11.965h11.776V4.066Z"/><path fill="#6C52E1" d="M19.545 4.125H7.769V16.09h11.776V4.125Z"/><path fill="#6C52E1" d="M19.485 4.186H7.71V16.15h11.776V4.186Z"/><path fill="#6C52E1" d="M19.427 4.242H7.651v11.965h11.776V4.242Z"/><path fill="#6C52E1" d="M19.367 4.303H7.591v11.965h11.776V4.303Z"/><path fill="#6C51E1" d="M19.31 4.365H7.534V16.33H19.31V4.365Z"/><path fill="#6C51E1" d="M19.252 4.424H7.476v11.965h11.776V4.424Z"/><path fill="#6C51E1" d="M19.192 4.481H7.416v11.965h11.776V4.481Z"/><path fill="#6C51E1" d="M19.134 4.54H7.358v11.965h11.776V4.54Z"/><path fill="#6C50E1" d="M19.075 4.602H7.3v11.964h11.776V4.602Z"/><path fill="#6C50E1" d="M19.017 4.662H7.241v11.965h11.776V4.662Z"/><path fill="#6C50E1" d="M18.957 4.72H7.181v11.965h11.776V4.72Z"/><path fill="#6C50E1" d="M18.901 4.78H7.125v11.964h11.776V4.78Z"/><path fill="#6C4FE1" d="M18.842 4.839H7.066v11.965h11.776V4.839Z"/><path fill="#6C4FE1" d="M18.782 4.896H7.006v11.965h11.776V4.896Z"/><path fill="#6C4FE1" d="M18.724 4.959H6.948v11.965h11.776V4.959Z"/><path fill="#6D4EE1" d="M18.666 5.019H6.89v11.964h11.776V5.02Z"/><path fill="#6D4EE1" d="M18.608 5.078H6.832v11.965h11.776V5.078Z"/><path fill="#6D4EE1" d="M18.55 5.136H6.772V17.1H18.55V5.136Z"/><path fill="#6D4EE1" d="M18.49 5.197H6.712v11.965H18.49V5.197Z"/><path fill="#6D4DE1" d="M18.433 5.257H6.656v11.965h11.777V5.257Z"/><path fill="#6D4DE1" d="M18.37 5.315H6.596V17.28H18.37V5.315Z"/><path fill="#6D4DE1" d="M18.314 5.373H6.54v11.965h11.775V5.373Z"/><path fill="#6D4DE1" d="M18.254 5.434H6.478v11.964h11.776V5.434Z"/><path fill="#6D4CE1" d="M18.198 5.493H6.422v11.965h11.776V5.493Z"/><path fill="#6D4CE1" d="M18.137 5.554H6.36v11.965h11.776V5.554Z"/><path fill="#6D4CE1" d="M18.08 5.614H6.302V17.58H18.08V5.614Z"/><path fill="#6D4BE1" d="M18.02 5.673H6.246v11.965H18.02V5.673Z"/><path fill="#6D4BE1" d="M17.963 5.731H6.187v11.965h11.776V5.731Z"/><path fill="#6D4BE1" d="M17.904 5.792H6.128v11.965h11.776V5.792Z"/><path fill="#6D4BE1" d="M17.846 5.852H6.07v11.964h11.776V5.852Z"/><path fill="#6D4AE1" d="M17.786 5.908H6.01v11.965h11.776V5.908Z"/><path fill="#6D4AE1" d="M17.728 5.97H5.952v11.966h11.776V5.97Z"/><path fill="#6D4AE0" d="M17.67 6.027H5.896v11.965H17.67V6.027Z"/><path fill="#6D4AE0" d="M17.611 6.093H5.835v11.965h11.776V6.093Z"/><path fill="#6D49E0" d="M17.554 6.148H5.778v11.965h11.776V6.148Z"/><path fill="#6D49E0" d="M17.495 6.209H5.719v11.965h11.776V6.209Z"/><path fill="#6D49E0" d="M17.436 6.268H5.66v11.964h11.776V6.268Z"/><path fill="#6D49E0" d="M17.376 6.328H5.6v11.965h11.776V6.328Z"/><path fill="#6D48E0" d="M17.32 6.387H5.542v11.965H17.32V6.387Z"/><path fill="#6D48E0" d="M17.26 6.447H5.486v11.965H17.26V6.447Z"/><path fill="#6D48E0" d="M17.201 6.506H5.426V18.47H17.2V6.506Z"/><path fill="#6D47E0" d="M17.143 6.564H5.367V18.53h11.776V6.564Z"/><path fill="#6D47E0" d="M17.083 6.622H5.307v11.965h11.776V6.622Z"/><path fill="#6D47E0" d="M17.026 6.684H5.25v11.964h11.776V6.684Z"/><path fill="#6D47E0" d="M16.967 6.744H5.19V18.71h11.776V6.744Z"/><path fill="#6D46E0" d="M16.908 6.804H5.132v11.965h11.776V6.803Z"/><path fill="#6D46E0" d="M16.849 6.865H5.073V18.83h11.776V6.865Z"/><path fill="#6D46E0" d="M16.792 6.92H5.016v11.966h11.776V6.92Z"/><path fill="#6D46E0" d="M16.732 6.982H4.956v11.965h11.776V6.982Z"/><path fill="#6E45E0" d="M16.673 7.04H4.897v11.965h11.776V7.04Z"/><path fill="#6E45E0" d="M16.615 7.104H4.839v11.964h11.776V7.104Z"/><path fill="#6E45E0" d="M16.558 7.16H4.782v11.964h11.776V7.159Z"/><path fill="#6E44E0" d="M16.498 7.222H4.722v11.964h11.776V7.222Z"/><path fill="#6E44E0" d="M16.44 7.281H4.663v11.965h11.775V7.281Z"/><path fill="#6E44E0" d="M16.38 7.338H4.604v11.965H16.38V7.338Z"/><path fill="#6E44E0" d="M16.323 7.4H4.547v11.964h11.776V7.4Z"/><path fill="#6E43E0" d="M16.264 7.46H4.488v11.965h11.776V7.46Z"/><path fill="#6E43E0" d="M16.205 7.517H4.429V19.48h11.776V7.517Z"/><path fill="#6E43E0" d="M16.146 7.58H4.37v11.964h11.776V7.579Z"/><path fill="#6E43E0" d="M16.088 7.636H4.313V19.6h11.776V7.636Z"/><path fill="#6E42E0" d="M16.03 7.695H4.254V19.66H16.03V7.695Z"/><path fill="#6E42E0" d="M15.97 7.757H4.196v11.965H15.97V7.757Z"/><path fill="#6E42E0" d="M15.911 7.814H4.135V19.78h11.776V7.814Z"/><path fill="#6E42E0" d="M15.855 7.876H4.08v11.965h11.776V7.876Z"/><path fill="#6E41E0" d="M15.796 7.937H4.02V19.9h11.776V7.937Z"/><path fill="#6E41E0" d="M15.737 7.995H3.96V19.96h11.776V7.995Z"/><path fill="#6E41E0" d="M15.677 8.053H3.901v11.964h11.776V8.053Z"/><path fill="#6E40E0" d="M15.619 8.113H3.843v11.965h11.776V8.113Z"/><path fill="#6E40E0" d="M15.56 8.174H3.786v11.965H15.56V8.174Z"/><path fill="#6E40E0" d="M15.502 8.233H3.726v11.965h11.776V8.233Z"/><path fill="#6E40E0" d="M15.445 8.293H3.669v11.965h11.776V8.293Z"/><path fill="#6E3FE0" d="M15.383 8.35H3.607v11.964h11.776V8.35Z"/><path fill="#6E3FDF" d="M15.327 8.41H3.55v11.965h11.776V8.41Z"/><path fill="#6E3FDF" d="M15.268 8.472H3.49v11.964h11.777V8.472Z"/><path fill="#6E3FDF" d="M15.21 8.53H3.436v11.964H15.21V8.53Z"/><path fill="#6E3EDF" d="M15.15 8.59H3.372v11.965H15.15V8.59Z"/><path fill="#6E3EDF" d="M15.093 8.65H3.317v11.965h11.776V8.65Z"/><path fill="#6E3EDF" d="M15.033 8.709H3.257v11.965h11.776V8.709Z"/><path fill="#6E3EDF" d="M14.975 8.767H3.198V20.73h11.777V8.767Z"/><path fill="#6E3DDF" d="M14.917 8.828H3.14v11.965h11.776V8.828Z"/><path fill="#6E3DDF" d="M14.859 8.887H3.083v11.965h11.776V8.887Z"/><path fill="#6E3DDF" d="M14.799 8.947H3.022v11.965H14.8V8.947Z"/><path fill="#6F3CDF" d="M14.74 9.005H2.964V20.97H14.74V9.005Z"/><path fill="#6F3CDF" d="M14.68 9.063H2.904v11.965H14.68V9.063Z"/><path fill="#6F3CDF" d="M14.624 9.126H2.848v11.965h11.776V9.126Z"/><path fill="#6F3CDF" d="M14.565 9.186H2.789V21.15h11.776V9.186Z"/><path fill="#6F3BDF" d="M14.505 9.246H2.73v11.965h11.776V9.246Z"/><path fill="#6F3BDF" d="M14.449 9.304H2.673v11.965h11.776V9.304Z"/><path fill="#6F3BDF" d="M14.39 9.362H2.612v11.965H14.39V9.362Z"/><path fill="#6F3BDF" d="M14.33 9.42H2.556v11.966H14.33V9.42Z"/><path fill="#6F3ADF" d="M14.272 9.483H2.496v11.965h11.776V9.483Z"/><path fill="#6F3ADF" d="M14.213 9.54H2.438v11.965h11.775V9.54Z"/><path fill="#6F3ADF" d="M14.156 9.603H2.38v11.964h11.776V9.603Z"/><path fill="#6F39DF" d="M14.095 9.658H2.32v11.965h11.775V9.658Z"/><path fill="#6F39DF" d="M14.037 9.722H2.261v11.964h11.776V9.722Z"/><path fill="#6F39DF" d="M13.98 9.78H2.204v11.964H13.98V9.78Z"/><path fill="#6F39DF" d="M13.92 9.839H2.146v11.965H13.92V9.839Z"/><path fill="#6F38DF" d="M13.86 9.9H2.086v11.964h11.776V9.9Z"/><path fill="#6F38DF" d="M13.805 9.957H2.029v11.965h11.776V9.957Z"/><path fill="#6F38DF" d="M13.746 10.019H1.97v11.964h11.776V10.02Z"/><path fill="#6F38DF" d="M13.686 10.076H1.91v11.965h11.776V10.076Z"/><path fill="#6F37DF" d="M13.627 10.137H1.85v11.965h11.776V10.137Z"/><path fill="#6F37DF" d="M13.568 10.198H1.792v11.965h11.776V10.198Z"/><path fill="#6F37DF" d="M13.509 10.256H1.733V22.22h11.776V10.256Z"/><path fill="#6F37DF" d="M13.452 10.316H1.676v11.965h11.776V10.316Z"/><path fill="#6F36DF" d="M13.392 10.376H1.616v11.965h11.776V10.376Z"/><path fill="#6F36DF" d="M13.334 10.434H1.558v11.964h11.776V10.434Z"/><path fill="#6F36DF" d="M13.274 10.492H1.5v11.965h11.775V10.492Z"/><path fill="#6F35DF" d="M13.218 10.553H1.442v11.965h11.776V10.553Z"/><path fill="#6F35DF" d="M13.159 10.613H1.383v11.965h11.776V10.613Z"/><path fill="#6F35DF" d="M13.102 10.672H1.326v11.965h11.776V10.672Z"/><path fill="#6F35DF" d="M13.043 10.731H1.267v11.965h11.776V10.731Z"/><path fill="#6F34DE" d="M12.983 10.791H1.207v11.965h11.776V10.79Z"/><path fill="#6F34DE" d="M12.924 10.854H1.148v11.964h11.776V10.853Z"/><path fill="#6F34DE" d="M12.866 10.91H1.09v11.964h11.776V10.909Z"/><path fill="#6F34DE" d="M12.808 10.97H1.032v11.965h11.776V10.97Z"/><path fill="#7033DE" d="M12.75 11.03H.972v11.965H12.75V11.03Z"/><path fill="#7033DE" d="M12.691 11.089H.916v11.965H12.69V11.089Z"/><path fill="#7033DE" d="M12.631 11.148H.855v11.964h11.776V11.148Z"/><path fill="#7032DE" d="M12.574 11.208H.798v11.965h11.776V11.208Z"/><path fill="#7032DE" d="M12.514 11.267H.74V23.23h11.775V11.267Z"/><path fill="#7032DE" d="M12.458 11.328H.682v11.965h11.776V11.328Z"/><path fill="#7032DE" d="M12.397 11.389H.62v11.965h11.776V11.389Z"/><path fill="#7031DE" d="M12.34 11.448H.564v11.965H12.34V11.448Z"/><path fill="#7031DE" d="M12.28 11.507H.506v11.965H12.28V11.507Z"/><path fill="#7031DE" d="M12.22 11.567H.446v11.965H12.22V11.567Z"/><path fill="#7031DE" d="M12.162 11.627H.386v11.965h11.776V11.627Z"/><path fill="#7030DE" d="M12.105 11.684H.329v11.964h11.776V11.684Z"/><path fill="#7030DE" d="M12.046 11.745H.27V23.71h11.776V11.745Z"/><path fill="#7030DE" d="M11.987 11.803H.21v11.965h11.776V11.803Z"/><path fill="#7030DE" d="M11.93 11.864H.154V23.83H11.93V11.864Z"/><path fill="#702FDE" d="M11.87 11.922H.094v11.965H11.87V11.922Z"/><path fill="#702FDE" d="M11.812 11.983H.036v11.965h11.776V11.983Z"/><path fill="#F7F746" d="M98.957 11.983H87.18v11.965h11.776V11.983Z"/><path fill="#F7F746" d="M98.896 11.922H87.12v11.965h11.776V11.922Z"/><path fill="#F6F746" d="M98.838 11.864H87.063V23.83h11.775V11.864Z"/><path fill="#F6F746" d="M98.78 11.803H87.006v11.965H98.78V11.803Z"/><path fill="#F6F746" d="M98.721 11.745H86.945V23.71h11.776V11.745Z"/><path fill="#F6F746" d="M98.665 11.684H86.89v11.964h11.776V11.684Z"/><path fill="#F5F747" d="M98.603 11.627H86.827v11.965h11.776V11.627Z"/><path fill="#F5F747" d="M98.546 11.567H86.77v11.965h11.776V11.567Z"/><path fill="#F5F647" d="M98.487 11.507H86.711v11.965h11.776V11.507Z"/><path fill="#F5F647" d="M98.43 11.448H86.654v11.965H98.43V11.448Z"/><path fill="#F4F647" d="M98.372 11.389H86.596v11.965h11.776V11.389Z"/><path fill="#F4F647" d="M98.312 11.328H86.536v11.965h11.776V11.328Z"/><path fill="#F4F647" d="M98.253 11.267H86.477V23.23h11.776V11.267Z"/><path fill="#F4F647" d="M98.193 11.208H86.417v11.965h11.776V11.208Z"/><path fill="#F3F647" d="M98.136 11.148H86.36v11.964h11.776V11.148Z"/><path fill="#F3F647" d="M98.079 11.089H86.303v11.965h11.776V11.089Z"/><path fill="#F3F648" d="M98.018 11.03H86.242v11.965h11.776V11.03Z"/><path fill="#F3F648" d="M97.96 10.97H86.184v11.965H97.96V10.97Z"/><path fill="#F2F648" d="M97.903 10.91H86.127v11.964h11.776V10.909Z"/><path fill="#F2F648" d="M97.844 10.854H86.068v11.964h11.776V10.853Z"/><path fill="#F2F648" d="M97.784 10.791H86.008v11.965h11.776V10.79Z"/><path fill="#F1F648" d="M97.726 10.731H85.95v11.965h11.776V10.731Z"/><path fill="#F1F648" d="M97.668 10.672H85.893v11.965h11.775V10.672Z"/><path fill="#F1F648" d="M97.607 10.613H85.831v11.965h11.776V10.613Z"/><path fill="#F1F548" d="M97.55 10.553H85.776v11.965H97.55V10.553Z"/><path fill="#F0F548" d="M97.49 10.492H85.714v11.965H97.49V10.492Z"/><path fill="#F0F548" d="M97.433 10.434H85.657v11.964h11.776V10.434Z"/><path fill="#F0F549" d="M97.376 10.376H85.6v11.965h11.776V10.376Z"/><path fill="#F0F549" d="M97.316 10.316H85.54v11.965h11.775V10.316Z"/><path fill="#EFF549" d="M97.257 10.256H85.48V22.22h11.776V10.256Z"/><path fill="#EFF549" d="M97.2 10.198H85.422v11.965H97.2V10.198Z"/><path fill="#EFF549" d="M97.14 10.137H85.364v11.965H97.14V10.137Z"/><path fill="#EFF549" d="M97.08 10.076H85.306v11.965H97.08V10.076Z"/><path fill="#EEF549" d="M97.022 10.019H85.247v11.964h11.775V10.02Z"/><path fill="#EEF549" d="M96.966 9.957H85.19v11.965h11.776V9.957Z"/><path fill="#EEF549" d="M96.904 9.9H85.128v11.964h11.776V9.9Z"/><path fill="#EEF549" d="M96.848 9.839H85.072v11.965h11.776V9.839Z"/><path fill="#EDF549" d="M96.788 9.78H85.012v11.964h11.776V9.78Z"/><path fill="#EDF54A" d="M96.73 9.722H84.952v11.964H96.73V9.722Z"/><path fill="#EDF44A" d="M96.673 9.658H84.897v11.965h11.776V9.658Z"/><path fill="#ECF44A" d="M96.612 9.603H84.836v11.964h11.776V9.603Z"/><path fill="#ECF44A" d="M96.554 9.54H84.778v11.965h11.776V9.54Z"/><path fill="#ECF44A" d="M96.494 9.483H84.718v11.965h11.776V9.483Z"/><path fill="#ECF44A" d="M96.438 9.42H84.662v11.966h11.776V9.42Z"/><path fill="#EBF44A" d="M96.38 9.362H84.602v11.965H96.38V9.362Z"/><path fill="#EBF44A" d="M96.319 9.304H84.543v11.964h11.776V9.304Z"/><path fill="#EBF44A" d="M96.26 9.246H84.484v11.965H96.26V9.246Z"/><path fill="#EBF44A" d="M96.203 9.186H84.427V21.15h11.776V9.186Z"/><path fill="#EAF44B" d="M96.144 9.126H84.368v11.965h11.776V9.126Z"/><path fill="#EAF44B" d="M96.085 9.063H84.309v11.965h11.776V9.063Z"/><path fill="#EAF44B" d="M96.026 9.005H84.25V20.97h11.776V9.005Z"/><path fill="#EAF44B" d="M95.97 8.947H84.192v11.965H95.97V8.947Z"/><path fill="#E9F44B" d="M95.91 8.887H84.133v11.965H95.91V8.887Z"/><path fill="#E9F44B" d="M95.851 8.828H84.075v11.965h11.776V8.828Z"/><path fill="#E9F44B" d="M95.791 8.767H84.015V20.73h11.776V8.767Z"/><path fill="#E8F34B" d="M95.734 8.709H83.958v11.965h11.776V8.709Z"/><path fill="#E8F34B" d="M95.676 8.65H83.9v11.965h11.776V8.65Z"/><path fill="#E8F34B" d="M95.616 8.59H83.84v11.965h11.776V8.59Z"/><path fill="#E8F34B" d="M95.558 8.53H83.782v11.964h11.776V8.53Z"/><path fill="#E7F34C" d="M95.5 8.472H83.724v11.964H95.5V8.472Z"/><path fill="#E7F34C" d="M95.44 8.41H83.665v11.965H95.44V8.41Z"/><path fill="#E7F34C" d="M95.382 8.35H83.606v11.964h11.776V8.35Z"/><path fill="#E7F34C" d="M95.325 8.293H83.549v11.965h11.775V8.293Z"/><path fill="#E6F34C" d="M95.263 8.233H83.487v11.965h11.776V8.233Z"/><path fill="#E6F34C" d="M95.206 8.174H83.43v11.965h11.776V8.174Z"/><path fill="#E6F34C" d="M95.147 8.113H83.372v11.965h11.775V8.113Z"/><path fill="#E6F34C" d="M95.088 8.053H83.312v11.964h11.776V8.053Z"/><path fill="#E5F34C" d="M95.03 7.995H83.252V19.96H95.03V7.995Z"/><path fill="#E5F34C" d="M94.973 7.937H83.197V19.9h11.776V7.937Z"/><path fill="#E5F34D" d="M94.913 7.876H83.137v11.965h11.776V7.876Z"/><path fill="#E5F24D" d="M94.854 7.814H83.078V19.78h11.776V7.814Z"/><path fill="#E4F24D" d="M94.796 7.757H83.019v11.965h11.776V7.757Z"/><path fill="#E4F24D" d="M94.738 7.695H82.962V19.66h11.776V7.695Z"/><path fill="#E4F24D" d="M94.679 7.636H82.903V19.6h11.776V7.636Z"/><path fill="#E3F24D" d="M94.62 7.58H82.842v11.964H94.62V7.579Z"/><path fill="#E3F24D" d="M94.563 7.517H82.787V19.48h11.776V7.517Z"/><path fill="#E3F24D" d="M94.503 7.458H82.727v11.965h11.776V7.458Z"/><path fill="#E3F24D" d="M94.445 7.4H82.669v11.964h11.776V7.4Z"/><path fill="#E2F24D" d="M94.385 7.338H82.609v11.965h11.776V7.338Z"/><path fill="#E2F24D" d="M94.328 7.281H82.552v11.965h11.776V7.281Z"/><path fill="#E2F24E" d="M94.27 7.222H82.494v11.964H94.27V7.222Z"/><path fill="#E2F24E" d="M94.21 7.16H82.434v11.964H94.21V7.159Z"/><path fill="#E1F24E" d="M94.151 7.104H82.375v11.964h11.776V7.104Z"/><path fill="#E1F24E" d="M94.095 7.04H82.319v11.964h11.776V7.039Z"/><path fill="#E1F24E" d="M94.034 6.982H82.258v11.965h11.776V6.982Z"/><path fill="#E1F24E" d="M93.976 6.92H82.2v11.966h11.776V6.92Z"/><path fill="#E0F14E" d="M93.917 6.865H82.14V18.83h11.776V6.865Z"/><path fill="#E0F14E" d="M93.86 6.804H82.084v11.965H93.86V6.804Z"/><path fill="#E0F14E" d="M93.798 6.744H82.022V18.71h11.776V6.744Z"/><path fill="#E0F14E" d="M93.741 6.684H81.965v11.964h11.776V6.684Z"/><path fill="#DFF14F" d="M93.682 6.622H81.906v11.965h11.776V6.622Z"/><path fill="#DFF14F" d="M93.623 6.564H81.847V18.53h11.776V6.564Z"/><path fill="#DFF14F" d="M93.567 6.506H81.791V18.47h11.776V6.506Z"/><path fill="#DEF14F" d="M93.507 6.447H81.73v11.965h11.776V6.447Z"/><path fill="#DEF14F" d="M93.448 6.387H81.672v11.965h11.776V6.387Z"/><path fill="#DEF14F" d="M93.391 6.328H81.615v11.965h11.776V6.328Z"/><path fill="#DEF14F" d="M93.332 6.268H81.556v11.964h11.776V6.268Z"/><path fill="#DDF14F" d="M93.274 6.209H81.498v11.965h11.776V6.209Z"/><path fill="#DDF14F" d="M93.213 6.148H81.437v11.965h11.776V6.148Z"/><path fill="#DDF14F" d="M93.155 6.093H81.379v11.965h11.776V6.093Z"/><path fill="#DDF14F" d="M93.097 6.027H81.321v11.965h11.776V6.027Z"/><path fill="#DCF050" d="M93.04 5.97H81.262v11.966h11.776V5.97Z"/><path fill="#DCF050" d="M92.979 5.908H81.203v11.965h11.776V5.908Z"/><path fill="#DCF050" d="M92.92 5.852H81.145v11.964H92.92V5.852Z"/><path fill="#DCF050" d="M92.863 5.792H81.087v11.965h11.776V5.792Z"/><path fill="#DBF050" d="M92.804 5.731H81.028v11.965h11.776V5.731Z"/><path fill="#DBF050" d="M92.748 5.673H80.972v11.965h11.776V5.673Z"/><path fill="#DBF050" d="M92.686 5.614H80.91V17.58h11.776V5.614Z"/><path fill="#DBF050" d="M92.629 5.554H80.853v11.965h11.776V5.554Z"/><path fill="#DAF050" d="M92.57 5.493H80.796v11.965H92.57V5.493Z"/><path fill="#DAF050" d="M92.51 5.434H80.736v11.964H92.51V5.434Z"/><path fill="#DAF050" d="M92.452 5.373H80.676v11.965h11.776V5.373Z"/><path fill="#D9F051" d="M92.394 5.315H80.618V17.28h11.776V5.315Z"/><path fill="#D9F051" d="M92.333 5.257H80.557v11.965h11.776V5.257Z"/><path fill="#D9F051" d="M92.276 5.197H80.5v11.965h11.776V5.197Z"/><path fill="#D9F051" d="M92.218 5.136H80.442V17.1h11.776V5.136Z"/><path fill="#D8EF51" d="M92.16 5.078H80.385v11.965H92.16V5.078Z"/><path fill="#D8EF51" d="M92.1 5.019H80.326v11.964h11.776V5.02Z"/><path fill="#D8EF51" d="M92.041 4.959H80.265v11.965h11.776V4.959Z"/><path fill="#D8EF51" d="M91.983 4.896H80.207v11.965h11.776V4.896Z"/><path fill="#D7EF51" d="M91.923 4.839H80.147v11.965h11.776V4.839Z"/><path fill="#D7EF51" d="M91.867 4.78H80.091v11.964h11.776V4.78Z"/><path fill="#D7EF52" d="M91.808 4.72H80.03v11.965h11.776V4.72Z"/><path fill="#D7EF52" d="M91.75 4.662H79.972v11.965H91.75V4.662Z"/><path fill="#D6EF52" d="M91.69 4.602H79.912v11.964H91.69V4.602Z"/><path fill="#D6EF52" d="M91.633 4.541H79.857v11.965h11.776V4.54Z"/><path fill="#D6EF52" d="M91.574 4.481H79.798v11.965h11.776V4.481Z"/><path fill="#D6EF52" d="M91.516 4.424H79.74v11.965h11.776V4.424Z"/><path fill="#D5EF52" d="M91.455 4.365H79.68V16.33h11.776V4.365Z"/><path fill="#D5EF52" d="M91.398 4.303H79.622v11.965h11.776V4.303Z"/><path fill="#D5EF52" d="M91.34 4.242H79.563v11.965h11.775V4.242Z"/><path fill="#D4EF52" d="M91.282 4.186H79.506V16.15h11.776V4.186Z"/><path fill="#D4EE52" d="M91.22 4.125H79.444V16.09H91.22V4.125Z"/><path fill="#D4EE53" d="M91.163 4.066H79.387v11.965h11.776V4.066Z"/><path fill="#D4EE53" d="M91.105 4.006H79.33V15.97h11.776V4.006Z"/><path fill="#D3EE53" d="M91.046 3.948H79.27v11.965h11.776V3.948Z"/><path fill="#D3EE53" d="M90.989 3.888H79.212v11.964H90.99V3.888Z"/><path fill="#D3EE53" d="M90.93 3.828H79.153v11.965H90.93V3.828Z"/><path fill="#D3EE53" d="M90.87 3.768H79.096v11.964H90.87V3.768Z"/><path fill="#D2EE53" d="M90.811 3.708H79.035v11.965h11.776V3.708Z"/><path fill="#D2EE53" d="M90.753 3.65H78.977v11.964h11.776V3.65Z"/><path fill="#D2EE53" d="M90.695 3.589H78.919v11.965h11.776V3.589Z"/><path fill="#D2EE53" d="M90.636 3.532H78.86v11.965h11.776V3.532Z"/><path fill="#D1EE54" d="M90.576 3.47H78.8v11.965h11.776V3.47Z"/><path fill="#D1EE54" d="M90.517 3.411H78.742v11.965h11.775V3.411Z"/><path fill="#D1EE54" d="M90.46 3.35H78.682v11.965H90.46V3.351Z"/><path fill="#D1EE54" d="M90.4 3.292H78.626v11.965H90.4V3.292Z"/><path fill="#D0ED54" d="M90.342 3.23H78.566v11.965h11.776V3.23Z"/><path fill="#D0ED54" d="M90.285 3.173H78.51v11.965h11.775V3.173Z"/><path fill="#D0ED54" d="M90.226 3.112H78.45v11.965h11.776V3.112Z"/><path fill="#CFED54" d="M90.168 3.054H78.392v11.964h11.776V3.054Z"/><path fill="#CFED54" d="M90.108 2.993H78.332v11.965h11.776V2.993Z"/><path fill="#CFED54" d="M90.051 2.935H78.275v11.964h11.776V2.935Z"/><path fill="#CFED54" d="M89.992 2.876H78.216v11.965h11.776V2.876Z"/><path fill="#CEED55" d="M89.933 2.815H78.157V14.78h11.776V2.815Z"/><path fill="#CEED55" d="M89.873 2.755H78.097V14.72h11.776V2.755Z"/><path fill="#CEED55" d="M89.817 2.696H78.041v11.965h11.776V2.696Z"/><path fill="#CEED55" d="M89.755 2.637H77.98V14.6h11.775V2.637Z"/><path fill="#CDED55" d="M89.699 2.578H77.922v11.965H89.7V2.578Z"/><path fill="#CDED55" d="M89.64 2.518H77.864v11.964H89.64V2.518Z"/><path fill="#CDED55" d="M89.58 2.459H77.804v11.965H89.58V2.459Z"/><path fill="#CDED55" d="M89.523 2.397H77.747v11.965h11.776V2.397Z"/><path fill="#CCED55" d="M89.464 2.34H77.69v11.965h11.775V2.34Z"/><path fill="#CCEC55" d="M89.406 2.28H77.63v11.964h11.776V2.28Z"/><path fill="#CCEC56" d="M89.347 2.22H77.57v11.966h11.776V2.22Z"/><path fill="#CBEC56" d="M89.289 2.162H77.513v11.965h11.776V2.162Z"/><path fill="#CBEC56" d="M89.23 2.102H77.454v11.964H89.23V2.102Z"/><path fill="#CBEC56" d="M89.17 2.043H77.396v11.965H89.17V2.043Z"/><path fill="#CBEC56" d="M89.112 1.98H77.336v11.965h11.776V1.98Z"/><path fill="#CAEC56" d="M89.055 1.922H77.279v11.965h11.776V1.922Z"/><path fill="#CAEC56" d="M88.995 1.861H77.219v11.965h11.776V1.861Z"/><path fill="#CAEC56" d="M88.936 1.8H77.16v11.966h11.776V1.8Z"/><path fill="#CAEC56" d="M88.877 1.742H77.101v11.965h11.776V1.742Z"/><path fill="#C9EC56" d="M88.82 1.684H77.044v11.964H88.82V1.684Z"/><path fill="#C9EC56" d="M88.762 1.625H76.986V13.59h11.776V1.625Z"/><path fill="#C9EC57" d="M88.702 1.567H76.926v11.965h11.776V1.567Z"/><path fill="#C9EC57" d="M88.644 1.503H76.868v11.965h11.776V1.503Z"/><path fill="#C8EC57" d="M88.585 1.445H76.81V13.41h11.775V1.445Z"/><path fill="#C8EB57" d="M88.527 1.386H76.751V13.35h11.776V1.386Z"/><path fill="#C8EB57" d="M88.468 1.327H76.692v11.965h11.776V1.327Z"/><path fill="#C8EB57" d="M88.41 1.267H76.636V13.23H88.41V1.267Z"/><path fill="#C7EB57" d="M88.35 1.208H76.574v11.965H88.35V1.208Z"/><path fill="#C7EB57" d="M88.292 1.147H76.516v11.965h11.776V1.147Z"/><path fill="#C7EB57" d="M88.234 1.088H76.458v11.965h11.776V1.088Z"/><path fill="#C6EB57" d="M88.177 1.03H76.401v11.965h11.776V1.03Z"/><path fill="#C6EB57" d="M88.115.97H76.339v11.964h11.776V.97Z"/><path fill="#C6EB58" d="M88.059.912H76.283v11.965h11.776V.912Z"/><path fill="#C6EB58" d="M88 .85H76.222v11.965H88V.851Z"/><path fill="#C5EB58" d="M87.94.792H76.165v11.965h11.777V.792Z"/><path fill="#C5EB58" d="M87.88.731H76.105v11.965H87.88V.731Z"/><path fill="#C5EB58" d="M87.824.674H76.048v11.965h11.776V.674Z"/><path fill="#C5EB58" d="M87.764.612H75.99v11.965h11.775V.612Z"/><path fill="#C4EB58" d="M87.706.554H75.93v11.964h11.776V.554Z"/><path fill="#C4EB58" d="M87.647.494H75.87V12.46h11.776V.494Z"/><path fill="#C4EA58" d="M87.59.434H75.813v11.964h11.775V.434Z"/><path fill="#C4EA58" d="M87.53.374H75.754v11.965H87.53V.374Z"/><path fill="#C3EA59" d="M87.471.316H75.695v11.965h11.776V.316Z"/><path fill="#C3EA59" d="M87.412.255H75.636V12.22h11.776V.255Z"/><path fill="#C3EA59" d="M87.356.195H75.58V12.16h11.776V.195Z"/><path fill="#C3EA59" d="M87.296.137H75.52v11.965h11.776V.136Z"/><path fill="#C2EA59" d="M87.237.078H75.46v11.965h11.776V.078Z"/><path fill="#C2EA59" d="M87.177.018H75.401v11.964h11.776V.018Z"/><path fill="#C1EA59" d="M87.121.078H75.345v11.965h11.776V.078Z"/><path fill="#C0EA5A" d="M87.062.137H75.286v11.965h11.776V.136Z"/><path fill="#BFEA5A" d="M87.002.195H75.226V12.16h11.776V.195Z"/><path fill="#BFEA5A" d="M86.946.255H75.17V12.22h11.776V.255Z"/><path fill="#BEEB5B" d="M86.886.316H75.11v11.965h11.776V.316Z"/><path fill="#BDEB5B" d="M86.828.374H75.052v11.965h11.776V.374Z"/><path fill="#BCEB5B" d="M86.769.434H74.993v11.964h11.776V.434Z"/><path fill="#BBEB5C" d="M86.71.494H74.932V12.46H86.71V.494Z"/><path fill="#BAEB5C" d="M86.65.554H74.874v11.964H86.65V.554Z"/><path fill="#BAEB5D" d="M86.592.612H74.816v11.965h11.776V.612Z"/><path fill="#B9EB5D" d="M86.534.674H74.758v11.965h11.776V.674Z"/><path fill="#B8EB5D" d="M86.478.731H74.702v11.965h11.776V.731Z"/><path fill="#B7EB5E" d="M86.416.792H74.64v11.965h11.776V.792Z"/><path fill="#B6EB5E" d="M86.359.85H74.583v11.965h11.776V.851Z"/><path fill="#B5EC5E" d="M86.3.912H74.524v11.965H86.3V.912Z"/><path fill="#B5EC5F" d="M86.24.97H74.466v11.964H86.24V.97Z"/><path fill="#B4EC5F" d="M86.183 1.03H74.407v11.965h11.776V1.03Z"/><path fill="#B3EC5F" d="M86.124 1.088H74.348v11.965h11.776V1.088Z"/><path fill="#B2EC60" d="M86.066 1.147H74.29v11.965h11.775V1.147Z"/><path fill="#B1EC60" d="M86.006 1.208H74.231v11.965h11.775V1.208Z"/><path fill="#B0EC60" d="M85.95 1.267H74.174V13.23h11.775V1.267Z"/><path fill="#B0EC61" d="M85.889 1.327H74.113v11.965h11.776V1.327Z"/><path fill="#AFEC61" d="M85.833 1.386H74.057V13.35h11.776V1.386Z"/><path fill="#AEED61" d="M85.771 1.445H73.995V13.41h11.776V1.445Z"/><path fill="#ADED62" d="M85.715 1.503H73.939v11.965h11.776V1.503Z"/><path fill="#ACED62" d="M85.656 1.567H73.88v11.965h11.776V1.567Z"/><path fill="#ABED63" d="M85.598 1.625H73.822V13.59h11.776V1.625Z"/><path fill="#AAED63" d="M85.538 1.684H73.76v11.964h11.777V1.684Z"/><path fill="#AAED63" d="M85.48 1.742H73.704v11.965H85.48V1.742Z"/><path fill="#A9ED64" d="M85.421 1.8H73.645v11.966h11.776V1.8Z"/><path fill="#A8ED64" d="M85.363 1.861H73.587v11.965h11.776V1.861Z"/><path fill="#A7ED64" d="M85.303 1.922H73.527v11.965h11.776V1.922Z"/><path fill="#A6ED65" d="M85.246 1.98H73.471v11.965h11.775V1.98Z"/><path fill="#A5EE65" d="M85.187 2.043H73.411v11.965h11.776V2.043Z"/><path fill="#A5EE65" d="M85.129 2.102H73.353v11.964h11.776V2.102Z"/><path fill="#A4EE66" d="M85.071 2.162H73.295v11.965h11.776V2.162Z"/><path fill="#A3EE66" d="M85.011 2.22H73.235v11.966h11.776V2.22Z"/><path fill="#A2EE66" d="M84.953 2.28H73.177v11.964h11.775V2.28Z"/><path fill="#A1EE67" d="M84.893 2.338H73.117v11.965h11.776V2.338Z"/><path fill="#A0EE67" d="M84.837 2.397H73.06v11.965h11.775V2.397Z"/><path fill="#A0EE67" d="M84.778 2.459H73.002v11.965h11.776V2.459Z"/><path fill="#9FEE68" d="M84.718 2.518H72.942v11.964h11.776V2.518Z"/><path fill="#9EEE68" d="M84.66 2.578H72.883v11.965h11.775V2.578Z"/><path fill="#9DEF69" d="M84.602 2.637H72.826V14.6h11.776V2.637Z"/><path fill="#9CEF69" d="M84.543 2.696H72.767v11.965h11.776V2.696Z"/><path fill="#9BEF69" d="M84.484 2.755H72.708V14.72h11.776V2.755Z"/><path fill="#9AEF6A" d="M84.425 2.815H72.65V14.78h11.776V2.815Z"/><path fill="#9AEF6A" d="M84.368 2.876H72.592v11.965h11.776V2.876Z"/><path fill="#99EF6A" d="M84.307 2.935H72.53v11.964h11.776V2.935Z"/><path fill="#98EF6B" d="M84.25 2.993H72.474v11.965H84.25V2.993Z"/><path fill="#97EF6B" d="M84.19 3.054H72.414v11.964H84.19V3.054Z"/><path fill="#96EF6B" d="M84.13 3.112H72.356v11.965H84.13V3.112Z"/><path fill="#95F06C" d="M84.075 3.173H72.299v11.965h11.776V3.173Z"/><path fill="#95F06C" d="M84.015 3.23H72.239v11.965h11.776V3.23Z"/><path fill="#94F06C" d="M83.959 3.292H72.183v11.965h11.776V3.292Z"/><path fill="#93F06D" d="M83.897 3.35H72.12v11.965h11.776V3.351Z"/><path fill="#92F06D" d="M83.84 3.411H72.064v11.965H83.84V3.411Z"/><path fill="#91F06D" d="M83.78 3.47H72.006v11.965H83.78V3.47Z"/><path fill="#90F06E" d="M83.724 3.532H71.948v11.965h11.776V3.532Z"/><path fill="#90F06E" d="M83.663 3.589H71.887v11.965h11.776V3.589Z"/><path fill="#8FF06F" d="M83.606 3.65H71.83v11.964h11.776V3.65Z"/><path fill="#8EF06F" d="M83.546 3.708H71.77v11.965h11.776V3.708Z"/><path fill="#8DF16F" d="M83.49 3.768H71.714v11.964H83.49V3.768Z"/><path fill="#8CF170" d="M83.43 3.828H71.654v11.965H83.43V3.828Z"/><path fill="#8BF170" d="M83.372 3.888H71.596v11.964h11.776V3.888Z"/><path fill="#8BF170" d="M83.312 3.948H71.536v11.965h11.776V3.948Z"/><path fill="#8AF171" d="M83.253 4.006H71.477V15.97h11.776V4.006Z"/><path fill="#89F171" d="M83.196 4.066H71.42v11.965h11.776V4.066Z"/><path fill="#88F171" d="M83.137 4.125H71.36V16.09h11.776V4.125Z"/><path fill="#87F172" d="M83.078 4.186H71.302V16.15h11.776V4.186Z"/><path fill="#86F172" d="M83.018 4.242H71.242v11.965h11.776V4.242Z"/><path fill="#85F272" d="M82.96 4.303H71.184v11.965H82.96V4.303Z"/><path fill="#85F273" d="M82.902 4.365H71.126V16.33h11.776V4.365Z"/><path fill="#84F273" d="M82.844 4.424H71.068v11.965h11.776V4.424Z"/><path fill="#83F273" d="M82.785 4.481H71.009v11.965h11.776V4.481Z"/><path fill="#82F274" d="M82.728 4.54H70.952v11.965h11.776V4.54Z"/><path fill="#81F274" d="M82.668 4.602H70.892v11.964h11.776V4.602Z"/><path fill="#80F275" d="M82.61 4.662H70.834v11.965h11.775V4.662Z"/><path fill="#80F275" d="M82.55 4.72H70.774v11.965H82.55V4.72Z"/><path fill="#7FF275" d="M82.493 4.78H70.718v11.964h11.775V4.78Z"/><path fill="#7EF276" d="M82.434 4.839H70.658v11.965h11.776V4.839Z"/><path fill="#7DF376" d="M82.376 4.896H70.6v11.965h11.776V4.896Z"/><path fill="#7CF376" d="M82.315 4.959H70.54v11.965h11.776V4.959Z"/><path fill="#7BF377" d="M82.259 5.019H70.483v11.964h11.776V5.02Z"/><path fill="#7BF377" d="M82.2 5.078H70.424v11.965H82.2V5.078Z"/><path fill="#7AF377" d="M82.14 5.136H70.365V17.1H82.14V5.136Z"/><path fill="#79F378" d="M82.083 5.197H70.307v11.965h11.776V5.197Z"/><path fill="#78F378" d="M82.025 5.257H70.249v11.965h11.776V5.257Z"/><path fill="#77F378" d="M81.966 5.315H70.19V17.28h11.776V5.315Z"/><path fill="#76F379" d="M81.907 5.373H70.13v11.965h11.776V5.373Z"/><path fill="#75F479" d="M81.847 5.434H70.071v11.964h11.776V5.434Z"/><path fill="#75F479" d="M81.79 5.493H70.014v11.965H81.79V5.493Z"/><path fill="#74F47A" d="M81.731 5.554H69.955v11.965h11.776V5.554Z"/><path fill="#73F47A" d="M81.673 5.614H69.897V17.58h11.776V5.614Z"/><path fill="#72F47B" d="M81.612 5.673H69.836v11.965h11.776V5.673Z"/><path fill="#71F47B" d="M81.554 5.731H69.778v11.965h11.776V5.731Z"/><path fill="#70F47B" d="M81.496 5.792H69.72v11.965h11.776V5.792Z"/><path fill="#70F47C" d="M81.438 5.852H69.662v11.964h11.776V5.852Z"/><path fill="#6FF47C" d="M81.381 5.908H69.605v11.965h11.776V5.908Z"/><path fill="#6EF47C" d="M81.322 5.97H69.546v11.966h11.776V5.97Z"/><path fill="#6DF57D" d="M81.263 6.027H69.487v11.965h11.776V6.027Z"/><path fill="#6CF57D" d="M81.203 6.093H69.427v11.965h11.776V6.093Z"/><path fill="#6BF57D" d="M81.144 6.148H69.368v11.965h11.776V6.148Z"/><path fill="#6BF57E" d="M81.088 6.209H69.312v11.965h11.776V6.209Z"/><path fill="#6AF57E" d="M81.028 6.268H69.252v11.964h11.776V6.268Z"/><path fill="#69F57E" d="M80.971 6.328H69.195v11.965h11.776V6.328Z"/><path fill="#68F57F" d="M80.91 6.387H69.134v11.965H80.91V6.387Z"/><path fill="#67F57F" d="M80.853 6.447H69.077v11.965h11.776V6.447Z"/><path fill="#66F580" d="M80.794 6.506H69.018V18.47h11.776V6.506Z"/><path fill="#66F580" d="M80.734 6.564H68.96V18.53h11.775V6.564Z"/><path fill="#65F680" d="M80.675 6.622H68.9v11.965h11.776V6.622Z"/><path fill="#64F681" d="M80.618 6.684H68.843v11.964h11.775V6.684Z"/><path fill="#63F681" d="M80.558 6.744H68.782V18.71h11.776V6.744Z"/><path fill="#62F681" d="M80.5 6.804H68.724v11.965H80.5V6.804Z"/><path fill="#61F682" d="M80.44 6.865H68.666V18.83H80.44V6.865Z"/><path fill="#60F682" d="M80.384 6.92H68.608v11.966h11.776V6.92Z"/><path fill="#60F682" d="M80.325 6.982H68.549v11.965h11.775V6.982Z"/><path fill="#5FF683" d="M80.266 7.04H68.49v11.964h11.776V7.039Z"/><path fill="#5EF683" d="M80.206 7.104H68.43v11.964h11.776V7.104Z"/><path fill="#5DF783" d="M80.149 7.16H68.373v11.964h11.776V7.159Z"/><path fill="#5CF784" d="M80.09 7.222H68.314v11.964H80.09V7.222Z"/><path fill="#5BF784" d="M80.031 7.281H68.255v11.965h11.776V7.281Z"/><path fill="#5BF784" d="M79.975 7.338H68.199v11.965h11.776V7.338Z"/><path fill="#5AF785" d="M79.915 7.4H68.14v11.964h11.776V7.4Z"/><path fill="#59F785" d="M79.856 7.458H68.08v11.965h11.776V7.458Z"/><path fill="#58F786" d="M79.797 7.517H68.022V19.48h11.775V7.517Z"/><path fill="#57F786" d="M79.738 7.58H67.962v11.964h11.776V7.579Z"/><path fill="#56F786" d="M79.681 7.636H67.905V19.6h11.776V7.636Z"/><path fill="#56F787" d="M79.622 7.695H67.846V19.66h11.776V7.695Z"/><path fill="#55F887" d="M79.562 7.757H67.786v11.965h11.776V7.757Z"/><path fill="#54F887" d="M79.505 7.814H67.73V19.78h11.775V7.814Z"/><path fill="#53F888" d="M79.445 7.876H67.669v11.965h11.776V7.876Z"/><path fill="#52F888" d="M79.388 7.937H67.612V19.9h11.776V7.937Z"/><path fill="#51F888" d="M79.328 7.995H67.552V19.96h11.776V7.995Z"/><path fill="#50F889" d="M79.271 8.053H67.495v11.964h11.776V8.053Z"/><path fill="#50F889" d="M79.213 8.113H67.437v11.965h11.776V8.113Z"/><path fill="#4FF889" d="M79.154 8.174H67.378v11.965h11.776V8.174Z"/><path fill="#4EF88A" d="M79.094 8.233H67.318v11.965h11.776V8.233Z"/><path fill="#4DF98A" d="M79.035 8.293H67.26v11.965h11.776V8.293Z"/><path fill="#4CF98A" d="M78.978 8.35H67.202v11.964h11.776V8.35Z"/><path fill="#4BF98B" d="M78.919 8.41H67.143v11.965h11.776V8.41Z"/><path fill="#4BF98B" d="M78.86 8.472H67.084v11.964H78.86V8.472Z"/><path fill="#4AF98C" d="M78.8 8.53H67.026v11.964H78.8V8.53Z"/><path fill="#49F98C" d="M78.744 8.59H66.968v11.965h11.776V8.59Z"/><path fill="#48F98C" d="M78.685 8.65H66.909v11.965h11.776V8.65Z"/><path fill="#47F98D" d="M78.627 8.709H66.851v11.965h11.776V8.709Z"/><path fill="#46F98D" d="M78.57 8.767H66.792V20.73H78.57V8.767Z"/><path fill="#46F98D" d="M78.51 8.828H66.734v11.965H78.51V8.828Z"/><path fill="#45FA8E" d="M78.45 8.887H66.674v11.965H78.45V8.887Z"/><path fill="#44FA8E" d="M78.391 8.947H66.615v11.965h11.776V8.947Z"/><path fill="#43FA8E" d="M78.333 9.005H66.557V20.97h11.776V9.005Z"/><path fill="#42FA8F" d="M78.275 9.063H66.499v11.965h11.776V9.063Z"/><path fill="#41FA8F" d="M78.217 9.126H66.44v11.965h11.776V9.126Z"/><path fill="#41FA8F" d="M78.157 9.186H66.38V21.15h11.776V9.186Z"/><path fill="#40FA90" d="M78.097 9.246H66.321v11.965h11.776V9.246Z"/><path fill="#3FFA90" d="M78.041 9.304H66.265v11.964h11.776V9.304Z"/><path fill="#3EFA90" d="M77.982 9.362H66.206v11.965h11.776V9.362Z"/><path fill="#3DFB91" d="M77.923 9.42H66.147v11.966h11.776V9.42Z"/><path fill="#3CFB91" d="M77.864 9.483H66.088v11.965h11.776V9.483Z"/><path fill="#3BFB92" d="M77.806 9.54H66.03v11.965h11.776V9.54Z"/><path fill="#3BFB92" d="M77.748 9.603H65.972v11.964h11.776V9.603Z"/><path fill="#3AFB92" d="M77.688 9.658H65.912v11.965h11.776V9.658Z"/><path fill="#39FB93" d="M77.632 9.722H65.856v11.964h11.776V9.722Z"/><path fill="#38FB93" d="M77.572 9.78H65.796v11.964h11.776V9.78Z"/><path fill="#37FB93" d="M77.513 9.839H65.737v11.965h11.776V9.839Z"/><path fill="#36FB94" d="M77.454 9.9H65.678v11.964h11.776V9.9Z"/><path fill="#36FB94" d="M77.396 9.957H65.62v11.965h11.776V9.957Z"/><path fill="#35FC94" d="M77.338 10.019H65.562v11.964h11.776V10.02Z"/><path fill="#34FC95" d="M77.279 10.076H65.503v11.965h11.776V10.076Z"/><path fill="#33FC95" d="M77.22 10.137H65.442v11.965H77.22V10.137Z"/><path fill="#32FC95" d="M77.163 10.198H65.387v11.965h11.776V10.198Z"/><path fill="#31FC96" d="M77.102 10.256H65.326V22.22h11.776V10.256Z"/><path fill="#31FC96" d="M77.045 10.316H65.269v11.965h11.776V10.316Z"/><path fill="#30FC96" d="M76.985 10.376H65.209v11.965h11.776V10.376Z"/><path fill="#2FFC97" d="M76.927 10.434H65.15v11.964h11.776V10.434Z"/><path fill="#2EFC97" d="M76.869 10.492H65.093v11.965h11.776V10.492Z"/><path fill="#2DFC98" d="M76.81 10.553H65.034v11.965H76.81V10.553Z"/><path fill="#2CFD98" d="M76.75 10.613H64.976v11.965H76.75V10.613Z"/><path fill="#2BFD98" d="M76.692 10.672H64.916v11.965h11.776V10.672Z"/><path fill="#2BFD99" d="M76.635 10.731H64.859v11.965h11.776V10.731Z"/><path fill="#2AFD99" d="M76.576 10.791H64.8v11.965h11.776V10.79Z"/><path fill="#29FD99" d="M76.519 10.854H64.743v11.964h11.776V10.853Z"/><path fill="#28FD9A" d="M76.458 10.91H64.682v11.964h11.776V10.909Z"/><path fill="#27FD9A" d="M76.4 10.97H64.624v11.965H76.4V10.97Z"/><path fill="#26FD9A" d="M76.341 11.03H64.565v11.965h11.776V11.03Z"/><path fill="#26FD9B" d="M76.282 11.089H64.506v11.965h11.776V11.089Z"/><path fill="#25FE9B" d="M76.225 11.148H64.45v11.964h11.776V11.148Z"/><path fill="#24FE9B" d="M76.166 11.208H64.39v11.965h11.776V11.208Z"/><path fill="#23FE9C" d="M76.107 11.267H64.331V23.23h11.776V11.267Z"/><path fill="#22FE9C" d="M76.048 11.328H64.272v11.965h11.776V11.328Z"/><path fill="#21FE9C" d="M75.99 11.389H64.216v11.965H75.99V11.389Z"/><path fill="#21FE9D" d="M75.932 11.448H64.156v11.965h11.776V11.448Z"/><path fill="#20FE9D" d="M75.873 11.507H64.097v11.965h11.776V11.507Z"/><path fill="#1FFE9E" d="M75.813 11.567H64.037v11.965h11.776V11.567Z"/><path fill="#1EFE9E" d="M75.755 11.627H63.979v11.965h11.776V11.627Z"/><path fill="#1DFE9E" d="M75.697 11.684H63.921v11.964h11.776V11.684Z"/><path fill="#1CFF9F" d="M75.638 11.745H63.862V23.71h11.776V11.745Z"/><path fill="#1CFF9F" d="M75.579 11.803H63.803v11.965h11.776V11.803Z"/><path fill="#1BFF9F" d="M75.522 11.864H63.746V23.83h11.776V11.864Z"/><path fill="#1AFFA0" d="M75.46 11.922H63.686v11.965H75.46V11.922Z"/><path fill="#19FFA0" d="M75.403 11.983H63.627v11.965h11.776V11.983Z"/><path fill="#19FFA0" d="M75.345 11.922H63.57v11.965h11.776V11.922Z"/><path fill="#19FFA0" d="M75.289 11.864H63.512V23.83H75.29V11.864Z"/><path fill="#19FFA1" d="M75.229 11.803H63.453v11.965h11.776V11.803Z"/><path fill="#19FEA1" d="M75.17 11.745H63.394V23.71H75.17V11.745Z"/><path fill="#19FEA1" d="M75.11 11.684H63.334v11.964H75.11V11.684Z"/><path fill="#19FEA1" d="M75.054 11.627H63.278v11.965h11.776V11.627Z"/><path fill="#19FEA2" d="M74.995 11.567H63.218v11.965h11.776V11.567Z"/><path fill="#19FEA2" d="M74.935 11.507H63.16v11.965h11.776V11.507Z"/><path fill="#18FEA2" d="M74.879 11.448H63.102v11.965H74.88V11.448Z"/><path fill="#18FDA2" d="M74.818 11.389H63.042v11.965h11.776V11.389Z"/><path fill="#18FDA3" d="M74.76 11.328H62.986v11.965H74.76V11.328Z"/><path fill="#18FDA3" d="M74.7 11.267H62.924V23.23H74.7V11.267Z"/><path fill="#18FDA3" d="M74.642 11.208H62.866v11.965h11.776V11.208Z"/><path fill="#18FDA3" d="M74.583 11.148H62.807v11.964h11.776V11.148Z"/><path fill="#18FDA4" d="M74.525 11.089H62.75v11.965h11.776V11.089Z"/><path fill="#18FDA4" d="M74.467 11.03H62.691v11.965h11.776V11.03Z"/><path fill="#18FCA4" d="M74.407 10.97H62.631v11.965h11.776V10.97Z"/><path fill="#18FCA4" d="M74.35 10.91H62.574v11.964H74.35V10.909Z"/><path fill="#18FCA4" d="M74.292 10.854H62.516v11.964h11.776V10.853Z"/><path fill="#18FCA5" d="M74.233 10.791H62.457v11.965h11.776V10.79Z"/><path fill="#18FCA5" d="M74.173 10.731H62.397v11.965h11.776V10.731Z"/><path fill="#18FCA5" d="M74.116 10.672H62.34v11.965h11.776V10.672Z"/><path fill="#18FBA5" d="M74.058 10.613H62.282v11.965h11.776V10.613Z"/><path fill="#18FBA6" d="M73.997 10.553H62.221v11.965h11.776V10.553Z"/><path fill="#18FBA6" d="M73.94 10.492H62.163v11.965h11.775V10.492Z"/><path fill="#17FBA6" d="M73.882 10.434H62.106v11.964h11.776V10.434Z"/><path fill="#17FBA6" d="M73.822 10.376H62.046v11.965h11.776V10.376Z"/><path fill="#17FBA7" d="M73.763 10.316H61.987v11.965h11.776V10.316Z"/><path fill="#17FBA7" d="M73.705 10.256H61.928V22.22h11.777V10.256Z"/><path fill="#17FAA7" d="M73.648 10.198H61.872v11.965h11.776V10.198Z"/><path fill="#17FAA7" d="M73.588 10.137H61.812v11.965h11.776V10.137Z"/><path fill="#17FAA7" d="M73.53 10.076H61.752v11.965H73.53V10.076Z"/><path fill="#17FAA8" d="M73.47 10.019H61.696v11.964H73.47V10.02Z"/><path fill="#17FAA8" d="M73.411 9.957H61.635v11.965h11.776V9.957Z"/><path fill="#17FAA8" d="M73.355 9.9H61.58v11.964h11.776V9.9Z"/><path fill="#17F9A8" d="M73.294 9.839H61.518v11.965h11.776V9.839Z"/><path fill="#17F9A9" d="M73.235 9.78H61.46v11.964h11.776V9.78Z"/><path fill="#17F9A9" d="M73.179 9.722H61.403v11.964H73.18V9.722Z"/><path fill="#17F9A9" d="M73.12 9.658H61.343v11.965H73.12V9.658Z"/><path fill="#17F9A9" d="M73.06 9.603H61.286v11.964H73.06V9.603Z"/><path fill="#17F9AA" d="M73.001 9.54H61.225v11.965h11.776V9.54Z"/><path fill="#16F9AA" d="M72.945 9.483H61.168v11.965h11.777V9.483Z"/><path fill="#16F8AA" d="M72.886 9.42H61.11v11.966h11.776V9.42Z"/><path fill="#16F8AA" d="M72.826 9.362H61.05v11.965h11.776V9.362Z"/><path fill="#16F8AB" d="M72.767 9.304H60.991v11.964h11.776V9.304Z"/><path fill="#16F8AB" d="M72.707 9.246H60.931v11.965h11.776V9.246Z"/><path fill="#16F8AB" d="M72.651 9.186H60.877V21.15h11.776V9.186Z"/><path fill="#16F8AB" d="M72.592 9.126H60.816v11.965h11.776V9.126Z"/><path fill="#16F7AB" d="M72.535 9.063H60.76v11.965h11.776V9.063Z"/><path fill="#16F7AC" d="M72.474 9.005H60.697V20.97h11.777V9.005Z"/><path fill="#16F7AC" d="M72.416 8.947H60.64v11.965h11.776V8.947Z"/><path fill="#16F7AC" d="M72.358 8.887H60.582v11.965h11.776V8.887Z"/><path fill="#16F7AC" d="M72.298 8.828H60.522v11.965h11.776V8.828Z"/><path fill="#16F7AD" d="M72.24 8.767H60.464V20.73H72.24V8.767Z"/><path fill="#16F7AD" d="M72.183 8.709H60.407v11.965h11.776V8.709Z"/><path fill="#16F6AD" d="M72.122 8.65H60.346v11.965h11.776V8.65Z"/><path fill="#16F6AD" d="M72.067 8.59H60.29v11.965h11.776V8.59Z"/><path fill="#16F6AE" d="M72.005 8.53H60.229v11.964h11.776V8.53Z"/><path fill="#15F6AE" d="M71.948 8.472H60.172v11.964h11.776V8.472Z"/><path fill="#15F6AE" d="M71.889 8.41H60.113v11.965h11.776V8.41Z"/><path fill="#15F6AE" d="M71.83 8.35H60.052v11.964H71.83V8.35Z"/><path fill="#15F5AE" d="M71.773 8.293H59.997v11.965h11.776V8.293Z"/><path fill="#15F5AF" d="M71.714 8.233H59.938v11.965h11.776V8.233Z"/><path fill="#15F5AF" d="M71.655 8.174H59.879v11.965h11.776V8.174Z"/><path fill="#15F5AF" d="M71.595 8.113H59.82v11.965h11.776V8.113Z"/><path fill="#15F5AF" d="M71.538 8.053H59.763v11.964h11.775V8.053Z"/><path fill="#15F5B0" d="M71.48 7.995H59.704V19.96H71.48V7.995Z"/><path fill="#15F5B0" d="M71.422 7.937H59.648V19.9h11.776V7.937Z"/><path fill="#15F4B0" d="M71.362 7.876H59.586v11.965h11.776V7.876Z"/><path fill="#15F4B0" d="M71.303 7.814H59.527V19.78h11.776V7.814Z"/><path fill="#15F4B1" d="M71.245 7.757H59.469v11.965h11.776V7.757Z"/><path fill="#15F4B1" d="M71.186 7.695H59.41V19.66h11.776V7.695Z"/><path fill="#15F4B1" d="M71.127 7.636H59.35V19.6h11.776V7.636Z"/><path fill="#15F4B1" d="M71.07 7.58H59.294v11.964H71.07V7.579Z"/><path fill="#15F3B2" d="M71.008 7.517H59.232V19.48h11.776V7.517Z"/><path fill="#14F3B2" d="M70.952 7.458H59.176v11.965h11.776V7.458Z"/><path fill="#14F3B2" d="M70.892 7.4H59.117v11.964h11.775V7.4Z"/><path fill="#14F3B2" d="M70.836 7.338H59.06v11.965h11.776V7.338Z"/><path fill="#14F3B2" d="M70.777 7.281H59v11.965h11.776V7.281Z"/><path fill="#14F3B3" d="M70.717 7.222H58.94v11.964h11.776V7.222Z"/><path fill="#14F3B3" d="M70.658 7.16H58.882v11.964h11.776V7.159Z"/><path fill="#14F2B3" d="M70.599 7.104H58.823v11.964h11.776V7.104Z"/><path fill="#14F2B3" d="M70.542 7.04H58.766v11.964h11.776V7.039Z"/><path fill="#14F2B4" d="M70.483 6.982H58.707v11.965h11.776V6.982Z"/><path fill="#14F2B4" d="M70.425 6.92H58.65v11.966h11.776V6.92Z"/><path fill="#14F2B4" d="M70.367 6.865H58.59V18.83h11.776V6.865Z"/><path fill="#14F2B4" d="M70.308 6.804H58.53v11.965h11.777V6.804Z"/><path fill="#14F1B5" d="M70.249 6.744H58.473V18.71h11.776V6.744Z"/><path fill="#14F1B5" d="M70.192 6.684H58.416v11.964h11.776V6.684Z"/><path fill="#14F1B5" d="M70.132 6.622H58.356v11.965h11.776V6.622Z"/><path fill="#14F1B5" d="M70.074 6.564H58.298V18.53h11.776V6.564Z"/><path fill="#14F1B6" d="M70.013 6.506H58.237V18.47h11.776V6.506Z"/><path fill="#13F1B6" d="M69.957 6.447H58.181v11.965h11.776V6.447Z"/><path fill="#13F1B6" d="M69.898 6.387H58.122v11.965h11.776V6.387Z"/><path fill="#13F0B6" d="M69.839 6.328H58.063v11.965h11.776V6.328Z"/><path fill="#13F0B6" d="M69.78 6.268H58.004v11.964H69.78V6.268Z"/><path fill="#13F0B7" d="M69.72 6.209H57.944v11.965H69.72V6.209Z"/><path fill="#13F0B7" d="M69.662 6.148H57.886v11.965h11.776V6.148Z"/><path fill="#13F0B7" d="M69.604 6.093H57.828v11.965h11.776V6.093Z"/><path fill="#13F0B7" d="M69.546 6.027H57.769v11.965h11.777V6.027Z"/><path fill="#13EFB8" d="M69.487 5.97H57.71v11.966h11.776V5.97Z"/><path fill="#13EFB8" d="M69.43 5.908H57.652v11.965H69.43V5.908Z"/><path fill="#13EFB8" d="M69.37 5.852H57.594v11.964H69.37V5.852Z"/><path fill="#13EFB8" d="M69.31 5.792H57.534v11.965H69.31V5.792Z"/><path fill="#13EFB9" d="M69.252 5.731H57.476v11.965h11.776V5.731Z"/><path fill="#13EFB9" d="M69.195 5.673H57.419v11.965h11.776V5.673Z"/><path fill="#13EEB9" d="M69.136 5.614H57.36V17.58h11.776V5.614Z"/><path fill="#13EEB9" d="M69.077 5.554H57.301v11.965h11.776V5.554Z"/><path fill="#12EEB9" d="M69.02 5.493H57.244v11.965H69.02V5.493Z"/><path fill="#12EEBA" d="M68.96 5.434H57.186v11.964H68.96V5.434Z"/><path fill="#12EEBA" d="M68.901 5.373H57.127v11.965h11.776V5.373Z"/><path fill="#12EEBA" d="M68.843 5.315H57.067V17.28h11.776V5.315Z"/><path fill="#12EEBA" d="M68.786 5.257H57.01v11.965h11.776V5.257Z"/><path fill="#12EDBB" d="M68.726 5.197H56.95v11.965h11.776V5.197Z"/><path fill="#12EDBB" d="M68.667 5.136H56.89V17.1h11.776V5.136Z"/><path fill="#12EDBB" d="M68.608 5.078H56.832v11.965h11.776V5.078Z"/><path fill="#12EDBB" d="M68.549 5.019H56.773v11.964h11.776V5.02Z"/><path fill="#12EDBC" d="M68.49 4.959H56.712v11.965H68.49V4.959Z"/><path fill="#12EDBC" d="M68.432 4.896H56.656v11.965h11.776V4.896Z"/><path fill="#12ECBC" d="M68.374 4.839H56.598v11.965h11.776V4.839Z"/><path fill="#12ECBC" d="M68.316 4.78H56.54v11.964h11.776V4.78Z"/><path fill="#12ECBD" d="M68.258 4.72H56.482v11.965h11.776V4.72Z"/><path fill="#12ECBD" d="M68.2 4.662H56.422v11.965H68.2V4.662Z"/><path fill="#12ECBD" d="M68.14 4.602H56.364v11.964H68.14V4.602Z"/><path fill="#12ECBD" d="M68.082 4.54H56.306v11.965h11.776V4.54Z"/><path fill="#11ECBD" d="M68.022 4.481H56.246v11.965h11.776V4.481Z"/><path fill="#11EBBE" d="M67.964 4.424H56.188v11.965h11.776V4.424Z"/><path fill="#11EBBE" d="M67.904 4.365H56.128V16.33h11.776V4.365Z"/><path fill="#11EBBE" d="M67.848 4.303H56.072v11.965h11.776V4.303Z"/><path fill="#11EBBE" d="M67.79 4.242H56.012v11.965H67.79V4.242Z"/><path fill="#11EBBF" d="M67.73 4.186H55.952V16.15H67.73V4.186Z"/><path fill="#11EBBF" d="M67.673 4.125H55.897V16.09h11.776V4.125Z"/><path fill="#11EABF" d="M67.611 4.066H55.835v11.965h11.776V4.066Z"/><path fill="#11EABF" d="M67.555 4.006H55.779V15.97h11.776V4.006Z"/><path fill="#11EAC0" d="M67.496 3.948H55.72v11.965h11.776V3.948Z"/><path fill="#11EAC0" d="M67.437 3.888H55.661v11.964h11.776V3.888Z"/><path fill="#11EAC0" d="M67.377 3.828H55.601v11.965h11.776V3.828Z"/><path fill="#11EAC0" d="M67.32 3.768H55.544v11.964H67.32V3.768Z"/><path fill="#11EAC1" d="M67.261 3.708H55.485v11.965h11.776V3.708Z"/><path fill="#11E9C1" d="M67.203 3.65H55.425v11.964h11.776V3.65Z"/><path fill="#11E9C1" d="M67.143 3.589H55.367v11.965h11.776V3.589Z"/><path fill="#11E9C1" d="M67.086 3.532H55.31v11.965h11.776V3.532Z"/><path fill="#10E9C1" d="M67.026 3.47H55.251v11.965h11.775V3.47Z"/><path fill="#10E9C2" d="M66.968 3.411H55.192v11.965h11.776V3.411Z"/><path fill="#10E9C2" d="M66.909 3.35H55.133v11.965h11.776V3.351Z"/><path fill="#10E8C2" d="M66.852 3.292H55.076v11.965h11.776V3.292Z"/><path fill="#10E8C2" d="M66.793 3.23H55.017v11.965h11.776V3.23Z"/><path fill="#10E8C3" d="M66.734 3.173H54.958v11.965h11.776V3.173Z"/><path fill="#10E8C3" d="M66.676 3.112H54.9v11.965h11.776V3.112Z"/><path fill="#10E8C3" d="M66.618 3.054H54.842v11.964h11.776V3.054Z"/><path fill="#10E8C3" d="M66.558 2.993H54.782v11.965h11.776V2.993Z"/><path fill="#10E8C4" d="M66.5 2.935H54.722v11.964H66.5V2.935Z"/><path fill="#10E7C4" d="M66.442 2.876H54.666v11.965h11.776V2.876Z"/><path fill="#10E7C4" d="M66.383 2.815H54.607V14.78h11.776V2.815Z"/><path fill="#10E7C4" d="M66.324 2.755H54.548V14.72h11.776V2.755Z"/><path fill="#10E7C4" d="M66.265 2.696H54.489v11.965h11.776V2.696Z"/><path fill="#10E7C5" d="M66.205 2.637H54.429V14.6h11.776V2.637Z"/><path fill="#10E7C5" d="M66.147 2.578H54.37v11.965h11.776V2.578Z"/><path fill="#10E6C5" d="M66.09 2.518H54.314v11.964H66.09V2.518Z"/><path fill="#0FE6C5" d="M66.03 2.459H54.256v11.965H66.03V2.459Z"/><path fill="#0FE6C6" d="M65.974 2.397H54.198v11.965h11.776V2.397Z"/><path fill="#0FE6C6" d="M65.914 2.34H54.138v11.965h11.776V2.34Z"/><path fill="#0FE6C6" d="M65.855 2.28H54.08v11.964h11.776V2.28Z"/><path fill="#0FE6C6" d="M65.796 2.22H54.02v11.966h11.776V2.22Z"/><path fill="#0FE6C7" d="M65.739 2.162H53.963v11.965h11.776V2.162Z"/><path fill="#0FE5C7" d="M65.68 2.102H53.904v11.964H65.68V2.102Z"/><path fill="#0FE5C7" d="M65.62 2.043H53.844v11.965H65.62V2.043Z"/><path fill="#0FE5C7" d="M65.564 1.98H53.788v11.965h11.776V1.98Z"/><path fill="#0FE5C8" d="M65.502 1.922H53.726v11.965h11.776V1.922Z"/><path fill="#0FE5C8" d="M65.445 1.861H53.67v11.965h11.776V1.861Z"/><path fill="#0FE5C8" d="M65.387 1.8H53.611v11.966h11.776V1.8Z"/><path fill="#0FE4C8" d="M65.33 1.742H53.554v11.965H65.33V1.742Z"/><path fill="#0FE4C8" d="M65.27 1.684H53.496v11.964H65.27V1.684Z"/><path fill="#0FE4C9" d="M65.211 1.625H53.435V13.59h11.776V1.625Z"/><path fill="#0FE4C9" d="M65.152 1.567H53.376v11.965h11.776V1.567Z"/><path fill="#0EE4C9" d="M65.096 1.503H53.32v11.965h11.776V1.503Z"/><path fill="#0EE4C9" d="M65.034 1.445H53.258V13.41h11.776V1.445Z"/><path fill="#0EE4CA" d="M64.977 1.386H53.2V13.35h11.776V1.386Z"/><path fill="#0EE3CA" d="M64.918 1.327H53.142v11.965h11.776V1.327Z"/><path fill="#0EE3CA" d="M64.86 1.267H53.084V13.23h11.775V1.267Z"/><path fill="#0EE3CA" d="M64.802 1.208H53.026v11.965h11.776V1.208Z"/><path fill="#0EE3CB" d="M64.742 1.147H52.966v11.965h11.776V1.147Z"/><path fill="#0EE3CB" d="M64.684 1.088H52.908v11.965h11.776V1.088Z"/><path fill="#0EE3CB" d="M64.624 1.03H52.848v11.965h11.776V1.03Z"/><path fill="#0EE2CB" d="M64.568.97H52.792v11.964h11.776V.97Z"/><path fill="#0EE2CB" d="M64.509.912H52.733v11.965h11.776V.912Z"/><path fill="#0EE2CC" d="M64.449.85H52.673v11.965h11.776V.851Z"/><path fill="#0EE2CC" d="M64.39.792H52.614v11.965H64.39V.792Z"/><path fill="#0EE2CC" d="M64.332.731H52.556v11.965h11.776V.731Z"/><path fill="#0EE2CC" d="M64.275.674H52.499v11.965h11.776V.674Z"/><path fill="#0EE2CD" d="M64.215.612H52.44v11.965h11.776V.612Z"/><path fill="#0EE1CD" d="M64.155.554H52.38v11.964h11.776V.554Z"/><path fill="#0DE1CD" d="M64.099.494H52.323V12.46h11.776V.494Z"/><path fill="#0DE1CD" d="M64.037.434H52.261v11.964h11.776V.434Z"/><path fill="#0DE1CE" d="M63.981.374H52.206v11.965H63.98V.374Z"/><path fill="#0DE1CE" d="M63.922.316H52.145v11.965h11.776V.316Z"/><path fill="#0DE1CE" d="M63.865.255H52.089V12.22h11.776V.255Z"/><path fill="#0DE0CE" d="M63.803.195H52.027V12.16h11.776V.195Z"/><path fill="#0DE0CF" d="M63.746.137H51.97v11.965h11.776V.136Z"/><path fill="#0DE0CF" d="M63.687.078H51.911v11.965h11.776V.078Z"/><path fill="#0DE0CF" d="M51.854 11.982H63.63V.018H51.854v11.964Z"/><path fill="#0DE0CF" d="M63.571.078H51.795v11.965h11.776V.078Z"/><path fill="#0DE0CF" d="M63.512.137H51.736v11.965h11.776V.136Z"/><path fill="#0DE0D0" d="M63.453.195H51.677V12.16h11.776V.195Z"/><path fill="#0DDFD0" d="M63.394.255H51.618V12.22h11.776V.255Z"/><path fill="#0DDFD0" d="M63.337.316H51.561v11.965h11.776V.316Z"/><path fill="#0DDFD0" d="M63.277.374H51.501v11.965h11.776V.374Z"/><path fill="#0DDFD1" d="M63.22.434H51.444v11.964H63.22V.434Z"/><path fill="#0CDFD1" d="M63.16.494H51.384V12.46H63.16V.494Z"/><path fill="#0CDFD1" d="M63.102.554H51.326v11.964h11.776V.554Z"/><path fill="#0CDED1" d="M63.043.612H51.267v11.965h11.776V.612Z"/><path fill="#0CDED2" d="M62.986.674H51.21v11.965h11.776V.674Z"/><path fill="#0CDED2" d="M62.927.731H51.15v11.965h11.776V.731Z"/><path fill="#0CDED2" d="M62.868.792H51.092v11.965h11.776V.792Z"/><path fill="#0CDED2" d="M62.809.85H51.033v11.965h11.776V.851Z"/><path fill="#0CDED3" d="M62.75.912H50.972v11.965H62.75V.912Z"/><path fill="#0CDDD3" d="M62.693.97H50.916v11.964h11.776V.97Z"/><path fill="#0CDDD3" d="M62.633 1.03H50.857v11.965h11.776V1.03Z"/><path fill="#0CDDD3" d="M62.575 1.088H50.799v11.965h11.776V1.088Z"/><path fill="#0CDDD3" d="M62.515 1.147H50.74v11.965h11.776V1.147Z"/><path fill="#0CDDD4" d="M62.456 1.208H50.68v11.965h11.776V1.208Z"/><path fill="#0CDDD4" d="M62.4 1.267H50.622V13.23H62.4V1.267Z"/><path fill="#0CDCD4" d="M62.34 1.327H50.564v11.965H62.34V1.327Z"/><path fill="#0CDCD4" d="M62.281 1.386H50.505V13.35h11.776V1.386Z"/><path fill="#0BDCD5" d="M62.224 1.445H50.448V13.41h11.776V1.445Z"/><path fill="#0BDCD5" d="M62.165 1.503H50.389v11.965h11.776V1.503Z"/><path fill="#0BDCD5" d="M62.106 1.567H50.33v11.965h11.776V1.567Z"/><path fill="#0BDCD5" d="M62.047 1.626H50.271v11.965h11.776V1.626Z"/><path fill="#0BDCD6" d="M61.99 1.684H50.214v11.964H61.99V1.684Z"/><path fill="#0BDBD6" d="M61.928 1.742H50.152v11.965h11.776V1.742Z"/><path fill="#0BDBD6" d="M61.872 1.8H50.096v11.966h11.776V1.8Z"/><path fill="#0BDBD6" d="M61.811 1.861H50.035v11.965h11.776V1.861Z"/><path fill="#0BDBD6" d="M61.756 1.922H49.98v11.965h11.776V1.922Z"/><path fill="#0BDBD7" d="M61.697 1.98H49.92v11.965h11.776V1.98Z"/><path fill="#0BDBD7" d="M61.637 2.043H49.861v11.965h11.776V2.043Z"/><path fill="#0BDAD7" d="M61.578 2.102H49.802v11.964h11.776V2.102Z"/><path fill="#0BDAD7" d="M61.52 2.162H49.746v11.965H61.52V2.162Z"/><path fill="#0BDAD8" d="M61.462 2.22H49.686v11.966h11.776V2.22Z"/><path fill="#0BDAD8" d="M61.403 2.28H49.627v11.964h11.776V2.28Z"/><path fill="#0ADAD8" d="M61.344 2.34H49.568v11.965h11.776V2.34Z"/><path fill="#0ADAD8" d="M61.285 2.397H49.509v11.965h11.776V2.397Z"/><path fill="#0AD9D9" d="M61.228 2.459H49.452v11.965h11.776V2.459Z"/><path fill="#0AD9D9" d="M61.169 2.518H49.393v11.964H61.17V2.518Z"/><path fill="#0AD9D9" d="M61.109 2.578H49.333v11.965h11.776V2.578Z"/><path fill="#0AD9D9" d="M61.05 2.637H49.276V14.6H61.05V2.637Z"/><path fill="#0AD9DA" d="M60.99 2.696H49.216v11.965H60.99V2.696Z"/><path fill="#0AD9DA" d="M60.934 2.755H49.158V14.72h11.776V2.755Z"/><path fill="#0AD9DA" d="M60.875 2.815H49.1V14.78h11.776V2.815Z"/><path fill="#0AD8DA" d="M60.815 2.876H49.039v11.965h11.776V2.876Z"/><path fill="#0AD8DA" d="M60.759 2.935H48.983v11.964h11.776V2.935Z"/><path fill="#0AD8DB" d="M60.698 2.993H48.922v11.965h11.776V2.993Z"/><path fill="#0AD8DB" d="M60.64 3.054H48.865v11.964h11.777V3.054Z"/><path fill="#0AD8DB" d="M60.582 3.112H48.806v11.965h11.776V3.112Z"/><path fill="#0AD8DB" d="M60.524 3.173H48.748v11.965h11.776V3.173Z"/><path fill="#0AD7DC" d="M60.466 3.23H48.69v11.965h11.776V3.23Z"/><path fill="#09D7DC" d="M60.406 3.292H48.63v11.965h11.776V3.292Z"/><path fill="#09D7DC" d="M60.348 3.35H48.572v11.965h11.776V3.351Z"/><path fill="#09D7DC" d="M60.29 3.411H48.514v11.965H60.29V3.411Z"/><path fill="#09D7DD" d="M60.231 3.47H48.455v11.965h11.776V3.47Z"/><path fill="#09D7DD" d="M60.172 3.532H48.395v11.965h11.776V3.532Z"/><path fill="#09D6DD" d="M60.113 3.589H48.337v11.965h11.776V3.589Z"/><path fill="#09D6DD" d="M60.056 3.65H48.28v11.964h11.776V3.65Z"/><path fill="#09D6DD" d="M59.997 3.708H48.221v11.965h11.776V3.708Z"/><path fill="#09D6DE" d="M59.937 3.768H48.161v11.964h11.776V3.768Z"/><path fill="#09D6DE" d="M59.879 3.828H48.103v11.965h11.776V3.828Z"/><path fill="#09D6DE" d="M59.818 3.888H48.042v11.964h11.776V3.888Z"/><path fill="#09D5DE" d="M59.763 3.948H47.987v11.965h11.776V3.948Z"/><path fill="#09D5DF" d="M59.703 4.006H47.927V15.97h11.776V4.006Z"/><path fill="#09D5DF" d="M59.646 4.066H47.87v11.965h11.776V4.066Z"/><path fill="#09D5DF" d="M59.585 4.125H47.81V16.09h11.776V4.125Z"/><path fill="#08D5DF" d="M59.528 4.186H47.752V16.15h11.776V4.186Z"/><path fill="#08D5E0" d="M59.47 4.242H47.692v11.965H59.47V4.242Z"/><path fill="#08D5E0" d="M59.41 4.303H47.634v11.965H59.41V4.303Z"/><path fill="#08D4E0" d="M59.35 4.365H47.575V16.33h11.777V4.365Z"/><path fill="#08D4E0" d="M59.294 4.424H47.517v11.965h11.776V4.424Z"/><path fill="#08D4E1" d="M59.235 4.481H47.459v11.965h11.776V4.481Z"/><path fill="#08D4E1" d="M59.176 4.54H47.4v11.965h11.776V4.54Z"/><path fill="#08D4E1" d="M59.115 4.602H47.34v11.964h11.776V4.602Z"/><path fill="#08D4E1" d="M59.06 4.662H47.282v11.965h11.776V4.662Z"/><path fill="#08D3E1" d="M59 4.72H47.224v11.965H59V4.72Z"/><path fill="#08D3E2" d="M58.941 4.78H47.165v11.964h11.776V4.78Z"/><path fill="#08D3E2" d="M58.884 4.839H47.108v11.965h11.776V4.839Z"/><path fill="#08D3E2" d="M58.825 4.896H47.05v11.965h11.776V4.896Z"/><path fill="#08D3E2" d="M58.766 4.959H46.99v11.965h11.776V4.959Z"/><path fill="#08D3E3" d="M58.706 5.019H46.93v11.964h11.776V5.02Z"/><path fill="#08D2E3" d="M58.65 5.078H46.874v11.965H58.65V5.078Z"/><path fill="#07D2E3" d="M58.591 5.136H46.815V17.1h11.776V5.136Z"/><path fill="#07D2E3" d="M58.532 5.197H46.756v11.965h11.776V5.197Z"/><path fill="#07D2E4" d="M58.473 5.257H46.697v11.965h11.776V5.257Z"/><path fill="#07D2E4" d="M58.415 5.315H46.64V17.28h11.776V5.315Z"/><path fill="#07D2E4" d="M58.356 5.373H46.58v11.965h11.776V5.373Z"/><path fill="#07D2E4" d="M58.298 5.434H46.522v11.964h11.776V5.434Z"/><path fill="#07D1E5" d="M58.238 5.493H46.462v11.965h11.776V5.493Z"/><path fill="#07D1E5" d="M58.181 5.554H46.405v11.965h11.776V5.554Z"/><path fill="#07D1E5" d="M58.12 5.614H46.344V17.58H58.12V5.614Z"/><path fill="#07D1E5" d="M58.063 5.673H46.287v11.965h11.776V5.673Z"/><path fill="#07D1E5" d="M58.004 5.731H46.228v11.965h11.776V5.731Z"/><path fill="#07D1E6" d="M57.947 5.792H46.171v11.965h11.776V5.792Z"/><path fill="#07D0E6" d="M57.886 5.852H46.11v11.964h11.776V5.852Z"/><path fill="#07D0E6" d="M57.829 5.908H46.053v11.965h11.776V5.908Z"/><path fill="#07D0E6" d="M57.77 5.97H45.994v11.966H57.77V5.97Z"/><path fill="#06D0E7" d="M57.71 6.027H45.936v11.965H57.71V6.027Z"/><path fill="#06D0E7" d="M57.653 6.093H45.877v11.965h11.776V6.093Z"/><path fill="#06D0E7" d="M57.594 6.148H45.819v11.965h11.776V6.148Z"/><path fill="#06CFE7" d="M57.535 6.209H45.759v11.965h11.776V6.209Z"/><path fill="#06CFE8" d="M57.476 6.268H45.7v11.964h11.776V6.268Z"/><path fill="#06CFE8" d="M57.419 6.328H45.643v11.965h11.776V6.328Z"/><path fill="#06CFE8" d="M57.36 6.387H45.584v11.965H57.36V6.387Z"/><path fill="#06CFE8" d="M57.3 6.447H45.526v11.965H57.3V6.447Z"/><path fill="#06CFE8" d="M57.242 6.506H45.466V18.47h11.776V6.506Z"/><path fill="#06CEE9" d="M57.185 6.564H45.409V18.53h11.776V6.564Z"/><path fill="#06CEE9" d="M57.126 6.622H45.35v11.965h11.776V6.622Z"/><path fill="#06CEE9" d="M57.066 6.684H45.29v11.964h11.776V6.684Z"/><path fill="#06CEE9" d="M57.007 6.744H45.23V18.71h11.776V6.744Z"/><path fill="#06CEEA" d="M56.95 6.804H45.174v11.965H56.95V6.804Z"/><path fill="#06CEEA" d="M56.892 6.865H45.116V18.83h11.776V6.865Z"/><path fill="#05CEEA" d="M56.832 6.92H45.056v11.966h11.776V6.92Z"/><path fill="#05CDEA" d="M56.772 6.982H44.996v11.965h11.776V6.982Z"/><path fill="#05CDEB" d="M56.715 7.04H44.94v11.964h11.776V7.039Z"/><path fill="#05CDEB" d="M56.654 7.104H44.88v11.964h11.776V7.104Z"/><path fill="#05CDEB" d="M56.598 7.16H44.822v11.964h11.776V7.159Z"/><path fill="#05CDEB" d="M56.538 7.222H44.762v11.964h11.776V7.222Z"/><path fill="#05CDEC" d="M56.481 7.281H44.706v11.965h11.776V7.281Z"/><path fill="#05CCEC" d="M56.423 7.338H44.647v11.965h11.776V7.338Z"/><path fill="#05CCEC" d="M56.363 7.4H44.587v11.964h11.776V7.4Z"/><path fill="#05CCEC" d="M56.304 7.458H44.528v11.965h11.776V7.458Z"/><path fill="#05CCEC" d="M56.245 7.517H44.469V19.48h11.776V7.517Z"/><path fill="#05CCED" d="M56.189 7.58H44.413v11.964h11.776V7.579Z"/><path fill="#05CCED" d="M56.129 7.636H44.353V19.6h11.776V7.636Z"/><path fill="#05CBED" d="M56.07 7.695H44.294V19.66H56.07V7.695Z"/><path fill="#05CBED" d="M56.01 7.757H44.236v11.965H56.01V7.757Z"/><path fill="#05CBEE" d="M55.954 7.814H44.178V19.78h11.776V7.814Z"/><path fill="#04CBEE" d="M55.895 7.876H44.12v11.965h11.776V7.876Z"/><path fill="#04CBEE" d="M55.838 7.937H44.062V19.9h11.776V7.937Z"/><path fill="#04CBEE" d="M55.78 7.995H44.002V19.96h11.776V7.995Z"/><path fill="#04CBEF" d="M55.72 8.053H43.944v11.964H55.72V8.053Z"/><path fill="#04CAEF" d="M55.66 8.113H43.884v11.965H55.66V8.113Z"/><path fill="#04CAEF" d="M55.601 8.174H43.825v11.965h11.776V8.174Z"/><path fill="#04CAEF" d="M55.542 8.233H43.766v11.965h11.776V8.233Z"/><path fill="#04CAF0" d="M55.485 8.293H43.71v11.965h11.776V8.293Z"/><path fill="#04CAF0" d="M55.426 8.35H43.65v11.964h11.776V8.35Z"/><path fill="#04CAF0" d="M55.367 8.41H43.59v11.965h11.776V8.41Z"/><path fill="#04C9F0" d="M55.307 8.472H43.531v11.964h11.776V8.472Z"/><path fill="#04C9F0" d="M55.251 8.53H43.475v11.964h11.776V8.53Z"/><path fill="#04C9F1" d="M55.193 8.59H43.417v11.965h11.776V8.59Z"/><path fill="#04C9F1" d="M55.133 8.65H43.357v11.965h11.776V8.65Z"/><path fill="#04C9F1" d="M55.076 8.709H43.3v11.965h11.776V8.709Z"/><path fill="#03C9F1" d="M55.015 8.767H43.239V20.73h11.776V8.767Z"/><path fill="#03C8F2" d="M54.957 8.828H43.18v11.965h11.776V8.828Z"/><path fill="#03C8F2" d="M54.9 8.887H43.122v11.965H54.9V8.887Z"/><path fill="#03C8F2" d="M54.842 8.947H43.065v11.965h11.777V8.947Z"/><path fill="#03C8F2" d="M54.78 9.005H43.004V20.97H54.78V9.005Z"/><path fill="#03C8F3" d="M54.723 9.063H42.947v11.965h11.776V9.063Z"/><path fill="#03C8F3" d="M54.664 9.126H42.888v11.965h11.776V9.126Z"/><path fill="#03C7F3" d="M54.607 9.186H42.831V21.15h11.776V9.186Z"/><path fill="#03C7F3" d="M54.548 9.246H42.772v11.965h11.776V9.246Z"/><path fill="#03C7F3" d="M54.49 9.304H42.712v11.964h11.776V9.304Z"/><path fill="#03C7F4" d="M54.43 9.362H42.652v11.965H54.43V9.362Z"/><path fill="#03C7F4" d="M54.373 9.423H42.597v11.965h11.776V9.423Z"/><path fill="#03C7F4" d="M54.314 9.483H42.538v11.965h11.776V9.483Z"/><path fill="#03C7F4" d="M54.254 9.54H42.478v11.965h11.776V9.54Z"/><path fill="#03C6F5" d="M54.196 9.603H42.42v11.964h11.776V9.603Z"/><path fill="#03C6F5" d="M54.136 9.658H42.36v11.965h11.776V9.658Z"/><path fill="#02C6F5" d="M54.078 9.722H42.3v11.964h11.777V9.722Z"/><path fill="#02C6F5" d="M54.02 9.78H42.244v11.964H54.02V9.78Z"/><path fill="#02C6F6" d="M53.964 9.839H42.188v11.965h11.776V9.839Z"/><path fill="#02C6F6" d="M53.901 9.9H42.125v11.964h11.776V9.9Z"/><path fill="#02C5F6" d="M53.845 9.957H42.069v11.965h11.776V9.957Z"/><path fill="#02C5F6" d="M53.786 10.019H42.01v11.964h11.776V10.02Z"/><path fill="#02C5F7" d="M53.727 10.076H41.95v11.965h11.776V10.076Z"/><path fill="#02C5F7" d="M53.667 10.137H41.891v11.965h11.776V10.137Z"/><path fill="#02C5F7" d="M53.61 10.198H41.834v11.965H53.61V10.198Z"/><path fill="#02C5F7" d="M53.549 10.256H41.773V22.22h11.776V10.256Z"/><path fill="#02C4F7" d="M53.492 10.316H41.716v11.965h11.776V10.316Z"/><path fill="#02C4F8" d="M53.433 10.376H41.657v11.965h11.776V10.376Z"/><path fill="#02C4F8" d="M53.376 10.434H41.6v11.964h11.776V10.434Z"/><path fill="#02C4F8" d="M53.316 10.492H41.54v11.965h11.776V10.492Z"/><path fill="#02C4F8" d="M53.258 10.553H41.482v11.965h11.776V10.553Z"/><path fill="#01C4F9" d="M53.199 10.613H41.423v11.965h11.776V10.613Z"/><path fill="#01C4F9" d="M53.142 10.672H41.366v11.965h11.776V10.672Z"/><path fill="#01C3F9" d="M53.083 10.731H41.307v11.965h11.776V10.731Z"/><path fill="#01C3F9" d="M53.023 10.791H41.248v11.965h11.776V10.79Z"/><path fill="#01C3FA" d="M52.964 10.854H41.188v11.964h11.776V10.853Z"/><path fill="#01C3FA" d="M52.906 10.91H41.13v11.964h11.776V10.909Z"/><path fill="#01C3FA" d="M52.848 10.97H41.072v11.965h11.776V10.97Z"/><path fill="#01C3FA" d="M52.79 11.03H41.012v11.965H52.79V11.03Z"/><path fill="#01C2FA" d="M52.732 11.089H40.956v11.965h11.776V11.089Z"/><path fill="#01C2FB" d="M52.673 11.148H40.897v11.964h11.776V11.148Z"/><path fill="#01C2FB" d="M52.614 11.208H40.838v11.965h11.776V11.208Z"/><path fill="#01C2FB" d="M52.555 11.267H40.779V23.23h11.776V11.267Z"/><path fill="#01C2FB" d="M52.498 11.328H40.722v11.965h11.776V11.328Z"/><path fill="#01C2FC" d="M52.437 11.389H40.66v11.965h11.776V11.389Z"/><path fill="#01C1FC" d="M52.38 11.448H40.604v11.965H52.38V11.448Z"/><path fill="#01C1FC" d="M52.321 11.507H40.545v11.965H52.32V11.507Z"/><path fill="#00C1FC" d="M52.261 11.567H40.485v11.965h11.776V11.567Z"/><path fill="#00C1FD" d="M52.202 11.627H40.426v11.965h11.776V11.627Z"/><path fill="#00C1FD" d="M52.145 11.684H40.37v11.964h11.776V11.684Z"/><path fill="#00C1FD" d="M52.086 11.745H40.31V23.71h11.776V11.745Z"/><path fill="#00C0FD" d="M52.027 11.803H40.251v11.965h11.776V11.803Z"/><path fill="#00C0FE" d="M51.97 11.864H40.195V23.83H51.97V11.864Z"/><path fill="#00C0FE" d="M51.91 11.922H40.135v11.965H51.91V11.922Z"/><path fill="#00C0FE" d="M40.076 23.948h11.776V11.983H40.076v11.965Z"/></g><path fill="#fff" d="M1.782 34.59C.929 36.736.184 38.61.133 38.735l-.094.242H1.594l.318-.845.318-.845H6.44l.326.845.325.845H8.645l-.094-.235c-.05-.132-.795-2.006-1.641-4.159l-1.548-3.91H3.33L1.782 34.59Zm3.392-.58c.398 1.036.723 1.896.723 1.918 0 .022-.701.037-1.562.037-1.454 0-1.562-.008-1.533-.133.021-.066.369-.984.78-2.028.536-1.374.76-1.874.804-1.785.036.058.39.955.788 1.99ZM9.44 34.825v4.152h5.713v-1.322h-4.266v-6.981H9.44v4.151ZM16.238 34.825v4.152h1.447v-3.093l1.721.022c1.497.022 1.743.036 1.917.154.405.265.448.419.47 1.72l.029 1.197h1.446l-.029-1.418c-.021-1.271-.036-1.44-.18-1.712-.196-.367-.29-.448-.71-.61l-.332-.125.297-.14c.361-.161.672-.514.802-.896.065-.169.102-.588.102-1.05 0-.647-.03-.831-.167-1.14-.21-.47-.332-.602-.766-.823-.622-.323-1.244-.382-3.747-.39h-2.3v4.152Zm5.041-2.66c.384.214.492.441.492 1.088s-.108.867-.55 1.132c-.224.132-.404.147-1.887.169l-1.649.029v-2.601l1.685.03c1.44.021 1.714.043 1.91.154ZM24.7 34.825v4.152h6.148v-1.322H26.147V35.377h4.411v-1.323h-4.411v-2.057l2.336-.015 2.329-.022.021-.647.022-.64H24.7v4.152ZM33.314 34.59c-.854 2.146-1.599 4.02-1.65 4.145l-.093.242h1.554l.319-.845.318-.845h4.209l.326.845.325.845H40.177l-.094-.235c-.05-.132-.796-2.006-1.642-4.159l-1.547-3.91H34.86l-1.547 3.917Zm3.392-.58c.397 1.036.723 1.896.723 1.918 0 .022-.702.037-1.562.037-1.454 0-1.562-.008-1.533-.133.021-.066.368-.984.78-2.028.536-1.374.76-1.874.803-1.785.036.058.39.955.789 1.99ZM40.972 34.826v4.166l2.445-.037c2.589-.036 2.886-.066 3.587-.419.593-.308.955-.837 1.179-1.741.094-.39.123-.83.123-1.97 0-1.138-.03-1.58-.123-1.969-.224-.904-.586-1.433-1.179-1.741-.701-.353-.998-.382-3.587-.42l-2.445-.036v4.167Zm5.02-2.609c.687.353.838.823.838 2.609 0 1.785-.151 2.255-.838 2.608-.34.177-.42.184-1.96.206l-1.613.03v-5.688l1.613.03c1.54.021 1.62.029 1.96.205ZM48.544 30.769c.03.051.782 1.293 1.67 2.748l1.606 2.645v2.815h1.447v-2.851l1.179-1.933c.65-1.065 1.403-2.3 1.663-2.733l.485-.794-.81.022-.81.022-1.172 1.984c-.643 1.088-1.2 1.984-1.23 1.999-.036.007-.6-.89-1.258-1.999l-1.193-2.02h-.817c-.658 0-.803.021-.76.095ZM60.065 34.825v4.152h1.374l.014-3.439.022-3.431.767 1.837c.427 1.006 1.07 2.557 1.439 3.431l.673 1.602h1.468l1.403-3.41 1.41-3.409.022 3.41.014 3.41h1.374V30.673H67.818l-.145.345c-.08.199-.658 1.595-1.28 3.108a423.608 423.608 0 0 1-1.222 2.925c-.08.154-.217-.125-1.461-3.1l-1.367-3.278h-2.278v4.151ZM71.71 34.825v4.152h6.146v-1.322h-4.7V35.377h4.411v-1.323h-4.411v-2.057l2.336-.015 2.328-.022.022-.647.022-.64H71.709v4.152ZM79.303 34.826v4.166l2.444-.037c2.59-.036 2.886-.066 3.587-.419.593-.308.955-.837 1.18-1.741.094-.39.122-.83.122-1.97 0-1.138-.028-1.58-.123-1.969-.224-.904-.586-1.433-1.179-1.741-.701-.353-.998-.382-3.587-.419l-2.444-.037v4.167Zm5.02-2.609c.686.353.838.823.838 2.609 0 1.785-.152 2.255-.839 2.608-.34.177-.42.184-1.96.206l-1.613.03v-5.688l1.613.03c1.54.021 1.62.029 1.96.205ZM88.054 34.825v4.152H89.5v-8.303h-1.446v4.151ZM92.11 34.59c-.852 2.146-1.597 4.02-1.648 4.145l-.094.242h1.554l.319-.845.318-.845h4.209l.326.845.326.845h1.554l-.094-.235c-.05-.132-.795-2.006-1.641-4.159l-1.548-3.91h-2.032L92.11 34.59Zm3.393-.58c.398 1.036.723 1.896.723 1.918 0 .022-.701.037-1.562.037-1.454 0-1.562-.008-1.533-.133.022-.066.368-.984.78-2.028.536-1.374.76-1.874.804-1.785.036.058.39.955.788 1.99Z"/></g><defs><clipPath id="a"><path fill="#fff" d="M0 0h99v39H0z"/></clipPath></defs></svg>
