<svg width="40" height="40" viewBox="0 0 40 40" fill="none" xmlns="http://www.w3.org/2000/svg">
<path d="M23.5956 28.1966L16.4045 23.7654" stroke="#FF57C6" stroke-width="1.71875" stroke-miterlimit="10" stroke-linejoin="round"/>
<path d="M23.5956 11.8033L16.4045 16.2346" stroke="#FF57C6" stroke-width="1.71875" stroke-miterlimit="10" stroke-linejoin="round"/>
<path d="M29.7065 10.4297C31.0279 10.4297 32.0991 9.35849 32.0991 8.03711C32.0991 6.71572 31.0279 5.64453 29.7065 5.64453C28.3852 5.64453 27.314 6.71572 27.314 8.03711C27.314 9.35849 28.3852 10.4297 29.7065 10.4297Z" stroke="#FF57C6" stroke-width="1.71875" stroke-miterlimit="10" stroke-linecap="round" stroke-linejoin="round"/>
<path d="M34.2192 13.6188C33.562 11.7608 31.7898 10.4297 29.7067 10.4297C27.6235 10.4297 25.8513 11.7608 25.1942 13.6188" stroke="#FF57C6" stroke-width="1.71875" stroke-miterlimit="10" stroke-linejoin="round"/>
<path d="M12.6552 20.3806C12.8649 19.076 11.9773 17.8484 10.6727 17.6387C9.36814 17.429 8.14055 18.3166 7.93085 19.6212C7.72115 20.9258 8.60874 22.1534 9.91334 22.3631C11.2179 22.5728 12.4455 21.6852 12.6552 20.3806Z" stroke="#FF57C6" stroke-width="1.71875" stroke-miterlimit="10" stroke-linecap="round" stroke-linejoin="round"/>
<path d="M14.8059 25.5817C14.1487 23.7237 12.3765 22.3926 10.2934 22.3926C8.21026 22.3926 6.43799 23.7237 5.78088 25.5817" stroke="#FF57C6" stroke-width="1.71875" stroke-miterlimit="10" stroke-linejoin="round"/>
<path d="M29.7065 34.3555C31.0279 34.3555 32.0991 33.2843 32.0991 31.9629C32.0991 30.6415 31.0279 29.5703 29.7065 29.5703C28.3852 29.5703 27.314 30.6415 27.314 31.9629C27.314 33.2843 28.3852 34.3555 29.7065 34.3555Z" stroke="#FF57C6" stroke-width="1.71875" stroke-miterlimit="10" stroke-linecap="round" stroke-linejoin="round"/>
<path d="M34.2192 37.5446C33.562 35.6866 31.7898 34.3555 29.7067 34.3555C27.6235 34.3555 25.8513 35.6866 25.1942 37.5446" stroke="#FF57C6" stroke-width="1.71875" stroke-miterlimit="10" stroke-linejoin="round"/>
<path d="M29.7065 15.2148C33.6707 15.2148 36.8843 12.0013 36.8843 8.03711C36.8843 4.07296 33.6707 0.859375 29.7065 0.859375C25.7424 0.859375 22.5288 4.07296 22.5288 8.03711C22.5288 12.0013 25.7424 15.2148 29.7065 15.2148Z" stroke="#100730" stroke-width="1.71875" stroke-miterlimit="10" stroke-linecap="round" stroke-linejoin="round"/>
<path d="M17.4712 20C17.4712 21.3812 17.0813 22.671 16.4046 23.7654C15.141 25.8129 12.8767 27.1774 10.2931 27.1774C6.32916 27.1774 3.11572 23.9639 3.11572 20C3.11572 16.0361 6.32916 12.8219 10.2931 12.8219C12.8767 12.8219 15.141 14.1871 16.4046 16.2346C17.0812 17.3291 17.4712 18.6189 17.4712 20Z" stroke="#100730" stroke-width="1.71875" stroke-miterlimit="10" stroke-linecap="round" stroke-linejoin="round"/>
<path d="M29.7065 39.1406C33.6707 39.1406 36.8843 35.927 36.8843 31.9629C36.8843 27.9987 33.6707 24.7852 29.7065 24.7852C25.7424 24.7852 22.5288 27.9987 22.5288 31.9629C22.5288 35.927 25.7424 39.1406 29.7065 39.1406Z" stroke="#100730" stroke-width="1.71875" stroke-miterlimit="10" stroke-linecap="round" stroke-linejoin="round"/>
</svg>
