<svg width="254" height="254" viewBox="0 0 254 254" fill="none" xmlns="http://www.w3.org/2000/svg">
<rect width="254" height="254" fill="white"/>
<path d="M14.4114 14.4111H22.1761V22.1759H14.4114V14.4111ZM22.1761 14.4111H29.9408V22.1759H22.1761V14.4111ZM29.9408 14.4111H37.7056V22.1759H29.9408V14.4111ZM37.7056 14.4111H45.4703V22.1759H37.7056V14.4111ZM45.4703 14.4111H53.2351V22.1759H45.4703V14.4111ZM53.2351 14.4111H60.9998V22.1759H53.2351V14.4111ZM60.9998 14.4111H68.7645V22.1759H60.9998V14.4111ZM92.0587 14.4111H99.8235V22.1759H92.0587V14.4111ZM115.353 14.4111H123.118V22.1759H115.353V14.4111ZM123.118 14.4111H130.882V22.1759H123.118V14.4111ZM138.647 14.4111H146.412V22.1759H138.647V14.4111ZM146.412 14.4111H154.177V22.1759H146.412V14.4111ZM154.177 14.4111H161.941V22.1759H154.177V14.4111ZM161.941 14.4111H169.706V22.1759H161.941V14.4111ZM185.236 14.4111H193V22.1759H185.236V14.4111ZM193 14.4111H200.765V22.1759H193V14.4111ZM200.765 14.4111H208.53V22.1759H200.765V14.4111ZM208.53 14.4111H216.294V22.1759H208.53V14.4111ZM216.294 14.4111H224.059V22.1759H216.294V14.4111ZM224.059 14.4111H231.824V22.1759H224.059V14.4111ZM231.824 14.4111H239.589V22.1759H231.824V14.4111ZM14.4114 22.1759H22.1761V29.9406H14.4114V22.1759ZM60.9998 22.1759H68.7645V29.9406H60.9998V22.1759ZM92.0587 22.1759H99.8235V29.9406H92.0587V22.1759ZM99.8235 22.1759H107.588V29.9406H99.8235V22.1759ZM130.882 22.1759H138.647V29.9406H130.882V22.1759ZM169.706 22.1759H177.471V29.9406H169.706V22.1759ZM185.236 22.1759H193V29.9406H185.236V22.1759ZM231.824 22.1759H239.589V29.9406H231.824V22.1759ZM14.4114 29.9406H22.1761V37.7053H14.4114V29.9406ZM29.9408 29.9406H37.7056V37.7053H29.9408V29.9406ZM37.7056 29.9406H45.4703V37.7053H37.7056V29.9406ZM45.4703 29.9406H53.2351V37.7053H45.4703V29.9406ZM60.9998 29.9406H68.7645V37.7053H60.9998V29.9406ZM76.5293 29.9406H84.294V37.7053H76.5293V29.9406ZM92.0587 29.9406H99.8235V37.7053H92.0587V29.9406ZM99.8235 29.9406H107.588V37.7053H99.8235V29.9406ZM107.588 29.9406H115.353V37.7053H107.588V29.9406ZM123.118 29.9406H130.882V37.7053H123.118V29.9406ZM130.882 29.9406H138.647V37.7053H130.882V29.9406ZM146.412 29.9406H154.177V37.7053H146.412V29.9406ZM154.177 29.9406H161.941V37.7053H154.177V29.9406ZM161.941 29.9406H169.706V37.7053H161.941V29.9406ZM169.706 29.9406H177.471V37.7053H169.706V29.9406ZM185.236 29.9406H193V37.7053H185.236V29.9406ZM200.765 29.9406H208.53V37.7053H200.765V29.9406ZM208.53 29.9406H216.294V37.7053H208.53V29.9406ZM216.294 29.9406H224.059V37.7053H216.294V29.9406ZM231.824 29.9406H239.589V37.7053H231.824V29.9406ZM14.4114 37.7053H22.1761V45.4701H14.4114V37.7053ZM29.9408 37.7053H37.7056V45.4701H29.9408V37.7053ZM37.7056 37.7053H45.4703V45.4701H37.7056V37.7053ZM45.4703 37.7053H53.2351V45.4701H45.4703V37.7053ZM60.9998 37.7053H68.7645V45.4701H60.9998V37.7053ZM92.0587 37.7053H99.8235V45.4701H92.0587V37.7053ZM99.8235 37.7053H107.588V45.4701H99.8235V37.7053ZM107.588 37.7053H115.353V45.4701H107.588V37.7053ZM115.353 37.7053H123.118V45.4701H115.353V37.7053ZM154.177 37.7053H161.941V45.4701H154.177V37.7053ZM161.941 37.7053H169.706V45.4701H161.941V37.7053ZM185.236 37.7053H193V45.4701H185.236V37.7053ZM200.765 37.7053H208.53V45.4701H200.765V37.7053ZM208.53 37.7053H216.294V45.4701H208.53V37.7053ZM216.294 37.7053H224.059V45.4701H216.294V37.7053ZM231.824 37.7053H239.589V45.4701H231.824V37.7053ZM14.4114 45.4701H22.1761V53.2348H14.4114V45.4701ZM29.9408 45.4701H37.7056V53.2348H29.9408V45.4701ZM37.7056 45.4701H45.4703V53.2348H37.7056V45.4701ZM45.4703 45.4701H53.2351V53.2348H45.4703V45.4701ZM60.9998 45.4701H68.7645V53.2348H60.9998V45.4701ZM76.5293 45.4701H84.294V53.2348H76.5293V45.4701ZM92.0587 45.4701H99.8235V53.2348H92.0587V45.4701ZM123.118 45.4701H130.882V53.2348H123.118V45.4701ZM154.177 45.4701H161.941V53.2348H154.177V45.4701ZM185.236 45.4701H193V53.2348H185.236V45.4701ZM200.765 45.4701H208.53V53.2348H200.765V45.4701ZM208.53 45.4701H216.294V53.2348H208.53V45.4701ZM216.294 45.4701H224.059V53.2348H216.294V45.4701ZM231.824 45.4701H239.589V53.2348H231.824V45.4701ZM14.4114 53.2348H22.1761V60.9995H14.4114V53.2348ZM60.9998 53.2348H68.7645V60.9995H60.9998V53.2348ZM76.5293 53.2348H84.294V60.9995H76.5293V53.2348ZM92.0587 53.2348H99.8235V60.9995H92.0587V53.2348ZM99.8235 53.2348H107.588V60.9995H99.8235V53.2348ZM130.882 53.2348H138.647V60.9995H130.882V53.2348ZM138.647 53.2348H146.412V60.9995H138.647V53.2348ZM154.177 53.2348H161.941V60.9995H154.177V53.2348ZM161.941 53.2348H169.706V60.9995H161.941V53.2348ZM169.706 53.2348H177.471V60.9995H169.706V53.2348ZM185.236 53.2348H193V60.9995H185.236V53.2348ZM231.824 53.2348H239.589V60.9995H231.824V53.2348ZM14.4114 60.9995H22.1761V68.7643H14.4114V60.9995ZM22.1761 60.9995H29.9408V68.7643H22.1761V60.9995ZM29.9408 60.9995H37.7056V68.7643H29.9408V60.9995ZM37.7056 60.9995H45.4703V68.7643H37.7056V60.9995ZM45.4703 60.9995H53.2351V68.7643H45.4703V60.9995ZM53.2351 60.9995H60.9998V68.7643H53.2351V60.9995ZM60.9998 60.9995H68.7645V68.7643H60.9998V60.9995ZM76.5293 60.9995H84.294V68.7643H76.5293V60.9995ZM92.0587 60.9995H99.8235V68.7643H92.0587V60.9995ZM107.588 60.9995H115.353V68.7643H107.588V60.9995ZM123.118 60.9995H130.882V68.7643H123.118V60.9995ZM138.647 60.9995H146.412V68.7643H138.647V60.9995ZM154.177 60.9995H161.941V68.7643H154.177V60.9995ZM169.706 60.9995H177.471V68.7643H169.706V60.9995ZM185.236 60.9995H193V68.7643H185.236V60.9995ZM193 60.9995H200.765V68.7643H193V60.9995ZM200.765 60.9995H208.53V68.7643H200.765V60.9995ZM208.53 60.9995H216.294V68.7643H208.53V60.9995ZM216.294 60.9995H224.059V68.7643H216.294V60.9995ZM224.059 60.9995H231.824V68.7643H224.059V60.9995ZM231.824 60.9995H239.589V68.7643H231.824V60.9995ZM107.588 68.7643H115.353V76.529H107.588V68.7643ZM130.882 68.7643H138.647V76.529H130.882V68.7643ZM138.647 68.7643H146.412V76.529H138.647V68.7643ZM146.412 68.7643H154.177V76.529H146.412V68.7643ZM154.177 68.7643H161.941V76.529H154.177V68.7643ZM161.941 68.7643H169.706V76.529H161.941V68.7643ZM169.706 68.7643H177.471V76.529H169.706V68.7643ZM22.1761 76.529H29.9408V84.2937H22.1761V76.529ZM45.4703 76.529H53.2351V84.2937H45.4703V76.529ZM60.9998 76.529H68.7645V84.2937H60.9998V76.529ZM76.5293 76.529H84.294V84.2937H76.5293V76.529ZM92.0587 76.529H99.8235V84.2937H92.0587V76.529ZM99.8235 76.529H107.588V84.2937H99.8235V76.529ZM107.588 76.529H115.353V84.2937H107.588V76.529ZM115.353 76.529H123.118V84.2937H115.353V76.529ZM130.882 76.529H138.647V84.2937H130.882V76.529ZM138.647 76.529H146.412V84.2937H138.647V76.529ZM154.177 76.529H161.941V84.2937H154.177V76.529ZM169.706 76.529H177.471V84.2937H169.706V76.529ZM177.471 76.529H185.236V84.2937H177.471V76.529ZM193 76.529H200.765V84.2937H193V76.529ZM200.765 76.529H208.53V84.2937H200.765V76.529ZM216.294 76.529H224.059V84.2937H216.294V76.529ZM53.2351 84.2937H60.9998V92.0585H53.2351V84.2937ZM92.0587 84.2937H99.8235V92.0585H92.0587V84.2937ZM107.588 84.2937H115.353V92.0585H107.588V84.2937ZM115.353 84.2937H123.118V92.0585H115.353V84.2937ZM138.647 84.2937H146.412V92.0585H138.647V84.2937ZM161.941 84.2937H169.706V92.0585H161.941V84.2937ZM169.706 84.2937H177.471V92.0585H169.706V84.2937ZM177.471 84.2937H185.236V92.0585H177.471V84.2937ZM185.236 84.2937H193V92.0585H185.236V84.2937ZM193 84.2937H200.765V92.0585H193V84.2937ZM200.765 84.2937H208.53V92.0585H200.765V84.2937ZM208.53 84.2937H216.294V92.0585H208.53V84.2937ZM216.294 84.2937H224.059V92.0585H216.294V84.2937ZM224.059 84.2937H231.824V92.0585H224.059V84.2937ZM231.824 84.2937H239.589V92.0585H231.824V84.2937ZM14.4114 92.0585H22.1761V99.8232H14.4114V92.0585ZM45.4703 92.0585H53.2351V99.8232H45.4703V92.0585ZM53.2351 92.0585H60.9998V99.8232H53.2351V92.0585ZM60.9998 92.0585H68.7645V99.8232H60.9998V92.0585ZM68.7645 92.0585H76.5293V99.8232H68.7645V92.0585ZM92.0587 92.0585H99.8235V99.8232H92.0587V92.0585ZM99.8235 92.0585H107.588V99.8232H99.8235V92.0585ZM115.353 92.0585H123.118V99.8232H115.353V92.0585ZM123.118 92.0585H130.882V99.8232H123.118V92.0585ZM146.412 92.0585H154.177V99.8232H146.412V92.0585ZM154.177 92.0585H161.941V99.8232H154.177V92.0585ZM169.706 92.0585H177.471V99.8232H169.706V92.0585ZM177.471 92.0585H185.236V99.8232H177.471V92.0585ZM208.53 92.0585H216.294V99.8232H208.53V92.0585ZM231.824 92.0585H239.589V99.8232H231.824V92.0585ZM22.1761 99.8232H29.9408V107.588H22.1761V99.8232ZM37.7056 99.8232H45.4703V107.588H37.7056V99.8232ZM53.2351 99.8232H60.9998V107.588H53.2351V99.8232ZM68.7645 99.8232H76.5293V107.588H68.7645V99.8232ZM92.0587 99.8232H99.8235V107.588H92.0587V99.8232ZM115.353 99.8232H123.118V107.588H115.353V99.8232ZM130.882 99.8232H138.647V107.588H130.882V99.8232ZM138.647 99.8232H146.412V107.588H138.647V99.8232ZM146.412 99.8232H154.177V107.588H146.412V99.8232ZM154.177 99.8232H161.941V107.588H154.177V99.8232ZM161.941 99.8232H169.706V107.588H161.941V99.8232ZM169.706 99.8232H177.471V107.588H169.706V99.8232ZM177.471 99.8232H185.236V107.588H177.471V99.8232ZM200.765 99.8232H208.53V107.588H200.765V99.8232ZM208.53 99.8232H216.294V107.588H208.53V99.8232ZM224.059 99.8232H231.824V107.588H224.059V99.8232ZM231.824 99.8232H239.589V107.588H231.824V99.8232ZM45.4703 107.588H53.2351V115.353H45.4703V107.588ZM53.2351 107.588H60.9998V115.353H53.2351V107.588ZM60.9998 107.588H68.7645V115.353H60.9998V107.588ZM76.5293 107.588H84.294V115.353H76.5293V107.588ZM92.0587 107.588H99.8235V115.353H92.0587V107.588ZM99.8235 107.588H107.588V115.353H99.8235V107.588ZM115.353 107.588H123.118V115.353H115.353V107.588ZM123.118 107.588H130.882V115.353H123.118V107.588ZM130.882 107.588H138.647V115.353H130.882V107.588ZM138.647 107.588H146.412V115.353H138.647V107.588ZM146.412 107.588H154.177V115.353H146.412V107.588ZM154.177 107.588H161.941V115.353H154.177V107.588ZM169.706 107.588H177.471V115.353H169.706V107.588ZM193 107.588H200.765V115.353H193V107.588ZM208.53 107.588H216.294V115.353H208.53V107.588ZM231.824 107.588H239.589V115.353H231.824V107.588ZM14.4114 115.353H22.1761V123.117H14.4114V115.353ZM45.4703 115.353H53.2351V123.117H45.4703V115.353ZM53.2351 115.353H60.9998V123.117H53.2351V115.353ZM76.5293 115.353H84.294V123.117H76.5293V115.353ZM84.294 115.353H92.0587V123.117H84.294V115.353ZM92.0587 115.353H99.8235V123.117H92.0587V115.353ZM99.8235 115.353H107.588V123.117H99.8235V115.353ZM107.588 115.353H115.353V123.117H107.588V115.353ZM123.118 115.353H130.882V123.117H123.118V115.353ZM146.412 115.353H154.177V123.117H146.412V115.353ZM154.177 115.353H161.941V123.117H154.177V115.353ZM169.706 115.353H177.471V123.117H169.706V115.353ZM185.236 115.353H193V123.117H185.236V115.353ZM200.765 115.353H208.53V123.117H200.765V115.353ZM216.294 115.353H224.059V123.117H216.294V115.353ZM231.824 115.353H239.589V123.117H231.824V115.353ZM29.9408 123.117H37.7056V130.882H29.9408V123.117ZM37.7056 123.117H45.4703V130.882H37.7056V123.117ZM60.9998 123.117H68.7645V130.882H60.9998V123.117ZM76.5293 123.117H84.294V130.882H76.5293V123.117ZM92.0587 123.117H99.8235V130.882H92.0587V123.117ZM99.8235 123.117H107.588V130.882H99.8235V123.117ZM107.588 123.117H115.353V130.882H107.588V123.117ZM130.882 123.117H138.647V130.882H130.882V123.117ZM138.647 123.117H146.412V130.882H138.647V123.117ZM154.177 123.117H161.941V130.882H154.177V123.117ZM177.471 123.117H185.236V130.882H177.471V123.117ZM200.765 123.117H208.53V130.882H200.765V123.117ZM231.824 123.117H239.589V130.882H231.824V123.117ZM14.4114 130.882H22.1761V138.647H14.4114V130.882ZM22.1761 130.882H29.9408V138.647H22.1761V130.882ZM99.8235 130.882H107.588V138.647H99.8235V130.882ZM115.353 130.882H123.118V138.647H115.353V130.882ZM130.882 130.882H138.647V138.647H130.882V130.882ZM138.647 130.882H146.412V138.647H138.647V130.882ZM169.706 130.882H177.471V138.647H169.706V130.882ZM185.236 130.882H193V138.647H185.236V130.882ZM193 130.882H200.765V138.647H193V130.882ZM208.53 130.882H216.294V138.647H208.53V130.882ZM224.059 130.882H231.824V138.647H224.059V130.882ZM14.4114 138.647H22.1761V146.412H14.4114V138.647ZM22.1761 138.647H29.9408V146.412H22.1761V138.647ZM29.9408 138.647H37.7056V146.412H29.9408V138.647ZM37.7056 138.647H45.4703V146.412H37.7056V138.647ZM60.9998 138.647H68.7645V146.412H60.9998V138.647ZM68.7645 138.647H76.5293V146.412H68.7645V138.647ZM99.8235 138.647H107.588V146.412H99.8235V138.647ZM115.353 138.647H123.118V146.412H115.353V138.647ZM130.882 138.647H138.647V146.412H130.882V138.647ZM138.647 138.647H146.412V146.412H138.647V138.647ZM161.941 138.647H169.706V146.412H161.941V138.647ZM169.706 138.647H177.471V146.412H169.706V138.647ZM177.471 138.647H185.236V146.412H177.471V138.647ZM224.059 138.647H231.824V146.412H224.059V138.647ZM14.4114 146.412H22.1761V154.176H14.4114V146.412ZM22.1761 146.412H29.9408V154.176H22.1761V146.412ZM37.7056 146.412H45.4703V154.176H37.7056V146.412ZM53.2351 146.412H60.9998V154.176H53.2351V146.412ZM68.7645 146.412H76.5293V154.176H68.7645V146.412ZM76.5293 146.412H84.294V154.176H76.5293V146.412ZM92.0587 146.412H99.8235V154.176H92.0587V146.412ZM99.8235 146.412H107.588V154.176H99.8235V146.412ZM107.588 146.412H115.353V154.176H107.588V146.412ZM123.118 146.412H130.882V154.176H123.118V146.412ZM146.412 146.412H154.177V154.176H146.412V146.412ZM154.177 146.412H161.941V154.176H154.177V146.412ZM177.471 146.412H185.236V154.176H177.471V146.412ZM185.236 146.412H193V154.176H185.236V146.412ZM193 146.412H200.765V154.176H193V146.412ZM200.765 146.412H208.53V154.176H200.765V146.412ZM216.294 146.412H224.059V154.176H216.294V146.412ZM231.824 146.412H239.589V154.176H231.824V146.412ZM53.2351 154.176H60.9998V161.941H53.2351V154.176ZM60.9998 154.176H68.7645V161.941H60.9998V154.176ZM76.5293 154.176H84.294V161.941H76.5293V154.176ZM99.8235 154.176H107.588V161.941H99.8235V154.176ZM107.588 154.176H115.353V161.941H107.588V154.176ZM115.353 154.176H123.118V161.941H115.353V154.176ZM130.882 154.176H138.647V161.941H130.882V154.176ZM154.177 154.176H161.941V161.941H154.177V154.176ZM193 154.176H200.765V161.941H193V154.176ZM231.824 154.176H239.589V161.941H231.824V154.176ZM29.9408 161.941H37.7056V169.706H29.9408V161.941ZM37.7056 161.941H45.4703V169.706H37.7056V161.941ZM84.294 161.941H92.0587V169.706H84.294V161.941ZM92.0587 161.941H99.8235V169.706H92.0587V161.941ZM115.353 161.941H123.118V169.706H115.353V161.941ZM130.882 161.941H138.647V169.706H130.882V161.941ZM138.647 161.941H146.412V169.706H138.647V161.941ZM146.412 161.941H154.177V169.706H146.412V161.941ZM154.177 161.941H161.941V169.706H154.177V161.941ZM161.941 161.941H169.706V169.706H161.941V161.941ZM208.53 161.941H216.294V169.706H208.53V161.941ZM224.059 161.941H231.824V169.706H224.059V161.941ZM14.4114 169.706H22.1761V177.471H14.4114V169.706ZM22.1761 169.706H29.9408V177.471H22.1761V169.706ZM29.9408 169.706H37.7056V177.471H29.9408V169.706ZM45.4703 169.706H53.2351V177.471H45.4703V169.706ZM60.9998 169.706H68.7645V177.471H60.9998V169.706ZM76.5293 169.706H84.294V177.471H76.5293V169.706ZM84.294 169.706H92.0587V177.471H84.294V169.706ZM92.0587 169.706H99.8235V177.471H92.0587V169.706ZM99.8235 169.706H107.588V177.471H99.8235V169.706ZM161.941 169.706H169.706V177.471H161.941V169.706ZM169.706 169.706H177.471V177.471H169.706V169.706ZM177.471 169.706H185.236V177.471H177.471V169.706ZM185.236 169.706H193V177.471H185.236V169.706ZM193 169.706H200.765V177.471H193V169.706ZM200.765 169.706H208.53V177.471H200.765V169.706ZM208.53 169.706H216.294V177.471H208.53V169.706ZM231.824 169.706H239.589V177.471H231.824V169.706ZM76.5293 177.471H84.294V185.235H76.5293V177.471ZM84.294 177.471H92.0587V185.235H84.294V177.471ZM107.588 177.471H115.353V185.235H107.588V177.471ZM115.353 177.471H123.118V185.235H115.353V177.471ZM130.882 177.471H138.647V185.235H130.882V177.471ZM138.647 177.471H146.412V185.235H138.647V177.471ZM154.177 177.471H161.941V185.235H154.177V177.471ZM169.706 177.471H177.471V185.235H169.706V177.471ZM200.765 177.471H208.53V185.235H200.765V177.471ZM216.294 177.471H224.059V185.235H216.294V177.471ZM224.059 177.471H231.824V185.235H224.059V177.471ZM231.824 177.471H239.589V185.235H231.824V177.471ZM14.4114 185.235H22.1761V193H14.4114V185.235ZM22.1761 185.235H29.9408V193H22.1761V185.235ZM29.9408 185.235H37.7056V193H29.9408V185.235ZM37.7056 185.235H45.4703V193H37.7056V185.235ZM45.4703 185.235H53.2351V193H45.4703V185.235ZM53.2351 185.235H60.9998V193H53.2351V185.235ZM60.9998 185.235H68.7645V193H60.9998V185.235ZM84.294 185.235H92.0587V193H84.294V185.235ZM99.8235 185.235H107.588V193H99.8235V185.235ZM115.353 185.235H123.118V193H115.353V185.235ZM123.118 185.235H130.882V193H123.118V185.235ZM130.882 185.235H138.647V193H130.882V185.235ZM138.647 185.235H146.412V193H138.647V185.235ZM146.412 185.235H154.177V193H146.412V185.235ZM161.941 185.235H169.706V193H161.941V185.235ZM169.706 185.235H177.471V193H169.706V185.235ZM185.236 185.235H193V193H185.236V185.235ZM200.765 185.235H208.53V193H200.765V185.235ZM231.824 185.235H239.589V193H231.824V185.235ZM14.4114 193H22.1761V200.765H14.4114V193ZM60.9998 193H68.7645V200.765H60.9998V193ZM92.0587 193H99.8235V200.765H92.0587V193ZM99.8235 193H107.588V200.765H99.8235V193ZM115.353 193H123.118V200.765H115.353V193ZM138.647 193H146.412V200.765H138.647V193ZM146.412 193H154.177V200.765H146.412V193ZM154.177 193H161.941V200.765H154.177V193ZM161.941 193H169.706V200.765H161.941V193ZM169.706 193H177.471V200.765H169.706V193ZM200.765 193H208.53V200.765H200.765V193ZM208.53 193H216.294V200.765H208.53V193ZM231.824 193H239.589V200.765H231.824V193ZM14.4114 200.765H22.1761V208.529H14.4114V200.765ZM29.9408 200.765H37.7056V208.529H29.9408V200.765ZM37.7056 200.765H45.4703V208.529H37.7056V200.765ZM45.4703 200.765H53.2351V208.529H45.4703V200.765ZM60.9998 200.765H68.7645V208.529H60.9998V200.765ZM76.5293 200.765H84.294V208.529H76.5293V200.765ZM92.0587 200.765H99.8235V208.529H92.0587V200.765ZM99.8235 200.765H107.588V208.529H99.8235V200.765ZM107.588 200.765H115.353V208.529H107.588V200.765ZM115.353 200.765H123.118V208.529H115.353V200.765ZM123.118 200.765H130.882V208.529H123.118V200.765ZM130.882 200.765H138.647V208.529H130.882V200.765ZM154.177 200.765H161.941V208.529H154.177V200.765ZM161.941 200.765H169.706V208.529H161.941V200.765ZM169.706 200.765H177.471V208.529H169.706V200.765ZM177.471 200.765H185.236V208.529H177.471V200.765ZM185.236 200.765H193V208.529H185.236V200.765ZM193 200.765H200.765V208.529H193V200.765ZM200.765 200.765H208.53V208.529H200.765V200.765ZM14.4114 208.529H22.1761V216.294H14.4114V208.529ZM29.9408 208.529H37.7056V216.294H29.9408V208.529ZM37.7056 208.529H45.4703V216.294H37.7056V208.529ZM45.4703 208.529H53.2351V216.294H45.4703V208.529ZM60.9998 208.529H68.7645V216.294H60.9998V208.529ZM92.0587 208.529H99.8235V216.294H92.0587V208.529ZM107.588 208.529H115.353V216.294H107.588V208.529ZM115.353 208.529H123.118V216.294H115.353V208.529ZM138.647 208.529H146.412V216.294H138.647V208.529ZM193 208.529H200.765V216.294H193V208.529ZM208.53 208.529H216.294V216.294H208.53V208.529ZM216.294 208.529H224.059V216.294H216.294V208.529ZM224.059 208.529H231.824V216.294H224.059V208.529ZM14.4114 216.294H22.1761V224.059H14.4114V216.294ZM29.9408 216.294H37.7056V224.059H29.9408V216.294ZM37.7056 216.294H45.4703V224.059H37.7056V216.294ZM45.4703 216.294H53.2351V224.059H45.4703V216.294ZM60.9998 216.294H68.7645V224.059H60.9998V216.294ZM92.0587 216.294H99.8235V224.059H92.0587V216.294ZM99.8235 216.294H107.588V224.059H99.8235V216.294ZM107.588 216.294H115.353V224.059H107.588V216.294ZM115.353 216.294H123.118V224.059H115.353V216.294ZM138.647 216.294H146.412V224.059H138.647V216.294ZM146.412 216.294H154.177V224.059H146.412V216.294ZM161.941 216.294H169.706V224.059H161.941V216.294ZM169.706 216.294H177.471V224.059H169.706V216.294ZM177.471 216.294H185.236V224.059H177.471V216.294ZM208.53 216.294H216.294V224.059H208.53V216.294ZM224.059 216.294H231.824V224.059H224.059V216.294ZM231.824 216.294H239.589V224.059H231.824V216.294ZM14.4114 224.059H22.1761V231.824H14.4114V224.059ZM60.9998 224.059H68.7645V231.824H60.9998V224.059ZM76.5293 224.059H84.294V231.824H76.5293V224.059ZM84.294 224.059H92.0587V231.824H84.294V224.059ZM99.8235 224.059H107.588V231.824H99.8235V224.059ZM115.353 224.059H123.118V231.824H115.353V224.059ZM146.412 224.059H154.177V231.824H146.412V224.059ZM161.941 224.059H169.706V231.824H161.941V224.059ZM169.706 224.059H177.471V231.824H169.706V224.059ZM185.236 224.059H193V231.824H185.236V224.059ZM193 224.059H200.765V231.824H193V224.059ZM208.53 224.059H216.294V231.824H208.53V224.059ZM224.059 224.059H231.824V231.824H224.059V224.059ZM231.824 224.059H239.589V231.824H231.824V224.059ZM14.4114 231.824H22.1761V239.588H14.4114V231.824ZM22.1761 231.824H29.9408V239.588H22.1761V231.824ZM29.9408 231.824H37.7056V239.588H29.9408V231.824ZM37.7056 231.824H45.4703V239.588H37.7056V231.824ZM45.4703 231.824H53.2351V239.588H45.4703V231.824ZM53.2351 231.824H60.9998V239.588H53.2351V231.824ZM60.9998 231.824H68.7645V239.588H60.9998V231.824ZM84.294 231.824H92.0587V239.588H84.294V231.824ZM107.588 231.824H115.353V239.588H107.588V231.824ZM115.353 231.824H123.118V239.588H115.353V231.824ZM130.882 231.824H138.647V239.588H130.882V231.824ZM138.647 231.824H146.412V239.588H138.647V231.824ZM146.412 231.824H154.177V239.588H146.412V231.824ZM169.706 231.824H177.471V239.588H169.706V231.824ZM200.765 231.824H208.53V239.588H200.765V231.824ZM208.53 231.824H216.294V239.588H208.53V231.824ZM224.059 231.824H231.824V239.588H224.059V231.824Z" fill="black"/>
</svg>
