<svg xmlns="http://www.w3.org/2000/svg" width="73" height="14" fill="none"><path fill="#0F0" d="M20.047 13.205c-1.018 0-1.865-.314-2.531-.952-.676-.647-1.009-1.446-1.009-2.379 0-.942.333-1.731 1.009-2.369.666-.647 1.513-.961 2.53-.961.61 0 1.18.133 1.704.41.524.275.923.646 1.218 1.122l-.97.533a2.03 2.03 0 0 0-.79-.761c-.343-.19-.733-.276-1.161-.276-.714 0-1.304.219-1.76.656-.448.428-.667.98-.667 1.656 0 .676.22 1.227.666 1.656.457.437 1.047.656 1.76.656.43 0 .81-.095 1.162-.276.352-.19.609-.437.78-.76l.97.522c-.275.467-.684.847-1.208 1.133a3.738 3.738 0 0 1-1.703.39ZM25.176 9.246c.2 0 .37.067.514.21.142.142.209.313.209.513s-.067.371-.21.514a.696.696 0 0 1-.513.21.696.696 0 0 1-.514-.21.696.696 0 0 1-.21-.514c0-.2.067-.37.21-.514a.668.668 0 0 1 .514-.209ZM32.436 8.79c0 1.208-.942 2.16-2.179 2.16h-1.342v2.255h-1.084V6.63h2.426c1.237 0 2.18.932 2.18 2.16Zm-1.084 0c0-.666-.457-1.151-1.104-1.151h-1.342v2.293h1.351c.638 0 1.095-.485 1.095-1.142ZM36.728 11.883H33.93l-.456 1.322h-1.171l2.389-6.575h1.294l2.379 6.575h-1.161l-.476-1.322Zm-.352-1.019-1.047-2.969-1.047 2.97h2.094ZM41.61 10.807h-1.276v2.398H39.25V6.63h2.635c1.17 0 2.113.942 2.113 2.112 0 .847-.533 1.599-1.304 1.913l1.494 2.56h-1.18l-1.399-2.408Zm-1.276-.97h1.551c.571 0 1.038-.486 1.038-1.104 0-.619-.457-1.104-1.038-1.104h-1.55v2.208ZM49.327 7.657H47.48v5.548h-1.085V7.657H44.53V6.62h4.796v1.037ZM55.34 6.63v6.575h-.846l-3.102-4.463v4.463h-1.085V6.63h.847l3.102 4.463V6.63h1.085ZM60.84 12.168v1.037h-3.996V6.63h3.95v1.037h-2.865V9.38h2.636v1.028h-2.636v1.78h2.912v-.02ZM64.38 10.807h-1.274v2.398H62.02V6.63h2.636c1.17 0 2.112.942 2.112 2.112 0 .847-.533 1.599-1.303 1.913l1.493 2.56h-1.18l-1.398-2.408Zm-1.284-.97h1.551c.571 0 1.037-.486 1.037-1.104 0-.619-.456-1.104-1.037-1.104h-1.551v2.208ZM67.53 11.712l.933-.543c.238.666.742 1.114 1.637 1.114.856 0 1.218-.39 1.218-.866 0-.58-.514-.78-1.494-1.085-1.028-.314-2.018-.685-2.018-1.932 0-1.208 1.01-1.903 2.113-1.903 1.085 0 1.884.571 2.293 1.446l-.913.524c-.238-.524-.647-.923-1.38-.923-.628 0-1.037.323-1.037.818 0 .505.37.723 1.322 1.028 1.095.352 2.189.685 2.189 1.989 0 1.199-.961 1.931-2.331 1.931-1.294.02-2.189-.618-2.531-1.598ZM9.085 11.226l3.596-2.065-.39 1.028-2.845 1.646 2.474-.666-.304.809-1.989.523h1.789l-.267.704H2.758l-.267-.704H4.29l-1.999-.523-.304-.809 2.483.666-2.854-1.646-.39-1.028 3.597 2.065L.31 6.735v-.01l.514-.476 4.5 4.482-3.263-5.614.533-.495 3.33 5.767-1.903-7.08.58-.533 2.008 7.432V.93l.353-.324.342.324v9.278l1.998-7.432.58.523-1.902 7.09 3.34-5.767.533.495L8.59 10.73l4.5-4.482.515.476-4.52 4.501Z"/></svg>
