<?xml version="1.0" standalone="no"?>
<!DOCTYPE svg PUBLIC "-//W3C//DTD SVG 20010904//EN"
 "http://www.w3.org/TR/2001/REC-SVG-20010904/DTD/svg10.dtd">
<svg version="1.0" xmlns="http://www.w3.org/2000/svg"
 width="1301.000000pt" height="280.000000pt" viewBox="0 0 1301.000000 280.000000"
 preserveAspectRatio="xMidYMid meet">

<g transform="translate(0.000000,280.000000) scale(0.100000,-0.100000)"
fill="#fff" stroke="none">
<path d="M6192 2667 c-45 -14 -118 -80 -145 -131 -20 -37 -22 -59 -25 -233 -3
-156 -1 -202 12 -248 57 -193 304 -248 436 -97 59 67 70 115 70 317 0 219 -10
259 -85 332 -32 31 -68 56 -92 62 -47 13 -127 13 -171 -2z m76 -219 c9 -9 15
-9 24 0 20 20 75 14 98 -10 45 -49 2 -150 -82 -194 -24 -13 -32 -13 -55 0 -85
44 -129 150 -83 196 22 22 79 27 98 8z"/>
<path d="M4819 2596 c-162 -45 -301 -186 -345 -351 -18 -66 -17 -206 1 -274
49 -187 204 -333 384 -362 108 -17 209 8 301 76 l50 37 0 -56 0 -56 75 0 75 0
0 255 0 255 -175 0 -175 0 0 -70 0 -70 100 0 100 0 0 -33 c0 -57 -98 -137
-200 -163 -96 -24 -177 -4 -251 63 -80 72 -116 173 -106 295 10 117 66 213
156 266 40 23 57 27 126 27 67 0 88 -5 131 -27 47 -25 90 -65 112 -105 7 -12
21 -6 80 37 71 51 71 52 58 79 -21 40 -107 116 -162 144 -92 46 -235 60 -335
33z"/>
<path d="M11930 2600 c-168 -35 -318 -186 -365 -365 -70 -270 119 -577 385
-625 153 -28 329 27 427 133 54 58 66 82 50 94 -37 29 -141 83 -147 76 -3 -4
-18 -25 -33 -45 -41 -56 -125 -93 -212 -93 -59 0 -79 5 -124 30 -222 122 -220
490 3 608 31 16 58 22 116 22 94 0 175 -35 217 -95 16 -22 32 -40 36 -40 11 0
124 77 132 91 22 35 -125 166 -218 195 -63 19 -206 27 -267 14z"/>
<path d="M720 2105 l0 -495 209 0 c114 0 232 5 262 10 184 35 326 175 365 359
48 229 -36 456 -207 558 -91 54 -146 63 -401 63 l-228 0 0 -495z m404 325
c164 -27 249 -139 248 -329 -1 -133 -59 -243 -156 -294 -35 -18 -62 -22 -173
-25 l-133 -4 0 324 c0 179 3 328 7 331 10 10 139 8 207 -3z"/>
<path d="M1860 2543 c-88 -234 -340 -922 -340 -927 0 -3 44 -6 98 -6 l97 0 45
125 45 125 175 -2 174 -3 45 -122 45 -123 98 0 c54 0 98 2 98 4 0 4 -336 920
-355 969 -6 15 -21 17 -105 17 l-99 0 -21 -57z m188 -341 c34 -103 62 -193 62
-200 0 -9 -35 -12 -136 -12 -105 0 -135 3 -132 13 10 42 134 387 138 387 3 0
33 -85 68 -188z"/>
<path d="M2310 2520 l0 -80 155 0 155 0 0 -415 0 -415 95 0 95 0 2 413 3 412
158 3 157 3 0 79 0 80 -410 0 -410 0 0 -80z"/>
<path d="M3190 2105 l0 -495 95 0 95 0 0 495 0 495 -95 0 -95 0 0 -495z"/>
<path d="M3520 2105 l0 -495 95 0 95 0 2 316 3 316 250 -315 250 -316 83 -1
82 0 0 495 0 495 -95 0 -95 0 0 -320 c0 -176 -3 -320 -7 -320 -5 0 -120 144
-258 320 l-250 320 -77 0 -78 0 0 -495z"/>
<path d="M7200 2520 l0 -79 158 -3 157 -3 3 -412 2 -413 95 0 95 0 0 415 0
415 160 0 160 0 0 80 0 80 -415 0 -415 0 0 -80z"/>
<path d="M8080 2105 l0 -495 95 0 95 0 0 165 0 165 99 0 99 0 100 -162 100
-163 188 0 188 0 45 123 45 122 174 -2 174 -3 46 -122 45 -123 100 0 c90 0 99
2 92 18 -9 23 -335 910 -347 945 l-10 28 -100 -3 -101 -3 -168 -455 c-92 -250
-171 -461 -176 -469 -7 -11 -35 27 -108 149 -71 119 -95 165 -84 168 33 10
126 119 142 167 43 125 11 263 -82 356 -85 85 -105 89 -403 89 l-248 0 0 -495z
m486 309 c45 -33 67 -70 72 -122 6 -63 -10 -111 -49 -148 -30 -29 -31 -29
-175 -32 l-144 -3 0 159 c0 87 3 162 8 166 4 4 64 6 134 4 109 -3 130 -6 154
-24z m812 -212 c34 -103 62 -193 62 -200 0 -9 -35 -12 -135 -12 -74 0 -135 3
-135 8 0 16 133 392 139 392 4 0 34 -85 69 -188z"/>
<path d="M9810 2105 l0 -495 95 0 95 0 0 205 0 205 200 0 200 0 0 80 0 80
-200 0 -201 0 3 128 3 127 238 3 237 2 0 80 0 80 -335 0 -335 0 0 -495z"/>
<path d="M10550 2105 l0 -495 95 0 95 0 0 205 0 205 195 0 195 0 0 80 0 80
-195 0 -195 0 0 130 0 130 235 0 235 0 0 80 0 80 -330 0 -330 0 0 -495z"/>
<path d="M11280 2105 l0 -495 95 0 95 0 0 495 0 495 -95 0 -95 0 0 -495z"/>
<path d="M5837 2252 c-35 -38 -14 -211 38 -318 58 -118 170 -209 298 -240 l66
-17 3 -70 c2 -54 7 -72 21 -81 12 -8 22 -8 35 0 13 9 18 27 20 82 l3 71 51 11
c182 39 328 194 357 380 17 106 14 164 -10 186 -37 34 -53 9 -62 -97 -12 -156
-53 -244 -147 -318 -179 -142 -451 -85 -558 117 -32 60 -51 151 -52 243 0 65
-29 88 -63 51z"/>
<path d="M8790 1192 c-83 -28 -114 -47 -159 -98 -73 -83 -91 -205 -47 -301 40
-85 87 -111 351 -193 55 -17 114 -41 130 -54 26 -21 30 -31 30 -71 0 -37 -5
-51 -23 -66 -78 -63 -245 -44 -407 45 l-62 34 -43 -80 c-48 -91 -53 -81 55
-133 111 -54 183 -70 325 -69 105 0 134 3 180 22 123 49 180 133 180 264 0
160 -75 230 -319 297 -139 39 -172 52 -200 82 -26 28 -28 85 -5 118 51 72 225
65 363 -14 24 -14 47 -22 51 -18 4 4 23 38 43 75 40 74 40 71 -33 108 -88 45
-153 61 -255 66 -79 3 -111 0 -155 -14z"/>
<path d="M3770 705 l0 -495 440 0 440 0 111 168 c61 92 115 171 120 176 4 5
60 -71 123 -168 l116 -176 106 0 105 0 -117 173 c-64 94 -139 204 -167 244
-31 46 -46 77 -41 85 5 7 81 120 171 251 l162 237 -104 0 -105 0 -121 -181
-121 -181 -31 44 c-18 25 -72 106 -122 181 l-90 137 -437 0 -438 0 0 -495z
m839 238 c83 -123 154 -229 156 -236 3 -7 -64 -116 -150 -242 l-155 -229 0 72
0 72 -250 0 -250 0 0 130 0 130 210 0 210 0 0 75 0 75 -210 0 -210 0 0 125 0
125 240 0 240 0 0 72 c0 40 4 68 8 63 5 -6 77 -110 161 -232z"/>
<path d="M5370 705 l0 -495 95 0 95 0 0 164 0 164 158 4 c137 4 163 7 204 27
58 28 132 106 161 169 30 67 31 198 0 264 -30 65 -108 146 -168 174 -48 23
-59 24 -297 24 l-248 0 0 -495z m473 312 c46 -30 67 -75 67 -142 0 -74 -24
-123 -71 -148 -28 -14 -55 -17 -154 -15 l-120 3 -3 150 c-1 82 0 155 3 163 8
22 242 13 278 -11z"/>
<path d="M6180 705 l0 -495 340 0 340 0 0 85 0 85 -245 0 -245 0 0 130 0 130
210 0 210 0 0 75 0 75 -210 0 -210 0 0 125 0 125 240 0 240 0 0 80 0 80 -335
0 -335 0 0 -495z"/>
<path d="M6950 705 l0 -495 95 0 95 0 0 165 0 165 98 0 97 0 100 -165 100
-165 107 0 107 0 -110 181 c-61 99 -109 185 -107 189 2 5 19 19 38 32 196 132
160 460 -63 564 -51 23 -59 24 -304 24 l-253 0 0 -495z m487 309 c68 -51 90
-161 47 -234 -33 -58 -70 -70 -216 -70 l-128 0 0 166 0 166 134 -4 c118 -3
138 -6 163 -24z"/>
<path d="M7710 1120 l0 -79 158 -3 157 -3 3 -412 2 -413 95 0 95 0 2 413 3
412 158 3 157 3 0 79 0 80 -415 0 -415 0 0 -80z"/>
</g>
</svg>
