<svg fill="#ffffff" xmlns="http://www.w3.org/2000/svg" viewBox="0 0 860.28 132"><defs><style>.cls-1{fill:#ffc834}.cls-3{fill:#f9c032}.cls-4{isolation:isolate}</style></defs><g id="Слой_2" data-name="Слой 2"><g id="лого_обводка_жирная" data-name="лого+обводка жирная"><g id="обводка_жирная" data-name="обводка жирная"><g id="Сгруппировать_85" data-name="Сгруппировать 85"><g id="Прямоугольник_19" data-name="Прямоугольник 19"><path d="M7.32 67a2.74 2.74 0 0 1-1.76-.64 2.75 2.75 0 0 1-.34-3.87L56 2a2.73 2.73 0 0 1 2.1-1 2.74 2.74 0 0 1 2.1 4.5L9.42 66a2.74 2.74 0 0 1-2.1 1Z" class="cls-1"/><path d="M58.07 2a1.74 1.74 0 0 1 1.33 2.86L8.65 65.33A1.74 1.74 0 0 1 6 63.09L56.73 2.62A1.75 1.75 0 0 1 58.07 2m0-2a3.74 3.74 0 0 0-2.87 1.34L4.45 61.8a3.74 3.74 0 1 0 5.73 4.81L60.93 6.15a3.72 3.72 0 0 0 .86-2.73A3.66 3.66 0 0 0 60.47.88a3.72 3.72 0 0 0-2.4-.88Z"/></g><g id="Прямоугольник_20" data-name="Прямоугольник 20"><path d="M70.75 131a2.76 2.76 0 0 1-1.76-.64 2.71 2.71 0 0 1-1-1.86 2.74 2.74 0 0 1 .63-2L119.4 66a2.74 2.74 0 1 1 4.2 3.53L72.85 130a2.74 2.74 0 0 1-2.1 1Z" class="cls-1"/><path d="M121.5 66.05a1.76 1.76 0 0 1 1.12.41 1.73 1.73 0 0 1 .21 2.45l-50.74 60.47a1.75 1.75 0 0 1-1.34.62 1.74 1.74 0 0 1-1.33-2.86l50.75-60.47a1.72 1.72 0 0 1 1.33-.62m0-2a3.75 3.75 0 0 0-2.87 1.34l-50.74 60.46a3.74 3.74 0 1 0 5.73 4.81l50.75-60.46a3.75 3.75 0 0 0-2.87-6.15Z"/></g><g id="Прямоугольник_21" data-name="Прямоугольник 21"><path d="M3.74 46.51A2.75 2.75 0 0 1 1.64 42l26.12-31.12a2.74 2.74 0 0 1 3.86-.34 2.75 2.75 0 0 1 .38 3.87L5.84 45.53a2.74 2.74 0 0 1-2.1.98Z" class="cls-1"/><path d="M29.86 10.9a1.75 1.75 0 0 1 1.34 2.86L5.08 44.88a1.76 1.76 0 0 1-1.34.63 1.78 1.78 0 0 1-1.12-.41 1.74 1.74 0 0 1-.21-2.45l26.12-31.13a1.73 1.73 0 0 1 1.33-.62m0-2A3.72 3.72 0 0 0 27 10.24L.88 41.36a3.74 3.74 0 1 0 5.73 4.81l26.12-31.12a3.75 3.75 0 0 0-2.87-6.15Z"/></g><g id="Прямоугольник_22" data-name="Прямоугольник 22"><path d="M101 122.12a2.75 2.75 0 0 1-2.1-4.51L125 86.49a2.73 2.73 0 0 1 2.1-1 2.76 2.76 0 0 1 1.76.64 2.79 2.79 0 0 1 1 1.86 2.75 2.75 0 0 1-.63 2l-26.12 31.12a2.76 2.76 0 0 1-2.11 1.01Z" class="cls-1"/><path d="M127.07 86.51a1.78 1.78 0 0 1 1.12.41 1.74 1.74 0 0 1 .21 2.45l-26.12 31.13a1.74 1.74 0 0 1-2.67-2.24l26.12-31.13a1.75 1.75 0 0 1 1.34-.62m0-2a3.74 3.74 0 0 0-2.87 1.34L98.08 117a3.74 3.74 0 1 0 5.73 4.81l26.12-31.12a3.72 3.72 0 0 0 .86-2.73 3.66 3.66 0 0 0-1.32-2.54 3.7 3.7 0 0 0-2.4-.88Z"/></g><path d="M58.71 120a3.25 3.25 0 0 1-2.45-1.15 3.29 3.29 0 0 1-.7-2.7l7.17-41.21H27.45a3 3 0 0 1-2.69-1.72 3.06 3.06 0 0 1 .38-3.29l47.4-58.64a2.93 2.93 0 0 1 2.29-1.12 3.11 3.11 0 0 1 2.33 1.09 3.06 3.06 0 0 1 .65 2.52L71.6 49h38.47a3.14 3.14 0 0 1 2.84 1.81 3.33 3.33 0 0 1-.39 3.53L61.13 118.8a3.08 3.08 0 0 1-2.42 1.2Z" style="fill:#fddb33"/><path d="M74.83 11.17a2 2 0 0 1 2 2.44L70.4 50h39.67a2.28 2.28 0 0 1 1.66 3.72l-51.39 64.46a2.06 2.06 0 0 1-1.63.82 2.23 2.23 0 0 1-2.16-2.68l7.37-42.38H27.45a2.07 2.07 0 0 1-1.53-3.38l47.4-58.64a1.92 1.92 0 0 1 1.51-.75m0-2a4 4 0 0 0-3.07 1.49L24.36 69.3a4.08 4.08 0 0 0-.51 4.35 4 4 0 0 0 3.6 2.29h34.09l-7 40a4.24 4.24 0 0 0 4.13 5 4.11 4.11 0 0 0 3.2-1.58L113.3 55a4.31 4.31 0 0 0 .51-4.58 4.13 4.13 0 0 0-3.74-2.42H72.79l6-34a4 4 0 0 0-.87-3.34 4.08 4.08 0 0 0-3.09-1.45Z"/><path d="M109.83 50h-5.22a2.33 2.33 0 0 1-.11 2.72L57 112.28l-.7 4a2.17 2.17 0 0 0 3.8 1.86l51.4-64.42a2.28 2.28 0 0 0-1.67-3.72ZM76.92 13.67 70.51 50h-5l6.37-36.12L73.42 12a2 2 0 0 1 3.5 1.67Z" class="cls-3"/></g><g id="Сгруппировать_83" data-name="Сгруппировать 83"><g class="cls-4"><path d="M145.73 106.5V25.43H177c13.8 0 24.82 3.72 32.76 11s12 17.13 12 29v.22c0 12-4.12 21.88-12.24 29.43s-19.18 11.33-33 11.33Zm31.49-22.18c6.1 0 11-1.62 14.54-4.8S197 71.93 197 66.08v-.23c0-5.85-1.73-10.27-5.28-13.5s-8.43-4.85-14.53-4.85H170v36.82Z"/><path d="M177 26.93q20.2 0 31.74 10.65t11.54 27.94v.22q0 17.4-11.76 28.33t-32 10.93h-29.29V26.93H177m-8.46 58.89h8.68q9.78 0 15.54-5.19t5.77-14.55v-.23q0-9.36-5.77-14.61T177.22 46h-8.68v39.82M177 23.93h-32.77V108h32.33c14.19 0 25.63-4 34-11.73s12.71-18.12 12.71-30.53v-.22c0-12.34-4.21-22.48-12.5-30.14S191.19 23.93 177 23.93ZM171.54 49h5.68c5.8 0 10.22 1.46 13.52 4.46s4.79 7 4.79 12.39v.23c0 5.4-1.56 9.43-4.78 12.32s-7.73 4.42-13.53 4.42h-5.68V49ZM280.62 106.51l-5.43-13.94h-27.4l-5.44 13.94H217l33.56-81h22.34l33.61 81Zm-12.78-33.65-6.29-16.28-6.38 16.27Z"/><path d="M251.57 27h20.33l32.36 78h-22.61l-5.43-13.94h-29.46L241.32 105h-22.06l32.31-78M270 74.36l-8.47-21.91-8.53 21.9h17M249.57 24l-.77 1.85-32.31 78-1.72 4.15h28.6l.75-1.91 4.69-12h25.36l4.68 12 .75 1.91h29.15l-1.75-4.13-32.36-78-.74-1.87h-24.33Zm7.79 47.35 4.18-10.64 4.11 10.64ZM318.34 106.5V47.39h-23.69V25.43h72.49v21.96h-23.81v59.11h-24.99z"/><path d="M365.64 26.93v19h-23.81V105h-22V45.89h-23.68v-19h69.49m3-3h-75.49v25h23.69V108h28V48.89h23.81v-25ZM375.41 25.43h26.37v81.07h-26.37z"/><path d="M400.28 26.93V105h-23.37V26.93h23.37m3-3h-29.37V108h29.37V23.93ZM412.98 106.5V25.43h66.48v21.96h-41.49v10.27h37.52v20.96h-37.52v27.88h-24.99z"/><path d="M478 26.93v19h-41.53v13.23H474v18h-37.53V105h-22V26.93H478m3-3h-69.52V108h28V80.12H477v-24h-37.53v-7.23H481v-25ZM518.53 106.5V76.19l-30.31-50.76h27.67l14.85 26.85 14.95-26.85h27.23l-30.2 50.43v30.64h-24.19z"/><path d="m570.28 26.93-29.06 48.51V105H520V75.78l-29.13-48.85H515l15.72 28.44 15.84-28.44h23.71m5.29-3h-30.75l-.81 1.54-13.26 23.72-13.11-23.71-.85-1.55h-31.2l2.71 4.54L517 76.61V108h27.19V76.27l28.63-47.8 2.72-4.54Z"/></g><g id="Эллипс_15" data-name="Эллипс 15"><circle cx="567.89" cy="95.46" r="10.5"/><path d="M567.89 86.46a9 9 0 1 1-9 9 9 9 0 0 1 9-9m0-3a12 12 0 1 0 12 12 12 12 0 0 0-12-12Z"/></g><path d="M588.93 106.5V29a3.86 3.86 0 0 1 1-2.65 3.74 3.74 0 0 1 2.89-1.17h5.4a3.9 3.9 0 0 1 2.65 1 3.66 3.66 0 0 1 1.18 2.82v64.27h35.27a3.83 3.83 0 0 1 2.68 1.08 3.91 3.91 0 0 1 1.14 2.9v5.43a3.85 3.85 0 0 1-1 2.65 3.67 3.67 0 0 1-2.78 1.17Z"/><path d="M598.24 26.72a2.4 2.4 0 0 1 1.66.58 2.2 2.2 0 0 1 .65 1.74v65.73h36.77a2.23 2.23 0 0 1 1.62.66 2.4 2.4 0 0 1 .69 1.82v5.43a2.31 2.31 0 0 1-.63 1.63 2.16 2.16 0 0 1-1.68.69h-46.89V29a2.34 2.34 0 0 1 .63-1.64 2.31 2.31 0 0 1 1.78-.68h5.4m0-3h-5.4a5.24 5.24 0 0 0-4 1.65 5.35 5.35 0 0 0-1.41 3.67v79h49.89a5.11 5.11 0 0 0 3.89-1.66 5.33 5.33 0 0 0 1.42-3.66v-5.43a5.32 5.32 0 0 0-1.6-4 5.23 5.23 0 0 0-3.71-1.51h-33.77V29a5.12 5.12 0 0 0-1.66-4 5.45 5.45 0 0 0-3.65-1.33Z"/><g class="cls-4"><path d="M846.39 106.5a4.05 4.05 0 0 1-3.4-2.26L816.06 70.1 805.55 82v20.7a3.51 3.51 0 0 1-3.77 3.8h-5.1a3.47 3.47 0 0 1-3.67-3.8V29.52a4 4 0 0 1 .87-2.56 3.42 3.42 0 0 1 2.8-1.24h5.1a3.82 3.82 0 0 1 2.59 1 3.68 3.68 0 0 1 1.18 2.79V63l31.51-35.1a4.36 4.36 0 0 1 3.45-2.18h9.79c2.56 0 2.69 1.73 2.69 2.07a3.05 3.05 0 0 1-1 2.08L851 31c-4.32 5-8.66 9.87-13 14.66s-8.9 9.91-13.42 14.93L857.76 102v.08a7.8 7.8 0 0 1 .67 1.21 2.56 2.56 0 0 1 .31 1.1c0 .22-.08 2.08-2.59 2.08Z"/><path d="M850.3 27.22c.79 0 1.19.19 1.19.57a1.59 1.59 0 0 1-.55 1.05v-.1q-7 8.06-14 15.92t-14.29 15.87l33.88 42.37a6.75 6.75 0 0 1 .57 1 1.75 1.75 0 0 1 .18.49c0 .39-.37.58-1.09.58h-9.8c-.79 0-1.51-.54-2.17-1.62l-28.1-35.62-12.07 13.65v21.32a2 2 0 0 1-2.27 2.3h-5.09c-1.46 0-2.18-.77-2.18-2.3V29.52a2.51 2.51 0 0 1 .54-1.62 2 2 0 0 1 1.64-.68h5.09a2.28 2.28 0 0 1 1.58.63 2.14 2.14 0 0 1 .69 1.67v37.35l34.18-38q1.14-1.62 2.28-1.62h9.79m0-3h-9.79a5.71 5.71 0 0 0-4.62 2.75l-28.84 32V29.52a5.08 5.08 0 0 0-1.67-3.89 5.25 5.25 0 0 0-3.6-1.41h-5.09a5 5 0 0 0-4 1.8 5.54 5.54 0 0 0-1.2 3.5v73.18a5 5 0 0 0 5.18 5.3h5.09a5 5 0 0 0 5.27-5.3V82.51L816 72.43l25.77 32.68a5.42 5.42 0 0 0 4.63 2.89h9.8c2.81 0 4.09-1.85 4.09-3.58a4.09 4.09 0 0 0-.43-1.7 10 10 0 0 0-.78-1.41l-.09-.15-.1-.13-32.3-40.38 12.57-14c4.31-4.81 8.66-9.74 12.94-14.67l1-1.09a4.45 4.45 0 0 0 1.37-3.11c0-1.72-1.31-3.57-4.19-3.57Z"/></g><g id="Контур_367" data-name="Контур 367"><path d="M769 106.5h-.07a3.42 3.42 0 0 1-2.81-1.95l-34.2-56.75v54.9c0 2.81-1.78 3.81-3.45 3.81h-4.29c-1.62 0-3.36-1-3.36-3.81V29.42a4.31 4.31 0 0 1 .78-2.6 3.11 3.11 0 0 1 2.55-1.32h5.72a3.58 3.58 0 0 1 3.1 1.94l33.28 54.77V28.75c.27-2 1.52-3.25 3.36-3.25h4.28a3.62 3.62 0 0 1 2.52 1.1 3.72 3.72 0 0 1 1.06 2.78v73.31c0 2.35-1.37 3.81-3.58 3.81Z"/><path d="M724.11 27h5.72a2 2 0 0 1 1.78 1.16l36.1 59.4V28.94c.17-1.29.79-1.94 1.87-1.94h4.28a2 2 0 0 1 1.42.63 2.23 2.23 0 0 1 .66 1.68v73.38c0 1.54-.69 2.31-2.08 2.31H769a1.94 1.94 0 0 1-1.62-1.16l-37-61.45v60.3q0 2.31-2 2.31h-4.29q-1.86 0-1.86-2.31V29.42a2.78 2.78 0 0 1 .51-1.74 1.61 1.61 0 0 1 1.32-.68m0-3a4.62 4.62 0 0 0-3.79 2 5.83 5.83 0 0 0-1 3.5v73.22c0 3.67 2.44 5.31 4.86 5.31h4.29c2.46 0 5-1.64 5-5.31V53.18l31.38 52.07a4.93 4.93 0 0 0 4 2.74h5.1c3 0 5.08-2.13 5.08-5.31V29.37a5.24 5.24 0 0 0-1.51-3.83 5.07 5.07 0 0 0-3.53-1.54h-4.36a4.82 4.82 0 0 0-4.84 4.55V76.85l-30.5-50.14a5 5 0 0 0-4.32-2.71h-5.81Z"/></g><g id="Объединение_2" data-name="Объединение 2"><path d="M656.92 106.5c-.69 0-2.95-.28-2.95-3.92v-5.49c0-3.54 2.26-3.82 2.95-3.82h17.15V38.44h-17.15c-.69 0-2.95-.28-2.95-3.92V29c0-3.55 2.26-3.82 2.95-3.82H703a2.74 2.74 0 0 1 2.31 1.34 4.32 4.32 0 0 1 .63 2.57v5.39a5 5 0 0 1-.54 2.32 2.69 2.69 0 0 1-2.36 1.6h-15.79v54.88H703a2.74 2.74 0 0 1 2.31 1.34 4.39 4.39 0 0 1 .63 2.56v5.4a5 5 0 0 1-.54 2.32 2.68 2.68 0 0 1-2.36 1.6h-46.12Z"/><path d="M703 26.72a1.23 1.23 0 0 1 1 .6 3 3 0 0 1 .43 1.72v5.48a3.54 3.54 0 0 1-.4 1.69 1.17 1.17 0 0 1-1 .73h-17.28v57.84H703a1.22 1.22 0 0 1 1 .61 3 3 0 0 1 .43 1.7v5.48a3.54 3.54 0 0 1-.4 1.69 1.2 1.2 0 0 1-1 .74h-46.11c-1 0-1.45-.81-1.45-2.43v-5.48c0-1.54.49-2.32 1.45-2.32h18.65V36.94h-18.65c-1 0-1.45-.8-1.45-2.42V29c0-1.55.49-2.32 1.45-2.32H703m0-3h-46.08c-2 0-4.45 1.39-4.45 5.32v5.48c0 4 2.4 5.42 4.45 5.42h15.65v51.87h-15.65c-2 0-4.45 1.4-4.45 5.32v5.48c0 4 2.4 5.43 4.45 5.43h46.16a4.2 4.2 0 0 0 3.66-2.46 6.56 6.56 0 0 0 .69-3v-5.37a5.89 5.89 0 0 0-.88-3.35 4.19 4.19 0 0 0-3.47-2h-14.33V39.94h14.33a4.17 4.17 0 0 0 3.66-2.45 6.62 6.62 0 0 0 .69-3v-5.38a5.89 5.89 0 0 0-.88-3.36 4.19 4.19 0 0 0-3.48-2Z"/></g></g></g></g></g></svg>
