<svg width="412" height="342" viewBox="0 0 412 342" fill="none" xmlns="http://www.w3.org/2000/svg">
<path d="M46.1306 279.257C60.8533 279.257 74.7048 289.014 74.7048 309.747C74.7048 330.481 60.8533 340.238 46.1306 340.238H0.830078V279.257H46.1306ZM39.1613 321.073C44.0398 321.073 52.0545 321.073 52.0545 309.747C52.0545 298.422 44.0398 298.422 39.1613 298.422H23.4803V321.073H39.1613Z" fill="white"/>
<path d="M143.521 296.68H101.705V302.343H143.521V317.152H101.705V322.815H143.521V340.238H79.0544L79.0544 279.257H143.521L143.521 296.68Z" fill="white"/>
<path d="M208.817 279.257H233.732L208.469 340.238H174.842L149.578 279.257H174.493L191.655 324.557L208.817 279.257Z" fill="white"/>
<path d="M262.53 279.257V340.238H239.879V279.257H262.53Z" fill="white"/>
<path d="M290.39 321.073H330.463V340.238H267.74V279.257L290.39 279.257V321.073Z" fill="white"/>
<path d="M333.948 318.72H356.598C356.598 321.682 359.386 323.686 373.76 323.686C387.176 323.686 389.18 322.815 389.18 320.55C389.18 317.936 387.176 317.588 372.889 317.152C345.36 316.281 334.819 311.751 334.819 297.551C334.819 284.135 347.974 278.386 372.018 278.386C395.801 278.386 409.217 284.135 409.217 299.729H386.566C386.566 296.506 381.339 295.809 370.276 295.809C359.647 295.809 357.469 296.332 357.469 298.684C357.469 301.036 359.647 300.949 372.889 301.471C396.933 302.43 411.83 304.085 411.83 320.027C411.83 336.841 397.891 341.109 372.889 341.109C347.887 341.109 333.948 336.841 333.948 318.72Z" fill="white"/>
<path d="M107.211 22.5113C98.7307 41.8183 96.1791 63.7271 100.16 84.413C96.3524 54.0234 107.418 24.4881 124.91 0L113.889 9.6812C74.9803 42.6224 58.5374 98.7953 73.45 147.542C53.5689 182.487 49.5714 225.741 62.3513 263.802C52.826 224.753 58.2752 182.577 79.2458 148.251L78.9217 147.107C66.3036 103.898 77.5931 55.9609 107.206 22.5061L107.211 22.5113Z" fill="white"/>
<path d="M334.98 77C328.125 46.5324 307.919 21.782 285.726 0.632812L295.022 17.885C317.924 59.5358 310.359 115.474 275.046 147.985C308.924 120.856 320.682 71.9528 306.59 31.4129C331.804 64.0577 339.899 108.825 328.091 148.326C349.017 182.556 354.588 225.016 344.812 263.798C357.385 225.726 353.187 182.629 333.507 147.678C340.335 124.809 340.765 100.159 334.98 77Z" fill="white"/>
<path d="M110.907 103.865C139.995 70.2202 186.196 56.6974 228.952 69.003C188.558 47.8313 133.217 63.9282 110.907 103.865Z" fill="white"/>
<path d="M295.059 108.942C292.825 117.752 289.531 126.273 285.349 134.351C291.362 126.345 295.89 117.245 298.967 107.719L298.073 106.938C267.824 79.6862 225.007 67.331 184.875 74.0863C188.856 72.1655 192.971 70.552 197.23 69.2344C186.729 70.3736 176.506 75.2531 167.216 80.0941C211.568 71.6635 258.941 81.5342 295.059 108.942Z" fill="white"/>
<path d="M120.926 138.485C124.349 142.695 128.14 146.609 132.271 150.132L136.275 146.101C126.616 135.744 118.9 123.657 112.843 110.827C113.451 114.293 114.327 117.699 115.427 121.027C110.157 112.68 105.763 103.752 102.15 94.5234C103.898 110.569 110.838 125.923 120.932 138.485H120.926Z" fill="white"/>
<path d="M87.3115 172.828C110.682 285.52 186.356 227.974 186.356 227.974C116.372 227.974 87.3115 172.828 87.3115 172.828Z" fill="white"/>
<path d="M220.993 227.974C220.993 227.974 296.522 285.515 319.848 172.828C319.848 172.828 290.838 227.974 220.993 227.974Z" fill="white"/>
</svg>
