<svg xmlns="http://www.w3.org/2000/svg" width="293" height="47" fill="none"><path fill="#D5F29F" d="M90.122 23.128C90.122 10.355 100.476 0 113.249 0H269.43c12.773 0 23.128 10.355 23.128 23.128s-10.355 23.127-23.128 23.127H113.249c-12.773 0-23.127-10.354-23.127-23.127Z"/><path fill="#D5F29F" d="M0 23.128C0 10.355 10.355 0 23.128 0h43.87C79.77 0 90.124 10.355 90.124 23.128S79.77 46.255 66.997 46.255h-43.87C10.356 46.255 0 35.901 0 23.128Z"/><path fill="#272727" d="M29.639 11.318c2.766 0 5.19.489 7.27 1.466 2.1.957 3.722 2.32 4.866 4.088 1.165 1.747 1.747 3.796 1.747 6.146s-.582 4.41-1.747 6.177c-1.144 1.748-2.766 3.11-4.867 4.088-2.08.956-4.503 1.435-7.27 1.435H17.97v-23.4h11.669Zm-5.242 20.685-3.089-3.026h8.83c1.393 0 2.6-.24 3.619-.718 1.04-.499 1.84-1.195 2.402-2.09.562-.894.843-1.945.843-3.151 0-1.227-.281-2.278-.843-3.151-.561-.895-1.362-1.581-2.402-2.06-1.02-.499-2.226-.748-3.62-.748h-8.829l3.09-3.027v17.971Zm46.418-7.425a12.204 12.204 0 0 1-.873 4.056 10.115 10.115 0 0 1-2.216 3.4c-.956.999-2.163 1.779-3.619 2.34-1.435.562-3.11.843-5.023.843-1.83 0-3.546-.26-5.148-.78-1.601-.54-3.016-1.331-4.243-2.371-1.206-1.04-2.153-2.32-2.84-3.838-.665-1.518-.998-3.255-.998-5.21s.344-3.692 1.03-5.21a10.772 10.772 0 0 1 2.87-3.838c1.248-1.04 2.684-1.82 4.306-2.34 1.643-.54 3.432-.811 5.366-.811 2.58 0 4.805.395 6.677 1.185 1.872.79 3.38 1.873 4.524 3.245 1.144 1.373 1.882 2.964 2.215 4.774h-6.52a3.991 3.991 0 0 0-1.28-2.028c-.624-.583-1.414-1.02-2.37-1.31-.937-.313-2.008-.469-3.215-.469-1.455 0-2.714.26-3.775.78a5.446 5.446 0 0 0-2.464 2.278c-.583.998-.874 2.246-.874 3.744 0 1.518.312 2.797.936 3.837.624 1.04 1.508 1.82 2.652 2.34 1.165.52 2.527.78 4.087.78 1.518 0 2.86-.208 4.025-.623 1.165-.437 2.09-1.072 2.777-1.904.707-.832 1.112-1.83 1.216-2.995l2.777.125Zm-10.17 2.59v-4.556H73.06v12.106h-4.586l-.905-9.267 1.217 1.716h-8.143ZM119.507 11.318c1.955 0 3.64.333 5.054.998 1.435.666 2.527 1.612 3.276 2.84.749 1.206 1.123 2.62 1.123 4.243 0 1.601-.374 3.016-1.123 4.243-.749 1.206-1.841 2.142-3.276 2.808-1.414.666-3.099.998-5.054.998h-10.14V22.27h9.734c1.04 0 1.851-.25 2.434-.749.582-.52.873-1.227.873-2.121 0-.915-.291-1.623-.873-2.122-.583-.52-1.394-.78-2.434-.78h-9.173l2.902-2.995v21.216h-6.458v-23.4h13.135Zm27.572 23.4-.811-6.427.842-2.465-.842-2.465.811-6.458h6.614l-1.123 8.892 1.123 8.923h-6.614Zm1.497-8.892c-.291 1.872-.873 3.515-1.747 4.93-.853 1.414-1.945 2.516-3.276 3.307-1.31.77-2.808 1.154-4.493 1.154-1.747 0-3.286-.385-4.617-1.154-1.31-.79-2.34-1.893-3.089-3.308-.749-1.435-1.123-3.078-1.123-4.93 0-1.892.374-3.545 1.123-4.96.749-1.414 1.779-2.517 3.089-3.307 1.331-.79 2.87-1.186 4.617-1.186 1.685 0 3.183.396 4.493 1.186 1.331.77 2.434 1.862 3.307 3.276.874 1.394 1.446 3.058 1.716 4.992Zm-11.887 0c0 .873.177 1.654.531 2.34a4.252 4.252 0 0 0 1.528 1.622c.645.375 1.384.562 2.216.562.873 0 1.695-.187 2.464-.562a6.582 6.582 0 0 0 2.028-1.622 6.99 6.99 0 0 0 1.311-2.34 6.936 6.936 0 0 0-1.311-2.371 6.585 6.585 0 0 0-2.028-1.623 5.317 5.317 0 0 0-2.464-.592c-.832 0-1.571.197-2.216.592a4.253 4.253 0 0 0-1.528 1.623c-.354.686-.531 1.477-.531 2.37Zm19.225-8.923h6.489l1.061 6.364v11.45h-6.365V22.894l-1.185-5.99Zm15.911-.281v5.429a14.566 14.566 0 0 0-1.778-.25 13.136 13.136 0 0 0-1.498-.093 5.7 5.7 0 0 0-2.527.561c-.769.354-1.393.947-1.872 1.779-.457.832-.686 1.944-.686 3.338l-1.217-1.498a23.1 23.1 0 0 1 .749-3.619c.333-1.144.78-2.153 1.341-3.026.583-.895 1.3-1.591 2.153-2.09.853-.52 1.893-.78 3.12-.78a10.495 10.495 0 0 1 2.215.25Zm.768 4.992v-2.777l3.62-1.466 2.745-5.273h3.619v4.805h7.488v4.711h-7.488v5.241c0 1.29.26 2.195.78 2.715s1.467.78 2.839.78c.874 0 1.644-.073 2.309-.219a10.945 10.945 0 0 0 1.872-.623v4.804c-.624.229-1.445.437-2.465.624-1.019.187-2.069.281-3.151.281-1.976 0-3.598-.302-4.867-.905-1.248-.603-2.173-1.466-2.777-2.59-.603-1.143-.904-2.475-.904-3.993v-6.115h-3.62Zm19.517-4.711h6.396l1.154 7.113v10.702h-6.364V23.049l-1.186-6.146Zm14.102-.53c1.706 0 3.162.343 4.368 1.029a6.73 6.73 0 0 1 2.746 2.902c.644 1.248.967 2.724.967 4.43v9.984h-6.365V25.67c0-1.331-.343-2.35-1.03-3.058-.665-.707-1.632-1.06-2.901-1.06-.874 0-1.643.187-2.309.561a3.81 3.81 0 0 0-1.497 1.591c-.354.687-.531 1.498-.531 2.434l-1.965-1.03c.249-1.893.78-3.484 1.591-4.773.811-1.31 1.809-2.299 2.995-2.964 1.186-.666 2.496-.999 3.931-.999Zm21.811 18.844c-2.164 0-4.098-.395-5.804-1.186-1.684-.79-3.016-1.892-3.993-3.307-.978-1.435-1.467-3.099-1.467-4.992 0-1.85.468-3.473 1.404-4.867.936-1.414 2.216-2.517 3.838-3.307 1.643-.79 3.494-1.186 5.554-1.186 2.142 0 3.962.468 5.459 1.404 1.519.916 2.684 2.216 3.495 3.9.832 1.685 1.248 3.672 1.248 5.96h-15.85v-3.838h12.262l-2.091 1.342c-.083-.916-.312-1.685-.686-2.31a3.756 3.756 0 0 0-1.498-1.466c-.603-.332-1.331-.499-2.183-.499-.936 0-1.737.187-2.403.562a4.025 4.025 0 0 0-1.56 1.56c-.374.645-.561 1.404-.561 2.277 0 1.123.249 2.08.748 2.87.52.77 1.269 1.363 2.247 1.779.998.416 2.215.624 3.65.624 1.31 0 2.61-.166 3.9-.5 1.31-.353 2.496-.841 3.557-1.465v4.055c-1.227.832-2.631 1.477-4.212 1.935-1.56.437-3.245.655-5.054.655Zm11.526-18.314h6.49l1.06 6.364v11.45h-6.364V22.894l-1.186-5.99Zm15.912-.281v5.429a14.58 14.58 0 0 0-1.779-.25 13.12 13.12 0 0 0-1.497-.093c-.915 0-1.758.187-2.527.561-.77.354-1.394.947-1.872 1.779-.458.832-.687 1.944-.687 3.338l-1.216-1.498c.166-1.29.416-2.496.748-3.619.333-1.144.78-2.153 1.342-3.026.582-.895 1.3-1.591 2.153-2.09.852-.52 1.892-.78 3.12-.78.353 0 .717.02 1.092.062.374.041.748.104 1.123.187Zm22.525 12.293c0 1.372-.416 2.527-1.248 3.463-.832.936-2.018 1.643-3.557 2.121-1.539.479-3.39.718-5.553.718-2.226 0-4.181-.27-5.866-.811-1.664-.541-2.964-1.3-3.9-2.278-.936-.977-1.435-2.111-1.497-3.4h6.458c.146.478.426.894.842 1.247.437.333 1.009.593 1.716.78.707.167 1.55.25 2.527.25 1.269 0 2.226-.125 2.871-.374.665-.25.998-.624.998-1.123 0-.396-.249-.687-.749-.874-.499-.208-1.352-.364-2.558-.468l-3.151-.25c-2.101-.145-3.775-.457-5.023-.936-1.227-.499-2.111-1.133-2.652-1.903-.541-.79-.811-1.685-.811-2.683 0-1.352.416-2.465 1.248-3.338.852-.895 2.028-1.56 3.525-1.997 1.519-.458 3.287-.687 5.304-.687 1.997 0 3.775.26 5.335.78s2.808 1.248 3.744 2.184c.936.916 1.477 1.997 1.623 3.245h-6.459c-.104-.395-.333-.749-.686-1.06-.354-.333-.843-.604-1.467-.812-.624-.208-1.424-.312-2.402-.312-1.144 0-2.017.125-2.621.375-.582.25-.873.603-.873 1.06 0 .354.177.635.53.843.375.208 1.061.353 2.059.436l4.15.313c2.059.124 3.681.426 4.867.904 1.186.458 2.028 1.072 2.527 1.841.499.77.749 1.685.749 2.746Z"/></svg>
