<svg width="415" height="70" viewBox="0 0 415 70" fill="none" xmlns="http://www.w3.org/2000/svg">
<rect x="211.712" width="203.288" height="69.9998" rx="34.9999" fill="#D5F29F"/>
<rect x="75.3235" width="136.389" height="69.9998" rx="34.9999" fill="#D5F29F"/>
<rect y="0.0932617" width="75.3218" height="69.9025" rx="34.9513" fill="#D5F29F"/>
<g clip-path="url(#clip0_53_123)">
<path d="M95.8991 17.8624H89.2233C86.7597 20.7944 84.9132 23.7842 83.6814 26.8293C82.4496 29.877 81.835 33.0654 81.835 36.3998C81.835 39.7341 82.4496 42.9251 83.6814 45.9702C84.9132 49.0179 86.7597 52.0052 89.2233 54.9371H95.8991C94.1358 51.6028 92.8281 48.4194 91.9735 45.3868C91.1188 42.3543 90.6927 39.3594 90.6927 36.3972C90.6927 33.4351 91.1188 30.3547 91.9735 27.3222C92.8281 24.2896 94.1358 21.1363 95.8991 17.8599V17.8624Z" fill="#272727"/>
<path d="M125.186 19.8664C122.372 18.5287 119.105 17.8623 115.38 17.8623H99.6777V50.1971H115.38C119.103 50.1971 122.372 49.5282 125.186 48.193C127.999 46.8578 130.181 44.9744 131.736 42.5453C133.289 40.1162 134.068 37.2798 134.068 34.031C134.068 30.7821 133.292 27.9457 131.736 25.5166C130.184 23.0876 127.999 21.2042 125.186 19.8689V19.8664ZM124.157 38.3837C123.4 39.6208 122.33 40.5764 120.944 41.2503C119.558 41.9267 117.927 42.2637 116.054 42.2637H108.327V25.7958H116.054C117.929 25.7958 119.56 26.1327 120.944 26.8091C122.33 27.4855 123.4 28.4335 124.157 29.6556C124.914 30.8777 125.291 32.3361 125.291 34.031C125.291 35.7258 124.914 37.149 124.157 38.3862V38.3837Z" fill="#272727"/>
<path d="M147.248 17.8623H138.557V50.1971H147.248V17.8623Z" fill="#272727"/>
<path d="M178.633 19.8664C175.819 18.5287 172.552 17.8623 168.83 17.8623H153.128V50.1971H168.83C172.552 50.1971 175.822 49.5282 178.633 48.193C181.444 46.8578 183.629 44.9744 185.184 42.5453C186.737 40.1162 187.515 37.2798 187.515 34.031C187.515 30.7821 186.739 27.9457 185.184 25.5166C183.631 23.0876 181.447 21.2042 178.633 19.8689V19.8664ZM177.605 38.3837C176.848 39.6208 175.778 40.5764 174.392 41.2503C173.006 41.9267 171.375 42.2637 169.501 42.2637H161.775V25.7958H169.501C171.377 25.7958 173.008 26.1327 174.392 26.8091C175.778 27.4855 176.848 28.4335 177.605 29.6556C178.361 30.8777 178.738 32.3361 178.738 34.031C178.738 35.7258 178.361 37.149 177.605 38.3862V38.3837Z" fill="#272727"/>
<path d="M195.114 17.8623H188.438C190.229 21.1388 191.546 24.2946 192.386 27.3246C193.226 30.3572 193.645 33.3822 193.645 36.3997C193.645 39.4172 193.226 42.3567 192.386 45.3893C191.546 48.4218 190.231 51.6053 188.438 54.9396H195.114C197.605 52.0076 199.461 49.0178 200.678 45.9726C201.895 42.9275 202.505 39.7365 202.505 36.4022C202.505 33.0679 201.895 29.8769 200.678 26.8318C199.461 23.7866 197.605 20.7968 195.114 17.8648V17.8623Z" fill="#272727"/>
<path d="M220.162 31.6572H206.242V38.5974H220.162V31.6572Z" fill="#272727"/>
<path d="M320.721 31.6572H306.802V38.5974H320.721V31.6572Z" fill="#272727"/>
<path d="M247.739 29.5881C247.171 28.9469 246.529 28.3358 245.807 27.7575C244.715 26.8799 243.468 26.1758 242.07 25.6453C240.669 25.1147 239.131 24.8481 237.451 24.8481C235.183 24.8481 233.168 25.3234 231.405 26.2714C229.641 27.2194 228.248 28.542 227.227 30.2369C226.206 31.9342 225.694 33.9308 225.694 36.2291C225.694 38.5274 226.203 40.4913 227.227 42.2012C228.248 43.9111 229.641 45.2413 231.405 46.1893C233.168 47.1373 235.183 47.6125 237.451 47.6125C239.55 47.6125 241.433 47.2328 243.098 46.4709C244.764 45.709 246.169 44.7409 247.318 43.5615C247.462 43.4132 247.602 43.2648 247.737 43.114V43.9915C247.737 46.6645 247.017 48.6058 245.574 49.8128C244.132 51.0197 242.04 51.6232 239.298 51.6232C237.365 51.6232 235.441 51.329 233.525 50.7406C231.608 50.1522 229.781 49.1967 228.045 47.874V54.5125C229.921 55.6616 231.801 56.5317 233.692 57.1201C235.58 57.7085 237.632 58.0027 239.844 58.0027C243.174 58.0027 246.064 57.4419 248.515 56.3204C250.964 55.199 252.874 53.562 254.246 51.4045C255.617 49.2495 256.303 46.662 256.303 43.6445V25.5799H247.737V29.5881H247.739ZM244.759 40.2825C243.47 41.1727 242.001 41.6203 240.351 41.6203C239.092 41.6203 238.012 41.399 237.118 40.9514C236.222 40.5063 235.536 39.8727 235.061 39.0554C234.583 38.2357 234.346 37.2952 234.346 36.2316C234.346 35.1679 234.583 34.1847 235.061 33.365C235.536 32.5452 236.229 31.9216 237.14 31.4891C238.049 31.0591 239.121 30.8429 240.353 30.8429C241.977 30.8429 243.431 31.2804 244.719 32.158C246.008 33.0356 247.112 34.3934 248.035 36.2316C247.139 38.0421 246.047 39.3949 244.761 40.2851L244.759 40.2825Z" fill="#272727"/>
<path d="M269.529 17H260.921V50.1973H269.529V17Z" fill="#272727"/>
<path d="M296.548 26.4847C294.239 25.3934 291.557 24.8452 288.509 24.8452C285.46 24.8452 282.741 25.3909 280.447 26.4847C278.152 27.576 276.359 29.0999 275.071 31.0537C273.783 33.0075 273.139 35.2932 273.139 37.9084C273.139 40.5235 273.783 42.7313 275.071 44.6977C276.359 46.6666 278.15 48.1904 280.447 49.2667C282.741 50.3454 285.428 50.8835 288.509 50.8835C291.589 50.8835 294.239 50.3454 296.548 49.2667C298.858 48.1879 300.655 46.6666 301.943 44.6977C303.231 42.7288 303.875 40.4657 303.875 37.9084C303.875 35.3511 303.231 33.0075 301.943 31.0537C300.655 29.0999 298.858 27.576 296.548 26.4847ZM294.386 41.3584C293.854 42.3365 293.09 43.0834 292.099 43.6014C291.104 44.1194 289.907 44.3784 288.509 44.3784C287.11 44.3784 285.905 44.1194 284.896 43.6014C283.887 43.0834 283.118 42.3365 282.587 41.3584C282.056 40.3827 281.789 39.2185 281.789 37.8656C281.789 36.5128 282.053 35.3586 282.587 34.3955C283.118 33.4325 283.887 32.6932 284.896 32.1752C285.905 31.6572 287.108 31.3982 288.509 31.3982C289.909 31.3982 291.104 31.6572 292.099 32.1752C293.093 32.6932 293.854 33.4325 294.386 34.3955C294.917 35.3586 295.184 36.5304 295.184 37.9084C295.184 39.2864 294.917 40.3802 294.386 41.3584Z" fill="#272727"/>
<path d="M350.368 26.4849C348.59 25.3936 346.526 24.8454 344.175 24.8454C341.824 24.8454 339.914 25.3836 338.106 26.4623C336.534 27.4002 335.212 28.6676 334.139 30.2593V17H325.531V50.1973H334.139V45.4573C335.212 47.0616 336.527 48.3315 338.087 49.2694C339.877 50.3482 341.907 50.8863 344.175 50.8863C346.443 50.8863 348.59 50.3482 350.368 49.2694C352.146 48.1907 353.532 46.6694 354.524 44.7005C355.518 42.7316 356.015 40.4684 356.015 37.9111C356.015 35.3538 355.518 33.0102 354.524 31.0564C353.53 29.1026 352.144 27.5788 350.368 26.4875V26.4849ZM346.631 41.1424C346.141 42.0903 345.463 42.8321 344.594 43.3627C343.727 43.8958 342.718 44.1598 341.572 44.1598C340.426 44.1598 339.331 43.8933 338.297 43.3627C337.262 42.8321 336.351 42.0903 335.569 41.1424C334.786 40.1944 334.183 39.1156 333.764 37.9086C334.183 36.674 334.786 35.5801 335.569 34.6321C336.353 33.6841 337.264 32.9373 338.297 32.3891C339.333 31.8435 340.426 31.5694 341.572 31.5694C342.718 31.5694 343.727 31.8435 344.594 32.3891C345.46 32.9348 346.139 33.6816 346.631 34.6321C347.121 35.5801 347.366 36.674 347.366 37.9086C347.366 39.1433 347.121 40.1944 346.631 41.1424Z" fill="#272727"/>
<path d="M381.376 25.5799L380.774 30.5109C379.652 28.8036 378.278 27.4507 376.652 26.465C374.874 25.3863 372.851 24.8481 370.584 24.8481C368.316 24.8481 366.168 25.3938 364.391 26.4876C362.613 27.579 361.222 29.1028 360.213 31.0566C359.206 33.0104 358.702 35.2962 358.702 37.9113C358.702 40.5265 359.206 42.7343 360.213 44.7006C361.222 46.6695 362.613 48.1934 364.391 49.2696C366.168 50.3484 368.233 50.8865 370.584 50.8865C372.935 50.8865 374.872 50.3484 376.652 49.2696C378.281 48.2814 379.65 46.921 380.761 45.196L381.376 50.1975H390.278L388.767 37.8661L390.278 25.5799H381.376ZM376.464 43.3629C375.428 43.896 374.323 44.16 373.148 44.16C371.972 44.16 371.034 43.8935 370.167 43.3629C369.301 42.8323 368.62 42.0905 368.13 41.1425C367.64 40.1945 367.395 39.1158 367.395 37.9088C367.395 36.7018 367.64 35.5803 368.13 34.6323C368.62 33.6843 369.298 32.9375 370.167 32.3893C371.034 31.8437 372.029 31.5696 373.148 31.5696C374.323 31.5696 375.43 31.8437 376.464 32.3893C377.5 32.935 378.408 33.6818 379.194 34.6323C379.978 35.5803 380.566 36.6741 380.957 37.9088C380.566 39.1158 379.978 40.1945 379.194 41.1425C378.411 42.0905 377.5 42.8323 376.464 43.3629Z" fill="#272727"/>
<path d="M403 17H394.392V50.1973H403V17Z" fill="#272727"/>
<path d="M39.8649 22H33.6496V30.8814H25V37.2609H33.6496V46.1424H39.8649V37.2609H48.5145V30.8814H39.8649V22Z" fill="#272727"/>
</g>
<defs>
<clipPath id="clip0_53_123">
<rect width="383" height="41" fill="white" transform="translate(20 17)"/>
</clipPath>
</defs>
</svg>
