<svg width="106" height="14" viewBox="0 0 106 14" fill="none" xmlns="http://www.w3.org/2000/svg">
<g clip-path="url(#clip0_847_6830)">
<path d="M0.776963 7.35645L0.0405273 9.7207H9.99895L10.7354 7.35645H0.776963Z" fill="white"/>
<path d="M1.84062 3.93945L1.17383 6.08087H9.31291L9.97973 3.93945H1.84062Z" fill="white"/>
<path d="M28.2059 13.8395L24.4245 9.72035H24.4332L24.1912 9.46616L21.0435 6.03816L26.6547 2.45348H22.1142L19.4505 4.30415L15.8275 0.357338L15.831 0.348633H15.8205H10.9336H2.95988L2.23389 2.67633H5.96132H7.37327H13.0698L16.3411 6.23839L10.8552 9.72035H15.4601L17.9428 7.98286L23.319 13.8395H28.2059Z" fill="white"/>
<path d="M28.7818 9.72128C26.7396 9.72128 25.8848 9.18853 26.2173 8.12483L28.6477 0.325195H32.3525L31.6857 2.46661H34.6193L33.9525 4.60802H31.0189L30.225 7.15858C30.138 7.43888 30.279 7.57988 30.6498 7.57988H33.0054L32.3386 9.72128H28.7835H28.7818Z" fill="white"/>
<path d="M39.6046 4.60821C39.0475 4.60821 38.7149 4.7823 38.607 5.12876L37.1759 9.72149H33.4502L35.1773 4.1747C35.2539 3.92748 35.3966 3.69941 35.6038 3.49398C35.811 3.28854 36.0704 3.10748 36.382 2.95601C36.6937 2.80281 37.0453 2.68442 37.4353 2.59737C37.8271 2.51032 38.2362 2.4668 38.6645 2.4668H42.8185L42.1517 4.60821H39.6029H39.6046Z" fill="white"/>
<path d="M42.6522 7.13406C43.0579 5.83007 44.1963 5.17895 46.0661 5.17895H50.9272L51.0091 4.91953C51.0906 4.65492 50.9045 4.5226 50.4464 4.5226H43.9578L44.602 2.45605H52.4836C54.482 2.45605 55.304 3.02536 54.9505 4.16396L53.7511 8.01327C53.3959 9.1519 52.219 9.72117 50.2202 9.72117H44.7154C42.8159 9.72117 42.0376 9.1519 42.3771 8.01327L42.6505 7.13406H42.6522ZM50.3039 7.18284C50.3632 6.99306 50.2132 6.89905 49.8563 6.89905H46.9875C46.6026 6.89905 46.3812 6.98958 46.3241 7.17063L46.2631 7.36912C46.2073 7.55017 46.3712 7.6407 46.7556 7.6407H49.6248C49.9818 7.6407 50.1888 7.55017 50.2446 7.36912L50.3022 7.18284H50.3039Z" fill="white"/>
<path d="M63.5213 2.69247L61.3765 9.70689H57.6473L59.7921 2.69247H55.9531L56.674 0.336914H67.9714L67.2505 2.69247H63.5213Z" fill="#00C6FF"/>
<path d="M72.3012 4.6161C71.7372 4.6161 71.4029 4.78844 71.297 5.13316L69.8987 9.70676H66.126L67.8149 4.1826C67.8899 3.93538 68.0307 3.71079 68.2394 3.50536C68.4469 3.29992 68.708 3.1206 69.0214 2.96913C69.3347 2.81766 69.69 2.69754 70.0848 2.61223C70.4802 2.52518 70.8947 2.4834 71.3283 2.4834H75.5343L74.8814 4.6161H72.3012Z" fill="#00C6FF"/>
<path d="M75.4141 7.13013C75.8111 5.83136 76.9566 5.18198 78.8508 5.18198H83.7725L83.8509 4.92256C83.9311 4.65967 83.7393 4.52736 83.2782 4.52736H76.7077L77.3379 2.46777H85.3167C87.3399 2.46777 88.179 3.03534 87.8325 4.16872L86.6609 8.00236C86.3144 9.1375 85.1288 9.70333 83.1056 9.70333H77.5328C75.6106 9.70333 74.8152 9.13576 75.1478 8.00236L75.4158 7.12664L75.4141 7.13013ZM83.1614 7.1789C83.2189 6.98913 83.0677 6.89511 82.7055 6.89511H79.7996C79.4095 6.89511 79.1868 6.98564 79.131 7.16669L79.07 7.36344C79.0147 7.54449 79.1816 7.63502 79.5734 7.63502H82.4788C82.8393 7.63502 83.0485 7.54449 83.1039 7.36344L83.1596 7.1789H83.1614Z" fill="#00C6FF"/>
<path d="M94.2676 2.48329C93.6739 2.48329 93.3396 2.65565 93.2634 3.00037L93.2442 3.0613H95.4984L95.0233 4.61426H92.7687L91.2122 9.70665H87.4395L89.7796 2.04979C89.8545 1.80257 89.9953 1.57798 90.2041 1.37254C90.4116 1.16711 90.6726 0.987787 90.986 0.836319C91.2994 0.684854 91.6546 0.564725 92.0499 0.479417C92.4448 0.392368 92.8593 0.350586 93.293 0.350586H97.499L96.8461 2.48329H94.2658H94.2676Z" fill="#00C6FF"/>
<path d="M102.769 2.48329C102.175 2.48329 101.841 2.65565 101.764 3.00037L101.745 3.0613H103.999L103.524 4.61426H101.27L99.7132 9.70665H95.9404L98.2805 2.04979C98.3555 1.80257 98.4963 1.57798 98.7051 1.37254C98.9125 1.16711 99.1736 0.987787 99.487 0.836319C99.8004 0.684854 100.156 0.564725 100.551 0.479417C100.946 0.392368 101.36 0.350586 101.794 0.350586H106L105.347 2.48329H102.767H102.769Z" fill="#00C6FF"/>
</g>
<defs>
<clipPath id="clip0_847_6830">
<rect width="106" height="13.5551" fill="white" transform="translate(0 0.325195)"/>
</clipPath>
</defs>
</svg>
