<svg width="186" height="78" viewBox="0 0 186 78" fill="none" xmlns="http://www.w3.org/2000/svg">
<path d="M182.373 0C182.373 16.8102 179.07 32.1276 173.047 43.0315C166.247 55.3633 156.533 61.659 144.292 61.659C135.226 61.659 127.389 56.6613 122.662 47.8993C132.894 49.1974 141.831 45.5627 146.43 37.5795C149.214 32.7766 149.538 27.3247 147.336 22.7814C145.005 17.9135 140.212 14.6034 134.254 13.6299C125.9 12.2669 121.237 15.9015 118.776 19.2116C114.566 24.9232 113.789 33.9449 116.444 42.7069C114.825 42.1228 113.141 41.4738 111.458 40.63C108.284 39.0723 105.888 37.3848 104.01 35.6973C104.139 34.0747 104.269 32.3872 104.269 30.7646C104.269 24.2742 102.974 21.0939 100.318 21.0939C97.9868 21.0939 96.1734 22.6516 95.5258 25.1179C94.7486 28.2982 96.0439 32.7117 100.059 36.9954C99.5411 41.344 98.5049 45.368 97.1448 48.094C96.4324 49.5219 95.0077 51.9882 93.1943 51.9882C88.4666 51.9882 86.718 42.9017 85.4227 36.2165C84.257 30.3102 83.5446 26.416 80.5007 26.416C78.1045 26.416 77.7159 29.0122 76.6797 36.0218C76.1616 39.6564 74.7368 49.3272 72.9882 50.3656C71.4986 49.5868 69.3614 42.4473 68.4547 39.3968C66.7709 33.6853 65.9937 31.0891 63.727 31.0891C62.0432 31.0891 60.8127 32.3223 59.8412 37.904C58.2221 36.2165 56.0202 35.0482 53.5592 34.7886C50.6449 34.4641 47.7305 35.3728 45.5933 37.3199C43.4561 39.267 42.1609 41.993 42.1609 44.8488C42.1609 47.5098 43.0676 49.7166 44.5571 51.3392H41.837C40.1532 51.3392 38.5341 50.5603 37.5627 49.1974L35.2312 46.0171C36.9798 45.0435 38.2103 43.2911 38.3398 41.2141C38.4694 39.5266 37.8865 37.9689 36.7208 36.7358C35.555 35.5026 34.0007 34.8535 32.3169 34.8535H10.4916C4.79248 34.8535 0.129526 39.267 0 44.7839C0 47.5098 0.971448 50.106 2.91435 52.0531C4.85724 54.0003 7.44777 55.1036 10.2326 55.1036C17.2918 55.1036 20.4652 50.0411 20.4652 44.9786C20.4652 43.9401 19.6233 43.1613 18.587 43.1613H10.3621V46.8608H16.5146C16.0613 48.8079 14.5717 51.469 10.2326 51.469C8.48398 51.469 6.80014 50.7551 5.56964 49.5219C4.33914 48.2887 3.6915 46.6661 3.6915 44.9137C3.75627 41.4089 6.80014 38.618 10.4916 38.618H32.4464C33.094 38.618 33.6769 38.8776 34.1302 39.3319C34.5836 39.7863 34.7779 40.4353 34.7779 41.0843C34.7131 42.2526 33.6121 43.2262 32.3169 43.2262C27.1358 43.2262 22.9909 47.38 22.9909 52.4426V55.1685H26.7472V52.4426C26.7472 49.7166 28.8196 47.38 31.4749 46.9906L34.7131 51.469C36.3969 53.8056 39.117 55.1685 41.9666 55.1685H52.5877C53.3001 55.1036 54.0125 54.9738 54.7249 54.844C56.8621 54.4546 58.9345 53.2863 60.4241 51.4041C61.9137 49.6517 62.7556 47.4449 62.7556 45.1733C63.2089 41.1492 63.5975 38.618 63.9213 37.0603C64.3099 38.1637 64.6985 39.4617 65.0223 40.5651C67.4833 48.8079 69.3614 54.195 73.1177 54.2599C77.9102 54.2599 79.1407 45.7574 80.4359 36.7358C80.6302 35.5675 80.8245 34.3343 80.954 33.166C81.2779 34.3992 81.5369 35.892 81.796 37.1252C83.3503 45.0435 85.4227 55.8825 93.259 55.8825C95.7848 55.8825 99.4116 54.2599 101.937 46.4714C102.585 44.5892 103.038 42.4473 103.427 40.1757C105.24 41.5387 107.313 42.8368 109.774 44.0699C112.559 45.4329 115.343 46.4714 118.063 47.1853C118.387 47.8344 118.646 48.4834 118.97 49.1325C124.281 59.5171 133.477 65.4883 144.228 65.4883C157.763 65.4883 168.838 58.4137 176.221 44.9786C182.568 33.4905 186 17.589 186 0.194712H182.244L182.373 0ZM57.445 49.0675C56.5383 50.106 55.243 50.82 53.883 51.0796C53.3649 51.1445 52.8468 51.2094 52.3287 51.1445C49.2201 51.0147 46.0467 48.743 46.0467 44.7839C46.0467 42.9666 46.8238 41.2141 48.1838 39.981C49.4143 38.8776 50.9039 38.3584 52.523 38.3584C52.782 38.3584 53.0411 38.3584 53.3001 38.3584C56.2792 38.6829 58.6755 41.0843 58.9993 44.005C58.9993 44.2646 58.9993 44.4594 58.9993 44.719C58.805 46.6012 58.2221 47.9642 57.3802 48.9377L57.445 49.0675ZM100.577 31.4136C99.282 29.2069 98.9582 27.2598 99.282 25.9617C99.4116 25.4424 99.6059 25.053 99.9297 24.8583C100.253 25.702 100.642 27.8439 100.577 31.4136ZM121.82 21.3535C124.475 17.7837 128.425 16.4208 133.671 17.2645C138.399 18.0434 142.155 20.6395 143.969 24.3391C145.653 27.8439 145.393 31.9329 143.192 35.7622C139.047 42.9017 130.498 45.8223 120.848 43.8752C117.675 35.5675 117.999 26.5458 121.82 21.4184V21.3535Z" fill="#00C236"/>
<path d="M13.6003 66.9162C13.6003 67.6301 13.406 68.2143 13.0822 68.7335C12.9527 68.9282 12.7584 69.1878 12.3698 69.5124C12.046 69.8369 11.7222 70.0965 11.5279 70.2263C10.945 70.6806 10.2326 70.8753 9.3907 70.8753H4.59822V77.3658H1.16577V60.3609H9.3907C10.2326 60.3609 10.945 60.5556 11.5279 61.0099C12.1108 61.4642 12.6289 61.9835 13.0822 62.5676C13.4708 63.0868 13.6003 63.671 13.6003 64.4498V66.8513V66.9162ZM10.1679 66.9162V64.3849C10.1679 64.3849 9.71452 63.8657 9.45547 63.7359H4.66299V67.6301H9.45547C9.45547 67.6301 9.64975 67.5652 9.77928 67.3705C9.97357 67.2407 10.1031 67.046 10.1679 66.9162Z" fill="white"/>
<path d="M29.5966 77.4307H25.9051L24.8042 74.1855H18.9107C18.7812 74.5749 18.5869 75.0941 18.3278 75.8081C18.0688 76.522 17.8745 77.1062 17.745 77.4307H14.0535L19.9469 60.4258H23.768L29.5966 77.4307ZM23.768 70.8753L21.8251 65.4234C21.6308 66.0075 21.3069 66.9162 20.8536 68.1494C20.4003 69.3826 20.1412 70.2912 19.8822 70.8753H23.7032H23.768Z" fill="white"/>
<path d="M44.2333 66.9162C44.2333 67.6301 44.039 68.2143 43.7152 68.7335C43.5857 68.9282 43.3914 69.1878 43.0028 69.5124C42.679 69.8369 42.3552 70.0965 42.1609 70.2263C42.0314 70.3561 41.7723 70.4859 41.5132 70.6157L45.2048 77.3658H41.3837L38.016 70.8753H35.296V77.3658H31.8635V60.3609H40.0885C40.9304 60.3609 41.6428 60.5556 42.2256 61.0099C42.8085 61.4642 43.3266 61.9835 43.78 62.5676C44.1685 63.0868 44.2981 63.671 44.2981 64.4498V66.8513L44.2333 66.9162ZM40.8009 66.9162V64.3849C40.8009 64.3849 40.3475 63.8657 40.0885 63.7359H35.296V67.6301H40.0885C40.0885 67.6301 40.2827 67.5652 40.4123 67.3705C40.6066 67.2407 40.7361 67.046 40.8009 66.9162Z" fill="white"/>
<path d="M59.5173 63.7359H54.9838V77.4307H51.4866V63.7359H46.8884V60.4258H59.5173V63.7359Z" fill="white"/>
<path d="M74.6071 77.4307H71.1099L65.6051 67.4354V77.4307H62.1726V60.4258H65.7346L71.1747 70.5508V60.4258H74.6071V77.4307Z" fill="white"/>
<path d="M89.2438 77.4307H78.1045V60.4258H89.2438V63.7359H81.5369V67.2407H88.9847V70.5508H81.5369V74.1206H89.2438V77.4307Z" fill="white"/>
<path d="M105.111 66.9162C105.111 67.6301 104.916 68.2143 104.593 68.7335C104.463 68.9282 104.269 69.1878 103.88 69.5124C103.556 69.8369 103.233 70.0965 103.038 70.2263C102.909 70.3561 102.65 70.4859 102.391 70.6157L106.082 77.3658H102.261L98.8935 70.8753H96.1734V77.3658H92.741V60.3609H100.966C101.808 60.3609 102.52 60.5556 103.103 61.0099C103.686 61.4642 104.204 61.9835 104.657 62.5676C105.046 63.0868 105.176 63.671 105.176 64.4498V66.8513L105.111 66.9162ZM101.678 66.9162V64.3849C101.678 64.3849 101.225 63.8657 100.966 63.7359H96.1734V67.6301H100.966C100.966 67.6301 101.16 67.5652 101.29 67.3705C101.484 67.2407 101.614 67.046 101.678 66.9162Z" fill="white"/>
<path d="M113.077 63.6061C113.077 63.6061 112.817 63.8008 112.623 63.9306C112.429 64.0604 112.299 64.2551 112.17 64.3849C112.04 64.5147 112.04 64.5796 112.04 64.5796V66.2672L119.294 68.2143C120.006 68.409 120.589 68.8633 121.042 69.4475C121.431 70.0965 121.69 70.7455 121.69 71.4595V73.147C121.69 73.796 121.496 74.3802 121.172 74.8994C120.978 75.159 120.654 75.5485 120.2 76.0028C119.747 76.4571 119.359 76.7816 119.1 76.9763C118.452 77.3658 117.869 77.4956 117.221 77.4956H112.882C111.522 77.4956 110.292 76.7167 109.126 75.0941C108.737 74.51 108.414 73.9258 108.155 73.2768L111.328 72.3032C111.846 73.2768 112.364 73.9258 112.817 74.1855H117.092C117.092 74.1855 117.351 73.9908 117.545 73.8609C117.739 73.7311 117.869 73.6013 117.934 73.4715C118.063 73.3417 118.063 73.2768 118.063 73.2768V71.4595C117.286 71.2648 116.185 70.9403 114.566 70.5508C112.947 70.0965 111.717 69.772 110.875 69.5773C110.097 69.3826 109.515 68.9282 109.126 68.3441C108.737 67.695 108.543 67.046 108.543 66.3321V64.7744C108.543 64.0604 108.673 63.4763 108.996 63.0219C109.191 62.7623 109.515 62.3729 109.968 61.9186C110.421 61.4642 110.81 61.1397 111.134 60.945C111.781 60.5556 112.364 60.4258 112.947 60.4258H116.962C118.258 60.4258 119.488 61.2046 120.654 62.8272C121.042 63.3465 121.366 63.9306 121.625 64.6445L118.452 65.5532C118.063 64.7744 117.61 64.1902 116.962 63.8008H113.077V63.6061Z" fill="white"/>
</svg>
