<svg width="106" height="62" viewBox="0 0 106 62" fill="none" xmlns="http://www.w3.org/2000/svg">
<path d="M45.1977 40.8285C45.1977 40.9807 45.3497 40.9807 45.4258 41.0568C46.2628 41.5894 47.1759 41.9699 48.089 42.2742C48.1651 42.2742 48.3174 42.3503 48.3935 42.3503C48.6218 42.4264 48.6978 42.5025 48.6978 42.7308C48.85 43.6439 49.0782 44.557 49.2304 45.5462C49.6108 47.6006 49.9153 49.7312 50.2958 51.7856C50.2958 51.9378 50.3718 52.1661 50.3718 52.3183C50.3718 52.6987 50.1436 53.0031 49.7632 53.0792C49.4588 53.1553 49.0783 53.0792 48.774 52.927C48.5457 52.7748 48.3173 52.6227 48.089 52.4705C45.6541 50.8726 43.3715 49.1985 41.1648 47.3724C39.7952 46.231 38.5776 45.0896 37.4362 43.72C36.9797 43.1112 36.5232 42.5025 36.1427 41.8177C35.9905 41.5894 35.9144 41.4372 35.9144 41.209C35.6861 39.3067 35.3819 37.3283 34.9254 35.426C34.5449 33.5998 34.0882 31.8497 33.6317 30.0235C33.5556 29.6431 33.4034 29.2626 33.2512 28.8822C32.9468 28.1973 32.6426 27.5125 32.4143 26.8277C32.186 25.9907 32.0338 25.1537 32.186 24.3167C32.2621 24.0884 32.2621 23.8601 32.3382 23.6319C32.7186 22.4144 33.6317 21.8057 34.8492 21.7296C35.1536 21.7296 35.3819 21.7296 35.6863 21.7296C35.9906 21.7296 36.1428 21.8057 36.371 21.9578C37.4363 22.5666 38.5777 22.7949 39.7951 23.0231C40.9365 23.1753 42.154 23.1753 43.2954 23.1753C43.5237 23.1753 43.6759 23.1753 44.0563 23.1753C43.2193 23.5558 42.4583 23.5558 41.6974 23.7079C40.9365 23.784 40.1756 23.8601 39.1864 23.8601C39.5668 24.0884 39.7951 24.0884 40.0994 24.1645C42.1539 24.3928 44.1323 24.0123 46.0346 23.1753C47.4042 22.5666 48.5456 21.7296 49.687 20.8165C50.2197 20.436 50.7523 20.0556 51.361 19.9034C52.5024 19.599 53.6438 19.7512 54.6329 20.436C55.0134 20.6643 55.3178 20.9687 55.6222 21.1969C56.7635 22.11 58.057 22.8709 59.3506 23.4036C61.1007 24.0884 62.8508 24.3928 64.677 24.1645C64.9813 24.1645 65.2097 24.0884 65.514 23.9362C63.9161 23.784 62.3942 23.784 60.8724 23.2514C61.1007 23.2514 61.2528 23.2514 61.405 23.2514C62.5464 23.2514 63.7639 23.2514 64.9053 23.0992C66.1227 22.947 67.3403 22.6427 68.4056 22.0339C68.6338 21.8818 68.7859 21.8818 69.0141 21.8818C69.4707 21.8818 69.9273 21.8818 70.3838 22.0339C71.2969 22.2622 71.8297 22.7948 72.2101 23.6319C72.5145 24.3928 72.5905 25.1537 72.5144 25.9146C72.3622 27.056 71.9817 28.0452 71.5252 29.0343C71.2969 29.4148 71.1448 29.8713 71.0687 30.3279C70.3839 32.9911 69.699 35.6543 69.2424 38.3936C69.0903 39.3067 68.9382 40.2959 68.786 41.2851C68.7099 41.5894 68.6337 41.8938 68.4815 42.122C68.025 42.9591 67.4163 43.6439 66.8076 44.4048C65.4379 45.9266 63.84 47.2963 62.2421 48.5898C60.3398 50.1116 58.2854 51.5574 56.2309 52.8509C55.9266 53.0792 55.546 53.2314 55.1656 53.1553C54.6329 53.0792 54.3285 52.7748 54.4046 52.2422C54.709 50.2638 55.0895 48.2094 55.3939 46.1549C55.6221 45.0896 55.7744 44.0243 56.0026 42.883C56.0787 42.5786 56.2309 42.3503 56.5352 42.2742C57.4483 41.9699 58.3614 41.5894 59.1984 41.1329C59.3506 41.0568 59.5028 40.9807 59.5789 40.8285V40.7524C59.4267 40.6002 59.2744 40.6763 59.1223 40.6763C57.5243 40.7524 55.9266 40.8285 54.3287 40.9046C52.4264 40.9807 50.4479 40.9046 48.5456 40.8285C47.5565 40.7524 46.5673 40.6763 45.502 40.6763C45.4259 40.7524 45.2738 40.6763 45.1977 40.8285ZM69.9274 27.7408C69.8513 27.7408 69.7752 27.7408 69.6991 27.8169C69.0142 28.3495 68.3294 28.8822 67.5685 29.3387C67.188 29.6431 66.7315 29.8713 66.275 30.0996C65.514 30.4801 64.8292 30.8605 63.9922 31.1649C63.9161 31.241 63.7639 31.241 63.7639 31.3932C64.0683 31.3932 64.4488 31.3932 64.7531 31.3932C64.7531 31.6215 64.6771 31.6975 64.601 31.7736C63.6118 32.9911 62.4703 33.9803 61.2529 34.8173C61.1007 34.9695 60.9485 34.9695 60.7203 34.8934C59.8072 34.7412 58.9702 34.6651 58.1332 34.5129C57.7528 34.4368 57.2961 34.3607 56.9157 34.2846C56.6874 34.2846 56.6113 34.1325 56.5352 33.9803C56.4591 33.6759 56.307 33.2955 56.2309 32.9911C56.1549 32.7628 56.2309 32.6867 56.3831 32.5345C56.5353 32.3824 56.6874 32.2302 56.9157 32.078C57.2961 31.6975 57.6766 31.3171 57.9049 30.8605C58.2854 30.1757 58.3614 29.567 58.0571 28.8822C57.6766 28.0452 57.0679 27.5125 56.1548 27.2082C55.7743 27.056 55.3938 27.1321 54.9372 27.2842C55.2416 27.3603 55.4699 27.3603 55.6982 27.4364C56.0025 27.5125 56.307 27.6647 56.5352 27.893C56.9157 28.3495 57.22 28.8822 57.4483 29.4909C57.5244 29.7192 57.4484 29.7953 57.3723 30.0235C57.2962 30.1757 57.144 30.3279 56.9919 30.3279C56.8397 30.3279 56.6874 30.3279 56.5352 30.404C55.6221 30.6323 54.7851 31.0127 54.2525 31.8497C54.0242 32.2302 53.7199 32.5345 53.3394 32.6867C52.122 33.2194 50.7523 32.6867 50.2196 31.7736C49.8392 31.0127 49.0784 30.6323 48.2414 30.4801C48.0131 30.404 47.8609 30.404 47.6326 30.404C47.0999 30.3279 46.8717 30.0235 47.1 29.4909C47.2522 29.1104 47.4803 28.73 47.7086 28.3495C48.089 27.7408 48.6979 27.4364 49.3827 27.4364H49.4587C49.4587 27.4364 49.5349 27.4364 49.5349 27.5125C49.5349 27.5125 49.5348 27.5886 49.4587 27.5886C49.1543 27.5886 48.9261 27.4364 48.6978 27.5125C47.7086 27.7408 46.8716 28.1973 46.2629 29.0343C45.8824 29.567 45.8824 30.1757 46.1867 30.7844C46.2628 30.9366 46.339 31.0888 46.4912 31.1649C46.7956 31.5454 47.176 31.9258 47.5564 32.1541C47.7847 32.3063 48.0891 32.5345 48.3173 32.6867C48.4695 32.7628 48.5456 32.915 48.4695 32.9911C48.3173 33.3715 48.2412 33.752 48.089 34.1325C48.0129 34.2846 47.9369 34.3607 47.7847 34.3607C47.6325 34.3607 47.5565 34.4368 47.4804 34.4368C46.263 34.589 45.0454 34.7412 43.904 34.9695C43.7518 34.9695 43.5997 34.9695 43.4476 34.8934C42.2301 33.9803 41.0887 33.0672 40.1756 31.9258C39.8712 31.5454 39.4147 31.1649 39.0342 30.7844C38.806 30.5562 38.5777 30.404 38.2733 30.1757C37.208 29.2626 35.9906 28.5017 34.9254 27.5886C34.8493 27.5125 34.8491 27.5886 34.773 27.6647C34.773 27.893 34.9253 28.0452 35.0775 28.2734C35.3819 28.8061 35.7623 29.3387 36.1427 29.7953C36.371 30.0996 36.5232 30.404 36.5993 30.7083C36.9037 31.9258 37.2842 33.1433 37.7407 34.2846C38.9582 37.7848 40.4799 41.1329 42.3822 44.3287C42.4583 44.4809 42.4584 44.6331 42.6866 44.6331C42.3062 43.2634 42.0019 41.8938 41.7736 40.5241C41.317 37.8609 41.2409 36.8718 41.317 36.3391C41.5452 36.7196 41.7735 37.1 42.0779 37.3283C42.8388 38.0131 43.5997 38.3175 44.5889 38.0131C46.4912 37.4044 48.4696 37.1761 50.4479 37.1C52.0458 37.0239 53.5676 37.0239 55.1656 37.1761C56.8396 37.3283 58.4376 37.5566 60.0355 38.0892C60.8725 38.3175 61.5573 38.1653 62.2421 37.6327C62.5464 37.3283 62.8509 37.1 63.0792 36.7196C63.1553 36.6435 63.1552 36.4913 63.3835 36.5674C63.3835 37.4805 63.1553 38.3936 63.0792 39.3067C62.927 40.2198 62.7746 41.209 62.5464 42.122C62.3942 43.0351 62.1661 43.8721 61.9378 44.7852C62.09 44.7092 62.1659 44.6331 62.1659 44.4809C62.8507 43.3395 63.4595 42.1221 64.0682 40.9046C65.6661 37.6327 66.9597 34.2846 67.9489 30.7844C68.025 30.404 68.2533 30.0996 68.4815 29.7953C68.862 29.3387 69.1664 28.8061 69.4708 28.2734C69.7751 28.1973 69.9274 27.9691 69.9274 27.7408Z" fill="#A2E514"/>
<path d="M67.9494 9.32951C68.1015 9.4056 68.2538 9.4056 68.406 9.48169C68.9386 9.70997 69.2429 10.0143 69.2429 10.6231C69.2429 11.8405 69.2429 13.058 69.319 14.2754C69.319 14.9603 69.319 15.6451 69.319 16.3299C69.319 16.4821 69.319 16.7104 69.319 16.8625C69.1669 16.9386 69.0907 16.7865 69.0907 16.7104C68.3298 15.9495 67.6451 15.1124 66.8842 14.3515C66.6559 14.1233 66.5797 13.895 66.5797 13.5906C66.5797 12.8297 66.5798 12.1449 66.5037 11.384C66.5037 11.2318 66.5037 11.0796 66.5037 11.0035C66.5037 10.8513 66.4276 10.8513 66.2754 10.7752C66.0471 10.7752 65.8949 10.7752 65.6666 10.7752C64.8296 10.7752 63.9926 10.7752 63.1556 10.7752C62.8512 10.7752 62.8513 10.8513 62.8513 11.0796C62.8513 11.8405 62.8513 12.5253 62.8513 13.2863C62.8513 13.4384 62.8513 13.6667 62.8513 13.8189C62.8513 13.9711 62.7752 14.0472 62.6991 14.0472C62.623 14.0472 62.4707 14.0472 62.3947 14.0472C61.7098 14.0472 61.0251 14.0472 60.3402 14.0472C59.8837 14.0472 59.8836 14.0472 59.8836 13.5145C59.8836 12.6014 59.8836 11.6122 59.8836 10.6991C59.8836 8.56859 59.8836 6.51413 59.8836 4.38358C59.8836 4.30749 59.8836 4.1553 59.8836 4.0792C59.9597 3.31829 60.3402 2.78565 61.1011 2.55738C61.4816 2.4052 61.8621 2.3291 62.2425 2.3291C63.9926 2.3291 65.7427 2.3291 67.5689 2.3291C68.7864 2.3291 69.4712 3.01392 69.4712 4.23138C69.4712 4.76402 69.4712 5.29666 69.4712 5.75321C69.4712 6.36194 69.4712 6.97068 69.4712 7.57941C69.4712 8.26423 69.2428 8.64469 68.6341 8.87296C68.3297 9.02514 68.1776 9.10124 67.9494 9.32951ZM64.8295 7.80769C65.2861 7.80769 65.7427 7.80769 66.2754 7.80769C66.5037 7.80769 66.5797 7.73159 66.5797 7.57941C66.5797 6.66631 66.5797 5.67713 66.5797 4.76403C66.5797 4.53576 66.5037 4.53576 66.2754 4.53576C65.3623 4.53576 64.3731 4.53576 63.3839 4.53576C63.1556 4.53576 63.0796 4.61184 63.0796 4.84012C63.0796 5.67712 63.0796 6.59023 63.0796 7.42723C63.0796 7.50332 63.0796 7.57941 63.0796 7.57941C63.0796 7.73159 63.1555 7.80769 63.3077 7.80769C63.8404 7.80769 64.373 7.80769 64.8295 7.80769Z" fill="#A2E514"/>
<path d="M79.4399 10.6231C79.4399 12.5253 79.4399 14.3515 79.4399 16.2538C79.4399 16.406 79.4399 16.5582 79.4399 16.7104C79.4399 16.7104 79.4398 16.7865 79.3638 16.7865C79.2877 16.7865 79.2877 16.7865 79.2116 16.7104C79.1355 16.6343 79.1356 16.6343 79.0595 16.5582C78.3746 15.7973 77.7658 15.0364 77.081 14.2754C76.8527 14.0472 76.7767 13.895 76.7767 13.5906C76.7767 12.7536 76.7767 11.9166 76.7767 11.1557C76.7767 11.0035 76.7767 10.8513 76.7767 10.7752C76.7767 10.547 76.7005 10.4709 76.4722 10.4709C76.3962 10.4709 76.3201 10.4709 76.3201 10.4709C75.3309 10.4709 74.2656 10.4709 73.2764 10.4709C73.2004 10.4709 73.1242 10.4709 73.0481 10.4709C72.972 10.4709 72.896 10.547 72.896 10.6231C72.896 10.7752 72.896 10.9274 72.896 11.0035C72.896 11.7644 72.896 12.5253 72.896 13.2863C72.896 13.4384 72.896 13.5906 72.896 13.6667C72.896 13.8189 72.8199 13.895 72.6677 13.895C72.5916 13.895 72.5916 13.895 72.5155 13.895C71.9068 13.895 71.222 13.895 70.6133 13.895C70.3089 13.895 70.309 13.8189 70.309 13.5906C70.309 13.4384 70.309 13.3623 70.309 13.2102C70.309 10.4709 70.309 7.80768 70.309 5.06839C70.309 4.68794 70.3088 4.30748 70.3849 3.92702C70.5371 3.09002 71.0699 2.55738 71.8308 2.4052C72.1352 2.32911 72.4395 2.3291 72.7438 2.3291C74.1135 2.3291 75.5591 2.3291 77.0048 2.3291C77.3092 2.3291 77.5376 2.32911 77.8419 2.4052C78.6789 2.55738 79.2116 3.09002 79.3638 3.92702C79.4398 4.23139 79.4399 4.61185 79.4399 4.91621C79.4399 6.89459 79.4399 8.79687 79.4399 10.6231ZM74.7983 4.91621C74.2656 4.91621 73.6569 4.91621 73.1243 4.91621C72.896 4.91621 72.8959 4.99231 72.8198 5.14449C72.8198 5.52495 72.8198 5.9054 72.8198 6.36194C72.8198 6.7424 72.8198 7.19895 72.8198 7.65549C72.8198 7.80768 72.8961 7.88377 72.9722 7.88377C73.0482 7.88377 73.2004 7.88377 73.2764 7.88377C73.8852 7.88377 74.4938 7.88377 75.1026 7.88377C75.483 7.88377 75.8635 7.88377 76.2439 7.88377C76.5483 7.88377 76.6244 7.88378 76.6244 7.57941C76.6244 6.8185 76.6244 6.05758 76.6244 5.29667C76.6244 4.9923 76.5484 4.9923 76.3201 4.9923C75.8636 4.91621 75.3309 4.91621 74.7983 4.91621Z" fill="#A2E514"/>
<path d="M0 22.8757C0.380457 22.8757 0.608805 22.8757 0.837079 22.8757C9.51149 22.8757 18.1858 22.8757 26.7841 22.8757C27.7733 22.8757 27.5452 22.7235 27.6974 23.6366C27.9256 24.6258 28.0777 25.5389 28.3059 26.5281C28.382 26.6803 28.3061 26.7564 28.0778 26.8325C27.9256 26.8325 27.6972 26.8325 27.545 26.8325C19.8598 26.8325 12.2507 26.8325 4.56548 26.8325C3.65238 26.8325 3.95671 26.9847 3.1958 26.2998C2.20661 25.3106 1.2175 24.3215 0.228311 23.3323C0.228311 23.1801 0.152183 23.104 0 22.8757Z" fill="white"/>
<path d="M91.4613 22.8721C95.7986 22.8721 100.06 22.8721 104.397 22.8721C104.625 22.8721 104.854 22.8721 105.082 22.8721C105.158 22.8721 105.158 22.8721 105.158 22.9482C105.158 23.0243 105.158 23.0243 105.158 23.1003C105.158 23.1764 105.082 23.1764 105.006 23.2525C103.864 24.3939 102.799 25.4592 101.658 26.6006C101.429 26.8288 101.277 26.9049 100.973 26.9049C100.821 26.9049 100.669 26.9049 100.516 26.9049C92.9833 26.9049 85.5263 26.9049 77.9932 26.9049C77.9171 26.9049 77.8411 26.9049 77.6889 26.9049C77.0041 26.9049 77.0041 26.9049 77.0802 26.2201C77.2323 25.307 77.3846 24.3939 77.5368 23.4808C77.5368 23.3286 77.6128 23.1764 77.6128 23.1003C77.6128 22.9482 77.6889 22.8721 77.8411 22.8721C78.0693 22.8721 78.2216 22.8721 78.4498 22.8721C82.8631 22.8721 87.1241 22.8721 91.4613 22.8721Z" fill="#A2E514"/>
<path d="M17.121 16.7885C16.9688 16.7885 16.8928 16.7124 16.8167 16.6363C16.0558 15.8754 15.3709 15.0384 14.6099 14.2775C14.4578 14.0492 14.3818 13.897 14.3818 13.6687C14.3818 12.5274 14.3818 11.3099 14.3818 10.1685C14.3818 9.94027 14.4578 9.78808 14.3057 9.55981C14.1535 9.55981 14.0013 9.55981 13.7731 9.55981C12.86 9.55981 11.9469 9.55981 11.1099 9.55981C10.8055 9.55981 10.7294 9.55981 10.7294 9.94026C10.7294 11.0816 10.7294 12.1469 10.7294 13.2883C10.7294 13.4405 10.7294 13.5926 10.7294 13.7448C10.7294 13.897 10.6533 13.9731 10.5011 13.9731C9.66409 13.9731 8.90321 13.9731 8.06621 13.9731C7.91402 13.9731 7.83789 13.897 7.83789 13.8209C7.83789 13.6687 7.83789 13.5166 7.83789 13.3644C7.83789 9.94026 7.83789 6.51615 7.83789 3.09204C7.83789 2.86377 7.76188 2.6355 7.91406 2.40723C8.14233 2.40723 8.4467 2.40723 8.67497 2.40723C9.2837 2.40723 9.89236 2.40723 10.5011 2.40723C10.7294 2.40723 10.7294 2.48332 10.7294 2.6355C10.7294 3.16814 10.7294 3.77687 10.7294 4.30951C10.7294 4.99433 10.7294 5.67916 10.7294 6.44007C10.7294 6.66834 10.7294 6.66835 10.9577 6.66835C12.0991 6.66835 13.1643 6.66834 14.3057 6.74443C14.4578 6.59225 14.3818 6.44007 14.3818 6.28789C14.3818 5.22261 14.3818 4.08124 14.3818 3.01596C14.3818 2.86378 14.3818 2.78769 14.3818 2.6355C14.3818 2.55941 14.4579 2.48332 14.534 2.48332C14.6861 2.48332 14.8382 2.48332 14.9904 2.48332C15.523 2.48332 16.0558 2.48332 16.5884 2.48332C16.8928 2.48332 16.8927 2.48332 16.8927 2.78768C16.8927 2.86377 16.8927 2.93987 16.8927 3.01596C16.8927 4.91824 16.8927 6.82053 16.8927 8.72281C16.8927 11.3099 16.8927 13.897 16.8927 16.4841C17.121 16.6363 17.121 16.7124 17.121 16.7885Z" fill="white"/>
<path d="M18.0329 8.19017C18.0329 6.97271 18.0329 5.75524 18.0329 4.46169C18.0329 4.08123 18.109 3.62469 18.2612 3.24424C18.4134 2.86378 18.7177 2.55941 19.1743 2.48332C19.4786 2.40723 19.7831 2.40723 20.0875 2.40723C21.5332 2.40723 22.9789 2.40723 24.4247 2.40723C24.729 2.40723 24.9572 2.40723 25.2616 2.40723C25.4898 2.40723 25.7182 2.40723 25.9465 2.48332C26.327 2.55941 26.5551 2.78768 26.7834 3.16814C26.9356 3.5486 27.0879 4.00515 27.0879 4.38561C27.0879 4.99434 27.0879 5.52697 27.0879 6.1357C27.0879 7.96189 27.0879 9.78808 27.0879 11.6904C27.0879 11.9947 27.0878 12.3752 27.0117 12.6796C26.8595 13.4405 26.327 13.9731 25.4139 14.0492C25.2617 14.0492 25.1095 14.0492 24.9573 14.0492C23.5115 14.0492 22.0658 14.0492 20.6201 14.0492C20.1636 14.0492 19.707 13.9731 19.2504 13.8209C18.6417 13.5927 18.3373 13.1361 18.2612 12.6035C18.2612 12.3752 18.1852 12.1469 18.1852 11.8425C18.033 10.6251 18.0329 9.40763 18.0329 8.19017ZM20.468 8.03798C20.468 8.95108 20.468 9.86417 20.468 10.7012C20.468 10.7773 20.468 10.9295 20.468 11.0055C20.468 11.1577 20.5439 11.2338 20.6961 11.2338C20.7722 11.2338 20.8484 11.2338 20.8484 11.2338C21.9137 11.2338 22.9789 11.2338 24.0442 11.2338C24.1203 11.2338 24.1964 11.2338 24.2725 11.2338C24.3486 11.2338 24.4247 11.1577 24.4247 11.0816C24.4247 11.0055 24.4247 10.8534 24.4247 10.7773C24.4247 8.95108 24.4247 7.12489 24.4247 5.2987C24.4247 5.22261 24.4247 5.07042 24.4247 4.99433C24.4247 4.91824 24.3486 4.84215 24.2725 4.84215C24.1204 4.84215 24.0443 4.84215 23.8921 4.84215C22.9029 4.84215 21.9136 4.84215 20.9244 4.84215C20.7722 4.84215 20.6961 4.84215 20.5439 4.84215C20.3918 4.84215 20.3917 4.91824 20.3156 5.07042C20.3156 5.14651 20.3156 5.29869 20.3156 5.37478C20.4678 6.21179 20.468 7.12488 20.468 8.03798Z" fill="white"/>
<path d="M44.5136 1.26327C44.5136 3.16555 44.5136 5.06783 44.5136 6.97012C44.5136 7.1223 44.5136 7.27449 44.5136 7.42667C44.4375 8.18758 44.0572 8.79631 43.2962 9.17676C42.8397 9.40504 42.3831 9.48113 41.9266 9.55722C41.1656 9.63331 41.3178 9.48113 41.3178 10.242C41.3178 12.2965 41.3178 14.2749 41.3178 16.3294C41.3939 16.4815 41.47 16.6337 41.394 16.862C41.2418 16.862 41.2417 16.7859 41.1656 16.7098C40.4047 15.9489 39.6437 15.188 38.8067 14.351C38.5785 14.1227 38.5024 13.9705 38.5024 13.6662C38.5024 12.5248 38.5024 11.4595 38.4263 10.3181C38.4263 10.1659 38.4263 10.0899 38.4263 9.93767C38.4263 9.63331 38.4263 9.55722 38.0458 9.55722C37.5893 9.55722 37.1328 9.40504 36.7523 9.25286C36.2197 9.02458 35.8393 8.64413 35.6871 8.11149C35.5349 7.73103 35.3826 7.27449 35.3826 6.81794C35.3826 5.52439 35.3826 4.23083 35.3826 3.01337C35.3826 2.86119 35.3826 2.7851 35.3826 2.63292C35.3826 2.48073 35.4588 2.40464 35.6109 2.40464C35.7631 2.40464 35.9153 2.40464 35.9914 2.40464C36.6762 2.40464 37.4371 2.40464 38.0458 2.40464C38.198 2.55682 38.122 2.70901 38.122 2.86119C38.122 3.92647 38.122 4.99175 38.122 6.05702C38.122 6.20921 38.122 6.36138 38.122 6.51357C38.122 6.66575 38.198 6.74184 38.2741 6.74184C38.3502 6.74184 38.3502 6.74184 38.4263 6.74184C39.4916 6.74184 40.5568 6.74184 41.6221 6.74184C41.9264 6.74184 41.9266 6.74185 41.9266 6.43748C41.9266 5.29611 41.9266 4.07865 41.9266 2.93728C41.9266 2.32855 41.8504 2.48073 42.383 2.10028C43.0678 1.71982 43.7527 1.26327 44.5136 0.882812" fill="white"/>
<path d="M30.4372 36.9469C29.8284 36.3382 29.372 35.8816 28.8394 35.349C28.6111 35.1207 28.3828 34.8163 28.0784 34.6642C27.7741 34.512 27.3936 34.5881 27.0892 34.5881C22.2194 34.5881 17.3496 34.5881 12.4797 34.5881C12.3275 34.5881 12.1753 34.5881 12.0231 34.5881C11.7948 34.5881 11.6427 34.512 11.4905 34.3598C10.3491 33.1423 9.1316 32.001 7.99023 30.8596C7.99023 30.8596 7.99034 30.7835 7.91425 30.7074C7.99034 30.5552 8.14245 30.6313 8.21854 30.6313C15.0668 30.6313 21.8388 30.6313 28.687 30.6313C28.8392 30.6313 28.9154 30.6313 28.9915 30.6313C29.1437 30.6313 29.2198 30.7074 29.2198 30.8596C29.372 31.6205 29.5241 32.3814 29.6763 33.1423C29.9045 34.2837 30.1329 35.4251 30.3612 36.5664C30.4373 36.6425 30.4372 36.7186 30.4372 36.9469Z" fill="white"/>
<path d="M15.6744 38.6225C15.9027 38.4703 15.9786 38.5464 16.1308 38.5464C19.631 38.5464 23.0553 38.5464 26.5555 38.5464C26.8598 38.5464 27.1641 38.6225 27.3924 38.8507C28.4576 39.916 29.5229 40.9813 30.5882 42.1227L30.6643 42.1988C30.8165 42.427 30.8165 42.427 30.6643 42.5792C30.5121 42.7314 30.3599 42.8836 30.2077 43.0357C29.599 43.6445 28.9142 44.3293 28.3054 44.938C28.0772 45.1663 28.0773 45.1663 27.849 44.938C27.1642 44.2532 26.4794 43.5684 25.7946 42.8075C25.5663 42.5792 25.3379 42.5031 24.9575 42.5031C23.2835 42.5031 21.6856 42.5031 20.0115 42.5031C19.6311 42.5031 19.4029 42.427 19.0985 42.1227C18.0332 41.0574 16.968 39.9921 15.9027 38.8507C15.9027 38.8507 15.8266 38.6986 15.6744 38.6225Z" fill="white"/>
<path d="M77.1563 45.1678C76.7759 44.7873 76.4715 44.483 76.1671 44.1786C75.6344 43.646 75.1017 43.1133 74.5691 42.5807C74.4169 42.4285 74.4169 42.3524 74.5691 42.2763C74.6452 42.2002 74.7213 42.1241 74.7974 42.0481C75.8627 40.9828 76.928 39.9936 77.9172 38.9283C78.1455 38.7 78.3737 38.5479 78.7541 38.5479C82.2543 38.5479 85.6784 38.5479 89.1786 38.5479C89.3308 38.5479 89.407 38.5479 89.4831 38.5479C89.5592 38.5479 89.6351 38.6239 89.559 38.7C89.483 38.7761 89.407 38.8522 89.3309 39.0044C88.2656 40.0697 87.2002 41.135 86.1349 42.2763C85.9067 42.5046 85.6024 42.5807 85.298 42.5807C83.8523 42.5807 82.3304 42.5807 80.8847 42.5807C80.7325 42.5807 80.5803 42.5807 80.5043 42.5807C80.1238 42.5046 79.8195 42.6568 79.5912 42.9612C78.9825 43.5699 78.3736 44.1786 77.7649 44.8634C77.4605 44.8634 77.3085 45.0156 77.1563 45.1678Z" fill="#A2E514"/>
<path d="M75.4818 36.2655C75.5578 35.7329 75.634 35.1241 75.7862 34.5915C76.0145 33.5262 76.1666 32.3848 76.3188 31.3196C76.3188 31.2435 76.3188 31.2435 76.3188 31.1674C76.3949 30.863 76.5471 30.7108 76.8514 30.7108C77.0036 30.7108 77.0798 30.7108 77.1559 30.7108C83.6237 30.7108 90.0913 30.7108 96.6352 30.7108C96.8634 30.7108 97.0918 30.5586 97.3201 30.7869C97.244 31.0152 97.0157 31.1674 96.9396 31.3196C96.0266 32.3087 95.0373 33.2218 94.0481 34.211C93.5155 34.7437 93.6677 34.6676 92.9068 34.6676C88.4174 34.6676 83.928 34.6676 79.4386 34.6676C78.8299 34.6676 78.1451 34.6676 77.5364 34.6676C77.232 34.6676 77.0797 34.7437 76.8514 34.9719C76.471 35.3524 76.0906 35.7328 75.7862 36.0372C75.7101 36.1133 75.6339 36.2655 75.4818 36.2655Z" fill="#A2E514"/>
<path d="M60.7973 61.5279C60.7212 61.4518 60.7211 61.3757 60.7211 61.2996C60.7211 59.7017 60.7211 58.0277 60.7211 56.4297C60.7211 56.2015 60.7973 55.9732 60.9494 55.821C61.0255 55.7449 61.1776 55.5927 61.2537 55.5166C64.2974 52.473 67.4172 49.3532 70.4609 46.3096C71.2979 45.4726 72.1349 44.6356 72.9719 43.8747C73.1241 43.7225 73.2763 43.6464 73.3524 43.5703C73.5045 43.5703 73.5806 43.6464 73.6567 43.7225C74.4176 44.4834 75.1785 45.2443 75.9394 46.0052C76.2438 46.3096 76.2438 46.3096 75.9394 46.614C75.8633 46.6901 75.7872 46.7661 75.7111 46.8422C70.9934 51.636 66.1996 56.4297 61.4059 61.1474C61.1015 61.2235 61.0256 61.4518 60.7973 61.5279Z" fill="#A2E514"/>
<path d="M44.5134 61.5277C39.4152 56.4296 34.3172 51.3315 29.2191 46.2333C29.2191 46.0812 29.3712 46.0051 29.5234 45.929C30.2082 45.1681 30.9692 44.4832 31.654 43.7984C31.9584 43.494 31.9584 43.5701 32.2628 43.7984C33.0237 44.5593 33.7846 45.3202 34.5455 46.0811C36.6761 48.2117 38.8065 50.4184 40.9371 52.5489C42.0024 53.6903 43.1437 54.8317 44.2851 55.8969C44.5894 56.2013 44.7416 56.5057 44.6655 56.9622C44.6655 58.3318 44.6655 59.7776 44.6655 61.1472C44.5894 61.2994 44.5895 61.3755 44.5134 61.5277Z" fill="white"/>
<path d="M82.9391 16.9359C82.8631 16.8598 82.7869 16.7076 82.7108 16.6315C82.026 15.8706 81.3412 15.1097 80.6564 14.3488C80.4281 14.1205 80.3521 13.9683 80.3521 13.6639C80.3521 10.6203 80.3521 7.65272 80.3521 4.60906C80.3521 4.45688 80.3521 4.3047 80.3521 4.22861C80.5043 3.31551 81.0369 2.78287 81.8739 2.5546C82.1022 2.47851 82.3304 2.47852 82.5587 2.47852C84.3088 2.47852 86.0589 2.47852 87.8851 2.47852C87.9612 2.47852 88.0372 2.47852 88.0372 2.47852C88.1894 2.47852 88.2655 2.5546 88.2655 2.70678C88.2655 3.16333 88.2655 3.69597 88.2655 4.15252C88.2655 4.3808 88.2655 4.60907 88.2655 4.91344C88.2655 5.06562 88.1894 5.06562 88.0372 5.14171C87.885 5.14171 87.733 5.14171 87.5808 5.14171C86.2111 5.14171 84.8415 5.14171 83.5479 5.14171C83.0153 5.14171 83.0153 5.14171 83.0153 5.67435C83.0153 5.97871 83.0153 6.35917 83.0153 6.66354C83.0153 6.81572 83.0914 6.8918 83.2436 6.8918C83.3958 6.8918 83.5479 6.8918 83.7001 6.8918C84.461 6.8918 85.2219 6.8918 85.9828 6.8918C86.2111 6.8918 86.2111 6.9679 86.2111 7.12008C86.2111 7.8049 86.2111 8.41364 86.2111 9.09846C86.2111 9.32673 86.1351 9.40282 85.9068 9.40282C85.1459 9.40282 84.461 9.40282 83.7762 9.40282C83.624 9.40282 83.3958 9.40282 83.2436 9.40282C83.0153 9.40282 83.0153 9.47891 83.0153 9.6311C83.0153 10.0876 83.0153 10.5442 83.0153 11.0007C83.0153 12.7508 83.0153 14.5009 83.0153 16.251C83.0153 16.4793 83.0153 16.6315 83.0153 16.8598C83.0153 16.8598 83.0152 16.8598 82.9391 16.9359Z" fill="#A2E514"/>
<path d="M91.9945 17.0168C91.6901 16.7124 91.6139 16.5602 91.4617 16.408C90.853 15.7232 90.2443 15.0384 89.6356 14.3536C89.4834 14.1253 89.4073 13.9731 89.4073 13.6687C89.4073 13.2122 89.4073 12.6796 89.4073 12.223C89.4073 9.71199 89.4073 7.20098 89.4073 4.68997C89.4073 4.53778 89.4073 4.30951 89.4073 4.15733C89.4834 3.32032 90.0161 2.78768 90.777 2.55941C91.0052 2.48332 91.3096 2.40723 91.5379 2.40723C93.3641 2.40723 95.1142 2.40723 96.9404 2.40723C97.0165 2.40723 97.0926 2.40723 97.0926 2.40723C97.2448 2.40723 97.3209 2.48332 97.3209 2.6355C97.3209 3.09205 97.3209 3.4725 97.3209 3.92905C97.3209 4.23342 97.3969 4.61387 97.2447 4.99433C96.9404 5.07042 96.5599 5.07042 96.2555 5.07042C95.038 5.07042 93.8967 5.07042 92.6793 5.07042C92.5271 5.07042 92.3748 5.07042 92.2226 5.07042C92.0704 5.07042 91.9945 5.14652 91.9945 5.2987C91.9945 5.75525 91.9945 6.2118 91.9945 6.66834C91.9945 6.82053 92.0706 6.89661 92.1466 6.89661C92.2988 6.89661 92.4509 6.89661 92.6031 6.89661C93.364 6.89661 94.0489 6.89661 94.8098 6.89661C95.1142 6.89661 95.1903 6.89662 95.1903 7.20098C95.1903 7.80971 95.1903 8.41844 95.1903 9.10326C95.1903 9.40763 95.1903 9.40763 94.8098 9.40763C94.0489 9.40763 93.2879 9.40763 92.4509 9.40763C91.8422 9.40763 91.9183 9.40762 91.9183 9.94026C91.9183 12.0708 91.9183 14.2014 91.9183 16.2558C92.0705 16.4841 91.9945 16.6363 91.9945 17.0168Z" fill="#A2E514"/>
<path d="M55.5462 16.7837C55.394 16.7837 55.318 16.6315 55.2419 16.5554C54.557 15.8706 53.9482 15.1858 53.2634 14.5009C53.0351 14.2727 52.9591 14.0444 52.9591 13.74C52.9591 11.3051 52.9591 8.94627 52.9591 6.51135C52.9591 6.20698 52.9591 5.97871 52.9591 5.67435C52.9591 5.52217 52.8829 5.44607 52.6546 5.44607C51.8937 5.44607 51.2091 5.44607 50.5242 5.44607C49.6111 5.44607 49.6872 5.52216 49.6872 4.60906C49.6872 4.00033 49.6872 3.39161 49.6872 2.78288C49.6872 2.47851 49.7632 2.47852 49.9914 2.47852C50.1436 2.47852 50.2197 2.47852 50.3719 2.47852C53.0351 2.47852 55.6223 2.47852 58.2855 2.47852C58.4377 2.47852 58.5898 2.47852 58.7419 2.47852C58.8941 2.47852 58.8942 2.5546 58.9703 2.70678C58.9703 2.85896 58.9703 3.01115 58.9703 3.08724C58.9703 3.69597 58.9703 4.3047 58.9703 4.98952C58.9703 5.44607 58.9704 5.44607 58.5138 5.44607C57.829 5.44607 57.144 5.44607 56.4592 5.44607C55.6222 5.44607 55.6983 5.36999 55.6983 6.28308C55.6983 9.6311 55.6983 12.903 55.6983 16.251C55.5461 16.3271 55.6222 16.5554 55.5462 16.7837Z" fill="#A2E514"/>
<path d="M30.5124 1.87412C30.5124 4.30904 30.5124 6.82005 30.5124 9.25497C30.5124 9.8637 30.5124 10.4724 30.5124 11.1573C30.5124 11.3855 30.5885 11.3855 30.7407 11.3855C31.806 11.3855 32.795 11.3855 33.8603 11.3855C34.0125 11.3855 34.1648 11.3855 34.3169 11.3855C34.4691 11.3855 34.5453 11.4616 34.5453 11.6138C34.5453 12.3747 34.5453 13.1356 34.5453 13.8965C34.5453 14.0487 34.4691 14.1248 34.3169 14.1248C34.2409 14.1248 34.1647 14.1248 34.0886 14.1248C32.6429 14.1248 31.121 14.1248 29.6753 14.1248C29.3709 14.1248 29.1428 14.1248 28.8384 14.0487C28.3819 13.8965 28.0773 13.5922 27.9252 13.1356C27.8491 12.9074 27.8492 12.603 27.8492 12.3747C27.8492 9.17889 27.8492 6.05914 27.8492 2.86331C27.8492 2.55894 27.9252 2.40675 28.1535 2.33066C28.9144 1.9502 29.6753 1.49366 30.4362 1.03711" fill="white"/>
<path d="M69.9283 27.7442C69.9283 27.6673 69.9283 27.6673 69.9283 27.7442C70.0053 27.6673 70.0053 27.6673 69.9283 27.7442Z" fill="#A2E514"/>
</svg>
