<svg xmlns="http://www.w3.org/2000/svg" width="109" height="63" fill="none"><path fill="#A2E514" d="M46.849 41.407c0 .158.157.158.236.237.868.552 1.814.946 2.76 1.262.08 0 .237.078.316.078.237.08.316.158.316.395.158.946.394 1.893.552 2.918.394 2.13.71 4.338 1.104 6.468 0 .157.079.394.079.552 0 .394-.237.71-.631.788-.315.08-.71 0-1.025-.157l-.71-.474a80.103 80.103 0 0 1-7.177-5.284c-1.42-1.183-2.682-2.366-3.865-3.786-.474-.63-.947-1.262-1.341-1.972-.158-.236-.237-.394-.237-.63-.236-1.972-.552-4.023-1.025-5.995-.394-1.893-.868-3.707-1.34-5.6-.08-.394-.237-.788-.395-1.183-.316-.71-.631-1.42-.868-2.13-.236-.867-.394-1.734-.236-2.602.079-.237.078-.473.157-.71.395-1.262 1.341-1.893 2.603-1.972h.868c.315 0 .473.08.71.237 1.104.63 2.287.867 3.549 1.104 1.183.158 2.445.158 3.628.158h.789c-.868.394-1.657.394-2.445.552-.79.079-1.578.158-2.603.158.394.236.63.236.946.315 2.13.237 4.18-.157 6.152-1.025 1.42-.631 2.603-1.499 3.786-2.445.552-.395 1.104-.789 1.735-.947 1.183-.315 2.366-.157 3.392.553.394.236.71.552 1.025.788a16.093 16.093 0 0 0 3.865 2.288c1.814.71 3.628 1.025 5.52.788.316 0 .553-.079.868-.236-1.656-.158-3.233-.158-4.81-.71h.551c1.183 0 2.445 0 3.628-.158 1.262-.158 2.524-.473 3.629-1.104.236-.158.394-.158.63-.158.474 0 .947 0 1.42.158.947.236 1.499.789 1.893 1.656.316.789.394 1.578.316 2.366-.158 1.183-.553 2.209-1.026 3.234a3.884 3.884 0 0 0-.473 1.34c-.71 2.761-1.42 5.522-1.893 8.361-.158.947-.315 1.972-.473 2.997-.079.316-.158.631-.316.868-.473.867-1.104 1.577-1.735 2.366-1.42 1.577-3.076 2.997-4.732 4.338a68.448 68.448 0 0 1-6.23 4.417c-.316.236-.71.394-1.105.315-.552-.079-.868-.394-.789-.946.316-2.05.71-4.18 1.025-6.31.237-1.104.395-2.208.631-3.392.08-.315.237-.552.552-.63.947-.316 1.893-.71 2.761-1.184.158-.078.316-.157.394-.315v-.079c-.157-.158-.315-.079-.473-.079-1.656.08-3.312.158-4.969.237-1.971.079-4.022 0-5.994-.079-1.025-.079-2.05-.158-3.155-.158-.079.08-.236 0-.315.158Zm25.633-13.566c-.079 0-.158 0-.237.079-.71.552-1.42 1.104-2.208 1.577-.395.316-.868.553-1.34.79-.79.393-1.5.788-2.367 1.103-.079.08-.237.08-.237.237h1.026c0 .237-.08.316-.158.394-1.025 1.262-2.209 2.288-3.47 3.155-.158.158-.316.158-.553.08-.946-.159-1.814-.237-2.681-.395-.395-.08-.868-.158-1.262-.237-.237 0-.316-.158-.395-.315-.078-.316-.236-.71-.315-1.026-.079-.236 0-.315.158-.473.157-.158.315-.315.552-.473.394-.395.789-.789 1.025-1.262.395-.71.473-1.34.158-2.05-.394-.868-1.025-1.42-1.972-1.736-.394-.158-.789-.079-1.262.079.316.079.552.079.789.158.315.079.63.236.867.473.395.473.71 1.025.947 1.656.079.237 0 .316-.079.552-.079.158-.237.316-.394.316-.158 0-.316 0-.474.079-.946.236-1.814.63-2.366 1.498-.236.395-.552.71-.946.868-1.262.552-2.682 0-3.234-.947-.394-.788-1.183-1.183-2.05-1.34-.237-.08-.395-.08-.631-.08-.552-.078-.79-.394-.552-.946.157-.394.394-.789.63-1.183.395-.63 1.026-.946 1.736-.946h.078s.08 0 .08.079c0 0 0 .078-.08.078-.315 0-.552-.157-.788-.078-1.026.236-1.893.71-2.524 1.577-.395.552-.395 1.183-.08 1.814.08.158.159.316.317.394.315.395.71.79 1.104 1.026.236.158.552.394.788.552.158.079.237.236.158.315-.158.395-.236.789-.394 1.183-.08.158-.158.237-.316.237-.157 0-.236.079-.315.079-1.262.158-2.524.315-3.707.552-.158 0-.316 0-.473-.079-1.262-.946-2.445-1.893-3.392-3.076-.315-.394-.788-.789-1.183-1.183-.236-.237-.473-.394-.789-.63-1.104-.947-2.366-1.736-3.47-2.683-.079-.078-.079 0-.158.08 0 .236.158.394.316.63.315.552.71 1.104 1.104 1.578.237.315.394.63.473.946.316 1.262.71 2.524 1.183 3.707 1.262 3.628 2.84 7.098 4.811 10.411.08.158.08.316.316.316-.394-1.42-.71-2.84-.946-4.26-.474-2.76-.553-3.785-.474-4.337.237.394.474.788.789 1.025.789.71 1.577 1.025 2.603.71 1.971-.631 4.022-.868 6.073-.947 1.656-.078 3.234-.078 4.89.08 1.735.157 3.391.394 5.048.946.867.236 1.577.079 2.287-.474.315-.315.63-.552.867-.946.08-.079.08-.237.316-.158 0 .947-.237 1.893-.316 2.84-.157.946-.315 1.971-.552 2.918-.157.946-.394 1.814-.63 2.76.157-.079.236-.157.236-.315.71-1.183 1.34-2.445 1.972-3.707a62.56 62.56 0 0 0 4.022-10.49c.08-.394.316-.71.552-1.025.395-.474.71-1.026 1.026-1.578.315-.079.473-.315.473-.552ZM70.432 8.754c.157.08.315.08.473.158.552.237.867.552.867 1.183 0 1.262 0 2.524.08 3.786v2.682c-.158.078-.237-.08-.237-.158-.789-.789-1.499-1.657-2.287-2.445-.237-.237-.316-.474-.316-.789 0-.789 0-1.499-.079-2.287v-.395c0-.157-.079-.157-.236-.236h-3.234c-.316 0-.316.079-.316.315v2.84c0 .157-.079.236-.157.236H62.544c-.473 0-.473 0-.473-.552V3.312c.08-.789.474-1.34 1.262-1.577a3.165 3.165 0 0 1 1.183-.237h5.521c1.262 0 1.972.71 1.972 1.972V6.94c0 .71-.237 1.104-.868 1.341-.315.158-.473.237-.71.473Zm-3.234-1.577h1.499c.236 0 .315-.08.315-.237V4.022c0-.237-.079-.237-.315-.237h-2.998c-.236 0-.315.08-.315.316V6.94c0 .158.079.237.237.237h1.577ZM82.342 10.095V16.405s0 .079-.079.079-.079 0-.157-.08c-.08-.078-.08-.078-.158-.157-.71-.789-1.341-1.577-2.05-2.366-.237-.237-.316-.395-.316-.71v-2.918c0-.237-.08-.316-.316-.316h-3.549a.17.17 0 0 0-.158.158V13.25c0 .158-.079.236-.236.236h-2.13c-.315 0-.315-.078-.315-.315V4.337c0-.394 0-.788.078-1.183.158-.867.71-1.42 1.5-1.577.315-.079.63-.079.945-.079h4.417c.316 0 .552 0 .868.079.867.158 1.42.71 1.577 1.577.08.316.08.71.08 1.026v5.915ZM77.531 4.18h-1.735c-.237 0-.237.079-.316.236V7.02c0 .158.08.237.158.237h3.391c.316 0 .395 0 .395-.316V4.574c0-.315-.079-.315-.316-.315-.473-.08-1.025-.08-1.577-.08Z"/><path fill="#fff" d="M0 22.795H27.763c1.025 0 .788-.158.946.789.237 1.025.394 1.971.631 2.997.079.158 0 .236-.236.315H4.732c-.946 0-.63.158-1.42-.552L.238 23.268c0-.158-.08-.236-.237-.473Z"/><path fill="#A2E514" d="M94.803 22.793H108.92c.079 0 .078 0 .078.079v.158c0 .078-.078.078-.157.157l-3.47 3.47c-.237.237-.395.316-.71.316H80.527c-.71 0-.71 0-.63-.71l.472-2.84c0-.157.08-.314.08-.393 0-.158.078-.237.236-.237h14.118Z"/><path fill="#fff" d="M17.746 16.485c-.157 0-.236-.08-.315-.158-.789-.789-1.499-1.656-2.287-2.445-.158-.237-.237-.394-.237-.63V9.622c0-.237.079-.394-.079-.631h-3.312c-.316 0-.395 0-.395.394v3.944c0 .158-.079.236-.236.236H8.36c-.158 0-.237-.078-.237-.157V2.288c0-.237-.079-.473.08-.71h2.681c.236 0 .236.079.236.237V5.758c0 .237 0 .237.237.237 1.183 0 2.287 0 3.47.079.158-.158.08-.316.08-.473V1.815a.17.17 0 0 1 .157-.158h2.129c.316 0 .316 0 .316.315V16.17c.236.158.236.237.236.316ZM18.692 7.572V3.708c0-.395.079-.868.236-1.262.158-.395.474-.71.947-.789.315-.079.631-.079.946-.079h5.363c.237 0 .474 0 .71.079.395.079.631.315.868.71.158.394.316.867.316 1.262V11.2c0 .316 0 .71-.08 1.026-.157.788-.71 1.34-1.656 1.42h-4.968c-.474 0-.947-.08-1.42-.237-.631-.237-.947-.71-1.026-1.262 0-.237-.078-.473-.078-.789-.158-1.262-.158-2.524-.158-3.786Zm2.524-.157V10.49c0 .157.078.236.236.236h3.707a.17.17 0 0 0 .158-.158V4.26a.17.17 0 0 0-.158-.158H21.295c-.158 0-.158.079-.237.237v.315c.158.868.158 1.814.158 2.76ZM46.14.394v6.389c-.08.789-.474 1.42-1.262 1.814-.474.237-.947.315-1.42.394-.789.08-.631-.079-.631.71v6.31c.079.158.158.315.079.552-.158 0-.158-.079-.237-.158l-2.445-2.445c-.236-.236-.315-.394-.315-.71 0-1.183 0-2.287-.08-3.47v-.394c0-.316 0-.395-.394-.395-.473 0-.946-.157-1.34-.315-.552-.237-.947-.631-1.104-1.183-.158-.395-.316-.868-.316-1.341V1.814c0-.158.079-.237.237-.237h2.524c.157.158.078.316.078.474V5.836c0 .158.08.237.158.237h3.471c.315 0 .315 0 .315-.315V2.13c0-.631-.079-.474.473-.868.71-.394 1.42-.868 2.209-1.262M31.549 37.382l-1.656-1.656c-.237-.236-.474-.552-.79-.71-.315-.157-.709-.079-1.025-.079H12.462a.716.716 0 0 1-.552-.236c-1.183-1.262-2.445-2.445-3.628-3.628 0 0 0-.08-.079-.158.079-.158.237-.079.315-.079H30.05c.158 0 .237.079.237.237l.473 2.366.71 3.55c.079.078.079.157.079.393ZM16.247 39.12c.237-.158.315-.079.473-.079h10.806c.315 0 .63.08.867.316 1.104 1.104 2.208 2.208 3.313 3.391l.079.079c.157.237.157.237 0 .394l-.474.474-1.971 1.971c-.237.237-.237.237-.474 0-.71-.71-1.42-1.42-2.13-2.208-.236-.237-.472-.316-.867-.316h-5.126c-.395 0-.631-.078-.947-.394-1.104-1.104-2.208-2.208-3.312-3.391 0 0-.08-.158-.237-.237Z"/><path fill="#A2E514" d="m79.975 45.903-1.025-1.026-1.657-1.656c-.157-.157-.157-.236 0-.315l.237-.237c1.104-1.104 2.209-2.13 3.234-3.234.236-.236.473-.394.867-.394H92.752c.08 0 .158.079.079.158a1.088 1.088 0 0 0-.237.315c-1.104 1.104-2.208 2.209-3.312 3.392-.237.236-.552.315-.868.315H83.445c-.394-.079-.71.08-.946.395-.631.63-1.262 1.261-1.893 1.971-.316 0-.473.158-.63.316ZM78.24 36.674c.078-.552.157-1.183.315-1.735.237-1.104.394-2.287.552-3.391v-.158c.079-.316.237-.473.552-.473H100.166c.236 0 .473-.158.71.079-.079.236-.316.394-.395.552-.946 1.025-1.971 1.972-2.997 2.997-.552.552-.394.473-1.183.473H80.37c-.315 0-.473.079-.71.316l-1.104 1.104c-.079.079-.158.236-.316.236ZM63.018 62.862c-.079-.08-.079-.158-.079-.237v-5.048c0-.236.08-.473.237-.63l.315-.316 9.544-9.544c.868-.867 1.735-1.735 2.603-2.524.157-.157.315-.236.394-.315.158 0 .237.079.315.158.79.788 1.578 1.577 2.367 2.366.315.315.315.315 0 .63l-.237.237c-4.89 4.97-9.859 9.938-14.828 14.828-.315.08-.394.316-.63.395Z"/><path fill="#fff" d="M46.14 62.86 30.287 47.008c0-.157.157-.236.315-.315.71-.789 1.499-1.499 2.208-2.209.316-.315.316-.236.631 0l2.367 2.367c2.208 2.208 4.416 4.495 6.625 6.704a72.02 72.02 0 0 0 3.47 3.47c.316.316.473.631.394 1.104v4.338c-.078.158-.078.237-.157.395Z"/><path fill="#A2E514" d="M85.97 16.642c-.08-.08-.158-.237-.237-.316l-2.13-2.366c-.236-.237-.315-.394-.315-.71V3.47c.158-.946.71-1.498 1.577-1.735.237-.079.474-.079.71-.079h5.679c.158 0 .236.08.236.237V4.18c0 .157-.078.157-.236.236H86.6c-.553 0-.552 0-.552.552v1.025c0 .158.078.237.236.237h2.839c.237 0 .237.079.237.236v2.051c0 .237-.079.316-.315.316h-2.761c-.236 0-.236.078-.236.236v7.492l-.08.08ZM95.355 16.721c-.315-.315-.394-.473-.552-.63l-1.893-2.13c-.158-.237-.236-.394-.236-.71V3.392c.078-.867.63-1.42 1.42-1.656.236-.079.551-.158.788-.158h5.758c.157 0 .236.079.236.237v1.34c0 .316.079.71-.079 1.105-.315.079-.71.079-1.025.079h-4.18c-.158 0-.237.078-.237.236v1.42c0 .158.079.237.158.237h2.76c.316 0 .395 0 .395.315v1.972c0 .315 0 .315-.395.315h-2.445c-.63 0-.552 0-.552.552v6.547c.158.236.08.394.08.788ZM57.575 16.484c-.157 0-.236-.158-.315-.237-.71-.71-1.34-1.42-2.05-2.13-.237-.236-.316-.472-.316-.788V4.97c0-.158-.08-.237-.316-.237H52.37c-.947 0-.868.08-.868-.867V1.972c0-.316.08-.316.316-.316h9.07c.158 0 .158.08.237.237v2.366c0 .473 0 .473-.474.473h-2.13c-.867 0-.788-.079-.788.868v10.332c-.158.079-.079.315-.158.552Z"/><path fill="#fff" d="M31.627 1.028v9.622c0 .237.08.237.237.237h3.707c.157 0 .236.079.236.236v2.366c0 .158-.079.237-.236.237h-4.812c-.315 0-.552 0-.867-.079a1.422 1.422 0 0 1-.947-.946c-.078-.237-.078-.552-.078-.789V2.053c0-.315.078-.473.315-.552.789-.394 1.578-.868 2.366-1.34"/><path fill="#A2E514" d="M72.483 27.841c0-.08 0-.08 0 0 .08-.08.08-.08 0 0Z"/></svg>
