<svg fill="#ffffff" xmlns="http://www.w3.org/2000/svg" viewBox="0 0 655.79 236.06"><defs><style>.cls-1{fill:#95ff00}</style></defs><g id="Слой_2"><g><path d="m417.74 140.71-4.53 15-22.08-67.95h-23.6l-23 67.86-19.71-67.86h-23.6l27.5 88.49h28.55L379.18 113l21 63.21h28.55l21.4-67.21a10.35 10.35 0 0 1 2.59-4.54c2.48-2.14 7-1.53 9.66.05a18.7 18.7 0 0 1 4.13 4.37L489.75 140v36.21h22.3v-35.59l41.53-52.86H529l-28.22 35.75L482.67 99a46.53 46.53 0 0 0-6.55-7.67 20.35 20.35 0 0 0-6.66-4.13 24.07 24.07 0 0 0-8.26-1.3h-10.72q-9 0-14 4.37t-7.73 14ZM649.24 108.87A43.79 43.79 0 0 0 631 93.41q-11.68-5.55-27.25-5.55h-43.18v36.58H552v15.1h8.61v36.82h43.19q15.57 0 27.25-5.55a43.63 43.63 0 0 0 18.23-15.52 41.2 41.2 0 0 0 6.55-23.18q0-13.34-6.55-23.24M629.83 145a23 23 0 0 1-9.67 8.55 33.09 33.09 0 0 1-14.75 3.07h-22.66v-17.08h21.13v-15.1h-21.14v-16.87h22.67a33.09 33.09 0 0 1 14.75 3.07 23.12 23.12 0 0 1 9.67 8.49 26.23 26.23 0 0 1 0 25.9M270.54 87.47v34H222.4v-34H200v88.71h22.4v-35.13h48.14v26.38q0 7.09-3 10t-9.94 2.9a44.09 44.09 0 0 1-8.63-.83 38.35 38.35 0 0 1-7.69-2.36V194a51.15 51.15 0 0 0 8.87 2.49 57.84 57.84 0 0 0 11.36 1.06q11 0 17.86-3.37a22.46 22.46 0 0 0 10.17-9.46 29.61 29.61 0 0 0 3.31-14.37V87.47Z"/><path d="M123.76 156.72H79.67l-.07-99.51H58.06v120.62h65.7v-21.11zM139.15 195.85a16.87 16.87 0 0 1-33.14 0H82.32q2.4 15.28 12.79 24t27.38 8.76q17.34 0 27.73-8.76t12.62-24Z" class="cls-1"/><path d="M107.61 122.52a6.78 6.78 0 0 1 4.9-1.89 13.35 13.35 0 0 1 5.17 1.19q2.8 1.19 5.95 2.59a67.51 67.51 0 0 0 6.65 2.52 23.91 23.91 0 0 0 7.27 1.12q9.66 0 14.56-6.72T157.7 103h-15.81a9.93 9.93 0 0 1-2.66 5.39 6.74 6.74 0 0 1-4.89 1.89 13.63 13.63 0 0 1-5.11-1.12q-2.73-1.12-5.88-2.59a53.3 53.3 0 0 0-6.72-2.59 23.73 23.73 0 0 0-7.2-1.12q-9.8 0-14.69 6.85t-5.46 18.2h15.81a9.22 9.22 0 0 1 2.52-5.39M38 105.06a13.2 13.2 0 0 0-7-1.88 13.54 13.54 0 0 0-7 1.88 13.86 13.86 0 0 0 7 25.85 13.29 13.29 0 0 0 7-1.91 14.48 14.48 0 0 0 5-5 14 14 0 0 0 0-14 14.36 14.36 0 0 0-5-5M79.69 23.92H56.55a13.5 13.5 0 0 1-5.14-.84 8.84 8.84 0 0 1-3.7-3.32l-6.37-9q-4.16-6-8.71-8.38A21 21 0 0 0 22.62 0Q11.84 0 5.91 8.52T0 31.72q0 16.52 7.15 25A27.26 27.26 0 0 0 26 66.3V48.23q-6-1.3-9-5T13.91 32q0-6.89 2.47-10.07a8.08 8.08 0 0 1 6.76-3.19 7.72 7.72 0 0 1 4.68 1.43 21.14 21.14 0 0 1 4.42 5.07l6.63 9.62a17.62 17.62 0 0 0 6 5.65 19.1 19.1 0 0 0 9.17 1.89h25.65ZM534.09 203.89v31.5h-6.81V210.3l-11.63 25.09h-7.35l-11.68-25.1v25.1h-6.76v-31.5h10.96l11.15 24.67 11.16-24.67h10.96zM602.17 203.05h-7.27L593.35 217l-.08-.15a13 13 0 0 0-4.52-4.39 12.71 12.71 0 0 0-12.24 0 10.78 10.78 0 0 0-4.18 4.41 15.34 15.34 0 0 0 0 13.19 10.78 10.78 0 0 0 4.18 4.41 12.78 12.78 0 0 0 12.24 0 12.82 12.82 0 0 0 4.49-4.39c0-.07.08-.15.12-.21l.62 5.52h7.26L599.86 223Zm-13.8 26.61a8 8 0 0 1-3.72.9 6.68 6.68 0 0 1-3.48-.9 6.34 6.34 0 0 1-2.37-2.5 7.61 7.61 0 0 1-.87-3.7 7.7 7.7 0 0 1 .87-3.71 6.26 6.26 0 0 1 2.37-2.52 6.69 6.69 0 0 1 3.48-.91 8 8 0 0 1 3.72.91 10 10 0 0 1 3.09 2.52 12.28 12.28 0 0 1 2.1 3.71 12 12 0 0 1-2.1 3.7 10.2 10.2 0 0 1-3.09 2.5M610.44 208.76a4.7 4.7 0 0 1-3.08-1 3.24 3.24 0 0 1-1.2-2.63 3.28 3.28 0 0 1 1.2-2.67 5.38 5.38 0 0 1 6.19 0 3.32 3.32 0 0 1 1.18 2.67 3.29 3.29 0 0 1-1.18 2.63 4.71 4.71 0 0 1-3.11 1M606.96 211.24l3.48.67 3.53-.67v24.15h-7.01v-24.15zM649.46 211.49h-7.27l-.6 5.29a13 13 0 0 0-4.5-4.36 12.71 12.71 0 0 0-12.24 0 10.84 10.84 0 0 0-4.18 4.41 15.34 15.34 0 0 0 0 13.19 10.84 10.84 0 0 0 4.18 4.41 12.78 12.78 0 0 0 12.24 0 12.82 12.82 0 0 0 4.49-4.39l.61 5.31h7.27l-1.39-11.93Zm-12.75 18.17a8 8 0 0 1-3.71.9 6.69 6.69 0 0 1-3.49-.9 6.34 6.34 0 0 1-2.37-2.5 7.6 7.6 0 0 1-.86-3.7 7.7 7.7 0 0 1 .86-3.71 6.26 6.26 0 0 1 2.37-2.52 6.7 6.7 0 0 1 3.49-.91 8 8 0 0 1 3.71.91 9.87 9.87 0 0 1 3.09 2.52 12.07 12.07 0 0 1 2.1 3.71 11.79 11.79 0 0 1-2.1 3.7 10.08 10.08 0 0 1-3.09 2.5M555.78 230.74a12.69 12.69 0 0 1-5.12-.93 6.78 6.78 0 0 1-3.88-4.14h20a17.79 17.79 0 0 0-1.62-7.86 12.21 12.21 0 0 0-4.63-5.18 13.52 13.52 0 0 0-7.18-1.84 16.23 16.23 0 0 0-7.31 1.59 12.54 12.54 0 0 0-5 4.41 11.9 11.9 0 0 0-1.84 6.59 11.75 11.75 0 0 0 1.92 6.68 12.88 12.88 0 0 0 5.29 4.46 17.72 17.72 0 0 0 7.62 1.58 23.06 23.06 0 0 0 6.66-.95 18.65 18.65 0 0 0 5.51-2.64v-4.73a17.91 17.91 0 0 1-4.94 2.22 19.94 19.94 0 0 1-5.45.78m-8.56-11.51a6 6 0 0 1 2.45-2.41 7.66 7.66 0 0 1 3.74-.87 7.19 7.19 0 0 1 3.46.8 6 6 0 0 1 2.35 2.29 6.47 6.47 0 0 1 .75 1.9h-13.42a6.35 6.35 0 0 1 .67-1.75" class="cls-1"/></g></g></svg>
