<svg width="40" height="40" viewBox="0 0 40 40" fill="none" xmlns="http://www.w3.org/2000/svg">
<path d="M23.5502 8.68396V10.5154C23.5502 12.4761 21.9608 14.0657 20 14.0657C18.0393 14.0657 16.4498 12.4762 16.4498 10.5154V8.68396" stroke="#FF57C6" stroke-width="1.71875" stroke-miterlimit="10" stroke-linejoin="round"/>
<path d="M10.8243 19.874C12.5359 19.874 13.9234 18.4865 13.9234 16.775C13.9234 15.0634 12.5359 13.6759 10.8243 13.6759C9.11273 13.6759 7.72523 15.0634 7.72523 16.775C7.72523 18.4865 9.11273 19.874 10.8243 19.874Z" stroke="#FF57C6" stroke-width="1.71875" stroke-miterlimit="10" stroke-linejoin="round"/>
<path d="M29.1757 19.874C30.8873 19.874 32.2748 18.4865 32.2748 16.775C32.2748 15.0634 30.8873 13.6759 29.1757 13.6759C27.4641 13.6759 26.0766 15.0634 26.0766 16.775C26.0766 18.4865 27.4641 19.874 29.1757 19.874Z" stroke="#FF57C6" stroke-width="1.71875" stroke-miterlimit="10" stroke-linejoin="round"/>
<path d="M15.0014 23.424H17.6561" stroke="#FF57C6" stroke-width="1.71875" stroke-miterlimit="10" stroke-linecap="round" stroke-linejoin="round"/>
<path d="M22.3439 23.424H24.9986" stroke="#FF57C6" stroke-width="1.71875" stroke-miterlimit="10" stroke-linecap="round" stroke-linejoin="round"/>
<path d="M38.9767 27.2772L36.2735 15.768C35.2987 11.6177 31.596 8.68396 27.3328 8.68396H12.6672C8.40398 8.68396 4.70125 11.6178 3.72648 15.768L1.02328 27.2772C0.12625 31.0962 3.02422 34.7536 6.94719 34.7536C9.77187 34.7536 12.2252 32.8098 12.8711 30.0599L13.4387 27.643H26.5612L27.1288 30.0599C27.7747 32.8098 30.228 34.7536 33.0527 34.7536C36.9758 34.7536 39.8737 31.0962 38.9767 27.2772Z" stroke="#100730" stroke-width="1.71875" stroke-miterlimit="10" stroke-linejoin="round"/>
<path d="M8.14195 9.85579V7.59009C8.14195 6.29563 9.19125 5.24634 10.4857 5.24634H13.9234V8.68384" stroke="#100730" stroke-width="1.71875" stroke-miterlimit="10" stroke-linejoin="round"/>
<path d="M26.0766 8.68384V5.24634H29.5143C30.8087 5.24634 31.858 6.29563 31.858 7.59009V9.85579" stroke="#100730" stroke-width="1.71875" stroke-miterlimit="10" stroke-linejoin="round"/>
<path d="M27.1289 30.0599H28.3393C30.448 30.0599 32.3277 28.7304 33.0301 26.7419C33.7324 24.7536 35.6121 23.424 37.7209 23.424" stroke="#100730" stroke-width="1.71875" stroke-miterlimit="10" stroke-linejoin="round"/>
<path d="M12.8711 30.0599H11.6607C9.55196 30.0599 7.67227 28.7304 6.96993 26.7419C6.26758 24.7536 4.38789 23.424 2.27914 23.424" stroke="#100730" stroke-width="1.71875" stroke-miterlimit="10" stroke-linejoin="round"/>
</svg>
