<svg width="40" height="40" viewBox="0 0 40 40" fill="none" xmlns="http://www.w3.org/2000/svg">
<g clip-path="url(#clip0_4_753)">
<path d="M13.444 17.4373H21.5352C22.068 17.4373 22.5 17.8693 22.5 18.4022V20.8652C22.5 21.6398 23.4212 22.0445 23.9917 21.5205L27.7016 18.1133C28.1748 17.6786 28.7941 17.4374 29.4366 17.4374H36.0156C37.7415 17.4374 39.1406 16.0383 39.1406 14.3124V3.98438C39.1406 2.25852 37.7415 0.859375 36.0156 0.859375H3.98438C2.25852 0.859375 0.859375 2.25852 0.859375 3.98438V14.3123C0.859375 16.0382 2.25852 17.4373 3.98438 17.4373H8.67047" stroke="#FF57C6" stroke-width="1.71875" stroke-miterlimit="10" stroke-linecap="round" stroke-linejoin="round"/>
<path d="M23.2767 12.1543V6.20996L27.3413 12.1178C27.357 12.1407 27.383 12.1543 27.4108 12.1543C27.4574 12.1543 27.4952 12.1166 27.4952 12.07V6.20996" stroke="#100730" stroke-width="1.71875" stroke-miterlimit="10" stroke-linecap="round" stroke-linejoin="round"/>
<path d="M11.2288 6.20996V12.1543" stroke="#100730" stroke-width="1.71875" stroke-miterlimit="10" stroke-linecap="round" stroke-linejoin="round"/>
<path d="M20.2987 6.20996V12.1543" stroke="#100730" stroke-width="1.71875" stroke-miterlimit="10" stroke-linecap="round" stroke-linejoin="round"/>
<path d="M4.19373 6.20996V12.1543" stroke="#100730" stroke-width="1.71875" stroke-miterlimit="10" stroke-linecap="round" stroke-linejoin="round"/>
<path d="M8.30725 6.20996V12.1543" stroke="#100730" stroke-width="1.71875" stroke-miterlimit="10" stroke-linecap="round" stroke-linejoin="round"/>
<path d="M4.19373 9.0802H8.30732" stroke="#100730" stroke-width="1.71875" stroke-miterlimit="10" stroke-linecap="round" stroke-linejoin="round"/>
<path d="M34.9023 6.71766C34.4279 6.39719 33.8561 6.21008 33.2405 6.21008C31.599 6.21008 30.2683 7.54079 30.2683 9.18227C30.2683 10.8238 31.599 12.1545 33.2405 12.1545C34.882 12.1545 35.8062 10.8238 35.8062 9.18227H34.0281" stroke="#100730" stroke-width="1.71875" stroke-miterlimit="10" stroke-linecap="round" stroke-linejoin="round"/>
<path d="M15.0229 9.30762L17.52 12.1544" stroke="#100730" stroke-width="1.71875" stroke-miterlimit="10" stroke-linecap="round" stroke-linejoin="round"/>
<path d="M14.3098 9.30762V12.1544" stroke="#100730" stroke-width="1.71875" stroke-miterlimit="10" stroke-linecap="round" stroke-linejoin="round"/>
<path d="M17.52 7.75488C17.52 8.60809 16.7719 9.30754 15.8877 9.30754H14.3099V6.20996H15.8877C16.7719 6.20996 17.52 6.90168 17.52 7.75488Z" stroke="#100730" stroke-width="1.71875" stroke-miterlimit="10" stroke-linecap="round" stroke-linejoin="round"/>
<path d="M19.3896 28.1929L9.5987 32.854L4.50659 27.7619L9.16417 17.9784" stroke="#100730" stroke-width="1.71875" stroke-miterlimit="10" stroke-linecap="round" stroke-linejoin="round"/>
<path d="M9.59871 32.854L6.51246 35.9403C5.76449 36.6882 4.55184 36.6882 3.80387 35.9403L1.42035 33.5567C0.672383 32.8087 0.672383 31.5961 1.42035 30.8481L4.5066 27.7618" stroke="#100730" stroke-width="1.71875" stroke-miterlimit="10" stroke-linecap="round" stroke-linejoin="round"/>
<path d="M9.59872 32.854L13.1063 36.3616C13.7421 36.9974 13.7421 38.0281 13.1063 38.6638C12.4705 39.2996 11.4398 39.2996 10.804 38.6638L7.43481 35.2946" stroke="#100730" stroke-width="1.71875" stroke-miterlimit="10" stroke-linecap="round" stroke-linejoin="round"/>
<path d="M21.964 28.3853C21.3268 29.0225 20.2936 29.0225 19.6565 28.3853L8.97521 17.7041C8.33802 17.0669 8.33802 16.0338 8.97521 15.3966C9.61239 14.7594 10.6455 14.7594 11.2827 15.3966L21.964 26.0778C22.6011 26.715 22.6011 27.7482 21.964 28.3853Z" stroke="#100730" stroke-width="1.71875" stroke-miterlimit="10" stroke-linecap="round" stroke-linejoin="round"/>
</g>
<defs>
<clipPath id="clip0_4_753">
<rect width="40" height="40" fill="white"/>
</clipPath>
</defs>
</svg>
