<svg width="40" height="40" viewBox="0 0 40 40" fill="none" xmlns="http://www.w3.org/2000/svg">
<g clip-path="url(#clip0_4_586)">
<path d="M25.8009 31.7576L32.1051 20.8383" stroke="#FF57C6" stroke-width="1.71875" stroke-miterlimit="10" stroke-linejoin="round"/>
<path d="M17.6856 12.5132L11.7015 22.8781" stroke="#FF57C6" stroke-width="1.71875" stroke-miterlimit="10" stroke-linejoin="round"/>
<path d="M22.5371 26.0816C21.8531 24.9694 20.9141 24.0304 19.8019 23.3463C20.9141 22.6623 21.8531 21.7233 22.5371 20.6111C23.2212 21.7233 24.1602 22.6623 25.2723 23.3463C24.1601 24.0304 23.2211 24.9694 22.5371 26.0816Z" stroke="#FF57C6" stroke-width="1.71875" stroke-miterlimit="10" stroke-linecap="round" stroke-linejoin="round"/>
<path d="M9.61756 15.4381C8.9335 14.3259 7.99451 13.3869 6.88232 12.7029C7.99451 12.0188 8.9335 11.0798 9.61756 9.96765C10.3016 11.0798 11.2406 12.0188 12.3528 12.7029C11.2406 13.3869 10.3016 14.3259 9.61756 15.4381Z" stroke="#FF57C6" stroke-width="1.71875" stroke-miterlimit="10" stroke-linecap="round" stroke-linejoin="round"/>
<path d="M10.7655 27.469C10.3976 27.2656 9.54125 26.8951 8.57727 27.1855C7.39711 27.541 7.10398 29.1559 7.90602 29.7848C8.36648 30.146 9.05938 30.443 9.9932 30.773C12.0832 31.5118 11.3106 34.4593 9.18461 34.4734C8.35492 34.479 7.96703 34.4263 7.23828 33.9495" stroke="#FF57C6" stroke-width="1.71875" stroke-miterlimit="10" stroke-linecap="round" stroke-linejoin="round"/>
<path d="M9.18469 34.6104V35.5493" stroke="#FF57C6" stroke-width="1.71875" stroke-miterlimit="10" stroke-linecap="round" stroke-linejoin="round"/>
<path d="M9.18469 26.0815V26.9885" stroke="#FF57C6" stroke-width="1.71875" stroke-miterlimit="10" stroke-linecap="round" stroke-linejoin="round"/>
<path d="M36.6406 6.4425H39.1406" stroke="#100730" stroke-width="1.71875" stroke-miterlimit="10" stroke-linecap="round" stroke-linejoin="round"/>
<path d="M36.6406 11.505H39.1406" stroke="#100730" stroke-width="1.71875" stroke-miterlimit="10" stroke-linecap="round" stroke-linejoin="round"/>
<path d="M36.6406 16.5675H39.1406" stroke="#100730" stroke-width="1.71875" stroke-miterlimit="10" stroke-linecap="round" stroke-linejoin="round"/>
<path d="M36.6406 21.63H39.1406" stroke="#100730" stroke-width="1.71875" stroke-miterlimit="10" stroke-linecap="round" stroke-linejoin="round"/>
<path d="M36.6406 31.755H39.1406" stroke="#100730" stroke-width="1.71875" stroke-miterlimit="10" stroke-linecap="round" stroke-linejoin="round"/>
<path d="M36.6406 26.6925H39.1406" stroke="#100730" stroke-width="1.71875" stroke-miterlimit="10" stroke-linecap="round" stroke-linejoin="round"/>
<path d="M28.3412 6.4425H3.35938V24.8685" stroke="#100730" stroke-width="1.71875" stroke-miterlimit="10" stroke-linejoin="round"/>
<path d="M17.4565 31.755H36.6406V6.4425H33.149" stroke="#100730" stroke-width="1.71875" stroke-miterlimit="10" stroke-linejoin="round"/>
<path d="M3.35938 6.4425H0.859375" stroke="#100730" stroke-width="1.71875" stroke-miterlimit="10" stroke-linecap="round" stroke-linejoin="round"/>
<path d="M3.35938 11.505H0.859375" stroke="#100730" stroke-width="1.71875" stroke-miterlimit="10" stroke-linecap="round" stroke-linejoin="round"/>
<path d="M3.35938 16.5675H0.859375" stroke="#100730" stroke-width="1.71875" stroke-miterlimit="10" stroke-linecap="round" stroke-linejoin="round"/>
<path d="M3.35938 21.63H0.859375" stroke="#100730" stroke-width="1.71875" stroke-miterlimit="10" stroke-linecap="round" stroke-linejoin="round"/>
<path d="M9.18453 22.4904C4.58664 22.4904 0.859375 26.2176 0.859375 30.8154C0.859375 35.4133 4.58664 39.1406 9.18453 39.1406C13.7823 39.1406 17.5097 35.4133 17.5097 30.8154C17.5096 26.2176 13.7823 22.4904 9.18453 22.4904Z" stroke="#100730" stroke-width="1.71875" stroke-miterlimit="10" stroke-linecap="round" stroke-linejoin="round"/>
<path d="M22.2415 10.2596L31.7787 15.7659C33.1269 16.5443 33.5888 18.2682 32.8105 19.6164L32.1051 20.8382L17.6855 12.5131L18.3909 11.2913C19.1693 9.94316 20.8933 9.4812 22.2415 10.2596Z" stroke="#100730" stroke-width="1.71875" stroke-miterlimit="10" stroke-linejoin="round"/>
<path d="M28.7693 14.0284L34.6131 3.90663C35.174 2.93506 34.8411 1.6928 33.8696 1.13186C32.898 0.570923 31.6557 0.903813 31.0948 1.87538L25.251 11.9972" stroke="#100730" stroke-width="1.71875" stroke-miterlimit="10" stroke-linecap="round" stroke-linejoin="round"/>
</g>
<defs>
<clipPath id="clip0_4_586">
<rect width="40" height="40" fill="white"/>
</clipPath>
</defs>
</svg>
