<svg width="72" height="72" viewBox="0 0 72 72" fill="none" xmlns="http://www.w3.org/2000/svg">
<path fill-rule="evenodd" clip-rule="evenodd" d="M9.42061 49.6155C6.81159 49.6155 4.69659 51.7306 4.69659 54.3398C4.69659 56.9488 6.81159 59.0639 9.42061 59.0639C12.0296 59.0639 14.1446 56.9488 14.1446 54.3398C14.1446 51.7306 12.0296 49.6155 9.42061 49.6155Z" stroke="#100730" stroke-width="3.09375" stroke-miterlimit="22.9256" stroke-linecap="round" stroke-linejoin="round"/>
<path fill-rule="evenodd" clip-rule="evenodd" d="M17.2942 66.9375C17.2942 62.5889 13.769 59.0637 9.42047 59.0637C5.07206 59.0637 1.54688 62.5889 1.54688 66.9375H17.2942Z" stroke="#100730" stroke-width="3.09375" stroke-miterlimit="22.9256" stroke-linecap="round" stroke-linejoin="round"/>
<path fill-rule="evenodd" clip-rule="evenodd" d="M62.5794 49.6155C59.9704 49.6155 57.8554 51.7306 57.8554 54.3398C57.8554 56.9488 59.9704 59.0639 62.5794 59.0639C65.1884 59.0639 67.3034 56.9488 67.3034 54.3398C67.3034 51.7306 65.1884 49.6155 62.5794 49.6155Z" stroke="#100730" stroke-width="3.09375" stroke-miterlimit="22.9256" stroke-linecap="round" stroke-linejoin="round"/>
<path fill-rule="evenodd" clip-rule="evenodd" d="M70.4531 66.9375C70.4531 62.5889 66.9279 59.0637 62.5794 59.0637C58.2308 59.0637 54.7057 62.5889 54.7057 66.9375H70.4531Z" stroke="#100730" stroke-width="3.09375" stroke-miterlimit="22.9256" stroke-linecap="round" stroke-linejoin="round"/>
<path fill-rule="evenodd" clip-rule="evenodd" d="M36 39.094C31.8063 39.094 28.4065 42.4939 28.4065 46.6877C28.4064 50.8815 31.8061 54.2812 36 54.2812C40.1939 54.2812 43.5935 50.8815 43.5935 46.6876C43.5935 42.4939 40.1937 39.094 36 39.094Z" stroke="#100730" stroke-width="3.09375" stroke-miterlimit="22.9256" stroke-linecap="round" stroke-linejoin="round"/>
<path fill-rule="evenodd" clip-rule="evenodd" d="M48.6562 66.9375C48.6562 59.9476 42.9899 54.2812 36 54.2812C29.0101 54.2812 23.3438 59.9476 23.3438 66.9375H48.6562Z" stroke="#100730" stroke-width="3.09375" stroke-miterlimit="22.9256" stroke-linecap="round" stroke-linejoin="round"/>
<path d="M30.0265 56.3347L36 66.6811L41.9735 56.3347" stroke="#100730" stroke-width="3.09375" stroke-miterlimit="2.6131" stroke-linecap="round" stroke-linejoin="round"/>
<path fill-rule="evenodd" clip-rule="evenodd" d="M13.0411 5.0625H58.9589C61.2792 5.0625 63.1776 6.96094 63.1776 9.28125V26.1562C63.1776 28.4766 61.2792 30.375 58.9589 30.375H24.2234V36L15.5346 30.375H13.0411C10.721 30.375 8.82239 28.4766 8.82239 26.1562V9.28125C8.82225 6.96094 10.7208 5.0625 13.0411 5.0625Z" stroke="#100730" stroke-width="3.09375" stroke-miterlimit="2.6131" stroke-linecap="round" stroke-linejoin="round"/>
<path d="M15.5346 11.3906H56.4655" stroke="#FF57C6" stroke-width="3.09375" stroke-miterlimit="2.6131" stroke-linecap="round" stroke-linejoin="round"/>
<path d="M15.5346 17.7185H56.4655" stroke="#FF57C6" stroke-width="3.09375" stroke-miterlimit="2.6131" stroke-linecap="round" stroke-linejoin="round"/>
<path d="M15.5346 24.0466H36" stroke="#FF57C6" stroke-width="3.09375" stroke-miterlimit="2.6131" stroke-linecap="round" stroke-linejoin="round"/>
</svg>
