<svg width="40" height="40" viewBox="0 0 40 40" fill="none" xmlns="http://www.w3.org/2000/svg">
<g clip-path="url(#clip0_4_678)">
<path d="M13.9316 25.2425C14.4862 25.5055 14.8698 26.0706 14.8698 26.7252V27.88C14.8698 28.7857 14.1356 29.52 13.2298 29.52H6.86366C5.95796 29.52 5.22366 28.7858 5.22366 27.88V26.7252C5.22366 26.0459 5.63671 25.4631 6.2253 25.2141" stroke="#100730" stroke-width="1.71875" stroke-miterlimit="10" stroke-linecap="round" stroke-linejoin="round"/>
<path d="M13.3073 25.1509H6.78616C5.92319 25.1509 5.22366 24.4513 5.22366 23.5884V22.2787C5.22366 21.4157 5.92319 20.7162 6.78616 20.7162H13.3073C14.1703 20.7162 14.8698 21.4157 14.8698 22.2787V23.5884C14.8698 24.4513 14.1702 25.1509 13.3073 25.1509Z" stroke="#100730" stroke-width="1.71875" stroke-miterlimit="10" stroke-linecap="round" stroke-linejoin="round"/>
<path d="M39.1406 21.5362H34.3347V13.434C34.3347 12.1696 35.3597 11.1445 36.6241 11.1445H36.8512C38.1155 11.1445 39.1406 12.1695 39.1406 13.434V21.5362Z" stroke="#100730" stroke-width="1.71875" stroke-miterlimit="10" stroke-linecap="round" stroke-linejoin="round"/>
<path d="M39.1406 21.5361H34.3347V32.991C34.3347 34.2554 35.3597 35.2804 36.6241 35.2804H36.8512C38.1155 35.2804 39.1406 34.2554 39.1406 32.991V21.5361Z" stroke="#100730" stroke-width="1.71875" stroke-miterlimit="10" stroke-linecap="round" stroke-linejoin="round"/>
<path d="M36.7377 35.2805V36.7764" stroke="#100730" stroke-width="1.71875" stroke-miterlimit="10" stroke-linecap="round" stroke-linejoin="round"/>
<path d="M24.9738 12.2093C24.7936 14.9882 22.4826 17.1864 19.6581 17.1864C16.7162 17.1864 14.3312 14.8015 14.3312 11.8595C14.3312 8.98324 16.6107 6.63949 19.4617 6.53613" stroke="#FF57C6" stroke-width="1.71875" stroke-miterlimit="10" stroke-linecap="round" stroke-linejoin="round"/>
<path d="M19.6581 5.23091V11.3192C19.6581 11.6175 19.9 11.8594 20.1983 11.8594H26.2866C26.6004 11.8594 26.8509 11.5927 26.826 11.28C26.5462 7.77059 23.7469 4.9713 20.2375 4.69153C19.9248 4.66661 19.6581 4.91723 19.6581 5.23091Z" stroke="#FF57C6" stroke-width="1.71875" stroke-miterlimit="10" stroke-linecap="round" stroke-linejoin="round"/>
<path d="M21.8102 22.3895L21.7034 22.307C21.4687 22.1442 20.8619 21.8181 20.03 22.0687C19.0386 22.3674 18.7923 23.7239 19.4661 24.2523C19.853 24.5557 20.435 24.8052 21.2194 25.0825C22.9752 25.7031 22.3262 28.1792 20.5402 28.1911C19.8433 28.1957 19.5174 28.1514 18.9052 27.7509" stroke="#100730" stroke-width="1.71875" stroke-miterlimit="10" stroke-linecap="round" stroke-linejoin="round"/>
<path d="M20.5402 28.191V29.0948" stroke="#100730" stroke-width="1.71875" stroke-miterlimit="10" stroke-linecap="round" stroke-linejoin="round"/>
<path d="M20.5402 21.1412V21.9771" stroke="#100730" stroke-width="1.71875" stroke-miterlimit="10" stroke-linecap="round" stroke-linejoin="round"/>
<path d="M27.8058 38.952H3.20312C1.90867 38.952 0.859375 37.9027 0.859375 36.6083V3.39172C0.859375 2.09727 1.90867 1.04797 3.20312 1.04797H27.8058C29.1002 1.04797 30.1495 2.09727 30.1495 3.39172V36.6084C30.1495 37.9027 29.1002 38.952 27.8058 38.952Z" stroke="#100730" stroke-width="1.71875" stroke-miterlimit="10" stroke-linecap="round" stroke-linejoin="round"/>
<path d="M5.22366 7.36377H11.4653" stroke="#100730" stroke-width="1.71875" stroke-miterlimit="10" stroke-linecap="round" stroke-linejoin="round"/>
<path d="M5.22366 11.2854H10.2048" stroke="#100730" stroke-width="1.71875" stroke-miterlimit="10" stroke-linecap="round" stroke-linejoin="round"/>
<path d="M5.22366 15.2069H9.34413" stroke="#100730" stroke-width="1.71875" stroke-miterlimit="10" stroke-linecap="round" stroke-linejoin="round"/>
<path d="M5.22366 34.1118H25.552" stroke="#100730" stroke-width="1.71875" stroke-miterlimit="10" stroke-linecap="round" stroke-linejoin="round"/>
</g>
<defs>
<clipPath id="clip0_4_678">
<rect width="40" height="40" fill="white"/>
</clipPath>
</defs>
</svg>
