<svg width="40" height="40" viewBox="0 0 40 40" fill="none" xmlns="http://www.w3.org/2000/svg">
<path d="M18.9348 33.5455H16.4363C16.0048 33.5455 15.655 33.1957 15.655 32.7642V29.3689C15.655 28.9374 16.0048 28.5876 16.4363 28.5876H18.9348C19.3663 28.5876 19.716 28.9374 19.716 29.3689V32.7642C19.716 33.1957 19.3663 33.5455 18.9348 33.5455Z" stroke="#FF57C6" stroke-width="1.71875" stroke-miterlimit="10" stroke-linecap="round" stroke-linejoin="round"/>
<path d="M26.8322 33.5455H24.2406C23.8091 33.5455 23.4594 33.1957 23.4594 32.7642V26.4763C23.4594 26.0448 23.8091 25.6951 24.2406 25.6951H26.8322C27.2637 25.6951 27.6135 26.0448 27.6135 26.4763V32.7642C27.6135 33.1957 27.2637 33.5455 26.8322 33.5455Z" stroke="#FF57C6" stroke-width="1.71875" stroke-miterlimit="10" stroke-linecap="round" stroke-linejoin="round"/>
<path d="M34.5694 33.5455H31.9778C31.5463 33.5455 31.1965 33.1957 31.1965 32.7642V22.9143C31.1965 22.4828 31.5463 22.1331 31.9778 22.1331H34.5694C35.0009 22.1331 35.3507 22.4828 35.3507 22.9143V32.7642C35.3507 33.1957 35.0009 33.5455 34.5694 33.5455Z" stroke="#FF57C6" stroke-width="1.71875" stroke-miterlimit="10" stroke-linecap="round" stroke-linejoin="round"/>
<path d="M16.0446 23.6115C16.0446 23.6115 25.193 23.777 32.0101 14.4159" stroke="#100730" stroke-width="1.71875" stroke-miterlimit="10" stroke-linecap="round" stroke-linejoin="round"/>
<path d="M29.781 14.3826L32.218 13.8572L32.7433 16.2942" stroke="#100730" stroke-width="1.71875" stroke-miterlimit="10" stroke-linecap="round" stroke-linejoin="round"/>
<path d="M39.1406 10.3326H0.859375V5.52271C0.859375 3.79685 2.25852 2.39771 3.98438 2.39771H36.0156C37.7415 2.39771 39.1406 3.79685 39.1406 5.52271V10.3326Z" stroke="#100730" stroke-width="1.71875" stroke-miterlimit="10" stroke-linecap="round" stroke-linejoin="round"/>
<path d="M39.1406 10.3326H0.859375V34.4773C0.859375 36.2031 2.25852 37.6023 3.98438 37.6023H36.0156C37.7415 37.6023 39.1406 36.2031 39.1406 34.4773V10.3326Z" stroke="#100730" stroke-width="1.71875" stroke-miterlimit="10" stroke-linecap="round" stroke-linejoin="round"/>
<circle cx="27.5103" cy="6.36523" r="0.859375" fill="#100730"/>
<circle cx="30.6611" cy="6.36523" r="0.859375" fill="#100730"/>
<circle cx="33.8121" cy="6.36523" r="0.859375" fill="#100730"/>
<path d="M4.91248 16.3276H7.6781" stroke="#100730" stroke-width="1.71875" stroke-miterlimit="10" stroke-linecap="round" stroke-linejoin="round"/>
<path d="M4.91248 21.4209H7.6781" stroke="#100730" stroke-width="1.71875" stroke-miterlimit="10" stroke-linecap="round" stroke-linejoin="round"/>
<path d="M4.91248 26.514H7.6781" stroke="#100730" stroke-width="1.71875" stroke-miterlimit="10" stroke-linecap="round" stroke-linejoin="round"/>
<path d="M4.91248 31.6073H7.6781" stroke="#100730" stroke-width="1.71875" stroke-miterlimit="10" stroke-linecap="round" stroke-linejoin="round"/>
<path d="M11.7311 10.3326V37.6023" stroke="#100730" stroke-width="1.71875" stroke-miterlimit="10" stroke-linecap="round" stroke-linejoin="round"/>
</svg>
