<svg width="94" height="37" viewBox="0 0 94 37" fill="none" xmlns="http://www.w3.org/2000/svg">
<g clip-path="url(#clip0_181_7419)">
<path d="M44.3935 6.99501C44.5286 6.88364 44.6445 6.87708 44.7409 6.97539C44.8375 7.0736 44.8021 7.21115 44.6348 7.3881C44.3774 7.62396 44.0814 7.78118 43.7469 7.85977C43.4122 7.93185 43.0744 7.97115 42.7334 7.9777C41.7039 8.00393 40.8481 7.69269 40.166 7.04412C39.484 6.38903 39.1429 5.5013 39.1429 4.38106C39.1429 3.25425 39.5708 2.28794 40.4266 1.48214C41.2824 0.676339 42.4438 0.273438 43.911 0.273438C44.7989 0.293091 45.5453 0.519109 46.1501 0.95149C46.7551 1.38387 47.2277 1.89487 47.5689 2.48448C47.6138 2.5762 47.6816 2.59585 47.7718 2.54344L51.9507 0.332398C52.1372 0.247232 52.2723 0.260334 52.356 0.371706C52.4397 0.476525 52.4172 0.581343 52.2887 0.686165C51.832 1.02028 51.7708 1.48541 52.1054 2.08157C52.4462 2.67119 52.9997 3.28045 53.7653 3.90937C55.2901 5.19341 56.0109 6.50036 55.9273 7.83024C55.8501 9.16017 55.3771 10.4344 54.5086 11.6529C53.5176 13.0222 52.5397 13.9295 51.5744 14.375C50.6092 14.827 49.4607 14.6763 48.1289 13.9229C48.077 13.8902 48.0256 13.8869 47.9742 13.9131C47.9293 13.9393 47.9036 13.9786 47.8971 14.031C47.8008 14.8565 47.6334 15.5476 47.395 16.1045C47.1636 16.6613 46.8065 17.1723 46.3239 17.6375C46.2338 17.7227 46.1501 17.7358 46.0729 17.6768C45.9957 17.6178 45.9892 17.5326 46.0536 17.4213C46.549 16.3665 46.7131 14.9548 46.5458 13.186C46.5458 13.1269 46.5136 13.0843 46.4493 13.0582C45.1624 12.5472 44.2005 12.6062 43.5635 13.235C43.4541 13.3464 43.3479 13.3661 43.2449 13.294C43.1485 13.2154 43.1452 13.1139 43.2353 12.9894C44.2391 11.6595 45.2171 10.9552 46.1694 10.8766C46.2209 10.87 46.2563 10.8537 46.2756 10.8274C46.3013 10.8013 46.3142 10.7587 46.3142 10.6997C46.2369 9.8546 46.1565 9.01281 46.0729 8.17422C45.9957 7.32913 45.9185 6.48399 45.8413 5.6389C45.7448 4.68242 45.4262 3.85697 44.8858 3.16253C44.3452 2.46155 43.6728 2.1045 42.8685 2.0914C42.0063 2.04554 41.2792 2.26173 40.6872 2.73997C40.0953 3.21167 39.7992 3.87662 39.7992 4.73483C39.7992 5.59305 40.0696 6.2711 40.61 6.76901C41.157 7.26686 41.8841 7.51584 42.7913 7.51584C43.4412 7.52895 43.9753 7.35531 44.3935 6.99501ZM47.8971 3.20184C48.0064 3.50319 48.0803 3.80456 48.1191 4.10591C48.164 4.40726 48.193 4.69225 48.206 4.96085C48.2444 6.35625 48.235 7.53877 48.1771 8.50835C48.1256 9.47793 48.0901 10.3656 48.071 11.1714C48.071 11.25 48.0999 11.2992 48.1574 11.3188C48.473 11.4629 48.817 11.6463 49.1905 11.8691C50.4965 12.6356 51.5324 12.9402 52.2985 12.7831C53.0703 12.6258 53.6882 12.1738 54.1514 11.4269C55.1681 9.78912 54.5343 8.03007 52.2499 6.14992C51.4716 5.52097 50.8153 4.91499 50.281 4.33193C49.7533 3.74887 49.4705 3.13633 49.4317 2.49431C49.4317 2.41569 49.406 2.36656 49.3546 2.3469C49.3031 2.32725 49.2517 2.33053 49.1998 2.35673L47.9742 3.0053C47.8844 3.05116 47.8583 3.11668 47.8971 3.20184ZM61.6216 12.9894C61.2935 13.2449 60.9336 13.5266 60.5409 13.8345C60.1483 14.1359 59.7846 14.4142 59.4504 14.6698C59.3344 14.7615 59.241 14.8008 59.1704 14.7877C59.1059 14.7746 59.0802 14.7156 59.0932 14.6108C59.0932 14.4732 58.8936 14.2112 58.4949 13.8246C57.446 12.8223 56.9407 11.5186 56.9795 9.91356C57.0178 8.53783 57.6451 7.37498 58.8614 6.42503C59.2344 6.1368 59.5822 5.83217 59.9038 5.51116C60.2319 5.19015 60.5217 4.80032 60.7723 4.34176C60.8756 4.13866 61.0168 4.13211 61.1972 4.3221C62.1751 5.44889 63.153 6.11388 64.1313 6.31696C64.4403 6.37592 64.4721 6.50036 64.2276 6.69037C63.9252 6.91312 63.7611 7.18828 63.7354 7.51584V7.53546L63.7644 12.0263C63.7644 12.3277 63.8705 12.5341 64.0832 12.6454C64.302 12.7568 64.5366 12.6716 64.7881 12.39C64.8844 12.2785 64.9741 12.2524 65.0578 12.3113C65.148 12.3637 65.1513 12.462 65.0672 12.6062C64.8358 12.9599 64.6105 13.3071 64.3922 13.6478C64.1795 13.9885 63.9995 14.3422 63.8513 14.7091L63.8415 14.7189C63.7518 14.8696 63.6424 14.8696 63.5134 14.7189C63.4428 14.6403 63.3591 14.5879 63.2628 14.5617C62.5289 14.3979 62.0657 13.9033 61.8727 13.0778C61.86 13.0385 61.8278 12.9992 61.7764 12.9599C61.7184 12.9533 61.667 12.9632 61.6216 12.9894ZM61.7282 7.20139C61.329 7.08997 60.8625 6.77556 60.3287 6.25799C60.0711 5.94354 59.8655 5.91406 59.7107 6.16954C59.0287 7.2046 58.7618 8.34782 58.9095 9.59916C59.1157 11.3876 59.7332 12.4915 60.763 12.9108C60.7695 12.9108 60.7756 12.9141 60.7821 12.9206C61.0458 13.0058 61.3645 12.8452 61.7376 12.4391C61.7633 12.3998 61.7764 12.3637 61.7764 12.331C61.7698 12.2327 61.7665 12.0788 61.7665 11.8691L61.8535 7.35861C61.8535 7.27998 61.8114 7.22762 61.7282 7.20139ZM69.4298 10.8274C69.4237 11.8822 69.6168 12.4915 70.009 12.6553C70.0543 12.688 70.0763 12.7339 70.0763 12.7929C70.0763 12.8452 70.0543 12.8846 70.009 12.9108C69.4298 13.3562 68.9605 13.9492 68.6006 14.6894C68.5613 14.7418 68.5131 14.7681 68.4552 14.7681C68.3977 14.7681 68.3491 14.7418 68.3103 14.6894C67.9499 13.9492 67.4609 13.3595 66.8434 12.9206C66.8046 12.8944 66.7855 12.8518 66.7855 12.7929C66.7855 12.7339 66.8079 12.688 66.8533 12.6553C67.2716 12.4915 67.4806 11.8822 67.4806 10.8274V7.56499C67.4806 6.89675 67.3581 6.48729 67.1132 6.33663C66.8303 6.14662 66.599 6.21539 66.419 6.54296C66.3484 6.68051 66.2671 6.7133 66.1773 6.64122C66.0876 6.56919 66.0904 6.45451 66.1867 6.29729C66.3737 5.99595 66.5504 5.68805 66.7182 5.37356C66.8916 5.05911 67.0687 4.74465 67.2487 4.43019C67.352 4.24021 67.4965 4.2009 67.6834 4.31227L67.6928 4.3221C68.6384 4.80688 69.205 5.39978 69.3915 6.10076C69.4046 6.17284 69.4363 6.21539 69.4878 6.22851C69.5396 6.24162 69.5911 6.22851 69.642 6.18921C69.9963 5.88783 70.3595 5.57012 70.733 5.236C71.106 4.90188 71.3608 4.59398 71.4959 4.31227C71.5665 4.14194 71.6819 4.14522 71.8427 4.3221C72.2293 4.73483 72.5575 5.06241 72.8272 5.30478C73.1039 5.5472 73.5709 5.72735 74.2267 5.84528C74.3431 5.87146 74.401 5.92387 74.401 6.0025C74.4071 6.07454 74.3683 6.12369 74.2847 6.14992C74.1178 6.21539 73.9701 6.33007 73.8411 6.49385C73.7125 6.65103 73.648 6.91637 73.648 7.28979V11.4466C73.648 12.1148 73.7705 12.5243 74.0145 12.6749C74.2977 12.8518 74.5258 12.7798 74.6997 12.4587C74.7708 12.3343 74.8512 12.308 74.9409 12.3801C75.0377 12.4457 75.0377 12.557 74.9409 12.7142C74.7484 13.0222 74.5647 13.3333 74.3912 13.6478C74.2239 13.9557 74.0533 14.2637 73.8794 14.5715C73.7639 14.755 73.619 14.7975 73.4451 14.6992C72.2742 14.1227 71.6885 13.2678 71.6885 12.1344L71.6978 7.10308C71.6978 6.90656 71.6502 6.77882 71.5534 6.71985H71.5436V6.70018L70.7237 6.01232C70.6531 5.95991 70.5788 5.95665 70.5012 6.0025L69.4976 6.79849C69.4527 6.83118 69.4298 6.87052 69.4298 6.91637V10.8274ZM78.0298 0.686165C77.5217 0.830295 77.2735 1.13492 77.287 1.60007C77.2931 1.89487 77.4572 2.17002 77.7793 2.42552C78.1069 2.67446 78.4902 2.84152 78.9273 2.92669C78.9338 2.92669 78.9404 2.92996 78.9465 2.93652C80.2978 3.44751 81.4725 4.11574 82.4696 4.94117C83.4732 5.76664 84.0425 6.96553 84.1776 8.53783V8.56731C84.0425 9.74653 83.7625 10.7292 83.3381 11.5153C82.9132 12.3015 82.4116 12.9009 81.8324 13.3137L81.8231 13.3333C81.5524 13.5692 81.2336 13.7788 80.8672 13.9623C80.5007 14.1457 80.1754 14.3357 79.8921 14.5322C79.7126 14.6566 79.5962 14.6566 79.5452 14.5322C79.1844 13.6609 78.1906 12.9959 76.5625 12.5373C76.4662 12.5177 76.4148 12.4686 76.4082 12.39C76.4017 12.3113 76.4377 12.2556 76.5148 12.2229C76.9196 12.0657 77.1225 11.63 77.1225 10.9159L77.1033 6.82793C77.1033 6.59867 77.2057 6.49055 77.4118 6.50366C78.055 6.58886 78.6992 6.36606 79.3424 5.83542C79.3807 5.80924 79.3999 5.76009 79.3999 5.68805C79.3873 5.63565 79.3555 5.5963 79.3036 5.57012C79.0596 5.46531 78.8146 5.36374 78.5706 5.26548C78.3257 5.16067 78.0878 5.04929 77.8564 4.93136C77.2576 4.65622 76.8135 4.29917 76.5242 3.86024C76.2414 3.4213 76.0736 2.98565 76.0226 2.55327V2.50413C76.1829 1.25285 76.8009 0.55514 77.8755 0.411013C78.0424 0.384808 78.1331 0.417565 78.1457 0.509282C78.1649 0.601 78.1261 0.65996 78.0298 0.686165ZM79.9122 5.84528C79.8538 5.81905 79.7991 5.82561 79.7477 5.8649L79.2942 6.22851C79.1652 6.32677 79.1007 6.4447 79.1007 6.58225L79.14 11.4367C79.14 11.535 79.1783 11.6037 79.2554 11.6431L81.3402 12.8911C81.5076 12.9959 81.6623 12.9566 81.8039 12.7732C82.3826 11.9412 82.6047 10.8373 82.4696 9.46151C82.3406 8.07922 81.7843 7.03435 80.7994 6.32677C80.6199 6.20233 80.324 6.0418 79.9122 5.84528ZM89.6696 12.9894C89.3414 13.2449 88.981 13.5266 88.5889 13.8345C88.1962 14.1359 87.8325 14.4142 87.4978 14.6698C87.3824 14.7615 87.2889 14.8008 87.2178 14.7877C87.1538 14.7746 87.1281 14.7156 87.1407 14.6108C87.1407 14.4732 86.9411 14.2112 86.5429 13.8246C85.4939 12.8223 84.9891 11.5186 85.0269 9.91356C85.0662 8.53783 85.6935 7.37498 86.9093 6.42503C87.2824 6.1368 87.6301 5.83217 87.9522 5.51116C88.2799 5.19015 88.5692 4.80032 88.8202 4.34176C88.9231 4.13866 89.0647 4.13211 89.2451 4.3221C90.223 5.44889 91.2014 6.11388 92.1793 6.31696C92.4883 6.37592 92.52 6.50036 92.2756 6.69037C91.9736 6.91312 91.8091 7.18828 91.7834 7.51584V7.53546L91.8123 12.0263C91.8123 12.3277 91.9189 12.5341 92.1311 12.6454C92.3499 12.7568 92.5846 12.6716 92.8356 12.39C92.9319 12.2785 93.0216 12.2524 93.1062 12.3113C93.196 12.3637 93.1992 12.462 93.1156 12.6062C92.8832 12.9599 92.6584 13.3071 92.4396 13.6478C92.2274 13.9885 92.0475 14.3422 91.8997 14.7091L91.8895 14.7189C91.7992 14.8696 91.6903 14.8696 91.5618 14.7189C91.4907 14.6403 91.4075 14.5879 91.3103 14.5617C90.5774 14.3979 90.1137 13.9033 89.9211 13.0778C89.9075 13.0385 89.8757 12.9992 89.8238 12.9599C89.7659 12.9533 89.7149 12.9632 89.6696 12.9894ZM89.7757 7.20139C89.377 7.08997 88.9105 6.77556 88.3766 6.25799C88.1191 5.94354 87.9129 5.91406 87.7587 6.16954C87.0767 7.2046 86.8093 8.34782 86.958 9.59916C87.1632 11.3876 87.7811 12.4915 88.8109 12.9108C88.8174 12.9108 88.8235 12.9141 88.8301 12.9206C89.0942 13.0058 89.412 12.8452 89.786 12.4391C89.8112 12.3998 89.8238 12.3637 89.8238 12.331C89.8178 12.2327 89.8145 12.0788 89.8145 11.8691L89.9014 7.35861C89.9014 7.27998 89.8598 7.22762 89.7757 7.20139ZM44.2873 29.0661C44.3002 28.6992 44.2133 28.4732 44.0267 28.3881C43.8466 28.2963 43.4605 28.3193 42.8685 28.4568C41.9548 28.6796 41.1377 28.4732 40.417 27.8378C39.6963 27.2023 39.336 26.2557 39.336 24.9978C39.3424 23.7465 39.7896 22.6655 40.6776 21.7549C41.5656 20.8443 42.6273 20.389 43.8627 20.389C44.4224 20.389 45.0305 20.5298 45.6868 20.8116C46.3431 21.0933 46.9028 21.5125 47.3661 22.0694C47.4049 22.1218 47.4469 22.1447 47.4918 22.1382C47.5367 22.1316 47.5755 22.1021 47.6077 22.0498C47.8905 21.5781 48.2542 21.1817 48.6983 20.8607C49.1484 20.5397 49.7439 20.389 50.4839 20.4087C51.4426 20.4545 52.3013 21.0573 53.0609 22.2168C53.0992 22.2757 53.1474 22.3052 53.2053 22.3052C53.2633 22.3052 53.3086 22.2725 53.3409 22.207C53.6111 21.696 53.9518 21.2767 54.3637 20.9492C54.7755 20.6216 55.2901 20.4578 55.9081 20.4578C56.6995 20.4709 57.3525 20.7165 57.8671 21.1948C58.3823 21.673 58.7553 22.4756 58.9867 23.6024C59.1283 24.382 59.4247 24.7947 59.8748 24.8406C60.0034 24.8471 60.0711 24.9028 60.0777 25.0076C60.0903 25.1124 60.0132 25.1911 59.8458 25.2435C58.5978 25.6758 57.7386 26.3703 57.2688 27.3268C56.799 28.2767 56.8187 29.4887 57.3268 30.9627C57.5521 31.6309 57.8737 32.1026 58.292 32.3778C58.7165 32.6464 59.1802 32.6235 59.6818 32.309C59.8683 32.1976 60.0066 32.2009 60.0968 32.3188C60.1931 32.4302 60.1772 32.5415 60.0487 32.6529C59.6112 33.0067 59.1769 33.3604 58.7455 33.7142C58.321 34.0615 57.8929 34.4086 57.4619 34.7559C57.3913 34.8083 57.3235 34.8083 57.2595 34.7559C55.8885 33.6356 55.062 32.3909 54.7788 31.0217C54.502 29.6525 55.3902 28.031 57.4427 26.1574C57.4876 26.1115 57.5072 26.0656 57.5007 26.0198C57.5007 25.9739 57.4717 25.9346 57.4137 25.9019C56.9631 25.594 56.6317 24.8045 56.4195 23.5336C56.1942 22.2757 55.6926 21.6403 54.9138 21.6272C54.3604 21.6141 53.8906 22.0268 53.505 22.8653C53.4788 22.9112 53.4788 22.9571 53.505 23.0029C53.7555 23.5467 53.936 24.1527 54.0453 24.8209C54.1613 25.4891 54.1673 26.1967 54.0645 26.9435C53.8069 28.7516 53.4241 30.1176 52.916 31.0413C52.414 31.9585 51.8156 32.8757 51.1205 33.7929C50.2006 34.9655 49.3321 35.0932 48.515 34.1761C48.2832 33.914 48.0387 33.7437 47.7811 33.6651C47.5301 33.5865 47.2408 33.6782 46.9126 33.9402C46.7902 34.0451 46.6842 34.0581 46.5941 33.9796C46.5104 33.8944 46.5169 33.7896 46.6134 33.6651C47.4371 32.499 48.0901 31.834 48.5725 31.6702C49.0615 31.5064 49.5378 31.6441 50.001 32.083C50.3806 32.4433 50.7284 32.6366 51.0434 32.6627C51.3655 32.6889 51.616 32.4466 51.7965 31.9355C52.1438 30.9528 52.2663 29.5804 52.1629 27.8181C52.0667 26.0492 51.7161 24.6932 51.1112 23.7498C50.5129 22.8064 49.9403 22.2529 49.3929 22.089C48.8525 21.9187 48.3603 22.0629 47.9162 22.5214C47.8522 22.587 47.8489 22.6557 47.9069 22.7278C48.6726 23.8087 49.0844 25.0601 49.1423 26.4816C49.1807 27.6478 48.9586 28.768 48.4762 29.8425C47.9934 30.9103 47.3726 31.9355 46.6134 32.9182C45.7833 33.9926 44.9951 34.6085 44.2487 34.7657C43.5088 34.9229 42.8299 34.5396 42.2122 33.616C41.6718 32.7905 41.1216 32.6889 40.5617 33.3113C40.4266 33.4292 40.3044 33.4325 40.195 33.3211C40.092 33.2098 40.1081 33.0821 40.2433 32.9379C41.9999 31.1166 43.3801 30.8775 44.3839 32.2206C44.5448 32.4433 44.6959 32.6497 44.8375 32.8396C44.9855 33.0296 45.2042 33.1181 45.4938 33.1049C45.867 33.0918 46.2595 32.6758 46.6713 31.8569C47.0833 31.038 47.2889 30.0062 47.2889 28.7615C47.2763 27.1302 46.8579 25.702 46.0343 24.4769C45.2107 23.2454 44.268 22.5706 43.2063 22.4527C42.1447 22.3413 41.3081 22.5444 40.6969 23.062C40.0856 23.5795 39.7896 24.192 39.809 24.8995C39.8282 25.6202 40.0148 26.1967 40.3687 26.6291C40.7291 27.0614 41.3918 27.1499 42.357 26.8944C44.2166 26.4096 45.024 27.1073 44.7796 28.9875C44.7538 29.184 44.6637 29.2855 44.5094 29.2921C44.3613 29.2921 44.2873 29.2168 44.2873 29.0661ZM63.9962 34.7755C63.9832 34.6183 63.8995 34.5003 63.7452 34.4218C63.597 34.3431 63.4718 34.2645 63.3689 34.1859C62.629 33.6749 62.1045 33.0526 61.7955 32.3188C61.4931 31.5785 61.3225 30.7957 61.2841 29.9702C61.207 28.1031 61.702 26.6814 62.7701 25.7053C63.1502 25.3581 63.5877 25.0764 64.0832 24.8603C64.5787 24.6375 65.0868 24.4574 65.608 24.3198C65.7688 24.287 65.888 24.3689 65.9651 24.5654L67.3548 27.8869C67.4193 28.0637 67.3964 28.1751 67.2875 28.221H67.2683L63.311 29.7835C63.2338 29.8228 63.2016 29.885 63.2142 29.9702C63.5297 31.4246 64.0575 32.3581 64.7974 32.7708C65.5369 33.177 66.2741 33.236 67.0075 32.9477C67.1365 32.8888 67.2165 32.8986 67.2487 32.9772C67.2875 33.0558 67.2651 33.1148 67.1809 33.1541C66.6602 33.4227 66.1614 33.6978 65.6851 33.9796C65.2158 34.2613 64.7942 34.5561 64.4207 34.864C64.3627 34.9032 64.2762 34.9164 64.1603 34.9032C64.0509 34.8901 63.9962 34.8476 63.9962 34.7755ZM63.0988 29.2234C63.1048 29.2757 63.1277 29.3183 63.1661 29.3511C63.2049 29.3773 63.253 29.3773 63.311 29.3511L65.3668 28.5649C65.4631 28.5256 65.4921 28.4568 65.4537 28.3586L64.2762 25.4204C64.2183 25.2763 64.1024 25.2566 63.9285 25.3614C63.5554 25.5842 63.3012 26.0918 63.1661 26.8845C63.031 27.6773 63.0085 28.4569 63.0988 29.2234ZM70.3666 20.8116C69.858 20.9557 69.6102 21.2603 69.6233 21.7255C69.6294 22.0203 69.7935 22.2954 70.1155 22.5509C70.4437 22.7999 70.8265 22.9669 71.2636 23.052C71.2701 23.052 71.2767 23.0554 71.2837 23.062C72.6346 23.5729 73.8083 24.2412 74.8059 25.0666C75.8099 25.892 76.3797 27.0909 76.5148 28.6632V28.6927C76.3797 29.8719 76.0997 30.8546 75.6748 31.6408C75.2504 32.4269 74.7484 33.0264 74.1687 33.4391L74.1594 33.4587C73.8887 33.6945 73.5709 33.9042 73.2039 34.0877C72.8374 34.2711 72.5121 34.4611 72.2293 34.6576C72.0489 34.7821 71.9334 34.7821 71.8815 34.6576C71.5211 33.7863 70.5273 33.1213 68.8992 32.6627C68.8025 32.6431 68.7515 32.594 68.745 32.5153C68.738 32.4367 68.774 32.381 68.8511 32.3483C69.2564 32.1911 69.4592 31.7554 69.4592 31.0413L69.4396 26.9533C69.4396 26.724 69.5429 26.616 69.7486 26.6291C70.3923 26.7142 71.0355 26.4915 71.6787 25.9608C71.7179 25.9346 71.7371 25.8855 71.7371 25.8134C71.724 25.761 71.6917 25.7217 71.6408 25.6955C71.3959 25.5907 71.1514 25.4891 70.9064 25.3909C70.6624 25.286 70.424 25.1747 70.1927 25.0567C69.5943 24.7816 69.1498 24.4246 68.8605 23.9856C68.5772 23.5467 68.4103 23.111 68.3589 22.6786V22.6295C68.5192 21.3782 69.1372 20.6805 70.2118 20.5364C70.3792 20.5102 70.4694 20.5429 70.482 20.6347C70.5012 20.7264 70.4628 20.7854 70.3666 20.8116ZM72.2485 25.9706C72.19 25.9445 72.1358 25.951 72.0844 25.9903L71.6305 26.3539C71.5024 26.4521 71.4379 26.5701 71.4379 26.7077L71.4763 31.5621C71.4763 31.6604 71.5151 31.7292 71.5922 31.7685L73.6765 33.0165C73.8443 33.1213 73.9986 33.0821 74.1402 32.8986C74.7189 32.0665 74.9409 30.9627 74.8059 29.5869C74.6778 28.2046 74.121 27.1597 73.1366 26.4521C72.9562 26.3277 72.6603 26.1672 72.2485 25.9706ZM78.4449 32.1911L78.3771 26.8059C78.3771 26.6814 78.3579 26.5799 78.3191 26.5013C78.1649 26.2458 78.0331 26.1836 77.9237 26.3146L77.5376 26.7175C77.4347 26.8355 77.3347 26.8485 77.2384 26.7568C77.1487 26.6651 77.1646 26.5373 77.287 26.3735C77.5698 26.0132 77.8237 25.6529 78.049 25.2926C78.2747 24.9323 78.5061 24.5752 78.7441 24.2215C78.8474 24.097 78.9656 24.1003 79.1007 24.2313C79.3714 24.5654 79.6355 24.8603 79.8921 25.1157C80.1497 25.3647 80.5166 25.63 80.9929 25.9117C81.128 25.9641 81.186 26.0264 81.1668 26.0984C81.1537 26.1705 81.1121 26.2098 81.0411 26.2163C80.8737 26.2819 80.7255 26.3965 80.597 26.5603C80.4684 26.7175 80.4044 26.9828 80.4044 27.3562V31.513C80.4044 32.1812 80.5259 32.5907 80.7709 32.7413C81.0542 32.9117 81.2855 32.8396 81.466 32.5251C81.5305 32.4007 81.6076 32.3745 81.6973 32.4466C81.7936 32.512 81.7936 32.6235 81.6973 32.7807C81.5043 33.0886 81.3243 33.3998 81.1565 33.7142C80.9896 34.0221 80.8195 34.33 80.6451 34.6379C80.5227 34.8214 80.3717 34.8607 80.1917 34.7559C79.613 34.4741 79.175 34.1302 78.8791 33.724C78.5893 33.3178 78.4449 32.8069 78.4449 32.1911ZM79.8444 20.5266C80.5587 20.5266 80.884 20.8771 80.8195 21.5781C80.7807 21.9318 80.5619 22.2888 80.1627 22.6491C79.7706 23.0029 79.4578 23.1766 79.2265 23.17C78.9951 23.17 78.8179 22.9833 78.6959 22.6099C78.5734 22.2365 78.5253 21.8925 78.5505 21.5781C78.5706 21.2767 78.7118 21.0278 78.9754 20.8312C79.2456 20.6281 79.535 20.5266 79.8444 20.5266ZM87.4114 33.1148C87.0828 33.3703 86.7228 33.652 86.3306 33.9599C85.9375 34.2613 85.5743 34.5396 85.2396 34.7952C85.1242 34.8869 85.0302 34.9262 84.9596 34.9131C84.8951 34.9 84.8694 34.841 84.8825 34.7362C84.8825 34.5987 84.6829 34.3366 84.2842 33.95C83.2352 32.9477 82.7304 31.6441 82.7687 30.039C82.8075 28.6632 83.4348 27.5003 84.6511 26.5504C85.0241 26.2622 85.3715 25.9575 85.6935 25.6366C86.0212 25.3155 86.3105 24.9257 86.562 24.4671C86.6644 24.2641 86.806 24.2575 86.9865 24.4475C87.9648 25.5743 88.9427 26.2393 89.9211 26.4424C90.2296 26.5013 90.2614 26.6258 90.0174 26.8158C89.7149 27.0385 89.5504 27.3136 89.5251 27.6413V27.6608L89.5537 32.1517C89.5537 32.4531 89.6602 32.6595 89.8725 32.7708C90.0912 32.8822 90.3259 32.797 90.5769 32.5153C90.6732 32.404 90.7634 32.3778 90.8475 32.4367C90.9373 32.4891 90.9406 32.5874 90.8569 32.7315C90.625 33.0853 90.3997 33.4325 90.181 33.7732C89.9687 34.1138 89.7888 34.4676 89.6411 34.8345L89.6308 34.8443C89.541 34.995 89.4321 34.995 89.3031 34.8443C89.2325 34.7657 89.1489 34.7133 89.0521 34.6871C88.3187 34.5233 87.855 34.0287 87.6624 33.2032C87.6493 33.1639 87.617 33.1246 87.5656 33.0853C87.5077 33.0787 87.4567 33.0886 87.4114 33.1148ZM87.517 27.3268C87.1188 27.2154 86.6518 26.9009 86.118 26.3834C85.8604 26.069 85.6547 26.0395 85.5005 26.2949C84.818 27.33 84.5506 28.4732 84.6993 29.7245C84.9045 31.513 85.5224 32.6169 86.5522 33.0362C86.5588 33.0362 86.5653 33.0395 86.5714 33.046C86.8355 33.1312 87.1538 32.9706 87.5273 32.5645C87.553 32.5251 87.5656 32.4891 87.5656 32.4564C87.5591 32.3581 87.5558 32.2042 87.5558 31.9945L87.6428 27.484C87.6428 27.4054 87.6012 27.353 87.517 27.3268Z" fill="white"/>
<mask id="mask0_181_7419" style="mask-type:luminance" maskUnits="userSpaceOnUse" x="0" y="0" width="35" height="37">
<path d="M34.2168 0.522461H0.000244141V36.5355H34.2168V0.522461Z" fill="white"/>
</mask>
<g mask="url(#mask0_181_7419)">
<path d="M34.2168 5.79712L33.0949 2.30579L30.1529 0.522461L25.4315 3.59619L22.4896 2.30579L17.3017 1.53448L17.0018 1.48948L16.9921 1.49053L11.8449 2.45754L8.90399 3.74795L3.90931 0.636537L1.2385 2.41987L0.000244141 5.83479L0.155027 9.819L2.51626 13.236L0.387734 18.6237L2.32305 27.2368L16.9153 36.5344L31.4307 27.1981L33.366 18.585L31.2375 13.1962L33.5987 9.77923L34.2168 5.79712ZM19.7409 32.7407L17.3028 33.2336L14.9031 32.8537L12.5419 30.4634L14.1677 31.1447L16.2962 31.0327L17.3028 30.4257L18.3479 30.9186L20.4785 31.0327L22.1042 30.3493L19.7409 32.7407ZM20.4774 30.388L17.5344 29.7946V28.9961L20.5916 28.2991L21.5994 26.2122L20.5916 27.1228L19.4697 26.904L17.3028 26.9333H15.1743L14.0524 27.2368L13.0458 26.3263L14.0524 28.4132L17.1096 29.0202V29.8166L14.1677 30.501L12.5419 30.3116L11.2257 27.3122L11.1093 25.2254L13.2379 21.0894L15.0568 20.1024L17.4181 19.799L19.5466 20.1024L21.4819 21.013L23.651 25.1113L23.5347 27.1981L22.2185 30.1954L20.4774 30.388ZM32.591 18.8895L30.4625 26.5922L24.347 30.1965L22.528 30.8046L23.8442 27.3122V24.9218H26.2823L28.1013 23.328L28.2176 19.8366L27.0957 18.7367L24.6576 15.4359L21.91 16.4228L21.483 16.6122L21.1734 20.2929L19.3545 19.6859L17.226 19.4965L14.8647 19.6859L13.1226 20.2929L12.813 16.4981L12.3871 16.3087L9.63947 15.3218L7.20138 18.6226L6.07947 19.8366L6.19582 23.328L8.01478 24.9218H10.4529V27.3122L11.769 30.8046L9.95008 30.1965L3.83351 26.5922L1.70499 18.8895L3.64137 13.8053L9.4473 4.62077L12.1181 3.21629L16.9943 2.1823L22.3391 3.1535L24.853 4.62077L30.6589 13.8053L32.591 18.8895Z" fill="white"/>
</g>
</g>
<defs>
<clipPath id="clip0_181_7419">
<rect width="93.9559" height="36.7371" fill="white" transform="translate(0 0.0908203)"/>
</clipPath>
</defs>
</svg>
