<svg width="136" height="30" viewBox="0 0 136 30" fill="none" xmlns="http://www.w3.org/2000/svg">
<path d="M14.3963 15.2735C14.3839 15.0299 14.3589 14.78 14.3276 14.527C14.3151 14.4458 14.3058 14.3708 14.2933 14.2896C13.8123 14.2053 13.3281 14.0678 12.8565 13.8429C12.8783 13.9741 12.9002 14.0991 12.9221 14.2271C12.9596 14.4708 12.9939 14.7081 13.0189 14.9424C13.0314 15.0392 13.0376 15.1361 13.0408 15.2266C13.4968 15.3203 13.9434 15.4203 14.3745 15.5265C14.3807 15.489 14.3932 15.4484 14.4057 15.4078C14.4057 15.3641 14.4026 15.3203 14.3995 15.2735H14.3963Z" fill="#FF57C6"/>
<path d="M14.8369 18.0626C14.8213 18.1438 14.8088 18.2282 14.7932 18.3094C14.8369 18.2375 14.8713 18.1595 14.9088 18.0876C14.8869 18.0814 14.8619 18.072 14.8369 18.0658V18.0626ZM12.7661 2.03298C12.8816 1.99863 13.0003 1.96427 13.1221 1.93303C13.0003 1.96114 12.8785 1.9955 12.7661 2.03298ZM5.28848 14.6299C5.34158 14.6174 5.40093 14.6112 5.45715 14.6081C5.40093 14.6112 5.34471 14.6206 5.28848 14.6299ZM5.28848 14.6299C5.34158 14.6174 5.40093 14.6112 5.45715 14.6081C5.40093 14.6112 5.34471 14.6206 5.28848 14.6299ZM5.28848 14.6299C5.34158 14.6174 5.40093 14.6112 5.45715 14.6081C5.40093 14.6112 5.34471 14.6206 5.28848 14.6299Z" fill="#9F72FF"/>
<path d="M28.8839 8.56874C28.6997 8.86547 28.4841 9.14971 28.2343 9.41832C27.9063 9.11222 27.5627 8.83424 27.1879 8.58436C27.4003 8.35322 27.5846 8.11584 27.7376 7.86596C28.2218 7.07885 28.3436 6.26987 28.1062 5.39842C27.6002 3.53058 24.8765 3.0277 20.3475 2.7872C19.6135 2.74972 18.9169 2.73097 18.261 2.73097C16.5119 2.73097 15.0376 2.86841 13.8538 3.14327C13.5196 3.22448 13.2072 3.31194 12.9199 3.40877C12.8824 3.33068 12.8418 3.25884 12.8043 3.187C12.77 3.11516 12.7262 3.04957 12.6825 2.98085C12.5013 2.69974 12.2983 2.46236 12.1047 2.2687C12.1078 2.26558 12.5419 2.10316 12.7668 2.03444C12.8824 2.00008 13.0011 1.96572 13.1229 1.93449C13.3697 1.86577 13.6258 1.8033 13.8944 1.75021C14.1943 1.68774 14.5066 1.63464 14.8377 1.58778C15.0595 1.55655 15.2875 1.53156 15.5249 1.50657C15.756 1.48471 15.9934 1.46285 16.237 1.44411C16.8492 1.40038 17.5051 1.38164 18.2017 1.38164C18.8982 1.38164 19.6353 1.4035 20.4193 1.44411C24.864 1.67837 28.6091 2.11253 29.4056 5.04547C29.7398 6.27924 29.5617 7.46616 28.8839 8.57186V8.56874Z" fill="#10E6D9"/>
<path d="M25.5103 8.74927C25.5103 8.74927 25.5103 8.75239 25.5072 8.75239C25.629 8.80549 25.754 8.86484 25.8726 8.92106C25.754 8.85859 25.6353 8.80549 25.5103 8.74927ZM25.5103 8.74927C25.5103 8.74927 25.5103 8.75239 25.5072 8.75239C25.629 8.80549 25.754 8.86484 25.8726 8.92106C25.754 8.85859 25.6353 8.80549 25.5103 8.74927ZM25.5103 8.74927C25.5103 8.74927 25.5103 8.75239 25.5072 8.75239C25.629 8.80549 25.754 8.86484 25.8726 8.92106C25.754 8.85859 25.6353 8.80549 25.5103 8.74927Z" fill="#9F72FF"/>
<path d="M17.1517 14.2364C17.0361 14.5675 16.8238 15.2859 16.8238 15.2859C16.8238 15.2859 16.6551 15.9074 16.5801 16.2229C16.1959 16.0699 15.7868 15.9293 15.3651 15.8012C15.3432 15.795 15.3182 15.7888 15.2995 15.7825C15.3182 15.7044 15.337 15.6263 15.362 15.5482C15.3776 15.4827 15.3932 15.4139 15.4119 15.3483C15.4557 15.1828 15.4994 15.0173 15.5494 14.8517C15.5931 14.6955 15.6368 14.5362 15.6868 14.3832C16.2084 14.3707 16.7051 14.3114 17.1486 14.2364H17.1517Z" fill="#9F72FF"/>
<path d="M14.0033 26.3702C12.6353 26.8075 11.4077 27.0324 10.9017 27.1167C9.82101 27.2947 8.88397 27.3791 8.06562 27.3791C7.57836 27.3791 7.12858 27.3478 6.71628 27.2916C6.55074 27.2698 6.39456 27.2416 6.23839 27.2104C6.01038 27.1604 5.79173 27.1042 5.58871 27.0386C5.31697 26.9512 5.06084 26.845 4.82346 26.7232C4.70477 26.6607 4.59232 26.5951 4.47988 26.5295C4.37368 26.4608 4.26436 26.3921 4.16441 26.314C4.06133 26.2359 3.9645 26.1609 3.86768 26.0766C3.77085 25.9954 3.68027 25.911 3.58969 25.8205C3.50223 25.733 3.4179 25.6393 3.33669 25.5425C3.25235 25.4488 3.17114 25.3488 3.09306 25.2457C3.01497 25.1427 2.94001 25.0396 2.86504 24.9303C2.71824 24.7148 2.58081 24.4867 2.4465 24.2494C1.13152 21.9068 0.98159 19.5548 2.04982 17.9493C2.32781 17.5339 2.67763 17.1778 3.0993 16.8873C2.83068 16.5406 2.56831 16.1752 2.31219 15.7879C2.09355 15.9409 1.89052 16.1096 1.69686 16.2908C1.60004 16.3845 1.50946 16.475 1.41888 16.575C1.24084 16.7718 1.07529 16.9779 0.931615 17.2028C-0.420848 19.2393 -0.295909 22.1192 1.2752 24.9115C2.74323 27.5259 4.80472 28.7222 8.07499 28.7222C8.99017 28.7222 9.99593 28.6285 11.1173 28.4442C11.8731 28.3224 13.1975 28.06 14.628 27.5821C14.3938 27.2292 14.1814 26.8293 14.0002 26.3702H14.0033Z" fill="#FFA800"/>
<path d="M20.8547 21.3818C20.8547 23.5744 19.471 25.1143 17.7124 26.1919C17.3907 25.8858 17.1627 25.4922 17.0065 25.0487C18.4215 24.1804 19.5084 22.9872 19.5084 21.3818C19.5084 19.9543 18.79 18.8486 17.1971 17.9865C16.9253 17.8366 16.6255 17.6929 16.2975 17.5586C15.9664 17.4212 15.6041 17.2931 15.2168 17.1713C15.1481 17.1494 15.0825 17.1276 15.0138 17.1057L14.0767 16.8496C13.73 16.7621 13.3646 16.6778 12.9804 16.5966C12.6774 16.5341 12.3651 16.4748 12.0371 16.4154C11.0157 16.2311 9.87878 16.0656 8.62315 15.9219C8.09528 15.8595 7.5924 15.8345 7.11139 15.8345C6.91149 15.8345 6.71471 15.8376 6.52418 15.8501C6.10876 15.8719 5.71208 15.9188 5.34038 15.9969C5.18421 15.8188 5.03741 15.6439 4.90934 15.4784C4.82501 15.3722 4.74692 15.266 4.67821 15.1754C4.6501 15.1379 4.59075 15.0536 4.5314 14.9724C4.50329 14.9349 4.47831 14.8943 4.45956 14.8693C4.44082 14.8412 4.42833 14.8225 4.42833 14.8225C4.6501 14.76 4.88123 14.7069 5.12174 14.66C5.17484 14.6538 5.22794 14.6413 5.28728 14.6319C5.34038 14.6194 5.39973 14.6132 5.45595 14.6101C5.97757 14.5257 6.53355 14.4883 7.11451 14.4883C7.64863 14.4883 8.20148 14.5226 8.77932 14.5882C9.89753 14.7194 11.0001 14.8662 12.0621 15.0505C12.3932 15.1067 12.718 15.166 13.0397 15.2316C13.4958 15.3253 13.9424 15.4253 14.3735 15.5315L15.3043 15.7876C15.323 15.7939 15.348 15.8001 15.3698 15.8064C15.7915 15.9375 16.2007 16.075 16.5849 16.228C16.8972 16.3498 17.1971 16.481 17.4813 16.6216C19.5397 17.6367 20.8578 19.1204 20.8578 21.3849L20.8547 21.3818Z" fill="#FFA800"/>
<path d="M5.59009 27.036C5.79311 27.1047 6.01176 27.1641 6.23977 27.2078C6.01176 27.1578 5.79311 27.1016 5.59009 27.036ZM5.59009 27.036C5.79311 27.1047 6.01176 27.1641 6.23977 27.2078C6.01176 27.1578 5.79311 27.1016 5.59009 27.036ZM5.59009 27.036C5.79311 27.1047 6.01176 27.1641 6.23977 27.2078C6.01176 27.1578 5.79311 27.1016 5.59009 27.036ZM5.59009 27.036C5.79311 27.1047 6.01176 27.1641 6.23977 27.2078C6.01176 27.1578 5.79311 27.1016 5.59009 27.036ZM5.59009 27.036C5.79311 27.1047 6.01176 27.1641 6.23977 27.2078C6.01176 27.1578 5.79311 27.1016 5.59009 27.036ZM5.59009 27.036C5.79311 27.1047 6.01176 27.1641 6.23977 27.2078C6.01176 27.1578 5.79311 27.1016 5.59009 27.036ZM5.59009 27.036C5.79311 27.1047 6.01176 27.1641 6.23977 27.2078C6.01176 27.1578 5.79311 27.1016 5.59009 27.036ZM5.59009 27.036C5.79311 27.1047 6.01176 27.1641 6.23977 27.2078C6.01176 27.1578 5.79311 27.1016 5.59009 27.036ZM5.59009 27.036C5.79311 27.1047 6.01176 27.1641 6.23977 27.2078C6.01176 27.1578 5.79311 27.1016 5.59009 27.036ZM5.59009 27.036C5.79311 27.1047 6.01176 27.1641 6.23977 27.2078C6.01176 27.1578 5.79311 27.1016 5.59009 27.036ZM5.59009 27.036C5.79311 27.1047 6.01176 27.1641 6.23977 27.2078C6.01176 27.1578 5.79311 27.1016 5.59009 27.036ZM5.59009 27.036C5.79311 27.1047 6.01176 27.1641 6.23977 27.2078C6.01176 27.1578 5.79311 27.1016 5.59009 27.036ZM5.59009 27.036C5.79311 27.1047 6.01176 27.1641 6.23977 27.2078C6.01176 27.1578 5.79311 27.1016 5.59009 27.036ZM5.59009 27.036C5.79311 27.1047 6.01176 27.1641 6.23977 27.2078C6.01176 27.1578 5.79311 27.1016 5.59009 27.036ZM5.59009 27.036C5.79311 27.1047 6.01176 27.1641 6.23977 27.2078C6.01176 27.1578 5.79311 27.1016 5.59009 27.036ZM5.59009 27.036C5.79311 27.1047 6.01176 27.1641 6.23977 27.2078C6.01176 27.1578 5.79311 27.1016 5.59009 27.036ZM5.59009 27.036C5.79311 27.1047 6.01176 27.1641 6.23977 27.2078C6.01176 27.1578 5.79311 27.1016 5.59009 27.036ZM5.59009 27.036C5.79311 27.1047 6.01176 27.1641 6.23977 27.2078C6.01176 27.1578 5.79311 27.1016 5.59009 27.036ZM5.59009 27.036C5.79311 27.1047 6.01176 27.1641 6.23977 27.2078C6.01176 27.1578 5.79311 27.1016 5.59009 27.036ZM5.59009 27.036C5.79311 27.1047 6.01176 27.1641 6.23977 27.2078C6.01176 27.1578 5.79311 27.1016 5.59009 27.036ZM5.59009 27.036C5.79311 27.1047 6.01176 27.1641 6.23977 27.2078C6.01176 27.1578 5.79311 27.1016 5.59009 27.036ZM5.59009 27.036C5.79311 27.1047 6.01176 27.1641 6.23977 27.2078C6.01176 27.1578 5.79311 27.1016 5.59009 27.036ZM5.59009 27.036C5.79311 27.1047 6.01176 27.1641 6.23977 27.2078C6.01176 27.1578 5.79311 27.1016 5.59009 27.036ZM5.59009 27.036C5.79311 27.1047 6.01176 27.1641 6.23977 27.2078C6.01176 27.1578 5.79311 27.1016 5.59009 27.036ZM5.59009 27.036C5.79311 27.1047 6.01176 27.1641 6.23977 27.2078C6.01176 27.1578 5.79311 27.1016 5.59009 27.036ZM5.59009 27.036C5.79311 27.1047 6.01176 27.1641 6.23977 27.2078C6.01176 27.1578 5.79311 27.1016 5.59009 27.036Z" fill="#9F72FF"/>
<path d="M13.967 17.8185C13.9389 17.8747 13.8015 18.1059 13.764 18.1652C13.1643 19.046 12.1804 19.5864 10.7561 19.8238C10.4687 19.8738 10.1845 19.8956 9.894 19.8956C8.22919 19.8956 6.55189 19.1085 4.9964 17.5843C4.80274 17.3969 4.60909 17.1813 4.60909 17.1813C4.34047 16.8846 4.12183 16.6254 3.95628 16.413C3.82197 16.2568 3.68454 16.0819 3.54086 15.8913C3.39094 15.6883 2.79748 14.7606 2.63193 14.4795C0.963999 11.6809 -0.213549 8.167 0.14565 5.65573C0.333058 4.3345 1.05458 3.1757 2.22588 2.3105C2.81934 1.87321 3.50963 1.52338 4.26863 1.2735C4.34672 1.24539 4.42168 1.22353 4.49977 1.20166C4.75277 1.12045 5.01514 1.05486 5.28376 0.998639C5.49928 0.951787 5.7148 0.914305 5.93656 0.883071C6.4332 0.811231 6.94232 0.776873 7.46706 0.776873C8.05428 0.776873 8.65398 0.823725 9.25369 0.914305C10.0564 1.04237 10.7155 1.27038 11.2496 1.58585C11.2496 1.58585 11.6556 1.81386 12.1054 2.26677C12.2991 2.46042 12.5021 2.69781 12.6833 2.97892C12.727 3.04764 12.7676 3.11635 12.8051 3.18507C12.8426 3.25691 12.8832 3.33187 12.9206 3.40683C12.9363 3.44119 12.9519 3.47555 12.9675 3.50679C13.0862 3.75979 13.183 4.02528 13.2611 4.30327C13.6422 5.66198 13.5797 7.18311 13.5297 8.41688C13.5016 9.14777 13.4766 9.83806 13.5422 10.3253C13.6078 10.7782 13.6984 11.2624 13.7983 11.7434C13.2361 11.4623 12.6676 10.975 12.171 10.1317C12.1367 9.6038 12.1585 9.00097 12.1866 8.36378C12.2366 7.06754 12.2428 5.89312 12.018 4.91859C11.9399 4.58126 11.8337 4.26579 11.6962 3.98155C11.4089 3.52553 11.109 3.20069 10.7936 2.96018C10.5 2.73216 10.197 2.57599 9.87526 2.44481C9.62538 2.36047 9.35364 2.29176 9.04754 2.2449C8.5103 2.16057 7.97619 2.11684 7.45145 2.11684C6.89859 2.11684 6.35823 2.16369 5.84286 2.25427C5.65858 2.28551 5.47741 2.32299 5.29938 2.36984C4.43417 2.58224 3.65331 2.93207 3.02237 3.39746C2.14467 4.04402 1.61056 4.89048 1.47312 5.84939C1.20138 7.77657 2.15404 11.1624 3.87195 13.9735C4.04999 14.2609 4.23427 14.5451 4.42793 14.82C4.42793 14.82 4.44042 14.8387 4.45916 14.8668C4.4779 14.8981 4.50289 14.9324 4.531 14.9699C4.58722 15.0511 4.64969 15.1355 4.6778 15.1729C4.74652 15.2667 4.82461 15.3697 4.90894 15.4759C5.037 15.6415 5.18068 15.8195 5.33998 15.9944C5.60548 16.2943 5.85848 16.5442 5.93656 16.6222C6.01465 16.7003 6.25828 16.9252 6.30513 16.9689C6.43632 17.0814 6.57375 17.197 6.71743 17.3063C7.14847 17.6405 7.63885 17.9528 8.17609 18.1777C8.35413 18.2558 8.53217 18.3214 8.7227 18.3745C9.09439 18.4807 9.49107 18.5463 9.90025 18.5463C10.1064 18.5463 10.3219 18.5276 10.5374 18.4932C11.5213 18.3308 12.196 17.9997 12.5833 17.4968C13.0612 17.5936 13.4985 17.6936 13.9014 17.7998C13.9233 17.8029 13.9451 17.806 13.967 17.8154V17.8185Z" fill="#FF57C6"/>
<path d="M14.8395 18.0617C14.8239 18.1429 14.8114 18.2273 14.7958 18.3085C14.8395 18.2366 14.8738 18.1586 14.9113 18.0867C14.8895 18.0805 14.8645 18.0711 14.8395 18.0648V18.0617ZM14.8395 18.0617C14.8239 18.1429 14.8114 18.2273 14.7958 18.3085C14.8395 18.2366 14.8738 18.1586 14.9113 18.0867C14.8895 18.0805 14.8645 18.0711 14.8395 18.0648V18.0617Z" fill="#9F72FF"/>
<path d="M29.6669 18.5096C29.011 22.389 26.8526 25.9185 23.901 27.9519C22.8046 28.7046 21.271 29.2231 19.753 29.2231C18.8066 29.2231 17.8695 29.0232 17.0449 28.5547C16.7888 28.4079 16.5171 28.2236 16.2609 27.9925C16.0236 27.7863 15.7924 27.5364 15.5769 27.2397C15.3302 26.9055 15.1084 26.5119 14.9241 26.0465C14.8117 25.7686 14.7117 25.4656 14.6274 25.1314C14.4087 24.2505 14.3088 23.1729 14.39 21.858C14.4025 21.7143 14.4899 20.2213 14.8023 18.3066C14.846 18.2347 14.8804 18.1567 14.9179 18.0848C15.3801 18.2316 15.7799 18.3784 16.1329 18.5315C15.8268 20.4243 15.7331 21.9079 15.7331 21.9392C15.6706 22.9356 15.7206 23.8164 15.883 24.5754C15.9517 24.9127 16.0454 25.2251 16.161 25.5124C16.339 25.9622 16.567 26.3495 16.8482 26.6744C17.0762 26.9399 17.3417 27.1616 17.6353 27.3397C17.6571 27.3553 17.6821 27.3709 17.7071 27.3865C18.3193 27.7332 19.0283 27.88 19.7499 27.88C20.9836 27.88 22.258 27.449 23.142 26.843C25.8 25.0158 27.7428 21.8142 28.3425 18.2847C28.7798 15.6922 28.405 13.3434 27.3055 11.8441C27.2524 11.7723 27.1931 11.6973 27.1369 11.6255C26.9338 11.3725 26.7027 11.1382 26.456 10.9227C26.0843 10.6041 25.6626 10.3261 25.2222 10.1106C24.8411 9.92319 24.4382 9.77639 24.0259 9.67331C23.5886 9.57024 23.1326 9.51089 22.6797 9.51089H22.6078C20.9462 9.53276 19.4906 10.2793 18.4724 11.613C18.3599 11.6411 18.2506 11.663 18.1382 11.6848C18.0038 11.7129 17.8602 11.741 17.704 11.7785C17.3729 11.8504 17.0231 11.9285 16.6576 11.9847C16.8263 11.6536 17.0106 11.3475 17.2074 11.0633C18.4661 9.25164 20.4245 8.19591 22.5891 8.16468H22.6734C23.5199 8.16468 24.3507 8.3146 25.1222 8.59884C25.2534 8.64881 25.3846 8.69879 25.5158 8.75501C25.6376 8.80811 25.7625 8.86746 25.8812 8.92368C26.0811 9.02363 26.2779 9.13608 26.4653 9.25789C26.8526 9.49527 27.215 9.77639 27.5492 10.095C27.5554 10.095 27.5617 10.0981 27.5648 10.1075C27.6148 10.1543 27.6647 10.2043 27.7147 10.2543C27.7647 10.3011 27.8147 10.3542 27.8615 10.4042C27.9833 10.5323 28.0958 10.6666 28.2051 10.8009C28.2738 10.8821 28.3363 10.9633 28.3988 11.0476C29.7106 12.8405 30.176 15.5579 29.6763 18.5096H29.6669Z" fill="#9F72FF"/>
<path d="M26.4515 10.9186C26.1673 11.106 25.8737 11.281 25.5738 11.4496C22.6659 13.0769 19.1426 13.8328 18.5835 13.9453C18.4836 13.964 18.3774 13.989 18.2618 14.014C18.2399 14.0171 18.2149 14.0265 18.1931 14.0296C17.8995 14.0952 17.5465 14.1733 17.1561 14.2358C16.7126 14.3076 16.219 14.3701 15.6943 14.3826C15.6318 14.3857 15.5662 14.3857 15.5006 14.3857C15.4288 14.3857 15.3538 14.3857 15.2789 14.3826C15.0852 14.3794 14.8947 14.3638 14.6979 14.3388C14.5636 14.3263 14.4293 14.3076 14.295 14.2857C13.814 14.2014 13.3298 14.064 12.8582 13.8391C12.474 13.6673 12.1023 13.4393 11.74 13.1519C10.8248 12.4179 9.99709 11.2903 9.38801 9.57866C8.56029 7.26105 8.65712 5.39321 9.68162 4.01888C9.79719 3.86271 9.92837 3.71278 10.0689 3.56911C10.4687 3.80337 10.7498 4.13758 10.9341 4.6061C10.8717 4.67481 10.8123 4.74978 10.7561 4.82162C10.0221 5.80863 9.98772 7.2548 10.6561 9.12263C10.7249 9.32254 10.8029 9.50994 10.8779 9.69111C10.9529 9.87227 11.0341 10.0441 11.1153 10.2065C11.1528 10.2846 11.1934 10.3564 11.234 10.4282C11.234 10.4314 11.2371 10.4407 11.2402 10.4439C11.3246 10.5969 11.412 10.7437 11.5026 10.8811C11.5963 11.0155 11.6838 11.1466 11.7806 11.2685C11.8274 11.3247 11.8743 11.3871 11.9243 11.4465C12.0211 11.5589 12.1179 11.6651 12.2179 11.7651C12.3053 11.8525 12.3959 11.9338 12.4865 12.0118C12.98 12.4304 13.5016 12.6959 14.0357 12.8552C14.3731 12.952 14.7135 13.0082 15.0509 13.0332C15.079 13.0363 15.3632 13.0488 15.4725 13.0488C15.7099 13.0488 15.9504 13.0363 16.1784 13.0145C16.8281 12.9489 18.3617 12.6272 19.0364 12.4647C20.3264 12.1555 21.9475 11.6683 23.4655 10.9998C23.6873 10.8999 23.909 10.7999 24.1277 10.6969C24.5056 10.5095 24.8711 10.3158 25.2209 10.1034C25.6644 10.3189 26.083 10.5969 26.4547 10.9155L26.4515 10.9186Z" fill="#10E6D9"/>
<path d="M48.6955 22.572L47.7397 20.3606H41.7708L40.8337 22.572H36.136L41.3772 8.98495H48.2644L53.5431 22.572H48.6955ZM46.987 16.8623C46.5122 15.5536 46.0249 14.3542 45.5283 13.0455L45.0785 11.8304C44.6412 12.9674 43.9978 14.5697 43.1513 16.8655H46.987V16.8623ZM85.1807 12.4864H74.9982V14.4448H85.1807V17.9431H74.9982V22.572H70.5816V8.98495H85.1807V12.4832V12.4864ZM102.141 8.98495V22.572H97.7433V17.9431H90.8561V22.572H86.4582V8.98495H90.8561V14.4416H97.7433V8.98495H102.141ZM114.569 8.96621H119.211V16.4157C119.186 18.2492 118.555 19.7672 117.321 20.9635C116.1 22.1597 114.032 22.7595 111.127 22.7595C108.223 22.7595 106.167 22.191 105.083 21.0572C103.997 19.9077 103.469 18.4053 103.494 16.5469V8.96621H108.135V15.5005C108.135 16.4969 107.973 17.6901 109.035 18.549C109.484 18.8489 110.203 19.1425 111.187 19.1425C112.261 19.1425 113.045 18.8489 113.545 18.549C114.663 17.8462 114.585 16.3844 114.576 15.3318V8.96621H114.569Z" fill="#F9F9F9"/>
<path d="M133.089 15.7498C134.463 15.4937 135.506 14.2787 135.506 12.82V12.6607C135.506 10.618 133.86 8.96253 131.833 8.96253H120.52V22.5777H132.324C134.354 22.5777 136 20.9223 136 18.8764V18.7484C136 17.1117 134.704 15.7842 133.089 15.7436V15.7498ZM130.643 19.5324H125.165V17.5146H130.643C131.199 17.5146 131.652 17.9675 131.652 18.5235C131.652 19.0795 131.199 19.5324 130.643 19.5324ZM130.643 13.9788H125.165V11.9611H130.643C131.199 11.9611 131.652 12.414 131.652 12.9699C131.652 13.5259 131.199 13.9788 130.643 13.9788Z" fill="#F9F9F9"/>
<path d="M69.2945 12.486H59.1151V14.4413H69.2945V17.9427H59.1151V22.5717H54.6985V8.98459H69.2945V12.486Z" fill="#F9F9F9"/>
</svg>
