<svg width="714" height="161" viewBox="0 0 714 161" fill="none" xmlns="http://www.w3.org/2000/svg">
<mask id="mask0_420_3191" style="mask-type:luminance" maskUnits="userSpaceOnUse" x="14" y="4" width="695" height="152">
<path d="M708.67 4.375H14.083V155.413H708.67V4.375Z" fill="white"/>
</mask>
<g mask="url(#mask0_420_3191)">
<path d="M190.117 38.1758H213.705L229.912 77.6699H230.744L246.951 38.1758H270.537V107.878H252.015V67.5885H251.473L235.917 107.336H224.739L209.183 67.2996H208.639V107.878H190.117V38.1758Z" fill="white"/>
<path d="M294.377 108.705C291.049 108.705 288.083 108.163 285.514 107.079C282.981 105.959 280.956 104.297 279.509 102.057C278.062 99.8164 277.338 96.9619 277.338 93.4929C277.338 90.6384 277.808 88.1813 278.785 86.1578C279.762 84.0982 281.136 82.4361 282.873 81.1714C284.609 79.8707 286.671 78.895 288.987 78.2085C291.338 77.5219 293.835 77.0884 296.548 76.8716C299.479 76.6547 301.83 76.3657 303.602 76.0405C305.411 75.7152 306.676 75.2455 307.473 74.6313C308.268 74.017 308.667 73.2221 308.667 72.2103V72.0657C308.667 70.6926 308.159 69.6449 307.111 68.9222C306.061 68.1995 304.723 67.8381 303.095 67.8381C301.286 67.8381 299.84 68.2357 298.682 69.0306C297.561 69.7894 296.91 70.9818 296.657 72.6078H279.365C279.58 69.428 280.595 66.5012 282.402 63.8274C284.211 61.1172 286.853 58.9854 290.325 57.3593C293.798 55.7334 298.14 54.9023 303.348 54.9023C307.111 54.9023 310.475 55.3359 313.441 56.2393C316.409 57.1065 318.94 58.2988 321.038 59.8887C323.138 61.4425 324.73 63.2491 325.813 65.345C326.936 67.4046 327.478 69.6449 327.478 72.1018V107.91H309.897V100.575H309.498C308.45 102.526 307.183 104.116 305.7 105.309C304.217 106.501 302.516 107.368 300.635 107.947C298.717 108.416 296.657 108.705 294.377 108.705ZM300.491 96.8535C301.938 96.8535 303.277 96.5643 304.507 95.9862C305.773 95.4081 306.821 94.5409 307.618 93.4207C308.413 92.3006 308.812 90.9637 308.812 89.3738V85.0016C308.306 85.2185 307.762 85.399 307.22 85.5797C306.676 85.7604 306.099 85.9411 305.446 86.0855C304.831 86.2301 304.181 86.3747 303.457 86.5192C302.769 86.6638 302.047 86.7721 301.323 86.8805C299.876 87.0974 298.682 87.4947 297.741 88.0007C296.837 88.5065 296.149 89.1208 295.68 89.8796C295.245 90.6023 295.028 91.4334 295.028 92.3367C295.028 93.7821 295.534 94.9021 296.548 95.6609C297.596 96.4559 298.899 96.8535 300.491 96.8535Z" fill="white"/>
<path d="M353.379 95.4837L353.523 73.1532H355.983L368.646 55.5923H389.773L368.502 82.9455H363.183L353.379 95.4837ZM336.484 107.878V38.1758H355.297V107.878H336.484ZM368.791 107.878L356.78 87.1731L369.044 73.8397L390.315 107.878H368.791Z" fill="white"/>
<path d="M417.593 108.829C412.023 108.829 407.174 107.745 403.16 105.613C399.144 103.445 396.032 100.374 393.863 96.3633C391.692 92.3164 390.642 87.4744 390.642 81.8738C390.642 76.4898 391.727 71.7564 393.898 67.7093C396.069 63.6625 399.144 60.5188 403.123 58.2785C407.103 56.0382 411.805 54.918 417.196 54.918C421.139 54.918 424.72 55.5324 427.941 56.7609C431.16 57.9894 433.873 59.76 436.153 62.1087C438.431 64.4213 440.167 67.2397 441.397 70.5639C442.627 73.8883 443.244 77.61 443.244 81.7653V86.1375H396.467V75.8033H425.914C425.878 74.3218 425.517 72.9849 424.757 71.8646C424.034 70.7084 423.057 69.8051 421.791 69.1908C420.559 68.5404 419.185 68.2152 417.593 68.2152C416.075 68.2152 414.663 68.5404 413.397 69.1908C412.132 69.8412 411.082 70.7084 410.322 71.8285C409.563 72.9487 409.166 74.2856 409.128 75.8033V86.9686C409.128 88.6308 409.49 90.1484 410.178 91.4492C410.902 92.7499 411.879 93.7979 413.217 94.5567C414.518 95.3153 416.11 95.6768 417.993 95.6768C419.294 95.6768 420.452 95.496 421.536 95.1348C422.622 94.7734 423.563 94.2676 424.322 93.581C425.082 92.8945 425.661 92.0273 426.023 91.0516H443.206C442.627 94.6649 441.217 97.8448 439.01 100.519C436.804 103.156 433.873 105.252 430.256 106.697C426.638 108.107 422.442 108.829 417.593 108.829Z" fill="white"/>
<path d="M450.623 107.878V38.1758H469.436V64.734H469.725C470.413 62.9636 471.389 61.3375 472.728 59.856C474.067 58.3745 475.694 57.1822 477.648 56.2788C479.601 55.3754 481.879 54.9058 484.448 54.9058C487.885 54.9058 491.177 55.809 494.289 57.6519C497.436 59.4946 499.968 62.3855 501.922 66.3239C503.911 70.2625 504.888 75.3935 504.888 81.7168C504.888 87.7512 503.947 92.7376 502.067 96.7123C500.222 100.687 497.726 103.65 494.578 105.601C491.466 107.552 488.067 108.528 484.339 108.528C481.879 108.528 479.71 108.13 477.757 107.336C475.839 106.504 474.211 105.42 472.837 104.047C471.498 102.638 470.448 101.048 469.725 99.2777H469.327V107.842H450.623V107.878ZM469.038 81.753C469.038 84.2824 469.363 86.4865 470.015 88.3654C470.701 90.2083 471.642 91.6175 472.872 92.6653C474.138 93.6771 475.621 94.1468 477.322 94.1468C479.058 94.1468 480.505 93.6409 481.735 92.6653C482.965 91.6536 483.906 90.2444 484.521 88.4015C485.172 86.5588 485.498 84.3185 485.498 81.7168C485.498 79.1153 485.172 76.9111 484.521 75.0682C483.871 73.2255 482.965 71.7802 481.735 70.8045C480.541 69.7927 479.058 69.323 477.322 69.323C475.585 69.323 474.102 69.8288 472.872 70.8045C471.642 71.7802 470.701 73.1894 470.015 75.0682C469.363 76.9473 469.038 79.1514 469.038 81.753Z" fill="white"/>
<path d="M537.81 108.829C532.238 108.829 527.391 107.745 523.375 105.613C519.359 103.445 516.249 100.374 514.078 96.3633C511.907 92.3164 510.858 87.4744 510.858 81.8738C510.858 76.4898 511.944 71.7564 514.151 67.7093C516.32 63.6625 519.397 60.5188 523.375 58.2785C527.354 56.0382 532.058 54.918 537.448 54.918C541.391 54.918 544.972 55.5324 548.191 56.7609C551.412 57.9894 554.125 59.76 556.404 62.1087C558.683 64.4213 560.42 67.2397 561.649 70.5639C562.879 73.8883 563.494 77.61 563.494 81.7653V86.1375H516.755V75.8033H546.202C546.167 74.3218 545.805 72.9849 545.045 71.8646C544.322 70.7084 543.345 69.8051 542.079 69.1908C540.847 68.5404 539.473 68.2152 537.881 68.2152C536.363 68.2152 534.951 68.5404 533.685 69.1908C532.42 69.8412 531.405 70.7084 530.61 71.8285C529.851 72.9487 529.454 74.2856 529.416 75.8033V86.9686C529.416 88.6308 529.778 90.1484 530.466 91.4492C531.152 92.7499 532.202 93.7979 533.505 94.5567C534.807 95.3153 536.398 95.6768 538.281 95.6768C539.582 95.6768 540.741 95.496 541.824 95.1348C542.91 94.7734 543.851 94.2676 544.61 93.581C545.37 92.8945 545.949 92.0273 546.311 91.0516H563.494C562.915 94.6649 561.505 97.8448 559.298 100.519C557.092 103.156 554.161 105.252 550.544 106.697C546.89 108.107 542.657 108.829 537.81 108.829Z" fill="white"/>
<path d="M571.127 107.874V55.5889H589.396V65.5255H589.938C590.879 61.8399 592.398 59.1661 594.46 57.4677C596.558 55.7696 598.982 54.9023 601.768 54.9023C602.601 54.9023 603.396 54.9746 604.193 55.119C605.023 55.2274 605.784 55.4082 606.544 55.625V71.6683C605.603 71.343 604.481 71.1263 603.107 70.9456C601.733 70.8011 600.574 70.6926 599.597 70.6926C597.752 70.6926 596.088 71.1263 594.605 71.9574C593.159 72.7884 592 73.9447 591.168 75.4262C590.337 76.9077 589.902 78.642 589.902 80.6295V107.874H571.127Z" fill="white"/>
<path d="M612.729 107.874V55.5889H630.998V65.5255H631.54C632.482 61.8399 634 59.1661 636.063 57.4677C638.161 55.7696 640.585 54.9023 643.369 54.9023C644.202 54.9023 644.998 54.9746 645.793 55.119C646.626 55.2274 647.385 55.4082 648.145 55.625V71.6683C647.205 71.343 646.047 71.1263 644.708 70.9456C643.334 70.8011 642.177 70.6926 641.2 70.6926C639.355 70.6926 637.69 71.1263 636.207 71.9574C634.76 72.7884 633.603 73.9447 632.77 75.4262C631.938 76.9077 631.505 78.642 631.505 80.6295V107.874H612.729Z" fill="white"/>
<path d="M667.354 127.484C665.183 127.484 663.122 127.303 661.205 126.978C659.251 126.653 657.55 126.219 656.067 125.641L660.155 112.308C661.711 112.85 663.123 113.211 664.388 113.356C665.691 113.5 666.775 113.428 667.68 113.067C668.622 112.742 669.272 112.091 669.705 111.116L670.105 110.176L651.689 55.5781H671.335L679.8 91.784H680.342L688.916 55.5781H708.668L689.566 112.199C688.627 115.09 687.215 117.656 685.406 119.968C683.598 122.281 681.245 124.124 678.317 125.461C675.422 126.797 671.768 127.484 667.354 127.484Z" fill="white"/>
<path d="M67.9846 57.5683C94.6826 31.4799 118.595 12.6542 121.417 15.5088C124.203 18.3634 104.812 41.778 78.0777 67.8664C51.3795 93.9188 27.4308 112.744 24.6451 109.89C21.8596 107.071 41.2502 83.6207 67.9846 57.5683Z" fill="url(#paint0_linear_420_3191)"/>
<path d="M90.8477 80.8819C117.582 54.8297 141.495 36.0039 144.28 38.8223C147.066 41.677 127.675 65.0916 100.941 91.18C74.2064 117.232 50.2939 136.058 47.5084 133.24C44.7229 130.385 64.1133 106.934 90.8477 80.8819Z" fill="url(#paint1_linear_420_3191)"/>
<path d="M77.5381 67.3329C105.466 40.0881 131.188 21.1541 134.986 25.0565C138.821 28.9589 119.286 54.1802 91.3576 81.425C63.4295 108.67 37.7443 127.568 33.9095 123.665C30.0748 119.763 49.6461 94.5415 77.5381 67.3329Z" fill="url(#paint2_linear_420_3191)"/>
<path d="M58.3987 47.8119C83.903 22.9159 106.513 4.66845 108.865 7.05327C111.216 9.43808 92.4407 31.5518 66.9364 56.4478C41.3958 81.3801 18.8218 99.6276 16.4703 97.2066C14.1189 94.8217 32.8944 72.7079 58.3987 47.8119Z" fill="url(#paint3_linear_420_3191)"/>
<path d="M102.029 92.2388C127.533 67.3428 150.143 49.0954 152.495 51.5164C154.846 53.9012 136.071 76.015 110.566 100.911C85.062 125.807 62.4517 144.055 60.1002 141.634C57.7127 139.249 76.4881 117.099 102.029 92.2388Z" fill="url(#paint4_linear_420_3191)"/>
<path d="M51.4904 40.7654C73.7027 19.0853 93.0207 2.86129 94.6487 4.48729C96.2767 6.14944 79.5632 25.0472 57.3509 46.6913C35.1386 68.4075 15.8205 84.6315 14.1925 82.9695C12.5646 81.3435 29.278 62.4457 51.4904 40.7654Z" fill="url(#paint5_linear_420_3191)"/>
<path d="M111.579 101.984C133.791 80.304 153.109 64.08 154.737 65.706C156.365 67.3682 139.652 86.2661 117.439 107.91C95.227 129.59 75.9088 145.814 74.2809 144.188C72.6892 142.562 89.3665 123.664 111.579 101.984Z" fill="url(#paint6_linear_420_3191)"/>
<path d="M44.5795 33.7306C62.3059 16.4587 77.6085 3.41449 78.766 4.60691C79.96 5.79932 66.5385 20.7948 48.8121 38.0666C31.0856 55.3386 15.7831 68.3827 14.6254 67.1902C13.4678 65.9979 26.853 51.0024 44.5795 33.7306Z" fill="url(#paint7_linear_420_3191)"/>
<path d="M120.116 110.649C137.842 93.3767 153.145 80.3324 154.302 81.5249C155.46 82.7172 142.075 97.7127 124.348 114.985C106.622 132.256 91.3191 145.301 90.1616 144.108C89.0038 142.916 102.389 127.957 120.116 110.649Z" fill="url(#paint8_linear_420_3191)"/>
<path d="M39.2616 28.3023C47.9801 19.8108 55.5048 13.4152 56.0836 13.9933C56.6623 14.6076 50.0783 21.9788 41.396 30.4703C32.6775 38.9616 25.1528 45.3574 24.574 44.7791C23.959 44.1649 30.5431 36.7936 39.2616 28.3023Z" fill="url(#paint9_linear_420_3191)"/>
<path d="M128.618 119.322C137.336 110.83 144.861 104.435 145.44 105.013C146.019 105.627 139.435 112.998 130.752 121.49C122.034 129.981 114.509 136.377 113.93 135.799C113.315 135.184 119.9 127.813 128.618 119.322Z" fill="url(#paint10_linear_420_3191)"/>
<path d="M192.865 155.196H188.343L194.204 137.852H199.776L205.637 155.196H201.115L197.025 142.224H196.881L192.865 155.196ZM192.25 148.366H201.692V151.546H192.25V148.366Z" fill="#FF016D"/>
<path d="M209.725 155.196V137.852H221.591V141.248H213.921V144.789H220.831V148.186H213.921V155.159H209.725V155.196Z" fill="#FF016D"/>
<path d="M225.896 155.196V137.852H237.762V141.248H230.093V144.789H237.002V148.186H230.093V155.159H225.896V155.196Z" fill="#FF016D"/>
<path d="M246.225 137.852V155.196H242.029V137.852H246.225Z" fill="#FF016D"/>
<path d="M251.037 155.196V137.852H255.235V151.799H262.47V155.196H251.037Z" fill="#FF016D"/>
<path d="M271.043 137.852V155.196H266.847V137.852H271.043Z" fill="#FF016D"/>
<path d="M279.615 155.196H275.093L280.954 137.852H286.526L292.385 155.196H287.865L283.775 142.224H283.631L279.615 155.196ZM279 148.366H288.442V151.546H279V148.366Z" fill="#FF016D"/>
<path d="M295.933 141.248V137.852H310.621V141.248H305.339V155.196H301.214V141.248H295.933Z" fill="#FF016D"/>
<path d="M314.853 155.196V137.852H326.972V141.248H319.049V144.789H326.357V148.186H319.049V151.763H326.972V155.159H314.853V155.196Z" fill="#FF016D"/>
<path d="M341.153 143.05C341.08 142.436 340.865 141.93 340.394 141.604C339.923 141.279 339.308 141.099 338.512 141.099C337.97 141.099 337.499 141.171 337.137 141.316C336.775 141.46 336.487 141.641 336.342 141.894C336.196 142.147 336.052 142.436 336.052 142.725C336.052 142.978 336.089 143.231 336.196 143.411C336.305 143.592 336.487 143.773 336.704 143.917C336.92 144.062 337.21 144.206 337.499 144.315C337.788 144.423 338.187 144.531 338.585 144.604L340.068 144.929C340.936 145.11 341.695 145.362 342.348 145.688C342.998 146.013 343.578 146.374 344.011 146.808C344.446 147.241 344.807 147.747 345.023 148.289C345.241 148.831 345.385 149.482 345.385 150.168C345.385 151.252 345.096 152.192 344.554 152.987C344.011 153.782 343.216 154.36 342.201 154.793C341.189 155.227 339.923 155.408 338.476 155.408C337.029 155.408 335.763 155.191 334.677 154.757C333.592 154.324 332.759 153.673 332.144 152.77C331.529 151.867 331.241 150.746 331.205 149.409H335.219C335.257 149.951 335.401 150.421 335.654 150.819C335.907 151.216 336.269 151.469 336.74 151.65C337.21 151.83 337.752 151.939 338.367 151.939C338.947 151.939 339.417 151.866 339.815 151.722C340.212 151.577 340.503 151.361 340.718 151.072C340.936 150.783 341.045 150.493 341.045 150.132C341.045 149.807 340.936 149.518 340.756 149.301C340.574 149.084 340.248 148.867 339.85 148.687C339.453 148.506 338.911 148.361 338.296 148.217L336.487 147.783C334.966 147.422 333.809 146.88 332.941 146.121C332.073 145.362 331.638 144.315 331.638 142.978C331.638 141.894 331.929 140.954 332.506 140.159C333.086 139.364 333.882 138.714 334.931 138.28C335.98 137.847 337.137 137.594 338.44 137.594C339.779 137.594 340.936 137.811 341.948 138.28C342.963 138.75 343.722 139.364 344.264 140.195C344.807 141.026 345.096 141.966 345.096 143.05H341.153Z" fill="#FF016D"/>
</g>
<defs>
<linearGradient id="paint0_linear_420_3191" x1="73.0286" y1="4.38493" x2="73.0286" y2="144.331" gradientUnits="userSpaceOnUse">
<stop stop-color="#FF00E6"/>
<stop offset="1" stop-color="#FF0000"/>
</linearGradient>
<linearGradient id="paint1_linear_420_3191" x1="95.9006" y1="4.39236" x2="95.9006" y2="144.338" gradientUnits="userSpaceOnUse">
<stop stop-color="#FF00E6"/>
<stop offset="1" stop-color="#FF0000"/>
</linearGradient>
<linearGradient id="paint2_linear_420_3191" x1="84.4683" y1="4.39337" x2="84.4683" y2="144.339" gradientUnits="userSpaceOnUse">
<stop stop-color="#FF00E6"/>
<stop offset="1" stop-color="#FF0000"/>
</linearGradient>
<linearGradient id="paint3_linear_420_3191" x1="62.6571" y1="4.38465" x2="62.6571" y2="144.33" gradientUnits="userSpaceOnUse">
<stop stop-color="#FF00E6"/>
<stop offset="1" stop-color="#FF0000"/>
</linearGradient>
<linearGradient id="paint4_linear_420_3191" x1="106.276" y1="4.36728" x2="106.276" y2="144.313" gradientUnits="userSpaceOnUse">
<stop stop-color="#FF00E6"/>
<stop offset="1" stop-color="#FF0000"/>
</linearGradient>
<linearGradient id="paint5_linear_420_3191" x1="54.4139" y1="4.38416" x2="54.4139" y2="144.33" gradientUnits="userSpaceOnUse">
<stop stop-color="#FF00E6"/>
<stop offset="1" stop-color="#FF0000"/>
</linearGradient>
<linearGradient id="paint6_linear_420_3191" x1="114.52" y1="4.39262" x2="114.52" y2="144.338" gradientUnits="userSpaceOnUse">
<stop stop-color="#FF00E6"/>
<stop offset="1" stop-color="#FF0000"/>
</linearGradient>
<linearGradient id="paint7_linear_420_3191" x1="46.7" y1="4.39538" x2="46.7" y2="144.341" gradientUnits="userSpaceOnUse">
<stop stop-color="#FF00E6"/>
<stop offset="1" stop-color="#FF0000"/>
</linearGradient>
<linearGradient id="paint8_linear_420_3191" x1="122.232" y1="4.38492" x2="122.232" y2="144.331" gradientUnits="userSpaceOnUse">
<stop stop-color="#FF00E6"/>
<stop offset="1" stop-color="#FF0000"/>
</linearGradient>
<linearGradient id="paint9_linear_420_3191" x1="40.3165" y1="4.38709" x2="40.3165" y2="144.333" gradientUnits="userSpaceOnUse">
<stop stop-color="#FF00E6"/>
<stop offset="1" stop-color="#FF0000"/>
</linearGradient>
<linearGradient id="paint10_linear_420_3191" x1="129.68" y1="4.38602" x2="129.68" y2="144.332" gradientUnits="userSpaceOnUse">
<stop stop-color="#FF00E6"/>
<stop offset="1" stop-color="#FF0000"/>
</linearGradient>
</defs>
</svg>
