<svg width="118" height="52" viewBox="0 0 118 52" fill="none" xmlns="http://www.w3.org/2000/svg">
<path d="M28.5055 20.1082L28.4685 20.293H26.4181L26.455 20.1082H26.5289C26.7752 20.1082 27.003 20.0713 27.2124 19.9974C27.4217 19.9235 27.5818 19.7819 27.6927 19.5725L34.7493 7.36195H35.1373C35.5313 9.94815 35.8454 12.0664 36.0794 13.7166C36.3257 15.3669 36.5289 16.66 36.689 17.5959C36.8614 18.5319 37.0215 19.1784 37.1693 19.5356C37.3294 19.8804 37.5203 20.0528 37.7419 20.0528C38.2592 20.0528 38.801 19.7388 39.3675 19.1107C39.9464 18.4703 40.556 17.6206 41.1964 16.5614H41.3811C41.0855 17.0541 40.79 17.5344 40.4944 18.0023C40.1988 18.4703 39.8971 18.889 39.5892 19.2585C39.2813 19.6156 38.9673 19.905 38.6471 20.1267C38.3269 20.3484 37.9882 20.4592 37.6311 20.4592C37.1877 20.4592 36.8244 20.3792 36.5412 20.2191C36.2703 20.059 36.0424 19.8127 35.8577 19.4802C35.673 19.1476 35.519 18.7228 35.3959 18.2055C35.2727 17.676 35.1434 17.0479 35.0079 16.3213C34.9956 16.2597 34.9833 16.2105 34.971 16.1735C34.9587 16.1243 34.9464 16.0688 34.9341 16.0073H29.9464C29.6262 16.5738 29.2875 17.1403 28.9304 17.7068C28.5732 18.2733 28.253 18.8521 27.9698 19.4432C27.8466 19.6526 27.8343 19.8188 27.9328 19.942C28.0437 20.0528 28.2284 20.1082 28.487 20.1082H28.5055ZM34.9341 15.8225L33.9365 9.11687L30.0387 15.8225H34.9341ZM51.9518 12.6267C52.0133 12.3065 51.9826 12.1156 51.8594 12.0541C51.7486 11.9925 51.5823 11.9617 51.3606 11.9617H49.2178L47.2597 21.1427C47.0503 22.1156 46.7424 22.8238 46.336 23.2671C45.9296 23.7105 45.5109 23.9321 45.0799 23.9321C44.7104 23.9321 44.3717 23.772 44.0638 23.4518C43.756 23.144 43.5466 22.7006 43.4358 22.1218L43.602 22.0109C43.8853 22.8114 44.2055 23.2117 44.5626 23.2117C44.8089 23.2117 45.0367 23.027 45.2461 22.6575C45.4678 22.3004 45.6525 21.7585 45.8003 21.0319L47.7399 11.9617H43.5835L41.6254 21.1427C41.4161 22.1156 41.1082 22.8238 40.7018 23.2671C40.2954 23.7105 39.8767 23.9321 39.4456 23.9321C39.0762 23.9321 38.7375 23.772 38.4296 23.4518C38.1217 23.144 37.9124 22.7006 37.8015 22.1218L37.9678 22.0109C38.251 22.8114 38.5712 23.2117 38.9284 23.2117C39.1747 23.2117 39.4087 23.027 39.6303 22.6575C39.8397 22.3004 40.0183 21.7585 40.1661 21.0319L42.1057 11.9617H40.7941L40.8311 11.777H42.1427L42.3089 10.9642C42.4074 10.4962 42.5429 10.059 42.7153 9.65259C42.8877 9.23387 43.1094 8.87057 43.3803 8.56268C43.6513 8.24249 43.9776 7.99003 44.3594 7.8053C44.7535 7.62057 45.2092 7.5282 45.7264 7.5282C46.256 7.5282 46.7116 7.6452 47.0934 7.87919C47.4875 8.10086 47.7153 8.37796 47.7769 8.71047C47.8508 9.10456 47.7831 9.40012 47.5737 9.59717C47.3643 9.79421 47.1303 9.89273 46.8717 9.89273C46.6747 9.89273 46.5023 9.83116 46.3545 9.708C46.2067 9.58485 46.1328 9.39397 46.1328 9.13534C46.1574 8.63042 46.1143 8.26712 46.0035 8.04544C45.905 7.82377 45.7633 7.71293 45.5786 7.71293C45.3816 7.72525 45.1968 7.82377 45.0244 8.0085C44.852 8.18091 44.6858 8.4149 44.5257 8.71047C44.3779 9.00603 44.2424 9.35086 44.1193 9.74495C43.9961 10.1267 43.8853 10.5331 43.7867 10.9642L43.6205 11.777H47.7769L47.9431 10.9642C48.054 10.4469 48.2079 9.97894 48.405 9.56022C48.6143 9.1415 48.873 8.7782 49.1808 8.47032C49.4887 8.16244 49.852 7.92845 50.2707 7.76835C50.6895 7.60825 51.1759 7.5282 51.7301 7.5282C52.3705 7.54052 52.9185 7.65136 53.3742 7.86072C53.8298 8.07007 54.0885 8.35333 54.15 8.71047C54.2239 9.10456 54.1562 9.40012 53.9468 9.59717C53.7375 9.79421 53.5035 9.89273 53.2449 9.89273C53.0478 9.89273 52.8754 9.83116 52.7276 9.708C52.5798 9.58485 52.506 9.39397 52.506 9.13534C52.5306 8.63042 52.4752 8.26712 52.3397 8.04544C52.2165 7.82377 52.0257 7.71293 51.767 7.71293C51.2129 7.70062 50.7387 7.97155 50.3446 8.52574C49.9629 9.07993 49.655 9.89273 49.421 10.9642L49.2547 11.777H53.6143L52.7092 16.0073C52.5983 16.5368 52.4875 17.0479 52.3766 17.5405C52.2781 18.0208 52.2104 18.4518 52.1734 18.8336C52.1365 19.2031 52.1488 19.5048 52.2104 19.7388C52.2843 19.9605 52.4382 20.0713 52.6722 20.0713C52.7338 20.0713 52.8508 20.0343 53.0232 19.9605C53.1956 19.8866 53.4173 19.7326 53.6882 19.4986C53.9592 19.2523 54.2793 18.9075 54.6488 18.4642C55.0183 18.0208 55.4247 17.4358 55.868 16.7092H56.0527C55.634 17.4112 55.2399 18.0023 54.8705 18.4826C54.5133 18.9629 54.1747 19.3509 53.8545 19.6464C53.5466 19.942 53.2572 20.1575 52.9862 20.293C52.7276 20.4161 52.4752 20.4777 52.2289 20.4777C51.4407 20.4777 50.985 20.1267 50.8619 19.4247C50.751 18.7105 50.8742 17.5713 51.2313 16.0073L51.9518 12.6267ZM56.6605 8.24865L56.6974 8.06392L57.7319 7.78682L59.062 7.36195H59.2467L57.3994 16.0442C57.2886 16.5738 57.1777 17.0848 57.0669 17.5775C56.9684 18.0577 56.9006 18.4888 56.8637 18.8706C56.8267 19.24 56.839 19.5417 56.9006 19.7757C56.9622 19.9974 57.11 20.1082 57.344 20.1082C57.4056 20.1082 57.5225 20.0651 57.695 19.9789C57.8797 19.8804 58.1075 19.708 58.3785 19.4617C58.6617 19.2031 58.9881 18.8459 59.3575 18.3903C59.727 17.9346 60.1334 17.3435 60.5767 16.6169H60.7615C59.9117 18.0085 59.1728 19.006 58.5447 19.6095C57.9289 20.2129 57.3809 20.5146 56.9006 20.5146C56.5065 20.5146 56.1987 20.4284 55.977 20.256C55.7676 20.0836 55.6322 19.8188 55.5706 19.4617C55.509 19.0922 55.509 18.6243 55.5706 18.0577C55.6445 17.4912 55.7615 16.8201 55.9216 16.0442L57.4548 8.80283C57.5533 8.3718 57.4425 8.15628 57.1223 8.15628C57.0361 8.15628 56.9253 8.17475 56.7898 8.2117L56.6605 8.24865ZM62.1267 8.32254C62.1883 8.06392 62.3299 7.84224 62.5516 7.65751C62.7733 7.47278 63.0196 7.38042 63.2905 7.38042C63.5614 7.38042 63.7708 7.47278 63.9186 7.65751C64.0664 7.84224 64.1095 8.06392 64.0479 8.32254C63.9863 8.59347 63.8385 8.82746 63.6046 9.02451C63.3829 9.20924 63.1366 9.3016 62.8656 9.3016C62.5947 9.3016 62.3853 9.20924 62.2376 9.02451C62.1021 8.82746 62.0651 8.59347 62.1267 8.32254ZM60.5565 11.9802L60.5935 11.7954L61.6095 11.5183L62.958 11.0565H63.1427L62.0898 16.0073C61.9789 16.5368 61.8681 17.0479 61.7573 17.5405C61.6587 18.0208 61.591 18.4518 61.5541 18.8336C61.5171 19.2031 61.5294 19.5048 61.591 19.7388C61.6649 19.9605 61.8188 20.0713 62.0528 20.0713C62.1144 20.0713 62.2314 20.0343 62.4038 19.9605C62.5762 19.8866 62.7979 19.7326 63.0688 19.4986C63.3398 19.2523 63.66 18.9075 64.0294 18.4642C64.3989 18.0208 64.8053 17.4358 65.2486 16.7092H65.4334C65.0146 17.4112 64.6206 18.0023 64.2511 18.4826C63.894 18.9629 63.5553 19.3509 63.2351 19.6464C62.9272 19.942 62.6378 20.1575 62.3669 20.293C62.1082 20.4161 61.8558 20.4777 61.6095 20.4777C60.8213 20.4777 60.3656 20.1267 60.2425 19.4247C60.1316 18.7105 60.2548 17.5713 60.6119 16.0073L61.3509 12.5344C61.4494 12.1033 61.3385 11.8878 61.0183 11.8878C60.9321 11.8878 60.8213 11.9063 60.6858 11.9432L60.5565 11.9802ZM66.854 15.6747C66.7063 16.3767 66.657 17.011 66.7063 17.5775C66.7678 18.144 66.9033 18.6304 67.1127 19.0368C67.3343 19.4432 67.6237 19.7573 67.9809 19.9789C68.338 20.1883 68.7444 20.293 69.2001 20.293C69.8159 20.293 70.4686 20.1082 71.1582 19.7388C71.8479 19.357 72.4452 18.8151 72.9501 18.1132C72.9994 17.5344 73.1287 16.8262 73.338 15.9888L73.9476 13.107C73.726 12.442 73.3503 11.9371 72.8208 11.5922C72.3035 11.2351 71.7494 11.0565 71.1582 11.0565C70.7026 11.0565 70.2469 11.1674 69.7912 11.389C69.3479 11.5984 68.9292 11.9063 68.5351 12.3127C68.1533 12.7191 67.8146 13.2055 67.5191 13.772C67.2235 14.3385 67.0018 14.9728 66.854 15.6747ZM74.6866 16.5984C74.5757 17.0664 74.4772 17.5097 74.391 17.9284C74.3171 18.3472 74.2678 18.7166 74.2432 19.0368C74.2309 19.3447 74.2617 19.591 74.3356 19.7757C74.4095 19.9605 74.5511 20.0528 74.7604 20.0528C74.822 20.0528 74.939 20.0097 75.1114 19.9235C75.2838 19.825 75.5055 19.6526 75.7765 19.4063C76.0597 19.1476 76.3861 18.7905 76.7555 18.3348C77.125 17.8792 77.5375 17.288 77.9932 16.5614H78.1779C77.3282 17.9531 76.5893 18.9506 75.9612 19.5541C75.3454 20.1575 74.7974 20.4592 74.3171 20.4592C73.5412 20.4592 73.0917 20.0959 72.9686 19.3693C72.3898 19.7265 71.7617 20.0036 71.0843 20.2006C70.4193 20.3853 69.7789 20.4777 69.1632 20.4777C68.4981 20.4777 67.9008 20.3669 67.3713 20.1452C66.8417 19.9112 66.3984 19.5848 66.0412 19.1661C65.6964 18.7474 65.4624 18.2425 65.3393 17.6513C65.2161 17.0602 65.2284 16.4013 65.3762 15.6747C65.5363 14.9481 65.8011 14.2893 66.1705 13.6981C66.5523 13.107 67.0018 12.6021 67.5191 12.1834C68.0486 11.7647 68.6274 11.4445 69.2555 11.2228C69.8836 10.9888 70.5302 10.8718 71.1952 10.8718C71.7863 10.8718 72.3713 10.9642 72.9501 11.1489C73.5412 11.3213 74.0462 11.5799 74.4649 11.9248L75.6656 11.0565H75.8503L74.6866 16.5984ZM80.385 11.9063L79.4798 16.0996C79.369 16.6292 79.2582 17.1403 79.1473 17.6329C79.0488 18.1132 78.9811 18.5442 78.9441 18.926C78.9072 19.2954 78.9195 19.5972 78.9811 19.8311C79.0426 20.0528 79.1904 20.1637 79.4244 20.1637C79.486 20.1637 79.603 20.1144 79.7754 20.0159C79.9601 19.905 80.1941 19.7203 80.4774 19.4617C80.7606 19.1908 81.087 18.8213 81.4564 18.3533C81.8382 17.8853 82.2569 17.288 82.7126 16.5614H82.8973C82.0476 17.9654 81.3025 18.9876 80.6621 19.6279C80.034 20.256 79.4798 20.5701 78.9995 20.5701C78.2114 20.5701 77.7557 20.2191 77.6325 19.5171C77.5217 18.8028 77.6449 17.6637 78.002 16.0996L78.9072 11.9063H77.5956L77.6325 11.7215H78.9441L80.9577 8.28559H81.1424L80.4219 11.7215H82.2323L82.1953 11.9063H80.385ZM82.8213 15.6747C82.9567 15.0344 83.1907 14.4247 83.5232 13.8459C83.8557 13.2671 84.2621 12.756 84.7424 12.3127C85.2227 11.8693 85.7585 11.5183 86.3496 11.2597C86.9407 11.0011 87.5688 10.8718 88.2338 10.8718C89.1082 10.8718 89.8286 11.0134 90.3951 11.2967C90.974 11.5676 91.3496 12.0171 91.522 12.6452C91.6205 13.0516 91.5774 13.4518 91.3927 13.8459C91.208 14.24 90.9309 14.6218 90.5614 14.9913C90.1919 15.3484 89.7486 15.6871 89.2314 16.0073C88.7264 16.3275 88.1907 16.623 87.6242 16.894C87.07 17.1526 86.5158 17.3804 85.9617 17.5775C85.4075 17.7622 84.8964 17.9038 84.4284 18.0023C84.6747 18.6304 85.0319 19.1415 85.4998 19.5356C85.9678 19.9174 86.5528 20.1082 87.2548 20.1082C87.7227 20.1082 88.2277 20.0343 88.7695 19.8866C89.3237 19.7388 89.8656 19.5171 90.3951 19.2215C90.937 18.926 91.4419 18.5565 91.9099 18.1132C92.3902 17.6698 92.7843 17.1526 93.0922 16.5614H93.2769C92.969 17.1895 92.5503 17.7499 92.0208 18.2425C91.5035 18.7228 90.9493 19.1353 90.3582 19.4802C89.7671 19.8127 89.1698 20.0651 88.5663 20.2376C87.9629 20.41 87.4272 20.49 86.9592 20.4777C86.2449 20.4654 85.5922 20.3607 85.0011 20.1637C84.4222 19.9543 83.9358 19.6526 83.5417 19.2585C83.1599 18.8644 82.8952 18.3718 82.7474 17.7807C82.6119 17.1772 82.6365 16.4752 82.8213 15.6747ZM86.3496 11.4814C85.9309 11.6661 85.5553 11.9432 85.2227 12.3127C84.8902 12.6821 84.6193 13.1132 84.4099 13.6058C84.2129 14.0861 84.0836 14.6218 84.022 15.2129C83.9727 15.8041 84.0158 16.4198 84.1513 17.0602C84.2006 17.3065 84.2745 17.5775 84.373 17.873C84.9887 17.7376 85.6415 17.5097 86.3311 17.1895C87.0331 16.857 87.6673 16.4629 88.2338 16.0073C88.8003 15.5516 89.256 15.0528 89.6008 14.511C89.9456 13.9568 90.0688 13.3964 89.9703 12.8299C89.8717 12.2634 89.607 11.8447 89.1759 11.5738C88.7572 11.3028 88.2831 11.1674 87.7535 11.1674C87.5318 11.1674 87.304 11.192 87.07 11.2413C86.836 11.2905 86.5959 11.3706 86.3496 11.4814Z" fill="white"/>
<path d="M0.797031 27.7491H0.7724V27.5028H6.73299C7.89883 27.5028 8.93331 27.5931 9.83643 27.7737C10.756 27.9543 11.5277 28.2581 12.1517 28.685C12.7757 29.0956 13.2437 29.6456 13.5556 30.3353C13.884 31.0085 14.0482 31.8377 14.0482 32.823C14.0482 33.8082 13.884 34.6374 13.5556 35.3107C13.2272 35.9675 12.751 36.4929 12.1271 36.887C11.5031 37.2811 10.7395 37.5684 9.83643 37.7491C8.93331 37.9133 7.89883 37.9954 6.73299 37.9954H3.97437V43.2909C3.97437 44.0955 4.37667 44.4978 5.18126 44.4978H5.20589V44.7441H0.7724V44.4978H0.797031C1.60163 44.4978 2.00393 44.0955 2.00393 43.2909V28.956C2.00393 28.1514 1.60163 27.7491 0.797031 27.7491ZM6.73299 27.7491H3.97437V37.7491H6.73299C7.80031 37.7491 8.67059 37.6341 9.34382 37.4042C10.0335 37.1579 10.5836 36.8213 10.9941 36.3944C11.4046 35.9675 11.6837 35.4502 11.8315 34.8427C11.9957 34.2351 12.0778 33.5619 12.0778 32.823C12.0778 32.0841 11.9957 31.4026 11.8315 30.7786C11.6837 30.1547 11.4046 29.621 10.9941 29.1777C10.5836 28.7179 10.0335 28.3648 9.34382 28.1185C8.67059 27.8722 7.80031 27.7491 6.73299 27.7491ZM24.4935 44.7441C23.8367 44.7441 23.5083 44.4157 23.5083 43.7589V43.5619C22.8186 44.0052 22.0715 44.3583 21.2669 44.621C20.4787 44.8837 19.707 45.0151 18.9516 45.0151C17.7694 45.0151 16.8252 44.7113 16.1191 44.1037C15.4131 43.4798 15.06 42.552 15.06 41.3205C15.06 40.6801 15.1832 40.1218 15.4295 39.6456C15.6922 39.1694 16.0452 38.7753 16.4886 38.4634C16.9319 38.135 17.4492 37.8886 18.0403 37.7244C18.6314 37.5602 19.2636 37.4781 19.9369 37.4781C20.5444 37.4781 21.1438 37.5438 21.7349 37.6752C22.3424 37.7901 22.9336 37.9215 23.5083 38.0693V37.823C23.5083 36.69 23.418 35.7786 23.2374 35.089C23.0732 34.3829 22.8433 33.841 22.5477 33.4634C22.2521 33.0693 21.9155 32.8066 21.5378 32.6752C21.1602 32.5438 20.7661 32.4781 20.3556 32.4781C19.9779 32.4781 19.6002 32.5767 19.2226 32.7737C18.8613 32.9708 18.5165 33.2581 18.1881 33.6358C17.8597 34.0134 17.5723 34.4814 17.326 35.0397C17.0797 35.5816 16.8909 36.2056 16.7595 36.9116L15.7989 34.7688C16.3737 33.9478 17.0551 33.3074 17.8433 32.8476C18.6479 32.3878 19.551 32.1579 20.5526 32.1579C21.1766 32.1579 21.7759 32.24 22.3507 32.4043C22.9254 32.552 23.4344 32.8312 23.8777 33.2417C24.3375 33.6358 24.707 34.1776 24.9861 34.8673C25.2817 35.5405 25.4459 36.4026 25.4787 37.4535V43.2909C25.4787 44.0955 25.881 44.4978 26.6856 44.4978H26.7103V44.7441H24.4935ZM17.0305 41.3205C17.0305 42.4699 17.3014 43.3074 17.8433 43.8328C18.3851 44.3418 19.0666 44.5964 19.8876 44.5964C20.4459 44.5964 21.037 44.4896 21.661 44.2762C22.285 44.0627 22.9007 43.7425 23.5083 43.3156V38.3895C23.0814 38.2088 22.5888 38.0611 22.0305 37.9461C21.4722 37.8312 20.9549 37.7737 20.4787 37.7737C20.0025 37.7737 19.551 37.8394 19.1241 37.9707C18.7135 38.1021 18.3523 38.3156 18.0403 38.6111C17.7283 38.8903 17.482 39.2597 17.3014 39.7195C17.1208 40.1629 17.0305 40.6965 17.0305 41.3205ZM35.7908 27.7491V27.5028H38.9928V43.6111C39.0913 44.2023 39.4854 44.4978 40.1751 44.4978H40.1997V44.7441H37.0224V44.3993C36.1685 44.7934 35.1997 44.9904 34.116 44.9904C33.2293 44.9904 32.4 44.8509 31.6283 44.5717C30.8565 44.2926 30.1751 43.8821 29.5839 43.3402C29.0092 42.7983 28.5495 42.1333 28.2046 41.3451C27.8762 40.5405 27.712 39.621 27.712 38.5865C27.712 37.6177 27.8762 36.7392 28.2046 35.951C28.5495 35.1629 29.0092 34.4896 29.5839 33.9313C30.1751 33.3731 30.8565 32.9461 31.6283 32.6506C32.4 32.3386 33.2293 32.1826 34.116 32.1826C34.3458 32.1826 34.5922 32.2072 34.8549 32.2565C35.1176 32.3057 35.3803 32.3714 35.6431 32.4535C35.9058 32.5192 36.1521 32.5931 36.382 32.6752C36.6283 32.7409 36.8417 32.8065 37.0224 32.8722V28.956C37.0224 28.1514 36.6201 27.7491 35.8155 27.7491H35.7908ZM29.6825 38.5865C29.6825 39.6867 29.7974 40.6308 30.0273 41.419C30.2572 42.1908 30.5692 42.823 30.9633 43.3156C31.3738 43.8082 31.85 44.1694 32.3918 44.3993C32.9337 44.6292 33.5084 44.7441 34.116 44.7441C34.6743 44.7441 35.1997 44.6538 35.6923 44.4732C36.1849 44.2926 36.6283 43.997 37.0224 43.5865V33.8328C36.6283 33.3895 36.1849 33.0446 35.6923 32.7983C35.1997 32.552 34.6743 32.4289 34.116 32.4289C33.5084 32.4289 32.9337 32.5767 32.3918 32.8722C31.85 33.1514 31.3738 33.5619 30.9633 34.1038C30.5692 34.6456 30.2572 35.2942 30.0273 36.0496C29.7974 36.8049 29.6825 37.6506 29.6825 38.5865ZM52.3766 36.9609C52.2617 36.2548 52.0646 35.6226 51.7855 35.0643C51.5227 34.5061 51.2025 34.0299 50.8249 33.6358C50.4472 33.2417 50.0203 32.9461 49.5441 32.7491C49.0843 32.5356 48.5999 32.4289 48.0909 32.4289C47.5819 32.4289 47.0893 32.5356 46.6131 32.7491C46.1533 32.9461 45.7346 33.2417 45.3569 33.6358C44.9792 34.0299 44.6508 34.5061 44.3717 35.0643C44.109 35.6226 43.9201 36.2548 43.8052 36.9609H52.3766ZM43.6574 38.5865C43.6574 39.2762 43.7559 39.9576 43.953 40.6308C44.1664 41.3041 44.4702 41.9116 44.8643 42.4535C45.2748 42.9954 45.7674 43.4305 46.3421 43.7589C46.9333 44.0873 47.6065 44.2515 48.3618 44.2515C48.9858 44.2515 49.5934 44.1776 50.1845 44.0299C50.792 43.8821 51.3503 43.644 51.8594 43.3156C52.3684 42.9872 52.8117 42.5602 53.1894 42.0348C53.5835 41.4929 53.8873 40.8279 54.1007 40.0397L54.347 40.1136C54.1828 40.8197 53.9037 41.4765 53.5096 42.084C53.1319 42.6752 52.664 43.1842 52.1057 43.6111C51.5638 44.0381 50.948 44.3747 50.2584 44.621C49.5851 44.8673 48.8627 44.9904 48.0909 44.9904C47.2042 44.9904 46.375 44.8509 45.6032 44.5717C44.8315 44.2926 44.15 43.8821 43.5589 43.3402C42.9842 42.7983 42.5244 42.1333 42.1796 41.3451C41.8512 40.5405 41.687 39.621 41.687 38.5865C41.687 37.6177 41.8512 36.7392 42.1796 35.951C42.5244 35.1629 42.9842 34.4896 43.5589 33.9313C44.15 33.3731 44.8315 32.9461 45.6032 32.6506C46.375 32.3386 47.2042 32.1826 48.0909 32.1826C48.8298 32.1826 49.5359 32.2975 50.2091 32.5274C50.8824 32.7409 51.4899 33.0611 52.0318 33.488C52.5901 33.8985 53.058 34.3993 53.4357 34.9905C53.8298 35.5816 54.1172 36.2384 54.2978 36.9609V37.1826L43.7559 37.2072C43.7231 37.4371 43.6985 37.667 43.682 37.8969C43.6656 38.1103 43.6574 38.3402 43.6574 38.5865ZM55.8303 27.7491V27.5028H59.0322V43.2909C59.0322 44.0955 59.4345 44.4978 60.2391 44.4978H60.2638V44.7441H55.8303V44.4978H55.8549C56.6595 44.4978 57.0618 44.0955 57.0618 43.2909V28.956C57.0618 28.1514 56.6595 27.7491 55.8549 27.7491H55.8303ZM77.0371 27.5028C75.8877 27.5028 74.8779 27.7327 74.0076 28.1924C73.1373 28.6522 72.4148 29.2762 71.8401 30.0644C71.2654 30.8361 70.8385 31.7474 70.5593 32.7983C70.2802 33.8328 70.1406 34.9412 70.1406 36.1235C70.1406 37.2236 70.2555 38.2992 70.4854 39.3501C70.7317 40.3845 71.1258 41.3041 71.6677 42.1087C72.2096 42.8969 72.9156 43.5372 73.7859 44.0299C74.6726 44.506 75.7563 44.7441 77.0371 44.7441C77.5626 44.7441 78.1373 44.7031 78.7613 44.621C79.4017 44.5225 79.9928 44.3665 80.5347 44.153C81.093 43.9395 81.5691 43.6522 81.9632 43.2909C82.3737 42.9297 82.6036 42.4863 82.6529 41.9609L82.7514 40.9757H82.9731L82.7022 43.5619C82.3573 43.7425 81.9468 43.9231 81.4706 44.1037C81.0109 44.268 80.5265 44.4157 80.0174 44.5471C79.5084 44.6785 78.9912 44.7852 78.4657 44.8673C77.9567 44.9494 77.4805 44.9904 77.0371 44.9904C75.8056 44.9904 74.648 44.8098 73.5642 44.4486C72.4969 44.0709 71.5609 43.5126 70.7564 42.7737C69.9518 42.0348 69.3114 41.1152 68.8352 40.0151C68.3754 38.8985 68.1537 37.6013 68.1701 36.1235C68.1537 34.6456 68.3754 33.3566 68.8352 32.2565C69.3114 31.1399 69.9518 30.2121 70.7564 29.4732C71.5609 28.7343 72.4969 28.1842 73.5642 27.823C74.648 27.4453 75.8056 27.2565 77.0371 27.2565C77.9403 27.2565 78.8023 27.396 79.6233 27.6752C80.4444 27.9379 81.2079 28.2827 81.914 28.7097V27.5028H82.1603V30.4584H81.914C81.8319 29.933 81.6266 29.4814 81.2982 29.1038C80.9698 28.7261 80.5757 28.4223 80.1159 28.1924C79.6726 27.9461 79.18 27.7737 78.6381 27.6752C78.0962 27.5602 77.5626 27.5028 77.0371 27.5028ZM84.4536 27.7491V27.5028H87.6556V43.2909C87.6556 44.0955 88.0579 44.4978 88.8625 44.4978H88.8871V44.7441H84.4536V44.4978H84.4782C85.2828 44.4978 85.6851 44.0955 85.6851 43.2909V28.956C85.6851 28.1514 85.2828 27.7491 84.4782 27.7491H84.4536ZM91.6022 33.5373C91.6022 32.9625 91.1917 32.6752 90.3707 32.6752V32.4289H93.5727V39.5225C93.5727 40.2121 93.5973 40.8689 93.6466 41.4929C93.6958 42.1169 93.8026 42.6752 93.9668 43.1678C94.1474 43.644 94.3937 44.0216 94.7057 44.3008C95.0341 44.5799 95.461 44.7195 95.9865 44.7195C96.5776 44.7195 97.1113 44.5635 97.5875 44.2515C98.0801 43.9231 98.4988 43.5208 98.8436 43.0446C99.1884 42.552 99.4594 42.0266 99.6564 41.4683C99.8699 40.91 99.993 40.3927 100.026 39.9166V33.5373C100.026 32.9625 99.6154 32.6752 98.7944 32.6752V32.4289H101.996V43.2909C101.996 44.0955 102.399 44.4978 103.203 44.4978H103.228V44.7441H100.026V41.3944C99.8781 41.8542 99.6811 42.3057 99.4348 42.7491C99.1884 43.176 98.8929 43.5619 98.5481 43.9067C98.2032 44.2351 97.8091 44.4978 97.3658 44.6949C96.9389 44.8919 96.4791 44.9904 95.9865 44.9904C95.0998 44.9904 94.3691 44.8591 93.7944 44.5964C93.2361 44.3172 92.7927 43.9478 92.4643 43.488C92.1359 43.0282 91.906 42.4946 91.7747 41.887C91.6597 41.263 91.6022 40.6062 91.6022 39.9166V33.5373ZM104.706 27.7491V27.5028H107.908V32.8722C108.089 32.8065 108.294 32.7409 108.524 32.6752C108.77 32.5931 109.025 32.5192 109.288 32.4535C109.55 32.3714 109.813 32.3057 110.076 32.2565C110.355 32.2072 110.601 32.1826 110.815 32.1826C111.702 32.1826 112.531 32.3386 113.302 32.6506C114.074 32.9461 114.747 33.3731 115.322 33.9313C115.913 34.4896 116.373 35.1629 116.702 35.951C117.046 36.7392 117.219 37.6177 117.219 38.5865C117.219 39.621 117.046 40.5405 116.702 41.3451C116.373 42.1333 115.913 42.7983 115.322 43.3402C114.747 43.8821 114.074 44.2926 113.302 44.5717C112.531 44.8509 111.702 44.9904 110.815 44.9904C109.567 44.9904 108.434 44.7113 107.416 44.153L106.184 44.7441H105.938V28.956C105.938 28.1514 105.536 27.7491 104.731 27.7491H104.706ZM115.248 38.5865C115.248 37.6506 115.133 36.8049 114.903 36.0496C114.674 35.2942 114.353 34.6456 113.943 34.1038C113.549 33.5619 113.081 33.1514 112.539 32.8722C111.997 32.5767 111.422 32.4289 110.815 32.4289C110.257 32.4289 109.731 32.552 109.238 32.7983C108.746 33.0446 108.303 33.3895 107.908 33.8328V43.5865C108.303 43.997 108.746 44.2926 109.238 44.4732C109.731 44.6538 110.257 44.7441 110.815 44.7441C111.422 44.7441 111.997 44.6292 112.539 44.3993C113.081 44.1694 113.549 43.8082 113.943 43.3156C114.353 42.823 114.674 42.1908 114.903 41.419C115.133 40.6308 115.248 39.6867 115.248 38.5865Z" fill="white"/>
<g filter="url(#filter0_d_444_3767)">
<path d="M100.781 0.0166016C99.8642 0.101937 98.9694 0.49584 98.2662 1.19751C97.5629 1.89898 97.1688 2.79231 97.0835 3.70862C98.09 3.82513 99.1602 4.33874 100.039 5.21588C100.918 6.09322 101.433 7.16242 101.549 8.16646C102.468 8.08132 103.36 7.68762 104.064 6.98635C104.767 6.28508 105.161 5.39135 105.246 4.47524C104.242 4.35893 103.17 3.84531 102.291 2.96798C101.413 2.09084 100.898 1.02144 100.781 0.0166016Z" fill="#E4FF02"/>
<path d="M105.262 3.96701C105.232 2.96077 104.834 1.96392 104.065 1.1959C103.297 0.427877 102.297 0.0311765 101.289 0C101.402 0.878738 101.87 1.82303 102.653 2.60544C103.437 3.38785 104.381 3.85369 105.262 3.96701Z" fill="#E4FF02"/>
<path d="M97.0684 4.21484C97.098 5.22069 97.497 6.21773 98.2661 6.98535C99.0346 7.75258 100.033 8.15128 101.041 8.18045C100.927 7.30292 100.461 6.35923 99.6767 5.57682C98.8936 4.79481 97.948 4.32876 97.0684 4.21484Z" fill="#E4FF02"/>
</g>
<defs>
<filter id="filter0_d_444_3767" x="96.0511" y="0" width="10.2283" height="10.2151" filterUnits="userSpaceOnUse" color-interpolation-filters="sRGB">
<feFlood flood-opacity="0" result="BackgroundImageFix"/>
<feColorMatrix in="SourceAlpha" type="matrix" values="0 0 0 0 0 0 0 0 0 0 0 0 0 0 0 0 0 0 127 0" result="hardAlpha"/>
<feOffset dy="1.01724"/>
<feGaussianBlur stdDeviation="0.508621"/>
<feComposite in2="hardAlpha" operator="out"/>
<feColorMatrix type="matrix" values="0 0 0 0 0.117647 0 0 0 0 0.117647 0 0 0 0 0.117647 0 0 0 0.1 0"/>
<feBlend mode="normal" in2="BackgroundImageFix" result="effect1_dropShadow_444_3767"/>
<feBlend mode="normal" in="SourceGraphic" in2="effect1_dropShadow_444_3767" result="shape"/>
</filter>
</defs>
</svg>
