<svg width="127" height="25" viewBox="0 0 127 25" fill="none" xmlns="http://www.w3.org/2000/svg">
<mask id="mask0_181_7103" style="mask-type:luminance" maskUnits="userSpaceOnUse" x="0" y="0" width="127" height="25">
<path d="M126.129 0.0908203H0V24.7634H126.129V0.0908203Z" fill="white"/>
</mask>
<g mask="url(#mask0_181_7103)">
<path d="M36.2894 7.83594C37.4511 7.83594 38.5022 8.2785 39.332 9.21893C40.1617 10.104 40.6043 11.2104 40.6043 12.5381C40.6043 13.8658 40.1617 14.9722 39.332 15.8573C38.5022 16.7424 37.5064 17.185 36.2894 17.185C35.0723 17.185 34.1319 16.7424 33.4681 15.9126V20.4488H31.2V8.11254H33.4681V9.16361C34.1319 8.27849 35.0723 7.83594 36.2894 7.83594ZM34.1319 14.253C34.5744 14.6956 35.1829 14.9169 35.8468 14.9169C36.5106 14.9169 37.1192 14.6956 37.5617 14.253C38.0596 13.8105 38.2809 13.2019 38.2809 12.4828C38.2809 11.7636 38.0596 11.1551 37.5617 10.7126C37.1192 10.2147 36.5106 9.9934 35.8468 9.9934C35.1829 9.9934 34.5744 10.2147 34.1319 10.7126C33.6893 11.1551 33.4681 11.7636 33.4681 12.4828C33.4681 13.2019 33.6893 13.8105 34.1319 14.253Z" fill="white"/>
<path d="M48.8471 9.10858V8.05751H51.1152V16.8533H48.8471V15.8023C48.1832 16.6321 47.1875 17.0746 45.9705 17.0746C44.8088 17.0746 43.813 16.6321 42.9279 15.7469C42.0981 14.8618 41.6555 13.7554 41.6555 12.4278C41.6555 11.1554 42.0428 10.049 42.9279 9.10858C43.7577 8.22346 44.7534 7.72559 45.9705 7.72559C47.2428 7.83623 48.1832 8.27878 48.8471 9.10858ZM44.6981 14.2533C45.1407 14.6959 45.7492 14.9171 46.4131 14.9171C47.1322 14.9171 47.6854 14.6959 48.128 14.2533C48.6258 13.8108 48.8471 13.2022 48.8471 12.4831C48.8471 11.7639 48.6258 11.1554 48.128 10.7129C47.6854 10.215 47.0769 9.9937 46.4131 9.9937C45.6939 9.9937 45.1407 10.215 44.6981 10.7129C44.2555 11.1554 44.0343 11.7639 44.0343 12.4831C43.979 13.2022 44.2555 13.8108 44.6981 14.2533Z" fill="white"/>
<path d="M55.4855 16.8527H53.2174V4.01855H55.4855V16.8527Z" fill="white"/>
<path d="M64.2262 9.10858V8.05751H66.4943V16.8533H64.2262V15.8023C63.5623 16.6321 62.5666 17.0746 61.3496 17.0746C60.1879 17.0746 59.1921 16.6321 58.307 15.7469C57.4772 14.8618 57.0346 13.7554 57.0346 12.4278C57.0346 11.1554 57.4772 10.049 58.307 9.10858C59.1368 8.22346 60.1325 7.72559 61.3496 7.72559C62.5666 7.83623 63.5623 8.27878 64.2262 9.10858ZM60.0219 14.2533C60.4644 14.6959 61.0729 14.9171 61.7921 14.9171C62.5112 14.9171 63.0644 14.6959 63.507 14.2533C64.0049 13.8108 64.2262 13.2022 64.2262 12.4831C64.2262 11.7639 64.0049 11.1554 63.507 10.7129C63.0644 10.215 62.4559 9.9937 61.7921 9.9937C61.1283 9.9937 60.5198 10.215 60.0219 10.7129C59.5793 11.1554 59.358 11.7639 59.358 12.4831C59.358 13.2022 59.5793 13.8108 60.0219 14.2533Z" fill="white"/>
<path d="M70.8093 16.8544H68.5412V8.05859H70.8093V16.8544Z" fill="white"/>
<path d="M86.8517 7.83594C87.8475 7.83594 88.6219 8.16785 89.2304 8.77637C89.8389 9.44021 90.1156 10.27 90.1156 11.3764V16.853H88.9538V11.3764C88.9538 10.6019 88.7325 10.0487 88.3453 9.60617C87.9581 9.16361 87.4602 8.99765 86.7964 8.99765C86.0219 8.99765 85.4134 9.27425 85.0261 9.77213C84.5836 10.27 84.3623 11.0445 84.3623 12.0402V16.9084H83.2006V11.4317C83.2006 10.6572 83.0347 10.104 82.6474 9.66148C82.2602 9.21892 81.7623 9.05297 81.1537 9.05297C80.4346 9.05297 79.8261 9.32956 79.3282 9.82744C78.8857 10.3253 78.6091 11.0998 78.6091 12.0402V16.9084H77.4474V8.11254H78.6091V9.38488C79.2176 8.38913 80.158 7.89125 81.3197 7.89125C82.5921 7.89125 83.4772 8.44445 83.975 9.49553C84.6389 8.38913 85.6347 7.83594 86.8517 7.83594Z" fill="white"/>
<path d="M96.477 7.83594C97.8047 7.83594 98.8557 8.2785 99.6302 9.21893C100.46 10.1594 100.847 11.2104 100.847 12.4828C100.847 12.5381 100.847 12.7041 100.792 13.036H93.1025C93.2131 13.9211 93.6003 14.6403 94.2088 15.1381C94.8174 15.6913 95.6472 15.9126 96.5876 15.9126C97.9153 15.9126 98.8557 15.4147 99.4089 14.419L100.405 15.0275C100.017 15.636 99.4642 16.1339 98.8004 16.5211C98.1366 16.853 97.3621 17.0743 96.5323 17.0743C95.1493 17.0743 94.0429 16.6318 93.1578 15.7466C92.2727 14.8615 91.8301 13.7551 91.8301 12.4275C91.8301 11.0998 92.2727 9.9934 93.1025 9.10828C93.9876 8.27849 95.094 7.83594 96.477 7.83594ZM96.477 8.94233C95.5366 8.94233 94.8174 9.21893 94.1535 9.77213C93.545 10.3253 93.1578 11.0445 93.0471 11.9296H99.5749C99.4643 10.9892 99.077 10.27 98.5238 9.77213C97.9153 9.21893 97.2515 8.94233 96.477 8.94233Z" fill="white"/>
<path d="M110.197 9.77197V4.5166H111.359V16.8529H110.197V15.138C109.367 16.4103 108.205 17.0742 106.656 17.0742C105.384 17.0742 104.333 16.6316 103.448 15.7465C102.563 14.8614 102.12 13.755 102.12 12.4826C102.12 11.2103 102.563 10.1039 103.448 9.21878C104.333 8.33366 105.384 7.8911 106.656 7.8911C108.205 7.83578 109.422 8.49962 110.197 9.77197ZM104.278 14.9167C104.942 15.5805 105.771 15.9125 106.712 15.9125C107.652 15.9125 108.482 15.5805 109.146 14.9167C109.81 14.1975 110.142 13.4231 110.142 12.4273C110.142 11.4316 109.81 10.6571 109.146 9.93792C108.482 9.27409 107.652 8.94218 106.712 8.94218C105.771 8.94218 104.942 9.27409 104.278 9.93792C103.614 10.6018 103.282 11.4316 103.282 12.4273C103.282 13.4231 103.614 14.2529 104.278 14.9167Z" fill="white"/>
<path d="M114.954 16.8544H113.793V8.05859H114.954V16.8544Z" fill="white"/>
<path d="M124.967 9.77177V8.05685H126.129V16.8527H124.967V15.1378C124.137 16.4101 122.975 17.074 121.426 17.074C120.154 17.074 119.103 16.6314 118.218 15.7463C117.333 14.8612 116.89 13.7548 116.89 12.4824C116.89 11.2101 117.333 10.1037 118.218 9.21857C119.103 8.33346 120.154 7.89089 121.426 7.89089C122.975 7.83557 124.192 8.49941 124.967 9.77177ZM119.048 14.9165C119.711 15.5803 120.541 15.9122 121.482 15.9122C122.477 15.9122 123.252 15.5803 123.916 14.9165C124.58 14.1973 124.911 13.4229 124.911 12.4271C124.911 11.4314 124.58 10.6569 123.916 9.93772C123.252 9.27388 122.422 8.94197 121.482 8.94197C120.486 8.94197 119.711 9.27388 119.048 9.93772C118.384 10.6016 118.052 11.4314 118.052 12.4271C118.052 13.4229 118.384 14.2527 119.048 14.9165Z" fill="white"/>
<path d="M68.6519 3.46595C68.6519 3.52127 68.7625 4.24043 68.5412 4.51702C68.3753 4.79362 68.154 5.23618 68.2646 5.67873C68.3753 6.45321 69.1498 6.95109 69.9242 6.84045C70.6987 6.72981 71.1966 6.01065 71.0859 5.23617C71.0306 5.07022 71.0306 4.90426 70.9199 4.79362C70.5327 3.52127 70.8093 3.29998 70.8093 3.29998C70.8093 3.29998 70.2008 3.57658 70.2561 4.29574C70.0902 4.07446 69.3157 3.02339 69.8136 1.91699C69.8136 1.91699 69.537 2.02763 69.371 2.35955C69.2051 2.63615 69.0391 3.18935 69.2051 4.07447C69.2604 4.4617 69.1497 4.79362 69.0391 4.90426C69.0944 4.7383 69.0944 4.62766 69.0944 4.4617C69.0391 4.12978 68.9838 3.74254 68.6519 3.46595Z" fill="url(#paint0_linear_181_7103)"/>
<path d="M24.6726 12.4271C24.6726 5.62278 19.1406 0.0908203 12.3363 0.0908203C5.53193 0.0908203 0 5.62278 0 12.4271C0 19.2314 5.53193 24.7634 12.3363 24.7634C19.1406 24.7634 24.6726 19.2314 24.6726 12.4271Z" fill="url(#paint1_linear_181_7103)"/>
<path d="M9.4041 8.38692C9.34878 8.44224 9.34878 8.44223 9.4041 8.44223C9.4041 8.44223 9.73603 10.7103 9.0722 11.7061C8.46368 12.5359 7.85512 13.9189 8.13172 15.3572C8.51896 17.7359 10.8424 19.3402 13.2212 18.953C15.5999 18.5657 17.2042 16.2976 16.817 13.9189C16.7616 13.6423 16.7063 13.3657 16.5957 13.1444C16.4297 12.7572 16.2637 12.3699 16.1531 11.9274C15.1573 8.55288 15.9871 7.83372 16.0425 7.83372C16.0425 7.83372 16.0425 7.83372 16.0425 7.7784C16.0425 7.7784 16.0425 7.7784 16.0425 7.72308L15.9872 7.66776C15.9872 7.66776 14.1062 8.55288 14.2722 10.821C13.7743 10.1571 11.4509 6.89329 12.9446 3.35283C12.9446 3.35283 12.9446 3.35282 12.9446 3.2975C12.9446 3.2975 12.9446 3.29751 12.9446 3.24219C12.8893 3.24219 12.1701 3.62943 11.5616 4.62518C11.0084 5.56561 10.4552 7.2252 11.0637 9.93586C11.285 11.2082 10.7871 12.204 10.5658 12.5912C10.6764 12.1487 10.7318 11.7061 10.7318 11.2082C10.6211 10.4337 10.4552 9.21672 9.4041 8.38692Z" fill="white"/>
</g>
<defs>
<linearGradient id="paint0_linear_181_7103" x1="69.0855" y1="1.95356" x2="69.9035" y2="6.86916" gradientUnits="userSpaceOnUse">
<stop stop-color="#FFD008"/>
<stop offset="1" stop-color="#FDBF23"/>
</linearGradient>
<linearGradient id="paint1_linear_181_7103" x1="12.3272" y1="0.0783181" x2="12.3272" y2="24.747" gradientUnits="userSpaceOnUse">
<stop stop-color="#FFD008"/>
<stop offset="1" stop-color="#FDBF23"/>
</linearGradient>
</defs>
</svg>
