<svg xmlns="http://www.w3.org/2000/svg" width="289" height="100" fill="none"><mask id="a" width="289" height="100" x="0" y="0" maskUnits="userSpaceOnUse" style="mask-type:luminance"><path fill="#fff" d="M289 .902H0v98.561h289V.903Z"/></mask><g mask="url(#a)"><mask id="b" width="287" height="105" x="1" y="-2" maskUnits="userSpaceOnUse" style="mask-type:alpha"><path fill="#D9D9D9" d="M287.328-1.314H1.669v103.381h285.659V-1.314Z"/></mask><g mask="url(#b)"><path fill="#FFE400" d="m146.879 47.447-2.978 3.353v9.832h-13.037V20.85h13.037v14.435l12.924-14.435h14.442l-15.734 17.504 16.52 22.278h-15.34l-9.834-13.185ZM173.834 20.85h13.261v39.782h-13.261V20.85ZM232.252 20.85v39.782H221.35L206.402 42.56v18.072h-12.923V20.85h10.9l14.948 18.072V20.85h12.925ZM264.659 39.661h11.52v16.823c-2.322 1.63-5.02 2.88-8.092 3.75-3.072.872-6.087 1.308-9.046 1.308-4.196 0-7.961-.871-11.296-2.614-3.334-1.781-5.955-4.244-7.866-7.389-1.873-3.182-2.81-6.782-2.81-10.798s.937-7.596 2.81-10.741c1.911-3.183 4.552-5.646 7.923-7.388 3.41-1.781 7.249-2.672 11.52-2.672 3.859 0 7.305.663 10.339 1.99 3.072 1.288 5.62 3.182 7.643 5.683l-8.485 7.559c-2.472-2.918-5.414-4.376-8.824-4.376-2.921 0-5.243.89-6.967 2.67-1.723 1.781-2.585 4.206-2.585 7.275 0 2.993.844 5.4 2.529 7.218 1.723 1.819 4.008 2.728 6.856 2.728 1.686 0 3.296-.322 4.831-.966V39.66Z"/><path fill="#fff" d="M24.446 73.382c2.414 0 4.313.577 5.698 1.73 1.384 1.154 2.077 2.743 2.077 4.766 0 2.024-.693 3.612-2.077 4.766-1.385 1.154-3.284 1.73-5.698 1.73H19.84v5.645h-2.663V73.382h7.269Zm-.08 10.676c1.686 0 2.973-.355 3.86-1.065.888-.727 1.332-1.766 1.332-3.115 0-1.349-.444-2.378-1.331-3.088-.888-.728-2.175-1.092-3.861-1.092H19.84v8.36h4.526ZM63.31 87.36h-9.904l-2.05 4.66h-2.743l8.44-18.638h2.636l8.467 18.637H65.36l-2.05-4.66Zm-.932-2.13-4.02-9.132-4.02 9.132h8.04ZM99.64 92.02l-4.02-5.725c-.497.035-.887.053-1.171.053h-4.606v5.671H87.18V73.382h7.269c2.414 0 4.313.577 5.698 1.73 1.384 1.154 2.076 2.743 2.076 4.766 0 1.438-.355 2.663-1.065 3.675-.71 1.011-1.721 1.748-3.035 2.21l4.42 6.256h-2.902Zm-5.271-7.935c1.686 0 2.973-.364 3.86-1.091.888-.728 1.332-1.767 1.332-3.116 0-1.349-.444-2.378-1.331-3.088-.888-.728-2.175-1.092-3.861-1.092h-4.526v8.387h4.526ZM126.207 75.698h-6.39v-2.316h15.416v2.316h-6.39V92.02h-2.636V75.7ZM170.4 73.382v18.637h-2.183l-11.182-13.898V92.02h-2.663V73.382h2.183l11.182 13.898V73.382h2.663ZM205.746 89.703v2.316h-13.524V73.382h13.152v2.316h-10.489v5.725h9.345v2.263h-9.345v6.017h10.861ZM238.759 92.02l-4.019-5.725c-.498.035-.887.053-1.171.053h-4.608v5.671h-2.662V73.382h7.27c2.414 0 4.313.577 5.696 1.73 1.385 1.154 2.077 2.743 2.077 4.766 0 1.438-.355 2.663-1.065 3.675-.709 1.011-1.722 1.748-3.035 2.21l4.42 6.256h-2.903Zm-5.27-7.935c1.685 0 2.971-.364 3.86-1.091.887-.728 1.331-1.767 1.331-3.116 0-1.349-.444-2.378-1.331-3.088-.889-.728-2.175-1.092-3.86-1.092h-4.528v8.387h4.528ZM267.318 92.231c-1.402 0-2.76-.212-4.073-.638-1.296-.444-2.317-1.012-3.062-1.705l.984-2.076c.71.639 1.615 1.162 2.716 1.57 1.12.391 2.264.586 3.435.586 1.545 0 2.698-.257 3.461-.772.764-.532 1.145-1.233 1.145-2.103 0-.64-.213-1.154-.639-1.544-.407-.409-.923-.72-1.545-.932-.603-.213-1.463-.453-2.581-.72-1.403-.336-2.539-.674-3.409-1.01a5.792 5.792 0 0 1-2.209-1.545c-.605-.71-.905-1.66-.905-2.85 0-.993.257-1.89.772-2.688.532-.799 1.331-1.438 2.395-1.917 1.066-.48 2.387-.719 3.968-.719 1.1 0 2.183.142 3.249.426 1.064.284 1.978.692 2.741 1.225l-.879 2.13a9.308 9.308 0 0 0-2.502-1.119 9.05 9.05 0 0 0-2.609-.399c-1.509 0-2.645.275-3.408.825-.745.55-1.118 1.26-1.118 2.13 0 .64.212 1.163.638 1.571.426.39.951.701 1.571.932.639.213 1.5.444 2.582.692 1.403.338 2.531.675 3.383 1.012a5.586 5.586 0 0 1 2.183 1.544c.62.693.931 1.624.931 2.796a4.82 4.82 0 0 1-.799 2.69c-.533.798-1.339 1.437-2.422 1.916-1.082.462-2.414.692-3.994.692Z"/><path fill="#FFE400" d="M21.904 11.06 11.36 21.703l7.445 37.26L29.339 48.38l-7.434-37.32Zm82.906 47.902 7.445-37.259-10.544-10.643-7.43 37.32 10.529 10.582ZM92.784 49.46H30.831L20.554 59.782h82.513L92.785 49.46ZM17.46 61.605h-.005l-8.064-40.5 12.096-12.14h2.067l18.094 20.241 20.16-20.252 20.161 20.252 18.286-20.389 1.875.137 12.096 12.152-8.064 40.5v.004l-.005-.005H17.459Z"/></g></g></svg>
