<svg id="Payoneer_logo" data-name="Payoneer logo" xmlns="http://www.w3.org/2000/svg" viewBox="0 0 485.35584 102.78537"><path d="M14.02545,82.29836V55.96452h11.3382c21.09145,0,33.77071-11.82585,33.77071-29.38176C59.13436,10.00231,46.33317.37087,27.802.37087H.37087V82.29836ZM27.19237,12.56243c10.85055,0,18.16546,4.9986,18.16546,15.60519,0,9.75339-8.16832,15.60529-18.897,15.60529H14.02545V12.56243ZM248.58994,53.64815c0-16.9464-12.80116-29.74757-29.74747-29.74757A29.5844,29.5844,0,0,0,189.2169,53.892c0,17.06825,12.31356,29.50361,29.62557,29.50361a29.32873,29.32873,0,0,0,29.74747-29.74747Zm-46.44992,0c0-9.75328,7.1974-17.59677,16.70245-17.31211,10.50836.31472,17.044,7.628,16.82437,17.31211-.22109,9.7507-7.31488,17.31211-16.82437,17.31211-9.50939,0-16.70245-7.55892-16.70245-17.31211Zm174.94935,3.41358a33.44361,33.44361,0,0,0,.36576-5.97385c0-15.971-12.19156-27.1873-27.67491-27.1873A29.14481,29.14481,0,0,0,320.2765,53.40425c0,17.43406,11.58206,29.99137,29.138,29.99137,11.82581,0,21.70105-5.60815,25.84619-13.41077l-10.119-5.608c-2.68212,4.38889-8.41217,7.43682-14.87373,7.43682-9.02184,0-15.36139-5.48625-16.70251-14.75189Zm-42.79249-9.87519c1.70676-7.55871,7.31492-12.19161,15.11759-12.19161,7.92447,0,13.89838,4.9986,14.62988,12.19161ZM174.95277,24.99779l-15.8491,40.84187L144.96149,24.99779H130.20963L151.423,82.29836l-8.778,20.11613h14.02033l32.3078-77.4167Zm310.03219.244a20.1485,20.1485,0,0,0-5.6081-.73156c-5.60815,0-11.94776,3.16978-14.63,8.65608V24.99779h-12.923V82.29836h12.923V51.69749c0-10.60665,7.07116-14.99574,14.38613-14.99574a22.9102,22.9102,0,0,1,5.73.60971l.122-12.06966ZM442.31437,57.06173a33.44451,33.44451,0,0,0,.36575-5.97385c0-15.971-12.19156-27.1873-27.6749-27.1873A29.1447,29.1447,0,0,0,385.5016,53.40425c0,17.43406,11.582,29.99137,29.13782,29.99137,11.82591,0,21.70105-5.60815,25.84624-13.41077l-10.119-5.608c-2.68217,4.38889-8.41222,7.43682-14.87384,7.43682-9.02168,0-15.36134-5.48625-16.7024-14.75189Zm-42.79244-9.87519c1.70682-7.55871,7.31492-12.19161,15.11749-12.19161,7.92457,0,13.89848,4.9986,14.63,12.19161ZM109.72775,53.5262A17.75849,17.75849,0,0,1,91.5623,71.69167c-9.99714,0-16.7025-7.80262-16.7025-18.16547A18.216,18.216,0,0,1,92.78144,35.48269c10.119,0,16.94631,7.80252,16.94631,18.04351Zm201.77082-3.90133c0-15.971-7.80257-25.72429-22.4325-25.72429-7.68067,0-14.75179,3.29178-18.65313,8.53423v-7.437h-13.045V82.29836h13.045V51.20983c0-9.63144,6.94917-15.72714,15.23949-15.72714,8.29023,0,12.67922,5.60815,12.67922,15.11748V82.29836h13.16692V49.62487ZM109.72775,24.99779v7.437c-3.77936-4.99859-9.8752-8.53423-19.01885-8.53423-15.8491,0-29.016,14.02043-29.016,30.479,0,16.5807,11.3382,29.01606,26.57767,29.01606,9.87521,0,17.31208-3.53553,21.4572-9.38748v8.29022h12.80116V24.99779Z" style="fill:#fff"/></svg>