<?xml version="1.0" encoding="utf-8"?>
<!-- Generator: Adobe Illustrator 27.9.0, SVG Export Plug-In . SVG Version: 6.00 Build 0)  -->
<svg version="1.1" xmlns="http://www.w3.org/2000/svg" xmlns:xlink="http://www.w3.org/1999/xlink" x="0px" y="0px"
	 viewBox="0 0 302.71 56.51" style="enable-background:new 0 0 302.71 56.51;" xml:space="preserve">
<style type="text/css">
	.st0{fill:#FFFFFF;}
</style>
<g id="Layer_1">
	<g>
		<path class="st0" d="M75.17,34.64H53.01V19.11c0-1.77-1.43-3.2-3.2-3.2h0c-1.77,0-3.2,1.43-3.2,3.2v20.44
			c0,0.69,0.56,1.24,1.24,1.24h27.32c1.7,0,3.07-1.38,3.07-3.07C78.25,36.02,76.87,34.64,75.17,34.64z"/>
	</g>
</g>
<g id="Шар_7">
	<path class="st0" d="M103.23,16.62c-0.38-0.52-0.9-0.79-1.57-0.79h-2.34c-0.67,0-1.19,0.26-1.57,0.79L81.05,39.3
		c-0.31,0.4-0.39,0.75-0.23,1.05c0.15,0.3,0.49,0.45,1.01,0.45h5.08c0.71,0,1.21-0.26,1.49-0.78l3.06-4.23h18.05l3.06,4.23
		c0.33,0.52,0.83,0.78,1.49,0.78h5.08c0.52,0,0.86-0.15,1.01-0.45c0.15-0.3,0.08-0.65-0.23-1.05L103.23,16.62z M95.23,30.52
		l5.26-7.29l5.26,7.29H95.23z"/>
</g>
<g id="Шар_8">
	<path class="st0" d="M209.65,16.62c-0.38-0.52-0.9-0.79-1.57-0.79h-2.35c-0.66,0-1.18,0.26-1.56,0.79l-16.7,22.68
		c-0.31,0.4-0.39,0.75-0.23,1.05c0.15,0.3,0.49,0.45,1.01,0.45h5.08c0.71,0,1.21-0.26,1.49-0.78l3.06-4.23h18.06l3.06,4.23
		c0.34,0.52,0.83,0.78,1.49,0.78h5.08c0.52,0,0.86-0.15,1.01-0.45c0.15-0.3,0.08-0.65-0.23-1.05L209.65,16.62z M201.65,30.52
		l5.26-7.29l5.26,7.29H201.65z"/>
</g>
<g id="Шар_3">
	<path class="st0" d="M147.1,15.91h-5.94c-0.59,0-1.11,0.19-1.56,0.57l-8.96,8l-8.99-8c-0.36-0.38-0.88-0.57-1.56-0.57h-5.94
		c-0.57,0-0.91,0.15-1.03,0.46c-0.12,0.31,0.04,0.66,0.46,1.07l13.79,12.23v7.93c0,1.77,1.43,3.2,3.2,3.2s3.2-1.43,3.2-3.2v-7.86
		l13.9-12.3c0.45-0.4,0.61-0.76,0.48-1.07C148.02,16.07,147.67,15.91,147.1,15.91z"/>
</g>
<g id="Шар_4">
	<path class="st0" d="M299.51,15.91c-1.77,0-3.2,1.43-3.2,3.2v6.82h-23.03v-6.82c0-1.77-1.43-3.2-3.2-3.2h0
		c-1.77,0-3.2,1.43-3.2,3.2v18.48c0,1.77,1.43,3.2,3.2,3.2s3.2-1.43,3.2-3.2v-5.62h23.03v5.62c0,1.77,1.43,3.2,3.2,3.2
		s3.2-1.43,3.2-3.2V19.11C302.71,17.34,301.28,15.91,299.51,15.91z"/>
</g>
<g id="Шар_5">
	<path class="st0" d="M169.28,21.39c6.17,0,10.73,1.18,10.77,1.19c1.63,0.43,3.3-0.53,3.73-2.16c0.43-1.63-0.53-3.3-2.16-3.73
		c-0.21-0.06-5.33-1.4-12.34-1.4c-13.15,0-20.69,4.73-20.69,12.97s7.54,12.97,20.69,12.97c7.01,0,12.13-1.34,12.34-1.4
		c1.63-0.43,2.59-2.1,2.16-3.73c-0.43-1.63-2.1-2.59-3.72-2.17c-0.05,0.01-4.61,1.19-10.78,1.19c-3.42,0-14.59-0.5-14.59-6.87
		S165.86,21.39,169.28,21.39z"/>
</g>
<g id="Шар_6">
	<path class="st0" d="M260.89,29.61c-0.53-0.46-1.07-0.86-1.6-1.21c-0.53-0.34-1.27-0.65-2.22-0.92c-0.95-0.27-1.76-0.5-2.43-0.68
		c-0.68-0.18-1.62-0.34-2.83-0.5c-1.21-0.15-2.15-0.27-2.83-0.34s-1.65-0.17-2.93-0.28c-0.33-0.02-0.58-0.05-0.75-0.07
		c-0.78-0.07-1.6-0.15-2.45-0.23c-0.85-0.08-1.56-0.15-2.13-0.2c-0.57-0.05-1.17-0.1-1.79-0.16c-0.63-0.06-1.14-0.11-1.53-0.16
		c-0.39-0.05-0.78-0.11-1.17-0.18c-0.39-0.07-0.71-0.14-0.94-0.21c-0.24-0.07-0.45-0.15-0.64-0.25c-0.19-0.09-0.32-0.2-0.39-0.32
		c-0.07-0.12-0.11-0.26-0.11-0.43c0-0.19,0.07-0.37,0.2-0.55c0.13-0.18,0.41-0.37,0.85-0.57c0.44-0.2,1.01-0.38,1.72-0.53
		c0.71-0.15,1.69-0.28,2.95-0.37c1.26-0.09,2.71-0.14,4.37-0.14h0.89c0.46,0,0.9,0.01,1.34,0.02c0.09,0.01,0.18,0.03,0.27,0.03
		c0.25,0,0.48,0,0.73,0.01c5.82,0.09,10.05,1.18,10.09,1.19c0.25,0.07,0.5,0.1,0.75,0.1c0.1,0,0.19-0.01,0.29-0.02
		c1.16-0.12,2.18-0.93,2.5-2.12c0.05-0.19,0.08-0.38,0.09-0.57c0.03-0.55-0.1-1.09-0.35-1.56c-0.37-0.67-0.99-1.2-1.79-1.41
		c-0.18-0.05-3.65-0.95-8.75-1.28c-1.59-0.14-3.31-0.21-5.17-0.21h-0.89c-11.11,0-16.67,2.58-16.67,7.75c0,0.66,0.08,1.27,0.23,1.83
		c0.15,0.56,0.36,1.05,0.6,1.47c0.25,0.43,0.63,0.82,1.14,1.19c0.51,0.37,1.01,0.68,1.49,0.94c0.49,0.26,1.15,0.5,1.99,0.73
		c0.84,0.23,1.62,0.41,2.33,0.55c0.71,0.14,1.66,0.3,2.84,0.46c1.18,0.17,2.25,0.3,3.18,0.39c0.94,0.1,2.16,0.21,3.68,0.36
		c0.69,0.07,1.44,0.14,2.26,0.2c0.82,0.06,1.49,0.11,2.01,0.14c0.52,0.04,1.09,0.08,1.71,0.14c0.62,0.06,1.11,0.11,1.49,0.16
		c0.38,0.05,0.77,0.1,1.17,0.16c0.4,0.06,0.72,0.13,0.94,0.21c0.22,0.08,0.44,0.18,0.64,0.28c0.2,0.11,0.34,0.23,0.43,0.37
		c0.08,0.14,0.12,0.31,0.12,0.5c0,0.36-0.27,0.68-0.8,0.96c-0.53,0.28-1.57,0.54-3.11,0.76c-1.54,0.23-3.52,0.34-5.94,0.34h-0.43
		c-0.52,0-1.02-0.01-1.52-0.01c-0.15-0.03-0.31-0.05-0.47-0.05c-2.84,0-5.33-0.25-7.21-0.52c-2.22-0.32-3.58-0.67-3.6-0.68
		c-1.55-0.41-3.12,0.51-3.54,2.05c-0.34,1.29,0.25,2.59,1.34,3.23c0.22,0.13,0.45,0.24,0.71,0.31c0.09,0.02,1.11,0.29,2.81,0.59
		c0.02,0,0.04,0.01,0.06,0.01c2.9,0.6,6.71,0.91,11.43,0.91h0.43c3.32,0,6.16-0.25,8.53-0.76c2.37-0.51,4.28-1.37,5.72-2.59
		s2.17-2.77,2.17-4.64c0-0.73-0.12-1.4-0.36-2.01C261.81,30.61,261.42,30.08,260.89,29.61z"/>
</g>
<g id="Шар_2">
	<path class="st0" d="M40.41,18.61c-0.82-0.83-1.93-1.49-3.34-1.97c-1.41-0.49-3.03-0.73-4.85-0.73H9.11
		c-0.69,0-1.24,0.56-1.24,1.24v20.44c0,1.77,1.43,3.2,3.2,3.2c0.88,0,1.68-0.36,2.26-0.94c0.58-0.58,0.94-1.38,0.94-2.26v-4.76
		h17.95c1.82,0,3.44-0.24,4.85-0.73c1.41-0.48,2.53-1.14,3.34-1.97c0.81-0.83,1.43-1.73,1.85-2.7c0.42-0.97,0.62-1.99,0.62-3.06
		c0-1.07-0.21-2.08-0.62-3.06C41.84,20.34,41.22,19.44,40.41,18.61z M35.61,26.41c-0.58,0.37-1.71,0.55-3.4,0.55H14.27v-4.91h17.95
		c1.73,0,2.87,0.15,3.43,0.45c0.56,0.3,0.84,0.92,0.84,1.86C36.48,25.37,36.19,26.05,35.61,26.41z"/>
</g>
</svg>
