<svg xmlns="http://www.w3.org/2000/svg" width="110" height="111" fill="none"><path fill="#556A74" d="M0 .086h4.4v4.4H0v-4.4Zm4.4 0h4.4v4.4H4.4v-4.4Zm4.4 0h4.4v4.4H8.8v-4.4Zm4.4 0h4.4v4.4h-4.4v-4.4Zm4.4 0H22v4.4h-4.4v-4.4Zm4.4 0h4.4v4.4H22v-4.4Zm4.4 0h4.4v4.4h-4.4v-4.4Zm13.2 0H44v4.4h-4.4v-4.4Zm13.2 0h4.4v4.4h-4.4v-4.4Zm4.4 0h4.4v4.4h-4.4v-4.4Zm4.4 0H66v4.4h-4.4v-4.4Zm17.6 0h4.4v4.4h-4.4v-4.4Zm4.4 0H88v4.4h-4.4v-4.4Zm4.4 0h4.4v4.4H88v-4.4Zm4.4 0h4.4v4.4h-4.4v-4.4Zm4.4 0h4.4v4.4h-4.4v-4.4Zm4.4 0h4.4v4.4h-4.4v-4.4Zm4.4 0h4.4v4.4h-4.4v-4.4ZM0 4.486h4.4v4.4H0v-4.4Zm26.4 0h4.4v4.4h-4.4v-4.4Zm8.8 0h4.4v4.4h-4.4v-4.4Zm4.4 0H44v4.4h-4.4v-4.4Zm4.4 0h4.4v4.4H44v-4.4Zm13.2 0h4.4v4.4h-4.4v-4.4Zm13.2 0h4.4v4.4h-4.4v-4.4Zm8.8 0h4.4v4.4h-4.4v-4.4Zm26.4 0h4.4v4.4h-4.4v-4.4ZM0 8.886h4.4v4.4H0v-4.4Zm8.8 0h4.4v4.4H8.8v-4.4Zm4.4 0h4.4v4.4h-4.4v-4.4Zm4.4 0H22v4.4h-4.4v-4.4Zm8.8 0h4.4v4.4h-4.4v-4.4Zm13.2 0H44v4.4h-4.4v-4.4Zm4.4 0h4.4v4.4H44v-4.4Zm13.2 0h4.4v4.4h-4.4v-4.4Zm8.8 0h4.4v4.4H66v-4.4Zm13.2 0h4.4v4.4h-4.4v-4.4Zm8.8 0h4.4v4.4H88v-4.4Zm4.4 0h4.4v4.4h-4.4v-4.4Zm4.4 0h4.4v4.4h-4.4v-4.4Zm8.8 0h4.4v4.4h-4.4v-4.4ZM0 13.286h4.4v4.4H0v-4.4Zm8.8 0h4.4v4.4H8.8v-4.4Zm4.4 0h4.4v4.4h-4.4v-4.4Zm4.4 0H22v4.4h-4.4v-4.4Zm8.8 0h4.4v4.4h-4.4v-4.4Zm8.8 0h4.4v4.4h-4.4v-4.4Zm22 0h4.4v4.4h-4.4v-4.4Zm13.2 0h4.4v4.4h-4.4v-4.4Zm8.8 0h4.4v4.4h-4.4v-4.4Zm8.8 0h4.4v4.4H88v-4.4Zm4.4 0h4.4v4.4h-4.4v-4.4Zm4.4 0h4.4v4.4h-4.4v-4.4Zm8.8 0h4.4v4.4h-4.4v-4.4ZM0 17.686h4.4v4.4H0v-4.4Zm8.8 0h4.4v4.4H8.8v-4.4Zm4.4 0h4.4v4.4h-4.4v-4.4Zm4.4 0H22v4.4h-4.4v-4.4Zm8.8 0h4.4v4.4h-4.4v-4.4Zm8.8 0h4.4v4.4h-4.4v-4.4Zm4.4 0H44v4.4h-4.4v-4.4Zm4.4 0h4.4v4.4H44v-4.4Zm4.4 0h4.4v4.4h-4.4v-4.4Zm8.8 0h4.4v4.4h-4.4v-4.4Zm4.4 0H66v4.4h-4.4v-4.4Zm8.8 0h4.4v4.4h-4.4v-4.4Zm8.8 0h4.4v4.4h-4.4v-4.4Zm8.8 0h4.4v4.4H88v-4.4Zm4.4 0h4.4v4.4h-4.4v-4.4Zm4.4 0h4.4v4.4h-4.4v-4.4Zm8.8 0h4.4v4.4h-4.4v-4.4ZM0 22.086h4.4v4.4H0v-4.4Zm26.4 0h4.4v4.4h-4.4v-4.4Zm13.2 0H44v4.4h-4.4v-4.4Zm8.8 0h4.4v4.4h-4.4v-4.4Zm30.8 0h4.4v4.4h-4.4v-4.4Zm26.4 0h4.4v4.4h-4.4v-4.4ZM0 26.486h4.4v4.4H0v-4.4Zm4.4 0h4.4v4.4H4.4v-4.4Zm4.4 0h4.4v4.4H8.8v-4.4Zm4.4 0h4.4v4.4h-4.4v-4.4Zm4.4 0H22v4.4h-4.4v-4.4Zm4.4 0h4.4v4.4H22v-4.4Zm4.4 0h4.4v4.4h-4.4v-4.4Zm8.8 0h4.4v4.4h-4.4v-4.4Zm8.8 0h4.4v4.4H44v-4.4Zm8.8 0h4.4v4.4h-4.4v-4.4Zm8.8 0H66v4.4h-4.4v-4.4Zm8.8 0h4.4v4.4h-4.4v-4.4Zm8.8 0h4.4v4.4h-4.4v-4.4Zm4.4 0H88v4.4h-4.4v-4.4Zm4.4 0h4.4v4.4H88v-4.4Zm4.4 0h4.4v4.4h-4.4v-4.4Zm4.4 0h4.4v4.4h-4.4v-4.4Zm4.4 0h4.4v4.4h-4.4v-4.4Zm4.4 0h4.4v4.4h-4.4v-4.4Zm-70.4 4.4h4.4v4.4h-4.4v-4.4Zm4.4 0H44v4.4h-4.4v-4.4Zm4.4 0h4.4v4.4H44v-4.4Zm8.8 0h4.4v4.4h-4.4v-4.4Zm4.4 0h4.4v4.4h-4.4v-4.4Zm13.2 0h4.4v4.4h-4.4v-4.4Zm-66 4.4h4.4v4.4H4.4v-4.4Zm8.8 0h4.4v4.4h-4.4v-4.4Zm4.4 0H22v4.4h-4.4v-4.4Zm4.4 0h4.4v4.4H22v-4.4Zm4.4 0h4.4v4.4h-4.4v-4.4Zm8.8 0h4.4v4.4h-4.4v-4.4Zm8.8 0h4.4v4.4H44v-4.4Zm17.6 0H66v4.4h-4.4v-4.4Zm8.8 0h4.4v4.4h-4.4v-4.4Zm4.4 0h4.4v4.4h-4.4v-4.4Zm4.4 0h4.4v4.4h-4.4v-4.4Zm8.8 0h4.4v4.4H88v-4.4Zm4.4 0h4.4v4.4h-4.4v-4.4Zm8.8 0h4.4v4.4h-4.4v-4.4ZM0 39.686h4.4v4.4H0v-4.4Zm4.4 0h4.4v4.4H4.4v-4.4Zm4.4 0h4.4v4.4H8.8v-4.4Zm4.4 0h4.4v4.4h-4.4v-4.4Zm4.4 0H22v4.4h-4.4v-4.4Zm4.4 0h4.4v4.4H22v-4.4Zm8.8 0h4.4v4.4h-4.4v-4.4Zm22 0h4.4v4.4h-4.4v-4.4Zm8.8 0H66v4.4h-4.4v-4.4Zm4.4 0h4.4v4.4H66v-4.4Zm17.6 0H88v4.4h-4.4v-4.4Zm4.4 0h4.4v4.4H88v-4.4Zm4.4 0h4.4v4.4h-4.4v-4.4Zm4.4 0h4.4v4.4h-4.4v-4.4Zm4.4 0h4.4v4.4h-4.4v-4.4Zm-88 4.4h4.4v4.4h-4.4v-4.4Zm8.8 0h4.4v4.4H22v-4.4Zm4.4 0h4.4v4.4h-4.4v-4.4Zm8.8 0h4.4v4.4h-4.4v-4.4Zm8.8 0h4.4v4.4H44v-4.4Zm4.4 0h4.4v4.4h-4.4v-4.4Zm13.2 0H66v4.4h-4.4v-4.4Zm4.4 0h4.4v4.4H66v-4.4Zm13.2 0h4.4v4.4h-4.4v-4.4Zm4.4 0H88v4.4h-4.4v-4.4Zm4.4 0h4.4v4.4H88v-4.4Zm4.4 0h4.4v4.4h-4.4v-4.4Zm13.2 0h4.4v4.4h-4.4v-4.4ZM0 48.486h4.4v4.4H0v-4.4Zm4.4 0h4.4v4.4H4.4v-4.4Zm4.4 0h4.4v4.4H8.8v-4.4Zm22 0h4.4v4.4h-4.4v-4.4Zm4.4 0h4.4v4.4h-4.4v-4.4Zm13.2 0h4.4v4.4h-4.4v-4.4Zm13.2 0H66v4.4h-4.4v-4.4Zm4.4 0h4.4v4.4H66v-4.4Zm8.8 0h4.4v4.4h-4.4v-4.4Zm17.6 0h4.4v4.4h-4.4v-4.4Zm4.4 0h4.4v4.4h-4.4v-4.4Zm4.4 0h4.4v4.4h-4.4v-4.4Zm4.4 0h4.4v4.4h-4.4v-4.4ZM0 52.886h4.4v4.4H0v-4.4Zm4.4 0h4.4v4.4H4.4v-4.4Zm8.8 0h4.4v4.4h-4.4v-4.4Zm13.2 0h4.4v4.4h-4.4v-4.4Zm13.2 0H44v4.4h-4.4v-4.4Zm4.4 0h4.4v4.4H44v-4.4Zm4.4 0h4.4v4.4h-4.4v-4.4Zm8.8 0h4.4v4.4h-4.4v-4.4Zm4.4 0H66v4.4h-4.4v-4.4Zm8.8 0h4.4v4.4h-4.4v-4.4Zm8.8 0h4.4v4.4h-4.4v-4.4Zm4.4 0H88v4.4h-4.4v-4.4Zm22 0h4.4v4.4h-4.4v-4.4ZM0 57.286h4.4v4.4H0v-4.4Zm13.2 0h4.4v4.4h-4.4v-4.4Zm22 0h4.4v4.4h-4.4v-4.4Zm8.8 0h4.4v4.4H44v-4.4Zm4.4 0h4.4v4.4h-4.4v-4.4Zm4.4 0h4.4v4.4h-4.4v-4.4Zm8.8 0H66v4.4h-4.4v-4.4Zm4.4 0h4.4v4.4H66v-4.4Zm22 0h4.4v4.4H88v-4.4Zm13.2 0h4.4v4.4h-4.4v-4.4ZM0 61.686h4.4v4.4H0v-4.4Zm4.4 0h4.4v4.4H4.4v-4.4Zm4.4 0h4.4v4.4H8.8v-4.4Zm4.4 0h4.4v4.4h-4.4v-4.4Zm8.8 0h4.4v4.4H22v-4.4Zm4.4 0h4.4v4.4h-4.4v-4.4Zm13.2 0H44v4.4h-4.4v-4.4Zm8.8 0h4.4v4.4h-4.4v-4.4Zm4.4 0h4.4v4.4h-4.4v-4.4Zm13.2 0h4.4v4.4H66v-4.4Zm4.4 0h4.4v4.4h-4.4v-4.4Zm4.4 0h4.4v4.4h-4.4v-4.4Zm4.4 0h4.4v4.4h-4.4v-4.4Zm8.8 0h4.4v4.4H88v-4.4Zm4.4 0h4.4v4.4h-4.4v-4.4Zm4.4 0h4.4v4.4h-4.4v-4.4Zm4.4 0h4.4v4.4h-4.4v-4.4Zm4.4 0h4.4v4.4h-4.4v-4.4ZM0 66.086h4.4v4.4H0v-4.4Zm13.2 0h4.4v4.4h-4.4v-4.4Zm17.6 0h4.4v4.4h-4.4v-4.4Zm4.4 0h4.4v4.4h-4.4v-4.4Zm4.4 0H44v4.4h-4.4v-4.4Zm4.4 0h4.4v4.4H44v-4.4Zm22 0h4.4v4.4H66v-4.4Zm4.4 0h4.4v4.4h-4.4v-4.4Zm13.2 0H88v4.4h-4.4v-4.4Zm8.8 0h4.4v4.4h-4.4v-4.4Zm4.4 0h4.4v4.4h-4.4v-4.4Zm8.8 0h4.4v4.4h-4.4v-4.4ZM0 70.486h4.4v4.4H0v-4.4Zm13.2 0h4.4v4.4h-4.4v-4.4Zm8.8 0h4.4v4.4H22v-4.4Zm4.4 0h4.4v4.4h-4.4v-4.4Zm4.4 0h4.4v4.4h-4.4v-4.4Zm4.4 0h4.4v4.4h-4.4v-4.4Zm4.4 0H44v4.4h-4.4v-4.4Zm4.4 0h4.4v4.4H44v-4.4Zm8.8 0h4.4v4.4h-4.4v-4.4Zm4.4 0h4.4v4.4h-4.4v-4.4Zm4.4 0H66v4.4h-4.4v-4.4Zm4.4 0h4.4v4.4H66v-4.4Zm4.4 0h4.4v4.4h-4.4v-4.4Zm4.4 0h4.4v4.4h-4.4v-4.4Zm4.4 0h4.4v4.4h-4.4v-4.4Zm4.4 0H88v4.4h-4.4v-4.4Zm4.4 0h4.4v4.4H88v-4.4Zm8.8 0h4.4v4.4h-4.4v-4.4Zm4.4 0h4.4v4.4h-4.4v-4.4Zm-66 4.4h4.4v4.4h-4.4v-4.4Zm4.4 0H44v4.4h-4.4v-4.4Zm4.4 0h4.4v4.4H44v-4.4Zm8.8 0h4.4v4.4h-4.4v-4.4Zm17.6 0h4.4v4.4h-4.4v-4.4Zm17.6 0h4.4v4.4H88v-4.4Zm8.8 0h4.4v4.4h-4.4v-4.4Zm4.4 0h4.4v4.4h-4.4v-4.4ZM0 79.286h4.4v4.4H0v-4.4Zm4.4 0h4.4v4.4H4.4v-4.4Zm4.4 0h4.4v4.4H8.8v-4.4Zm4.4 0h4.4v4.4h-4.4v-4.4Zm4.4 0H22v4.4h-4.4v-4.4Zm4.4 0h4.4v4.4H22v-4.4Zm4.4 0h4.4v4.4h-4.4v-4.4Zm13.2 0H44v4.4h-4.4v-4.4Zm13.2 0h4.4v4.4h-4.4v-4.4Zm8.8 0H66v4.4h-4.4v-4.4Zm8.8 0h4.4v4.4h-4.4v-4.4Zm8.8 0h4.4v4.4h-4.4v-4.4Zm8.8 0h4.4v4.4H88v-4.4Zm17.6 0h4.4v4.4h-4.4v-4.4ZM0 83.686h4.4v4.4H0v-4.4Zm26.4 0h4.4v4.4h-4.4v-4.4Zm8.8 0h4.4v4.4h-4.4v-4.4Zm4.4 0H44v4.4h-4.4v-4.4Zm26.4 0h4.4v4.4H66v-4.4Zm4.4 0h4.4v4.4h-4.4v-4.4Zm17.6 0h4.4v4.4H88v-4.4Zm17.6 0h4.4v4.4h-4.4v-4.4ZM0 88.086h4.4v4.4H0v-4.4Zm8.8 0h4.4v4.4H8.8v-4.4Zm4.4 0h4.4v4.4h-4.4v-4.4Zm4.4 0H22v4.4h-4.4v-4.4Zm8.8 0h4.4v4.4h-4.4v-4.4Zm8.8 0h4.4v4.4h-4.4v-4.4Zm4.4 0H44v4.4h-4.4v-4.4Zm4.4 0h4.4v4.4H44v-4.4Zm4.4 0h4.4v4.4h-4.4v-4.4Zm8.8 0h4.4v4.4h-4.4v-4.4Zm4.4 0H66v4.4h-4.4v-4.4Zm4.4 0h4.4v4.4H66v-4.4Zm4.4 0h4.4v4.4h-4.4v-4.4Zm4.4 0h4.4v4.4h-4.4v-4.4Zm4.4 0h4.4v4.4h-4.4v-4.4Zm4.4 0H88v4.4h-4.4v-4.4Zm4.4 0h4.4v4.4H88v-4.4Zm13.2 0h4.4v4.4h-4.4v-4.4Zm4.4 0h4.4v4.4h-4.4v-4.4ZM0 92.486h4.4v4.4H0v-4.4Zm8.8 0h4.4v4.4H8.8v-4.4Zm4.4 0h4.4v4.4h-4.4v-4.4Zm4.4 0H22v4.4h-4.4v-4.4Zm8.8 0h4.4v4.4h-4.4v-4.4Zm8.8 0h4.4v4.4h-4.4v-4.4Zm26.4 0H66v4.4h-4.4v-4.4Zm4.4 0h4.4v4.4H66v-4.4Zm4.4 0h4.4v4.4h-4.4v-4.4Zm4.4 0h4.4v4.4h-4.4v-4.4Zm4.4 0h4.4v4.4h-4.4v-4.4Zm22 0h4.4v4.4h-4.4v-4.4Zm4.4 0h4.4v4.4h-4.4v-4.4ZM0 96.886h4.4v4.4H0v-4.4Zm8.8 0h4.4v4.4H8.8v-4.4Zm4.4 0h4.4v4.4h-4.4v-4.4Zm4.4 0H22v4.4h-4.4v-4.4Zm8.8 0h4.4v4.4h-4.4v-4.4Zm26.4 0h4.4v4.4h-4.4v-4.4Zm4.4 0h4.4v4.4h-4.4v-4.4Zm4.4 0H66v4.4h-4.4v-4.4Zm13.2 0h4.4v4.4h-4.4v-4.4Zm13.2 0h4.4v4.4H88v-4.4Zm4.4 0h4.4v4.4h-4.4v-4.4Zm4.4 0h4.4v4.4h-4.4v-4.4Zm4.4 0h4.4v4.4h-4.4v-4.4Zm4.4 0h4.4v4.4h-4.4v-4.4ZM0 101.286h4.4v4.4H0v-4.4Zm26.4 0h4.4v4.4h-4.4v-4.4Zm8.8 0h4.4v4.4h-4.4v-4.4Zm4.4 0H44v4.4h-4.4v-4.4Zm4.4 0h4.4v4.4H44v-4.4Zm13.2 0h4.4v4.4h-4.4v-4.4Zm8.8 0h4.4v4.4H66v-4.4Zm8.8 0h4.4v4.4h-4.4v-4.4Zm8.8 0H88v4.4h-4.4v-4.4Zm4.4 0h4.4v4.4H88v-4.4Zm8.8 0h4.4v4.4h-4.4v-4.4Zm4.4 0h4.4v4.4h-4.4v-4.4Zm4.4 0h4.4v4.4h-4.4v-4.4ZM0 105.686h4.4v4.4H0v-4.4Zm4.4 0h4.4v4.4H4.4v-4.4Zm4.4 0h4.4v4.4H8.8v-4.4Zm4.4 0h4.4v4.4h-4.4v-4.4Zm4.4 0H22v4.4h-4.4v-4.4Zm4.4 0h4.4v4.4H22v-4.4Zm4.4 0h4.4v4.4h-4.4v-4.4Zm22 0h4.4v4.4h-4.4v-4.4Zm4.4 0h4.4v4.4h-4.4v-4.4Zm4.4 0h4.4v4.4h-4.4v-4.4Zm4.4 0H66v4.4h-4.4v-4.4Zm8.8 0h4.4v4.4h-4.4v-4.4Zm4.4 0h4.4v4.4h-4.4v-4.4Zm4.4 0h4.4v4.4h-4.4v-4.4Zm13.2 0h4.4v4.4h-4.4v-4.4Zm13.2 0h4.4v4.4h-4.4v-4.4Z"/></svg>
