<svg width="118" height="118" viewBox="0 0 118 118" fill="none" xmlns="http://www.w3.org/2000/svg">
<path d="M0 0H3.18919V3.18919H0V0ZM3.18919 0H6.37838V3.18919H3.18919V0ZM6.37838 0H9.56757V3.18919H6.37838V0ZM9.56757 0H12.7568V3.18919H9.56757V0ZM12.7568 0H15.9459V3.18919H12.7568V0ZM15.9459 0H19.1351V3.18919H15.9459V0ZM19.1351 0H22.3243V3.18919H19.1351V0ZM25.5135 0H28.7027V3.18919H25.5135V0ZM28.7027 0H31.8919V3.18919H28.7027V0ZM47.8378 0H51.027V3.18919H47.8378V0ZM51.027 0H54.2162V3.18919H51.027V0ZM57.4054 0H60.5946V3.18919H57.4054V0ZM89.2973 0H92.4865V3.18919H89.2973V0ZM95.6757 0H98.8649V3.18919H95.6757V0ZM98.8649 0H102.054V3.18919H98.8649V0ZM102.054 0H105.243V3.18919H102.054V0ZM105.243 0H108.432V3.18919H105.243V0ZM108.432 0H111.622V3.18919H108.432V0ZM111.622 0H114.811V3.18919H111.622V0ZM114.811 0H118V3.18919H114.811V0ZM0 3.18919H3.18919V6.37838H0V3.18919ZM19.1351 3.18919H22.3243V6.37838H19.1351V3.18919ZM28.7027 3.18919H31.8919V6.37838H28.7027V3.18919ZM47.8378 3.18919H51.027V6.37838H47.8378V3.18919ZM51.027 3.18919H54.2162V6.37838H51.027V3.18919ZM70.1622 3.18919H73.3513V6.37838H70.1622V3.18919ZM73.3513 3.18919H76.5405V6.37838H73.3513V3.18919ZM76.5405 3.18919H79.7297V6.37838H76.5405V3.18919ZM79.7297 3.18919H82.9189V6.37838H79.7297V3.18919ZM86.1081 3.18919H89.2973V6.37838H86.1081V3.18919ZM89.2973 3.18919H92.4865V6.37838H89.2973V3.18919ZM95.6757 3.18919H98.8649V6.37838H95.6757V3.18919ZM114.811 3.18919H118V6.37838H114.811V3.18919ZM0 6.37838H3.18919V9.56757H0V6.37838ZM6.37838 6.37838H9.56757V9.56757H6.37838V6.37838ZM9.56757 6.37838H12.7568V9.56757H9.56757V6.37838ZM12.7568 6.37838H15.9459V9.56757H12.7568V6.37838ZM19.1351 6.37838H22.3243V9.56757H19.1351V6.37838ZM31.8919 6.37838H35.0811V9.56757H31.8919V6.37838ZM38.2703 6.37838H41.4595V9.56757H38.2703V6.37838ZM51.027 6.37838H54.2162V9.56757H51.027V6.37838ZM54.2162 6.37838H57.4054V9.56757H54.2162V6.37838ZM57.4054 6.37838H60.5946V9.56757H57.4054V6.37838ZM66.973 6.37838H70.1622V9.56757H66.973V6.37838ZM73.3513 6.37838H76.5405V9.56757H73.3513V6.37838ZM82.9189 6.37838H86.1081V9.56757H82.9189V6.37838ZM89.2973 6.37838H92.4865V9.56757H89.2973V6.37838ZM95.6757 6.37838H98.8649V9.56757H95.6757V6.37838ZM102.054 6.37838H105.243V9.56757H102.054V6.37838ZM105.243 6.37838H108.432V9.56757H105.243V6.37838ZM108.432 6.37838H111.622V9.56757H108.432V6.37838ZM114.811 6.37838H118V9.56757H114.811V6.37838ZM0 9.56757H3.18919V12.7568H0V9.56757ZM6.37838 9.56757H9.56757V12.7568H6.37838V9.56757ZM9.56757 9.56757H12.7568V12.7568H9.56757V9.56757ZM12.7568 9.56757H15.9459V12.7568H12.7568V9.56757ZM19.1351 9.56757H22.3243V12.7568H19.1351V9.56757ZM31.8919 9.56757H35.0811V12.7568H31.8919V9.56757ZM38.2703 9.56757H41.4595V12.7568H38.2703V9.56757ZM41.4595 9.56757H44.6486V12.7568H41.4595V9.56757ZM63.7838 9.56757H66.973V12.7568H63.7838V9.56757ZM70.1622 9.56757H73.3513V12.7568H70.1622V9.56757ZM73.3513 9.56757H76.5405V12.7568H73.3513V9.56757ZM76.5405 9.56757H79.7297V12.7568H76.5405V9.56757ZM79.7297 9.56757H82.9189V12.7568H79.7297V9.56757ZM82.9189 9.56757H86.1081V12.7568H82.9189V9.56757ZM95.6757 9.56757H98.8649V12.7568H95.6757V9.56757ZM102.054 9.56757H105.243V12.7568H102.054V9.56757ZM105.243 9.56757H108.432V12.7568H105.243V9.56757ZM108.432 9.56757H111.622V12.7568H108.432V9.56757ZM114.811 9.56757H118V12.7568H114.811V9.56757ZM0 12.7568H3.18919V15.9459H0V12.7568ZM6.37838 12.7568H9.56757V15.9459H6.37838V12.7568ZM9.56757 12.7568H12.7568V15.9459H9.56757V12.7568ZM12.7568 12.7568H15.9459V15.9459H12.7568V12.7568ZM19.1351 12.7568H22.3243V15.9459H19.1351V12.7568ZM25.5135 12.7568H28.7027V15.9459H25.5135V12.7568ZM35.0811 12.7568H38.2703V15.9459H35.0811V12.7568ZM38.2703 12.7568H41.4595V15.9459H38.2703V12.7568ZM41.4595 12.7568H44.6486V15.9459H41.4595V12.7568ZM44.6486 12.7568H47.8378V15.9459H44.6486V12.7568ZM47.8378 12.7568H51.027V15.9459H47.8378V12.7568ZM57.4054 12.7568H60.5946V15.9459H57.4054V12.7568ZM60.5946 12.7568H63.7838V15.9459H60.5946V12.7568ZM63.7838 12.7568H66.973V15.9459H63.7838V12.7568ZM66.973 12.7568H70.1622V15.9459H66.973V12.7568ZM70.1622 12.7568H73.3513V15.9459H70.1622V12.7568ZM73.3513 12.7568H76.5405V15.9459H73.3513V12.7568ZM79.7297 12.7568H82.9189V15.9459H79.7297V12.7568ZM95.6757 12.7568H98.8649V15.9459H95.6757V12.7568ZM102.054 12.7568H105.243V15.9459H102.054V12.7568ZM105.243 12.7568H108.432V15.9459H105.243V12.7568ZM108.432 12.7568H111.622V15.9459H108.432V12.7568ZM114.811 12.7568H118V15.9459H114.811V12.7568ZM0 15.9459H3.18919V19.1351H0V15.9459ZM19.1351 15.9459H22.3243V19.1351H19.1351V15.9459ZM25.5135 15.9459H28.7027V19.1351H25.5135V15.9459ZM28.7027 15.9459H31.8919V19.1351H28.7027V15.9459ZM31.8919 15.9459H35.0811V19.1351H31.8919V15.9459ZM38.2703 15.9459H41.4595V19.1351H38.2703V15.9459ZM41.4595 15.9459H44.6486V19.1351H41.4595V15.9459ZM54.2162 15.9459H57.4054V19.1351H54.2162V15.9459ZM63.7838 15.9459H66.973V19.1351H63.7838V15.9459ZM66.973 15.9459H70.1622V19.1351H66.973V15.9459ZM76.5405 15.9459H79.7297V19.1351H76.5405V15.9459ZM86.1081 15.9459H89.2973V19.1351H86.1081V15.9459ZM89.2973 15.9459H92.4865V19.1351H89.2973V15.9459ZM95.6757 15.9459H98.8649V19.1351H95.6757V15.9459ZM114.811 15.9459H118V19.1351H114.811V15.9459ZM0 19.1351H3.18919V22.3243H0V19.1351ZM3.18919 19.1351H6.37838V22.3243H3.18919V19.1351ZM6.37838 19.1351H9.56757V22.3243H6.37838V19.1351ZM9.56757 19.1351H12.7568V22.3243H9.56757V19.1351ZM12.7568 19.1351H15.9459V22.3243H12.7568V19.1351ZM15.9459 19.1351H19.1351V22.3243H15.9459V19.1351ZM19.1351 19.1351H22.3243V22.3243H19.1351V19.1351ZM25.5135 19.1351H28.7027V22.3243H25.5135V19.1351ZM31.8919 19.1351H35.0811V22.3243H31.8919V19.1351ZM38.2703 19.1351H41.4595V22.3243H38.2703V19.1351ZM44.6486 19.1351H47.8378V22.3243H44.6486V19.1351ZM51.027 19.1351H54.2162V22.3243H51.027V19.1351ZM57.4054 19.1351H60.5946V22.3243H57.4054V19.1351ZM63.7838 19.1351H66.973V22.3243H63.7838V19.1351ZM70.1622 19.1351H73.3513V22.3243H70.1622V19.1351ZM76.5405 19.1351H79.7297V22.3243H76.5405V19.1351ZM82.9189 19.1351H86.1081V22.3243H82.9189V19.1351ZM89.2973 19.1351H92.4865V22.3243H89.2973V19.1351ZM95.6757 19.1351H98.8649V22.3243H95.6757V19.1351ZM98.8649 19.1351H102.054V22.3243H98.8649V19.1351ZM102.054 19.1351H105.243V22.3243H102.054V19.1351ZM105.243 19.1351H108.432V22.3243H105.243V19.1351ZM108.432 19.1351H111.622V22.3243H108.432V19.1351ZM111.622 19.1351H114.811V22.3243H111.622V19.1351ZM114.811 19.1351H118V22.3243H114.811V19.1351ZM41.4595 22.3243H44.6486V25.5135H41.4595V22.3243ZM51.027 22.3243H54.2162V25.5135H51.027V22.3243ZM54.2162 22.3243H57.4054V25.5135H54.2162V22.3243ZM60.5946 22.3243H63.7838V25.5135H60.5946V22.3243ZM63.7838 22.3243H66.973V25.5135H63.7838V22.3243ZM66.973 22.3243H70.1622V25.5135H66.973V22.3243ZM70.1622 22.3243H73.3513V25.5135H70.1622V22.3243ZM73.3513 22.3243H76.5405V25.5135H73.3513V22.3243ZM76.5405 22.3243H79.7297V25.5135H76.5405V22.3243ZM82.9189 22.3243H86.1081V25.5135H82.9189V22.3243ZM89.2973 22.3243H92.4865V25.5135H89.2973V22.3243ZM3.18919 25.5135H6.37838V28.7027H3.18919V25.5135ZM6.37838 25.5135H9.56757V28.7027H6.37838V25.5135ZM9.56757 25.5135H12.7568V28.7027H9.56757V25.5135ZM12.7568 25.5135H15.9459V28.7027H12.7568V25.5135ZM15.9459 25.5135H19.1351V28.7027H15.9459V25.5135ZM19.1351 25.5135H22.3243V28.7027H19.1351V25.5135ZM22.3243 25.5135H25.5135V28.7027H22.3243V25.5135ZM31.8919 25.5135H35.0811V28.7027H31.8919V25.5135ZM35.0811 25.5135H38.2703V28.7027H35.0811V25.5135ZM41.4595 25.5135H44.6486V28.7027H41.4595V25.5135ZM44.6486 25.5135H47.8378V28.7027H44.6486V25.5135ZM47.8378 25.5135H51.027V28.7027H47.8378V25.5135ZM51.027 25.5135H54.2162V28.7027H51.027V25.5135ZM57.4054 25.5135H60.5946V28.7027H57.4054V25.5135ZM63.7838 25.5135H66.973V28.7027H63.7838V25.5135ZM70.1622 25.5135H73.3513V28.7027H70.1622V25.5135ZM73.3513 25.5135H76.5405V28.7027H73.3513V25.5135ZM76.5405 25.5135H79.7297V28.7027H76.5405V25.5135ZM79.7297 25.5135H82.9189V28.7027H79.7297V25.5135ZM89.2973 25.5135H92.4865V28.7027H89.2973V25.5135ZM98.8649 25.5135H102.054V28.7027H98.8649V25.5135ZM102.054 25.5135H105.243V28.7027H102.054V25.5135ZM114.811 25.5135H118V28.7027H114.811V25.5135ZM0 28.7027H3.18919V31.8919H0V28.7027ZM6.37838 28.7027H9.56757V31.8919H6.37838V28.7027ZM12.7568 28.7027H15.9459V31.8919H12.7568V28.7027ZM28.7027 28.7027H31.8919V31.8919H28.7027V28.7027ZM35.0811 28.7027H38.2703V31.8919H35.0811V28.7027ZM38.2703 28.7027H41.4595V31.8919H38.2703V28.7027ZM44.6486 28.7027H47.8378V31.8919H44.6486V28.7027ZM47.8378 28.7027H51.027V31.8919H47.8378V28.7027ZM66.973 28.7027H70.1622V31.8919H66.973V28.7027ZM73.3513 28.7027H76.5405V31.8919H73.3513V28.7027ZM79.7297 28.7027H82.9189V31.8919H79.7297V28.7027ZM82.9189 28.7027H86.1081V31.8919H82.9189V28.7027ZM86.1081 28.7027H89.2973V31.8919H86.1081V28.7027ZM89.2973 28.7027H92.4865V31.8919H89.2973V28.7027ZM95.6757 28.7027H98.8649V31.8919H95.6757V28.7027ZM98.8649 28.7027H102.054V31.8919H98.8649V28.7027ZM105.243 28.7027H108.432V31.8919H105.243V28.7027ZM108.432 28.7027H111.622V31.8919H108.432V28.7027ZM0 31.8919H3.18919V35.0811H0V31.8919ZM3.18919 31.8919H6.37838V35.0811H3.18919V31.8919ZM9.56757 31.8919H12.7568V35.0811H9.56757V31.8919ZM12.7568 31.8919H15.9459V35.0811H12.7568V31.8919ZM19.1351 31.8919H22.3243V35.0811H19.1351V31.8919ZM22.3243 31.8919H25.5135V35.0811H22.3243V31.8919ZM28.7027 31.8919H31.8919V35.0811H28.7027V31.8919ZM41.4595 31.8919H44.6486V35.0811H41.4595V31.8919ZM47.8378 31.8919H51.027V35.0811H47.8378V31.8919ZM57.4054 31.8919H60.5946V35.0811H57.4054V31.8919ZM63.7838 31.8919H66.973V35.0811H63.7838V31.8919ZM66.973 31.8919H70.1622V35.0811H66.973V31.8919ZM70.1622 31.8919H73.3513V35.0811H70.1622V31.8919ZM76.5405 31.8919H79.7297V35.0811H76.5405V31.8919ZM79.7297 31.8919H82.9189V35.0811H79.7297V31.8919ZM82.9189 31.8919H86.1081V35.0811H82.9189V31.8919ZM86.1081 31.8919H89.2973V35.0811H86.1081V31.8919ZM89.2973 31.8919H92.4865V35.0811H89.2973V31.8919ZM95.6757 31.8919H98.8649V35.0811H95.6757V31.8919ZM102.054 31.8919H105.243V35.0811H102.054V31.8919ZM105.243 31.8919H108.432V35.0811H105.243V31.8919ZM111.622 31.8919H114.811V35.0811H111.622V31.8919ZM114.811 31.8919H118V35.0811H114.811V31.8919ZM12.7568 35.0811H15.9459V38.2703H12.7568V35.0811ZM15.9459 35.0811H19.1351V38.2703H15.9459V35.0811ZM22.3243 35.0811H25.5135V38.2703H22.3243V35.0811ZM25.5135 35.0811H28.7027V38.2703H25.5135V35.0811ZM28.7027 35.0811H31.8919V38.2703H28.7027V35.0811ZM38.2703 35.0811H41.4595V38.2703H38.2703V35.0811ZM41.4595 35.0811H44.6486V38.2703H41.4595V35.0811ZM44.6486 35.0811H47.8378V38.2703H44.6486V35.0811ZM51.027 35.0811H54.2162V38.2703H51.027V35.0811ZM57.4054 35.0811H60.5946V38.2703H57.4054V35.0811ZM60.5946 35.0811H63.7838V38.2703H60.5946V35.0811ZM63.7838 35.0811H66.973V38.2703H63.7838V35.0811ZM66.973 35.0811H70.1622V38.2703H66.973V35.0811ZM70.1622 35.0811H73.3513V38.2703H70.1622V35.0811ZM76.5405 35.0811H79.7297V38.2703H76.5405V35.0811ZM82.9189 35.0811H86.1081V38.2703H82.9189V35.0811ZM95.6757 35.0811H98.8649V38.2703H95.6757V35.0811ZM98.8649 35.0811H102.054V38.2703H98.8649V35.0811ZM111.622 35.0811H114.811V38.2703H111.622V35.0811ZM114.811 35.0811H118V38.2703H114.811V35.0811ZM0 38.2703H3.18919V41.4595H0V38.2703ZM3.18919 38.2703H6.37838V41.4595H3.18919V38.2703ZM12.7568 38.2703H15.9459V41.4595H12.7568V38.2703ZM15.9459 38.2703H19.1351V41.4595H15.9459V38.2703ZM19.1351 38.2703H22.3243V41.4595H19.1351V38.2703ZM22.3243 38.2703H25.5135V41.4595H22.3243V38.2703ZM25.5135 38.2703H28.7027V41.4595H25.5135V38.2703ZM31.8919 38.2703H35.0811V41.4595H31.8919V38.2703ZM44.6486 38.2703H47.8378V41.4595H44.6486V38.2703ZM47.8378 38.2703H51.027V41.4595H47.8378V38.2703ZM51.027 38.2703H54.2162V41.4595H51.027V38.2703ZM70.1622 38.2703H73.3513V41.4595H70.1622V38.2703ZM73.3513 38.2703H76.5405V41.4595H73.3513V38.2703ZM76.5405 38.2703H79.7297V41.4595H76.5405V38.2703ZM79.7297 38.2703H82.9189V41.4595H79.7297V38.2703ZM82.9189 38.2703H86.1081V41.4595H82.9189V38.2703ZM86.1081 38.2703H89.2973V41.4595H86.1081V38.2703ZM89.2973 38.2703H92.4865V41.4595H89.2973V38.2703ZM92.4865 38.2703H95.6757V41.4595H92.4865V38.2703ZM95.6757 38.2703H98.8649V41.4595H95.6757V38.2703ZM105.243 38.2703H108.432V41.4595H105.243V38.2703ZM108.432 38.2703H111.622V41.4595H108.432V38.2703ZM111.622 38.2703H114.811V41.4595H111.622V38.2703ZM114.811 38.2703H118V41.4595H114.811V38.2703ZM3.18919 41.4595H6.37838V44.6486H3.18919V41.4595ZM12.7568 41.4595H15.9459V44.6486H12.7568V41.4595ZM15.9459 41.4595H19.1351V44.6486H15.9459V41.4595ZM22.3243 41.4595H25.5135V44.6486H22.3243V41.4595ZM31.8919 41.4595H35.0811V44.6486H31.8919V41.4595ZM38.2703 41.4595H41.4595V44.6486H38.2703V41.4595ZM47.8378 41.4595H51.027V44.6486H47.8378V41.4595ZM51.027 41.4595H54.2162V44.6486H51.027V41.4595ZM54.2162 41.4595H57.4054V44.6486H54.2162V41.4595ZM57.4054 41.4595H60.5946V44.6486H57.4054V41.4595ZM66.973 41.4595H70.1622V44.6486H66.973V41.4595ZM70.1622 41.4595H73.3513V44.6486H70.1622V41.4595ZM73.3513 41.4595H76.5405V44.6486H73.3513V41.4595ZM76.5405 41.4595H79.7297V44.6486H76.5405V41.4595ZM79.7297 41.4595H82.9189V44.6486H79.7297V41.4595ZM82.9189 41.4595H86.1081V44.6486H82.9189V41.4595ZM89.2973 41.4595H92.4865V44.6486H89.2973V41.4595ZM92.4865 41.4595H95.6757V44.6486H92.4865V41.4595ZM98.8649 41.4595H102.054V44.6486H98.8649V41.4595ZM105.243 41.4595H108.432V44.6486H105.243V41.4595ZM108.432 41.4595H111.622V44.6486H108.432V41.4595ZM111.622 41.4595H114.811V44.6486H111.622V41.4595ZM0 44.6486H3.18919V47.8378H0V44.6486ZM3.18919 44.6486H6.37838V47.8378H3.18919V44.6486ZM6.37838 44.6486H9.56757V47.8378H6.37838V44.6486ZM9.56757 44.6486H12.7568V47.8378H9.56757V44.6486ZM12.7568 44.6486H15.9459V47.8378H12.7568V44.6486ZM15.9459 44.6486H19.1351V47.8378H15.9459V44.6486ZM19.1351 44.6486H22.3243V47.8378H19.1351V44.6486ZM28.7027 44.6486H31.8919V47.8378H28.7027V44.6486ZM41.4595 44.6486H44.6486V47.8378H41.4595V44.6486ZM54.2162 44.6486H57.4054V47.8378H54.2162V44.6486ZM57.4054 44.6486H60.5946V47.8378H57.4054V44.6486ZM66.973 44.6486H70.1622V47.8378H66.973V44.6486ZM82.9189 44.6486H86.1081V47.8378H82.9189V44.6486ZM86.1081 44.6486H89.2973V47.8378H86.1081V44.6486ZM89.2973 44.6486H92.4865V47.8378H89.2973V44.6486ZM92.4865 44.6486H95.6757V47.8378H92.4865V44.6486ZM95.6757 44.6486H98.8649V47.8378H95.6757V44.6486ZM98.8649 44.6486H102.054V47.8378H98.8649V44.6486ZM105.243 44.6486H108.432V47.8378H105.243V44.6486ZM111.622 44.6486H114.811V47.8378H111.622V44.6486ZM114.811 44.6486H118V47.8378H114.811V44.6486ZM0 47.8378H3.18919V51.027H0V47.8378ZM15.9459 47.8378H19.1351V51.027H15.9459V47.8378ZM25.5135 47.8378H28.7027V51.027H25.5135V47.8378ZM35.0811 47.8378H38.2703V51.027H35.0811V47.8378ZM41.4595 47.8378H44.6486V51.027H41.4595V47.8378ZM44.6486 47.8378H47.8378V51.027H44.6486V47.8378ZM57.4054 47.8378H60.5946V51.027H57.4054V47.8378ZM63.7838 47.8378H66.973V51.027H63.7838V47.8378ZM66.973 47.8378H70.1622V51.027H66.973V47.8378ZM70.1622 47.8378H73.3513V51.027H70.1622V47.8378ZM73.3513 47.8378H76.5405V51.027H73.3513V47.8378ZM82.9189 47.8378H86.1081V51.027H82.9189V47.8378ZM92.4865 47.8378H95.6757V51.027H92.4865V47.8378ZM95.6757 47.8378H98.8649V51.027H95.6757V47.8378ZM98.8649 47.8378H102.054V51.027H98.8649V47.8378ZM111.622 47.8378H114.811V51.027H111.622V47.8378ZM114.811 47.8378H118V51.027H114.811V47.8378ZM3.18919 51.027H6.37838V54.2162H3.18919V51.027ZM9.56757 51.027H12.7568V54.2162H9.56757V51.027ZM12.7568 51.027H15.9459V54.2162H12.7568V51.027ZM15.9459 51.027H19.1351V54.2162H15.9459V51.027ZM19.1351 51.027H22.3243V54.2162H19.1351V51.027ZM22.3243 51.027H25.5135V54.2162H22.3243V51.027ZM25.5135 51.027H28.7027V54.2162H25.5135V51.027ZM28.7027 51.027H31.8919V54.2162H28.7027V51.027ZM31.8919 51.027H35.0811V54.2162H31.8919V51.027ZM38.2703 51.027H41.4595V54.2162H38.2703V51.027ZM51.027 51.027H54.2162V54.2162H51.027V51.027ZM54.2162 51.027H57.4054V54.2162H54.2162V51.027ZM60.5946 51.027H63.7838V54.2162H60.5946V51.027ZM66.973 51.027H70.1622V54.2162H66.973V51.027ZM76.5405 51.027H79.7297V54.2162H76.5405V51.027ZM79.7297 51.027H82.9189V54.2162H79.7297V51.027ZM86.1081 51.027H89.2973V54.2162H86.1081V51.027ZM95.6757 51.027H98.8649V54.2162H95.6757V51.027ZM102.054 51.027H105.243V54.2162H102.054V51.027ZM108.432 51.027H111.622V54.2162H108.432V51.027ZM111.622 51.027H114.811V54.2162H111.622V51.027ZM114.811 51.027H118V54.2162H114.811V51.027ZM0 54.2162H3.18919V57.4054H0V54.2162ZM9.56757 54.2162H12.7568V57.4054H9.56757V54.2162ZM28.7027 54.2162H31.8919V57.4054H28.7027V54.2162ZM35.0811 54.2162H38.2703V57.4054H35.0811V54.2162ZM38.2703 54.2162H41.4595V57.4054H38.2703V54.2162ZM41.4595 54.2162H44.6486V57.4054H41.4595V54.2162ZM44.6486 54.2162H47.8378V57.4054H44.6486V54.2162ZM54.2162 54.2162H57.4054V57.4054H54.2162V54.2162ZM60.5946 54.2162H63.7838V57.4054H60.5946V54.2162ZM63.7838 54.2162H66.973V57.4054H63.7838V54.2162ZM70.1622 54.2162H73.3513V57.4054H70.1622V54.2162ZM76.5405 54.2162H79.7297V57.4054H76.5405V54.2162ZM89.2973 54.2162H92.4865V57.4054H89.2973V54.2162ZM98.8649 54.2162H102.054V57.4054H98.8649V54.2162ZM0 57.4054H3.18919V60.5946H0V57.4054ZM3.18919 57.4054H6.37838V60.5946H3.18919V57.4054ZM12.7568 57.4054H15.9459V60.5946H12.7568V57.4054ZM15.9459 57.4054H19.1351V60.5946H15.9459V57.4054ZM19.1351 57.4054H22.3243V60.5946H19.1351V57.4054ZM22.3243 57.4054H25.5135V60.5946H22.3243V57.4054ZM38.2703 57.4054H41.4595V60.5946H38.2703V57.4054ZM47.8378 57.4054H51.027V60.5946H47.8378V57.4054ZM54.2162 57.4054H57.4054V60.5946H54.2162V57.4054ZM60.5946 57.4054H63.7838V60.5946H60.5946V57.4054ZM66.973 57.4054H70.1622V60.5946H66.973V57.4054ZM79.7297 57.4054H82.9189V60.5946H79.7297V57.4054ZM86.1081 57.4054H89.2973V60.5946H86.1081V57.4054ZM89.2973 57.4054H92.4865V60.5946H89.2973V57.4054ZM95.6757 57.4054H98.8649V60.5946H95.6757V57.4054ZM102.054 57.4054H105.243V60.5946H102.054V57.4054ZM105.243 57.4054H108.432V60.5946H105.243V57.4054ZM111.622 57.4054H114.811V60.5946H111.622V57.4054ZM114.811 57.4054H118V60.5946H114.811V57.4054ZM3.18919 60.5946H6.37838V63.7838H3.18919V60.5946ZM6.37838 60.5946H9.56757V63.7838H6.37838V60.5946ZM12.7568 60.5946H15.9459V63.7838H12.7568V60.5946ZM15.9459 60.5946H19.1351V63.7838H15.9459V60.5946ZM22.3243 60.5946H25.5135V63.7838H22.3243V60.5946ZM31.8919 60.5946H35.0811V63.7838H31.8919V60.5946ZM35.0811 60.5946H38.2703V63.7838H35.0811V60.5946ZM57.4054 60.5946H60.5946V63.7838H57.4054V60.5946ZM60.5946 60.5946H63.7838V63.7838H60.5946V60.5946ZM66.973 60.5946H70.1622V63.7838H66.973V60.5946ZM70.1622 60.5946H73.3513V63.7838H70.1622V60.5946ZM73.3513 60.5946H76.5405V63.7838H73.3513V60.5946ZM92.4865 60.5946H95.6757V63.7838H92.4865V60.5946ZM114.811 60.5946H118V63.7838H114.811V60.5946ZM9.56757 63.7838H12.7568V66.973H9.56757V63.7838ZM12.7568 63.7838H15.9459V66.973H12.7568V63.7838ZM19.1351 63.7838H22.3243V66.973H19.1351V63.7838ZM22.3243 63.7838H25.5135V66.973H22.3243V63.7838ZM25.5135 63.7838H28.7027V66.973H25.5135V63.7838ZM28.7027 63.7838H31.8919V66.973H28.7027V63.7838ZM35.0811 63.7838H38.2703V66.973H35.0811V63.7838ZM44.6486 63.7838H47.8378V66.973H44.6486V63.7838ZM51.027 63.7838H54.2162V66.973H51.027V63.7838ZM54.2162 63.7838H57.4054V66.973H54.2162V63.7838ZM57.4054 63.7838H60.5946V66.973H57.4054V63.7838ZM63.7838 63.7838H66.973V66.973H63.7838V63.7838ZM70.1622 63.7838H73.3513V66.973H70.1622V63.7838ZM76.5405 63.7838H79.7297V66.973H76.5405V63.7838ZM79.7297 63.7838H82.9189V66.973H79.7297V63.7838ZM82.9189 63.7838H86.1081V66.973H82.9189V63.7838ZM86.1081 63.7838H89.2973V66.973H86.1081V63.7838ZM92.4865 63.7838H95.6757V66.973H92.4865V63.7838ZM95.6757 63.7838H98.8649V66.973H95.6757V63.7838ZM98.8649 63.7838H102.054V66.973H98.8649V63.7838ZM102.054 63.7838H105.243V66.973H102.054V63.7838ZM108.432 63.7838H111.622V66.973H108.432V63.7838ZM3.18919 66.973H6.37838V70.1622H3.18919V66.973ZM9.56757 66.973H12.7568V70.1622H9.56757V66.973ZM15.9459 66.973H19.1351V70.1622H15.9459V66.973ZM25.5135 66.973H28.7027V70.1622H25.5135V66.973ZM28.7027 66.973H31.8919V70.1622H28.7027V66.973ZM31.8919 66.973H35.0811V70.1622H31.8919V66.973ZM35.0811 66.973H38.2703V70.1622H35.0811V66.973ZM44.6486 66.973H47.8378V70.1622H44.6486V66.973ZM57.4054 66.973H60.5946V70.1622H57.4054V66.973ZM82.9189 66.973H86.1081V70.1622H82.9189V66.973ZM98.8649 66.973H102.054V70.1622H98.8649V66.973ZM108.432 66.973H111.622V70.1622H108.432V66.973ZM111.622 66.973H114.811V70.1622H111.622V66.973ZM3.18919 70.1622H6.37838V73.3513H3.18919V70.1622ZM6.37838 70.1622H9.56757V73.3513H6.37838V70.1622ZM12.7568 70.1622H15.9459V73.3513H12.7568V70.1622ZM15.9459 70.1622H19.1351V73.3513H15.9459V70.1622ZM19.1351 70.1622H22.3243V73.3513H19.1351V70.1622ZM25.5135 70.1622H28.7027V73.3513H25.5135V70.1622ZM28.7027 70.1622H31.8919V73.3513H28.7027V70.1622ZM35.0811 70.1622H38.2703V73.3513H35.0811V70.1622ZM41.4595 70.1622H44.6486V73.3513H41.4595V70.1622ZM47.8378 70.1622H51.027V73.3513H47.8378V70.1622ZM51.027 70.1622H54.2162V73.3513H51.027V70.1622ZM57.4054 70.1622H60.5946V73.3513H57.4054V70.1622ZM63.7838 70.1622H66.973V73.3513H63.7838V70.1622ZM70.1622 70.1622H73.3513V73.3513H70.1622V70.1622ZM86.1081 70.1622H89.2973V73.3513H86.1081V70.1622ZM92.4865 70.1622H95.6757V73.3513H92.4865V70.1622ZM105.243 70.1622H108.432V73.3513H105.243V70.1622ZM111.622 70.1622H114.811V73.3513H111.622V70.1622ZM114.811 70.1622H118V73.3513H114.811V70.1622ZM0 73.3513H3.18919V76.5405H0V73.3513ZM6.37838 73.3513H9.56757V76.5405H6.37838V73.3513ZM12.7568 73.3513H15.9459V76.5405H12.7568V73.3513ZM15.9459 73.3513H19.1351V76.5405H15.9459V73.3513ZM25.5135 73.3513H28.7027V76.5405H25.5135V73.3513ZM31.8919 73.3513H35.0811V76.5405H31.8919V73.3513ZM35.0811 73.3513H38.2703V76.5405H35.0811V73.3513ZM47.8378 73.3513H51.027V76.5405H47.8378V73.3513ZM51.027 73.3513H54.2162V76.5405H51.027V73.3513ZM54.2162 73.3513H57.4054V76.5405H54.2162V73.3513ZM66.973 73.3513H70.1622V76.5405H66.973V73.3513ZM76.5405 73.3513H79.7297V76.5405H76.5405V73.3513ZM82.9189 73.3513H86.1081V76.5405H82.9189V73.3513ZM92.4865 73.3513H95.6757V76.5405H92.4865V73.3513ZM98.8649 73.3513H102.054V76.5405H98.8649V73.3513ZM105.243 73.3513H108.432V76.5405H105.243V73.3513ZM114.811 73.3513H118V76.5405H114.811V73.3513ZM0 76.5405H3.18919V79.7297H0V76.5405ZM9.56757 76.5405H12.7568V79.7297H9.56757V76.5405ZM12.7568 76.5405H15.9459V79.7297H12.7568V76.5405ZM19.1351 76.5405H22.3243V79.7297H19.1351V76.5405ZM25.5135 76.5405H28.7027V79.7297H25.5135V76.5405ZM28.7027 76.5405H31.8919V79.7297H28.7027V76.5405ZM38.2703 76.5405H41.4595V79.7297H38.2703V76.5405ZM41.4595 76.5405H44.6486V79.7297H41.4595V76.5405ZM51.027 76.5405H54.2162V79.7297H51.027V76.5405ZM57.4054 76.5405H60.5946V79.7297H57.4054V76.5405ZM70.1622 76.5405H73.3513V79.7297H70.1622V76.5405ZM76.5405 76.5405H79.7297V79.7297H76.5405V76.5405ZM79.7297 76.5405H82.9189V79.7297H79.7297V76.5405ZM82.9189 76.5405H86.1081V79.7297H82.9189V76.5405ZM92.4865 76.5405H95.6757V79.7297H92.4865V76.5405ZM95.6757 76.5405H98.8649V79.7297H95.6757V76.5405ZM105.243 76.5405H108.432V79.7297H105.243V76.5405ZM108.432 76.5405H111.622V79.7297H108.432V76.5405ZM0 79.7297H3.18919V82.9189H0V79.7297ZM9.56757 79.7297H12.7568V82.9189H9.56757V79.7297ZM12.7568 79.7297H15.9459V82.9189H12.7568V79.7297ZM15.9459 79.7297H19.1351V82.9189H15.9459V79.7297ZM28.7027 79.7297H31.8919V82.9189H28.7027V79.7297ZM35.0811 79.7297H38.2703V82.9189H35.0811V79.7297ZM38.2703 79.7297H41.4595V82.9189H38.2703V79.7297ZM41.4595 79.7297H44.6486V82.9189H41.4595V79.7297ZM47.8378 79.7297H51.027V82.9189H47.8378V79.7297ZM51.027 79.7297H54.2162V82.9189H51.027V79.7297ZM60.5946 79.7297H63.7838V82.9189H60.5946V79.7297ZM63.7838 79.7297H66.973V82.9189H63.7838V79.7297ZM73.3513 79.7297H76.5405V82.9189H73.3513V79.7297ZM82.9189 79.7297H86.1081V82.9189H82.9189V79.7297ZM89.2973 79.7297H92.4865V82.9189H89.2973V79.7297ZM95.6757 79.7297H98.8649V82.9189H95.6757V79.7297ZM98.8649 79.7297H102.054V82.9189H98.8649V79.7297ZM0 82.9189H3.18919V86.1081H0V82.9189ZM9.56757 82.9189H12.7568V86.1081H9.56757V82.9189ZM12.7568 82.9189H15.9459V86.1081H12.7568V82.9189ZM19.1351 82.9189H22.3243V86.1081H19.1351V82.9189ZM22.3243 82.9189H25.5135V86.1081H22.3243V82.9189ZM31.8919 82.9189H35.0811V86.1081H31.8919V82.9189ZM35.0811 82.9189H38.2703V86.1081H35.0811V82.9189ZM41.4595 82.9189H44.6486V86.1081H41.4595V82.9189ZM51.027 82.9189H54.2162V86.1081H51.027V82.9189ZM54.2162 82.9189H57.4054V86.1081H54.2162V82.9189ZM57.4054 82.9189H60.5946V86.1081H57.4054V82.9189ZM60.5946 82.9189H63.7838V86.1081H60.5946V82.9189ZM79.7297 82.9189H82.9189V86.1081H79.7297V82.9189ZM82.9189 82.9189H86.1081V86.1081H82.9189V82.9189ZM86.1081 82.9189H89.2973V86.1081H86.1081V82.9189ZM89.2973 82.9189H92.4865V86.1081H89.2973V82.9189ZM95.6757 82.9189H98.8649V86.1081H95.6757V82.9189ZM102.054 82.9189H105.243V86.1081H102.054V82.9189ZM108.432 82.9189H111.622V86.1081H108.432V82.9189ZM111.622 82.9189H114.811V86.1081H111.622V82.9189ZM114.811 82.9189H118V86.1081H114.811V82.9189ZM0 86.1081H3.18919V89.2973H0V86.1081ZM9.56757 86.1081H12.7568V89.2973H9.56757V86.1081ZM12.7568 86.1081H15.9459V89.2973H12.7568V86.1081ZM22.3243 86.1081H25.5135V89.2973H22.3243V86.1081ZM31.8919 86.1081H35.0811V89.2973H31.8919V86.1081ZM35.0811 86.1081H38.2703V89.2973H35.0811V86.1081ZM38.2703 86.1081H41.4595V89.2973H38.2703V86.1081ZM41.4595 86.1081H44.6486V89.2973H41.4595V86.1081ZM44.6486 86.1081H47.8378V89.2973H44.6486V86.1081ZM47.8378 86.1081H51.027V89.2973H47.8378V86.1081ZM54.2162 86.1081H57.4054V89.2973H54.2162V86.1081ZM57.4054 86.1081H60.5946V89.2973H57.4054V86.1081ZM66.973 86.1081H70.1622V89.2973H66.973V86.1081ZM73.3513 86.1081H76.5405V89.2973H73.3513V86.1081ZM76.5405 86.1081H79.7297V89.2973H76.5405V86.1081ZM82.9189 86.1081H86.1081V89.2973H82.9189V86.1081ZM86.1081 86.1081H89.2973V89.2973H86.1081V86.1081ZM89.2973 86.1081H92.4865V89.2973H89.2973V86.1081ZM92.4865 86.1081H95.6757V89.2973H92.4865V86.1081ZM102.054 86.1081H105.243V89.2973H102.054V86.1081ZM0 89.2973H3.18919V92.4865H0V89.2973ZM6.37838 89.2973H9.56757V92.4865H6.37838V89.2973ZM9.56757 89.2973H12.7568V92.4865H9.56757V89.2973ZM12.7568 89.2973H15.9459V92.4865H12.7568V89.2973ZM15.9459 89.2973H19.1351V92.4865H15.9459V89.2973ZM19.1351 89.2973H22.3243V92.4865H19.1351V89.2973ZM22.3243 89.2973H25.5135V92.4865H22.3243V89.2973ZM25.5135 89.2973H28.7027V92.4865H25.5135V89.2973ZM28.7027 89.2973H31.8919V92.4865H28.7027V89.2973ZM38.2703 89.2973H41.4595V92.4865H38.2703V89.2973ZM41.4595 89.2973H44.6486V92.4865H41.4595V89.2973ZM47.8378 89.2973H51.027V92.4865H47.8378V89.2973ZM51.027 89.2973H54.2162V92.4865H51.027V89.2973ZM63.7838 89.2973H66.973V92.4865H63.7838V89.2973ZM79.7297 89.2973H82.9189V92.4865H79.7297V89.2973ZM82.9189 89.2973H86.1081V92.4865H82.9189V89.2973ZM89.2973 89.2973H92.4865V92.4865H89.2973V89.2973ZM92.4865 89.2973H95.6757V92.4865H92.4865V89.2973ZM95.6757 89.2973H98.8649V92.4865H95.6757V89.2973ZM98.8649 89.2973H102.054V92.4865H98.8649V89.2973ZM102.054 89.2973H105.243V92.4865H102.054V89.2973ZM105.243 89.2973H108.432V92.4865H105.243V89.2973ZM108.432 89.2973H111.622V92.4865H108.432V89.2973ZM111.622 89.2973H114.811V92.4865H111.622V89.2973ZM25.5135 92.4865H28.7027V95.6757H25.5135V92.4865ZM28.7027 92.4865H31.8919V95.6757H28.7027V92.4865ZM35.0811 92.4865H38.2703V95.6757H35.0811V92.4865ZM51.027 92.4865H54.2162V95.6757H51.027V92.4865ZM54.2162 92.4865H57.4054V95.6757H54.2162V92.4865ZM60.5946 92.4865H63.7838V95.6757H60.5946V92.4865ZM63.7838 92.4865H66.973V95.6757H63.7838V92.4865ZM70.1622 92.4865H73.3513V95.6757H70.1622V92.4865ZM73.3513 92.4865H76.5405V95.6757H73.3513V92.4865ZM79.7297 92.4865H82.9189V95.6757H79.7297V92.4865ZM82.9189 92.4865H86.1081V95.6757H82.9189V92.4865ZM89.2973 92.4865H92.4865V95.6757H89.2973V92.4865ZM102.054 92.4865H105.243V95.6757H102.054V92.4865ZM111.622 92.4865H114.811V95.6757H111.622V92.4865ZM0 95.6757H3.18919V98.8649H0V95.6757ZM3.18919 95.6757H6.37838V98.8649H3.18919V95.6757ZM6.37838 95.6757H9.56757V98.8649H6.37838V95.6757ZM9.56757 95.6757H12.7568V98.8649H9.56757V95.6757ZM12.7568 95.6757H15.9459V98.8649H12.7568V95.6757ZM15.9459 95.6757H19.1351V98.8649H15.9459V95.6757ZM19.1351 95.6757H22.3243V98.8649H19.1351V95.6757ZM25.5135 95.6757H28.7027V98.8649H25.5135V95.6757ZM35.0811 95.6757H38.2703V98.8649H35.0811V95.6757ZM38.2703 95.6757H41.4595V98.8649H38.2703V95.6757ZM41.4595 95.6757H44.6486V98.8649H41.4595V95.6757ZM47.8378 95.6757H51.027V98.8649H47.8378V95.6757ZM54.2162 95.6757H57.4054V98.8649H54.2162V95.6757ZM57.4054 95.6757H60.5946V98.8649H57.4054V95.6757ZM60.5946 95.6757H63.7838V98.8649H60.5946V95.6757ZM63.7838 95.6757H66.973V98.8649H63.7838V95.6757ZM70.1622 95.6757H73.3513V98.8649H70.1622V95.6757ZM79.7297 95.6757H82.9189V98.8649H79.7297V95.6757ZM82.9189 95.6757H86.1081V98.8649H82.9189V95.6757ZM86.1081 95.6757H89.2973V98.8649H86.1081V95.6757ZM89.2973 95.6757H92.4865V98.8649H89.2973V95.6757ZM95.6757 95.6757H98.8649V98.8649H95.6757V95.6757ZM102.054 95.6757H105.243V98.8649H102.054V95.6757ZM105.243 95.6757H108.432V98.8649H105.243V95.6757ZM111.622 95.6757H114.811V98.8649H111.622V95.6757ZM114.811 95.6757H118V98.8649H114.811V95.6757ZM0 98.8649H3.18919V102.054H0V98.8649ZM19.1351 98.8649H22.3243V102.054H19.1351V98.8649ZM25.5135 98.8649H28.7027V102.054H25.5135V98.8649ZM31.8919 98.8649H35.0811V102.054H31.8919V98.8649ZM44.6486 98.8649H47.8378V102.054H44.6486V98.8649ZM51.027 98.8649H54.2162V102.054H51.027V98.8649ZM57.4054 98.8649H60.5946V102.054H57.4054V98.8649ZM73.3513 98.8649H76.5405V102.054H73.3513V98.8649ZM82.9189 98.8649H86.1081V102.054H82.9189V98.8649ZM89.2973 98.8649H92.4865V102.054H89.2973V98.8649ZM102.054 98.8649H105.243V102.054H102.054V98.8649ZM111.622 98.8649H114.811V102.054H111.622V98.8649ZM0 102.054H3.18919V105.243H0V102.054ZM6.37838 102.054H9.56757V105.243H6.37838V102.054ZM9.56757 102.054H12.7568V105.243H9.56757V102.054ZM12.7568 102.054H15.9459V105.243H12.7568V102.054ZM19.1351 102.054H22.3243V105.243H19.1351V102.054ZM25.5135 102.054H28.7027V105.243H25.5135V102.054ZM28.7027 102.054H31.8919V105.243H28.7027V102.054ZM35.0811 102.054H38.2703V105.243H35.0811V102.054ZM38.2703 102.054H41.4595V105.243H38.2703V102.054ZM41.4595 102.054H44.6486V105.243H41.4595V102.054ZM44.6486 102.054H47.8378V105.243H44.6486V102.054ZM47.8378 102.054H51.027V105.243H47.8378V102.054ZM54.2162 102.054H57.4054V105.243H54.2162V102.054ZM60.5946 102.054H63.7838V105.243H60.5946V102.054ZM63.7838 102.054H66.973V105.243H63.7838V102.054ZM66.973 102.054H70.1622V105.243H66.973V102.054ZM70.1622 102.054H73.3513V105.243H70.1622V102.054ZM76.5405 102.054H79.7297V105.243H76.5405V102.054ZM79.7297 102.054H82.9189V105.243H79.7297V102.054ZM82.9189 102.054H86.1081V105.243H82.9189V102.054ZM86.1081 102.054H89.2973V105.243H86.1081V102.054ZM89.2973 102.054H92.4865V105.243H89.2973V102.054ZM92.4865 102.054H95.6757V105.243H92.4865V102.054ZM95.6757 102.054H98.8649V105.243H95.6757V102.054ZM98.8649 102.054H102.054V105.243H98.8649V102.054ZM102.054 102.054H105.243V105.243H102.054V102.054ZM108.432 102.054H111.622V105.243H108.432V102.054ZM111.622 102.054H114.811V105.243H111.622V102.054ZM0 105.243H3.18919V108.432H0V105.243ZM6.37838 105.243H9.56757V108.432H6.37838V105.243ZM9.56757 105.243H12.7568V108.432H9.56757V105.243ZM12.7568 105.243H15.9459V108.432H12.7568V105.243ZM19.1351 105.243H22.3243V108.432H19.1351V105.243ZM25.5135 105.243H28.7027V108.432H25.5135V105.243ZM28.7027 105.243H31.8919V108.432H28.7027V105.243ZM35.0811 105.243H38.2703V108.432H35.0811V105.243ZM44.6486 105.243H47.8378V108.432H44.6486V105.243ZM66.973 105.243H70.1622V108.432H66.973V105.243ZM73.3513 105.243H76.5405V108.432H73.3513V105.243ZM89.2973 105.243H92.4865V108.432H89.2973V105.243ZM95.6757 105.243H98.8649V108.432H95.6757V105.243ZM98.8649 105.243H102.054V108.432H98.8649V105.243ZM111.622 105.243H114.811V108.432H111.622V105.243ZM0 108.432H3.18919V111.622H0V108.432ZM6.37838 108.432H9.56757V111.622H6.37838V108.432ZM9.56757 108.432H12.7568V111.622H9.56757V108.432ZM12.7568 108.432H15.9459V111.622H12.7568V108.432ZM19.1351 108.432H22.3243V111.622H19.1351V108.432ZM25.5135 108.432H28.7027V111.622H25.5135V108.432ZM28.7027 108.432H31.8919V111.622H28.7027V108.432ZM47.8378 108.432H51.027V111.622H47.8378V108.432ZM51.027 108.432H54.2162V111.622H51.027V108.432ZM57.4054 108.432H60.5946V111.622H57.4054V108.432ZM63.7838 108.432H66.973V111.622H63.7838V108.432ZM66.973 108.432H70.1622V111.622H66.973V108.432ZM76.5405 108.432H79.7297V111.622H76.5405V108.432ZM79.7297 108.432H82.9189V111.622H79.7297V108.432ZM82.9189 108.432H86.1081V111.622H82.9189V108.432ZM92.4865 108.432H95.6757V111.622H92.4865V108.432ZM98.8649 108.432H102.054V111.622H98.8649V108.432ZM114.811 108.432H118V111.622H114.811V108.432ZM0 111.622H3.18919V114.811H0V111.622ZM19.1351 111.622H22.3243V114.811H19.1351V111.622ZM25.5135 111.622H28.7027V114.811H25.5135V111.622ZM38.2703 111.622H41.4595V114.811H38.2703V111.622ZM57.4054 111.622H60.5946V114.811H57.4054V111.622ZM66.973 111.622H70.1622V114.811H66.973V111.622ZM70.1622 111.622H73.3513V114.811H70.1622V111.622ZM73.3513 111.622H76.5405V114.811H73.3513V111.622ZM76.5405 111.622H79.7297V114.811H76.5405V111.622ZM82.9189 111.622H86.1081V114.811H82.9189V111.622ZM86.1081 111.622H89.2973V114.811H86.1081V111.622ZM89.2973 111.622H92.4865V114.811H89.2973V111.622ZM92.4865 111.622H95.6757V114.811H92.4865V111.622ZM98.8649 111.622H102.054V114.811H98.8649V111.622ZM102.054 111.622H105.243V114.811H102.054V111.622ZM114.811 111.622H118V114.811H114.811V111.622ZM0 114.811H3.18919V118H0V114.811ZM3.18919 114.811H6.37838V118H3.18919V114.811ZM6.37838 114.811H9.56757V118H6.37838V114.811ZM9.56757 114.811H12.7568V118H9.56757V114.811ZM12.7568 114.811H15.9459V118H12.7568V114.811ZM15.9459 114.811H19.1351V118H15.9459V114.811ZM19.1351 114.811H22.3243V118H19.1351V114.811ZM31.8919 114.811H35.0811V118H31.8919V114.811ZM38.2703 114.811H41.4595V118H38.2703V114.811ZM41.4595 114.811H44.6486V118H41.4595V114.811ZM70.1622 114.811H73.3513V118H70.1622V114.811ZM73.3513 114.811H76.5405V118H73.3513V114.811ZM79.7297 114.811H82.9189V118H79.7297V114.811ZM82.9189 114.811H86.1081V118H82.9189V114.811ZM98.8649 114.811H102.054V118H98.8649V114.811ZM102.054 114.811H105.243V118H102.054V114.811ZM105.243 114.811H108.432V118H105.243V114.811ZM108.432 114.811H111.622V118H108.432V114.811ZM111.622 114.811H114.811V118H111.622V114.811ZM114.811 114.811H118V118H114.811V114.811Z" fill="#130C2C"/>
</svg>
