<svg width="118" height="118" viewBox="0 0 118 118" fill="none" xmlns="http://www.w3.org/2000/svg">
<path d="M0 0H3.57576V3.57576H0V0ZM3.57576 0H7.15152V3.57576H3.57576V0ZM7.15152 0H10.7273V3.57576H7.15152V0ZM10.7273 0H14.303V3.57576H10.7273V0ZM14.303 0H17.8788V3.57576H14.303V0ZM17.8788 0H21.4545V3.57576H17.8788V0ZM21.4545 0H25.0303V3.57576H21.4545V0ZM28.6061 0H32.1818V3.57576H28.6061V0ZM32.1818 0H35.7576V3.57576H32.1818V0ZM39.3333 0H42.9091V3.57576H39.3333V0ZM60.7879 0H64.3636V3.57576H60.7879V0ZM64.3636 0H67.9394V3.57576H64.3636V0ZM67.9394 0H71.5152V3.57576H67.9394V0ZM75.0909 0H78.6667V3.57576H75.0909V0ZM82.2424 0H85.8182V3.57576H82.2424V0ZM92.9697 0H96.5454V3.57576H92.9697V0ZM96.5454 0H100.121V3.57576H96.5454V0ZM100.121 0H103.697V3.57576H100.121V0ZM103.697 0H107.273V3.57576H103.697V0ZM107.273 0H110.848V3.57576H107.273V0ZM110.848 0H114.424V3.57576H110.848V0ZM114.424 0H118V3.57576H114.424V0ZM0 3.57576H3.57576V7.15152H0V3.57576ZM21.4545 3.57576H25.0303V7.15152H21.4545V3.57576ZM32.1818 3.57576H35.7576V7.15152H32.1818V3.57576ZM42.9091 3.57576H46.4848V7.15152H42.9091V3.57576ZM50.0606 3.57576H53.6364V7.15152H50.0606V3.57576ZM60.7879 3.57576H64.3636V7.15152H60.7879V3.57576ZM71.5152 3.57576H75.0909V7.15152H71.5152V3.57576ZM92.9697 3.57576H96.5454V7.15152H92.9697V3.57576ZM114.424 3.57576H118V7.15152H114.424V3.57576ZM0 7.15152H3.57576V10.7273H0V7.15152ZM7.15152 7.15152H10.7273V10.7273H7.15152V7.15152ZM10.7273 7.15152H14.303V10.7273H10.7273V7.15152ZM14.303 7.15152H17.8788V10.7273H14.303V7.15152ZM21.4545 7.15152H25.0303V10.7273H21.4545V7.15152ZM32.1818 7.15152H35.7576V10.7273H32.1818V7.15152ZM39.3333 7.15152H42.9091V10.7273H39.3333V7.15152ZM50.0606 7.15152H53.6364V10.7273H50.0606V7.15152ZM53.6364 7.15152H57.2121V10.7273H53.6364V7.15152ZM60.7879 7.15152H64.3636V10.7273H60.7879V7.15152ZM64.3636 7.15152H67.9394V10.7273H64.3636V7.15152ZM71.5152 7.15152H75.0909V10.7273H71.5152V7.15152ZM75.0909 7.15152H78.6667V10.7273H75.0909V7.15152ZM85.8182 7.15152H89.3939V10.7273H85.8182V7.15152ZM92.9697 7.15152H96.5454V10.7273H92.9697V7.15152ZM100.121 7.15152H103.697V10.7273H100.121V7.15152ZM103.697 7.15152H107.273V10.7273H103.697V7.15152ZM107.273 7.15152H110.848V10.7273H107.273V7.15152ZM114.424 7.15152H118V10.7273H114.424V7.15152ZM0 10.7273H3.57576V14.303H0V10.7273ZM7.15152 10.7273H10.7273V14.303H7.15152V10.7273ZM10.7273 10.7273H14.303V14.303H10.7273V10.7273ZM14.303 10.7273H17.8788V14.303H14.303V10.7273ZM21.4545 10.7273H25.0303V14.303H21.4545V10.7273ZM32.1818 10.7273H35.7576V14.303H32.1818V10.7273ZM35.7576 10.7273H39.3333V14.303H35.7576V10.7273ZM50.0606 10.7273H53.6364V14.303H50.0606V10.7273ZM67.9394 10.7273H71.5152V14.303H67.9394V10.7273ZM71.5152 10.7273H75.0909V14.303H71.5152V10.7273ZM78.6667 10.7273H82.2424V14.303H78.6667V10.7273ZM82.2424 10.7273H85.8182V14.303H82.2424V10.7273ZM85.8182 10.7273H89.3939V14.303H85.8182V10.7273ZM92.9697 10.7273H96.5454V14.303H92.9697V10.7273ZM100.121 10.7273H103.697V14.303H100.121V10.7273ZM103.697 10.7273H107.273V14.303H103.697V10.7273ZM107.273 10.7273H110.848V14.303H107.273V10.7273ZM114.424 10.7273H118V14.303H114.424V10.7273ZM0 14.303H3.57576V17.8788H0V14.303ZM7.15152 14.303H10.7273V17.8788H7.15152V14.303ZM10.7273 14.303H14.303V17.8788H10.7273V14.303ZM14.303 14.303H17.8788V17.8788H14.303V14.303ZM21.4545 14.303H25.0303V17.8788H21.4545V14.303ZM28.6061 14.303H32.1818V17.8788H28.6061V14.303ZM42.9091 14.303H46.4848V17.8788H42.9091V14.303ZM50.0606 14.303H53.6364V17.8788H50.0606V14.303ZM53.6364 14.303H57.2121V17.8788H53.6364V14.303ZM60.7879 14.303H64.3636V17.8788H60.7879V14.303ZM64.3636 14.303H67.9394V17.8788H64.3636V14.303ZM82.2424 14.303H85.8182V17.8788H82.2424V14.303ZM92.9697 14.303H96.5454V17.8788H92.9697V14.303ZM100.121 14.303H103.697V17.8788H100.121V14.303ZM103.697 14.303H107.273V17.8788H103.697V14.303ZM107.273 14.303H110.848V17.8788H107.273V14.303ZM114.424 14.303H118V17.8788H114.424V14.303ZM0 17.8788H3.57576V21.4545H0V17.8788ZM21.4545 17.8788H25.0303V21.4545H21.4545V17.8788ZM28.6061 17.8788H32.1818V21.4545H28.6061V17.8788ZM53.6364 17.8788H57.2121V21.4545H53.6364V17.8788ZM57.2121 17.8788H60.7879V21.4545H57.2121V17.8788ZM60.7879 17.8788H64.3636V21.4545H60.7879V17.8788ZM71.5152 17.8788H75.0909V21.4545H71.5152V17.8788ZM78.6667 17.8788H82.2424V21.4545H78.6667V17.8788ZM92.9697 17.8788H96.5454V21.4545H92.9697V17.8788ZM114.424 17.8788H118V21.4545H114.424V17.8788ZM0 21.4545H3.57576V25.0303H0V21.4545ZM3.57576 21.4545H7.15152V25.0303H3.57576V21.4545ZM7.15152 21.4545H10.7273V25.0303H7.15152V21.4545ZM10.7273 21.4545H14.303V25.0303H10.7273V21.4545ZM14.303 21.4545H17.8788V25.0303H14.303V21.4545ZM17.8788 21.4545H21.4545V25.0303H17.8788V21.4545ZM21.4545 21.4545H25.0303V25.0303H21.4545V21.4545ZM28.6061 21.4545H32.1818V25.0303H28.6061V21.4545ZM35.7576 21.4545H39.3333V25.0303H35.7576V21.4545ZM42.9091 21.4545H46.4848V25.0303H42.9091V21.4545ZM50.0606 21.4545H53.6364V25.0303H50.0606V21.4545ZM57.2121 21.4545H60.7879V25.0303H57.2121V21.4545ZM64.3636 21.4545H67.9394V25.0303H64.3636V21.4545ZM71.5152 21.4545H75.0909V25.0303H71.5152V21.4545ZM78.6667 21.4545H82.2424V25.0303H78.6667V21.4545ZM85.8182 21.4545H89.3939V25.0303H85.8182V21.4545ZM92.9697 21.4545H96.5454V25.0303H92.9697V21.4545ZM96.5454 21.4545H100.121V25.0303H96.5454V21.4545ZM100.121 21.4545H103.697V25.0303H100.121V21.4545ZM103.697 21.4545H107.273V25.0303H103.697V21.4545ZM107.273 21.4545H110.848V25.0303H107.273V21.4545ZM110.848 21.4545H114.424V25.0303H110.848V21.4545ZM114.424 21.4545H118V25.0303H114.424V21.4545ZM35.7576 25.0303H39.3333V28.6061H35.7576V25.0303ZM42.9091 25.0303H46.4848V28.6061H42.9091V25.0303ZM46.4848 25.0303H50.0606V28.6061H46.4848V25.0303ZM53.6364 25.0303H57.2121V28.6061H53.6364V25.0303ZM64.3636 25.0303H67.9394V28.6061H64.3636V25.0303ZM75.0909 25.0303H78.6667V28.6061H75.0909V25.0303ZM82.2424 25.0303H85.8182V28.6061H82.2424V25.0303ZM3.57576 28.6061H7.15152V32.1818H3.57576V28.6061ZM7.15152 28.6061H10.7273V32.1818H7.15152V28.6061ZM10.7273 28.6061H14.303V32.1818H10.7273V28.6061ZM14.303 28.6061H17.8788V32.1818H14.303V28.6061ZM17.8788 28.6061H21.4545V32.1818H17.8788V28.6061ZM21.4545 28.6061H25.0303V32.1818H21.4545V28.6061ZM25.0303 28.6061H28.6061V32.1818H25.0303V28.6061ZM39.3333 28.6061H42.9091V32.1818H39.3333V28.6061ZM46.4848 28.6061H50.0606V32.1818H46.4848V28.6061ZM53.6364 28.6061H57.2121V32.1818H53.6364V28.6061ZM60.7879 28.6061H64.3636V32.1818H60.7879V28.6061ZM78.6667 28.6061H82.2424V32.1818H78.6667V28.6061ZM82.2424 28.6061H85.8182V32.1818H82.2424V28.6061ZM85.8182 28.6061H89.3939V32.1818H85.8182V28.6061ZM96.5454 28.6061H100.121V32.1818H96.5454V28.6061ZM100.121 28.6061H103.697V32.1818H100.121V28.6061ZM114.424 28.6061H118V32.1818H114.424V28.6061ZM10.7273 32.1818H14.303V35.7576H10.7273V32.1818ZM14.303 32.1818H17.8788V35.7576H14.303V32.1818ZM17.8788 32.1818H21.4545V35.7576H17.8788V32.1818ZM25.0303 32.1818H28.6061V35.7576H25.0303V32.1818ZM28.6061 32.1818H32.1818V35.7576H28.6061V32.1818ZM39.3333 32.1818H42.9091V35.7576H39.3333V32.1818ZM42.9091 32.1818H46.4848V35.7576H42.9091V32.1818ZM50.0606 32.1818H53.6364V35.7576H50.0606V32.1818ZM57.2121 32.1818H60.7879V35.7576H57.2121V32.1818ZM64.3636 32.1818H67.9394V35.7576H64.3636V32.1818ZM67.9394 32.1818H71.5152V35.7576H67.9394V32.1818ZM71.5152 32.1818H75.0909V35.7576H71.5152V32.1818ZM75.0909 32.1818H78.6667V35.7576H75.0909V32.1818ZM78.6667 32.1818H82.2424V35.7576H78.6667V32.1818ZM82.2424 32.1818H85.8182V35.7576H82.2424V32.1818ZM92.9697 32.1818H96.5454V35.7576H92.9697V32.1818ZM96.5454 32.1818H100.121V35.7576H96.5454V32.1818ZM103.697 32.1818H107.273V35.7576H103.697V32.1818ZM107.273 32.1818H110.848V35.7576H107.273V32.1818ZM114.424 32.1818H118V35.7576H114.424V32.1818ZM0 35.7576H3.57576V39.3333H0V35.7576ZM7.15152 35.7576H10.7273V39.3333H7.15152V35.7576ZM10.7273 35.7576H14.303V39.3333H10.7273V35.7576ZM14.303 35.7576H17.8788V39.3333H14.303V35.7576ZM17.8788 35.7576H21.4545V39.3333H17.8788V35.7576ZM21.4545 35.7576H25.0303V39.3333H21.4545V35.7576ZM28.6061 35.7576H32.1818V39.3333H28.6061V35.7576ZM35.7576 35.7576H39.3333V39.3333H35.7576V35.7576ZM39.3333 35.7576H42.9091V39.3333H39.3333V35.7576ZM42.9091 35.7576H46.4848V39.3333H42.9091V35.7576ZM46.4848 35.7576H50.0606V39.3333H46.4848V35.7576ZM53.6364 35.7576H57.2121V39.3333H53.6364V35.7576ZM57.2121 35.7576H60.7879V39.3333H57.2121V35.7576ZM64.3636 35.7576H67.9394V39.3333H64.3636V35.7576ZM71.5152 35.7576H75.0909V39.3333H71.5152V35.7576ZM75.0909 35.7576H78.6667V39.3333H75.0909V35.7576ZM85.8182 35.7576H89.3939V39.3333H85.8182V35.7576ZM89.3939 35.7576H92.9697V39.3333H89.3939V35.7576ZM100.121 35.7576H103.697V39.3333H100.121V35.7576ZM107.273 35.7576H110.848V39.3333H107.273V35.7576ZM0 39.3333H3.57576V42.9091H0V39.3333ZM7.15152 39.3333H10.7273V42.9091H7.15152V39.3333ZM10.7273 39.3333H14.303V42.9091H10.7273V39.3333ZM14.303 39.3333H17.8788V42.9091H14.303V39.3333ZM17.8788 39.3333H21.4545V42.9091H17.8788V39.3333ZM35.7576 39.3333H39.3333V42.9091H35.7576V39.3333ZM42.9091 39.3333H46.4848V42.9091H42.9091V39.3333ZM46.4848 39.3333H50.0606V42.9091H46.4848V39.3333ZM53.6364 39.3333H57.2121V42.9091H53.6364V39.3333ZM75.0909 39.3333H78.6667V42.9091H75.0909V39.3333ZM78.6667 39.3333H82.2424V42.9091H78.6667V39.3333ZM82.2424 39.3333H85.8182V42.9091H82.2424V39.3333ZM89.3939 39.3333H92.9697V42.9091H89.3939V39.3333ZM100.121 39.3333H103.697V42.9091H100.121V39.3333ZM103.697 39.3333H107.273V42.9091H103.697V39.3333ZM107.273 39.3333H110.848V42.9091H107.273V39.3333ZM110.848 39.3333H114.424V42.9091H110.848V39.3333ZM0 42.9091H3.57576V46.4848H0V42.9091ZM3.57576 42.9091H7.15152V46.4848H3.57576V42.9091ZM14.303 42.9091H17.8788V46.4848H14.303V42.9091ZM17.8788 42.9091H21.4545V46.4848H17.8788V42.9091ZM21.4545 42.9091H25.0303V46.4848H21.4545V42.9091ZM28.6061 42.9091H32.1818V46.4848H28.6061V42.9091ZM42.9091 42.9091H46.4848V46.4848H42.9091V42.9091ZM46.4848 42.9091H50.0606V46.4848H46.4848V42.9091ZM64.3636 42.9091H67.9394V46.4848H64.3636V42.9091ZM78.6667 42.9091H82.2424V46.4848H78.6667V42.9091ZM82.2424 42.9091H85.8182V46.4848H82.2424V42.9091ZM85.8182 42.9091H89.3939V46.4848H85.8182V42.9091ZM89.3939 42.9091H92.9697V46.4848H89.3939V42.9091ZM100.121 42.9091H103.697V46.4848H100.121V42.9091ZM103.697 42.9091H107.273V46.4848H103.697V42.9091ZM110.848 42.9091H114.424V46.4848H110.848V42.9091ZM114.424 42.9091H118V46.4848H114.424V42.9091ZM0 46.4848H3.57576V50.0606H0V46.4848ZM3.57576 46.4848H7.15152V50.0606H3.57576V46.4848ZM10.7273 46.4848H14.303V50.0606H10.7273V46.4848ZM14.303 46.4848H17.8788V50.0606H14.303V46.4848ZM17.8788 46.4848H21.4545V50.0606H17.8788V46.4848ZM28.6061 46.4848H32.1818V50.0606H28.6061V46.4848ZM32.1818 46.4848H35.7576V50.0606H32.1818V46.4848ZM50.0606 46.4848H53.6364V50.0606H50.0606V46.4848ZM57.2121 46.4848H60.7879V50.0606H57.2121V46.4848ZM60.7879 46.4848H64.3636V50.0606H60.7879V46.4848ZM71.5152 46.4848H75.0909V50.0606H71.5152V46.4848ZM75.0909 46.4848H78.6667V50.0606H75.0909V46.4848ZM82.2424 46.4848H85.8182V50.0606H82.2424V46.4848ZM92.9697 46.4848H96.5454V50.0606H92.9697V46.4848ZM103.697 46.4848H107.273V50.0606H103.697V46.4848ZM110.848 46.4848H114.424V50.0606H110.848V46.4848ZM114.424 46.4848H118V50.0606H114.424V46.4848ZM3.57576 50.0606H7.15152V53.6364H3.57576V50.0606ZM10.7273 50.0606H14.303V53.6364H10.7273V50.0606ZM14.303 50.0606H17.8788V53.6364H14.303V50.0606ZM17.8788 50.0606H21.4545V53.6364H17.8788V50.0606ZM21.4545 50.0606H25.0303V53.6364H21.4545V50.0606ZM25.0303 50.0606H28.6061V53.6364H25.0303V50.0606ZM28.6061 50.0606H32.1818V53.6364H28.6061V50.0606ZM32.1818 50.0606H35.7576V53.6364H32.1818V50.0606ZM35.7576 50.0606H39.3333V53.6364H35.7576V50.0606ZM42.9091 50.0606H46.4848V53.6364H42.9091V50.0606ZM46.4848 50.0606H50.0606V53.6364H46.4848V50.0606ZM50.0606 50.0606H53.6364V53.6364H50.0606V50.0606ZM60.7879 50.0606H64.3636V53.6364H60.7879V50.0606ZM64.3636 50.0606H67.9394V53.6364H64.3636V50.0606ZM67.9394 50.0606H71.5152V53.6364H67.9394V50.0606ZM85.8182 50.0606H89.3939V53.6364H85.8182V50.0606ZM89.3939 50.0606H92.9697V53.6364H89.3939V50.0606ZM92.9697 50.0606H96.5454V53.6364H92.9697V50.0606ZM96.5454 50.0606H100.121V53.6364H96.5454V50.0606ZM103.697 50.0606H107.273V53.6364H103.697V50.0606ZM110.848 50.0606H114.424V53.6364H110.848V50.0606ZM0 53.6364H3.57576V57.2121H0V53.6364ZM17.8788 53.6364H21.4545V57.2121H17.8788V53.6364ZM32.1818 53.6364H35.7576V57.2121H32.1818V53.6364ZM39.3333 53.6364H42.9091V57.2121H39.3333V53.6364ZM46.4848 53.6364H50.0606V57.2121H46.4848V53.6364ZM50.0606 53.6364H53.6364V57.2121H50.0606V53.6364ZM53.6364 53.6364H57.2121V57.2121H53.6364V53.6364ZM57.2121 53.6364H60.7879V57.2121H57.2121V53.6364ZM64.3636 53.6364H67.9394V57.2121H64.3636V53.6364ZM67.9394 53.6364H71.5152V57.2121H67.9394V53.6364ZM71.5152 53.6364H75.0909V57.2121H71.5152V53.6364ZM75.0909 53.6364H78.6667V57.2121H75.0909V53.6364ZM78.6667 53.6364H82.2424V57.2121H78.6667V53.6364ZM89.3939 53.6364H92.9697V57.2121H89.3939V53.6364ZM92.9697 53.6364H96.5454V57.2121H92.9697V53.6364ZM96.5454 53.6364H100.121V57.2121H96.5454V53.6364ZM100.121 53.6364H103.697V57.2121H100.121V53.6364ZM103.697 53.6364H107.273V57.2121H103.697V53.6364ZM107.273 53.6364H110.848V57.2121H107.273V53.6364ZM0 57.2121H3.57576V60.7879H0V57.2121ZM3.57576 57.2121H7.15152V60.7879H3.57576V57.2121ZM7.15152 57.2121H10.7273V60.7879H7.15152V57.2121ZM10.7273 57.2121H14.303V60.7879H10.7273V57.2121ZM14.303 57.2121H17.8788V60.7879H14.303V57.2121ZM17.8788 57.2121H21.4545V60.7879H17.8788V57.2121ZM21.4545 57.2121H25.0303V60.7879H21.4545V57.2121ZM28.6061 57.2121H32.1818V60.7879H28.6061V57.2121ZM32.1818 57.2121H35.7576V60.7879H32.1818V57.2121ZM35.7576 57.2121H39.3333V60.7879H35.7576V57.2121ZM50.0606 57.2121H53.6364V60.7879H50.0606V57.2121ZM57.2121 57.2121H60.7879V60.7879H57.2121V57.2121ZM67.9394 57.2121H71.5152V60.7879H67.9394V57.2121ZM78.6667 57.2121H82.2424V60.7879H78.6667V57.2121ZM82.2424 57.2121H85.8182V60.7879H82.2424V57.2121ZM85.8182 57.2121H89.3939V60.7879H85.8182V57.2121ZM89.3939 57.2121H92.9697V60.7879H89.3939V57.2121ZM96.5454 57.2121H100.121V60.7879H96.5454V57.2121ZM100.121 57.2121H103.697V60.7879H100.121V57.2121ZM114.424 57.2121H118V60.7879H114.424V57.2121ZM7.15152 60.7879H10.7273V64.3636H7.15152V60.7879ZM10.7273 60.7879H14.303V64.3636H10.7273V60.7879ZM25.0303 60.7879H28.6061V64.3636H25.0303V60.7879ZM32.1818 60.7879H35.7576V64.3636H32.1818V60.7879ZM35.7576 60.7879H39.3333V64.3636H35.7576V60.7879ZM46.4848 60.7879H50.0606V64.3636H46.4848V60.7879ZM64.3636 60.7879H67.9394V64.3636H64.3636V60.7879ZM67.9394 60.7879H71.5152V64.3636H67.9394V60.7879ZM71.5152 60.7879H75.0909V64.3636H71.5152V60.7879ZM78.6667 60.7879H82.2424V64.3636H78.6667V60.7879ZM82.2424 60.7879H85.8182V64.3636H82.2424V60.7879ZM85.8182 60.7879H89.3939V64.3636H85.8182V60.7879ZM89.3939 60.7879H92.9697V64.3636H89.3939V60.7879ZM92.9697 60.7879H96.5454V64.3636H92.9697V60.7879ZM96.5454 60.7879H100.121V64.3636H96.5454V60.7879ZM103.697 60.7879H107.273V64.3636H103.697V60.7879ZM107.273 60.7879H110.848V64.3636H107.273V60.7879ZM114.424 60.7879H118V64.3636H114.424V60.7879ZM3.57576 64.3636H7.15152V67.9394H3.57576V64.3636ZM14.303 64.3636H17.8788V67.9394H14.303V64.3636ZM21.4545 64.3636H25.0303V67.9394H21.4545V64.3636ZM25.0303 64.3636H28.6061V67.9394H25.0303V64.3636ZM39.3333 64.3636H42.9091V67.9394H39.3333V64.3636ZM53.6364 64.3636H57.2121V67.9394H53.6364V64.3636ZM57.2121 64.3636H60.7879V67.9394H57.2121V64.3636ZM60.7879 64.3636H64.3636V67.9394H60.7879V64.3636ZM64.3636 64.3636H67.9394V67.9394H64.3636V64.3636ZM75.0909 64.3636H78.6667V67.9394H75.0909V64.3636ZM78.6667 64.3636H82.2424V67.9394H78.6667V64.3636ZM96.5454 64.3636H100.121V67.9394H96.5454V64.3636ZM100.121 64.3636H103.697V67.9394H100.121V64.3636ZM107.273 64.3636H110.848V67.9394H107.273V64.3636ZM110.848 64.3636H114.424V67.9394H110.848V64.3636ZM7.15152 67.9394H10.7273V71.5152H7.15152V67.9394ZM10.7273 67.9394H14.303V71.5152H10.7273V67.9394ZM14.303 67.9394H17.8788V71.5152H14.303V67.9394ZM25.0303 67.9394H28.6061V71.5152H25.0303V67.9394ZM28.6061 67.9394H32.1818V71.5152H28.6061V67.9394ZM32.1818 67.9394H35.7576V71.5152H32.1818V67.9394ZM42.9091 67.9394H46.4848V71.5152H42.9091V67.9394ZM50.0606 67.9394H53.6364V71.5152H50.0606V67.9394ZM57.2121 67.9394H60.7879V71.5152H57.2121V67.9394ZM64.3636 67.9394H67.9394V71.5152H64.3636V67.9394ZM67.9394 67.9394H71.5152V71.5152H67.9394V67.9394ZM75.0909 67.9394H78.6667V71.5152H75.0909V67.9394ZM82.2424 67.9394H85.8182V71.5152H82.2424V67.9394ZM92.9697 67.9394H96.5454V71.5152H92.9697V67.9394ZM96.5454 67.9394H100.121V71.5152H96.5454V67.9394ZM100.121 67.9394H103.697V71.5152H100.121V67.9394ZM103.697 67.9394H107.273V71.5152H103.697V67.9394ZM107.273 67.9394H110.848V71.5152H107.273V67.9394ZM110.848 67.9394H114.424V71.5152H110.848V67.9394ZM114.424 67.9394H118V71.5152H114.424V67.9394ZM0 71.5152H3.57576V75.0909H0V71.5152ZM3.57576 71.5152H7.15152V75.0909H3.57576V71.5152ZM7.15152 71.5152H10.7273V75.0909H7.15152V71.5152ZM10.7273 71.5152H14.303V75.0909H10.7273V71.5152ZM17.8788 71.5152H21.4545V75.0909H17.8788V71.5152ZM21.4545 71.5152H25.0303V75.0909H21.4545V71.5152ZM25.0303 71.5152H28.6061V75.0909H25.0303V71.5152ZM32.1818 71.5152H35.7576V75.0909H32.1818V71.5152ZM42.9091 71.5152H46.4848V75.0909H42.9091V71.5152ZM50.0606 71.5152H53.6364V75.0909H50.0606V71.5152ZM53.6364 71.5152H57.2121V75.0909H53.6364V71.5152ZM57.2121 71.5152H60.7879V75.0909H57.2121V71.5152ZM71.5152 71.5152H75.0909V75.0909H71.5152V71.5152ZM85.8182 71.5152H89.3939V75.0909H85.8182V71.5152ZM96.5454 71.5152H100.121V75.0909H96.5454V71.5152ZM100.121 71.5152H103.697V75.0909H100.121V71.5152ZM103.697 71.5152H107.273V75.0909H103.697V71.5152ZM110.848 71.5152H114.424V75.0909H110.848V71.5152ZM114.424 71.5152H118V75.0909H114.424V71.5152ZM0 75.0909H3.57576V78.6667H0V75.0909ZM10.7273 75.0909H14.303V78.6667H10.7273V75.0909ZM14.303 75.0909H17.8788V78.6667H14.303V75.0909ZM25.0303 75.0909H28.6061V78.6667H25.0303V75.0909ZM28.6061 75.0909H32.1818V78.6667H28.6061V75.0909ZM42.9091 75.0909H46.4848V78.6667H42.9091V75.0909ZM50.0606 75.0909H53.6364V78.6667H50.0606V75.0909ZM53.6364 75.0909H57.2121V78.6667H53.6364V75.0909ZM57.2121 75.0909H60.7879V78.6667H57.2121V75.0909ZM64.3636 75.0909H67.9394V78.6667H64.3636V75.0909ZM75.0909 75.0909H78.6667V78.6667H75.0909V75.0909ZM82.2424 75.0909H85.8182V78.6667H82.2424V75.0909ZM92.9697 75.0909H96.5454V78.6667H92.9697V75.0909ZM107.273 75.0909H110.848V78.6667H107.273V75.0909ZM114.424 75.0909H118V78.6667H114.424V75.0909ZM0 78.6667H3.57576V82.2424H0V78.6667ZM7.15152 78.6667H10.7273V82.2424H7.15152V78.6667ZM10.7273 78.6667H14.303V82.2424H10.7273V78.6667ZM17.8788 78.6667H21.4545V82.2424H17.8788V78.6667ZM21.4545 78.6667H25.0303V82.2424H21.4545V78.6667ZM39.3333 78.6667H42.9091V82.2424H39.3333V78.6667ZM46.4848 78.6667H50.0606V82.2424H46.4848V78.6667ZM50.0606 78.6667H53.6364V82.2424H50.0606V78.6667ZM64.3636 78.6667H67.9394V82.2424H64.3636V78.6667ZM71.5152 78.6667H75.0909V82.2424H71.5152V78.6667ZM75.0909 78.6667H78.6667V82.2424H75.0909V78.6667ZM78.6667 78.6667H82.2424V82.2424H78.6667V78.6667ZM89.3939 78.6667H92.9697V82.2424H89.3939V78.6667ZM96.5454 78.6667H100.121V82.2424H96.5454V78.6667ZM100.121 78.6667H103.697V82.2424H100.121V78.6667ZM103.697 78.6667H107.273V82.2424H103.697V78.6667ZM107.273 78.6667H110.848V82.2424H107.273V78.6667ZM110.848 78.6667H114.424V82.2424H110.848V78.6667ZM0 82.2424H3.57576V85.8182H0V82.2424ZM17.8788 82.2424H21.4545V85.8182H17.8788V82.2424ZM28.6061 82.2424H32.1818V85.8182H28.6061V82.2424ZM32.1818 82.2424H35.7576V85.8182H32.1818V82.2424ZM35.7576 82.2424H39.3333V85.8182H35.7576V82.2424ZM46.4848 82.2424H50.0606V85.8182H46.4848V82.2424ZM53.6364 82.2424H57.2121V85.8182H53.6364V82.2424ZM57.2121 82.2424H60.7879V85.8182H57.2121V82.2424ZM60.7879 82.2424H64.3636V85.8182H60.7879V82.2424ZM64.3636 82.2424H67.9394V85.8182H64.3636V82.2424ZM75.0909 82.2424H78.6667V85.8182H75.0909V82.2424ZM82.2424 82.2424H85.8182V85.8182H82.2424V82.2424ZM89.3939 82.2424H92.9697V85.8182H89.3939V82.2424ZM92.9697 82.2424H96.5454V85.8182H92.9697V82.2424ZM103.697 82.2424H107.273V85.8182H103.697V82.2424ZM107.273 82.2424H110.848V85.8182H107.273V82.2424ZM0 85.8182H3.57576V89.3939H0V85.8182ZM10.7273 85.8182H14.303V89.3939H10.7273V85.8182ZM14.303 85.8182H17.8788V89.3939H14.303V85.8182ZM21.4545 85.8182H25.0303V89.3939H21.4545V85.8182ZM25.0303 85.8182H28.6061V89.3939H25.0303V85.8182ZM28.6061 85.8182H32.1818V89.3939H28.6061V85.8182ZM32.1818 85.8182H35.7576V89.3939H32.1818V85.8182ZM39.3333 85.8182H42.9091V89.3939H39.3333V85.8182ZM42.9091 85.8182H46.4848V89.3939H42.9091V85.8182ZM57.2121 85.8182H60.7879V89.3939H57.2121V85.8182ZM60.7879 85.8182H64.3636V89.3939H60.7879V85.8182ZM64.3636 85.8182H67.9394V89.3939H64.3636V85.8182ZM71.5152 85.8182H75.0909V89.3939H71.5152V85.8182ZM78.6667 85.8182H82.2424V89.3939H78.6667V85.8182ZM85.8182 85.8182H89.3939V89.3939H85.8182V85.8182ZM89.3939 85.8182H92.9697V89.3939H89.3939V85.8182ZM92.9697 85.8182H96.5454V89.3939H92.9697V85.8182ZM96.5454 85.8182H100.121V89.3939H96.5454V85.8182ZM100.121 85.8182H103.697V89.3939H100.121V85.8182ZM114.424 85.8182H118V89.3939H114.424V85.8182ZM28.6061 89.3939H32.1818V92.9697H28.6061V89.3939ZM32.1818 89.3939H35.7576V92.9697H32.1818V89.3939ZM39.3333 89.3939H42.9091V92.9697H39.3333V89.3939ZM42.9091 89.3939H46.4848V92.9697H42.9091V89.3939ZM60.7879 89.3939H64.3636V92.9697H60.7879V89.3939ZM67.9394 89.3939H71.5152V92.9697H67.9394V89.3939ZM71.5152 89.3939H75.0909V92.9697H71.5152V89.3939ZM82.2424 89.3939H85.8182V92.9697H82.2424V89.3939ZM85.8182 89.3939H89.3939V92.9697H85.8182V89.3939ZM100.121 89.3939H103.697V92.9697H100.121V89.3939ZM107.273 89.3939H110.848V92.9697H107.273V89.3939ZM114.424 89.3939H118V92.9697H114.424V89.3939ZM0 92.9697H3.57576V96.5454H0V92.9697ZM3.57576 92.9697H7.15152V96.5454H3.57576V92.9697ZM7.15152 92.9697H10.7273V96.5454H7.15152V92.9697ZM10.7273 92.9697H14.303V96.5454H10.7273V92.9697ZM14.303 92.9697H17.8788V96.5454H14.303V92.9697ZM17.8788 92.9697H21.4545V96.5454H17.8788V92.9697ZM21.4545 92.9697H25.0303V96.5454H21.4545V92.9697ZM28.6061 92.9697H32.1818V96.5454H28.6061V92.9697ZM35.7576 92.9697H39.3333V96.5454H35.7576V92.9697ZM39.3333 92.9697H42.9091V96.5454H39.3333V92.9697ZM42.9091 92.9697H46.4848V96.5454H42.9091V92.9697ZM46.4848 92.9697H50.0606V96.5454H46.4848V92.9697ZM50.0606 92.9697H53.6364V96.5454H50.0606V92.9697ZM60.7879 92.9697H64.3636V96.5454H60.7879V92.9697ZM64.3636 92.9697H67.9394V96.5454H64.3636V92.9697ZM71.5152 92.9697H75.0909V96.5454H71.5152V92.9697ZM78.6667 92.9697H82.2424V96.5454H78.6667V92.9697ZM82.2424 92.9697H85.8182V96.5454H82.2424V92.9697ZM85.8182 92.9697H89.3939V96.5454H85.8182V92.9697ZM92.9697 92.9697H96.5454V96.5454H92.9697V92.9697ZM100.121 92.9697H103.697V96.5454H100.121V92.9697ZM107.273 92.9697H110.848V96.5454H107.273V92.9697ZM110.848 92.9697H114.424V96.5454H110.848V92.9697ZM0 96.5454H3.57576V100.121H0V96.5454ZM21.4545 96.5454H25.0303V100.121H21.4545V96.5454ZM28.6061 96.5454H32.1818V100.121H28.6061V96.5454ZM35.7576 96.5454H39.3333V100.121H35.7576V96.5454ZM50.0606 96.5454H53.6364V100.121H50.0606V96.5454ZM53.6364 96.5454H57.2121V100.121H53.6364V96.5454ZM57.2121 96.5454H60.7879V100.121H57.2121V96.5454ZM64.3636 96.5454H67.9394V100.121H64.3636V96.5454ZM67.9394 96.5454H71.5152V100.121H67.9394V96.5454ZM71.5152 96.5454H75.0909V100.121H71.5152V96.5454ZM75.0909 96.5454H78.6667V100.121H75.0909V96.5454ZM78.6667 96.5454H82.2424V100.121H78.6667V96.5454ZM82.2424 96.5454H85.8182V100.121H82.2424V96.5454ZM85.8182 96.5454H89.3939V100.121H85.8182V96.5454ZM100.121 96.5454H103.697V100.121H100.121V96.5454ZM103.697 96.5454H107.273V100.121H103.697V96.5454ZM107.273 96.5454H110.848V100.121H107.273V96.5454ZM110.848 96.5454H114.424V100.121H110.848V96.5454ZM114.424 96.5454H118V100.121H114.424V96.5454ZM0 100.121H3.57576V103.697H0V100.121ZM7.15152 100.121H10.7273V103.697H7.15152V100.121ZM10.7273 100.121H14.303V103.697H10.7273V100.121ZM14.303 100.121H17.8788V103.697H14.303V100.121ZM21.4545 100.121H25.0303V103.697H21.4545V100.121ZM28.6061 100.121H32.1818V103.697H28.6061V100.121ZM35.7576 100.121H39.3333V103.697H35.7576V100.121ZM42.9091 100.121H46.4848V103.697H42.9091V100.121ZM46.4848 100.121H50.0606V103.697H46.4848V100.121ZM50.0606 100.121H53.6364V103.697H50.0606V100.121ZM60.7879 100.121H64.3636V103.697H60.7879V100.121ZM75.0909 100.121H78.6667V103.697H75.0909V100.121ZM85.8182 100.121H89.3939V103.697H85.8182V100.121ZM89.3939 100.121H92.9697V103.697H89.3939V100.121ZM92.9697 100.121H96.5454V103.697H92.9697V100.121ZM96.5454 100.121H100.121V103.697H96.5454V100.121ZM100.121 100.121H103.697V103.697H100.121V100.121ZM103.697 100.121H107.273V103.697H103.697V100.121ZM0 103.697H3.57576V107.273H0V103.697ZM7.15152 103.697H10.7273V107.273H7.15152V103.697ZM10.7273 103.697H14.303V107.273H10.7273V103.697ZM14.303 103.697H17.8788V107.273H14.303V103.697ZM21.4545 103.697H25.0303V107.273H21.4545V103.697ZM28.6061 103.697H32.1818V107.273H28.6061V103.697ZM32.1818 103.697H35.7576V107.273H32.1818V103.697ZM35.7576 103.697H39.3333V107.273H35.7576V103.697ZM39.3333 103.697H42.9091V107.273H39.3333V103.697ZM42.9091 103.697H46.4848V107.273H42.9091V103.697ZM50.0606 103.697H53.6364V107.273H50.0606V103.697ZM53.6364 103.697H57.2121V107.273H53.6364V103.697ZM57.2121 103.697H60.7879V107.273H57.2121V103.697ZM71.5152 103.697H75.0909V107.273H71.5152V103.697ZM75.0909 103.697H78.6667V107.273H75.0909V103.697ZM82.2424 103.697H85.8182V107.273H82.2424V103.697ZM89.3939 103.697H92.9697V107.273H89.3939V103.697ZM100.121 103.697H103.697V107.273H100.121V103.697ZM103.697 103.697H107.273V107.273H103.697V103.697ZM107.273 103.697H110.848V107.273H107.273V103.697ZM114.424 103.697H118V107.273H114.424V103.697ZM0 107.273H3.57576V110.848H0V107.273ZM7.15152 107.273H10.7273V110.848H7.15152V107.273ZM10.7273 107.273H14.303V110.848H10.7273V107.273ZM14.303 107.273H17.8788V110.848H14.303V107.273ZM21.4545 107.273H25.0303V110.848H21.4545V107.273ZM28.6061 107.273H32.1818V110.848H28.6061V107.273ZM32.1818 107.273H35.7576V110.848H32.1818V107.273ZM35.7576 107.273H39.3333V110.848H35.7576V107.273ZM39.3333 107.273H42.9091V110.848H39.3333V107.273ZM60.7879 107.273H64.3636V110.848H60.7879V107.273ZM64.3636 107.273H67.9394V110.848H64.3636V107.273ZM67.9394 107.273H71.5152V110.848H67.9394V107.273ZM75.0909 107.273H78.6667V110.848H75.0909V107.273ZM82.2424 107.273H85.8182V110.848H82.2424V107.273ZM85.8182 107.273H89.3939V110.848H85.8182V107.273ZM89.3939 107.273H92.9697V110.848H89.3939V107.273ZM92.9697 107.273H96.5454V110.848H92.9697V107.273ZM96.5454 107.273H100.121V110.848H96.5454V107.273ZM0 110.848H3.57576V114.424H0V110.848ZM21.4545 110.848H25.0303V114.424H21.4545V110.848ZM28.6061 110.848H32.1818V114.424H28.6061V110.848ZM39.3333 110.848H42.9091V114.424H39.3333V110.848ZM46.4848 110.848H50.0606V114.424H46.4848V110.848ZM53.6364 110.848H57.2121V114.424H53.6364V110.848ZM57.2121 110.848H60.7879V114.424H57.2121V110.848ZM64.3636 110.848H67.9394V114.424H64.3636V110.848ZM67.9394 110.848H71.5152V114.424H67.9394V110.848ZM71.5152 110.848H75.0909V114.424H71.5152V110.848ZM75.0909 110.848H78.6667V114.424H75.0909V110.848ZM78.6667 110.848H82.2424V114.424H78.6667V110.848ZM89.3939 110.848H92.9697V114.424H89.3939V110.848ZM92.9697 110.848H96.5454V114.424H92.9697V110.848ZM100.121 110.848H103.697V114.424H100.121V110.848ZM103.697 110.848H107.273V114.424H103.697V110.848ZM107.273 110.848H110.848V114.424H107.273V110.848ZM0 114.424H3.57576V118H0V114.424ZM3.57576 114.424H7.15152V118H3.57576V114.424ZM7.15152 114.424H10.7273V118H7.15152V114.424ZM10.7273 114.424H14.303V118H10.7273V114.424ZM14.303 114.424H17.8788V118H14.303V114.424ZM17.8788 114.424H21.4545V118H17.8788V114.424ZM21.4545 114.424H25.0303V118H21.4545V114.424ZM35.7576 114.424H39.3333V118H35.7576V114.424ZM39.3333 114.424H42.9091V118H39.3333V114.424ZM64.3636 114.424H67.9394V118H64.3636V114.424ZM67.9394 114.424H71.5152V118H67.9394V114.424ZM78.6667 114.424H82.2424V118H78.6667V114.424ZM82.2424 114.424H85.8182V118H82.2424V114.424ZM85.8182 114.424H89.3939V118H85.8182V114.424ZM92.9697 114.424H96.5454V118H92.9697V114.424ZM96.5454 114.424H100.121V118H96.5454V114.424ZM110.848 114.424H114.424V118H110.848V114.424Z" fill="#130C2C"/>
</svg>
