<?xml version="1.0" encoding="utf-8"?>
<!-- Generator: Adobe Illustrator 24.1.0, SVG Export Plug-In . SVG Version: 6.00 Build 0)  -->
<svg version="1.1" id="Слой_1" xmlns="http://www.w3.org/2000/svg" xmlns:xlink="http://www.w3.org/1999/xlink" x="0px" y="0px"
	 viewBox="0 0 1081.6 295.5" style="enable-background:new 0 0 1081.6 295.5;" xml:space="preserve">
<style type="text/css">
	.st0{fill:#FFFFFF;}
	.st1{fill:#7FAF2A;}
</style>
<g>
	<path class="st0" d="M404.2,168.9l9.3-11.2c6.5,5.3,13.2,8.7,21.4,8.7c6.5,0,10.3-2.6,10.3-6.8v-0.2c0-4-2.5-6-14.4-9.1
		c-14.4-3.7-23.8-7.7-23.8-21.9v-0.2c0-13,10.4-21.6,25.1-21.6c10.4,0,19.4,3.3,26.6,9.1l-8.2,11.9c-6.3-4.4-12.6-7.1-18.6-7.1
		s-9.2,2.8-9.2,6.2v0.2c0,4.7,3.1,6.2,15.5,9.4c14.5,3.8,22.7,9,22.7,21.5v0.2c0,14.2-10.9,22.2-26.3,22.2
		C423.8,180.4,412.8,176.6,404.2,168.9"/>
	<path class="st0" d="M497.9,160v-2.8c-2.7-1.2-6.1-2-9.9-2c-6.7,0-10.8,2.7-10.8,7.6v0.2c0,4.2,3.5,6.7,8.5,6.7
		C493,169.7,497.9,165.7,497.9,160 M462.1,163.6v-0.2c0-12,9.1-17.5,22.1-17.5c5.5,0,9.5,0.9,13.4,2.2v-0.9c0-6.4-4-10-11.8-10
		c-5.9,0-10.1,1.1-15.2,3l-3.9-11.9c6-2.7,12-4.4,21.3-4.4c8.5,0,14.6,2.3,18.5,6.1c4.1,4.1,5.9,10.1,5.9,17.5v31.8h-15.1v-5.9
		c-3.8,4.2-9,7-16.6,7C470.6,180.4,462.1,174.5,462.1,163.6"/>
	<rect x="515.8" y="104.6" class="st0" width="15.6" height="74.7"/>
	<path class="st0" d="M572.3,147.6c-0.9-7-5-11.7-11.6-11.7c-6.5,0-10.6,4.6-11.9,11.7H572.3z M533.6,152.3V152
		c0-15.7,11.2-28.6,27.1-28.6c18.3,0,26.7,14.2,26.7,29.8c0,1.2-0.1,2.7-0.2,4.1H549c1.5,7.1,6.5,10.8,13.4,10.8
		c5.2,0,9-1.6,13.3-5.6l8.9,7.9c-5.1,6.3-12.5,10.2-22.4,10.2C545.8,180.6,533.6,169,533.6,152.3"/>
	<path class="st0" d="M585.5,172.1l6.7-10.2c5.9,4.3,12.2,6.6,17.3,6.6c4.5,0,6.5-1.6,6.5-4.1v-0.2c0-3.4-5.3-4.5-11.4-6.3
		c-7.7-2.3-16.4-5.8-16.4-16.5v-0.2c0-11.2,9-17.4,20.1-17.4c7,0,14.5,2.4,20.5,6.3l-5.9,10.8c-5.4-3.2-10.9-5.1-14.8-5.1
		c-3.8,0-5.7,1.6-5.7,3.8v0.2c0,3.1,5.2,4.5,11.2,6.6c7.7,2.6,16.6,6.2,16.6,16.3v0.2c0,12.2-9.1,17.7-21,17.7
		C601.4,180.4,592.8,177.8,585.5,172.1"/>
	<path class="st1" d="M661.4,165.2c12.9,0,21.6-8.7,21.6-21.4v-0.2c0-12.7-8.7-21.6-21.6-21.6h-12.2v43.2H661.4z M633.5,107.7h27.9
		c22.5,0,38.1,15.5,38.1,35.6v0.2c0,20.2-15.6,35.8-38.1,35.8h-27.9V107.7z"/>
	<path class="st1" d="M744.4,152.3V152c0-8.1-5.8-15.1-14.4-15.1c-8.9,0-14.2,6.9-14.2,14.9v0.2c0,8.1,5.8,15.2,14.4,15.2
		C739.1,167.2,744.4,160.3,744.4,152.3 M700.4,152.3V152c0-15.8,12.7-28.6,29.8-28.6c17,0,29.6,12.6,29.6,28.4v0.2
		c0,15.8-12.7,28.6-29.8,28.6C713,180.6,700.4,168,700.4,152.3"/>
	<path class="st1" d="M761.9,160v-35.5h15.6v30.6c0,7.4,3.5,11.2,9.4,11.2s9.7-3.8,9.7-11.2v-30.6h15.6v54.9h-15.6v-7.8
		c-3.6,4.6-8.2,8.8-16.1,8.8C768.8,180.4,761.9,172.6,761.9,160"/>
	<path class="st1" d="M857.5,152v-0.2c0-9.1-6.1-15.2-13.4-15.2c-7.3,0-13.3,6-13.3,15.2v0.2c0,9.1,6,15.2,13.3,15.2
		C851.3,167.2,857.5,161.3,857.5,152 M830.9,172.2v7.2h-15.5v-74.8H831v27.7c3.8-5.1,9-8.9,17.1-8.9c12.8,0,25,10,25,28.4v0.2
		c0,18.3-12,28.4-25,28.4C839.8,180.4,834.6,176.6,830.9,172.2"/>
	<rect x="876.7" y="104.6" class="st1" width="15.6" height="74.7"/>
	<path class="st1" d="M934.3,147.6c-0.9-7-5-11.7-11.6-11.7c-6.4,0-10.6,4.6-11.9,11.7H934.3z M895.6,152.3V152
		c0-15.7,11.2-28.6,27.1-28.6c18.3,0,26.7,14.2,26.7,29.8c0,1.2-0.1,2.7-0.2,4.1H911c1.5,7.1,6.4,10.8,13.4,10.8
		c5.2,0,9-1.6,13.3-5.6l8.9,7.9c-5.1,6.3-12.5,10.2-22.4,10.2C907.7,180.6,895.6,169,895.6,152.3"/>
	<path class="st1" d="M952.3,124.5h15.6v11.1c3.2-7.6,8.3-12.5,17.5-12.1v16.3h-0.8c-10.3,0-16.7,6.2-16.7,19.3v20.3h-15.6V124.5z"
		/>
	<path class="st1" d="M95.4,147c0,26.8,21.7,48.5,48.5,48.5c21.8,0,40.3-14.4,46.3-34.2h-40.8l0,0c-7.9,0-14.3-6.4-14.3-14.3
		c0-7.9,6.4-14.3,14.3-14.3h40.9c-6.2-19.8-24.6-34.2-46.4-34.2C117.1,98.5,95.4,120.2,95.4,147"/>
	<path class="st1" d="M296.9,147c0-26.8-21.7-48.4-48.5-48.4c-21.8,0-40.3,14.4-46.3,34.2h34v-13.3l39.8,27.1l-39.8,27.9v-13.2h-34
		c6.1,19.8,24.5,34.2,46.3,34.2C275.2,195.5,296.9,173.8,296.9,147c0,26.8,21.7,48.5,48.5,48.5s48.5-21.7,48.5-48.5
		s-21.7-48.5-48.5-48.5S296.9,120.2,296.9,147"/>
</g>
</svg>
