<svg xmlns="http://www.w3.org/2000/svg" width="203" height="45" fill="none"><path fill="#3F7F1C" d="m5.028 24.1 24.886 20.632-17.654-6.517L5.028 24.1Z"/><path fill="#81BD52" d="m6.556 22.568 11.312 3.81 6.42 11.215L6.555 22.568Z"/><path fill="#3F7F1C" d="M.948 8.986a5.929 5.929 0 0 0 1.818 3.171c1.45 1.18 4.872 1.083 4.872 1.083l-3.693-2.978L.948 8.986ZM6.111 8.428l3.075 4.621 1.72.445.252-2.243-5.047-2.823ZM12.53 12.34l-.173 4.157 6.342 8.412-.27-4.08-5.898-8.49ZM23.224 14.134l7.792 26.8V.83l-7.792 13.304ZM27.652.926 23.785.211l-1.567 5.066.271 1.354L27.652.926ZM22.895 0l-2.03 1.16.754 2.92L22.895 0Z"/><path fill="#81BD52" d="M10.81 5.084 9.553 7.346v1.992l2.088-1.818-.831-2.436Z"/><path fill="#3F7F1C" d="m19.356 20.652.33 4.447 3.808-5.878-.947-3.848-3.19 5.279Z"/><path fill="#81BD52" d="M57.063 24.1 32.177 44.732l17.654-6.517L57.063 24.1Z"/><path fill="#3F7F1C" d="m55.535 22.568-11.312 3.81-6.42 11.215 17.732-15.025Z"/><path fill="#81BD52" d="M61.143 8.986a5.93 5.93 0 0 1-1.818 3.171c-1.45 1.18-4.873 1.083-4.873 1.083l3.693-2.978 2.998-1.276Z"/><path fill="#3F7F1C" d="m55.98 8.428-3.075 4.621-1.72.445-.252-2.243 5.047-2.823ZM49.56 12.34l.175 4.157-6.343 8.412.271-4.08 5.898-8.49Z"/><path fill="#81BD52" d="m38.886 14.134-7.792 26.8V.83l7.792 13.304ZM33.569.78 38.055.2l1.818 4.06-.31 1.083L33.57.779ZM39.196 0l2.03 1.16-.754 2.92L39.196 0Z"/><path fill="#3F7F1C" d="m51.281 5.084 1.277 2.262v1.992L50.469 7.52l.812-2.436Z"/><path fill="#81BD52" d="m42.734 20.652-.328 4.447-3.81-5.878.948-3.848 3.19 5.279Z"/><path fill="#fff" d="M77.94 29.175c-.958 0-1.82-.164-2.587-.493-.767-.342-1.37-.821-1.807-1.437-.438-.616-.657-1.335-.657-2.157h2.505c.055.616.294 1.123.719 1.52.438.397 1.047.596 1.827.596.808 0 1.438-.192 1.89-.575.451-.397.677-.904.677-1.52 0-.48-.143-.87-.43-1.17a2.71 2.71 0 0 0-1.048-.699c-.41-.164-.986-.342-1.725-.534-.931-.246-1.69-.493-2.28-.739a3.856 3.856 0 0 1-1.478-1.191c-.41-.534-.616-1.246-.616-2.136 0-.821.205-1.54.616-2.156.41-.616.985-1.088 1.725-1.417.74-.329 1.595-.493 2.567-.493 1.383 0 2.512.35 3.388 1.047.89.685 1.383 1.63 1.479 2.834h-2.588c-.04-.52-.287-.965-.74-1.334-.45-.37-1.046-.555-1.786-.555-.67 0-1.218.171-1.642.514-.425.342-.637.835-.637 1.478 0 .438.13.801.39 1.088a3.01 3.01 0 0 0 1.027.658c.41.164.972.342 1.684.534.944.26 1.711.52 2.3.78.602.26 1.109.664 1.52 1.212.424.533.636 1.252.636 2.156 0 .725-.198 1.41-.596 2.053-.383.644-.951 1.164-1.704 1.561-.74.383-1.615.575-2.629.575Zm6.911-5.812c0-1.163.233-2.183.698-3.06.48-.89 1.136-1.574 1.972-2.053.835-.48 1.793-.719 2.875-.719 1.369 0 2.498.329 3.388.986.903.643 1.513 1.568 1.828 2.772h-2.526c-.206-.561-.534-1-.986-1.314-.452-.315-1.02-.472-1.704-.472-.959 0-1.725.342-2.3 1.026-.562.671-.842 1.616-.842 2.834 0 1.219.28 2.17.842 2.855.575.684 1.341 1.027 2.3 1.027 1.355 0 2.252-.596 2.69-1.787h2.526c-.329 1.15-.945 2.067-1.849 2.752-.903.67-2.026 1.006-3.367 1.006-1.082 0-2.04-.24-2.875-.719a5.27 5.27 0 0 1-1.972-2.053c-.465-.89-.698-1.917-.698-3.08Zm15.435-4.004a3.62 3.62 0 0 1 1.355-1.335c.575-.328 1.253-.493 2.033-.493v2.424h-.595c-.918 0-1.616.232-2.095.698-.466.465-.698 1.273-.698 2.423v5.955h-2.341V17.716h2.341v1.643Zm10.448 9.857c-1.068 0-2.033-.24-2.895-.719a5.328 5.328 0 0 1-2.034-2.053c-.492-.89-.739-1.917-.739-3.08 0-1.15.253-2.17.76-3.06a5.251 5.251 0 0 1 2.074-2.054c.876-.48 1.855-.719 2.937-.719 1.081 0 2.06.24 2.936.72a5.245 5.245 0 0 1 2.074 2.053c.507.89.76 1.91.76 3.06 0 1.15-.26 2.17-.78 3.06a5.453 5.453 0 0 1-2.136 2.073c-.89.48-1.875.72-2.957.72Zm0-2.033c.602 0 1.164-.144 1.684-.431.534-.288.965-.719 1.294-1.294.328-.575.493-1.273.493-2.095 0-.821-.158-1.512-.473-2.074-.315-.575-.732-1.006-1.252-1.293a3.43 3.43 0 0 0-1.684-.432c-.603 0-1.164.144-1.684.432-.507.287-.911.718-1.212 1.293-.301.562-.452 1.253-.452 2.074 0 1.219.308 2.163.924 2.834.63.658 1.417.986 2.362.986Zm13.095 2.033c-1.067 0-2.033-.24-2.895-.719a5.326 5.326 0 0 1-2.033-2.053c-.493-.89-.739-1.917-.739-3.08 0-1.15.253-2.17.759-3.06a5.247 5.247 0 0 1 2.075-2.054c.876-.48 1.855-.719 2.936-.719 1.082 0 2.061.24 2.937.72a5.251 5.251 0 0 1 2.074 2.053c.506.89.76 1.91.76 3.06 0 1.15-.26 2.17-.781 3.06a5.457 5.457 0 0 1-2.135 2.073c-.89.48-1.876.72-2.958.72Zm0-2.033c.603 0 1.164-.144 1.684-.431.534-.288.966-.719 1.294-1.294.329-.575.493-1.273.493-2.095 0-.821-.157-1.512-.472-2.074-.315-.575-.733-1.006-1.253-1.293a3.426 3.426 0 0 0-1.684-.432c-.602 0-1.164.144-1.684.432-.506.287-.91.718-1.211 1.293-.302.562-.452 1.253-.452 2.074 0 1.219.308 2.163.924 2.834.63.658 1.417.986 2.361.986Zm12.747-9.652c.876 0 1.65.178 2.32.534.685.342 1.219.774 1.602 1.294v-1.643h2.362v11.5c0 1.04-.219 1.965-.657 2.772a4.715 4.715 0 0 1-1.91 1.93c-.822.466-1.807.699-2.957.699-1.534 0-2.807-.363-3.82-1.088-1.013-.712-1.588-1.684-1.725-2.917h2.321c.178.59.554 1.062 1.129 1.417.589.37 1.287.555 2.095.555.944 0 1.704-.288 2.279-.863.589-.575.883-1.41.883-2.505v-1.89c-.397.535-.938.986-1.622 1.356-.671.356-1.438.534-2.3.534a5.172 5.172 0 0 1-2.711-.74c-.808-.506-1.451-1.204-1.93-2.094-.466-.903-.698-1.923-.698-3.06 0-1.136.232-2.142.698-3.018.479-.877 1.122-1.554 1.93-2.033a5.171 5.171 0 0 1 2.711-.74Zm3.922 5.832c0-.78-.164-1.458-.493-2.033-.315-.575-.732-1.013-1.252-1.314a3.307 3.307 0 0 0-1.684-.452c-.603 0-1.164.15-1.684.452-.52.288-.945.719-1.273 1.294-.315.561-.473 1.232-.473 2.012s.158 1.465.473 2.054c.328.589.753 1.04 1.273 1.355a3.377 3.377 0 0 0 1.684.452c.602 0 1.163-.15 1.684-.452.52-.3.937-.739 1.252-1.314.329-.589.493-1.273.493-2.054Zm15.807-.267c0 .425-.027.808-.082 1.15h-8.646c.069.904.404 1.63 1.007 2.177.602.548 1.341.822 2.218.822 1.259 0 2.149-.527 2.669-1.582h2.526c-.342 1.04-.965 1.896-1.869 2.567-.89.657-1.998.986-3.326.986-1.082 0-2.054-.24-2.916-.719a5.373 5.373 0 0 1-2.013-2.053c-.479-.89-.719-1.917-.719-3.08 0-1.164.233-2.184.698-3.06a5.062 5.062 0 0 1 1.992-2.054c.863-.48 1.849-.719 2.958-.719 1.067 0 2.019.233 2.854.699a4.92 4.92 0 0 1 1.951 1.97c.465.836.698 1.801.698 2.896Zm-2.444-.739c-.013-.862-.321-1.554-.924-2.074-.602-.52-1.348-.78-2.238-.78-.808 0-1.499.26-2.074.78-.575.507-.917 1.198-1.027 2.074h6.263Zm13.147-7.598v1.91h-6.058v4.21h4.723v1.91h-4.723v6.242h-2.341V14.76h8.399Zm4.511 4.6a3.62 3.62 0 0 1 1.355-1.335c.575-.328 1.253-.493 2.033-.493v2.424h-.596c-.917 0-1.615.232-2.094.698-.466.465-.698 1.273-.698 2.423v5.955h-2.341V17.716h2.341v1.643Zm10.448 9.857c-1.068 0-2.033-.24-2.896-.719a5.332 5.332 0 0 1-2.033-2.053c-.492-.89-.739-1.917-.739-3.08 0-1.15.253-2.17.76-3.06a5.245 5.245 0 0 1 2.074-2.054c.876-.48 1.855-.719 2.937-.719 1.081 0 2.06.24 2.936.72a5.245 5.245 0 0 1 2.074 2.053c.507.89.76 1.91.76 3.06 0 1.15-.26 2.17-.78 3.06a5.453 5.453 0 0 1-2.136 2.073c-.89.48-1.876.72-2.957.72Zm0-2.033c.602 0 1.164-.144 1.684-.431.534-.288.965-.719 1.294-1.294.328-.575.492-1.273.492-2.095 0-.821-.157-1.512-.472-2.074-.315-.575-.732-1.006-1.253-1.293a3.423 3.423 0 0 0-1.683-.432c-.603 0-1.164.144-1.684.432-.507.287-.911.718-1.212 1.293-.301.562-.452 1.253-.452 2.074 0 1.219.308 2.163.924 2.834.63.658 1.417.986 2.362.986Zm12.746-9.652c.876 0 1.65.178 2.321.534.684.342 1.218.774 1.602 1.294v-1.643h2.361v11.5c0 1.04-.219 1.965-.657 2.772a4.715 4.715 0 0 1-1.91 1.93c-.821.466-1.807.699-2.957.699-1.533 0-2.806-.363-3.82-1.088-1.013-.712-1.588-1.684-1.725-2.917h2.321c.178.59.554 1.062 1.129 1.417.589.37 1.287.555 2.095.555.945 0 1.705-.288 2.28-.863.588-.575.883-1.41.883-2.505v-1.89c-.397.535-.938.986-1.623 1.356-.671.356-1.437.534-2.3.534a5.169 5.169 0 0 1-2.71-.74c-.808-.506-1.452-1.204-1.931-2.094-.465-.903-.698-1.923-.698-3.06 0-1.136.233-2.142.698-3.018.479-.877 1.123-1.554 1.931-2.033a5.168 5.168 0 0 1 2.71-.74Zm3.923 5.832c0-.78-.165-1.458-.493-2.033-.315-.575-.733-1.013-1.253-1.314a3.302 3.302 0 0 0-1.684-.452c-.602 0-1.164.15-1.684.452-.52.288-.944.719-1.273 1.294-.315.561-.472 1.232-.472 2.012s.157 1.465.472 2.054c.329.589.753 1.04 1.273 1.355a3.377 3.377 0 0 0 1.684.452c.603 0 1.164-.15 1.684-.452.52-.3.938-.739 1.253-1.314.328-.589.493-1.273.493-2.054Z"/></svg>
