<svg width="2434" height="481" viewBox="0 0 2434 481" fill="none" xmlns="http://www.w3.org/2000/svg">
<path d="M671.309 226.094C651.681 221.308 640.493 217.499 640.493 208.905C640.493 202.459 646.97 196.599 661.004 196.599C680.63 197.233 699.471 204.423 714.491 217.011L752.274 170.229C734.413 151.477 699.377 135.851 659.434 135.851C605.948 135.851 567.183 162.709 567.183 209.979C567.183 262.035 614.094 273.852 651.289 282.447C670.917 287.33 682.595 292.213 682.595 300.222C682.595 306.668 675.627 312.04 658.845 312.04C635.243 311.213 612.227 304.496 591.914 292.506L556.878 341.925C579.058 359.7 615.762 371.225 654.036 371.225C718.22 371.225 753.845 341.144 753.845 296.608C753.845 242.209 701.536 233.516 671.309 226.094Z" fill="white"/>
<path d="M1051.31 292.702L1009.7 144.445H930.4L888.298 292.116L860.721 144.445H769.549L839.719 362.533H930.891L969.754 226.68L1009.21 362.533H1100.38L1170.55 144.445H1079.87L1051.31 292.702Z" fill="white"/>
<path d="M1303.33 136.44C1232.67 136.44 1183.5 183.711 1183.5 253.639C1183.5 323.568 1233.16 370.838 1308.73 370.838C1344.73 371.66 1379.88 359.873 1408.05 337.534L1374.09 292.12C1356.91 302.84 1337.15 308.776 1316.87 309.309C1289.3 309.309 1270.94 297.491 1263.39 275.419H1414.03C1415.45 266.011 1416.18 256.512 1416.19 246.998C1416.19 179.413 1371.93 136.44 1303.33 136.44ZM1262.31 228.246C1267.71 206.271 1281.94 191.719 1302.84 191.719C1323.74 191.719 1338.96 204.611 1342.1 228.246H1262.31Z" fill="white"/>
<path d="M1567.33 136.44C1496.57 136.44 1447.5 183.711 1447.5 253.639C1447.5 323.568 1497.16 370.838 1572.73 370.838C1608.73 371.627 1643.87 359.844 1672.04 337.534L1637.99 292.12C1620.81 302.853 1601.05 308.79 1580.77 309.309C1553.29 309.309 1534.94 297.491 1527.39 275.419H1677.93C1679.4 266.016 1680.12 256.513 1680.09 246.998C1679.9 179.413 1635.83 136.44 1567.33 136.44ZM1526.31 228.246C1531.7 206.271 1545.93 191.719 1566.74 191.719C1587.55 191.719 1602.95 204.611 1606 228.246H1526.31Z" fill="white"/>
<path d="M1866.85 138.005C1853.61 137.691 1840.48 140.501 1828.54 146.205C1816.6 151.908 1806.19 160.344 1798.15 170.821L1795.5 144.451H1718.86V480.714H1802.47V342.127C1810.67 350.872 1820.64 357.787 1831.72 362.417C1842.8 367.047 1854.74 369.285 1866.75 368.985C1925.05 368.985 1971.47 320.152 1971.47 253.446C1971.47 186.74 1924.66 138.005 1866.85 138.005ZM1847.22 296.419C1838.64 296.515 1830.22 294.062 1823.04 289.373C1815.86 284.684 1810.25 277.972 1806.93 270.095C1803.6 262.217 1802.71 253.531 1804.37 245.148C1806.03 236.764 1810.16 229.062 1816.24 223.027C1822.32 216.992 1830.07 212.898 1838.49 211.266C1846.92 209.635 1855.65 210.541 1863.56 213.869C1871.46 217.197 1878.2 222.796 1882.89 229.95C1887.59 237.104 1890.03 245.488 1889.92 254.032C1890.08 259.634 1889.09 265.21 1887.01 270.419C1884.94 275.628 1881.81 280.361 1877.84 284.328C1873.86 288.296 1869.11 291.414 1863.88 293.493C1858.65 295.572 1853.05 296.567 1847.42 296.419H1847.22Z" fill="white"/>
<path d="M2095.22 0.000976562H2011.02V362.536H2095.22V0.000976562Z" fill="white"/>
<path d="M2339.69 144.445L2283.26 265.453L2217.21 144.445H2122.9L2235.17 343.586L2153.42 481.001H2247.73L2434 144.445H2339.69Z" fill="white"/>
<path d="M398.791 238.649L313.738 286.643L246.771 248.822L123.058 178.917L75.6172 152.181L75.6172 56.1934L123.058 83.0596L331.823 200.828L398.791 238.649Z" fill="url(#paint0_linear_13_598)"/>
<path d="M113.884 323.812L113.884 399.455L75.6168 421.105L0 463.752L0 330.725L50.9791 359.417L55.5659 356.808L75.6168 345.462L113.884 323.812Z" fill="url(#paint1_linear_13_598)"/>
<path d="M266.166 313.508L181.245 361.502L123.058 394.238L122.534 394.498L117.816 397.237L113.884 399.454L113.884 323.812L114.146 323.681L113.884 323.42L75.6172 301.901L75.6172 205.913L113.884 227.563L199.199 275.687L266.166 313.508Z" fill="#FCDC39"/>
<path d="M75.6168 56.1928L75.6168 301.901L0 259.124L0 13.5459L75.6168 56.1928Z" fill="url(#paint2_linear_13_598)"/>
<defs>
<linearGradient id="paint0_linear_13_598" x1="78.6319" y1="104.839" x2="359.702" y2="269.045" gradientUnits="userSpaceOnUse">
<stop stop-color="#FF8A00"/>
<stop offset="0.508177" stop-color="#FCDC39"/>
</linearGradient>
<linearGradient id="paint1_linear_13_598" x1="-26.2104" y1="372.197" x2="124.499" y2="372.197" gradientUnits="userSpaceOnUse">
<stop offset="0.26875" stop-color="#FCDC39"/>
<stop offset="1" stop-color="#FF8A00"/>
</linearGradient>
<linearGradient id="paint2_linear_13_598" x1="32.7629" y1="280.904" x2="32.7631" y2="59.1924" gradientUnits="userSpaceOnUse">
<stop stop-color="#FF8A00"/>
<stop offset="0.61" stop-color="#FCDC39"/>
</linearGradient>
</defs>
</svg>
