<svg xmlns="http://www.w3.org/2000/svg" width="1209.551" height="514.93" viewBox="0 0 320.027 136.242"><defs><clipPath id="x" clipPathUnits="userSpaceOnUse"><path d="M-978.434 492.442H142.258v-642.968H-978.434Z"/></clipPath><clipPath id="w" clipPathUnits="userSpaceOnUse"><path d="M-962.64 477.894H158.052v-642.968H-962.64Z"/></clipPath><clipPath id="v" clipPathUnits="userSpaceOnUse"><path d="M-955.692 486.055H165v-642.968H-955.692Z"/></clipPath><clipPath id="u" clipPathUnits="userSpaceOnUse"><path d="M-941.165 484.687H179.527V-158.28H-941.165Z"/></clipPath><clipPath id="t" clipPathUnits="userSpaceOnUse"><path d="M-909.2 477.894H211.492v-642.968H-909.2Z"/></clipPath><clipPath id="s" clipPathUnits="userSpaceOnUse"><path d="M-902.935 484.687H217.757V-158.28H-902.935Z"/></clipPath><clipPath id="r" clipPathUnits="userSpaceOnUse"><path d="M-874.798 482.508H245.894V-160.46H-874.798Z"/></clipPath><clipPath id="q" clipPathUnits="userSpaceOnUse"><path d="M-955.049 452.333H165.643v-642.968H-955.049Z"/></clipPath><clipPath id="p" clipPathUnits="userSpaceOnUse"><path d="M-873.733 450.667H246.96V-192.3H-873.733Z"/></clipPath><clipPath id="o" clipPathUnits="userSpaceOnUse"><path d="M-807.269 406.68H313.423v-642.968H-807.269Z"/></clipPath><clipPath id="n" clipPathUnits="userSpaceOnUse"><path d="M-740.11 437.9H380.582v-642.967H-740.11Z"/></clipPath><clipPath id="m" clipPathUnits="userSpaceOnUse"><path d="M-654.08 439.427H466.612v-642.968H-654.08Z"/></clipPath><clipPath id="l" clipPathUnits="userSpaceOnUse"><path d="M-561.39 406.68H559.302v-642.968H-561.39Z"/></clipPath><clipPath id="k" clipPathUnits="userSpaceOnUse"><path d="M-471.75 450.667H648.944V-192.3H-471.75Z"/></clipPath><clipPath id="j" clipPathUnits="userSpaceOnUse"><path d="M-825.885 335.137H294.807V-307.83H-825.885Z"/></clipPath><clipPath id="i" clipPathUnits="userSpaceOnUse"><path d="M0 642.968h1120.692V0H0Z"/></clipPath><clipPath id="h" clipPathUnits="userSpaceOnUse"><path d="M-707.94 333.471H412.754v-642.968H-707.94Z"/></clipPath><clipPath id="g" clipPathUnits="userSpaceOnUse"><path d="M-603.315 322.23H517.377v-642.967H-603.315Z"/></clipPath><clipPath id="f" clipPathUnits="userSpaceOnUse"><path d="M-526.44 333.471H594.25v-642.968H-526.44Z"/></clipPath><clipPath id="e" clipPathUnits="userSpaceOnUse"><path d="M-473.572 333.471H647.12v-642.968H-473.572Z"/></clipPath><clipPath id="d" clipPathUnits="userSpaceOnUse"><path d="M-344.624 315.99H776.068v-642.968H-344.624Z"/></clipPath><clipPath id="c" clipPathUnits="userSpaceOnUse"><path d="M-271.847 338.884H848.845v-642.968H-271.847Z"/></clipPath><clipPath id="b" clipPathUnits="userSpaceOnUse"><path d="M-294.74 376.938H825.952v-642.967H-294.74Z"/></clipPath><clipPath id="a" clipPathUnits="userSpaceOnUse"><path d="M-190.153 328.44H930.54v-642.968H-190.153Z"/></clipPath></defs><path d="M0 0a149.965 149.965 0 0 0-.128 5.673C-.098 3.779-.068 1.893 0 0" clip-path="url(#a)" style="mix-blend-mode:darken;fill:#fff;fill-opacity:1;fill-rule:nonzero;stroke:none" transform="matrix(.35278 0 0 -.35278 28.37 71.295)"/><path d="M0 0c-6.996-63.592-26.817-108.308-55.997-108.308-25.494 0-43.865 31.891-52.783 84.642 1.953-.063 3.876-.22 5.924-.22 1.355 0 2.805.094 4.223.126 8.602-49.38 25.02-72.51 40.65-74.306a13.989 13.989 0 0 1 1.986-.158c6.397 0 11.092 4.664 14.149 9.895 3.781 6.429 6.019 13.96 7.878 21.145 5.672 21.743 8.414 35.23 9.8 57.888 3.025 1.04 6.082 2.08 9.139 3.214C-9.895-4.16-4.916-2.111 0 0" clip-path="url(#b)" style="mix-blend-mode:darken;fill:#fff;fill-opacity:1;fill-rule:nonzero;stroke:none" transform="matrix(.35278 0 0 -.35278 65.267 88.404)"/><path d="M0 0v-.023c0-2.073-.008-3.343-.015-3.591.06 1.661.09 3.321.113 4.944C.068.564.038.263 0 0" clip-path="url(#c)" style="mix-blend-mode:darken;fill:#fff;fill-opacity:1;fill-rule:nonzero;stroke:none" transform="matrix(.35278 0 0 -.35278 57.19 74.98)"/><path d="M0 0c-12.856-9.933-30.633-17.995-47.741-25.178.315 6.236.503 12.473.601 18.746.03 1.984.09 3.968.09 5.959 0 19.437-1.225 39.01-3.561 57.599 11.413 1.953 22.405 2.997 32.556 2.997 1.826 0 3.561 0 5.229-.097 18.784-.631 32.707-5.132 39.957-12.383C35.577 28.484 7.055 5.387 0 0m-73.422-35.96c-24.675-10.804-51.145-17.897-77.961-20.039-.346 2.961-.661 6.049-.977 9.107a460.306 460.306 0 0 0-2.111 34.442 149.965 149.965 0 0 0-.128 5.673c-.06 1.983-.06 4.095-.06 6.304 0 6.206.12 12.254.346 18.213 14.463 9.106 31.729 17.799 51.708 25.238a310.172 310.172 0 0 0 27.98 8.888c1.541-20.354 1.834-62.175 1.849-74.76.037.263.067.564.097 1.33a219.552 219.552 0 0 0-.112-4.944c-.068-3.088-.098-6.138-.196-9.264-.15-.06-.308-.12-.435-.188m-34.322 193.993c8.295-.384 13.238-9.806 16.229-16.357 5.86-12.886 8.798-27.26 11.188-41.152 2.209-12.706 3.689-25.561 4.883-38.447a321.499 321.499 0 0 1-30.625-9.647c-17.552-6.522-33.593-14.178-47.613-22.466 4.658 74.527 25.929 125.071 45.938 128.069m-75.061-214.257c-6.807.473-13.772 2.021-18.431 7.063-.473.909-1.104 1.826-1.48 2.742-5.267 14.238 8.821 36.366 38.161 57.291-.097-3.787-.195-7.566-.195-11.345 0-3.817.068-7.627.158-11.444a482.27 482.27 0 0 1 3.216-44.623c-7.123-.217-14.306-.217-21.429.316M41.062 44.555C35.291 60.026 16.319 69.102-12.48 70.109c-12.134.473-25.524-.631-39.514-2.99-8.415 56.246-27.259 101.185-53.887 101.185-33.308 0-54.421-70.087-58.208-144.832-36.328-24.013-56.028-52.054-48.049-73.362 5.891-15.914 25.869-24.449 53.474-25.554 1.954-.06 3.877-.218 5.921-.218 1.36 0 2.81.091 4.222.121 21.842.541 47.524 5.327 74.467 14.463 3.028 1.045 6.079 2.051 9.137 3.216 5.139 1.924 10.113 3.975 15.034 6.086C-23.037-40.183.533-25.651 17.424-9.933 38.507 9.7 46.855 28.957 41.062 44.555" clip-path="url(#d)" style="mix-blend-mode:darken;fill:#fff;fill-opacity:1;fill-rule:nonzero;stroke:none" transform="matrix(.35278 0 0 -.35278 82.865 66.903)"/><path d="M0 0v82.839h-29.972v15.682h77.845V82.839H18.04V0Z" clip-path="url(#e)" style="mix-blend-mode:darken;fill:#fff;fill-opacity:1;fill-rule:nonzero;stroke:none" transform="matrix(.35278 0 0 -.35278 128.355 73.07)"/><path d="M0 0v74.097h16.652l.416-14.43c1.479 4.995 3.653 8.648 6.522 10.963 2.865 2.309 6.612 3.467 11.239 3.467h6.799V58.835H34.69c-5.643 0-9.875-1.273-12.696-3.817-2.822-2.546-4.233-6.638-4.233-12.279V0Z" clip-path="url(#f)" style="mix-blend-mode:darken;fill:#fff;fill-opacity:1;fill-rule:nonzero;stroke:none" transform="matrix(.35278 0 0 -.35278 147.006 73.07)"/><path d="M0 0c5.919 0 10.615 1.709 14.084 5.133 3.468 3.421 5.203 7.954 5.203 13.598v4.164L.139 19.009c-3.979-.832-6.824-2.059-8.534-3.677-1.714-1.621-2.567-3.725-2.567-6.312C-10.962 3.004-7.309 0 0 0m-3.608-12.907c-7.771 0-14.014 1.758-18.733 5.273-4.717 3.516-7.076 8.511-7.076 14.988 0 6.382 1.987 11.377 5.966 14.984 3.977 3.61 10.037 6.199 18.178 7.771l24.56 4.859c0 10.546-4.765 15.816-14.291 15.816-4.257 0-7.633-.993-10.13-2.982-2.498-1.99-4.163-4.835-4.996-8.533l-18.038.832c1.479 7.771 5.085 13.784 10.823 18.039 5.734 4.253 13.182 6.382 22.341 6.382 10.544 0 18.524-2.659 23.936-7.978 5.411-5.321 8.116-12.928 8.116-22.825V6.799c0-1.943.348-3.286 1.042-4.024.693-.743 1.733-1.112 3.121-1.112h2.359V-11.24c-1.573-.369-3.747-.555-6.522-.555-3.978 0-7.353.853-10.129 2.565-2.775 1.712-4.534 4.834-5.273 9.367-1.851-3.884-5.019-7.03-9.505-9.434-4.487-2.406-9.737-3.61-15.749-3.61" clip-path="url(#g)" style="mix-blend-mode:darken;fill:#fff;fill-opacity:1;fill-rule:nonzero;stroke:none" transform="matrix(.35278 0 0 -.35278 174.125 69.104)"/><path d="M0 0v58.418h-10.546v13.738H0v4.856c0 6.662 1.873 11.91 5.619 15.749 3.747 3.838 9.506 5.76 17.276 5.76h14.431V84.783H26.225c-5.55 0-8.325-2.915-8.325-8.743v-3.884h18.455V58.418H17.9V0Zm-45.514 0v58.418H-56.06v13.738h10.546v4.856c0 6.662 1.874 11.91 5.621 15.749 3.745 3.838 9.504 5.76 17.275 5.76h14.431V84.783h-11.102c-5.55 0-8.325-2.915-8.325-8.743v-3.884h18.456V58.418h-18.456V0Z" clip-path="url(#h)" style="mix-blend-mode:darken;fill:#fff;fill-opacity:1;fill-rule:nonzero;stroke:none" transform="matrix(.35278 0 0 -.35278 211.035 73.07)"/><path d="M757.753 383.593h17.761v-74.097h-17.761zm-.277 25.671h18.456v-15.816h-18.456z" clip-path="url(#i)" style="mix-blend-mode:darken;fill:#fff;fill-opacity:1;fill-rule:nonzero;stroke:none" transform="matrix(.35278 0 0 -.35278 -38.71 182.253)"/><path d="M0 0c-7.402 0-13.83 1.596-19.287 4.788-5.46 3.193-9.692 7.701-12.697 13.529-3.008 5.827-4.51 12.627-4.51 20.397 0 7.771 1.502 14.571 4.51 20.398 3.005 5.828 7.237 10.339 12.697 13.531C-13.83 75.833-7.402 77.429 0 77.429c9.436 0 17.275-2.452 23.52-7.354 6.245-4.904 9.921-11.749 11.032-20.537l-18.317-.972c-.742 4.719-2.567 8.304-5.48 10.756C7.84 61.771 4.254 62.999 0 62.999c-5.737 0-10.177-2.129-13.321-6.385-3.145-4.255-4.717-10.223-4.717-17.9 0-7.679 1.572-13.646 4.717-17.899 3.144-4.256 7.584-6.382 13.321-6.382 4.347 0 7.978 1.249 10.893 3.747 2.914 2.497 4.693 6.382 5.342 11.655l18.317-.832c-1.019-8.883-4.649-15.938-10.893-21.162C17.414 2.614 9.527 0 0 0" clip-path="url(#j)" style="mix-blend-mode:darken;fill:#fff;fill-opacity:1;fill-rule:nonzero;stroke:none" transform="matrix(.35278 0 0 -.35278 252.643 73.658)"/><path d="M0 0v98.521h18.04V15.679h46.761V0Z" clip-path="url(#k)" style="mix-blend-mode:darken;fill:#fff;fill-opacity:1;fill-rule:nonzero;stroke:none" transform="matrix(.35278 0 0 -.35278 127.712 114.414)"/><path d="M0 0h34.273c-.464 6.011-2.198 10.476-5.203 13.391-3.008 2.913-6.869 4.369-11.586 4.369-4.812 0-8.743-1.526-11.795-4.579C2.637 10.129.739 5.733 0 0m17.9-45.654c-7.402 0-13.83 1.597-19.288 4.789-5.46 3.192-9.668 7.701-12.628 13.528-2.96 5.828-4.44 12.627-4.44 20.398 0 7.771 1.48 14.57 4.44 20.397 2.96 5.828 7.147 10.339 12.558 13.532 5.412 3.189 11.725 4.785 18.942 4.785 7.028 0 13.181-1.574 18.454-4.718 5.273-3.144 9.367-7.68 12.281-13.599C51.133 7.537 52.59.415 52.59-7.911v-4.024H0c.277-6.476 2.034-11.356 5.273-14.637 3.237-3.287 7.492-4.926 12.765-4.926 8.048 0 13.183 3.421 15.402 10.266l18.178-1.109c-2.036-7.216-6.036-12.904-12.002-17.068-5.967-4.161-13.207-6.245-21.716-6.245" clip-path="url(#l)" style="mix-blend-mode:darken;fill:#fff;fill-opacity:1;fill-rule:nonzero;stroke:none" transform="matrix(.35278 0 0 -.35278 159.335 98.896)"/><path d="M0 0c5.919 0 10.615 1.709 14.084 5.133 3.468 3.421 5.203 7.954 5.203 13.598v4.164L.139 19.009c-3.979-.832-6.824-2.059-8.534-3.677-1.714-1.621-2.567-3.725-2.567-6.312C-10.962 3.004-7.309 0 0 0m-3.608-12.907c-7.771 0-14.014 1.758-18.733 5.273-4.717 3.516-7.076 8.511-7.076 14.988 0 6.382 1.987 11.377 5.966 14.984 3.977 3.61 10.037 6.199 18.178 7.771l24.56 4.859c0 10.546-4.765 15.816-14.291 15.816-4.257 0-7.633-.993-10.13-2.982-2.498-1.99-4.163-4.835-4.996-8.533l-18.038.832c1.479 7.771 5.085 13.784 10.823 18.039 5.734 4.253 13.182 6.382 22.341 6.382 10.544 0 18.524-2.659 23.936-7.978 5.411-5.321 8.116-12.928 8.116-22.825V6.799c0-1.943.348-3.286 1.042-4.024.693-.743 1.733-1.112 3.121-1.112h2.359V-11.24c-1.573-.369-3.747-.555-6.522-.555-3.978 0-7.353.853-10.129 2.565-2.775 1.712-4.534 4.834-5.273 9.367-1.851-3.884-5.019-7.03-9.505-9.434-4.487-2.406-9.737-3.61-15.749-3.61" clip-path="url(#m)" style="mix-blend-mode:darken;fill:#fff;fill-opacity:1;fill-rule:nonzero;stroke:none" transform="matrix(.35278 0 0 -.35278 192.034 110.449)"/><path d="M0 0c5.457 0 9.689 2.102 12.697 6.312 3.004 4.21 4.51 10.199 4.51 17.97 0 7.862-1.482 13.875-4.442 18.039C9.804 46.483 5.55 48.566 0 48.566c-5.366 0-9.644-2.151-12.835-6.452-3.193-4.304-4.787-10.247-4.787-17.832 0-7.402 1.594-13.3 4.787-17.693C-9.644 2.196-5.366 0 0 0m-5.412-14.433c-6.291 0-11.725 1.575-16.304 4.719-4.579 3.144-8.117 7.609-10.615 13.391-2.498 5.779-3.747 12.648-3.747 20.605 0 7.862 1.271 14.71 3.815 20.537 2.544 5.828 6.107 10.315 10.685 13.459 4.58 3.144 9.967 4.718 16.166 4.718 5.179 0 9.735-1.063 13.667-3.192 3.932-2.129 6.915-5.133 8.952-9.017v34.967h17.761v-98.521h-16.93l-.416 10.964c-2.036-3.981-5.088-7.08-9.158-9.297-4.071-2.221-8.697-3.333-13.876-3.333" clip-path="url(#n)" style="mix-blend-mode:darken;fill:#fff;fill-opacity:1;fill-rule:nonzero;stroke:none" transform="matrix(.35278 0 0 -.35278 222.384 109.91)"/><path d="M0 0h34.273c-.464 6.011-2.198 10.476-5.203 13.391-3.008 2.913-6.869 4.369-11.586 4.369-4.812 0-8.743-1.526-11.795-4.579C2.636 10.129.739 5.733 0 0m17.9-45.654c-7.402 0-13.83 1.597-19.288 4.789-5.46 3.192-9.668 7.701-12.628 13.528-2.96 5.828-4.44 12.627-4.44 20.398 0 7.771 1.48 14.57 4.44 20.397 2.96 5.828 7.147 10.339 12.558 13.532 5.412 3.189 11.725 4.785 18.942 4.785 7.028 0 13.181-1.574 18.454-4.718 5.273-3.144 9.367-7.68 12.281-13.599C51.133 7.537 52.59.415 52.59-7.911v-4.024H0c.277-6.476 2.034-11.356 5.273-14.637 3.237-3.287 7.492-4.926 12.765-4.926 8.048 0 13.183 3.421 15.402 10.266l18.178-1.109c-2.036-7.216-6.036-12.904-12.002-17.068-5.967-4.161-13.207-6.245-21.716-6.245" clip-path="url(#o)" style="mix-blend-mode:darken;fill:#fff;fill-opacity:1;fill-rule:nonzero;stroke:none" transform="matrix(.35278 0 0 -.35278 246.076 98.896)"/><path d="M0 0v74.097h16.652l.416-14.43c1.479 4.995 3.653 8.648 6.522 10.963 2.865 2.309 6.612 3.467 11.239 3.467h6.799V58.835H34.69c-5.643 0-9.875-1.273-12.696-3.817-2.822-2.546-4.233-6.638-4.233-12.279V0Z" clip-path="url(#p)" style="mix-blend-mode:darken;fill:#fff;fill-opacity:1;fill-rule:nonzero;stroke:none" transform="matrix(.35278 0 0 -.35278 269.523 114.414)"/><path d="M0 0c-10.917 0-19.243 2.361-24.977 7.079-5.738 4.716-8.882 10.683-9.436 17.9l18.177.832c.647-3.885 2.266-6.894 4.857-9.02C-8.79 14.662-4.95 13.598.139 13.598c4.162 0 7.423.646 9.781 1.944 2.359 1.294 3.54 3.421 3.54 6.384 0 1.664-.417 3.053-1.249 4.162-.833 1.109-2.408 2.08-4.719 2.915-2.313.832-5.737 1.663-10.268 2.498-7.586 1.292-13.553 2.888-17.9 4.786-4.349 1.895-7.424 4.277-9.227 7.146-1.804 2.867-2.707 6.428-2.707 10.683 0 6.845 2.658 12.441 7.98 16.791 5.319 4.347 13.112 6.522 23.381 6.522 9.99 0 17.623-2.382 22.895-7.146 5.272-4.765 8.372-10.708 9.296-17.83l-17.899-.832c-.648 3.79-2.198 6.775-4.649 8.95-2.452 2.172-5.759 3.26-9.922 3.26-4.162 0-7.307-.832-9.435-2.498-2.129-1.666-3.191-3.884-3.191-6.66 0-2.963 1.11-5.159 3.329-6.591 2.221-1.435 6.152-2.614 11.795-3.54 7.771-1.203 13.899-2.754 18.386-4.649 4.486-1.895 7.678-4.301 9.574-7.213 1.895-2.915 2.845-6.406 2.845-10.476 0-7.125-2.913-12.608-8.741-16.444C17.205 1.919 9.526 0 0 0" clip-path="url(#q)" style="mix-blend-mode:darken;fill:#fff;fill-opacity:1;fill-rule:nonzero;stroke:none" transform="matrix(.35278 0 0 -.35278 298.21 115.002)"/><path d="M0 0c0 5.729 3.32 9.429 8.516 9.429 4.714 0 7.249-2.408 8.009-6.692l-4.004-.151c-.406 2.255-1.775 3.599-4.005 3.599-2.864 0-4.537-2.434-4.537-6.185 0-3.802 1.749-6.133 4.512-6.133 2.407 0 3.725 1.445 4.08 3.878l4.03-.152c-.735-4.385-3.472-6.97-8.161-6.97C3.523-9.377 0-5.88 0 0" clip-path="url(#r)" style="mix-blend-mode:darken;fill:#fff;fill-opacity:1;fill-rule:nonzero;stroke:none" transform="matrix(.35278 0 0 -.35278 269.898 125.646)"/><path d="M0 0c0 2.637-1.09 4.183-2.991 4.183S-5.981 2.637-5.981 0c0-2.636 1.089-4.182 2.99-4.182C-1.09-4.182 0-2.636 0 0m-9.884 0c0 4.284 2.737 7.097 6.893 7.097 4.157 0 6.894-2.813 6.894-7.097 0-4.309-2.737-7.096-6.894-7.096-4.156 0-6.893 2.787-6.893 7.096" clip-path="url(#s)" style="mix-blend-mode:darken;fill:#fff;fill-opacity:1;fill-rule:nonzero;stroke:none" transform="matrix(.35278 0 0 -.35278 279.825 126.415)"/><path d="M0 0h3.421l.077-2.205C4.182-.608 5.55.304 7.198.304c1.951 0 3.295-1.065 3.878-2.763.633 1.8 2.027 2.763 3.827 2.763 2.787 0 4.562-1.799 4.562-5.145v-8.744h-3.802v7.68c0 2.129-.634 3.193-2.053 3.193-1.394 0-2.179-1.191-2.179-3.244v-7.629H8.009v7.629c0 2.103-.558 3.244-2.028 3.244-1.394 0-2.179-1.191-2.179-3.244v-7.629H0Z" clip-path="url(#t)" style="mix-blend-mode:darken;fill:#fff;fill-opacity:1;fill-rule:nonzero;stroke:none" transform="matrix(.35278 0 0 -.35278 282.035 124.019)"/><path d="M0 0c0 2.586-1.115 4.183-2.889 4.183-1.774 0-2.864-1.446-2.864-4.183s1.065-4.182 2.864-4.182C-1.115-4.182 0-2.585 0 0m-9.555 6.793h3.65l.051-2.027c.785 1.52 2.255 2.331 4.029 2.331 3.802 0 5.728-3.118 5.728-7.097 0-3.979-1.951-7.096-5.753-7.096-1.698 0-3.168.836-3.903 2.204v-5.702h-3.802z" clip-path="url(#u)" style="mix-blend-mode:darken;fill:#fff;fill-opacity:1;fill-rule:nonzero;stroke:none" transform="matrix(.35278 0 0 -.35278 293.311 126.415)"/><path d="M0 0v.659L-3.092 0c-1.242-.254-1.85-.786-1.85-1.673 0-.912.608-1.444 1.774-1.444C-1.268-3.117 0-1.951 0 0m-8.845-2.027c0 2.381 1.495 3.598 4.46 4.207L0 3.041c0 1.774-.811 2.661-2.307 2.661-1.444 0-2.23-.683-2.483-1.951l-3.827.178c.507 2.99 2.762 4.536 6.31 4.536 4.056 0 6.109-1.977 6.109-5.677v-4.639c0-.759.253-.962.76-.962h.38v-2.611c-.228-.076-.836-.152-1.343-.152-1.419 0-2.662.507-2.991 2.23-.684-1.444-2.357-2.382-4.689-2.382-2.838 0-4.764 1.369-4.764 3.701" clip-path="url(#v)" style="mix-blend-mode:darken;fill:#fff;fill-opacity:1;fill-rule:nonzero;stroke:none" transform="matrix(.35278 0 0 -.35278 298.436 126.898)"/><path d="M0 0h3.421l.077-2.256C4.232-.405 5.728.304 7.527.304c2.915 0 4.613-2.002 4.613-5.145v-8.744H8.338v7.477c0 2.179-.481 3.396-2.078 3.396-1.572 0-2.458-1.217-2.458-3.396v-7.477H0Z" clip-path="url(#w)" style="mix-blend-mode:darken;fill:#fff;fill-opacity:1;fill-rule:nonzero;stroke:none" transform="matrix(.35278 0 0 -.35278 300.887 124.019)"/><path d="M0 0h1.799c.862 0 1.217.202 1.471.861l.278.786H2.509l-4.765 12.901h3.878l3.117-9.353 2.915 9.353h3.878L6.311-.33c-.608-1.799-1.673-2.509-3.726-2.509H0Z" clip-path="url(#x)" style="mix-blend-mode:darken;fill:#fff;fill-opacity:1;fill-rule:nonzero;stroke:none" transform="matrix(.35278 0 0 -.35278 306.459 129.151)"/></svg>
