<svg width="177" height="32" viewBox="0 0 177 32" fill="none" xmlns="http://www.w3.org/2000/svg">
<path d="M68.4721 0V4.45322H65.7623C64.754 4.45322 64.2499 5.06239 64.2499 6.02865V8.63337H68.4301V8.63608H68.7989V8.63337H72.2439V5.4825C72.2439 2.05856 74.4074 0 78.0624 0H82.8518V4.45322H80.142C79.1337 4.45322 78.6296 5.06239 78.6296 6.02865V8.63337H82.8098V13.4437H78.6296V30.7944H72.2439V13.4437H64.2499V30.7944H57.8642V13.4437H54.4192V8.63337H57.8642V5.4825C57.8642 2.05856 60.0277 0 63.6827 0H68.4721Z" fill="#ffffff"/>
<path d="M14.494 30.7104C13.5907 30.9835 12.3514 31.1725 11.007 31.1725C6.63782 31.1725 3.69701 29.345 3.69701 24.3877V13.4437H0V8.63337H0.504138C3.25589 8.63337 4.55825 7.52006 4.70529 4.15914L4.81032 1.99555H10.0618V6.84788C10.0618 7.49906 9.74667 7.81414 9.09549 7.81414H7.89817C6.59581 7.81414 5.60854 8.78041 5.60854 10.0197C5.60854 11.3221 6.59581 12.3094 7.89817 12.3094C9.1165 12.3094 10.1038 11.3221 10.1038 10.0197V9.53661C10.1038 8.96946 10.4399 8.63337 11.049 8.63337H14.8511V13.4437H10.0618V23.5685C10.0618 25.522 11.1331 26.1522 12.7505 26.1522C13.3597 26.1522 13.9478 26.0892 14.494 25.9631V30.7104Z" fill="#ffffff"/>
<path d="M23.5382 12.6665C24.5255 9.93572 26.8571 8.25526 30.029 8.25526C30.4281 8.25526 30.8482 8.29727 31.1423 8.36029V14.515C30.5751 14.3679 29.987 14.3049 29.3568 14.3049C26.0589 14.3049 23.7693 16.3215 23.7693 20.3546V30.7944H17.4045V8.63337H23.5382V12.6665Z" fill="#ffffff"/>
<path fill-rule="evenodd" clip-rule="evenodd" d="M52.3069 16.4685C52.3069 11.2381 48.9669 8.0242 42.6442 8.0242C36.5736 8.0242 32.6665 11.1751 32.4984 15.6493H39.0732C39.1783 13.6958 40.5646 12.4774 42.7702 12.4774C44.8918 12.4774 45.9211 13.6958 45.9211 15.0191C45.9211 16.3845 45.0389 16.9096 42.8543 17.2247L39.0102 17.7709C34.641 18.401 31.9103 20.3756 31.9103 24.6818C31.9103 28.8619 35.0191 31.4036 39.1573 31.4036C42.4342 31.4036 44.8078 29.9332 46.1102 28.0007C46.1942 29.051 46.3622 29.9962 46.5513 30.7944H53.1681V30.0802C52.5589 29.5971 52.3069 27.4755 52.3069 25.7111V16.4685ZM47.3495 20.9637C46.6353 20.9637 46.1942 21.3208 46.1102 21.972L46.0682 22.3081C45.7531 24.8708 44.2617 26.7403 41.5099 26.7403C39.7664 26.7403 38.4431 25.7741 38.4431 24.1776C38.4431 22.5182 39.5984 21.6989 41.6779 21.2788L44.3877 20.7327C45.333 20.5436 45.6901 20.1025 45.6901 19.2833V18.7161C45.6901 17.4348 46.6983 16.4895 47.9587 16.4895C49.198 16.4895 50.1853 17.4348 50.1853 18.7161C50.1853 20.0185 49.177 20.9637 47.9587 20.9637H47.3495Z" fill="#ffffff"/>
<path d="M104.31 22.2661C103.848 28.2738 99.6891 31.4036 93.9966 31.4036C87.5268 31.4036 83.2626 27.2445 83.2626 19.8084C83.2626 12.3934 87.6528 8.0242 94.0386 8.0242C99.8152 8.0242 103.953 11.1331 104.31 17.1197H97.7986C97.6726 14.2839 96.2652 12.8975 94.1226 12.8975C91.5179 12.8975 89.8164 15.0401 89.8164 19.6824C89.8164 24.3457 91.4339 26.5303 94.1016 26.5303C96.1392 26.5303 97.6096 25.1859 97.7986 22.2661H104.31Z" fill="#ffffff"/>
<path fill-rule="evenodd" clip-rule="evenodd" d="M116.8 31.4036C123.416 31.4036 127.765 26.8874 127.765 19.7034C127.765 12.5194 123.416 8.0242 116.8 8.0242C110.162 8.0242 105.814 12.5194 105.814 19.7034C105.814 26.8874 110.162 31.4036 116.8 31.4036ZM116.8 26.5303C114.048 26.5303 112.367 24.2196 112.367 19.7034C112.367 15.1872 114.048 12.8975 116.8 12.8975C119.551 12.8975 121.211 15.1662 121.211 19.7034C121.211 24.2406 119.551 26.5303 116.8 26.5303Z" fill="#ffffff"/>
<path d="M136.662 12.6665C137.649 9.93572 139.981 8.25526 143.153 8.25526C143.552 8.25526 143.972 8.29727 144.266 8.36029V14.515C143.699 14.3679 143.111 14.3049 142.48 14.3049C139.182 14.3049 136.893 16.3215 136.893 20.3546V30.7944H130.528V8.63337H136.662V12.6665Z" fill="#ffffff"/>
<path d="M151.588 19.2203C151.588 20.4386 152.47 21.2788 153.772 21.2788H166.796C166.817 20.6907 166.817 20.0605 166.817 19.4093C166.817 12.0363 162.427 8.0242 156.272 8.0242C149.907 8.0242 145.16 12.2674 145.16 19.7244C145.16 27.6016 149.655 31.4036 156.272 31.4036C162.238 31.4036 166.103 28.3998 166.712 23.4634H160.305C159.99 25.648 158.562 26.8664 156.398 26.8664C153.814 26.8664 152.092 25.1649 151.861 22.035C151.819 21.4889 151.546 21.2578 151.042 21.2578H150.579C149.319 21.2578 148.374 20.4176 148.374 19.1783C148.374 17.9179 149.319 17.0777 150.579 17.0777H150.978C151.567 17.0777 151.84 16.8676 151.945 16.3425C152.428 13.9268 154.045 12.4984 156.272 12.4984C158.667 12.4984 160.095 13.9058 160.305 17.1407H153.772C152.47 17.1407 151.588 17.9809 151.588 19.2203Z" fill="#ffffff"/>
<path fill-rule="evenodd" clip-rule="evenodd" d="M173.131 29.5931V27.9655H173.89L174.921 29.5931H175.449L174.358 27.9655C174.483 27.9428 174.6 27.9087 174.708 27.8633C174.821 27.8121 174.921 27.7468 175.006 27.6673C175.091 27.5821 175.157 27.4798 175.202 27.3605C175.253 27.2412 175.279 27.102 175.279 26.9429C175.279 26.6134 175.182 26.3635 174.989 26.1931C174.801 26.0169 174.5 25.9289 174.086 25.9289H172.68V29.5931H173.131ZM173.728 27.5821H173.131V26.3124H173.958C174.071 26.3124 174.179 26.3209 174.282 26.3379C174.384 26.355 174.475 26.389 174.554 26.4402C174.64 26.4856 174.705 26.5481 174.75 26.6276C174.801 26.7072 174.827 26.8123 174.827 26.9429C174.827 27.0963 174.796 27.2185 174.733 27.3094C174.671 27.3946 174.588 27.4571 174.486 27.4968C174.384 27.5366 174.265 27.5622 174.128 27.5735C173.998 27.5792 173.864 27.5821 173.728 27.5821Z" fill="#ffffff"/>
<path fill-rule="evenodd" clip-rule="evenodd" d="M173.83 24.591C173.381 24.591 172.964 24.6734 172.577 24.8381C172.191 24.9972 171.856 25.2216 171.572 25.5113C171.288 25.7954 171.063 26.1306 170.899 26.5169C170.74 26.9032 170.66 27.3179 170.66 27.761C170.66 28.2098 170.74 28.6274 170.899 29.0137C171.063 29.3943 171.288 29.7266 171.572 30.0107C171.856 30.2947 172.191 30.5191 172.577 30.6839C172.964 30.8429 173.381 30.9225 173.83 30.9225C174.279 30.9225 174.696 30.8429 175.083 30.6839C175.469 30.5191 175.804 30.2947 176.088 30.0107C176.372 29.7266 176.594 29.3943 176.753 29.0137C176.918 28.6274 177 28.2098 177 27.761C177 27.3179 176.918 26.9032 176.753 26.5169C176.594 26.1306 176.372 25.7954 176.088 25.5113C175.804 25.2216 175.469 24.9972 175.083 24.8381C174.696 24.6734 174.279 24.591 173.83 24.591ZM173.83 25.0427C174.211 25.0427 174.563 25.1137 174.887 25.2557C175.216 25.3977 175.5 25.5909 175.739 25.8351C175.977 26.0794 176.165 26.3663 176.301 26.6958C176.438 27.0253 176.506 27.3804 176.506 27.761C176.506 28.1416 176.438 28.4967 176.301 28.8262C176.165 29.1557 175.977 29.4426 175.739 29.6869C175.5 29.9311 175.216 30.1243 174.887 30.2663C174.563 30.4083 174.211 30.4794 173.83 30.4794C173.444 30.4794 173.086 30.4083 172.756 30.2663C172.432 30.1243 172.151 29.9311 171.913 29.6869C171.674 29.4426 171.487 29.1557 171.35 28.8262C171.22 28.4967 171.154 28.1416 171.154 27.761C171.154 27.3804 171.22 27.0253 171.35 26.6958C171.487 26.3663 171.674 26.0794 171.913 25.8351C172.151 25.5909 172.432 25.3977 172.756 25.2557C173.086 25.1137 173.444 25.0427 173.83 25.0427Z" fill="#ffffff"/>
</svg>
