<svg xmlns="http://www.w3.org/2000/svg" width="142" height="38" fill="none"><path fill="#fff" d="M55.899 27.983c0-4.81 3.842-7.945 8.414-7.967 3.291 0 5.607 1.504 6.731 3.135l-2.933 2.166c-.64-.863-1.676-1.764-3.575-1.764-2.27 0-4.236 1.742-4.236 4.438 0 2.673 1.92 4.348 4.214 4.348 2.227 0 3.18-1.035 3.686-1.81l2.83 1.967c-.82 1.437-3.024 3.402-6.71 3.402-4.624-.007-8.421-3.03-8.421-7.915ZM70.65 35.668l6.977-15.451h4.595l6.954 15.45H84.56l-1.102-2.494H76.39l-1.102 2.495H70.65Zm11.259-5.98-1.988-4.46-2.01 4.46h3.998ZM89.615 35.668V20.217h4.394v5.495l5.45-5.495H105l-6.359 6.381 6.538 9.077h-5.235l-4.37-6.001L94 31.244v4.439h-4.386v-.015ZM118.18 20.217v3.462h-8.035v2.584h6.932v3.358h-6.932v2.584h8.035v3.463h-12.428V20.217h12.428ZM55.877 4.373V3.1h10.752v1.273h-4.654v12.413h-1.467V4.373h-4.631ZM67.612 3.1h6.195c2.525 0 4.513 1.802 4.513 4.244 0 1.973-1.385 3.775-3.56 4.163l3.813 5.279H76.89l-3.753-5.198h-4.066v5.198h-1.46V3.1Zm1.467 1.273v5.942h4.356c2.323 0 3.418-1.229 3.418-2.971 0-1.876-1.251-2.971-3.418-2.971h-4.356Z"/><path fill="#fff" d="M84.813 3.1h1.49l6.433 13.686h-1.527l-1.6-3.44h-8.095l-1.6 3.44h-1.527L84.813 3.1Zm4.207 8.995-3.462-7.387-3.463 7.387h6.925ZM103.481 3.1v1.273h-8.31v4.944h7.252v1.251h-7.252v6.218h-1.467V3.1h9.777ZM114.918 3.1v1.273h-8.31v4.944h7.253v1.251h-7.253v6.218h-1.467V3.1h9.777ZM118.247 16.786h-1.467V3.1h1.467v13.686Z"/><path fill="#D06400" d="M53.784 14.93v1.541l-6.873 6.873-.767-.774 7.64-7.64Z"/><path fill="#FF8A00" d="M53.785 13.004v1.899l-7.655 7.655-.953-.946 8.608-8.608Z"/><path fill="#D06400" d="M53.784 11.156v1.847l-8.608 8.6-.923-.916 9.531-9.53Z"/><path fill="#FF8A00" d="M53.77 8.72v2.48l-9.502 9.502-1.236-1.236L53.769 8.72Z"/><path fill="#D06400" d="M53.77 6.404V8.72L43.031 19.465l-1.162-1.162 11.9-11.899Z"/><path fill="#FEB702" d="M51.617 28.044a14.189 14.189 0 0 1-10.663 4.802c-7.863 0-14.23-6.374-14.23-14.23 0-7.855 6.367-14.23 14.23-14.23A14.2 14.2 0 0 1 51.32 8.863l-9.45 9.442 9.748 9.74Z"/><path fill="#fff" d="M54.082 30.516a17.672 17.672 0 0 1-13.128 5.823c-9.784-.007-17.722-7.938-17.722-17.722C23.232 8.833 31.17.902 40.954.902c4.952 0 9.427 2.033 12.644 5.31.06.067.127.126.186.193L51.32 8.87a14.19 14.19 0 0 0-10.366-4.483c-7.863 0-14.23 6.374-14.23 14.23 0 7.856 6.367 14.23 14.23 14.23a14.19 14.19 0 0 0 10.663-4.803l2.465 2.472Z"/></svg>
