<svg width="268" height="108" viewBox="0 0 268 108" fill="none" xmlns="http://www.w3.org/2000/svg">
<path d="M1.97044 50.9391H8.54824C8.87549 52.1172 9.31728 52.968 9.87361 53.4916C10.4627 53.9825 11.2317 54.228 12.1807 54.228C13.0316 54.228 13.7352 53.9825 14.2915 53.4916C14.8479 53.0008 15.126 52.3626 15.126 51.5772C15.126 51.0209 14.9624 50.5464 14.6351 50.1537C14.3079 49.761 13.8988 49.4501 13.4079 49.221C12.9498 48.9592 12.4589 48.7465 11.9353 48.5828C11.4117 48.3865 10.9372 48.2229 10.5118 48.092C9.13729 47.6338 7.97554 47.1429 7.02651 46.6193C6.07747 46.0957 5.29207 45.5067 4.67028 44.8522C4.08123 44.1976 3.63944 43.4777 3.34491 42.6923C3.0831 41.9069 2.9522 41.0233 2.9522 40.0415C2.9522 38.8634 3.18128 37.7835 3.63944 36.8017C4.09759 35.7872 4.73573 34.9036 5.55387 34.151C6.372 33.3983 7.32104 32.8092 8.40097 32.3838C9.51363 31.9584 10.7081 31.7457 11.9844 31.7457C13.2607 31.7457 14.4224 31.942 15.4696 32.3347C16.5496 32.7274 17.4823 33.2837 18.2677 34.0037C19.0531 34.7237 19.6749 35.5909 20.133 36.6054C20.5912 37.5871 20.853 38.6834 20.9184 39.8943H14.537C14.3733 39.1743 14.0788 38.6343 13.6534 38.2744C13.228 37.9144 12.6716 37.7344 11.9844 37.7344C11.2644 37.7344 10.659 37.9635 10.1681 38.4216C9.70999 38.8471 9.48091 39.387 9.48091 40.0415C9.48091 40.5324 9.64454 40.9415 9.97179 41.2687C10.3318 41.596 10.7572 41.8741 11.2481 42.1032C11.739 42.2996 12.2462 42.4796 12.7698 42.6432C13.2934 42.7741 13.7352 42.8886 14.0952 42.9868C16.8768 43.8704 18.824 44.9176 19.9367 46.1284C21.082 47.3066 21.6547 48.9101 21.6547 50.9391C21.6547 52.2481 21.3929 53.4753 20.8693 54.6207C20.3784 55.7333 19.6912 56.7151 18.8076 57.5659C17.9568 58.3841 16.9423 59.0386 15.7642 59.5295C14.5861 59.9876 13.3098 60.2167 11.9353 60.2167C9.05548 60.2167 6.74834 59.4149 5.0139 57.8114C3.27946 56.1751 2.26497 53.8843 1.97044 50.9391ZM26.7833 68.6598L31.8884 57.026L21.9236 32.3838H29.3849L35.4228 50.0064L42.0006 32.3838H49.511L33.8029 68.6598H26.7833ZM51.3449 59.5786V32.3838H57.3827V34.9855C58.5936 33.8073 59.7717 32.9729 60.9171 32.482C62.0952 31.9911 63.4697 31.7457 65.0405 31.7457C68.673 31.7457 71.3237 32.8092 72.9927 34.9364C74.6617 37.0308 75.4962 40.3851 75.4962 44.9994V59.5786H68.9675V46.2757C68.9675 43.1995 68.5584 41.0069 67.7403 39.6979C66.9549 38.3889 65.6295 37.7344 63.7642 37.7344C61.7025 37.7344 60.1971 38.4543 59.2481 39.8943C58.3318 41.3015 57.8736 43.5922 57.8736 46.7666V59.5786H51.3449ZM78.4246 45.9321C78.4246 43.9031 78.7682 42.005 79.4555 40.2379C80.1754 38.4707 81.1408 36.9326 82.3517 35.6236C83.5952 34.3146 85.0351 33.2837 86.6714 32.5311C88.3404 31.7784 90.1239 31.402 92.022 31.402C93.7237 31.402 95.3109 31.6966 96.7835 32.2856C98.2889 32.8747 99.5325 33.7092 100.514 34.7891V23.3025H107.043V59.5786H101.054V56.0442C99.7125 57.5169 98.338 58.5804 96.9308 59.2349C95.5563 59.8894 93.9364 60.2167 92.0711 60.2167C90.1403 60.2167 88.3404 59.8567 86.6714 59.1368C85.0024 58.3841 83.5625 57.3696 82.3517 56.0933C81.1408 54.817 80.1754 53.3117 79.4555 51.5772C78.7682 49.8428 78.4246 47.9611 78.4246 45.9321ZM85.0024 45.7357C85.0024 46.9138 85.2151 48.0265 85.6406 49.0737C86.066 50.0882 86.6387 50.9882 87.3586 51.7736C88.0786 52.5262 88.9295 53.1317 89.9112 53.5898C90.893 54.0152 91.9566 54.228 93.1019 54.228C94.2146 54.228 95.2455 54.0152 96.1945 53.5898C97.1435 53.1644 97.978 52.5753 98.698 51.8226C99.4179 51.07 99.9743 50.1864 100.367 49.1719C100.792 48.1574 101.005 47.0611 101.005 45.883C101.005 44.6394 100.792 43.5104 100.367 42.4959C99.9743 41.4487 99.4179 40.5488 98.698 39.7961C97.978 39.0434 97.1108 38.4543 96.0963 38.0289C95.1145 37.6035 94.0346 37.3908 92.8565 37.3908C91.7438 37.3908 90.713 37.6035 89.764 38.0289C88.8149 38.4543 87.9804 39.0434 87.2605 39.7961C86.5732 40.5488 86.0169 41.4324 85.5915 42.4468C85.1988 43.4613 85.0024 44.5576 85.0024 45.7357ZM111.365 59.5786V32.3838H117.893V59.5786H111.365ZM111.365 29.4385V23.3025H117.893V29.4385H111.365ZM141.613 50.6445H148.976C147.831 53.7207 146.097 56.0933 143.773 57.7623C141.45 59.3986 138.684 60.2167 135.477 60.2167C133.448 60.2167 131.55 59.8567 129.783 59.1368C128.049 58.3841 126.51 57.3696 125.169 56.0933C123.86 54.7843 122.829 53.2626 122.076 51.5281C121.323 49.7937 120.947 47.9447 120.947 45.9812C120.947 43.9849 121.307 42.1196 122.027 40.3851C122.78 38.6507 123.794 37.1453 125.071 35.869C126.38 34.5928 127.901 33.5946 129.636 32.8747C131.37 32.122 133.252 31.7457 135.281 31.7457C138.553 31.7457 141.384 32.5965 143.773 34.2982C146.162 35.9999 147.896 38.3889 148.976 41.4651H141.613C140.959 40.1888 140.108 39.2561 139.061 38.6671C138.046 38.0453 136.786 37.7344 135.281 37.7344C134.135 37.7344 133.088 37.9471 132.139 38.3725C131.19 38.7652 130.372 39.3216 129.685 40.0415C128.998 40.7615 128.458 41.6287 128.065 42.6432C127.705 43.6249 127.525 44.7212 127.525 45.9321C127.525 47.1102 127.721 48.2065 128.114 49.221C128.507 50.2355 129.047 51.1191 129.734 51.8717C130.454 52.5917 131.288 53.1644 132.237 53.5898C133.219 54.0152 134.283 54.228 135.428 54.228C136.803 54.228 137.964 53.9498 138.913 53.3935C139.895 52.8044 140.795 51.8881 141.613 50.6445ZM150.645 46.0794C150.645 43.9849 150.989 42.0705 151.676 40.3361C152.363 38.5689 153.312 37.0635 154.523 35.82C155.767 34.5437 157.24 33.5455 158.941 32.8256C160.643 32.1056 162.492 31.7457 164.488 31.7457C166.484 31.7457 168.17 32.0893 169.544 32.7765C170.951 33.431 172.228 34.5109 173.373 36.0163V32.3838H179.362V59.5786H173.373V56.0442C172.064 57.5496 170.706 58.6295 169.299 59.284C167.924 59.9058 166.272 60.2167 164.341 60.2167C162.345 60.2167 160.512 59.8731 158.843 59.1858C157.174 58.4659 155.734 57.4841 154.523 56.2406C153.312 54.9643 152.363 53.4753 151.676 51.7736C150.989 50.0391 150.645 48.141 150.645 46.0794ZM157.223 46.2266C157.223 47.4047 157.42 48.4847 157.812 49.4664C158.205 50.4482 158.745 51.299 159.432 52.019C160.152 52.7062 161.003 53.2462 161.985 53.6389C162.999 54.0316 164.095 54.228 165.274 54.228C166.452 54.228 167.515 54.0316 168.464 53.6389C169.446 53.2462 170.281 52.6899 170.968 51.9699C171.688 51.25 172.228 50.3991 172.588 49.4173C172.98 48.4028 173.177 47.2902 173.177 46.0794C173.177 44.8685 172.98 43.7559 172.588 42.7414C172.195 41.6942 171.639 40.8106 170.919 40.0906C170.199 39.3379 169.332 38.7652 168.317 38.3725C167.335 37.9471 166.255 37.7344 165.077 37.7344C163.932 37.7344 162.885 37.9471 161.936 38.3725C160.987 38.798 160.152 39.387 159.432 40.1397C158.745 40.8924 158.205 41.7923 157.812 42.8395C157.42 43.854 157.223 44.9831 157.223 46.2266ZM184.859 59.5786V38.3234H181.669V32.3838H184.859V23.3025H191.388V32.3838H195.315V38.3234H191.388V59.5786H184.859ZM216.852 51.5281H223.969C223.544 52.8044 222.906 53.9825 222.055 55.0625C221.237 56.1097 220.255 57.026 219.11 57.8114C217.964 58.5641 216.704 59.1531 215.33 59.5786C213.955 60.004 212.516 60.2167 211.01 60.2167C208.948 60.2167 207.018 59.8567 205.218 59.1368C203.418 58.4168 201.847 57.4187 200.505 56.1424C199.196 54.8661 198.165 53.3771 197.413 51.6754C196.66 49.9409 196.284 48.0756 196.284 46.0794C196.284 44.0831 196.644 42.2178 197.364 40.4833C198.116 38.7161 199.131 37.1944 200.407 35.9181C201.716 34.6091 203.238 33.5946 204.972 32.8747C206.74 32.122 208.621 31.7457 210.617 31.7457C212.646 31.7457 214.512 32.122 216.213 32.8747C217.948 33.5946 219.437 34.6091 220.681 35.9181C221.924 37.1944 222.889 38.7325 223.577 40.5324C224.297 42.3323 224.657 44.2795 224.657 46.3739C224.657 46.8975 224.64 47.3393 224.608 47.6993C224.575 48.0265 224.509 48.4192 224.411 48.8774H203.352C203.549 49.6955 203.86 50.4482 204.285 51.1354C204.743 51.7899 205.3 52.3463 205.954 52.8044C206.609 53.2626 207.345 53.6225 208.163 53.8843C209.014 54.1134 209.914 54.228 210.863 54.228C212.205 54.228 213.317 54.0316 214.201 53.6389C215.117 53.2135 216.001 52.5099 216.852 51.5281ZM203.156 43.1341H218.226C217.801 41.3669 216.95 40.0252 215.674 39.1089C214.397 38.1925 212.745 37.7344 210.716 37.7344C209.734 37.7344 208.834 37.8489 208.016 38.078C207.23 38.3071 206.51 38.6507 205.856 39.1089C205.234 39.567 204.694 40.1397 204.236 40.8269C203.778 41.4814 203.418 42.2505 203.156 43.1341Z" fill="white"/>
<path d="M227.42 28.6199L232.268 43.4486C232.612 44.5023 233.91 44.8788 234.765 44.1729L249.243 32.2208C249.243 32.2208 233.858 26.2193 233.858 26.5467C233.858 26.874 227.42 28.6199 227.42 28.6199Z" fill="#1590D2"/>
<path d="M265.62 0.119928C256.165 3.85989 225.645 16.366 214.094 21.1048C212.569 21.7303 212.66 23.9183 214.231 24.4187L227.42 28.6199L232.252 43.4019C232.447 43.9962 232.937 44.3795 233.485 44.4827C233.929 44.5662 234.585 32.5121 234.585 32.5121C234.585 32.5121 248.45 42.7943 255.027 47.6507C256.647 48.847 258.96 47.9472 259.344 45.9703C261.303 35.8736 266.202 10.6276 267.876 1.9965C268.128 0.698286 266.849 -0.366103 265.62 0.119928Z" fill="white"/>
<path d="M265.62 0.119928C256.165 3.85989 225.645 16.366 214.094 21.1048C212.569 21.7303 212.66 23.9183 214.231 24.4187L227.42 28.6199L232.252 43.4019C232.447 43.9962 232.937 44.3795 233.485 44.4827C233.929 44.5662 234.585 32.5121 234.585 32.5121C234.585 32.5121 248.45 42.7943 255.027 47.6507C256.647 48.847 258.96 47.9472 259.344 45.9703C261.303 35.8736 266.202 10.6276 267.876 1.9965C268.128 0.698286 266.849 -0.366103 265.62 0.119928Z" fill="url(#paint0_linear_22_34)"/>
<path d="M265.62 0.119928C256.165 3.85989 225.645 16.366 214.094 21.1048C212.569 21.7303 212.66 23.9183 214.231 24.4187L227.42 28.6199L232.252 43.4019C232.447 43.9962 232.937 44.3795 233.485 44.4827C233.929 44.5662 234.585 32.5121 234.585 32.5121C234.585 32.5121 248.45 42.7943 255.027 47.6507C256.647 48.847 258.96 47.9472 259.344 45.9703C261.303 35.8736 266.202 10.6276 267.876 1.9965C268.128 0.698286 266.849 -0.366103 265.62 0.119928Z" fill="white"/>
<path d="M265.62 0.119928C256.165 3.85989 225.645 16.366 214.094 21.1048C212.569 21.7303 212.66 23.9183 214.231 24.4187L227.42 28.6199L232.252 43.4019C232.447 43.9962 232.937 44.3795 233.485 44.4827C233.929 44.5662 234.585 32.5121 234.585 32.5121C234.585 32.5121 248.45 42.7943 255.027 47.6507C256.647 48.847 258.96 47.9472 259.344 45.9703C261.303 35.8736 266.202 10.6276 267.876 1.9965C268.128 0.698286 266.849 -0.366103 265.62 0.119928Z" fill="url(#paint1_linear_22_34)"/>
<path d="M233.485 44.4823C233.929 44.5658 234.585 32.5118 234.585 32.5118L257.363 11.1164C257.517 10.9717 257.333 10.7279 257.151 10.8362L227.419 28.6199L232.252 43.4019C232.446 43.9962 232.937 44.3796 233.485 44.4823Z" fill="#1D72A9"/>
<path d="M46.374 80.3337C46.374 78.2393 46.7176 76.3248 47.4049 74.5904C48.0921 72.8232 49.0411 71.3179 50.252 70.0743C51.4955 68.798 52.9682 67.7999 54.6699 67.0799C56.3716 66.36 58.2206 66 60.2168 66C62.2131 66 63.8984 66.3436 65.2729 67.0308C66.6801 67.6854 67.9564 68.7653 69.1018 70.2707V66.6381H75.0905V93.8329H69.1018V90.2986C67.7928 91.8039 66.4347 92.8839 65.0275 93.5384C63.653 94.1602 62.0004 94.471 60.0696 94.471C58.0733 94.471 56.2407 94.1274 54.5717 93.4402C52.9027 92.7202 51.4628 91.7385 50.252 90.4949C49.0411 89.2186 48.0921 87.7296 47.4049 86.0279C46.7176 84.2935 46.374 82.3954 46.374 80.3337ZM52.9518 80.481C52.9518 81.6591 53.1482 82.739 53.5409 83.7208C53.9336 84.7025 54.4735 85.5534 55.1608 86.2733C55.8807 86.9606 56.7316 87.5005 57.7134 87.8933C58.7278 88.286 59.8241 88.4823 61.0022 88.4823C62.1804 88.4823 63.2439 88.286 64.193 87.8933C65.1747 87.5005 66.0092 86.9442 66.6965 86.2243C67.4164 85.5043 67.9564 84.6534 68.3164 83.6717C68.7091 82.6572 68.9054 81.5445 68.9054 80.3337C68.9054 79.1229 68.7091 78.0102 68.3164 76.9957C67.9237 75.9485 67.3673 75.0649 66.6474 74.345C65.9274 73.5923 65.0602 73.0196 64.0457 72.6269C63.0639 72.2015 61.984 71.9887 60.8059 71.9887C59.6605 71.9887 58.6133 72.2015 57.6643 72.6269C56.7152 73.0523 55.8807 73.6414 55.1608 74.394C54.4735 75.1467 53.9336 76.0467 53.5409 77.0939C53.1482 78.1084 52.9518 79.2374 52.9518 80.481Z" fill="white"/>
<path d="M78.5754 96.0419H85.9877C86.9367 97.0891 87.9185 97.8254 88.9329 98.2508C89.9802 98.709 91.2728 98.9381 92.8109 98.9381C95.2653 98.9381 97.147 98.2672 98.456 96.9254C99.765 95.5837 100.42 93.6529 100.42 91.1331V90.2495C99.1105 91.7548 97.7688 92.8348 96.3943 93.4893C95.0199 94.1438 93.3836 94.471 91.4855 94.471C89.5547 94.471 87.7712 94.1111 86.1349 93.3911C84.4987 92.6712 83.0915 91.673 81.9134 90.3967C80.7352 89.1205 79.8026 87.5987 79.1153 85.8316C78.4608 84.0644 78.1336 82.1336 78.1336 80.0392C78.1336 78.0102 78.4608 76.1449 79.1153 74.4431C79.8026 72.7414 80.7352 71.2688 81.9134 70.0252C83.1242 68.7489 84.5477 67.7672 86.184 67.0799C87.8203 66.36 89.6038 66 91.5346 66C93.4981 66 95.1998 66.3436 96.6398 67.0308C98.1124 67.6854 99.3723 68.6998 100.42 70.0743V66.6381H106.654V88.6787C106.654 93.9802 105.476 97.9727 103.119 100.656C100.763 103.34 97.2452 104.681 92.5655 104.681C89.2275 104.681 86.3313 103.929 83.8769 102.423C81.4552 100.918 79.688 98.7908 78.5754 96.0419ZM92.3691 88.4823C93.5472 88.4823 94.6108 88.286 95.5598 87.8933C96.5089 87.5005 97.327 86.9442 98.0142 86.2243C98.7015 85.5043 99.2251 84.6371 99.585 83.6226C99.945 82.6081 100.125 81.4791 100.125 80.2355C100.125 78.992 99.9287 77.8629 99.536 76.8484C99.176 75.834 98.636 74.9667 97.916 74.2468C97.2288 73.5268 96.3943 72.9705 95.4126 72.5778C94.4308 72.1851 93.3509 71.9887 92.1728 71.9887C91.0601 71.9887 90.0456 72.1851 89.1293 72.5778C88.213 72.9705 87.4276 73.5432 86.7731 74.2959C86.1186 75.0158 85.6113 75.8994 85.2513 76.9466C84.8914 77.9611 84.7114 79.0901 84.7114 80.3337C84.7114 81.5773 84.8914 82.7063 85.2513 83.7208C85.6113 84.7025 86.1186 85.5534 86.7731 86.2733C87.4603 86.9933 88.2621 87.5496 89.1784 87.9423C90.1274 88.3023 91.191 88.4823 92.3691 88.4823Z" fill="white"/>
<path d="M130.269 85.7825H137.387C136.962 87.0588 136.323 88.2369 135.473 89.3168C134.654 90.364 133.673 91.2803 132.527 92.0657C131.382 92.8184 130.122 93.4075 128.748 93.8329C127.373 94.2583 125.933 94.471 124.428 94.471C122.366 94.471 120.435 94.1111 118.635 93.3911C116.836 92.6712 115.265 91.673 113.923 90.3967C112.614 89.1205 111.583 87.6314 110.83 85.9297C110.078 84.1953 109.701 82.3299 109.701 80.3337C109.701 78.3375 110.061 76.4721 110.781 74.7377C111.534 72.9705 112.548 71.4488 113.825 70.1725C115.134 68.8635 116.656 67.849 118.39 67.129C120.157 66.3763 122.039 66 124.035 66C126.064 66 127.929 66.3763 129.631 67.129C131.366 67.849 132.855 68.8635 134.098 70.1725C135.342 71.4488 136.307 72.9869 136.994 74.7868C137.714 76.5866 138.074 78.5338 138.074 80.6282C138.074 81.1518 138.058 81.5936 138.025 81.9536C137.992 82.2809 137.927 82.6736 137.829 83.1317H116.77C116.966 83.9498 117.277 84.7025 117.703 85.3898C118.161 86.0443 118.717 86.6006 119.372 87.0588C120.026 87.5169 120.763 87.8769 121.581 88.1387C122.432 88.3678 123.331 88.4823 124.281 88.4823C125.622 88.4823 126.735 88.286 127.619 87.8933C128.535 87.4678 129.418 86.7642 130.269 85.7825ZM116.574 77.3884H131.644C131.218 75.6212 130.367 74.2795 129.091 73.3632C127.815 72.4469 126.162 71.9887 124.133 71.9887C123.152 71.9887 122.252 72.1033 121.433 72.3324C120.648 72.5614 119.928 72.905 119.274 73.3632C118.652 73.8214 118.112 74.394 117.654 75.0813C117.195 75.7358 116.836 76.5048 116.574 77.3884Z" fill="white"/>
<path d="M141.107 93.8329V66.6381H147.145V69.2398C148.356 68.0617 149.534 67.2272 150.68 66.7363C151.858 66.2454 153.232 66 154.803 66C158.435 66 161.086 67.0636 162.755 69.1907C164.424 71.2851 165.259 74.6395 165.259 79.2538V93.8329H158.73V80.53C158.73 77.4539 158.321 75.2613 157.503 73.9523C156.717 72.6432 155.392 71.9887 153.527 71.9887C151.465 71.9887 149.96 72.7087 149.011 74.1486C148.094 75.5558 147.636 77.8466 147.636 81.0209V93.8329H141.107Z" fill="white"/>
<path d="M188.853 84.8989H196.216C195.071 87.9751 193.336 90.3477 191.013 92.0166C188.689 93.6529 185.924 94.471 182.717 94.471C180.688 94.471 178.79 94.1111 177.023 93.3911C175.288 92.6384 173.75 91.6239 172.409 90.3477C171.1 89.0386 170.069 87.5169 169.316 85.7825C168.563 84.048 168.187 82.199 168.187 80.2355C168.187 78.2393 168.547 76.3739 169.267 74.6395C170.02 72.905 171.034 71.3997 172.31 70.1234C173.619 68.8471 175.141 67.849 176.876 67.129C178.61 66.3763 180.492 66 182.521 66C185.793 66 188.624 66.8509 191.013 68.5526C193.402 70.2543 195.136 72.6432 196.216 75.7194H188.853C188.199 74.4431 187.348 73.5105 186.301 72.9214C185.286 72.2996 184.026 71.9887 182.521 71.9887C181.375 71.9887 180.328 72.2015 179.379 72.6269C178.43 73.0196 177.612 73.5759 176.925 74.2959C176.237 75.0158 175.698 75.8831 175.305 76.8975C174.945 77.8793 174.765 78.9756 174.765 80.1864C174.765 81.3645 174.961 82.4608 175.354 83.4753C175.747 84.4898 176.287 85.3734 176.974 86.1261C177.694 86.846 178.528 87.4187 179.477 87.8442C180.459 88.2696 181.523 88.4823 182.668 88.4823C184.042 88.4823 185.204 88.2041 186.153 87.6478C187.135 87.0588 188.035 86.1424 188.853 84.8989Z" fill="white"/>
<path d="M202.518 98.9142L206.623 91.2803L196.658 66.6381H204.119L210.157 84.2607L216.735 66.6381H224.246L209.537 98.9142H202.518Z" fill="white"/>
<path d="M108.061 103.246H109.008V107H108.061V103.246ZM106.402 102.822H110.668V103.658H106.402V102.822ZM114.647 104.549V105.273H111.658V104.549H114.647ZM112.293 104.911L112.009 106.683L111.6 106.215H114.819V107H111.057L111.383 104.911L111.057 102.822H114.792V103.608H111.6L112.009 103.14L112.293 104.911ZM116.484 102.822V106.579L116.06 106.164H119.196V107H115.54V102.822H116.484ZM123.176 104.549V105.273H120.188V104.549H123.176ZM120.823 104.911L120.539 106.683L120.129 106.215H123.349V107H119.586L119.912 104.911L119.586 102.822H123.321V103.608H120.129L120.539 103.14L120.823 104.911ZM128.234 105.187C128.223 105.538 128.135 105.857 127.969 106.145C127.806 106.431 127.568 106.659 127.256 106.83C126.946 106.999 126.576 107.084 126.145 107.084C125.703 107.084 125.304 106.997 124.948 106.825C124.593 106.65 124.314 106.398 124.109 106.07C123.907 105.741 123.806 105.355 123.806 104.911C123.806 104.466 123.909 104.079 124.115 103.753C124.321 103.424 124.604 103.173 124.964 103.001C125.326 102.826 125.737 102.739 126.195 102.739C126.626 102.739 127.008 102.808 127.34 102.945C127.672 103.082 127.939 103.275 128.139 103.521C128.342 103.767 128.47 104.048 128.524 104.365H127.568C127.529 104.196 127.448 104.051 127.323 103.928C127.201 103.804 127.042 103.709 126.847 103.644C126.654 103.577 126.437 103.544 126.195 103.544C125.9 103.544 125.645 103.597 125.429 103.703C125.216 103.808 125.051 103.964 124.934 104.17C124.817 104.375 124.758 104.622 124.758 104.911C124.758 105.205 124.819 105.455 124.942 105.663C125.066 105.871 125.242 106.03 125.468 106.139C125.695 106.247 125.963 106.301 126.273 106.301C126.57 106.301 126.833 106.255 127.061 106.162C127.29 106.067 127.47 105.932 127.602 105.758C127.734 105.583 127.807 105.379 127.822 105.145L128.234 105.187ZM126.401 105.577V104.892H128.565V107H127.883L127.758 105.307L127.953 105.577H126.401ZM131.588 104.677C131.73 104.677 131.853 104.655 131.955 104.61C132.059 104.566 132.139 104.502 132.195 104.418C132.252 104.335 132.281 104.236 132.281 104.123C132.281 104.008 132.253 103.91 132.197 103.828C132.142 103.744 132.062 103.68 131.958 103.636C131.854 103.591 131.73 103.569 131.588 103.569H129.844L130.267 103.087V107H129.323V102.822H131.702C132.004 102.822 132.272 102.877 132.504 102.987C132.736 103.094 132.916 103.247 133.044 103.444C133.172 103.64 133.236 103.867 133.236 104.123C133.236 104.377 133.172 104.602 133.044 104.797C132.916 104.99 132.736 105.141 132.504 105.251C132.272 105.359 132.004 105.413 131.702 105.413H129.978V104.677H131.588ZM130.702 105.045H131.782L133.362 107H132.253L130.702 105.045ZM134.545 106.12V105.351H137.444V106.12H134.545ZM136.625 102.822L138.578 107H137.569L135.862 103.207H136.171L134.461 107H133.453L135.406 102.822H136.625ZM144.89 102.822V107H143.99V103.14L144.227 103.159L142.447 107H141.47L139.687 103.168L139.927 103.148V107H139.027V102.822H140.481L142.166 106.546H141.759L143.436 102.822H144.89ZM151.699 105.298C151.658 105.651 151.534 105.963 151.328 106.234C151.124 106.503 150.852 106.712 150.512 106.861C150.174 107.009 149.792 107.084 149.365 107.084C148.893 107.084 148.476 106.994 148.114 106.813C147.752 106.631 147.472 106.376 147.273 106.048C147.075 105.719 146.975 105.34 146.975 104.911C146.975 104.482 147.075 104.104 147.273 103.775C147.472 103.446 147.752 103.192 148.114 103.012C148.476 102.83 148.893 102.739 149.365 102.739C149.792 102.739 150.174 102.813 150.512 102.962C150.852 103.11 151.124 103.32 151.328 103.591C151.534 103.86 151.658 104.171 151.699 104.524H150.749C150.71 104.325 150.629 104.155 150.507 104.012C150.384 103.867 150.225 103.756 150.03 103.68C149.835 103.604 149.613 103.566 149.362 103.566C149.07 103.566 148.817 103.621 148.602 103.73C148.386 103.838 148.221 103.993 148.106 104.195C147.991 104.398 147.933 104.636 147.933 104.911C147.933 105.186 147.991 105.425 148.106 105.627C148.221 105.829 148.386 105.985 148.602 106.095C148.817 106.203 149.07 106.256 149.362 106.256C149.616 106.256 149.84 106.219 150.033 106.145C150.228 106.071 150.386 105.962 150.507 105.819C150.629 105.674 150.71 105.501 150.749 105.298H151.699ZM152.316 102.822H153.26V107H152.316V102.822ZM155.658 102.822H156.605V107H155.658V102.822ZM152.837 104.468H156.073V105.304H152.837V104.468ZM158.147 106.12V105.351H161.046V106.12H158.147ZM160.227 102.822L162.18 107H161.172L159.464 103.207H159.773L158.063 107H157.055L159.008 102.822H160.227ZM166.501 106.373L166.172 106.426V102.822H167.088V107H165.893L163.223 103.399L163.546 103.346V107H162.629V102.822H163.855L166.501 106.373ZM171.815 106.373L171.486 106.426V102.822H172.403V107H171.208L168.537 103.399L168.86 103.346V107H167.944V102.822H169.169L171.815 106.373ZM176.712 104.549V105.273H173.723V104.549H176.712ZM174.358 104.911L174.074 106.683L173.665 106.215H176.884V107H173.122L173.448 104.911L173.122 102.822H176.856V103.608H173.665L174.074 103.14L174.358 104.911ZM178.548 102.822V106.579L178.125 106.164H181.261V107H177.604V102.822H178.548ZM185.306 102.822C185.631 102.822 185.915 102.88 186.158 102.995C186.401 103.11 186.588 103.273 186.718 103.483C186.848 103.69 186.913 103.931 186.913 104.204C186.913 104.477 186.848 104.717 186.718 104.925C186.588 105.133 186.401 105.295 186.158 105.41C185.915 105.525 185.631 105.582 185.306 105.582H183.462V104.803H185.256C185.4 104.803 185.525 104.778 185.629 104.73C185.735 104.682 185.815 104.613 185.871 104.524C185.927 104.433 185.955 104.326 185.955 104.204C185.955 104.079 185.927 103.973 185.871 103.884C185.815 103.793 185.735 103.723 185.629 103.675C185.525 103.626 185.4 103.602 185.256 103.602H183.548L183.972 103.151V107H183.028V102.822H185.306ZM189.73 104.677C189.873 104.677 189.996 104.655 190.098 104.61C190.202 104.566 190.282 104.502 190.338 104.418C190.395 104.335 190.424 104.236 190.424 104.123C190.424 104.008 190.396 103.91 190.34 103.828C190.285 103.744 190.205 103.68 190.101 103.636C189.997 103.591 189.873 103.569 189.73 103.569H187.987L188.41 103.087V107H187.466V102.822H189.845C190.147 102.822 190.415 102.877 190.647 102.987C190.879 103.094 191.059 103.247 191.187 103.444C191.315 103.64 191.379 103.867 191.379 104.123C191.379 104.377 191.315 104.602 191.187 104.797C191.059 104.99 190.879 105.141 190.647 105.251C190.415 105.359 190.147 105.413 189.845 105.413H188.121V104.677H189.73ZM188.845 105.045H189.925L191.504 107H190.396L188.845 105.045ZM194.285 107.084C193.806 107.084 193.382 106.994 193.013 106.813C192.643 106.631 192.356 106.376 192.152 106.048C191.95 105.719 191.848 105.34 191.848 104.911C191.848 104.482 191.95 104.104 192.152 103.775C192.356 103.446 192.643 103.192 193.013 103.012C193.382 102.83 193.806 102.739 194.285 102.739C194.766 102.739 195.191 102.83 195.561 103.012C195.93 103.192 196.216 103.446 196.419 103.775C196.623 104.104 196.725 104.482 196.725 104.911C196.725 105.34 196.623 105.719 196.419 106.048C196.216 106.376 195.93 106.631 195.561 106.813C195.191 106.994 194.766 107.084 194.285 107.084ZM194.285 106.24C194.588 106.24 194.851 106.186 195.073 106.078C195.296 105.97 195.467 105.817 195.586 105.619C195.707 105.418 195.767 105.182 195.767 104.911C195.767 104.64 195.707 104.405 195.586 104.207C195.467 104.006 195.296 103.852 195.073 103.744C194.851 103.637 194.588 103.583 194.285 103.583C193.985 103.583 193.723 103.637 193.5 103.744C193.277 103.852 193.105 104.006 192.985 104.207C192.864 104.405 192.804 104.64 192.804 104.911C192.804 105.182 192.864 105.418 192.985 105.619C193.105 105.817 193.277 105.97 193.5 106.078C193.723 106.186 193.985 106.24 194.285 106.24ZM203.239 102.822V107H202.34V103.14L202.577 103.159L200.797 107H199.819L198.037 103.168L198.277 103.148V107H197.377V102.822H198.831L200.516 106.546H200.109L201.786 102.822H203.239ZM206.328 107.084C205.849 107.084 205.425 106.994 205.056 106.813C204.686 106.631 204.399 106.376 204.195 106.048C203.993 105.719 203.891 105.34 203.891 104.911C203.891 104.482 203.993 104.104 204.195 103.775C204.399 103.446 204.686 103.192 205.056 103.012C205.425 102.83 205.849 102.739 206.328 102.739C206.809 102.739 207.234 102.83 207.604 103.012C207.973 103.192 208.259 103.446 208.462 103.775C208.666 104.104 208.768 104.482 208.768 104.911C208.768 105.34 208.666 105.719 208.462 106.048C208.259 106.376 207.973 106.631 207.604 106.813C207.234 106.994 206.809 107.084 206.328 107.084ZM206.328 106.24C206.631 106.24 206.894 106.186 207.117 106.078C207.339 105.97 207.51 105.817 207.629 105.619C207.75 105.418 207.81 105.182 207.81 104.911C207.81 104.64 207.75 104.405 207.629 104.207C207.51 104.006 207.339 103.852 207.117 103.744C206.894 103.637 206.631 103.583 206.328 103.583C206.028 103.583 205.766 103.637 205.543 103.744C205.32 103.852 205.148 104.006 205.028 104.207C204.907 104.405 204.847 104.64 204.847 104.911C204.847 105.182 204.907 105.418 205.028 105.619C205.148 105.817 205.32 105.97 205.543 106.078C205.766 106.186 206.028 106.24 206.328 106.24ZM210.553 103.246H211.5V107H210.553V103.246ZM208.893 102.822H213.159V103.658H208.893V102.822ZM213.685 102.822H214.629V107H213.685V102.822ZM217.719 107.084C217.24 107.084 216.815 106.994 216.446 106.813C216.076 106.631 215.79 106.376 215.585 106.048C215.383 105.719 215.282 105.34 215.282 104.911C215.282 104.482 215.383 104.104 215.585 103.775C215.79 103.446 216.076 103.192 216.446 103.012C216.815 102.83 217.24 102.739 217.719 102.739C218.2 102.739 218.625 102.83 218.994 103.012C219.364 103.192 219.65 103.446 219.852 103.775C220.056 104.104 220.158 104.482 220.158 104.911C220.158 105.34 220.056 105.719 219.852 106.048C219.65 106.376 219.364 106.631 218.994 106.813C218.625 106.994 218.2 107.084 217.719 107.084ZM217.719 106.24C218.021 106.24 218.284 106.186 218.507 106.078C218.73 105.97 218.9 105.817 219.019 105.619C219.14 105.418 219.2 105.182 219.2 104.911C219.2 104.64 219.14 104.405 219.019 104.207C218.9 104.006 218.73 103.852 218.507 103.744C218.284 103.637 218.021 103.583 217.719 103.583C217.418 103.583 217.156 103.637 216.933 103.744C216.711 103.852 216.539 104.006 216.418 104.207C216.297 104.405 216.237 104.64 216.237 104.911C216.237 105.182 216.297 105.418 216.418 105.619C216.539 105.817 216.711 105.97 216.933 106.078C217.156 106.186 217.418 106.24 217.719 106.24ZM224.682 106.373L224.353 106.426V102.822H225.269V107H224.074L221.404 103.399L221.727 103.346V107H220.81V102.822H222.036L224.682 106.373Z" fill="#F3EBEB"/>
<defs>
<linearGradient id="paint0_linear_22_34" x1="241.073" y1="-13.0981" x2="238.164" y2="79.6088" gradientUnits="userSpaceOnUse">
<stop stop-color="#04D0F8"/>
<stop offset="1" stop-color="#516CF4"/>
</linearGradient>
<linearGradient id="paint1_linear_22_34" x1="241.073" y1="-13.0981" x2="238.164" y2="79.6088" gradientUnits="userSpaceOnUse">
<stop stop-color="#04D0F8"/>
<stop offset="1" stop-color="#516CF4"/>
</linearGradient>
</defs>
</svg>
