<svg width="360" height="55" viewBox="0 0 360 55" fill="none" xmlns="http://www.w3.org/2000/svg">
<path fill-rule="evenodd" clip-rule="evenodd" d="M42.6786 26.1905H16.8028C16.3338 26.1905 15.9133 25.9286 15.6869 25.5194C15.4605 25.1102 15.4605 24.5864 15.6869 24.1771L28.6248 0.671132C28.8512 0.245536 29.2879 0 29.7407 0C30.1935 0 30.6302 0.261905 30.8566 0.671132L43.7945 24.1771C44.0209 24.5864 44.0209 25.1102 43.7945 25.5194C43.5519 25.9286 43.1315 26.1905 42.6786 26.1905ZM58.1953 55H32.3195C31.8505 55 31.43 54.7381 31.2036 54.3288C30.9772 53.9196 30.9772 53.3958 31.2036 52.9866L44.1415 29.4806C44.3679 29.055 44.8045 28.8094 45.2574 28.8094C45.7102 28.8094 46.1469 29.0713 46.3733 29.4806L59.3112 52.9866C59.5376 53.3958 59.5376 53.9196 59.3112 54.3288C59.0686 54.7381 58.6481 55 58.1953 55ZM1.2857 55H27.1615C27.6143 55 28.0348 54.7381 28.2774 54.3288C28.5038 53.9196 28.5038 53.3958 28.2774 52.9866L15.3395 29.4806C15.1131 29.0713 14.6764 28.8094 14.2236 28.8094C13.7708 28.8094 13.3341 29.055 13.1077 29.4806L0.16981 52.9866C-0.0566033 53.3958 -0.0566033 53.9196 0.16981 54.3288C0.396223 54.7381 0.816705 55 1.2857 55Z" fill="#1294F2"/>
<path d="M96.1246 52.9858L77.5303 2.01401H83.2571L99.5183 46.8554L115.709 2.01401H121.506L102.841 52.9858H96.1246Z" fill="white"/>
<path d="M152.234 53.6746C148.134 53.6746 144.504 52.9399 141.346 51.4705C138.235 49.9551 135.619 47.9575 133.498 45.4778C131.425 42.9522 129.846 40.1281 128.761 37.0055C127.725 33.8829 127.206 30.6914 127.206 27.431C127.206 24.2166 127.725 21.0481 128.761 17.9255C129.846 14.8029 131.425 12.0017 133.498 9.52202C135.619 6.99639 138.235 4.99884 141.346 3.52938C144.504 2.05992 148.134 1.3252 152.234 1.3252C156.335 1.3252 159.941 2.05992 163.051 3.52938C166.162 4.99884 168.755 6.99639 170.829 9.52202C172.95 12.0017 174.552 14.8029 175.636 17.9255C176.72 21.0481 177.262 24.2166 177.262 27.431C177.262 30.6914 176.72 33.8829 175.636 37.0055C174.552 40.1281 172.95 42.9522 170.829 45.4778C168.755 47.9575 166.162 49.9551 163.051 51.4705C159.941 52.9399 156.335 53.6746 152.234 53.6746ZM152.234 48.7152C156.052 48.7152 159.422 47.7968 162.344 45.96C165.267 44.0772 167.553 41.5287 169.202 38.3142C170.852 35.0998 171.677 31.472 171.677 27.431C171.677 23.4359 170.852 19.8541 169.202 16.6856C167.553 13.4712 165.267 10.9456 162.344 9.10873C159.422 7.22599 156.052 6.28462 152.234 6.28462C148.369 6.28462 144.976 7.22599 142.053 9.10873C139.131 10.9456 136.845 13.4712 135.195 16.6856C133.546 19.8541 132.721 23.4359 132.721 27.431C132.721 31.472 133.546 35.0998 135.195 38.3142C136.845 41.5287 139.131 44.0772 142.053 45.96C144.976 47.7968 148.369 48.7152 152.234 48.7152Z" fill="white"/>
<path d="M187.11 52.9858V2.01401H204.786C208.368 2.01401 211.361 2.72578 213.765 4.14931C216.168 5.52693 217.959 7.31783 219.138 9.52202C220.316 11.6803 220.905 13.9763 220.905 16.4101C220.905 18.4765 220.458 20.4741 219.562 22.4027C218.714 24.3314 217.417 26.0075 215.673 27.431C213.93 28.8546 211.738 29.8419 209.098 30.3929L222.673 52.9858H216.522L203.301 30.8062H192.554V52.9858H187.11ZM204.715 6.76679H192.554V26.1912H204.715C207.119 26.1912 209.098 25.732 210.654 24.8136C212.209 23.8492 213.387 22.6323 214.189 21.1629C214.99 19.6475 215.391 18.0862 215.391 16.479C215.391 14.8718 214.99 13.3334 214.189 11.864C213.387 10.3486 212.209 9.13169 210.654 8.21328C209.098 7.24895 207.119 6.76679 204.715 6.76679Z" fill="white"/>
<path d="M245.853 52.9858V6.76679H228.885V2.01401H268.265V6.76679H251.297V52.9858H245.853Z" fill="white"/>
<path d="M277.144 52.9858V2.01401H309.171V6.76679H282.588V24.6069H305.848V29.3597H282.588V48.2331H309.525V52.9858H277.144Z" fill="white"/>
<path d="M318.106 52.9858L335.286 27.4999L318.106 2.01401H324.611L338.963 23.5048L353.315 2.01401H359.82L342.569 27.4999L359.82 52.9858H353.315L338.963 31.495L324.611 52.9858H318.106Z" fill="white"/>
</svg>
