<?xml version="1.0" encoding="utf-8"?>
<!-- Generator: Adobe Illustrator 28.0.0, SVG Export Plug-In . SVG Version: 6.00 Build 0)  -->
<svg version="1.1" id="Шар_1" xmlns="http://www.w3.org/2000/svg" xmlns:xlink="http://www.w3.org/1999/xlink" x="0px" y="0px"
	 viewBox="0 0 2516.3 1080" style="enable-background:new 0 0 2516.3 1080;" xml:space="preserve">
<style type="text/css">
	.st0{display:none;}
	.st1{display:inline;fill:#FFFFFF;}
	.st2{fill:#FFFFFF;}
	.st3{fill:#9BFA06;}
</style>
<g id="Olen_00000157994486520373926290000003242815923620566971_" class="st0">
	<path class="st1" d="M995.3,312.9c-0.2,0-0.6-0.1-0.7,0c-0.8,0.7-1.5,1.4-2.3,2.2c-11.8,12.5-25.1,23.2-39.9,32.2
		c-11.4,6.9-23.4,12.5-36,16.9c-0.9,0.3-1.8,0.5-2.7,0.7c-0.3,0.1-0.9-0.4-0.8-0.7c0-0.4,0.1-0.8,0.1-1.1c1.4-6,3.3-12,5.5-17.8
		c4-10.7,9-21,14.6-31c4.2-7.4,8.6-14.6,13.2-21.7c7.2-11.4,14.4-22.7,21.5-34.1c3.9-6.2,7.5-12.5,10.7-19.1
		c3.4-6.9,6.4-13.9,8.6-21.3c1.8-6.2,3-12.6,3.2-19.1c0.3-10.8-2.2-21-7-30.7c-0.6-1.2-1.3-2.3-2-3.4c-0.5-0.8-1.2-1.4-2.1-1.8
		c-0.2-0.1-0.5-0.2-0.8-0.2c-0.2,0-0.6,0.1-0.7,0.3c-0.2,0.8-0.3,1.5-0.3,2.3c-0.3,5.4-1.2,10.8-2.7,16c-1.4,4.8-3.1,9.6-5,14.3
		c-5,12.2-10.9,23.9-17.6,35.2c-0.7,1.2-1.5,2.4-2.3,3.6c-0.1,0.2-0.3,0.4-0.5,0.6c-0.3,0.5-1.1,0.9-1.3,0.7
		c-0.3-0.3-0.6-0.6-0.7-0.9c-0.6-2.1-1.2-4.2-1.6-6.4c-1.7-8.1-3.4-16.2-5-24.3c-2.5-12.2-4.9-24.3-7.4-36.5
		c-2-9.5-4.2-18.9-6.8-28.3c-3.8-13.9-9.6-27.1-17-39.6c-3.1-5.3-6.5-10.4-10.6-15c-2-2.3-4.1-4.4-6.3-6.5c-0.9-0.9-2-1.7-3.1-2.4
		c-0.9-0.6-1.9-0.8-3.1-0.7c-0.8,0.1-1.3,0.7-1,1.3c1,1.8,2,3.7,3,5.5c0.7,1.4,1.5,2.8,2.1,4.2c3.6,9.2,7.2,18.4,10.4,27.7
		c2.9,8.5,5.4,17,7,25.8c1.2,6.4,2.2,12.7,3,19.1c0.9,6.7,1.6,13.4,2.1,20c0.8,10.3,1.2,20.6,1,31c0,1.7,0,3.4,0,5
		c-0.1,10.3-0.5,20.7-1.4,31c-0.8,8.9-2.2,17.7-4.3,26.4c-3.3,13.7-8.2,26.7-15.1,39.1c-12.2,22.1-29.4,39.8-51.3,53.3
		c-11,6.8-22.8,12-35,16.3c-15.1,5.4-30.7,8.9-46.6,11.5c-0.4,0.1-0.8,0-1.2,0.1c-0.5,0-1.1-0.4-1.2-0.8c-0.1-0.8-0.2-1.5-0.3-2.3
		c-0.5-5.8-1.2-11.6-2.3-17.3c-1.2-6.5-3-12.9-5.6-19c-2.1-4.8-4.6-9.3-8-13.4c-2.5-3.1-5.4-5.8-8.6-8.1c-1-0.7-2-1.3-3-1.9
		c-0.3-0.2-0.9-0.3-1.1-0.1c-0.2,0.2-0.3,0.7-0.2,1c0.3,1,0.7,2,1,2.9c1.8,5,3.2,10.1,3.9,15.4c1,7.6,0.8,15.2-0.8,22.7
		c-1.8,8.5-5.4,16.2-10.3,23.4c-3.5,5.1-7.4,9.8-11.8,14.2c-5.7,5.7-11.9,10.8-18.3,15.6c-14.8,10.9-30.9,19.5-48.2,25.9
		c-9.1,3.4-18.5,6.1-27.9,8.6c-2.7,0.7-5.5,1.3-8.2,1.8c-4.2,0.8-8.5,0.8-12.8,0.1c-2.2-0.4-4.5-0.8-6.7-1.4c-8.2-2-16.2-4.3-24.2-7
		c-18-6.1-34.9-14.4-50.4-25.3c-8.4-6-16.4-12.4-23.6-19.8c-6-6.2-11.1-12.9-15-20.5c-3.7-7.1-6-14.6-6.8-22.6
		c-1-10.3,0.2-20.4,3.8-30.1c0.5-1.2,0.9-2.4,1.3-3.7c0.1-0.4,0.1-0.8,0.1-1.1c0-0.3-0.3-0.5-0.5-0.4c-0.7,0.3-1.5,0.5-2.1,1
		c-6.1,3.9-10.9,9.1-14.5,15.3c-4.1,6.9-6.7,14.4-8.4,22.1c-1.6,7-2.5,14-3.1,21.1c-0.1,0.9-0.2,1.8-0.3,2.7c0,0.4-0.7,0.9-1.2,0.9
		c-1.3-0.2-2.6-0.4-4-0.6c-12.6-2-24.9-4.9-37-8.7c-14.8-4.7-29-10.7-42.1-18.8c-21.9-13.5-39-31.2-51.2-53.4
		c-8.8-16-14.4-33-17.4-50.9c-1.7-10.1-2.6-20.2-3-30.4c-0.5-16.1-0.7-32.3,0.5-48.4c0.3-4.5,0.6-9,1.1-13.5
		c1-8.9,2.1-17.7,3.8-26.5c1.3-6.7,2.8-13.4,4.9-20c3.8-12,8.3-23.7,12.9-35.4c0.4-1.1,1-2.1,1.5-3.1c0.9-1.7,1.9-3.4,2.8-5.1
		c0.2-0.4,0.4-0.9,0.6-1.4c0.1-0.2-0.3-0.8-0.6-0.9c-1.2-0.4-2.4-0.1-3.5,0.5c-1.4,0.8-2.6,1.8-3.7,2.9c-4.9,4.6-9.1,9.8-12.8,15.4
		c-8,12.2-14.2,25.1-18.6,38.9c-3.2,10.1-5.6,20.5-7.9,30.8c-2.1,9.7-4,19.5-6,29.3c-2.4,11.5-4.7,23.1-7.1,34.6
		c-0.5,2.3-1.1,4.5-1.7,6.8c-0.1,0.4-0.3,0.7-0.5,1.1c-0.1,0.3-0.8,0.4-1,0.2c-1.5-1.5-2.5-3.4-3.6-5.1c-4.5-7.5-8.5-15.2-12.2-23.1
		c-3.5-7.3-6.6-14.7-9-22.4c-1.5-4.8-2.9-9.7-3.4-14.7c-0.2-2.1-0.3-4.1-0.5-6.2c0-0.5,0-1-0.5-1.4c-0.4-0.2-1.2-0.1-1.8,0.5
		c-0.6,0.5-1.2,1.1-1.6,1.7c-0.7,1.1-1.4,2.2-2,3.4c-6.4,13-8.4,26.6-5.8,40.8c1.4,7.7,3.8,15,6.9,22.2c2.9,6.7,6.2,13.2,10,19.4
		c4.5,7.5,9.1,14.9,13.7,22.3c6.2,10,12.6,19.8,18.8,29.8c5.5,8.8,10.4,17.8,14.8,27c4.5,9.7,8.4,19.5,11.1,29.8
		c0.4,1.4,0.6,2.8,0.9,4.2c0.1,0.3-0.4,0.8-0.8,0.7c-1-0.3-2.1-0.5-3.1-0.8c-28.4-10-53-25.6-73.7-46.9c-1-1-2-2.1-3-3.1
		c-0.4-0.4-0.8-0.7-1.2-1c-0.2-0.1-0.5-0.1-0.7,0s-0.4,0.4-0.3,0.6c0.1,3.8,0.9,7.4,1.7,11.1c2.3,10.4,6.3,20.3,11.7,29.5
		c9.1,15.5,21.4,28.4,36.5,38.6c11.1,7.5,23.1,12.9,36.2,16.2c7.5,1.9,15.2,2.9,23,3.4c11.6,0.8,23.2,1.5,34.8,2.3
		c8.7,0.6,17.3,1.4,26,2.3c10.5,1.1,21,2.4,31.4,4c15.1,2.3,30,5.3,44.7,9.3c8,2.2,15.8,4.8,23.5,7.8c5.6,2.2,11,4.8,16,8
		c4,2.6,7.8,5.5,11,9c3.5,3.8,6.2,8.1,7.7,13c0.8,2.6,1.3,5.3,1.2,8c-0.1,2.6-0.7,5.1-2,7.4c-1.6,2.8-3.7,3.8-7,3.3
		c-0.9-0.1-1.8-0.4-2.7-0.7c-1.2-0.5-2.5-0.9-3.7-1.5c-4.3-2.2-8.5-4.4-12.7-6.6c-5-2.6-9.9-5.2-14.9-7.6
		c-6.6-3.2-13.2-6.2-19.9-9.2c-14.9-6.8-29.6-13.8-43.7-22.1c-0.5-0.3-1-0.5-1.4-0.7c-0.3-0.1-0.9,0.1-1,0.4
		c-0.2,0.4-0.4,0.7-0.5,1.1c-1,3.6-1.7,7.3-2,11c-0.5,8.3,0.5,16.5,2.7,24.5s5.3,15.7,8.9,23.2c6.4,13.4,14.1,26.1,22.5,38.4
		c8.6,12.6,17.9,24.8,27.6,36.7c10,12.2,20,24.2,30.2,36.2c6.2,7.3,11.6,15.2,16.2,23.5c7.2,13,13.1,26.6,17.8,40.6
		c2,6.2,3.8,12.4,5,18.8c1,5.3,1.7,10.7,2.5,16.1c0.7,4.9,1.3,9.7,2.1,14.6c1.1,6.1,2.4,12.2,3.7,18.2c1,4.7,2.2,9.3,3.8,13.9
		c1.6,4.8,3.4,9.5,6,13.9c7,12.1,16.9,21.6,29.4,28.5c3.5,1.9,7.2,3.4,11.1,4.5c6.7,1.9,13.4,2.1,20.2,0.5c3.4-0.8,6.7-2,9.8-3.4
		c7-3.2,13.1-7.5,18.7-12.6c7.6-7.1,13.7-15.2,17.5-24.8c1.2-3.1,2.4-6.3,3.3-9.5c2.8-9.2,4.7-18.6,6.3-28
		c1.2-7.1,2.2-14.3,3.1-21.5c1.3-10.2,3.6-20.1,6.9-29.8c4.1-12.2,9.2-24,15.2-35.4c5.3-10.2,11.5-19.8,19.1-28.6
		c2.3-2.7,4.5-5.4,6.8-8.1c9-10.7,18-21.5,26.8-32.4c10.3-12.9,20.2-26.1,29-39.9c6.9-10.8,13.2-21.8,18.5-33.4
		c3.5-7.6,6.4-15.3,8.2-23.4c2-8.9,2.8-17.9,1.2-26.9c-0.3-1.9-0.8-3.8-1.4-5.6c-0.3-1.3-0.9-1.5-2-0.9c-0.6,0.3-1.2,0.6-1.7,1
		c-7.4,4.3-15,8.4-22.8,12.2c-8.2,3.9-16.3,7.8-24.5,11.5c-11.5,5.2-22.9,10.6-33.9,16.8c-3,1.7-6.1,3.2-9.2,4.7
		c-1.2,0.6-2.4,1.1-3.7,1.5c-1.5,0.5-3.1,0.8-4.7,0.6c-1.4-0.1-2.6-0.7-3.5-1.7c-0.5-0.6-1-1.2-1.3-1.9c-1.1-2.1-1.8-4.3-1.9-6.7
		c-0.2-3.9,0.7-7.7,2.2-11.3c1.7-4,4.1-7.5,7.1-10.7c3.9-4.1,8.5-7.5,13.5-10.3c6.1-3.5,12.6-6.2,19.3-8.6
		c14.1-5,28.6-8.6,43.3-11.6c13.2-2.7,26.6-4.5,40-6.1c8.9-1,17.8-2,26.8-2.6c3.6-0.3,7.2-0.6,10.8-0.8c6.1-0.5,12.3-0.9,18.4-1.3
		c5.2-0.4,10.4-0.6,15.6-1c4-0.3,8-0.6,12-1.2c11-1.7,21.6-4.9,31.6-9.7c21.4-10.4,38.1-25.5,50.4-45.4
		c7.1-11.4,11.7-23.8,13.9-36.9c0.3-1.9,0.3-3.8,0.5-5.8C995.5,313.1,995.4,312.9,995.3,312.9z M567.3,629.9
		c-1.2,0.2-2.4,0.1-3.6-0.2c-5.5-1.2-10.9-2.5-16.3-4.2c-2.4-0.8-4.8-1.7-7-2.8c-5.4-2.6-9.6-6.5-12.8-11.4
		c-0.9-1.3-1.6-2.7-1.9-4.2c-0.2-0.9,0.3-1.8,1.1-2.3c1.6-1,3.5-1.3,5.3-1.6s3.7-0.5,5.6-0.7c1.1-0.1,2.1,0,3.2,0
		c2.1-0.2,4.3,0,6.4,0.4c3.8,0.7,7.1,2.3,9.8,4.9c0.4,0.4,0.8,0.7,1.1,1.1c4.4,5,7.6,10.6,9.9,16.7c0.3,0.8,0.4,1.8,0.5,2.6
		C568.8,628.9,568,629.8,567.3,629.9z M672.3,608.4c-0.5,1.2-1.1,2.4-1.8,3.4c-3.4,4.9-7.7,8.9-13.3,11.4c-2.3,1-4.7,2-7.1,2.7
		c-5,1.4-10.1,2.5-15.1,3.8c-1.3,0.3-2.6,0.4-4,0.2c-0.5-0.1-1.2-0.8-1.3-1.3c0-0.4-0.1-0.8,0-1.2c0.3-1.2,0.7-2.5,1.2-3.7
		c1.9-4.4,4.2-8.6,7.2-12.5c0.9-1.1,1.8-2.2,2.9-3.2c2.8-2.8,6.2-4.4,10.1-5.1c2.1-0.4,4.2-0.5,6.4-0.5c3.9,0,7.7,0.5,11.5,1.4
		c1,0.3,2,0.6,2.9,1.3c0.5,0.3,0.7,0.8,0.7,1.3C672.6,607.1,672.5,607.8,672.3,608.4z"/>
</g>
<g>
	<g>
		<g>
			<g id="Лінія_1_00000153689132385819210400000005260617845627277712_">
				<g>
					<rect x="1130.9" y="385.8" class="st2" width="1178.4" height="24.3"/>
				</g>
			</g>
			<g>
				<polygon class="st2" points="1398.2,424.3 1326.1,352.5 1240.3,423.3 1256.4,269.9 1215.7,269.9 1189.4,520.3 1321.3,409.2 
					1428.9,519.3 1455.1,269.9 1414.4,269.9 				"/>
				<polygon class="st2" points="1480.3,313.2 1578.1,313.2 1561.9,467.3 1464.1,467.3 1459.6,510.1 1699,510.1 1703.5,467.3 
					1604.8,467.3 1621,313.2 1719.6,313.2 1724.1,270.8 1484.7,270.8 				"/>
				<polygon class="st2" points="1796.8,270.4 1753.9,270.4 1728.8,510.1 1968.1,510.1 1972.6,467.3 1776.1,467.3 				"/>
				<path class="st2" d="M2157.6,270.4h-134.5l-25.2,239.7h239.3l13.4-127.8L2157.6,270.4z M2200.6,467.3h-157.2l16.2-154.1h77.2
					l71,85.5L2200.6,467.3z"/>
			</g>
		</g>
		<g>
			<polygon class="st3" points="1184.1,854.9 1423.4,854.9 1427.9,812 1231.5,812 1247.8,657 1444.2,657 1448.7,614 1209.4,614 			
				"/>
			<path class="st3" d="M1453.2,854.9h42l9.4-89.3l187.5,93.8l5-47.6l-121.3-58.9h127.5l14.6-139h-239.4L1453.2,854.9z
				 M1671.4,656.5l-5.7,54h-155.4l5.7-54H1671.4z"/>
			<polygon class="st3" points="1722.3,854.9 1961.7,854.9 1966.2,812 1769.7,812 1775.6,756.2 1872,756.2 1876.5,713.2 
				1780.1,713.2 1786,657.4 1978.4,657.4 1982.9,614.4 1747.6,614.4 			"/>
			<path class="st3" d="M2016.7,614.9L1991.5,855h239.4l25.2-240.1L2016.7,614.9L2016.7,614.9z M2038.8,812l16.2-154.6h154
				L2192.8,812H2038.8z"/>
		</g>
	</g>
	<g>
		<path class="st3" d="M600.4,891.4l-334.5-466H935L600.4,891.4z M301.6,443.3l298.8,416.2l298.8-416.2H301.6z"/>
		<path class="st2" d="M601.1,1004.3L278.4,542.8h645.4L601.1,1004.3z M314.9,561.8l286.2,409.4l286.2-409.4L314.9,561.8
			L314.9,561.8z"/>
		<g id="Olen_00000060015334397258126070000002324187785667298471_">
			<path class="st2" d="M995.5,313.4c-0.2,0-0.6-0.1-0.7,0c-0.8,0.7-1.5,1.4-2.3,2.2c-11.8,12.5-25.1,23.2-39.9,32.2
				c-11.4,6.9-23.4,12.5-36,16.9c-0.9,0.3-1.8,0.5-2.7,0.7c-0.3,0.1-0.9-0.4-0.8-0.7c0-0.4,0.1-0.8,0.1-1.1c1.4-6,3.3-12,5.5-17.8
				c4-10.7,9-21,14.6-31c4.2-7.4,8.6-14.6,13.2-21.7c7.2-11.4,14.4-22.7,21.5-34.1c3.9-6.2,7.5-12.5,10.7-19.1
				c3.4-6.9,6.4-13.9,8.6-21.3c1.8-6.2,3-12.6,3.2-19.1c0.3-10.8-2.2-21-7-30.7c-0.6-1.2-1.3-2.3-2-3.4c-0.5-0.8-1.2-1.4-2.1-1.8
				c-0.2-0.1-0.5-0.2-0.8-0.2c-0.2,0-0.6,0.1-0.7,0.3c-0.2,0.8-0.3,1.5-0.3,2.3c-0.3,5.4-1.2,10.8-2.7,16c-1.4,4.8-3.1,9.6-5,14.3
				c-5,12.2-10.9,23.9-17.6,35.2c-0.7,1.2-1.5,2.4-2.3,3.6c-0.1,0.2-0.3,0.4-0.5,0.6c-0.3,0.5-1.1,0.9-1.3,0.7
				c-0.3-0.3-0.6-0.6-0.7-0.9c-0.6-2.1-1.2-4.2-1.6-6.4c-1.7-8.1-3.4-16.2-5-24.3c-2.5-12.2-4.9-24.3-7.4-36.5
				c-2-9.5-4.2-18.9-6.8-28.3c-3.8-13.9-9.6-27.1-17-39.6c-3.1-5.3-6.5-10.4-10.6-15c-2-2.3-4.1-4.4-6.3-6.5c-0.9-0.9-2-1.7-3.1-2.4
				c-0.9-0.6-1.9-0.8-3.1-0.7c-0.8,0.1-1.3,0.7-1,1.3c1,1.8,2,3.7,3,5.5c0.7,1.4,1.5,2.8,2.1,4.2c3.6,9.2,7.2,18.4,10.4,27.7
				c2.9,8.5,5.4,17,7,25.8c1.2,6.4,2.2,12.7,3,19.1c0.9,6.7,1.6,13.4,2.1,20c0.8,10.3,1.2,20.6,1,31c0,1.7,0,3.4,0,5
				c-0.1,10.3-0.5,20.7-1.4,31c-0.8,8.9-2.2,17.7-4.3,26.4c-3.3,13.7-8.2,26.7-15.1,39.1c-12.2,22.1-29.4,39.8-51.3,53.3
				c-11,6.8-22.8,12-35,16.3c-15.1,5.4-30.7,8.9-46.6,11.5c-0.4,0.1-0.8,0-1.2,0.1c-0.5,0-1.1-0.4-1.2-0.8c-0.1-0.8-0.2-1.5-0.3-2.3
				c-0.5-5.8-1.2-11.6-2.3-17.3c-1.2-6.5-3-12.9-5.6-19c-2.1-4.8-4.6-9.3-8-13.4c-2.5-3.1-5.4-5.8-8.6-8.1c-1-0.7-2-1.3-3-1.9
				c-0.3-0.2-0.9-0.3-1.1-0.1c-0.2,0.2-0.3,0.7-0.2,1c0.3,1,0.7,2,1,2.9c1.8,5,3.2,10.1,3.9,15.4c1,7.6,0.8,15.2-0.8,22.7
				c-1.8,8.5-5.4,16.2-10.3,23.4c-3.5,5.1-7.4,9.8-11.8,14.2c-5.7,5.7-11.9,10.8-18.3,15.6c-14.8,10.9-30.9,19.5-48.2,25.9
				c-9.1,3.4-18.5,6.1-27.9,8.6c-2.7,0.7-5.5,1.3-8.2,1.8c-4.2,0.8-8.5,0.8-12.8,0.1c-2.2-0.4-4.5-0.8-6.7-1.4
				c-8.2-2-16.2-4.3-24.2-7c-18-6.1-34.9-14.4-50.4-25.3c-8.4-6-16.4-12.4-23.6-19.8c-6-6.2-11.1-12.9-15-20.5
				c-3.7-7.1-6-14.6-6.8-22.6c-1-10.3,0.2-20.4,3.8-30.1c0.5-1.2,0.9-2.4,1.3-3.7c0.1-0.4,0.1-0.8,0.1-1.1c0-0.3-0.3-0.5-0.5-0.4
				c-0.7,0.3-1.5,0.5-2.1,1c-6.1,3.9-10.9,9.1-14.5,15.3c-4.1,6.9-6.7,14.4-8.4,22.1c-1.6,7-2.5,14-3.1,21.1
				c-0.1,0.9-0.2,1.8-0.3,2.7c0,0.4-0.7,0.9-1.2,0.9c-1.3-0.2-2.6-0.4-4-0.6c-12.6-2-24.9-4.9-37-8.7c-14.8-4.7-29-10.7-42.1-18.8
				c-21.9-13.5-39-31.2-51.2-53.4c-8.8-16-14.4-33-17.4-50.9c-1.7-10.1-2.6-20.2-3-30.4c-0.5-16.1-0.7-32.3,0.5-48.4
				c0.3-4.5,0.6-9,1.1-13.5c1-8.9,2.1-17.7,3.8-26.5c1.3-6.7,2.8-13.4,4.9-20c3.8-12,8.3-23.7,12.9-35.4c0.4-1.1,1-2.1,1.5-3.1
				c0.9-1.7,1.9-3.4,2.8-5.1c0.2-0.4,0.4-0.9,0.6-1.4c0.1-0.2-0.3-0.8-0.6-0.9c-1.2-0.4-2.4-0.1-3.5,0.5c-1.4,0.8-2.6,1.8-3.7,2.9
				c-4.9,4.6-9.1,9.8-12.8,15.4c-8,12.2-14.2,25.1-18.6,38.9c-3.2,10.1-5.6,20.5-7.9,30.8c-2.1,9.7-4,19.5-6,29.3
				c-2.4,11.5-4.7,23.1-7.1,34.6c-0.5,2.3-1.1,4.5-1.7,6.8c-0.1,0.4-0.3,0.7-0.5,1.1c-0.1,0.3-0.8,0.4-1,0.2
				c-1.5-1.5-2.5-3.4-3.6-5.1c-4.5-7.5-8.5-15.2-12.2-23.1c-3.5-7.3-6.6-14.7-9-22.4c-1.5-4.8-2.9-9.7-3.4-14.7
				c-0.2-2.1-0.3-4.1-0.5-6.2c0-0.5,0-1-0.5-1.4c-0.4-0.2-1.2-0.1-1.8,0.5c-0.6,0.5-1.2,1.1-1.6,1.7c-0.7,1.1-1.4,2.2-2,3.4
				c-6.4,13-8.4,26.6-5.8,40.8c1.4,7.7,3.8,15,6.9,22.2c2.9,6.7,6.2,13.2,10,19.4c4.5,7.5,9.1,14.9,13.7,22.3
				c6.2,10,12.6,19.8,18.8,29.8c5.5,8.8,10.4,17.8,14.8,27c4.5,9.7,8.4,19.5,11.1,29.8c0.4,1.4,0.6,2.8,0.9,4.2
				c0.1,0.3-0.4,0.8-0.8,0.7c-1-0.3-2.1-0.5-3.1-0.8c-28.4-10-53-25.6-73.7-46.9c-1-1-2-2.1-3-3.1c-0.4-0.4-0.8-0.7-1.2-1
				c-0.2-0.1-0.5-0.1-0.7,0s-0.4,0.4-0.3,0.6c0.1,3.8,0.9,7.4,1.7,11.1c2.3,10.4,6.3,20.3,11.7,29.5c9.1,15.5,21.4,28.4,36.5,38.6
				c11.1,7.5,23.1,12.9,36.2,16.2c7.5,1.9,15.2,2.9,23,3.4c11.6,0.8,23.2,1.5,34.8,2.3c8.7,0.6,17.3,1.4,26,2.3
				c10.5,1.1,21,2.4,31.4,4c15.1,2.3,30,5.3,44.7,9.3c8,2.2,15.8,4.8,23.5,7.8c5.6,2.2,11,4.8,16,8c4,2.6,7.8,5.5,11,9
				c3.5,3.8,6.2,8.1,7.7,13c0.8,2.6,1.3,5.3,1.2,8c-0.1,2.6-0.7,5.1-2,7.4c-1.6,2.8-3.7,3.8-7,3.3c-0.9-0.1-1.8-0.4-2.7-0.7
				c-1.2-0.5-2.5-0.9-3.7-1.5c-4.3-2.2-8.5-4.4-12.7-6.6c-5-2.6-9.9-5.2-14.9-7.6c-6.6-3.2-13.2-6.2-19.9-9.2
				c-14.9-6.8-29.6-13.8-43.7-22.1c-0.5-0.3-1-0.5-1.4-0.7c-0.3-0.1-0.9,0.1-1,0.4c-0.2,0.4-0.4,0.7-0.5,1.1c-1,3.6-1.7,7.3-2,11
				c-0.5,8.3,0.5,16.5,2.7,24.5s5.3,15.7,8.9,23.2c6.4,13.4,14.1,26.1,22.5,38.4c8.6,12.6,17.9,24.8,27.6,36.7
				c10,12.2,20,24.2,30.2,36.2c6.2,7.3,11.6,15.2,16.2,23.5c7.2,13,13.1,26.6,17.8,40.6c2,6.2,3.8,12.4,5,18.8
				c1,5.3,1.7,10.7,2.5,16.1c0.7,4.9,1.3,9.7,2.1,14.6c1.1,6.1,2.4,12.2,3.7,18.2c1,4.7,2.2,9.3,3.8,13.9c1.6,4.8,3.4,9.5,6,13.9
				c7,12.1,16.9,21.6,29.4,28.5c3.5,1.9,7.2,3.4,11.1,4.5c6.7,1.9,13.4,2.1,20.2,0.5c3.4-0.8,6.7-2,9.8-3.4
				c7-3.2,13.1-7.5,18.7-12.6c7.6-7.1,13.7-15.2,17.5-24.8c1.2-3.1,2.4-6.3,3.3-9.5c2.8-9.2,4.7-18.6,6.3-28
				c1.2-7.1,2.2-14.3,3.1-21.5c1.3-10.2,3.6-20.1,6.9-29.8c4.1-12.2,9.2-24,15.2-35.4c5.3-10.2,11.5-19.8,19.1-28.6
				c2.3-2.7,4.5-5.4,6.8-8.1c9-10.7,18-21.5,26.8-32.4c10.3-12.9,20.2-26.1,29-39.9c6.9-10.8,13.2-21.8,18.5-33.4
				c3.5-7.6,6.4-15.3,8.2-23.4c2-8.9,2.8-17.9,1.2-26.9c-0.3-1.9-0.8-3.8-1.4-5.6c-0.3-1.3-0.9-1.5-2-0.9c-0.6,0.3-1.2,0.6-1.7,1
				c-7.4,4.3-15,8.4-22.8,12.2c-8.2,3.9-16.3,7.8-24.5,11.5c-11.5,5.2-22.9,10.6-33.9,16.8c-3,1.7-6.1,3.2-9.2,4.7
				c-1.2,0.6-2.4,1.1-3.7,1.5c-1.5,0.5-3.1,0.8-4.7,0.6c-1.4-0.1-2.6-0.7-3.5-1.7c-0.5-0.6-1-1.2-1.3-1.9c-1.1-2.1-1.8-4.3-1.9-6.7
				c-0.2-3.9,0.7-7.7,2.2-11.3c1.7-4,4.1-7.5,7.1-10.7c3.9-4.1,8.5-7.5,13.5-10.3c6.1-3.5,12.6-6.2,19.3-8.6
				c14.1-5,28.6-8.6,43.3-11.6c13.2-2.7,26.6-4.5,40-6.1c8.9-1,17.8-2,26.8-2.6c3.6-0.3,7.2-0.6,10.8-0.8c6.1-0.5,12.3-0.9,18.4-1.3
				c5.2-0.4,10.4-0.6,15.6-1c4-0.3,8-0.6,12-1.2c11-1.7,21.6-4.9,31.6-9.7c21.4-10.4,38.1-25.5,50.4-45.4
				c7.1-11.4,11.7-23.8,13.9-36.9c0.3-1.9,0.3-3.8,0.5-5.8C995.7,313.6,995.6,313.4,995.5,313.4z M567.5,630.4
				c-1.2,0.2-2.4,0.1-3.6-0.2c-5.5-1.2-10.9-2.5-16.3-4.2c-2.4-0.8-4.8-1.7-7-2.8c-5.4-2.6-9.6-6.5-12.8-11.4
				c-0.9-1.3-1.6-2.7-1.9-4.2c-0.2-0.9,0.3-1.8,1.1-2.3c1.6-1,3.5-1.3,5.3-1.6s3.7-0.5,5.6-0.7c1.1-0.1,2.1,0,3.2,0
				c2.1-0.2,4.3,0,6.4,0.4c3.8,0.7,7.1,2.3,9.8,4.9c0.4,0.4,0.8,0.7,1.1,1.1c4.4,5,7.6,10.6,9.9,16.7c0.3,0.8,0.4,1.8,0.5,2.6
				C569,629.4,568.2,630.3,567.5,630.4z M672.5,608.9c-0.5,1.2-1.1,2.4-1.8,3.4c-3.4,4.9-7.7,8.9-13.3,11.4c-2.3,1-4.7,2-7.1,2.7
				c-5,1.4-10.1,2.5-15.1,3.8c-1.3,0.3-2.6,0.4-4,0.2c-0.5-0.1-1.2-0.8-1.3-1.3c0-0.4-0.1-0.8,0-1.2c0.3-1.2,0.7-2.5,1.2-3.7
				c1.9-4.4,4.2-8.6,7.2-12.5c0.9-1.1,1.8-2.2,2.9-3.2c2.8-2.8,6.2-4.4,10.1-5.1c2.1-0.4,4.2-0.5,6.4-0.5c3.9,0,7.7,0.5,11.5,1.4
				c1,0.3,2,0.6,2.9,1.3c0.5,0.3,0.7,0.8,0.7,1.3C672.8,607.6,672.7,608.3,672.5,608.9z"/>
		</g>
	</g>
</g>
</svg>
