<svg xmlns="http://www.w3.org/2000/svg" width="373" height="126" fill="none"><path fill="#fff" d="M12.307 124.998.005 1.312h22.61l4.155 84.286 4.323-84.286H51.54L40.403 124.998H12.307Z"/><path fill="#fff" d="M60.61 124.998 48.306 1.312h22.61l4.155 84.286 4.323-84.286h20.448L88.704 124.998H60.61Z"/><path fill="#fff" d="M108.911 124.998 96.609 1.312h22.609l4.156 84.286 4.323-84.286h20.448l-11.138 123.686h-28.096Z"/><path fill="#fff" d="M157.213 124.998 144.911 1.312h22.609l4.156 84.286 4.323-84.286h20.448l-11.138 123.686h-28.096Z"/><path fill="red" d="m197.537 56.006-4.322 27.763h16.624l-4.489-27.763c-2.161-13.798-3.324-22.443-3.823-29.591-.665 7.148-1.995 16.292-3.99 29.591Zm18.952 68.992-3.657-22.775h-22.61l-3.491 22.775h-14.732L191 1.312h24.658l22.11 123.686h-21.279ZM270.33 73.795h-9.974v51.203h-20.947V1.312h30.589c8.811 0 15.128 4.655 15.128 16.125v39.9c0 11.138-6.65 16.458-14.796 16.458Zm-9.974-56.524v39.733h1.496c1.662 0 2.493-.998 2.493-3.159V20.43c0-1.995-.332-3.159-2.493-3.159h-1.496ZM319.035 73.795h-9.975v51.203h-20.947V1.312h30.589c8.811 0 15.129 4.655 15.129 16.125v39.9c0 11.138-6.65 16.458-14.796 16.458ZM309.06 17.27v39.733h1.496c1.663 0 2.494-.998 2.494-3.159V20.43c0-1.995-.332-3.159-2.494-3.159h-1.496ZM355.77 125.829h-3.657c-10.64 0-15.96-4.987-15.96-14.962V72.298h15.96v37.406c0 1.828.498 2.66 1.662 2.66s1.829-.832 1.829-2.66V77.618c0-3.325-.333-4.488-2.826-6.982l-8.811-8.645c-5.32-5.153-7.315-10.307-7.315-18.12V15.774c0-9.31 4.322-15.295 16.126-15.295h3.657c11.803 0 15.294 5.985 15.294 13.965v33.25h-15.46V15.11c0-1.33-.499-1.995-1.663-1.995-1.163 0-1.662.665-1.662 1.995v28.096c0 3.158.498 4.156 2.493 6.317l8.645 8.645c6.151 5.818 8.312 10.14 8.312 18.785v31.919c0 10.64-5.319 16.957-16.624 16.957Z"/></svg>
