<svg xmlns="http://www.w3.org/2000/svg" width="472" height="126" fill="none"><path fill="red" d="M13.136 125.092.834 1.405h22.61l4.155 84.287 4.323-84.287H52.37L41.232 125.092H13.136Z"/><path fill="red" d="M61.438 125.092 49.136 1.405h22.61l4.156 84.287 4.322-84.287h20.448L89.534 125.092H61.438Z"/><path fill="red" d="M109.74 125.092 97.438 1.405h22.609l4.157 84.287 4.322-84.287h20.448l-11.138 123.687H109.74Z"/><path fill="red" d="M158.042 125.092 145.74 1.405h22.609l4.157 84.287 4.322-84.287h20.448l-11.138 123.687h-28.096Z"/><path fill="#fff" d="M208.006 73.888h-8.975v51.204h-16.947V1.405h25.589c8.811 0 15.129 4.655 15.129 16.126v39.9c0 11.138-6.65 16.457-14.796 16.457Zm-8.975-59.523v42.733h3.496c1.663 0 2.494-.998 2.494-3.16V17.525c0-1.995-.333-3.159-2.494-3.159h-3.496ZM240.59 85.858l-1.995-71.201-1.995 71.201h3.99Zm1.496 39.234-.998-25.103h-5.153l-.998 25.103h-13.964l7.813-123.687h20.615l8.312 123.687h-15.627ZM275.127 13.874V54.27h1.164c1.164 0 1.829-.665 1.829-2.16V16.034c0-1.496-.167-2.161-1.663-2.161h-1.33Zm0 54.362v56.856h-16.292V1.405h25.269c5.819 0 9.975 3.658 9.975 11.471V48.62c0 6.484-3.159 9.144-5.652 10.307 2.66 1.164 5.985 3.824 5.985 8.977v52.7c0 1.829.166 2.993.665 4.156v.333h-15.794c-.831-.831-1.163-2.161-1.163-3.99V70.397c0-1.163 0-2.161-1.829-2.161h-1.164ZM303.154 125.092V16.202h-7.149V1.404h30.423v14.796h-7.315v108.891h-15.959ZM328.974 1.405h16.458l6.317 71.32-.332-71.32h13.299v123.687h-15.128l-7.647-79.465.166 79.465h-13.133V1.405ZM367.446 1.405h27.098v14.796h-11.138v36.075h9.642v15.295h-9.642v42.559h11.471v14.962h-27.431V1.405ZM413.448 13.874V54.27h1.164c1.164 0 1.829-.665 1.829-2.16V16.034c0-1.496-.167-2.161-1.663-2.161h-1.33Zm0 54.362v56.856h-16.292V1.405h25.27c5.818 0 9.974 3.658 9.974 11.471V48.62c0 6.484-3.158 9.144-5.652 10.307 2.66 1.164 5.985 3.824 5.985 8.977v52.7c0 1.829.166 2.993.665 4.156v.333h-15.794c-.831-.831-1.163-2.161-1.163-3.99V70.397c0-1.163 0-2.161-1.829-2.161h-1.164ZM454.755 125.923h-3.657c-10.64 0-15.96-4.987-15.96-14.962V72.392h15.96v37.405c0 1.829.498 2.66 1.662 2.66s1.829-.831 1.829-2.66V77.712c0-3.325-.333-4.489-2.826-6.982l-8.811-8.645c-5.32-5.154-7.315-10.307-7.315-18.12V15.868c0-9.31 4.322-15.295 16.126-15.295h3.657c11.803 0 15.295 5.985 15.295 13.965v33.249h-15.461V15.204c0-1.33-.499-1.995-1.663-1.995-1.163 0-1.662.665-1.662 1.995v28.095c0 3.159.499 4.156 2.494 6.318l8.644 8.644c6.151 5.819 8.313 10.141 8.313 18.786v31.919c0 10.64-5.32 16.957-16.625 16.957Z"/></svg>
